<svg width="461" height="40" viewBox="0 0 461 40" fill="none" xmlns="http://www.w3.org/2000/svg">
<g clip-path="url(#clip0_9065_85518)">
<path d="M20 0C16.0444 0 12.1776 1.17298 8.8886 3.37061C5.59962 5.56824 3.03617 8.69181 1.52242 12.3463C0.0086657 16.0009 -0.387401 20.0222 0.384303 23.9018C1.15601 27.7814 3.06082 31.3451 5.85787 34.1421C8.65492 36.9392 12.2186 38.844 16.0982 39.6157C19.9778 40.3874 23.9992 39.9913 27.6537 38.4776C31.3082 36.9638 34.4318 34.4004 36.6294 31.1114C38.827 27.8224 40 23.9556 40 20C40 14.6957 37.8929 9.60859 34.1421 5.85786C30.3914 2.10714 25.3043 0 20 0ZM26.0106 18.6629C24.0815 18.6864 22.238 19.4631 20.8739 20.8273C19.5097 22.1915 18.7329 24.035 18.7094 25.964C18.7094 25.9951 18.7094 26.0261 18.7094 26.0572C18.7094 26.9907 18.4326 27.9033 17.914 28.6795C17.3953 29.4557 16.6582 30.0606 15.7957 30.4179C14.9332 30.7751 13.9842 30.8686 13.0686 30.6865C12.153 30.5044 11.3119 30.0548 10.6518 29.3947C9.99173 28.7346 9.54219 27.8936 9.36007 26.978C9.17794 26.0624 9.27142 25.1134 9.62866 24.2509C9.98591 23.3884 10.5909 22.6512 11.3671 22.1326C12.1433 21.6139 13.0559 21.3371 13.9894 21.3371C14.9529 21.3368 15.9068 21.1459 16.7962 20.7753C17.6856 20.4047 18.4929 19.8618 19.1716 19.1778C19.8502 18.4939 20.3869 17.6824 20.7505 16.7902C21.1142 15.8979 21.2977 14.9425 21.2906 13.979V13.9428C21.2906 13.0093 21.5674 12.0967 22.0861 11.3205C22.6047 10.5443 23.3419 9.93935 24.2043 9.5821C25.0668 9.22485 26.0159 9.13138 26.9314 9.31351C27.847 9.49563 28.6881 9.94517 29.3482 10.6053C30.0083 11.2654 30.4578 12.1064 30.6399 13.022C30.8221 13.9376 30.7286 14.8866 30.3714 15.7491C30.0141 16.6116 29.4091 17.3488 28.6329 17.8674C27.8567 18.386 26.9441 18.6629 26.0106 18.6629Z" fill="#00C9EA"/>
<path fill-rule="evenodd" clip-rule="evenodd" d="M57.9593 30.5185H72.4013C72.5081 30.5206 72.6097 30.5646 72.6843 30.6411C72.7589 30.7176 72.8003 30.8204 72.7996 30.9272V34.9696C72.7989 35.0771 72.7559 35.18 72.6799 35.256C72.6039 35.332 72.501 35.375 72.3935 35.3756H56.0997C54.7154 35.3736 53.3884 34.8228 52.4096 33.8439C51.4308 32.8651 50.88 31.5381 50.8779 30.1539V3.95445C50.8779 3.84676 50.9207 3.74348 50.9969 3.66733C51.073 3.59118 51.1763 3.5484 51.284 3.5484H55.7428C55.8505 3.5484 55.9538 3.59118 56.0299 3.66733C56.1061 3.74348 56.1488 3.84676 56.1488 3.95445V28.7081C56.1549 29.1864 56.3476 29.6434 56.6858 29.9816C57.024 30.3198 57.481 30.5125 57.9593 30.5185ZM129.422 5.77264H125.335C125.111 5.77264 124.929 5.95444 124.929 6.1787V10.2651C124.929 10.4893 125.111 10.6711 125.335 10.6711H129.422C129.646 10.6711 129.828 10.4893 129.828 10.2651V6.1787C129.828 5.95444 129.646 5.77264 129.422 5.77264ZM95.7612 13.5394H91.6748C91.5671 13.5394 91.4639 13.5822 91.3877 13.6583C91.3116 13.7345 91.2688 13.8377 91.2688 13.9454V27.102C91.2753 27.7086 91.0684 28.2981 90.6843 28.7676C90.1079 29.4618 89.4366 30.0712 88.6902 30.578C87.6752 31.2641 86.4754 31.6249 85.2504 31.6126C83.5977 31.6126 82.3175 31.1807 81.4485 30.3194C80.5795 29.4582 80.1373 28.1495 80.1373 26.4063V13.9454C80.1376 13.8922 80.1274 13.8395 80.1073 13.7902C80.0872 13.741 80.0575 13.6962 80.02 13.6585C79.9825 13.6207 79.9379 13.5908 79.8888 13.5703C79.8397 13.5499 79.787 13.5394 79.7338 13.5394H75.6448C75.5371 13.5394 75.4338 13.5822 75.3577 13.6583C75.2815 13.7345 75.2388 13.8377 75.2388 13.9454V27.0451C75.2388 29.7013 76.0431 31.8764 77.6285 33.5109C79.2139 35.1455 81.4433 35.9705 84.2495 35.9705C85.761 35.9821 87.2528 35.6271 88.5971 34.936C89.8272 34.3188 90.9212 33.4614 91.8145 32.4143V34.9696C91.8152 35.0771 91.8582 35.18 91.9342 35.256C92.0102 35.332 92.1131 35.375 92.2205 35.3757H95.7638C95.8715 35.3757 95.9748 35.3329 96.0509 35.2567C96.1271 35.1806 96.1698 35.0773 96.1698 34.9696V13.9454C96.1698 13.8919 96.1593 13.8389 96.1387 13.7894C96.1181 13.74 96.088 13.6951 96.05 13.6574C96.012 13.6196 95.967 13.5898 95.9174 13.5695C95.8678 13.5493 95.8147 13.539 95.7612 13.5394ZM112.047 12.9471C113.689 12.9131 115.312 13.3052 116.757 14.0851C118.087 14.8196 119.18 15.9176 119.91 17.2507C120.668 18.6695 121.053 20.2585 121.027 21.8673V34.967C121.026 35.0745 120.983 35.1774 120.907 35.2534C120.831 35.3294 120.728 35.3724 120.621 35.3731H116.532C116.424 35.3724 116.321 35.3294 116.245 35.2534C116.169 35.1774 116.126 35.0745 116.126 34.967V22.501C116.126 20.8224 115.647 19.5319 114.716 18.6448C113.785 17.7577 112.554 17.3102 111.054 17.3102C109.829 17.2964 108.629 17.6574 107.614 18.3448C106.89 18.8338 106.232 19.4145 105.656 20.0724C105.228 20.5605 104.991 21.187 104.989 21.8363V34.9696C104.989 35.0773 104.946 35.1806 104.87 35.2567C104.794 35.3329 104.691 35.3757 104.583 35.3757H100.497C100.389 35.3757 100.286 35.3329 100.21 35.2567C100.133 35.1806 100.091 35.0773 100.091 34.9696V13.9428C100.091 13.8363 100.133 13.734 100.208 13.6585C100.283 13.5829 100.385 13.5401 100.491 13.5394H104.081C104.189 13.5394 104.291 13.5818 104.367 13.6574C104.444 13.733 104.487 13.8356 104.487 13.9428V16.4981C105.381 15.4536 106.474 14.598 107.702 13.9816C109.046 13.292 110.537 12.9371 112.047 12.9471ZM129.422 13.5394H125.335C125.111 13.5394 124.929 13.7212 124.929 13.9454V34.9696C124.929 35.1939 125.111 35.3757 125.335 35.3757H129.422C129.646 35.3757 129.828 35.1939 129.828 34.9696V13.9454C129.828 13.7212 129.646 13.5394 129.422 13.5394ZM149.445 13.5394H142.506C142.356 13.5387 142.212 13.4788 142.106 13.3727C142 13.2666 141.94 13.123 141.94 12.973V6.72442C141.94 6.67088 141.929 6.61786 141.908 6.56843C141.888 6.519 141.858 6.47412 141.82 6.43638C141.782 6.39864 141.737 6.36878 141.687 6.34853C141.638 6.32828 141.585 6.31803 141.531 6.31837C141.478 6.31863 141.425 6.32952 141.376 6.35039C141.328 6.37127 141.283 6.40171 141.247 6.43992L137.207 10.5004C137.169 10.5378 137.138 10.5825 137.118 10.6318C137.097 10.6812 137.087 10.7341 137.088 10.7875V12.9988C137.08 13.1436 137.018 13.2801 136.913 13.3802C136.808 13.4803 136.669 13.5363 136.524 13.5368H133.596C133.489 13.5381 133.387 13.5815 133.312 13.6575C133.237 13.7335 133.195 13.836 133.195 13.9428V17.4421C133.197 17.5483 133.239 17.6497 133.314 17.725C133.389 17.8003 133.49 17.8436 133.596 17.8456H136.656C136.775 17.8723 136.883 17.9373 136.962 18.0306C137.042 18.124 137.088 18.2406 137.095 18.3629V28.7081C137.095 31.1263 137.794 32.9497 139.165 34.1394C140.535 35.3291 142.369 35.9136 144.596 35.9136H149.432C149.486 35.9136 149.538 35.9031 149.588 35.8827C149.637 35.8623 149.682 35.8324 149.719 35.7947C149.757 35.757 149.787 35.7122 149.807 35.6629C149.828 35.6137 149.838 35.5609 149.838 35.5076V31.7186C149.838 31.6653 149.828 31.6125 149.807 31.5632C149.787 31.5139 149.757 31.4692 149.719 31.4315C149.682 31.3938 149.637 31.3639 149.588 31.3435C149.538 31.323 149.486 31.3125 149.432 31.3125H146.062C143.662 31.3125 142.871 30.591 142.863 30.5832C142.214 30.0116 141.95 29.2099 141.95 27.8158V18.4094C141.95 18.2612 142.008 18.119 142.112 18.0134C142.216 17.9079 142.358 17.8476 142.506 17.8456H149.45C149.558 17.8449 149.661 17.8019 149.737 17.7259C149.813 17.6499 149.856 17.547 149.856 17.4395V13.9428C149.856 13.8893 149.845 13.8363 149.824 13.787C149.803 13.7377 149.773 13.693 149.735 13.6555C149.696 13.618 149.651 13.5885 149.602 13.5685C149.552 13.5486 149.499 13.5387 149.445 13.5394ZM210.751 22.0458C211.648 22.3976 212.493 22.8701 213.263 23.4502C213.993 24.0029 214.598 24.7047 215.037 25.5089C215.494 26.3861 215.722 27.3648 215.699 28.3538C215.727 29.7428 215.305 31.1037 214.496 32.2333C213.603 33.4042 212.399 34.3004 211.02 34.8196C209.528 35.4326 207.7 35.7429 205.589 35.7429C203.76 35.781 201.94 35.4784 200.222 34.8506C198.803 34.3311 197.56 33.42 196.638 32.2229C195.828 31.1016 195.352 29.7734 195.267 28.3926C195.262 28.3255 195.271 28.258 195.295 28.195C195.319 28.1319 195.356 28.0749 195.404 28.0279C195.508 27.9259 195.649 27.8692 195.795 27.8702H199.832C199.953 27.8678 200.072 27.9083 200.166 27.9844C200.261 28.0605 200.326 28.1675 200.349 28.2866C200.43 28.9195 200.694 29.5152 201.107 30.0013C201.606 30.5539 202.241 30.9667 202.948 31.1988C203.782 31.4747 204.656 31.6102 205.535 31.5996C206.43 31.6164 207.321 31.4754 208.168 31.1832C208.837 30.9546 209.436 30.5584 209.908 30.0323C210.316 29.5613 210.54 28.9588 210.539 28.3357C210.549 27.8028 210.352 27.2868 209.991 26.8951C209.551 26.4567 209.022 26.1188 208.439 25.9046C207.651 25.5979 206.841 25.3498 206.016 25.1623L203.044 24.4511C200.879 23.9312 199.157 23.1501 197.872 22.0665C196.586 20.9828 195.934 19.5293 195.934 17.7396C195.911 16.3369 196.367 14.9682 197.228 13.8601C198.153 12.7117 199.363 11.8254 200.737 11.2893C202.326 10.661 204.023 10.3508 205.731 10.3763C207.431 10.3435 209.12 10.654 210.697 11.2893C212.028 11.8262 213.194 12.7028 214.08 13.8316C214.819 14.8119 215.256 15.9868 215.337 17.212C215.341 17.2654 215.334 17.3192 215.316 17.3697C215.278 17.4757 215.208 17.5669 215.115 17.6305C215.022 17.6941 214.911 17.7269 214.799 17.724H210.844C210.726 17.7274 210.61 17.6899 210.516 17.6178C210.422 17.5458 210.355 17.4436 210.327 17.3283C210.252 16.9162 210.091 16.5243 209.857 16.1771C209.622 15.8299 209.318 15.535 208.964 15.311C208.126 14.7627 207.014 14.4834 205.664 14.4834C204.828 14.4653 203.996 14.6021 203.21 14.8869C202.614 15.0979 202.086 15.4639 201.679 15.9472C201.336 16.3763 201.148 16.9085 201.146 17.4577C201.135 17.8858 201.255 18.307 201.49 18.6655C201.74 19.0271 202.068 19.3283 202.449 19.5474C202.891 19.8051 203.359 20.015 203.846 20.1733C204.363 20.3417 204.887 20.4841 205.418 20.6L207.87 21.169C208.853 21.3812 209.817 21.6745 210.751 22.0458ZM249.215 22.1105H239.697C239.646 22.1104 239.596 22.1206 239.549 22.1403C239.502 22.16 239.459 22.1888 239.423 22.2251C239.387 22.2615 239.359 22.3046 239.34 22.3519C239.321 22.3993 239.311 22.4499 239.312 22.501V26.0856C239.312 26.1878 239.353 26.2858 239.425 26.3581C239.497 26.4304 239.595 26.471 239.697 26.471H245.056C244.976 27.2658 244.737 28.0363 244.353 28.7366C243.857 29.6213 243.113 30.3408 242.211 30.8057C241.189 31.3139 240.058 31.5651 238.916 31.5376C237.618 31.5616 236.341 31.2076 235.241 30.5186C234.144 29.7866 233.285 28.7501 232.769 27.5366C232.179 26.2434 231.879 24.9063 231.879 23.026C231.83 21.4845 232.134 19.9522 232.769 18.5465C233.286 17.3406 234.142 16.3109 235.233 15.5826C236.302 14.9045 237.545 14.553 238.81 14.5713C239.51 14.5665 240.207 14.6632 240.879 14.8584C241.486 15.0363 242.055 15.3219 242.561 15.7016C243.053 16.0774 243.48 16.5318 243.825 17.0464C244.156 17.5496 244.417 18.0951 244.601 18.6681C244.617 18.724 244.651 18.7731 244.698 18.8073C244.745 18.8416 244.802 18.859 244.86 18.8569H249.094C249.134 18.8579 249.174 18.8495 249.21 18.8325C249.246 18.8154 249.278 18.7901 249.303 18.7586C249.329 18.7289 249.348 18.6937 249.358 18.6556C249.369 18.6175 249.37 18.5775 249.363 18.5387C249.171 17.425 248.779 16.3552 248.206 15.3809C247.6 14.3563 246.811 13.4516 245.879 12.7118C244.911 11.9505 243.818 11.3641 242.648 10.9789C241.387 10.5632 240.066 10.3562 238.738 10.366C237.165 10.3524 235.605 10.6531 234.15 11.2505C232.753 11.8322 231.498 12.7072 230.469 13.8161C229.389 15.0015 228.561 16.3933 228.033 17.9077C227.429 19.564 227.134 21.3174 227.164 23.0803C227.164 25.7287 227.661 27.759 228.638 29.6858C229.557 31.5426 230.991 33.0958 232.769 34.1601C234.517 35.1946 236.578 35.7326 238.896 35.7326C240.823 35.7679 242.73 35.3292 244.449 34.455C246.037 33.6242 247.355 32.3584 248.25 30.8057C249.169 29.2332 249.634 27.3426 249.634 25.1908V22.5268C249.634 22.472 249.623 22.4176 249.602 22.3669C249.581 22.3162 249.55 22.2702 249.511 22.2315C249.472 22.1928 249.426 22.1622 249.375 22.1414C249.324 22.1206 249.27 22.1101 249.215 22.1105ZM187.508 10.6711H191.553C191.661 10.6711 191.764 10.7139 191.84 10.7901C191.916 10.8662 191.959 10.9695 191.959 11.0772V34.9593C191.959 35.0665 191.917 35.1694 191.841 35.2455C191.766 35.3215 191.663 35.3646 191.556 35.3653H187.467C187.39 35.365 187.315 35.3448 187.248 35.3067C187.181 35.2686 187.126 35.214 187.086 35.1481L174.84 18.3629V24.6812H174.814V34.9696C174.814 35.0773 174.772 35.1806 174.695 35.2567C174.619 35.3329 174.516 35.3757 174.408 35.3757H170.389C170.282 35.3757 170.178 35.3329 170.102 35.2567C170.026 35.1806 169.983 35.0773 169.983 34.9696V11.0772C169.983 10.9695 170.026 10.8662 170.102 10.7901C170.178 10.7139 170.282 10.6711 170.389 10.6711H174.786C174.862 10.6712 174.937 10.6913 175.004 10.7294C175.07 10.7675 175.125 10.8223 175.164 10.8884L187.102 27.5727V23.0234V20.5664V11.0772C187.102 10.9695 187.145 10.8662 187.221 10.7901C187.297 10.7139 187.4 10.6711 187.508 10.6711ZM274.512 10.6712H270.48C270.372 10.6712 270.269 10.7139 270.193 10.7901C270.116 10.8662 270.074 10.9695 270.074 11.0772V19.7466C270.074 19.8243 270.058 19.9014 270.029 19.9732C269.999 20.0451 269.955 20.1104 269.9 20.1654C269.845 20.2204 269.78 20.264 269.708 20.2937C269.636 20.3235 269.559 20.3388 269.481 20.3388H258.373C258.295 20.3388 258.218 20.3235 258.147 20.2937C258.075 20.264 258.009 20.2204 257.954 20.1654C257.899 20.1104 257.856 20.0451 257.826 19.9732C257.796 19.9014 257.781 19.8243 257.781 19.7466V11.0772C257.781 10.9695 257.738 10.8662 257.662 10.7901C257.586 10.7139 257.483 10.6712 257.375 10.6712H253.343C253.29 10.6715 253.237 10.6823 253.189 10.7029C253.14 10.7235 253.095 10.7535 253.058 10.7912C253.021 10.8289 252.992 10.8735 252.972 10.9226C252.952 10.9717 252.942 11.0242 252.942 11.0772V34.967C252.942 35.0202 252.952 35.073 252.972 35.1222C252.992 35.1715 253.022 35.2163 253.059 35.254C253.097 35.2917 253.141 35.3217 253.19 35.3421C253.239 35.3626 253.292 35.3731 253.345 35.3731H257.377C257.431 35.3731 257.484 35.3626 257.533 35.3422C257.582 35.3218 257.627 35.2919 257.665 35.2542C257.702 35.2165 257.732 35.1717 257.753 35.1224C257.773 35.0732 257.783 35.0204 257.783 34.967V25.1908C257.783 25.1131 257.798 25.0361 257.828 24.9643C257.857 24.8925 257.9 24.8271 257.955 24.7721C258.01 24.7171 258.075 24.6734 258.147 24.6436C258.219 24.6138 258.296 24.5985 258.373 24.5985H269.494C269.572 24.5981 269.649 24.6132 269.721 24.6429C269.793 24.6725 269.859 24.7161 269.914 24.7712C269.969 24.8263 270.013 24.8917 270.042 24.9637C270.072 25.0357 270.087 25.1129 270.087 25.1908V34.967C270.087 35.0747 270.129 35.178 270.206 35.2542C270.282 35.3303 270.385 35.3731 270.493 35.3731H274.525C274.632 35.3731 274.736 35.3303 274.812 35.2542C274.888 35.178 274.931 35.0747 274.931 34.967V11.0772C274.931 11.0228 274.92 10.9689 274.899 10.9188C274.877 10.8687 274.846 10.8233 274.807 10.7854C274.768 10.7475 274.722 10.7179 274.671 10.6983C274.62 10.6787 274.566 10.6694 274.512 10.6712ZM278.223 10.6841H297.879C297.986 10.6861 298.087 10.7298 298.161 10.8057C298.236 10.8817 298.278 10.9838 298.277 11.0901V14.5687C298.278 14.6196 298.268 14.6699 298.249 14.717C298.23 14.7641 298.201 14.8068 298.166 14.8429C298.13 14.879 298.087 14.9076 298.04 14.9271C297.993 14.9466 297.943 14.9567 297.892 14.9567H291.129C290.972 14.9567 290.822 15.0187 290.711 15.1292C290.6 15.2397 290.537 15.3897 290.537 15.5464L290.467 34.9696C290.466 35.0803 290.422 35.1862 290.343 35.2642C290.265 35.3422 290.158 35.386 290.048 35.386H286.044C285.936 35.386 285.833 35.3433 285.756 35.2672C285.68 35.1912 285.636 35.0879 285.636 34.98V15.5489C285.636 15.3919 285.573 15.2412 285.462 15.1301C285.351 15.0191 285.2 14.9567 285.043 14.9567H278.202C278.1 14.956 278.002 14.9148 277.93 14.8421C277.858 14.7695 277.817 14.6712 277.817 14.5687V11.0901C277.817 10.9824 277.86 10.8792 277.936 10.803C278.012 10.7269 278.115 10.6841 278.223 10.6841ZM165.186 10.6841H161.133C160.909 10.6841 160.727 10.8659 160.727 11.0901V34.98C160.727 35.2042 160.909 35.386 161.133 35.386H165.186C165.41 35.386 165.592 35.2042 165.592 34.98V11.0901C165.592 10.8659 165.41 10.6841 165.186 10.6841ZM219.418 10.6841H223.471C223.695 10.6841 223.877 10.8659 223.877 11.0901V34.98C223.877 35.2042 223.695 35.386 223.471 35.386H219.418C219.194 35.386 219.012 35.2042 219.012 34.98V11.0901C219.012 10.8659 219.194 10.6841 219.418 10.6841Z" fill="white"/>
<path fill-rule="evenodd" clip-rule="evenodd" d="M324.324 26.8563H328.351V26.8512C328.424 26.8517 328.495 26.8679 328.56 26.8987C328.626 26.9294 328.684 26.9739 328.731 27.0292C328.777 27.0845 328.812 27.1492 328.831 27.2189C328.85 27.2886 328.854 27.3617 328.843 27.4331C328.636 29.0127 328.02 30.5106 327.055 31.778C326.09 33.0453 324.809 34.0378 323.342 34.6567C321.618 35.3961 319.757 35.7644 317.882 35.7378C315.489 35.7378 313.371 35.2205 311.61 34.186C309.836 33.149 308.409 31.6114 307.506 29.766C306.551 27.8573 306.065 25.6072 306.065 23.0415C306.065 20.4759 306.562 18.2155 307.542 16.3171C308.471 14.4683 309.921 12.9318 311.713 11.8971C313.501 10.8626 315.634 10.3453 318.055 10.3453C319.882 10.3146 321.695 10.667 323.378 11.3798C324.868 12.0256 326.158 13.0578 327.115 14.3696C327.971 15.5687 328.518 16.9609 328.706 18.4224C328.715 18.4946 328.71 18.5681 328.69 18.6381C328.669 18.7081 328.634 18.7729 328.587 18.8284C328.54 18.8818 328.482 18.9246 328.417 18.954C328.353 18.9835 328.283 18.9988 328.212 18.9991H324.146C324.029 18.9962 323.916 18.9537 323.827 18.8785C323.737 18.8034 323.675 18.7 323.652 18.5853C323.509 17.8286 323.206 17.111 322.765 16.48C322.267 15.7837 321.59 15.2343 320.807 14.8895C319.938 14.5093 318.998 14.3196 318.05 14.3334C316.824 14.3025 315.62 14.67 314.62 15.3809C313.518 16.1188 312.659 17.1662 312.151 18.3913C311.542 19.8662 311.246 21.4515 311.282 23.0467C311.246 24.6404 311.537 26.2245 312.135 27.7021C312.626 28.9174 313.46 29.9634 314.535 30.7125C315.503 31.4186 316.679 31.7825 317.877 31.7471C318.888 31.7651 319.892 31.5695 320.822 31.1729C321.649 30.815 322.363 30.2415 322.892 29.5125C323.366 28.8441 323.687 28.0794 323.833 27.2727C323.853 27.1567 323.913 27.0514 324.003 26.9753C324.093 26.8992 324.207 26.8571 324.324 26.8563ZM368.362 24.702L369.068 25.827L374.755 34.6153C374.822 34.7246 374.847 34.8549 374.823 34.9811C374.8 35.1073 374.73 35.2203 374.628 35.2981C374.552 35.3514 374.462 35.3819 374.37 35.386H370.05C369.967 35.3858 369.885 35.3649 369.812 35.3252C369.739 35.2855 369.677 35.2281 369.631 35.1584L363.523 25.6408C363.483 25.5794 363.429 25.529 363.364 25.4942C363.3 25.4594 363.228 25.4413 363.155 25.4416H359.86C359.704 25.4423 359.553 25.5049 359.442 25.6159C359.331 25.7268 359.269 25.877 359.268 26.0339V34.9696C359.268 35.0243 359.257 35.0785 359.236 35.129C359.215 35.1795 359.185 35.2254 359.146 35.2641C359.107 35.3027 359.062 35.3334 359.011 35.3543C358.961 35.3753 358.906 35.386 358.852 35.386H354.843C354.733 35.3854 354.627 35.3413 354.549 35.2633C354.471 35.1854 354.427 35.0799 354.427 34.9696V11.1005C354.427 10.9903 354.471 10.8848 354.549 10.8068C354.627 10.7289 354.733 10.6848 354.843 10.6841H364.614C366.153 10.6528 367.681 10.9527 369.094 11.5635C370.336 12.0912 371.389 12.9833 372.113 14.122C372.838 15.2608 373.2 16.5925 373.151 17.9413C373.153 19.2828 372.737 20.5916 371.962 21.6863C371.116 22.874 369.973 23.8179 368.646 24.4226C368.537 24.4744 368.416 24.5287 368.281 24.5856L368.362 24.702ZM359.432 14.8413C359.321 14.9522 359.258 15.1024 359.258 15.2593V20.9001C359.258 21.0571 359.32 21.2078 359.431 21.3189C359.542 21.4299 359.693 21.4923 359.85 21.4923H363.957C364.745 21.5092 365.529 21.3612 366.256 21.0578C366.871 20.8099 367.395 20.3794 367.757 19.8244C368.119 19.2694 368.302 18.6166 368.281 17.9542C368.297 17.3378 368.144 16.7288 367.839 16.193C367.537 15.6976 367.093 15.3046 366.564 15.0653C365.94 14.7887 365.263 14.6528 364.58 14.667H359.85C359.693 14.6677 359.543 14.7303 359.432 14.8413ZM343.657 22.8656C343.621 22.8136 343.602 22.7518 343.602 22.6885C343.602 22.6251 343.621 22.5633 343.657 22.5113L351.258 11.4574C351.313 11.3829 351.343 11.294 351.347 11.2019C351.351 11.1098 351.327 11.0187 351.279 10.9401C351.232 10.8592 351.165 10.7925 351.083 10.747C351.002 10.7014 350.909 10.6788 350.816 10.6815H346.541C346.454 10.6808 346.369 10.7012 346.292 10.7408C346.215 10.7805 346.148 10.8382 346.099 10.9091L342.648 16.1903L340.724 19.056C340.692 19.1084 340.647 19.1517 340.593 19.1818C340.54 19.2118 340.479 19.2276 340.418 19.2276C340.356 19.2276 340.296 19.2118 340.242 19.1818C340.188 19.1517 340.143 19.1084 340.111 19.056L338.215 16.2317L334.76 10.9117C334.711 10.8396 334.645 10.781 334.568 10.7412C334.491 10.7014 334.405 10.6818 334.318 10.6841H329.965C329.872 10.6814 329.779 10.704 329.698 10.7496C329.616 10.7951 329.549 10.8618 329.502 10.9427C329.455 11.0217 329.432 11.1126 329.436 11.2044C329.44 11.2962 329.47 11.3849 329.523 11.46L337.171 22.6096C337.206 22.6615 337.225 22.7227 337.225 22.7855C337.225 22.8482 337.206 22.9094 337.171 22.9613L331.825 30.8315L329.256 34.6127C329.202 34.6873 329.172 34.7762 329.168 34.8682C329.164 34.9602 329.188 35.0513 329.236 35.13C329.282 35.2108 329.35 35.2776 329.432 35.3231C329.513 35.3686 329.605 35.3913 329.699 35.3886H333.945C334.032 35.3893 334.117 35.3693 334.194 35.3301C334.271 35.291 334.337 35.2338 334.388 35.1636L338.246 29.3211L339.798 27.0503L340.127 26.4968C340.159 26.4444 340.205 26.4012 340.258 26.3712C340.312 26.3412 340.373 26.3255 340.435 26.3255C340.496 26.3255 340.557 26.3412 340.611 26.3712C340.664 26.4012 340.71 26.4444 340.742 26.4968L342.62 29.3263L346.476 35.1739C346.526 35.2445 346.592 35.3019 346.67 35.3411C346.747 35.3803 346.832 35.4001 346.918 35.3989H351.207C351.299 35.4011 351.391 35.3783 351.472 35.3328C351.553 35.2873 351.62 35.2208 351.667 35.1403C351.715 35.0619 351.739 34.9709 351.736 34.8789C351.733 34.7869 351.702 34.6979 351.649 34.623L343.657 22.8656ZM390.41 10.6841H386.215C386.116 10.687 386.021 10.7254 385.947 10.7923C385.873 10.8592 385.826 10.9501 385.814 11.0488L382.258 34.9153C382.251 34.9727 382.256 35.0309 382.273 35.0861C382.29 35.1414 382.318 35.1926 382.356 35.2363C382.393 35.2801 382.44 35.3156 382.492 35.3405C382.544 35.3653 382.601 35.3791 382.659 35.3808H386.538C386.641 35.3815 386.74 35.3441 386.817 35.2758C386.894 35.2075 386.943 35.1132 386.955 35.011L388.982 20.9492C388.985 20.9018 389.005 20.857 389.038 20.8225C389.07 20.7879 389.114 20.7659 389.161 20.7601C389.208 20.7542 389.256 20.765 389.296 20.7906C389.336 20.8161 389.366 20.8548 389.381 20.9L395.135 35.1041C395.164 35.1843 395.217 35.2536 395.287 35.3027C395.357 35.3517 395.44 35.3781 395.526 35.3782H399.511C399.595 35.3793 399.677 35.3552 399.746 35.3091C399.816 35.2629 399.87 35.1969 399.902 35.1196L405.819 21.0035C405.837 20.9635 405.868 20.9303 405.906 20.909C405.945 20.8876 405.989 20.8793 406.032 20.8851C406.076 20.8909 406.116 20.9106 406.148 20.9412C406.179 20.9719 406.2 21.0118 406.207 21.0552L408.111 35.0213C408.121 35.1238 408.169 35.2187 408.246 35.2875C408.322 35.3564 408.422 35.3943 408.524 35.3938H412.515C412.575 35.3941 412.635 35.3813 412.689 35.3565C412.744 35.3316 412.793 35.2952 412.832 35.2498C412.871 35.2043 412.9 35.1509 412.917 35.0931C412.934 35.0354 412.938 34.9747 412.929 34.9153L409.339 11.0384C409.324 10.9399 409.275 10.85 409.199 10.785C409.124 10.72 409.028 10.6842 408.928 10.6841H404.875C404.789 10.6839 404.705 10.7104 404.635 10.76C404.564 10.8095 404.511 10.8797 404.482 10.9608L397.758 29.8203C397.747 29.8516 397.726 29.8787 397.699 29.898C397.672 29.9172 397.64 29.9275 397.606 29.9275C397.573 29.9275 397.541 29.9172 397.514 29.898C397.486 29.8787 397.466 29.8516 397.455 29.8203L390.803 10.9634C390.775 10.8818 390.721 10.8111 390.651 10.761C390.581 10.711 390.496 10.6841 390.41 10.6841ZM456.534 35.386H460.507C460.574 35.3863 460.64 35.3704 460.7 35.3396C460.759 35.3088 460.811 35.2641 460.849 35.2092C460.888 35.1544 460.913 35.091 460.921 35.0245C460.93 34.958 460.923 34.8904 460.9 34.8274L452.179 10.9582C452.15 10.8782 452.096 10.8091 452.027 10.7601C451.957 10.7111 451.874 10.6846 451.788 10.6841H446.497C446.411 10.6845 446.328 10.7109 446.258 10.7599C446.187 10.8088 446.134 10.878 446.104 10.9582L437.419 34.8274C437.396 34.8904 437.389 34.958 437.397 35.0245C437.406 35.091 437.431 35.1544 437.47 35.2092C437.508 35.2641 437.56 35.3088 437.619 35.3396C437.679 35.3704 437.745 35.3863 437.812 35.386H441.645C441.731 35.3864 441.815 35.3599 441.885 35.3103C441.955 35.2607 442.007 35.1904 442.035 35.1093L444.022 29.5668C444.051 29.4862 444.105 29.4166 444.175 29.3675C444.245 29.3184 444.329 29.2923 444.415 29.2926H453.751C453.837 29.2924 453.92 29.3187 453.99 29.3678C454.06 29.4168 454.113 29.4864 454.142 29.5668L456.141 35.1119C456.171 35.1925 456.224 35.2621 456.294 35.3112C456.365 35.3602 456.449 35.3864 456.534 35.386ZM445.47 25.1028L448.861 15.0834C448.878 15.0326 448.911 14.9885 448.955 14.9573C448.999 14.9261 449.051 14.9094 449.105 14.9094C449.159 14.9094 449.211 14.9261 449.255 14.9573C449.299 14.9885 449.332 15.0326 449.35 15.0834L452.688 25.1002C452.701 25.1388 452.704 25.1798 452.698 25.22C452.692 25.2601 452.676 25.2982 452.653 25.3312C452.629 25.3642 452.598 25.3911 452.562 25.4099C452.526 25.4286 452.486 25.4386 452.445 25.439H445.721C445.68 25.4397 445.639 25.4306 445.603 25.4125C445.566 25.3945 445.534 25.3679 445.509 25.3351C445.485 25.3023 445.469 25.2641 445.462 25.2237C445.455 25.1833 445.458 25.1419 445.47 25.1028ZM432.326 26.8563H436.353C436.426 26.8591 436.498 26.878 436.562 26.9115C436.627 26.945 436.684 26.9924 436.728 27.0503C436.775 27.1063 436.81 27.1717 436.83 27.2421C436.85 27.3126 436.855 27.3865 436.845 27.459C436.638 29.0385 436.022 30.5365 435.057 31.8038C434.092 33.0712 432.811 34.0637 431.344 34.6825C429.618 35.4131 427.758 35.7726 425.884 35.7378C423.491 35.7378 421.373 35.2205 419.612 34.186C417.838 33.149 416.41 31.6114 415.507 29.766C414.553 27.8573 414.067 25.6072 414.067 23.0415C414.067 20.4759 414.563 18.2155 415.544 16.3171C416.473 14.4683 417.923 12.9318 419.715 11.8971C421.503 10.8626 423.636 10.3453 426.057 10.3453C427.884 10.3146 429.697 10.667 431.38 11.3798C432.871 12.0237 434.162 13.0552 435.12 14.367C435.976 15.5661 436.522 16.9584 436.71 18.4198C436.72 18.492 436.715 18.5655 436.694 18.6355C436.674 18.7055 436.638 18.7704 436.591 18.8258C436.544 18.8795 436.487 18.9225 436.422 18.9519C436.357 18.9814 436.287 18.9966 436.216 18.9965H432.15C432.033 18.9936 431.921 18.9511 431.831 18.8759C431.741 18.8008 431.68 18.6974 431.656 18.5827C431.513 17.826 431.211 17.1084 430.769 16.4774C430.271 15.7811 429.595 15.2317 428.812 14.8869C427.941 14.5068 426.999 14.3181 426.049 14.3334C424.823 14.3025 423.62 14.67 422.62 15.3809C421.518 16.1183 420.659 17.166 420.153 18.3913C419.543 19.866 419.246 21.4513 419.281 23.0467C419.246 24.6404 419.536 26.2245 420.134 27.7021C420.625 28.9174 421.459 29.9634 422.535 30.7125C423.503 31.4186 424.678 31.7825 425.876 31.7471C426.888 31.7649 427.893 31.5692 428.824 31.1729C429.65 30.8147 430.365 30.2412 430.893 29.5125C431.368 28.8441 431.689 28.0794 431.835 27.2727C431.855 27.1567 431.915 27.0514 432.005 26.9753C432.095 26.8992 432.209 26.8571 432.326 26.8563Z" fill="#00C9EA"/>
</g>
<defs>
<clipPath id="clip0_9065_85518">
<rect width="461" height="40" fill="white"/>
</clipPath>
</defs>
</svg>
