<svg width="390" height="40" viewBox="0 0 390 40" fill="none" xmlns="http://www.w3.org/2000/svg">
<g clip-path="url(#clip0_9065_87450)">
<path d="M20 0C16.0444 0 12.1776 1.17298 8.8886 3.37061C5.59962 5.56824 3.03617 8.69181 1.52242 12.3463C0.0086657 16.0009 -0.387401 20.0222 0.384303 23.9018C1.15601 27.7814 3.06082 31.3451 5.85787 34.1421C8.65492 36.9392 12.2186 38.844 16.0982 39.6157C19.9778 40.3874 23.9992 39.9913 27.6537 38.4776C31.3082 36.9638 34.4318 34.4004 36.6294 31.1114C38.827 27.8224 40 23.9556 40 20C40 14.6957 37.8929 9.60859 34.1421 5.85786C30.3914 2.10714 25.3043 0 20 0ZM26.0106 18.6629C24.0815 18.6864 22.238 19.4631 20.8739 20.8273C19.5097 22.1915 18.7329 24.035 18.7094 25.964C18.7094 25.9951 18.7094 26.0261 18.7094 26.0572C18.7094 26.9907 18.4326 27.9033 17.914 28.6795C17.3953 29.4557 16.6582 30.0606 15.7957 30.4179C14.9332 30.7751 13.9842 30.8686 13.0686 30.6865C12.153 30.5044 11.3119 30.0548 10.6518 29.3947C9.99173 28.7346 9.54219 27.8936 9.36007 26.978C9.17794 26.0624 9.27142 25.1134 9.62866 24.2509C9.98591 23.3884 10.5909 22.6512 11.3671 22.1326C12.1433 21.6139 13.0559 21.3371 13.9894 21.3371C14.9529 21.3368 15.9068 21.1459 16.7962 20.7753C17.6856 20.4047 18.4929 19.8618 19.1716 19.1778C19.8502 18.4939 20.3869 17.6824 20.7505 16.7902C21.1142 15.8979 21.2977 14.9425 21.2906 13.979V13.9428C21.2906 13.0093 21.5674 12.0967 22.0861 11.3205C22.6047 10.5443 23.3419 9.93935 24.2043 9.5821C25.0668 9.22485 26.0159 9.13138 26.9314 9.31351C27.847 9.49563 28.6881 9.94517 29.3482 10.6053C30.0083 11.2654 30.4578 12.1064 30.6399 13.022C30.8221 13.9376 30.7286 14.8866 30.3714 15.7491C30.0141 16.6116 29.4091 17.3488 28.6329 17.8674C27.8567 18.386 26.9441 18.6629 26.0106 18.6629Z" fill="#00C9EA"/>
<path fill-rule="evenodd" clip-rule="evenodd" d="M72.4015 30.5186H57.9595C57.4812 30.5125 57.0242 30.3198 56.686 29.9816C56.3478 29.6434 56.1551 29.1864 56.1491 28.7081V3.95448C56.1491 3.84679 56.1063 3.74351 56.0302 3.66736C55.954 3.59121 55.8507 3.54843 55.743 3.54843H51.2842C51.1765 3.54843 51.0733 3.59121 50.9971 3.66736C50.921 3.74351 50.8782 3.84679 50.8782 3.95448V30.1539C50.8802 31.5382 51.431 32.8651 52.4099 33.844C53.3887 34.8228 54.7157 35.3736 56.1 35.3757H72.3938C72.5012 35.375 72.6041 35.332 72.6801 35.256C72.7561 35.18 72.7991 35.0771 72.7998 34.9696V30.9272C72.8005 30.8204 72.7591 30.7176 72.6845 30.6411C72.61 30.5646 72.5083 30.5206 72.4015 30.5186ZM129.422 5.77266H125.335C125.111 5.77266 124.929 5.95445 124.929 6.17871V10.2651C124.929 10.4894 125.111 10.6711 125.335 10.6711H129.422C129.646 10.6711 129.828 10.4894 129.828 10.2651V6.17871C129.828 5.95445 129.646 5.77266 129.422 5.77266ZM349.73 10.1332H348.204C348.067 10.1332 347.956 10.2444 347.956 10.3815V11.9514C347.956 12.0885 348.067 12.1997 348.204 12.1997H349.73C349.867 12.1997 349.978 12.0885 349.978 11.9514V10.3815C349.978 10.2444 349.867 10.1332 349.73 10.1332ZM349.73 13.0402H348.209C348.072 13.0402 347.961 13.1514 347.961 13.2885V21.6759C347.961 21.8131 348.072 21.9242 348.209 21.9242H349.73C349.867 21.9242 349.978 21.8131 349.978 21.6759V13.2885C349.978 13.1514 349.867 13.0402 349.73 13.0402ZM384.502 21.9395C384.528 21.9502 384.557 21.9556 384.586 21.9553H386.181C386.239 21.9553 386.294 21.9324 386.335 21.8916C386.376 21.8509 386.399 21.7956 386.399 21.738V18.0758C386.53 16.3145 387.459 15.2308 388.946 15.0989C389.05 15.086 389.153 15.086 389.262 15.086C389.302 15.0847 389.341 15.0702 389.373 15.0446C389.389 15.0284 389.402 15.009 389.41 14.9876C389.418 14.9662 389.421 14.9433 389.419 14.9205V13.0661C389.419 13.0372 389.413 13.0087 389.402 12.9821C389.39 12.9556 389.374 12.9316 389.353 12.9114C389.333 12.8912 389.308 12.8753 389.281 12.8646C389.254 12.8538 389.226 12.8485 389.197 12.8488H388.956C387.829 12.9394 386.949 13.6092 386.399 14.7886V13.2368C386.399 13.1792 386.376 13.1239 386.335 13.0832C386.294 13.0424 386.239 13.0195 386.181 13.0195H384.586C384.557 13.0192 384.528 13.0246 384.502 13.0353C384.475 13.0461 384.451 13.062 384.43 13.0822C384.41 13.1024 384.394 13.1265 384.382 13.153C384.371 13.1796 384.366 13.208 384.366 13.2368V21.738C384.366 21.7668 384.371 21.7952 384.382 21.8217C384.394 21.8483 384.41 21.8723 384.43 21.8925C384.451 21.9128 384.475 21.9287 384.502 21.9395ZM355.973 22.1828C353.255 22.1828 351.281 20.2379 351.281 17.5585C351.281 14.8791 353.201 12.8824 355.748 12.8824C358.777 12.8824 360.145 15.2903 360.145 17.6749V17.6755C360.145 17.8097 360.145 17.9338 360.124 18.0861C360.12 18.1408 360.095 18.1918 360.055 18.2291C360.014 18.2664 359.962 18.2874 359.907 18.2879H353.55C353.537 18.2878 353.525 18.2906 353.514 18.296C353.503 18.3014 353.493 18.3092 353.485 18.3189C353.477 18.3285 353.471 18.3397 353.468 18.3518C353.465 18.3639 353.465 18.3765 353.467 18.3887C353.567 18.9804 353.88 19.515 354.347 19.8922C354.814 20.2694 355.402 20.4632 356.002 20.4371C356.429 20.4429 356.854 20.3631 357.251 20.2023C357.648 20.0415 358.008 19.803 358.311 19.5008C358.351 19.4657 358.403 19.4464 358.456 19.4464C358.509 19.4464 358.561 19.4657 358.601 19.5008L359.568 20.3388C359.59 20.3579 359.608 20.3812 359.621 20.4075C359.634 20.4337 359.641 20.4622 359.643 20.4914C359.645 20.52 359.641 20.5487 359.632 20.5758C359.623 20.6029 359.608 20.6278 359.589 20.6492C359.132 21.1503 358.573 21.5469 357.949 21.8116C357.325 22.0763 356.651 22.203 355.973 22.1828ZM355.764 14.6825C354.592 14.6825 353.718 15.4998 353.482 16.8162C353.482 16.8201 353.481 16.824 353.481 16.8278C353.481 16.836 353.481 16.8441 353.484 16.852C353.487 16.8637 353.493 16.8745 353.501 16.8835C353.509 16.8932 353.519 16.9011 353.531 16.9064C353.542 16.9118 353.555 16.9145 353.568 16.9145H357.913C357.937 16.9139 357.961 16.9037 357.977 16.8861C357.985 16.8769 357.991 16.8662 357.994 16.8545C357.997 16.8429 357.998 16.8307 357.996 16.8188C357.804 15.4895 356.948 14.6696 355.764 14.6696V14.6825ZM373.987 17.5585C373.987 20.2379 375.96 22.1828 378.678 22.1828C379.359 22.205 380.037 22.0788 380.665 21.8131C381.292 21.5474 381.854 21.1485 382.312 20.644C382.332 20.623 382.347 20.5981 382.356 20.5709C382.366 20.5437 382.369 20.5149 382.366 20.4862C382.365 20.4571 382.357 20.4285 382.345 20.4023C382.332 20.3761 382.314 20.3527 382.291 20.3336L381.324 19.4957C381.284 19.4621 381.234 19.4438 381.182 19.4439C381.128 19.4445 381.075 19.4647 381.035 19.5008C380.731 19.803 380.371 20.0415 379.974 20.2023C379.578 20.3631 379.153 20.4429 378.725 20.4371C378.125 20.4632 377.537 20.2694 377.07 19.8922C376.604 19.515 376.291 18.9804 376.19 18.3887C376.188 18.3765 376.189 18.3639 376.192 18.3518C376.195 18.3397 376.201 18.3285 376.208 18.3189C376.211 18.3156 376.214 18.3125 376.217 18.3097C376.22 18.3073 376.222 18.3051 376.225 18.3031C376.229 18.3001 376.234 18.2976 376.238 18.2954C376.245 18.2922 376.253 18.29 376.26 18.2888L376.264 18.2884L376.267 18.288C376.27 18.2878 376.273 18.2878 376.276 18.2879H382.612C382.667 18.288 382.72 18.2672 382.761 18.2298C382.801 18.1924 382.826 18.141 382.829 18.0861C382.85 17.9335 382.85 17.8094 382.85 17.6749C382.85 15.2903 381.482 12.8824 378.453 12.8824C375.908 12.8824 373.987 14.8791 373.987 17.5585ZM376.157 16.8162C376.392 15.4998 377.266 14.6825 378.435 14.6825V14.6696C379.641 14.6696 380.476 15.4688 380.67 16.8188C380.671 16.8234 380.671 16.8279 380.671 16.8325C380.671 16.8401 380.67 16.8476 380.667 16.8548C380.664 16.8665 380.658 16.8772 380.649 16.8861C380.641 16.8951 380.631 16.9024 380.62 16.9073C380.609 16.9122 380.597 16.9147 380.585 16.9145H376.24C376.227 16.9149 376.215 16.9123 376.203 16.9069C376.192 16.9015 376.182 16.8935 376.175 16.8835C376.167 16.8745 376.161 16.8637 376.158 16.852L376.157 16.847L376.156 16.841C376.155 16.8375 376.155 16.834 376.155 16.8304L376.156 16.824C376.156 16.8214 376.156 16.8188 376.157 16.8162ZM340.16 21.8932C340.114 21.8932 340.07 21.8791 340.032 21.8527C339.995 21.8263 339.966 21.7889 339.951 21.7458L336.126 10.9815C336.114 10.948 336.111 10.9123 336.115 10.8772C336.12 10.8421 336.134 10.8087 336.154 10.7798C336.174 10.7503 336.201 10.7262 336.233 10.7096C336.264 10.6929 336.299 10.6841 336.335 10.6841H338.06C338.107 10.6841 338.152 10.6985 338.19 10.7254C338.228 10.7523 338.257 10.7902 338.272 10.8341L341.301 19.3689C341.319 19.431 341.347 19.4698 341.378 19.4698C341.41 19.4698 341.441 19.431 341.456 19.3715L344.474 10.8367C344.49 10.7935 344.518 10.7562 344.556 10.7298C344.593 10.7034 344.638 10.6892 344.684 10.6893H346.378C346.414 10.6893 346.449 10.6981 346.48 10.7147C346.512 10.7314 346.539 10.7555 346.559 10.7849C346.58 10.8134 346.594 10.8468 346.599 10.8821C346.604 10.9174 346.6 10.9534 346.587 10.9867L342.762 21.7509C342.747 21.7943 342.719 21.8319 342.681 21.8583C342.644 21.8848 342.599 21.8988 342.553 21.8984L340.16 21.8932ZM368.998 21.9095C369.037 21.9389 369.084 21.9549 369.132 21.9553L370.956 21.9656C371.004 21.9657 371.052 21.9498 371.09 21.9204C371.129 21.8909 371.157 21.8496 371.17 21.8027L373.601 13.3144C373.61 13.281 373.612 13.246 373.606 13.212C373.599 13.178 373.586 13.1458 373.565 13.1178C373.544 13.0901 373.517 13.0677 373.485 13.0525C373.454 13.0372 373.419 13.0295 373.384 13.0299H371.949C371.9 13.0297 371.852 13.0455 371.813 13.0749C371.774 13.1043 371.745 13.1457 371.732 13.1928L370.025 19.2112C370.021 19.224 370.013 19.2352 370.002 19.2432C369.991 19.2512 369.978 19.2555 369.965 19.2555C369.952 19.2555 369.939 19.2512 369.928 19.2432C369.923 19.2397 369.919 19.2354 369.915 19.2307C369.911 19.2249 369.908 19.2183 369.906 19.2112L368.126 13.1902C368.113 13.1438 368.085 13.103 368.046 13.0741C368.007 13.0452 367.96 13.0296 367.912 13.0299H366.36C366.311 13.0295 366.264 13.0449 366.224 13.0738C366.185 13.1028 366.156 13.1436 366.143 13.1902L364.423 19.1853C364.419 19.1983 364.411 19.2097 364.401 19.2177C364.399 19.2191 364.397 19.2204 364.395 19.2215C364.392 19.2228 364.39 19.2239 364.388 19.2249C364.38 19.2281 364.372 19.2296 364.363 19.2293C364.349 19.2299 364.336 19.2259 364.325 19.2179C364.318 19.2133 364.313 19.2075 364.308 19.2009C364.305 19.1961 364.303 19.1908 364.301 19.1853L362.586 13.1825C362.573 13.1356 362.545 13.0942 362.507 13.0648C362.468 13.0354 362.42 13.0195 362.372 13.0195H360.838C360.803 13.0191 360.769 13.0269 360.737 13.0421C360.706 13.0574 360.678 13.0798 360.657 13.1075C360.636 13.1359 360.623 13.1685 360.616 13.2029C360.61 13.2374 360.612 13.2728 360.621 13.3066L363.067 21.7923C363.081 21.839 363.109 21.8801 363.148 21.9095C363.186 21.9389 363.233 21.9549 363.282 21.9553H365.08C365.128 21.9549 365.175 21.9389 365.214 21.9095C365.253 21.8801 365.281 21.839 365.294 21.7923L367.045 15.7145C367.049 15.7013 367.056 15.6895 367.067 15.6811C367.078 15.6727 367.091 15.6681 367.105 15.6679C367.119 15.6679 367.132 15.6725 367.143 15.6809C367.155 15.6892 367.163 15.701 367.167 15.7145L368.918 21.7923C368.931 21.839 368.959 21.8801 368.998 21.9095ZM91.6746 13.5394H95.761C95.8145 13.539 95.8676 13.5493 95.9171 13.5695C95.9667 13.5898 96.0118 13.6196 96.0498 13.6574C96.0877 13.6951 96.1179 13.74 96.1384 13.7894C96.159 13.8389 96.1696 13.8919 96.1696 13.9454V34.9696C96.1696 35.0773 96.1268 35.1806 96.0507 35.2567C95.9745 35.3329 95.8712 35.3757 95.7635 35.3757H92.2203C92.1128 35.375 92.0099 35.332 91.9339 35.256C91.8579 35.18 91.8149 35.0771 91.8142 34.9696V32.4143C90.921 33.4614 89.827 34.3188 88.5969 34.936C87.2526 35.6271 85.7608 35.9821 84.2493 35.9705C81.4431 35.9705 79.2137 35.1455 77.6283 33.5109C76.0429 31.8764 75.2385 29.7013 75.2385 27.0451V13.9454C75.2385 13.8377 75.2813 13.7345 75.3575 13.6583C75.4336 13.5822 75.5369 13.5394 75.6446 13.5394H79.7335C79.7868 13.5394 79.8394 13.5499 79.8885 13.5703C79.9377 13.5908 79.9823 13.6207 80.0198 13.6585C80.0573 13.6962 80.0869 13.741 80.107 13.7902C80.1272 13.8395 80.1374 13.8922 80.137 13.9454V26.4063C80.137 28.1495 80.5793 29.4582 81.4483 30.3194C82.3173 31.1807 83.5975 31.6126 85.2502 31.6126C86.4752 31.6249 87.675 31.2641 88.69 30.578C89.4364 30.0712 90.1077 29.4618 90.684 28.7676C91.0681 28.2981 91.275 27.7086 91.2685 27.102V13.9454C91.2685 13.8377 91.3113 13.7345 91.3875 13.6583C91.4636 13.5822 91.5669 13.5394 91.6746 13.5394ZM116.757 14.0851C115.312 13.3052 113.689 12.9131 112.047 12.9471C110.537 12.9371 109.046 13.292 107.702 13.9816C106.474 14.598 105.381 15.4536 104.487 16.4981V13.9428C104.487 13.8356 104.444 13.733 104.367 13.6574C104.291 13.5818 104.189 13.5394 104.081 13.5394H100.491C100.385 13.5401 100.283 13.5829 100.208 13.6585C100.133 13.734 100.091 13.8363 100.091 13.9428V34.9696C100.091 35.0773 100.133 35.1806 100.21 35.2567C100.286 35.3329 100.389 35.3757 100.497 35.3757H104.583C104.691 35.3757 104.794 35.3329 104.87 35.2567C104.946 35.1806 104.989 35.0773 104.989 34.9696V21.8363C104.991 21.187 105.228 20.5605 105.656 20.0724C106.232 19.4145 106.89 18.8338 107.614 18.3448C108.629 17.6574 109.829 17.2964 111.054 17.3102C112.554 17.3102 113.785 17.7577 114.716 18.6448C115.647 19.5319 116.126 20.8224 116.126 22.501V34.967C116.126 35.0745 116.169 35.1774 116.245 35.2534C116.321 35.3294 116.424 35.3724 116.532 35.3731H120.621C120.728 35.3724 120.831 35.3294 120.907 35.2534C120.983 35.1774 121.026 35.0745 121.027 34.967V21.8673C121.053 20.2585 120.668 18.6695 119.91 17.2507C119.18 15.9176 118.087 14.8196 116.757 14.0851ZM125.335 13.5394H129.422C129.646 13.5394 129.828 13.7212 129.828 13.9454V34.9696C129.828 35.1939 129.646 35.3757 129.422 35.3757H125.335C125.111 35.3757 124.929 35.1939 124.929 34.9696V13.9454C124.929 13.7212 125.111 13.5394 125.335 13.5394ZM142.506 13.5394H149.445C149.499 13.5387 149.552 13.5486 149.602 13.5686C149.651 13.5885 149.696 13.6181 149.735 13.6556C149.773 13.6931 149.803 13.7377 149.824 13.7871C149.845 13.8364 149.856 13.8893 149.856 13.9428V17.4396C149.856 17.547 149.813 17.6499 149.737 17.7259C149.661 17.8019 149.558 17.8449 149.45 17.8456H142.506C142.358 17.8476 142.216 17.9079 142.112 18.0135C142.008 18.119 141.95 18.2612 141.95 18.4094V27.8159C141.95 29.2099 142.214 30.0116 142.863 30.5832C142.871 30.591 143.662 31.3126 146.062 31.3126H149.432C149.486 31.3126 149.538 31.3231 149.588 31.3435C149.637 31.3639 149.682 31.3938 149.719 31.4315C149.757 31.4692 149.787 31.514 149.807 31.5632C149.828 31.6125 149.838 31.6653 149.838 31.7186V35.5076C149.838 35.5609 149.828 35.6137 149.807 35.663C149.787 35.7122 149.757 35.757 149.719 35.7947C149.682 35.8324 149.637 35.8623 149.588 35.8827C149.538 35.9031 149.486 35.9136 149.432 35.9136H144.596C142.369 35.9136 140.535 35.3291 139.165 34.1394C137.794 32.9497 137.095 31.1263 137.095 28.7081V18.3629C137.088 18.2406 137.042 18.124 136.962 18.0306C136.883 17.9373 136.775 17.8724 136.656 17.8456H133.596C133.49 17.8436 133.389 17.8004 133.314 17.7251C133.239 17.6498 133.197 17.5483 133.195 17.4421V13.9428C133.195 13.836 133.237 13.7335 133.312 13.6575C133.387 13.5815 133.489 13.5382 133.596 13.5368H136.524C136.669 13.5363 136.808 13.4803 136.913 13.3802C137.018 13.2801 137.08 13.1436 137.088 12.9988V10.7875C137.087 10.7341 137.097 10.6812 137.118 10.6318C137.138 10.5825 137.169 10.5378 137.207 10.5005L141.247 6.43994C141.283 6.40173 141.328 6.37129 141.376 6.35041C141.425 6.32953 141.478 6.31864 141.531 6.31838C141.585 6.31804 141.638 6.32829 141.687 6.34855C141.737 6.3688 141.782 6.39865 141.82 6.43639C141.858 6.47413 141.888 6.51901 141.908 6.56845C141.929 6.61788 141.94 6.67089 141.94 6.72443V12.973C141.94 13.123 142 13.2667 142.106 13.3727C142.212 13.4788 142.356 13.5387 142.506 13.5394ZM213.263 23.4502C212.493 22.8701 211.648 22.3976 210.751 22.0458C209.817 21.6745 208.853 21.3812 207.87 21.169L205.418 20.6C204.887 20.4841 204.363 20.3417 203.846 20.1733C203.359 20.015 202.891 19.8051 202.449 19.5474C202.068 19.3283 201.74 19.0271 201.49 18.6655C201.255 18.307 201.135 17.8858 201.146 17.4577C201.148 16.9085 201.336 16.3763 201.679 15.9472C202.086 15.4639 202.614 15.0979 203.21 14.8869C203.996 14.6021 204.828 14.4653 205.664 14.4834C207.014 14.4834 208.126 14.7627 208.964 15.311C209.318 15.535 209.622 15.8299 209.857 16.1771C210.091 16.5243 210.252 16.9162 210.327 17.3283C210.355 17.4436 210.422 17.5458 210.516 17.6178C210.61 17.6899 210.726 17.7274 210.844 17.724H214.799C214.911 17.7269 215.022 17.6941 215.115 17.6305C215.208 17.5669 215.278 17.4757 215.316 17.3697C215.334 17.3192 215.341 17.2654 215.337 17.212C215.256 15.9868 214.819 14.8119 214.08 13.8316C213.194 12.7028 212.028 11.8262 210.697 11.2893C209.12 10.654 207.431 10.3435 205.731 10.3763C204.023 10.3508 202.326 10.661 200.737 11.2893C199.363 11.8254 198.153 12.7117 197.228 13.8601C196.367 14.9682 195.911 16.3369 195.934 17.7396C195.934 19.5293 196.586 20.9828 197.872 22.0665C199.157 23.1501 200.879 23.9312 203.044 24.4511L206.016 25.1623C206.841 25.3498 207.651 25.5979 208.439 25.9046C209.022 26.1188 209.551 26.4567 209.991 26.8951C210.352 27.2868 210.549 27.8028 210.539 28.3357C210.54 28.9588 210.316 29.5613 209.908 30.0323C209.436 30.5584 208.837 30.9546 208.168 31.1832C207.321 31.4754 206.43 31.6164 205.535 31.5996C204.656 31.6102 203.782 31.4747 202.948 31.1988C202.241 30.9667 201.606 30.5539 201.107 30.0013C200.694 29.5152 200.43 28.9195 200.349 28.2866C200.326 28.1675 200.261 28.0605 200.166 27.9844C200.072 27.9083 199.953 27.8678 199.832 27.8702H195.795C195.649 27.8692 195.508 27.9259 195.404 28.0279C195.356 28.0749 195.319 28.1319 195.295 28.195C195.271 28.258 195.262 28.3255 195.267 28.3926C195.352 29.7734 195.828 31.1016 196.638 32.2229C197.56 33.42 198.803 34.3311 200.222 34.8506C201.94 35.4784 203.76 35.781 205.589 35.7429C207.7 35.7429 209.528 35.4326 211.02 34.8196C212.399 34.3004 213.603 33.4042 214.496 32.2333C215.305 31.1037 215.727 29.7428 215.699 28.3538C215.722 27.3648 215.494 26.3861 215.037 25.5089C214.598 24.7047 213.993 24.0029 213.263 23.4502ZM239.697 22.1104H249.215C249.27 22.1101 249.324 22.1206 249.375 22.1414C249.426 22.1622 249.472 22.1928 249.511 22.2315C249.55 22.2702 249.581 22.3162 249.602 22.3669C249.623 22.4176 249.634 22.4719 249.634 22.5268V25.1907C249.634 27.3426 249.169 29.2332 248.25 30.8056C247.355 32.3591 246.037 33.6257 244.449 34.4575C242.73 35.3298 240.823 35.7675 238.896 35.7326C236.578 35.7326 234.517 35.1946 232.769 34.1601C230.991 33.0958 229.557 31.5426 228.638 29.6858C227.661 27.759 227.164 25.7287 227.164 23.0803C227.134 21.3174 227.429 19.564 228.033 17.9077C228.561 16.3933 229.389 15.0015 230.469 13.8161C231.498 12.7072 232.753 11.8322 234.15 11.2505C235.605 10.6531 237.165 10.3523 238.738 10.366C240.066 10.3566 241.387 10.5628 242.648 10.9763C243.818 11.3634 244.911 11.9506 245.879 12.7118C246.811 13.4516 247.6 14.3562 248.206 15.3808C248.779 16.3551 249.171 17.425 249.363 18.5387C249.37 18.5775 249.369 18.6174 249.358 18.6556C249.348 18.6937 249.329 18.7289 249.303 18.7586C249.278 18.7901 249.246 18.8154 249.21 18.8324C249.174 18.8495 249.134 18.8579 249.094 18.8569H244.86C244.802 18.859 244.745 18.8415 244.698 18.8073C244.651 18.773 244.617 18.724 244.601 18.668C244.417 18.0951 244.156 17.5496 243.825 17.0464C243.48 16.5318 243.053 16.0774 242.561 15.7015C242.055 15.3219 241.486 15.0363 240.879 14.8584C240.208 14.662 239.51 14.5652 238.81 14.5713C237.545 14.553 236.302 14.9045 235.233 15.5826C234.142 16.3109 233.286 17.3406 232.769 18.5465C232.134 19.9522 231.83 21.4845 231.879 23.026C231.879 24.9062 232.179 26.2434 232.769 27.5365C233.285 28.7501 234.144 29.7866 235.241 30.5186C236.341 31.2076 237.618 31.5616 238.916 31.5376C240.058 31.5651 241.189 31.3139 242.211 30.8056C243.113 30.342 243.858 29.6222 244.353 28.7366C244.737 28.0363 244.976 27.2657 245.056 26.471H239.697C239.595 26.471 239.497 26.4304 239.425 26.3581C239.353 26.2858 239.312 26.1878 239.312 26.0856V22.501C239.311 22.4499 239.321 22.3993 239.34 22.3519C239.359 22.3046 239.387 22.2615 239.423 22.2251C239.459 22.1888 239.502 22.1599 239.549 22.1403C239.596 22.1206 239.646 22.1104 239.697 22.1104ZM191.553 10.6711H187.508C187.4 10.6711 187.297 10.7139 187.221 10.7901C187.145 10.8662 187.102 10.9695 187.102 11.0772V20.5664V23.0234V27.5727L175.164 10.8884C175.125 10.8223 175.07 10.7675 175.004 10.7294C174.937 10.6913 174.862 10.6712 174.786 10.6711H170.389C170.282 10.6711 170.178 10.7139 170.102 10.7901C170.026 10.8662 169.983 10.9695 169.983 11.0772V34.9696C169.983 35.0773 170.026 35.1806 170.102 35.2567C170.178 35.3329 170.282 35.3757 170.389 35.3757H174.408C174.516 35.3757 174.619 35.3329 174.695 35.2567C174.772 35.1806 174.814 35.0773 174.814 34.9696V24.6812H174.84V18.3629L187.086 35.1481C187.126 35.214 187.181 35.2686 187.248 35.3067C187.315 35.3448 187.39 35.365 187.467 35.3653H191.556C191.663 35.3646 191.766 35.3215 191.841 35.2455C191.917 35.1694 191.959 35.0665 191.959 34.9593V11.0772C191.959 10.9695 191.916 10.8662 191.84 10.7901C191.764 10.7139 191.661 10.6711 191.553 10.6711ZM270.48 10.6712H274.512C274.566 10.6694 274.62 10.6786 274.671 10.6983C274.722 10.7179 274.768 10.7475 274.807 10.7854C274.846 10.8233 274.877 10.8686 274.899 10.9188C274.92 10.9689 274.931 11.0228 274.931 11.0772V34.967C274.931 35.0747 274.888 35.178 274.812 35.2541C274.736 35.3303 274.632 35.3731 274.525 35.3731H270.493C270.385 35.3731 270.282 35.3303 270.206 35.2541C270.129 35.178 270.087 35.0747 270.087 34.967V25.1907C270.087 25.1129 270.072 25.0357 270.042 24.9637C270.013 24.8917 269.969 24.8262 269.914 24.7712C269.859 24.7161 269.793 24.6725 269.721 24.6429C269.649 24.6132 269.572 24.5981 269.494 24.5985H258.373C258.296 24.5985 258.219 24.6138 258.147 24.6436C258.075 24.6734 258.01 24.7171 257.955 24.7721C257.9 24.8271 257.857 24.8924 257.828 24.9643C257.798 25.0361 257.783 25.1131 257.783 25.1907V34.967C257.783 35.0203 257.773 35.0731 257.753 35.1224C257.732 35.1717 257.702 35.2164 257.665 35.2541C257.627 35.2919 257.582 35.3218 257.533 35.3422C257.484 35.3626 257.431 35.3731 257.377 35.3731H253.345C253.292 35.3731 253.239 35.3626 253.19 35.3421C253.141 35.3217 253.097 35.2917 253.059 35.254C253.022 35.2163 252.992 35.1715 252.972 35.1222C252.952 35.073 252.942 35.0202 252.942 34.967V11.0772C252.942 11.0242 252.952 10.9717 252.972 10.9226C252.992 10.8735 253.021 10.8289 253.058 10.7911C253.095 10.7534 253.14 10.7234 253.189 10.7028C253.237 10.6823 253.29 10.6715 253.343 10.6712H257.375C257.483 10.6712 257.586 10.7139 257.662 10.7901C257.738 10.8662 257.781 10.9695 257.781 11.0772V19.7465C257.781 19.8243 257.796 19.9013 257.826 19.9732C257.856 20.045 257.899 20.1103 257.954 20.1653C258.009 20.2203 258.075 20.264 258.147 20.2937C258.218 20.3235 258.295 20.3388 258.373 20.3388H269.481C269.559 20.3388 269.636 20.3235 269.708 20.2937C269.78 20.264 269.845 20.2203 269.9 20.1653C269.955 20.1103 269.999 20.045 270.029 19.9732C270.058 19.9013 270.074 19.8243 270.074 19.7465V11.0772C270.074 10.9695 270.116 10.8662 270.193 10.7901C270.269 10.7139 270.372 10.6712 270.48 10.6712ZM297.879 10.6841H278.223C278.115 10.6841 278.012 10.7269 277.936 10.803C277.86 10.8792 277.817 10.9824 277.817 11.0901V14.5687C277.817 14.6712 277.858 14.7695 277.93 14.8421C278.002 14.9148 278.1 14.956 278.202 14.9567H285.043C285.2 14.9567 285.351 15.0191 285.462 15.1301C285.573 15.2412 285.636 15.3919 285.636 15.5489V34.98C285.636 35.0879 285.68 35.1912 285.756 35.2672C285.833 35.3433 285.936 35.386 286.044 35.386H290.048C290.158 35.386 290.265 35.3422 290.343 35.2642C290.422 35.1862 290.466 35.0803 290.467 34.9696L290.537 15.5464C290.537 15.3897 290.6 15.2397 290.711 15.1292C290.822 15.0187 290.972 14.9567 291.129 14.9567H297.892C297.943 14.9567 297.993 14.9466 298.04 14.9271C298.087 14.9076 298.13 14.879 298.166 14.8429C298.201 14.8068 298.23 14.7641 298.249 14.717C298.268 14.6699 298.278 14.6196 298.277 14.5687V11.0901C298.278 10.9838 298.236 10.8817 298.161 10.8057C298.087 10.7298 297.986 10.6861 297.879 10.6841ZM161.133 10.6841H165.186C165.41 10.6841 165.592 10.8659 165.592 11.0901V34.98C165.592 35.2042 165.41 35.386 165.186 35.386H161.133C160.909 35.386 160.727 35.2042 160.727 34.98V11.0901C160.727 10.8659 160.909 10.6841 161.133 10.6841ZM223.471 10.6841H219.418C219.194 10.6841 219.012 10.8659 219.012 11.0901V34.98C219.012 35.2042 219.194 35.386 219.418 35.386H223.471C223.695 35.386 223.877 35.2042 223.877 34.98V11.0901C223.877 10.8659 223.695 10.6841 223.471 10.6841ZM306.023 21.8353C306.202 21.9094 306.394 21.9475 306.587 21.9475H312.355C312.41 21.9475 312.464 21.9254 312.503 21.8861C312.542 21.8468 312.564 21.7936 312.564 21.738V20.4086C312.564 20.3531 312.542 20.2998 312.503 20.2605C312.464 20.2212 312.41 20.1991 312.355 20.1991H307.898C307.715 20.1985 307.539 20.1251 307.41 19.9952C307.281 19.8653 307.208 19.6894 307.208 19.506V10.8625C307.208 10.8063 307.186 10.7523 307.146 10.7126C307.106 10.6728 307.052 10.6505 306.996 10.6505H305.323C305.267 10.6511 305.213 10.6738 305.174 10.7135C305.135 10.7532 305.113 10.8067 305.113 10.8625V20.4733C305.113 20.6669 305.151 20.8586 305.225 21.0374C305.299 21.2163 305.408 21.3788 305.545 21.5157C305.682 21.6526 305.844 21.7612 306.023 21.8353ZM317.341 22.2087C316.508 22.2285 315.684 22.0363 314.946 21.6501C314.278 21.2827 313.736 20.7208 313.394 20.0388C313.016 19.2634 312.829 18.4082 312.851 17.5456C312.83 16.6838 313.016 15.8295 313.394 15.055C313.736 14.3718 314.277 13.8089 314.946 13.4411C315.691 13.0736 316.511 12.8825 317.341 12.8825C318.172 12.8825 318.991 13.0736 319.736 13.4411C320.405 13.8089 320.947 14.3718 321.288 15.055C321.665 15.8299 321.851 16.6839 321.831 17.5456C321.851 18.4081 321.665 19.2629 321.288 20.0388C320.945 20.7202 320.404 21.2819 319.736 21.6501C318.998 22.0363 318.174 22.2285 317.341 22.2087ZM317.341 14.5196C316.865 14.5091 316.395 14.6356 315.989 14.8843C315.6 15.1386 315.296 15.5034 315.117 15.9317C314.71 16.9692 314.71 18.122 315.117 19.1594C315.299 19.583 315.602 19.943 315.989 20.194C316.395 20.4441 316.864 20.5708 317.341 20.5586C317.815 20.5715 318.282 20.4446 318.683 20.194C319.067 19.9409 319.368 19.5813 319.55 19.1594C319.953 18.1214 319.953 16.9698 319.55 15.9317C319.369 15.5055 319.068 15.1414 318.683 14.8843C318.281 14.6351 317.815 14.5084 317.341 14.5196ZM329.906 13.035H331.439C331.473 13.0354 331.507 13.0424 331.538 13.0557C331.569 13.069 331.598 13.0884 331.621 13.1126C331.645 13.1369 331.664 13.1656 331.677 13.1971C331.689 13.2286 331.696 13.2623 331.695 13.2963V20.8587C331.715 21.6408 331.53 22.4144 331.16 23.1036C330.801 23.7281 330.259 24.2281 329.608 24.5364C328.863 24.8784 328.049 25.0464 327.229 25.0278C326.51 25.0416 325.794 24.9269 325.116 24.689C324.554 24.4828 324.061 24.1246 323.691 23.6545C323.389 23.266 323.204 22.7994 323.158 22.3096C323.154 22.2725 323.158 22.235 323.169 22.1995C323.18 22.1639 323.198 22.131 323.223 22.1027C323.247 22.0756 323.277 22.0539 323.31 22.0392C323.344 22.0245 323.38 22.017 323.417 22.0173H325.02C325.079 22.0155 325.136 22.0337 325.183 22.0689C325.23 22.1042 325.264 22.1544 325.279 22.2113C325.32 22.3691 325.393 22.5169 325.494 22.6454C325.594 22.7739 325.72 22.8806 325.863 22.9587C326.314 23.1999 326.821 23.3152 327.332 23.2924C327.957 23.3292 328.571 23.1182 329.042 22.7053C329.249 22.4919 329.41 22.2379 329.514 21.9592C329.618 21.6805 329.663 21.3833 329.647 21.0863V20.3414C329.351 20.6932 328.981 20.975 328.563 21.1664C328.059 21.4058 327.508 21.5286 326.949 21.5259C326.216 21.5444 325.491 21.3657 324.849 21.0087C324.248 20.6546 323.765 20.1309 323.461 19.5034C323.123 18.7931 322.956 18.0137 322.974 17.2275C322.956 16.4303 323.128 15.6403 323.476 14.9231C323.794 14.2882 324.292 13.7604 324.906 13.4049C325.564 13.0386 326.308 12.8538 327.061 12.8695C327.605 12.8685 328.143 12.9942 328.631 13.2368C329.017 13.4262 329.362 13.6898 329.647 14.0127V13.2937C329.647 13.2251 329.674 13.1593 329.723 13.1108C329.771 13.0623 329.837 13.035 329.906 13.035ZM329.644 18.231V16.2007C329.539 15.8691 329.369 15.5615 329.145 15.2955C328.928 15.0426 328.659 14.8396 328.356 14.7006C327.999 14.5455 327.611 14.476 327.222 14.4975C326.833 14.5191 326.455 14.6311 326.117 14.8248C325.757 15.0525 325.47 15.3794 325.292 15.7662C325.086 16.218 324.985 16.7105 324.997 17.2068C324.984 17.709 325.085 18.2075 325.292 18.6655C325.47 19.0523 325.757 19.3793 326.117 19.6069C326.496 19.8348 326.933 19.9497 327.376 19.9379C327.714 19.9408 328.049 19.8693 328.356 19.7284C328.66 19.5913 328.929 19.3891 329.145 19.1362C329.369 18.8701 329.539 18.5625 329.644 18.231Z" fill="white"/>
</g>
<defs>
<clipPath id="clip0_9065_87450">
<rect width="390" height="40" fill="white"/>
</clipPath>
</defs>
</svg>
