<svg width="398" height="40" viewBox="0 0 398 40" fill="none" xmlns="http://www.w3.org/2000/svg">
<g clip-path="url(#clip0_9065_96255)">
<path d="M20 0C16.0444 0 12.1776 1.17298 8.8886 3.37061C5.59962 5.56824 3.03617 8.69181 1.52242 12.3463C0.0086657 16.0009 -0.387401 20.0222 0.384303 23.9018C1.15601 27.7814 3.06082 31.3451 5.85787 34.1421C8.65492 36.9392 12.2186 38.844 16.0982 39.6157C19.9778 40.3874 23.9992 39.9913 27.6537 38.4776C31.3082 36.9638 34.4318 34.4004 36.6294 31.1114C38.827 27.8224 40 23.9556 40 20C40 14.6957 37.8929 9.60859 34.1421 5.85786C30.3914 2.10714 25.3043 0 20 0ZM26.0106 18.6629C24.0815 18.6864 22.238 19.4631 20.8739 20.8273C19.5097 22.1915 18.7329 24.035 18.7094 25.964C18.7094 25.9951 18.7094 26.0261 18.7094 26.0572C18.7094 26.9907 18.4326 27.9033 17.914 28.6795C17.3953 29.4557 16.6582 30.0606 15.7957 30.4179C14.9332 30.7751 13.9842 30.8686 13.0686 30.6865C12.153 30.5044 11.3119 30.0548 10.6518 29.3947C9.99173 28.7346 9.54219 27.8936 9.36007 26.978C9.17794 26.0624 9.27142 25.1134 9.62866 24.2509C9.98591 23.3884 10.5909 22.6512 11.3671 22.1326C12.1433 21.6139 13.0559 21.3371 13.9894 21.3371C14.9529 21.3368 15.9068 21.1459 16.7962 20.7753C17.6856 20.4047 18.4929 19.8618 19.1716 19.1778C19.8502 18.4939 20.3869 17.6824 20.7505 16.7902C21.1142 15.8979 21.2977 14.9425 21.2906 13.979V13.9428C21.2906 13.0093 21.5674 12.0967 22.0861 11.3205C22.6047 10.5443 23.3419 9.93935 24.2043 9.5821C25.0668 9.22485 26.0159 9.13138 26.9314 9.31351C27.847 9.49563 28.6881 9.94517 29.3482 10.6053C30.0083 11.2654 30.4578 12.1064 30.6399 13.022C30.8221 13.9376 30.7286 14.8866 30.3714 15.7491C30.0141 16.6116 29.4091 17.3488 28.6329 17.8674C27.8567 18.386 26.9441 18.6629 26.0106 18.6629Z" fill="#00C9EA"/>
<path fill-rule="evenodd" clip-rule="evenodd" d="M57.9593 30.5186H72.4013C72.5081 30.5206 72.6097 30.5647 72.6843 30.6411C72.7589 30.7176 72.8003 30.8204 72.7996 30.9272V34.9696C72.7989 35.0771 72.7559 35.18 72.6799 35.256C72.6039 35.332 72.501 35.375 72.3935 35.3757H56.0997C54.7154 35.3736 53.3884 34.8228 52.4096 33.844C51.4308 32.8652 50.88 31.5382 50.8779 30.1539V3.95451C50.8779 3.84682 50.9207 3.74354 50.9969 3.66739C51.073 3.59124 51.1763 3.54846 51.284 3.54846H55.7428C55.8505 3.54846 55.9538 3.59124 56.0299 3.66739C56.1061 3.74354 56.1488 3.84682 56.1488 3.95451V28.7082C56.1549 29.1864 56.3476 29.6434 56.6858 29.9817C57.024 30.3199 57.481 30.5126 57.9593 30.5186ZM129.422 5.77271H125.335C125.111 5.77271 124.929 5.9545 124.929 6.17876V10.2651C124.929 10.4894 125.111 10.6712 125.335 10.6712H129.422C129.646 10.6712 129.828 10.4894 129.828 10.2651V6.17876C129.828 5.9545 129.646 5.77271 129.422 5.77271ZM95.7612 13.5393H91.6748C91.5671 13.5393 91.4639 13.5821 91.3877 13.6582C91.3116 13.7344 91.2688 13.8377 91.2688 13.9454V27.102C91.2753 27.7085 91.0684 28.2981 90.6843 28.7676C90.1079 29.4617 89.4366 30.0712 88.6902 30.578C87.6752 31.264 86.4754 31.6249 85.2504 31.6125C83.5977 31.6125 82.3175 31.1806 81.4485 30.3193C80.5795 29.4581 80.1373 28.1494 80.1373 26.4062V13.9454C80.1376 13.8922 80.1274 13.8394 80.1073 13.7902C80.0872 13.7409 80.0575 13.6961 80.02 13.6584C79.9825 13.6207 79.9379 13.5907 79.8888 13.5703C79.8397 13.5498 79.787 13.5393 79.7338 13.5393H75.6448C75.5371 13.5393 75.4338 13.5821 75.3577 13.6582C75.2815 13.7344 75.2388 13.8377 75.2388 13.9454V27.0451C75.2388 29.7012 76.0431 31.8763 77.6285 33.5109C79.2139 35.1454 81.4433 35.9705 84.2495 35.9705C85.761 35.982 87.2528 35.627 88.5971 34.9359C89.8272 34.3187 90.9212 33.4613 91.8145 32.4143V34.9695C91.8152 35.077 91.8582 35.1799 91.9342 35.2559C92.0102 35.3319 92.1131 35.3749 92.2205 35.3756H95.7638C95.8715 35.3756 95.9748 35.3328 96.0509 35.2567C96.1271 35.1805 96.1698 35.0772 96.1698 34.9695V13.9454C96.1698 13.8918 96.1593 13.8388 96.1387 13.7894C96.1181 13.7399 96.088 13.6951 96.05 13.6573C96.012 13.6196 95.967 13.5897 95.9174 13.5695C95.8678 13.5492 95.8147 13.539 95.7612 13.5393ZM112.047 12.9471C113.689 12.9131 115.312 13.3052 116.757 14.0851C118.087 14.8196 119.18 15.9176 119.91 17.2507C120.668 18.6695 121.053 20.2585 121.027 21.8673V34.967C121.026 35.0745 120.983 35.1774 120.907 35.2534C120.831 35.3294 120.728 35.3724 120.621 35.3731H116.532C116.424 35.3724 116.321 35.3294 116.245 35.2534C116.169 35.1774 116.126 35.0745 116.126 34.967V22.501C116.126 20.8224 115.647 19.5319 114.716 18.6448C113.785 17.7577 112.554 17.3102 111.054 17.3102C109.829 17.2964 108.629 17.6574 107.614 18.3448C106.89 18.8338 106.232 19.4145 105.656 20.0724C105.228 20.5605 104.991 21.187 104.989 21.8363V34.9696C104.989 35.0773 104.946 35.1806 104.87 35.2567C104.794 35.3329 104.691 35.3757 104.583 35.3757H100.497C100.389 35.3757 100.286 35.3329 100.21 35.2567C100.133 35.1806 100.091 35.0773 100.091 34.9696V13.9428C100.091 13.8363 100.133 13.734 100.208 13.6585C100.283 13.5829 100.385 13.5401 100.491 13.5394H104.081C104.189 13.5394 104.291 13.5818 104.367 13.6574C104.444 13.733 104.487 13.8356 104.487 13.9428V16.4981C105.381 15.4536 106.474 14.598 107.702 13.9816C109.046 13.292 110.537 12.9371 112.047 12.9471ZM129.422 13.5394H125.335C125.111 13.5394 124.929 13.7212 124.929 13.9455V34.9697C124.929 35.1939 125.111 35.3757 125.335 35.3757H129.422C129.646 35.3757 129.828 35.1939 129.828 34.9697V13.9455C129.828 13.7212 129.646 13.5394 129.422 13.5394ZM149.445 13.5394H142.506C142.356 13.5387 142.212 13.4788 142.106 13.3727C142 13.2666 141.94 13.123 141.94 12.973V6.72442C141.94 6.67088 141.929 6.61786 141.908 6.56843C141.888 6.519 141.858 6.47412 141.82 6.43638C141.782 6.39864 141.737 6.36878 141.687 6.34853C141.638 6.32828 141.585 6.31803 141.531 6.31837C141.478 6.31863 141.425 6.32952 141.376 6.35039C141.328 6.37127 141.283 6.40171 141.247 6.43992L137.207 10.5004C137.169 10.5378 137.138 10.5825 137.118 10.6318C137.097 10.6812 137.087 10.7341 137.088 10.7875V12.9988C137.08 13.1436 137.018 13.2801 136.913 13.3802C136.808 13.4803 136.669 13.5363 136.524 13.5368H133.596C133.489 13.5381 133.387 13.5815 133.312 13.6575C133.237 13.7335 133.195 13.836 133.195 13.9428V17.4421C133.197 17.5483 133.239 17.6497 133.314 17.725C133.389 17.8003 133.49 17.8436 133.596 17.8456H136.656C136.775 17.8723 136.883 17.9373 136.962 18.0306C137.042 18.124 137.088 18.2406 137.095 18.3629V28.7081C137.095 31.1263 137.794 32.9497 139.165 34.1394C140.535 35.3291 142.369 35.9136 144.596 35.9136H149.432C149.486 35.9136 149.538 35.9031 149.588 35.8827C149.637 35.8623 149.682 35.8324 149.719 35.7947C149.757 35.757 149.787 35.7122 149.807 35.6629C149.828 35.6137 149.838 35.5609 149.838 35.5076V31.7186C149.838 31.6653 149.828 31.6125 149.807 31.5632C149.787 31.5139 149.757 31.4692 149.719 31.4315C149.682 31.3938 149.637 31.3639 149.588 31.3435C149.538 31.323 149.486 31.3125 149.432 31.3125H146.062C143.662 31.3125 142.871 30.591 142.863 30.5832C142.214 30.0116 141.95 29.2099 141.95 27.8158V18.4094C141.95 18.2612 142.008 18.119 142.112 18.0134C142.216 17.9079 142.358 17.8476 142.506 17.8456H149.45C149.558 17.8449 149.661 17.8019 149.737 17.7259C149.813 17.6499 149.856 17.547 149.856 17.4395V13.9428C149.856 13.8893 149.845 13.8363 149.824 13.787C149.803 13.7377 149.773 13.693 149.735 13.6555C149.696 13.618 149.651 13.5885 149.602 13.5685C149.552 13.5486 149.499 13.5387 149.445 13.5394ZM210.751 22.0457C211.648 22.3976 212.493 22.87 213.263 23.4501C213.993 24.0029 214.598 24.7046 215.037 25.5088C215.494 26.3861 215.722 27.3648 215.699 28.3538C215.727 29.7428 215.305 31.1037 214.496 32.2332C213.603 33.4042 212.399 34.3004 211.02 34.8196C209.528 35.4325 207.7 35.7429 205.589 35.7429C203.76 35.7809 201.94 35.4784 200.222 34.8506C198.803 34.331 197.56 33.4199 196.638 32.2229C195.828 31.1016 195.352 29.7733 195.267 28.3925C195.262 28.3254 195.271 28.2579 195.295 28.1949C195.319 28.1319 195.356 28.0748 195.404 28.0279C195.508 27.9259 195.649 27.8692 195.795 27.8701H199.832C199.953 27.8678 200.072 27.9082 200.166 27.9844C200.261 28.0605 200.326 28.1674 200.349 28.2865C200.43 28.9194 200.694 29.5152 201.107 30.0012C201.606 30.5539 202.241 30.9666 202.948 31.1987C203.782 31.4747 204.656 31.6101 205.535 31.5996C206.43 31.6163 207.321 31.4754 208.168 31.1832C208.837 30.9545 209.436 30.5583 209.908 30.0323C210.316 29.5612 210.54 28.9587 210.539 28.3356C210.549 27.8028 210.352 27.2867 209.991 26.8951C209.551 26.4567 209.022 26.1188 208.439 25.9045C207.651 25.5979 206.841 25.3498 206.016 25.1622L203.044 24.451C200.879 23.9312 199.157 23.1501 197.872 22.0664C196.586 20.9827 195.934 19.5292 195.934 17.7395C195.911 16.3368 196.367 14.9681 197.228 13.86C198.153 12.7116 199.363 11.8253 200.737 11.2892C202.326 10.6609 204.023 10.3507 205.731 10.3763C207.431 10.3434 209.12 10.654 210.697 11.2892C212.028 11.8262 213.194 12.7028 214.08 13.8316C214.819 14.8118 215.256 15.9867 215.337 17.2119C215.341 17.2654 215.334 17.3191 215.316 17.3697C215.278 17.4756 215.208 17.5669 215.115 17.6305C215.022 17.6941 214.911 17.7268 214.799 17.724H210.844C210.726 17.7273 210.61 17.6898 210.516 17.6178C210.422 17.5457 210.355 17.4435 210.327 17.3283C210.252 16.9162 210.091 16.5242 209.857 16.177C209.622 15.8298 209.318 15.535 208.964 15.311C208.126 14.7627 207.014 14.4833 205.664 14.4833C204.828 14.4653 203.996 14.6021 203.21 14.8868C202.614 15.0979 202.086 15.4639 201.679 15.9472C201.336 16.3762 201.148 16.9085 201.146 17.4576C201.135 17.8858 201.255 18.307 201.49 18.6654C201.74 19.027 202.068 19.3283 202.449 19.5473C202.891 19.8051 203.359 20.0149 203.846 20.1732C204.363 20.3416 204.887 20.484 205.418 20.6L207.87 21.169C208.853 21.3812 209.817 21.6744 210.751 22.0457ZM249.215 22.1104H239.697C239.646 22.1104 239.596 22.1205 239.549 22.1402C239.502 22.1599 239.459 22.1888 239.423 22.2251C239.387 22.2614 239.359 22.3045 239.34 22.3519C239.321 22.3992 239.311 22.4499 239.312 22.5009V26.0856C239.312 26.1878 239.353 26.2858 239.425 26.3581C239.497 26.4303 239.595 26.4709 239.697 26.4709H245.056C244.976 27.2657 244.737 28.0362 244.353 28.7365C243.857 29.6212 243.113 30.3407 242.211 30.8056C241.189 31.3138 240.058 31.5651 238.916 31.5375C237.618 31.5616 236.341 31.2075 235.241 30.5185C234.144 29.7865 233.285 28.7501 232.769 27.5365C232.179 26.2433 231.879 24.9062 231.879 23.0259C231.83 21.4844 232.134 19.9522 232.769 18.5464C233.286 17.3405 234.142 16.3108 235.233 15.5825C236.302 14.9044 237.545 14.553 238.81 14.5713C239.51 14.5665 240.207 14.6632 240.879 14.8584C241.486 15.0362 242.055 15.3218 242.561 15.7015C243.053 16.0774 243.48 16.5317 243.825 17.0464C244.156 17.5496 244.417 18.095 244.601 18.668C244.617 18.7239 244.651 18.773 244.698 18.8072C244.745 18.8415 244.802 18.859 244.86 18.8568H249.094C249.134 18.8578 249.174 18.8495 249.21 18.8324C249.246 18.8153 249.278 18.79 249.303 18.7585C249.329 18.7288 249.348 18.6936 249.358 18.6555C249.369 18.6174 249.37 18.5774 249.363 18.5387C249.171 17.425 248.779 16.3551 248.206 15.3808C247.6 14.3562 246.811 13.4515 245.879 12.7117C244.911 11.9504 243.818 11.364 242.648 10.9789C241.387 10.5632 240.066 10.3561 238.738 10.3659C237.165 10.3523 235.605 10.653 234.15 11.2504C232.753 11.8322 231.498 12.7071 230.469 13.8161C229.389 15.0015 228.561 16.3933 228.033 17.9076C227.429 19.564 227.134 21.3174 227.164 23.0803C227.164 25.7287 227.661 27.7589 228.638 29.6857C229.557 31.5425 230.991 33.0957 232.769 34.1601C234.517 35.1946 236.578 35.7325 238.896 35.7325C240.823 35.7679 242.73 35.3291 244.449 34.4549C246.037 33.6241 247.355 32.3584 248.25 30.8056C249.169 29.2331 249.634 27.3425 249.634 25.1907V22.5268C249.634 22.4719 249.623 22.4175 249.602 22.3668C249.581 22.3162 249.55 22.2701 249.511 22.2314C249.472 22.1927 249.426 22.1621 249.375 22.1413C249.324 22.1206 249.27 22.1101 249.215 22.1104ZM187.508 10.6711H191.553C191.661 10.6711 191.764 10.7139 191.84 10.7901C191.916 10.8662 191.959 10.9695 191.959 11.0772V34.9593C191.959 35.0665 191.917 35.1694 191.841 35.2455C191.766 35.3215 191.663 35.3646 191.556 35.3653H187.467C187.39 35.365 187.315 35.3448 187.248 35.3067C187.181 35.2686 187.126 35.214 187.086 35.1481L174.84 18.3629V24.6812H174.814V34.9696C174.814 35.0773 174.772 35.1806 174.695 35.2567C174.619 35.3329 174.516 35.3757 174.408 35.3757H170.389C170.282 35.3757 170.178 35.3329 170.102 35.2567C170.026 35.1806 169.983 35.0773 169.983 34.9696V11.0772C169.983 10.9695 170.026 10.8662 170.102 10.7901C170.178 10.7139 170.282 10.6711 170.389 10.6711H174.786C174.862 10.6712 174.937 10.6913 175.004 10.7294C175.07 10.7675 175.125 10.8223 175.164 10.8884L187.102 27.5727V23.0234V20.5664V11.0772C187.102 10.9695 187.145 10.8662 187.221 10.7901C187.297 10.7139 187.4 10.6711 187.508 10.6711ZM274.512 10.6711H270.48C270.372 10.6711 270.269 10.7139 270.193 10.79C270.116 10.8662 270.074 10.9695 270.074 11.0772V19.7465C270.074 19.8243 270.058 19.9013 270.029 19.9731C269.999 20.045 269.955 20.1103 269.9 20.1653C269.845 20.2203 269.78 20.2639 269.708 20.2937C269.636 20.3234 269.559 20.3388 269.481 20.3388H258.373C258.295 20.3388 258.218 20.3234 258.147 20.2937C258.075 20.2639 258.009 20.2203 257.954 20.1653C257.899 20.1103 257.856 20.045 257.826 19.9731C257.796 19.9013 257.781 19.8243 257.781 19.7465V11.0772C257.781 10.9695 257.738 10.8662 257.662 10.79C257.586 10.7139 257.483 10.6711 257.375 10.6711H253.343C253.29 10.6714 253.237 10.6822 253.189 10.7028C253.14 10.7234 253.095 10.7534 253.058 10.7911C253.021 10.8288 252.992 10.8735 252.972 10.9226C252.952 10.9716 252.942 11.0242 252.942 11.0772V34.967C252.942 35.0202 252.952 35.0729 252.972 35.1222C252.992 35.1714 253.022 35.2162 253.059 35.2539C253.097 35.2917 253.141 35.3216 253.19 35.3421C253.239 35.3625 253.292 35.373 253.345 35.373H257.377C257.431 35.373 257.484 35.3625 257.533 35.3421C257.582 35.3217 257.627 35.2918 257.665 35.2541C257.702 35.2164 257.732 35.1716 257.753 35.1224C257.773 35.0731 257.783 35.0203 257.783 34.967V25.1907C257.783 25.113 257.798 25.0361 257.828 24.9642C257.857 24.8924 257.9 24.8271 257.955 24.7721C258.01 24.717 258.075 24.6734 258.147 24.6436C258.219 24.6138 258.296 24.5984 258.373 24.5984H269.494C269.572 24.5981 269.649 24.6132 269.721 24.6428C269.793 24.6725 269.859 24.7161 269.914 24.7711C269.969 24.8262 270.013 24.8916 270.042 24.9636C270.072 25.0357 270.087 25.1128 270.087 25.1907V34.967C270.087 35.0747 270.129 35.1779 270.206 35.2541C270.282 35.3302 270.385 35.373 270.493 35.373H274.525C274.632 35.373 274.736 35.3302 274.812 35.2541C274.888 35.1779 274.931 35.0747 274.931 34.967V11.0772C274.931 11.0227 274.92 10.9688 274.899 10.9187C274.877 10.8686 274.846 10.8232 274.807 10.7854C274.768 10.7475 274.722 10.7178 274.671 10.6982C274.62 10.6786 274.566 10.6694 274.512 10.6711ZM278.223 10.6841H297.879C297.986 10.6861 298.087 10.7298 298.161 10.8057C298.236 10.8817 298.278 10.9838 298.277 11.0901V14.5687C298.278 14.6196 298.268 14.6699 298.249 14.717C298.23 14.7641 298.201 14.8068 298.166 14.8429C298.13 14.879 298.087 14.9076 298.04 14.9271C297.993 14.9466 297.943 14.9567 297.892 14.9567H291.129C290.972 14.9567 290.822 15.0187 290.711 15.1292C290.6 15.2397 290.537 15.3897 290.537 15.5464L290.467 34.9696C290.466 35.0803 290.422 35.1862 290.343 35.2642C290.265 35.3422 290.158 35.386 290.048 35.386H286.044C285.936 35.386 285.833 35.3433 285.756 35.2672C285.68 35.1912 285.636 35.0879 285.636 34.98V15.5489C285.636 15.3919 285.573 15.2412 285.462 15.1301C285.351 15.0191 285.2 14.9567 285.043 14.9567H278.202C278.1 14.956 278.002 14.9148 277.93 14.8421C277.858 14.7695 277.817 14.6712 277.817 14.5687V11.0901C277.817 10.9824 277.86 10.8792 277.936 10.803C278.012 10.7269 278.115 10.6841 278.223 10.6841ZM165.186 10.6841H161.133C160.909 10.6841 160.727 10.8659 160.727 11.0901V34.98C160.727 35.2042 160.909 35.386 161.133 35.386H165.186C165.41 35.386 165.592 35.2042 165.592 34.98V11.0901C165.592 10.8659 165.41 10.6841 165.186 10.6841ZM219.418 10.6841H223.471C223.695 10.6841 223.877 10.8659 223.877 11.0901V34.98C223.877 35.2042 223.695 35.386 223.471 35.386H219.418C219.194 35.386 219.012 35.2042 219.012 34.98V11.0901C219.012 10.8659 219.194 10.6841 219.418 10.6841Z" fill="black"/>
<path fill-rule="evenodd" clip-rule="evenodd" d="M324.324 26.8563H328.351V26.8511C328.424 26.8517 328.495 26.8679 328.56 26.8986C328.626 26.9293 328.684 26.9739 328.731 27.0291C328.777 27.0844 328.812 27.1491 328.831 27.2188C328.85 27.2885 328.854 27.3616 328.843 27.433C328.636 29.0126 328.02 30.5106 327.055 31.7779C326.09 33.0452 324.809 34.0377 323.342 34.6566C321.618 35.396 319.757 35.7644 317.882 35.7377C315.489 35.7377 313.371 35.2204 311.61 34.1859C309.836 33.1489 308.409 31.6113 307.506 29.7659C306.551 27.8572 306.065 25.6071 306.065 23.0415C306.065 20.4758 306.562 18.2154 307.542 16.317C308.471 14.4682 309.921 12.9317 311.713 11.897C313.501 10.8625 315.634 10.3452 318.055 10.3452C319.882 10.3145 321.695 10.667 323.378 11.3798C324.867 12.0248 326.158 13.0561 327.115 14.367C327.971 15.566 328.518 16.9583 328.706 18.4197C328.715 18.492 328.71 18.5655 328.69 18.6355C328.669 18.7054 328.634 18.7703 328.587 18.8258C328.54 18.8791 328.482 18.922 328.417 18.9514C328.353 18.9808 328.283 18.9962 328.212 18.9965H324.146C324.029 18.9936 323.916 18.951 323.827 18.8759C323.737 18.8007 323.675 18.6973 323.652 18.5827C323.509 17.8259 323.206 17.1083 322.765 16.4774C322.267 15.7811 321.591 15.2317 320.807 14.8868C319.938 14.5066 318.998 14.317 318.05 14.3307C316.824 14.2998 315.62 14.6674 314.62 15.3782C313.518 16.1161 312.659 17.1635 312.151 18.3887C311.542 19.8636 311.246 21.4488 311.282 23.044C311.246 24.6378 311.536 26.2221 312.135 27.6994C312.625 28.9159 313.459 29.963 314.535 30.7125C315.503 31.4185 316.679 31.7825 317.877 31.747C318.888 31.7651 319.892 31.5694 320.822 31.1728C321.649 30.8149 322.363 30.2414 322.892 29.5124C323.366 28.8441 323.687 28.0794 323.833 27.2727C323.853 27.1566 323.913 27.0513 324.003 26.9752C324.093 26.8991 324.207 26.857 324.324 26.8563ZM393.022 18.1405C393.022 19.1629 392.665 20.2664 391.951 21.4509C391.235 22.6355 380.944 30.9686 380.212 31.5065C380.16 31.5451 380.117 31.5954 380.088 31.6533C380.059 31.7113 380.044 31.7753 380.044 31.8402V34.9696C380.044 35.0241 380.054 35.078 380.075 35.1284C380.095 35.1787 380.126 35.2245 380.164 35.263C380.203 35.3015 380.249 35.332 380.299 35.3526C380.349 35.3733 380.403 35.3838 380.458 35.3834H397.137C397.247 35.3834 397.352 35.3398 397.43 35.2622C397.507 35.1846 397.551 35.0794 397.551 34.9696V31.9773C397.551 31.8675 397.507 31.7622 397.43 31.6846C397.352 31.607 397.247 31.5634 397.137 31.5634H387.33C387.267 31.5748 387.203 31.5629 387.149 31.5299C387.095 31.4969 387.054 31.4452 387.036 31.3845C387.017 31.3239 387.022 31.2585 387.048 31.2009C387.075 31.1433 387.122 31.0975 387.18 31.072C387.18 31.072 395.107 24.7304 396.415 22.4182C397.149 21.0554 397.527 19.5302 397.517 17.9827C397.548 16.6313 397.189 15.2996 396.483 14.1472C395.776 13.0421 394.761 12.1688 393.563 11.6359C392.184 11.0002 390.684 10.6744 389.166 10.6815C387.541 10.6679 385.937 11.043 384.487 11.7755C383.188 12.4242 382.101 13.4323 381.358 14.68C380.643 15.9094 380.229 17.2899 380.147 18.7094C380.144 18.766 380.152 18.8228 380.171 18.8761C380.19 18.9295 380.22 18.9784 380.259 19.0198C380.298 19.0612 380.344 19.0943 380.396 19.117C380.448 19.1396 380.505 19.1515 380.561 19.1517H384.164C384.271 19.1492 384.373 19.1062 384.45 19.0314C384.527 18.9565 384.573 18.8553 384.578 18.7482C384.609 17.9977 384.799 17.2625 385.136 16.5912C385.496 15.8809 386.063 15.2971 386.763 14.9179C387.445 14.5241 388.221 14.3255 389.008 14.3437C389.743 14.3272 390.472 14.4822 391.137 14.7963C391.731 15.0808 392.221 15.5438 392.538 16.1205C392.871 16.7409 393.038 17.4367 393.022 18.1405ZM369.068 25.8244L368.362 24.6994L368.281 24.583C368.416 24.5261 368.537 24.4718 368.646 24.4201C369.973 23.8153 371.116 22.8715 371.962 21.6837C372.737 20.5898 373.152 19.282 373.151 17.9413C373.2 16.5922 372.838 15.26 372.113 14.1208C371.389 12.9817 370.336 12.0891 369.094 11.5609C367.681 10.9501 366.153 10.6502 364.614 10.6815H354.843C354.733 10.6822 354.627 10.7263 354.549 10.8043C354.471 10.8822 354.427 10.9877 354.427 11.0979V34.9671C354.427 35.0773 354.471 35.1828 354.549 35.2608C354.627 35.3387 354.733 35.3828 354.843 35.3835H358.852C358.962 35.3835 359.068 35.3396 359.146 35.2615C359.224 35.1834 359.268 35.0775 359.268 34.9671V26.0313C359.269 25.8745 359.331 25.7242 359.442 25.6133C359.553 25.5024 359.704 25.4398 359.86 25.4391H363.155C363.228 25.4387 363.3 25.4568 363.364 25.4916C363.429 25.5264 363.483 25.5768 363.523 25.6382L369.631 35.1585C369.677 35.2279 369.739 35.2848 369.812 35.3241C369.886 35.3634 369.967 35.3838 370.05 35.3835H374.37C374.462 35.3793 374.552 35.3488 374.628 35.2955C374.73 35.2177 374.8 35.1048 374.823 34.9786C374.847 34.8524 374.822 34.722 374.755 34.6127L369.068 25.8244ZM359.258 15.2438C359.258 15.0869 359.321 14.9367 359.432 14.8258C359.543 14.7148 359.693 14.6522 359.85 14.6515H364.58C365.263 14.6373 365.94 14.7732 366.564 15.0498C367.093 15.2891 367.537 15.6821 367.839 16.1775C368.145 16.7141 368.297 17.3241 368.281 17.9413C368.302 18.6037 368.119 19.2565 367.757 19.8115C367.395 20.3665 366.871 20.797 366.256 21.0449C365.529 21.3483 364.745 21.4963 363.957 21.4794H359.85C359.693 21.4794 359.542 21.417 359.431 21.306C359.32 21.1949 359.258 21.0442 359.258 20.8872V15.2438ZM343.602 22.6859C343.602 22.7493 343.621 22.8111 343.657 22.8631L351.649 34.6205C351.702 34.6954 351.733 34.7844 351.736 34.8764C351.739 34.9684 351.715 35.0593 351.667 35.1378C351.62 35.2182 351.553 35.2847 351.472 35.3302C351.391 35.3758 351.299 35.3986 351.207 35.3964H346.918C346.832 35.3974 346.747 35.3778 346.67 35.3391C346.593 35.3004 346.527 35.2437 346.476 35.174L342.62 29.3211L340.742 26.4917C340.71 26.4393 340.664 26.3961 340.611 26.3661C340.557 26.3361 340.496 26.3204 340.435 26.3204C340.373 26.3204 340.312 26.3361 340.258 26.3661C340.205 26.3961 340.159 26.4393 340.127 26.4917L339.798 27.0452L338.246 29.316L334.388 35.1584C334.337 35.2287 334.271 35.286 334.194 35.3256C334.117 35.3651 334.032 35.3859 333.945 35.386H329.699C329.606 35.3871 329.514 35.3638 329.433 35.3184C329.352 35.273 329.284 35.2072 329.236 35.1274C329.188 35.0487 329.164 34.9577 329.168 34.8657C329.172 34.7737 329.202 34.6848 329.256 34.6102L331.825 30.829L337.171 22.9536C337.206 22.9017 337.225 22.8405 337.225 22.7777C337.225 22.715 337.206 22.6538 337.171 22.6019L329.523 11.4523C329.47 11.3772 329.44 11.2885 329.436 11.1967C329.432 11.1049 329.455 11.014 329.502 10.935C329.549 10.8541 329.616 10.7874 329.698 10.7418C329.779 10.6963 329.872 10.6737 329.965 10.6764H334.318C334.405 10.6741 334.491 10.6937 334.568 10.7335C334.645 10.7733 334.711 10.8319 334.76 10.904L338.215 16.224L340.111 19.0483C340.143 19.1017 340.188 19.1459 340.242 19.1763C340.296 19.2068 340.357 19.2224 340.419 19.2216C340.48 19.223 340.541 19.2082 340.594 19.1786C340.648 19.1491 340.693 19.1059 340.724 19.0534L342.648 16.1878L346.099 10.9065C346.148 10.8357 346.215 10.7779 346.292 10.7383C346.369 10.6986 346.454 10.6783 346.541 10.6789H350.816C350.909 10.6763 351.002 10.6989 351.083 10.7444C351.165 10.79 351.232 10.8567 351.279 10.9376C351.327 11.0162 351.351 11.1073 351.347 11.1994C351.343 11.2914 351.313 11.3804 351.258 11.4548L343.657 22.5088C343.621 22.5608 343.602 22.6226 343.602 22.6859Z" fill="#00C9EA"/>
</g>
<defs>
<clipPath id="clip0_9065_96255">
<rect width="398" height="40" fill="white"/>
</clipPath>
</defs>
</svg>
