<svg width="284" height="40" viewBox="0 0 284 40" fill="none" xmlns="http://www.w3.org/2000/svg">
<g clip-path="url(#clip0_9162_122349)">
<path d="M20 6.10352e-05C16.0444 6.10352e-05 12.1776 1.17302 8.8886 3.37065C5.59962 5.56827 3.03617 8.69186 1.52242 12.3464C0.00866659 16.0009 -0.387401 20.0222 0.384303 23.9018C1.15601 27.7814 3.06083 31.3451 5.85788 34.1422C8.65493 36.9392 12.2186 38.844 16.0982 39.6157C19.9778 40.3874 23.9992 39.9914 27.6537 38.4776C31.3082 36.9639 34.4318 34.4004 36.6294 31.1114C38.827 27.8224 40 23.9556 40 20C40 17.3736 39.4827 14.7729 38.4776 12.3464C37.4725 9.91987 35.9993 7.71505 34.1421 5.85787C32.285 4.0007 30.0802 2.52754 27.6537 1.52244C25.2272 0.517347 22.6264 6.10352e-05 20 6.10352e-05ZM26.0091 18.6618C24.0805 18.6853 22.2375 19.4619 20.8736 20.8257C19.5098 22.1895 18.7332 24.0325 18.7097 25.9611C18.7097 25.9931 18.7097 26.0251 18.7097 26.0571C18.7097 26.9914 18.4326 27.9048 17.9135 28.6817C17.3945 29.4585 16.6567 30.064 15.7934 30.4216C14.9302 30.7791 13.9804 30.8727 13.064 30.6904C12.1476 30.5081 11.3059 30.0582 10.6452 29.3975C9.98452 28.7368 9.53459 27.8951 9.35231 26.9787C9.17003 26.0623 9.26358 25.1125 9.62114 24.2493C9.97869 23.386 10.5842 22.6483 11.3611 22.1292C12.1379 21.6101 13.0513 21.333 13.9856 21.333C14.9491 21.333 15.9031 21.1423 16.7926 20.7718C17.682 20.4013 18.4893 19.8584 19.1679 19.1744C19.8465 18.4903 20.3829 17.6787 20.7463 16.7863C21.1097 15.894 21.2927 14.9385 21.285 13.975V13.9376C21.2861 13.0046 21.5637 12.0928 22.0828 11.3175C22.602 10.5422 23.3393 9.93821 24.2016 9.58188C25.064 9.22555 26.0126 9.13287 26.9276 9.31555C27.8426 9.49822 28.6829 9.9481 29.3423 10.6082C30.0017 11.2684 30.4506 12.1092 30.6322 13.0244C30.8138 13.9396 30.7201 14.888 30.3628 15.75C30.0055 16.6119 29.4007 17.3486 28.6248 17.8668C27.8489 18.3851 26.9368 18.6618 26.0037 18.6618H26.0091Z" fill="#00C9EA"/>
<path fill-rule="evenodd" clip-rule="evenodd" d="M71.5249 30.5199H57.0808C56.6008 30.5158 56.1415 30.3236 55.8016 29.9846C55.4617 29.6457 55.2682 29.187 55.2626 28.707V3.95095C55.2626 3.84347 55.2199 3.74043 55.1439 3.66443C55.0679 3.58844 54.9649 3.54572 54.8574 3.54572H50.4052C50.2978 3.54572 50.1947 3.58844 50.1187 3.66443C50.0427 3.74043 50 3.84347 50 3.95095V30.152C50.0028 31.5364 50.5544 32.8633 51.5339 33.8418C52.5134 34.8203 53.8408 35.3705 55.2253 35.3719H71.5249C71.6324 35.3719 71.7355 35.3292 71.8115 35.2532C71.8875 35.1772 71.9301 35.0742 71.9301 34.9667V30.9251C71.9301 30.8177 71.8875 30.7146 71.8115 30.6386C71.7355 30.5626 71.6324 30.5199 71.5249 30.5199ZM128.55 5.77448H124.46C124.237 5.77448 124.055 5.9559 124.055 6.1797V10.2693C124.055 10.4931 124.237 10.6745 124.46 10.6745H128.55C128.774 10.6745 128.955 10.4931 128.955 10.2693V6.1797C128.955 5.9559 128.774 5.77448 128.55 5.77448ZM199.742 26.8035H203.757C203.89 26.7967 204.022 26.8405 204.125 26.9261C204.171 26.9822 204.205 27.047 204.225 27.1166C204.245 27.1863 204.251 27.2593 204.242 27.3313C204.036 28.9079 203.42 30.4031 202.457 31.6678C201.493 32.9326 200.215 33.9229 198.75 34.5401C197.029 35.2709 195.175 35.6341 193.306 35.6064C191.121 35.6576 188.961 35.1239 187.052 34.0602C185.281 33.0272 183.856 31.4928 182.957 29.6507C181.96 27.5619 181.469 25.2677 181.523 22.9538C181.468 20.6357 181.973 18.3387 182.994 16.257C183.919 14.412 185.365 12.8789 187.153 11.8475C189.09 10.784 191.273 10.2506 193.482 10.3012C195.306 10.2809 197.113 10.6442 198.787 11.3676C200.274 12.0011 201.564 13.0233 202.52 14.3268C203.379 15.5208 203.929 16.9095 204.119 18.3684C204.128 18.4407 204.121 18.514 204.1 18.5837C204.079 18.6534 204.044 18.718 203.997 18.7736C203.95 18.8271 203.893 18.8699 203.828 18.8994C203.764 18.9288 203.694 18.9441 203.623 18.9442H199.571C199.455 18.9392 199.344 18.8964 199.254 18.8222C199.165 18.7481 199.102 18.6468 199.075 18.5337C198.934 17.7782 198.632 17.0618 198.19 16.4329C197.696 15.7332 197.022 15.1804 196.239 14.8333C195.372 14.4624 194.436 14.2807 193.493 14.3001C192.266 14.2762 191.065 14.6504 190.07 15.3665C188.97 16.1024 188.113 17.1468 187.606 18.3684C187.001 19.8366 186.707 21.4142 186.743 23.0018C186.707 24.5879 186.995 26.1646 187.59 27.6353C188.079 28.849 188.911 29.8939 189.984 30.6425C190.949 31.3502 192.121 31.716 193.317 31.6822C194.325 31.7009 195.326 31.5065 196.255 31.1117C197.078 30.7549 197.789 30.1819 198.313 29.4535C198.789 28.7885 199.11 28.0249 199.251 27.2194C199.277 27.1061 199.338 27.0042 199.427 26.9291C199.515 26.8541 199.626 26.8099 199.742 26.8035ZM224.706 11.8848C222.743 10.869 220.565 10.3388 218.355 10.3388C216.145 10.3388 213.968 10.869 212.005 11.8848C210.202 12.9058 208.745 14.441 207.819 16.2943C206.864 18.3976 206.369 20.681 206.369 22.9912C206.369 25.3014 206.864 27.5848 207.819 29.6881C208.743 31.5425 210.201 33.0781 212.005 34.0976C213.968 35.1134 216.145 35.6436 218.355 35.6436C220.565 35.6436 222.743 35.1134 224.706 34.0976C226.501 33.074 227.95 31.5389 228.87 29.6881C229.825 27.5848 230.32 25.3014 230.32 22.9912C230.32 20.681 229.825 18.3976 228.87 16.2943C227.948 14.4455 226.499 12.9112 224.706 11.8848ZM221.752 30.6265C220.768 31.3427 219.577 31.7172 218.361 31.6929C217.129 31.7168 215.923 31.3428 214.921 30.6265C213.821 29.8883 212.959 28.8451 212.442 27.6246C211.826 26.1594 211.526 24.5804 211.562 22.9912C211.527 21.4037 211.821 19.826 212.426 18.3578C212.938 17.134 213.8 16.0894 214.905 15.3559C215.926 14.6379 217.15 14.2643 218.398 14.2895C219.608 14.2635 220.793 14.6385 221.768 15.3559C222.861 16.098 223.717 17.1405 224.231 18.3578C225.411 21.334 225.411 24.6483 224.231 27.6246C223.716 28.8461 222.854 29.8897 221.752 30.6265ZM271.146 31.373H260.834C260.757 31.3737 260.679 31.3589 260.607 31.3294C260.535 31.2999 260.469 31.2563 260.414 31.2012C260.359 31.1461 260.316 31.0805 260.286 31.0084C260.257 30.9363 260.242 30.8591 260.243 30.7811V25.3372C260.243 25.1802 260.305 25.0298 260.416 24.9188C260.527 24.8078 260.677 24.7454 260.834 24.7454H270.491C270.601 24.7454 270.707 24.7016 270.785 24.6236C270.863 24.5456 270.906 24.4398 270.906 24.3295V21.189C270.906 21.0787 270.863 20.9729 270.785 20.8949C270.707 20.8169 270.601 20.7731 270.491 20.7731H260.834C260.677 20.7731 260.527 20.7108 260.416 20.5998C260.305 20.4888 260.243 20.3383 260.243 20.1813V15.2066C260.242 15.1287 260.257 15.0514 260.286 14.9793C260.316 14.9072 260.359 14.8416 260.414 14.7865C260.469 14.7314 260.535 14.6878 260.607 14.6583C260.679 14.6289 260.757 14.614 260.834 14.6147H271.109C271.164 14.6147 271.219 14.6038 271.269 14.5826C271.32 14.5614 271.366 14.5303 271.405 14.4911C271.444 14.4519 271.474 14.4054 271.495 14.3543C271.515 14.3033 271.526 14.2486 271.525 14.1936V11.0584C271.525 10.9481 271.481 10.8423 271.403 10.7643C271.325 10.6863 271.219 10.6425 271.109 10.6425H255.471C255.415 10.6418 255.361 10.652 255.31 10.6726C255.259 10.6932 255.212 10.7237 255.173 10.7624C255.134 10.8011 255.103 10.8471 255.081 10.898C255.06 10.9488 255.049 11.0033 255.049 11.0584V34.9293C255.049 34.9844 255.06 35.0389 255.081 35.0898C255.103 35.1406 255.134 35.1866 255.173 35.2253C255.212 35.264 255.259 35.2946 255.31 35.3151C255.361 35.3357 255.415 35.3459 255.471 35.3452H271.146C271.257 35.3452 271.362 35.3014 271.44 35.2234C271.518 35.1454 271.562 35.0396 271.562 34.9293V31.7889C271.562 31.7343 271.551 31.6801 271.531 31.6297C271.51 31.5792 271.479 31.5334 271.44 31.4947C271.402 31.4561 271.356 31.4255 271.306 31.4046C271.255 31.3837 271.201 31.373 271.146 31.373ZM243.17 10.6425C244.821 10.6084 246.459 10.9379 247.969 11.6075C249.28 12.2005 250.387 13.1668 251.152 14.3855C251.913 15.6758 252.299 17.1531 252.266 18.651C252.299 20.1517 251.905 21.6309 251.13 22.9165C250.346 24.1538 249.215 25.1328 247.878 25.7317C246.322 26.4151 244.635 26.75 242.935 26.7129H239.256C239.14 26.7129 239.029 26.7589 238.947 26.8409C238.865 26.9229 238.819 27.0341 238.819 27.15V34.9293C238.819 35.0396 238.775 35.1454 238.697 35.2234C238.619 35.3014 238.513 35.3452 238.403 35.3452H234.015C233.905 35.3452 233.799 35.3014 233.721 35.2234C233.643 35.1454 233.599 35.0396 233.599 34.9293V11.0584C233.599 10.9481 233.643 10.8422 233.721 10.7642C233.799 10.6863 233.905 10.6425 234.015 10.6425H243.17ZM245.351 22.2394C245.997 21.9313 246.537 21.4375 246.902 20.8211L246.881 20.8317C247.272 20.1681 247.477 19.4109 247.473 18.6403C247.487 17.8948 247.303 17.1589 246.94 16.5076C246.593 15.9128 246.082 15.4313 245.468 15.1213C244.762 14.7764 243.982 14.6063 243.197 14.6254H239.432C239.354 14.6247 239.277 14.6395 239.205 14.669C239.133 14.6985 239.067 14.7421 239.012 14.7972C238.957 14.8523 238.913 14.9178 238.884 14.9899C238.854 15.0621 238.84 15.1393 238.84 15.2172V22.1487C238.84 22.2269 238.854 22.3044 238.884 22.3768C238.913 22.4493 238.957 22.5151 239.012 22.5707C239.067 22.6262 239.132 22.6702 239.204 22.7003C239.277 22.7304 239.354 22.7459 239.432 22.7459H242.957C243.783 22.7649 244.603 22.5915 245.351 22.2394ZM178.761 25.4919C178.32 24.6825 177.711 23.9771 176.974 23.4231C176.205 22.8438 175.36 22.372 174.463 22.0208C173.529 21.6494 172.566 21.3569 171.584 21.1463L169.131 20.5759C168.598 20.4586 168.065 20.3146 167.558 20.1439C167.071 19.9851 166.603 19.7742 166.161 19.5148C165.78 19.2967 165.452 18.9961 165.202 18.635C164.967 18.276 164.847 17.8536 164.86 17.4247C164.862 16.8758 165.05 16.3438 165.393 15.9158C165.799 15.4297 166.327 15.0615 166.924 14.8494C167.71 14.5672 168.541 14.4317 169.376 14.4495C170.534 14.3992 171.681 14.6883 172.677 15.2812C173.031 15.5042 173.335 15.7978 173.569 16.1437C173.804 16.4896 173.965 16.8804 174.042 17.2914C174.072 17.4087 174.141 17.5122 174.238 17.5849C174.335 17.6576 174.454 17.6951 174.575 17.6913H178.531C178.646 17.6981 178.76 17.6674 178.856 17.604C178.953 17.5406 179.026 17.4477 179.065 17.3394C179.076 17.2866 179.076 17.2321 179.065 17.1794C178.987 15.9549 178.549 14.7807 177.806 13.8043C176.924 12.6722 175.758 11.7946 174.426 11.261C172.85 10.6227 171.161 10.3107 169.462 10.3439C167.753 10.3189 166.056 10.6287 164.466 11.2557C163.092 11.7933 161.882 12.6812 160.957 13.831C160.098 14.9363 159.64 16.3018 159.662 17.702C159.634 18.5225 159.794 19.3385 160.129 20.0878C160.465 20.8372 160.967 21.5001 161.597 22.0261C163.118 23.21 164.891 24.0257 166.78 24.4095L169.755 25.124C170.578 25.3133 171.387 25.5609 172.176 25.8651C172.762 26.0786 173.295 26.417 173.738 26.8569C174.093 27.2512 174.284 27.7661 174.271 28.2965C174.271 28.9203 174.048 29.5234 173.642 29.9973C173.169 30.5227 172.568 30.9174 171.898 31.1437C171.053 31.4354 170.164 31.5762 169.27 31.5596C168.388 31.5725 167.51 31.4373 166.673 31.1597C165.965 30.928 165.329 30.5164 164.828 29.9653C164.415 29.4785 164.152 28.8821 164.071 28.2485C164.044 28.1282 163.976 28.021 163.879 27.9452C163.782 27.8694 163.661 27.8296 163.538 27.8326H159.502C159.354 27.8319 159.212 27.8894 159.107 27.9926C159.06 28.0401 159.024 28.0969 159.001 28.1595C158.978 28.222 158.969 28.2887 158.974 28.3551C159.058 29.7355 159.533 31.0634 160.344 32.1834C161.264 33.3842 162.507 34.2979 163.927 34.8174C165.65 35.4455 167.474 35.7475 169.307 35.7078C171.161 35.7531 173.006 35.4399 174.74 34.7854C176.118 34.2607 177.323 33.3614 178.217 32.1888C179.024 31.0654 179.449 29.7118 179.427 28.3285C179.447 27.3419 179.218 26.3663 178.761 25.4919ZM90.8001 13.5377H94.8844C94.9381 13.5404 94.9907 13.5538 95.0392 13.5771C95.0877 13.6004 95.1311 13.633 95.1668 13.6732C95.2025 13.7134 95.2299 13.7603 95.2473 13.8112C95.2647 13.8621 95.2719 13.916 95.2683 13.9696V34.9934C95.2683 35.1009 95.2255 35.2039 95.1496 35.2799C95.0736 35.3559 94.9705 35.3986 94.863 35.3986H91.3226C91.2152 35.3986 91.1121 35.3559 91.0361 35.2799C90.9601 35.2039 90.9174 35.1009 90.9174 34.9934V32.4394C90.029 33.4854 88.9415 34.3445 87.7183 34.9667C86.3734 35.653 84.8826 36.0042 83.3727 35.9905C80.5682 35.9905 78.3341 35.164 76.7505 33.5324C75.1669 31.9008 74.3618 29.7361 74.3618 27.0701V13.9696C74.3618 13.8622 74.4045 13.7591 74.4805 13.6831C74.5565 13.6071 74.6596 13.5644 74.767 13.5644H78.8566C78.9641 13.5644 79.0672 13.6071 79.1432 13.6831C79.2192 13.7591 79.2618 13.8622 79.2618 13.9696V26.4356C79.2618 28.1792 79.7044 29.4962 80.5735 30.3493C81.4426 31.2024 82.7223 31.6343 84.3751 31.6343C85.6035 31.638 86.8035 31.2659 87.8142 30.5679C88.5614 30.0652 89.2329 29.4583 89.8084 28.7657C90.1913 28.2965 90.397 27.7077 90.3895 27.1021V13.943C90.3909 13.835 90.4348 13.732 90.5117 13.6561C90.5885 13.5803 90.6921 13.5377 90.8001 13.5377ZM115.881 14.0816C114.436 13.3043 112.814 12.9131 111.173 12.9459C109.663 12.9321 108.172 13.2834 106.827 13.9696C105.604 14.5918 104.517 15.4509 103.628 16.4969V13.9429C103.628 13.8355 103.586 13.7324 103.51 13.6564C103.434 13.5804 103.331 13.5377 103.223 13.5377H99.6347C99.5272 13.5377 99.4242 13.5804 99.3482 13.6564C99.2722 13.7324 99.2295 13.8355 99.2295 13.9429V34.9667C99.2295 35.0742 99.2722 35.1772 99.3482 35.2532C99.4242 35.3292 99.5272 35.3719 99.6347 35.3719H103.724C103.832 35.3719 103.935 35.3292 104.011 35.2532C104.087 35.1772 104.13 35.0742 104.13 34.9667V21.8342C104.129 21.1843 104.366 20.5567 104.796 20.0693C105.372 19.4123 106.029 18.8318 106.753 18.3418C107.767 17.6532 108.966 17.2905 110.192 17.3021C111.541 17.2447 112.858 17.724 113.855 18.635C114.788 19.5201 115.257 20.8211 115.257 22.5007V34.9667C115.257 35.0742 115.3 35.1772 115.376 35.2532C115.452 35.3292 115.555 35.3719 115.662 35.3719H119.72C119.827 35.3719 119.931 35.3292 120.007 35.2532C120.083 35.1772 120.125 35.0742 120.125 34.9667V21.8661C120.154 20.2572 119.77 18.6677 119.011 17.2488C118.286 15.9196 117.201 14.8218 115.881 14.0816ZM124.46 13.5377H128.55C128.774 13.5377 128.955 13.7191 128.955 13.9429V34.9667C128.955 35.1905 128.774 35.3719 128.55 35.3719H124.46C124.237 35.3719 124.055 35.1905 124.055 34.9667V13.9429C124.055 13.7191 124.237 13.5377 124.46 13.5377ZM148.555 17.8459H141.624C141.475 17.8487 141.334 17.9093 141.229 18.0148C141.125 18.1204 141.065 18.2625 141.064 18.4111V27.8219C141.064 29.2135 141.331 30.0133 141.976 30.5892C141.976 30.5945 142.776 31.3143 145.175 31.3143H148.561C148.668 31.3143 148.771 31.357 148.847 31.433C148.923 31.509 148.966 31.6121 148.966 31.7196V35.5159C148.966 35.6233 148.923 35.7264 148.847 35.8024C148.771 35.8784 148.668 35.9211 148.561 35.9211H143.725C141.48 35.9211 139.656 35.2972 138.281 34.1455C136.905 32.9938 136.212 31.1437 136.212 28.7284V18.3738C136.207 18.2486 136.161 18.1286 136.081 18.0323C136.001 17.9359 135.892 17.8686 135.769 17.8406H132.709C132.601 17.8406 132.498 17.7978 132.422 17.7219C132.346 17.6459 132.304 17.5428 132.304 17.4353V13.9376C132.304 13.8301 132.346 13.7271 132.422 13.6511C132.498 13.5751 132.601 13.5324 132.709 13.5324H135.647C135.791 13.5314 135.929 13.4758 136.034 13.3769C136.139 13.2779 136.203 13.1431 136.212 12.9992V10.7865C136.211 10.7331 136.221 10.6801 136.242 10.6306C136.262 10.5812 136.292 10.5363 136.329 10.4985L140.366 6.44095C140.422 6.38403 140.494 6.3451 140.572 6.32906C140.651 6.31302 140.732 6.32063 140.806 6.35086C140.881 6.3811 140.944 6.4326 140.989 6.49894C141.034 6.56527 141.058 6.64346 141.059 6.72355V12.9725C141.06 13.122 141.12 13.2649 141.226 13.3706C141.331 13.4763 141.474 13.5363 141.624 13.5377H148.555C148.663 13.5377 148.766 13.5804 148.842 13.6564C148.918 13.7324 148.961 13.8354 148.961 13.9429V17.4407C148.961 17.5482 148.918 17.6512 148.842 17.7272C148.766 17.8032 148.663 17.8459 148.555 17.8459ZM282.743 12.9458C282.539 12.4701 282.246 12.0377 281.88 11.6715C281.514 11.3064 281.081 11.015 280.605 10.8131C279.61 10.401 278.492 10.401 277.497 10.8131C277.022 11.0162 276.589 11.3075 276.222 11.6715C275.856 12.0364 275.565 12.4693 275.364 12.9458C274.952 13.9428 274.952 15.0627 275.364 16.0597C275.771 17.0208 276.536 17.7858 277.497 18.1925C278.492 18.6045 279.61 18.6045 280.605 18.1925C281.082 17.9925 281.515 17.7008 281.88 17.334C282.246 16.9678 282.539 16.5354 282.743 16.0597C283.156 15.0627 283.156 13.9428 282.743 12.9458ZM281.624 16.001C281.365 16.442 280.998 16.8092 280.557 17.0674C280.105 17.3345 279.589 17.4728 279.064 17.4673C278.534 17.4855 278.008 17.3583 277.545 17.0994C277.108 16.8364 276.741 16.4702 276.478 16.033C276.21 15.5816 276.072 15.065 276.078 14.5401C276.074 14.0136 276.212 13.4958 276.478 13.0418C276.739 12.6031 277.106 12.2366 277.545 11.9755C278 11.7082 278.52 11.57 279.048 11.5756C279.573 11.57 280.089 11.7083 280.541 11.9755C280.982 12.2336 281.349 12.6008 281.608 13.0418C281.873 13.4965 282.013 14.0135 282.013 14.5401C282.013 15.0666 281.873 15.5837 281.608 16.0384L281.624 16.001ZM280.672 13.8283C280.672 14.0638 280.608 14.2949 280.488 14.4975C280.383 14.6558 280.24 14.7858 280.072 14.876L280.797 16.305H279.795L279.203 15.0627H278.521V16.305H277.614V12.6153H279.438C279.643 12.6136 279.845 12.6592 280.03 12.7486C280.216 12.8422 280.375 12.9839 280.488 13.1591C280.608 13.3617 280.672 13.5928 280.672 13.8283ZM279.177 14.3962C279.311 14.3957 279.441 14.3443 279.539 14.2522C279.597 14.1978 279.641 14.1313 279.67 14.0575C279.698 13.9838 279.71 13.9045 279.704 13.8256C279.712 13.7473 279.701 13.6683 279.673 13.5951C279.644 13.5219 279.598 13.4565 279.539 13.4044C279.439 13.3281 279.318 13.2852 279.193 13.2818H278.526V14.3962H279.177Z" fill="white"/>
</g>
<defs>
<clipPath id="clip0_9162_122349">
<rect width="284" height="40" fill="white"/>
</clipPath>
</defs>
</svg>
