<svg width="505" height="40" viewBox="0 0 505 40" fill="none" xmlns="http://www.w3.org/2000/svg">
<g clip-path="url(#clip0_9065_96245)">
<path d="M20 0C16.0444 0 12.1776 1.17298 8.8886 3.37061C5.59962 5.56824 3.03617 8.69181 1.52242 12.3463C0.0086657 16.0009 -0.387401 20.0222 0.384303 23.9018C1.15601 27.7814 3.06082 31.3451 5.85787 34.1421C8.65492 36.9392 12.2186 38.844 16.0982 39.6157C19.9778 40.3874 23.9992 39.9913 27.6537 38.4776C31.3082 36.9638 34.4318 34.4004 36.6294 31.1114C38.827 27.8224 40 23.9556 40 20C40 14.6957 37.8929 9.60859 34.1421 5.85786C30.3914 2.10714 25.3043 0 20 0ZM26.0106 18.6629C24.0815 18.6864 22.238 19.4631 20.8739 20.8273C19.5097 22.1915 18.7329 24.035 18.7094 25.964C18.7094 25.9951 18.7094 26.0261 18.7094 26.0572C18.7094 26.9907 18.4326 27.9033 17.914 28.6795C17.3953 29.4557 16.6582 30.0606 15.7957 30.4179C14.9332 30.7751 13.9842 30.8686 13.0686 30.6865C12.153 30.5044 11.3119 30.0548 10.6518 29.3947C9.99173 28.7346 9.54219 27.8936 9.36007 26.978C9.17794 26.0624 9.27142 25.1134 9.62866 24.2509C9.98591 23.3884 10.5909 22.6512 11.3671 22.1326C12.1433 21.6139 13.0559 21.3371 13.9894 21.3371C14.9529 21.3368 15.9068 21.1459 16.7962 20.7753C17.6856 20.4047 18.4929 19.8618 19.1716 19.1778C19.8502 18.4939 20.3869 17.6824 20.7505 16.7902C21.1142 15.8979 21.2977 14.9425 21.2906 13.979V13.9428C21.2906 13.0093 21.5674 12.0967 22.0861 11.3205C22.6047 10.5443 23.3419 9.93935 24.2043 9.5821C25.0668 9.22485 26.0159 9.13138 26.9314 9.31351C27.847 9.49563 28.6881 9.94517 29.3482 10.6053C30.0083 11.2654 30.4578 12.1064 30.6399 13.022C30.8221 13.9376 30.7286 14.8866 30.3714 15.7491C30.0141 16.6116 29.4091 17.3488 28.6329 17.8674C27.8567 18.386 26.9441 18.6629 26.0106 18.6629Z" fill="#00C9EA"/>
<path fill-rule="evenodd" clip-rule="evenodd" d="M57.9593 30.5186H72.4013C72.5081 30.5206 72.6097 30.5647 72.6843 30.6411C72.7589 30.7176 72.8003 30.8204 72.7996 30.9272V34.9696C72.7989 35.0771 72.7559 35.18 72.6799 35.256C72.6039 35.332 72.501 35.375 72.3935 35.3757H56.0997C54.7154 35.3736 53.3884 34.8228 52.4096 33.844C51.4308 32.8652 50.88 31.5382 50.8779 30.1539V3.95451C50.8779 3.84682 50.9207 3.74354 50.9969 3.66739C51.073 3.59124 51.1763 3.54846 51.284 3.54846H55.7428C55.8505 3.54846 55.9538 3.59124 56.0299 3.66739C56.1061 3.74354 56.1488 3.84682 56.1488 3.95451V28.7082C56.1549 29.1864 56.3476 29.6434 56.6858 29.9817C57.024 30.3199 57.481 30.5126 57.9593 30.5186ZM129.422 5.77271H125.335C125.111 5.77271 124.929 5.9545 124.929 6.17876V10.2651C124.929 10.4894 125.111 10.6712 125.335 10.6712H129.422C129.646 10.6712 129.828 10.4894 129.828 10.2651V6.17876C129.828 5.9545 129.646 5.77271 129.422 5.77271ZM95.761 13.5393H91.6746C91.5669 13.5393 91.4636 13.5821 91.3875 13.6582C91.3113 13.7344 91.2685 13.8377 91.2685 13.9454V27.102C91.275 27.7085 91.0681 28.2981 90.684 28.7676C90.1077 29.4617 89.4364 30.0712 88.69 30.578C87.675 31.264 86.4752 31.6249 85.2502 31.6125C83.5975 31.6125 82.3173 31.1806 81.4483 30.3193C80.5793 29.4581 80.137 28.1494 80.137 26.4062V13.9454C80.1374 13.8922 80.1272 13.8394 80.107 13.7902C80.0869 13.7409 80.0573 13.6961 80.0198 13.6584C79.9823 13.6207 79.9377 13.5907 79.8885 13.5703C79.8394 13.5498 79.7868 13.5393 79.7335 13.5393H75.6446C75.5369 13.5393 75.4336 13.5821 75.3575 13.6582C75.2813 13.7344 75.2385 13.8377 75.2385 13.9454V27.0451C75.2385 29.7012 76.0429 31.8763 77.6283 33.5109C79.2137 35.1454 81.4431 35.9705 84.2493 35.9705C85.7608 35.982 87.2526 35.627 88.5969 34.9359C89.827 34.3187 90.921 33.4613 91.8142 32.4143V34.9695C91.8149 35.077 91.8579 35.1799 91.9339 35.2559C92.0099 35.3319 92.1128 35.3749 92.2203 35.3756H95.7635C95.8712 35.3756 95.9745 35.3328 96.0507 35.2567C96.1268 35.1805 96.1696 35.0772 96.1696 34.9695V13.9454C96.1696 13.8918 96.159 13.8388 96.1384 13.7894C96.1179 13.7399 96.0877 13.6951 96.0498 13.6573C96.0118 13.6196 95.9667 13.5897 95.9171 13.5695C95.8676 13.5492 95.8145 13.539 95.761 13.5393ZM112.047 12.9471C113.689 12.9131 115.312 13.3052 116.757 14.0851C118.087 14.8196 119.18 15.9176 119.91 17.2507C120.668 18.6695 121.053 20.2585 121.027 21.8673V34.967C121.026 35.0745 120.983 35.1774 120.907 35.2534C120.831 35.3294 120.728 35.3724 120.621 35.3731H116.532C116.424 35.3724 116.321 35.3294 116.245 35.2534C116.169 35.1774 116.126 35.0745 116.126 34.967V22.501C116.126 20.8224 115.647 19.5319 114.716 18.6448C113.785 17.7577 112.554 17.3102 111.054 17.3102C109.829 17.2964 108.629 17.6574 107.614 18.3448C106.89 18.8338 106.232 19.4145 105.656 20.0724C105.228 20.5605 104.991 21.187 104.989 21.8363V34.9696C104.989 35.0773 104.946 35.1806 104.87 35.2567C104.794 35.3329 104.691 35.3757 104.583 35.3757H100.497C100.389 35.3757 100.286 35.3329 100.21 35.2567C100.133 35.1806 100.091 35.0773 100.091 34.9696V13.9428C100.091 13.8363 100.133 13.734 100.208 13.6585C100.283 13.5829 100.385 13.5401 100.491 13.5394H104.081C104.189 13.5394 104.291 13.5818 104.367 13.6574C104.444 13.733 104.487 13.8356 104.487 13.9428V16.4981C105.381 15.4536 106.474 14.598 107.702 13.9816C109.046 13.292 110.537 12.9371 112.047 12.9471ZM129.422 13.5394H125.335C125.111 13.5394 124.929 13.7212 124.929 13.9455V34.9697C124.929 35.1939 125.111 35.3757 125.335 35.3757H129.422C129.646 35.3757 129.828 35.1939 129.828 34.9697V13.9455C129.828 13.7212 129.646 13.5394 129.422 13.5394ZM149.445 13.5394H142.506C142.356 13.5387 142.212 13.4788 142.106 13.3727C142 13.2666 141.94 13.123 141.94 12.973V6.72442C141.94 6.67088 141.929 6.61786 141.908 6.56843C141.888 6.519 141.858 6.47412 141.82 6.43638C141.782 6.39864 141.737 6.36878 141.687 6.34853C141.638 6.32828 141.585 6.31803 141.531 6.31837C141.478 6.31863 141.425 6.32952 141.376 6.35039C141.328 6.37127 141.283 6.40171 141.247 6.43992L137.207 10.5004C137.169 10.5378 137.138 10.5825 137.118 10.6318C137.097 10.6812 137.087 10.7341 137.088 10.7875V12.9988C137.08 13.1436 137.018 13.2801 136.913 13.3802C136.808 13.4803 136.669 13.5363 136.524 13.5368H133.596C133.489 13.5381 133.387 13.5815 133.312 13.6575C133.237 13.7335 133.195 13.836 133.195 13.9428V17.4421C133.197 17.5483 133.239 17.6497 133.314 17.725C133.389 17.8003 133.49 17.8436 133.596 17.8456H136.656C136.775 17.8723 136.883 17.9373 136.962 18.0306C137.042 18.124 137.088 18.2406 137.095 18.3629V28.7081C137.095 31.1263 137.794 32.9497 139.165 34.1394C140.535 35.3291 142.369 35.9136 144.596 35.9136H149.432C149.486 35.9136 149.538 35.9031 149.588 35.8827C149.637 35.8623 149.682 35.8324 149.719 35.7947C149.757 35.757 149.787 35.7122 149.807 35.6629C149.828 35.6137 149.838 35.5609 149.838 35.5076V31.7186C149.838 31.6653 149.828 31.6125 149.807 31.5632C149.787 31.5139 149.757 31.4692 149.719 31.4315C149.682 31.3938 149.637 31.3639 149.588 31.3435C149.538 31.323 149.486 31.3125 149.432 31.3125H146.062C143.662 31.3125 142.871 30.591 142.863 30.5832C142.214 30.0116 141.95 29.2099 141.95 27.8158V18.4094C141.95 18.2612 142.008 18.119 142.112 18.0134C142.216 17.9079 142.358 17.8476 142.506 17.8456H149.45C149.558 17.8449 149.661 17.8019 149.737 17.7259C149.813 17.6499 149.856 17.547 149.856 17.4395V13.9428C149.856 13.8893 149.845 13.8363 149.824 13.787C149.803 13.7377 149.773 13.693 149.735 13.6555C149.696 13.618 149.651 13.5885 149.602 13.5685C149.552 13.5486 149.499 13.5387 149.445 13.5394ZM210.751 22.0457C211.648 22.3976 212.493 22.87 213.263 23.4501C213.993 24.0029 214.598 24.7046 215.037 25.5088C215.494 26.3861 215.722 27.3648 215.699 28.3538C215.727 29.7428 215.305 31.1037 214.496 32.2332C213.603 33.4042 212.399 34.3004 211.02 34.8196C209.528 35.4325 207.7 35.7429 205.589 35.7429C203.76 35.7809 201.94 35.4784 200.222 34.8506C198.803 34.331 197.56 33.4199 196.638 32.2229C195.828 31.1016 195.352 29.7733 195.267 28.3925C195.262 28.3254 195.271 28.2579 195.295 28.1949C195.319 28.1319 195.356 28.0748 195.404 28.0279C195.508 27.9259 195.649 27.8692 195.795 27.8701H199.832C199.953 27.8678 200.072 27.9082 200.166 27.9844C200.261 28.0605 200.326 28.1674 200.349 28.2865C200.43 28.9194 200.694 29.5152 201.107 30.0012C201.606 30.5539 202.241 30.9666 202.948 31.1987C203.782 31.4747 204.656 31.6101 205.535 31.5996C206.43 31.6163 207.321 31.4754 208.168 31.1832C208.837 30.9545 209.436 30.5583 209.908 30.0323C210.316 29.5612 210.54 28.9587 210.539 28.3356C210.549 27.8028 210.352 27.2867 209.991 26.8951C209.551 26.4567 209.022 26.1188 208.439 25.9045C207.651 25.5979 206.841 25.3498 206.016 25.1622L203.044 24.451C200.879 23.9312 199.157 23.1501 197.872 22.0664C196.586 20.9827 195.934 19.5292 195.934 17.7395C195.911 16.3368 196.367 14.9681 197.228 13.86C198.153 12.7116 199.363 11.8253 200.737 11.2892C202.326 10.6609 204.023 10.3507 205.731 10.3763C207.431 10.3434 209.12 10.654 210.697 11.2892C212.028 11.8262 213.194 12.7028 214.08 13.8316C214.819 14.8118 215.256 15.9867 215.337 17.2119C215.341 17.2654 215.334 17.3191 215.316 17.3697C215.278 17.4756 215.208 17.5669 215.115 17.6305C215.022 17.6941 214.911 17.7268 214.799 17.724H210.844C210.726 17.7273 210.61 17.6898 210.516 17.6178C210.422 17.5457 210.355 17.4435 210.327 17.3283C210.252 16.9162 210.091 16.5242 209.857 16.177C209.622 15.8298 209.318 15.535 208.964 15.311C208.126 14.7627 207.014 14.4833 205.664 14.4833C204.828 14.4653 203.996 14.6021 203.21 14.8868C202.614 15.0979 202.086 15.4639 201.679 15.9472C201.336 16.3762 201.148 16.9085 201.146 17.4576C201.135 17.8858 201.255 18.307 201.49 18.6654C201.74 19.027 202.068 19.3283 202.449 19.5473C202.891 19.8051 203.359 20.0149 203.846 20.1732C204.363 20.3416 204.887 20.484 205.418 20.6L207.87 21.169C208.853 21.3812 209.817 21.6744 210.751 22.0457ZM249.215 22.1104H239.697C239.646 22.1104 239.596 22.1205 239.549 22.1402C239.502 22.1599 239.459 22.1888 239.423 22.2251C239.387 22.2614 239.359 22.3045 239.34 22.3519C239.321 22.3992 239.311 22.4499 239.312 22.5009V26.0856C239.312 26.1878 239.353 26.2858 239.425 26.3581C239.497 26.4303 239.595 26.4709 239.697 26.4709H245.056C244.976 27.2657 244.737 28.0362 244.353 28.7365C243.858 29.6222 243.113 30.342 242.211 30.8056C241.189 31.3138 240.058 31.5651 238.916 31.5375C237.618 31.5616 236.341 31.2075 235.241 30.5185C234.144 29.7865 233.285 28.7501 232.769 27.5365C232.179 26.2433 231.879 24.9062 231.879 23.0259C231.83 21.4844 232.134 19.9522 232.769 18.5464C233.286 17.3405 234.142 16.3108 235.233 15.5825C236.302 14.9044 237.545 14.553 238.81 14.5713C239.51 14.5652 240.208 14.6619 240.879 14.8584C241.486 15.0362 242.055 15.3218 242.561 15.7015C243.053 16.0774 243.48 16.5317 243.825 17.0464C244.156 17.5496 244.417 18.095 244.601 18.668C244.617 18.7239 244.651 18.773 244.698 18.8072C244.745 18.8415 244.802 18.859 244.86 18.8568H249.094C249.134 18.8578 249.174 18.8495 249.21 18.8324C249.246 18.8153 249.278 18.79 249.303 18.7585C249.329 18.7288 249.348 18.6936 249.358 18.6555C249.369 18.6174 249.37 18.5774 249.363 18.5387C249.171 17.425 248.779 16.3551 248.206 15.3808C247.6 14.3562 246.811 13.4515 245.879 12.7117C244.911 11.9506 243.818 11.3634 242.648 10.9763C241.387 10.5627 240.066 10.3566 238.738 10.3659C237.165 10.3523 235.605 10.653 234.15 11.2504C232.753 11.8322 231.498 12.7071 230.469 13.8161C229.389 15.0015 228.561 16.3933 228.033 17.9076C227.429 19.564 227.134 21.3174 227.164 23.0803C227.164 25.7287 227.661 27.7589 228.638 29.6857C229.557 31.5425 230.991 33.0957 232.769 34.1601C234.517 35.1946 236.578 35.7325 238.896 35.7325C240.823 35.7675 242.73 35.3297 244.449 34.4575C246.037 33.6257 247.355 32.359 248.25 30.8056C249.169 29.2331 249.634 27.3425 249.634 25.1907V22.5268C249.634 22.4719 249.623 22.4175 249.602 22.3668C249.581 22.3162 249.55 22.2701 249.511 22.2314C249.472 22.1927 249.426 22.1621 249.375 22.1413C249.324 22.1206 249.27 22.1101 249.215 22.1104ZM187.508 10.6711H191.553C191.661 10.6711 191.764 10.7139 191.84 10.7901C191.916 10.8662 191.959 10.9695 191.959 11.0772V34.9593C191.959 35.0665 191.917 35.1694 191.841 35.2455C191.766 35.3215 191.663 35.3646 191.556 35.3653H187.467C187.39 35.365 187.315 35.3448 187.248 35.3067C187.181 35.2686 187.126 35.214 187.086 35.1481L174.84 18.3629V24.6812H174.814V34.9696C174.814 35.0773 174.772 35.1806 174.695 35.2567C174.619 35.3329 174.516 35.3757 174.408 35.3757H170.389C170.282 35.3757 170.178 35.3329 170.102 35.2567C170.026 35.1806 169.983 35.0773 169.983 34.9696V11.0772C169.983 10.9695 170.026 10.8662 170.102 10.7901C170.178 10.7139 170.282 10.6711 170.389 10.6711H174.786C174.862 10.6712 174.937 10.6913 175.004 10.7294C175.07 10.7675 175.125 10.8223 175.164 10.8884L187.102 27.5727V23.0234V20.5664V11.0772C187.102 10.9695 187.145 10.8662 187.221 10.7901C187.297 10.7139 187.4 10.6711 187.508 10.6711ZM274.512 10.6711H270.48C270.372 10.6711 270.269 10.7139 270.193 10.79C270.116 10.8662 270.074 10.9695 270.074 11.0772V19.7465C270.074 19.8243 270.058 19.9013 270.029 19.9731C269.999 20.045 269.955 20.1103 269.9 20.1653C269.845 20.2203 269.78 20.2639 269.708 20.2937C269.636 20.3234 269.559 20.3388 269.481 20.3388H258.373C258.295 20.3388 258.218 20.3234 258.147 20.2937C258.075 20.2639 258.009 20.2203 257.954 20.1653C257.899 20.1103 257.856 20.045 257.826 19.9731C257.796 19.9013 257.781 19.8243 257.781 19.7465V11.0772C257.781 10.9695 257.738 10.8662 257.662 10.79C257.586 10.7139 257.483 10.6711 257.375 10.6711H253.343C253.29 10.6714 253.237 10.6822 253.189 10.7028C253.14 10.7234 253.095 10.7534 253.058 10.7911C253.021 10.8288 252.992 10.8735 252.972 10.9226C252.952 10.9716 252.942 11.0242 252.942 11.0772V34.967C252.942 35.0202 252.952 35.0729 252.972 35.1222C252.992 35.1714 253.022 35.2162 253.059 35.2539C253.097 35.2917 253.141 35.3216 253.19 35.3421C253.239 35.3625 253.292 35.373 253.345 35.373H257.377C257.431 35.373 257.484 35.3625 257.533 35.3421C257.582 35.3217 257.627 35.2918 257.665 35.2541C257.702 35.2164 257.732 35.1716 257.753 35.1224C257.773 35.0731 257.783 35.0203 257.783 34.967V25.1907C257.783 25.113 257.798 25.0361 257.828 24.9642C257.857 24.8924 257.9 24.8271 257.955 24.7721C258.01 24.717 258.075 24.6734 258.147 24.6436C258.219 24.6138 258.296 24.5984 258.373 24.5984H269.494C269.572 24.5981 269.649 24.6132 269.721 24.6428C269.793 24.6725 269.859 24.7161 269.914 24.7711C269.969 24.8262 270.013 24.8916 270.042 24.9636C270.072 25.0357 270.087 25.1128 270.087 25.1907V34.967C270.087 35.0747 270.129 35.1779 270.206 35.2541C270.282 35.3302 270.385 35.373 270.493 35.373H274.525C274.632 35.373 274.736 35.3302 274.812 35.2541C274.888 35.1779 274.931 35.0747 274.931 34.967V11.0772C274.931 11.0227 274.92 10.9688 274.899 10.9187C274.877 10.8686 274.846 10.8232 274.807 10.7854C274.768 10.7475 274.722 10.7178 274.671 10.6982C274.62 10.6786 274.566 10.6694 274.512 10.6711ZM278.223 10.6841H297.879C297.986 10.6861 298.087 10.7298 298.161 10.8057C298.236 10.8817 298.278 10.9838 298.277 11.0901V14.5687C298.278 14.6196 298.268 14.6699 298.249 14.717C298.23 14.7641 298.201 14.8068 298.166 14.8429C298.13 14.879 298.087 14.9076 298.04 14.9271C297.993 14.9466 297.943 14.9567 297.892 14.9567H291.129C290.972 14.9567 290.822 15.0187 290.711 15.1292C290.6 15.2397 290.537 15.3897 290.537 15.5464L290.467 34.9696C290.466 35.0803 290.422 35.1862 290.343 35.2642C290.265 35.3422 290.158 35.386 290.048 35.386H286.044C285.936 35.386 285.833 35.3433 285.756 35.2672C285.68 35.1912 285.636 35.0879 285.636 34.98V15.5489C285.636 15.3919 285.573 15.2412 285.462 15.1301C285.351 15.0191 285.2 14.9567 285.043 14.9567H278.202C278.1 14.956 278.002 14.9148 277.93 14.8421C277.858 14.7695 277.817 14.6712 277.817 14.5687V11.0901C277.817 10.9824 277.86 10.8792 277.936 10.803C278.012 10.7269 278.115 10.6841 278.223 10.6841ZM165.186 10.6841H161.133C160.909 10.6841 160.727 10.8659 160.727 11.0901V34.98C160.727 35.2042 160.909 35.386 161.133 35.386H165.186C165.41 35.386 165.592 35.2042 165.592 34.98V11.0901C165.592 10.8659 165.41 10.6841 165.186 10.6841ZM219.418 10.6841H223.471C223.695 10.6841 223.877 10.8659 223.877 11.0901V34.98C223.877 35.2042 223.695 35.386 223.471 35.386H219.418C219.194 35.386 219.012 35.2042 219.012 34.98V11.0901C219.012 10.8659 219.194 10.6841 219.418 10.6841Z" fill="black"/>
<path fill-rule="evenodd" clip-rule="evenodd" d="M395.176 34.1213C396.413 35.1792 398.055 35.7171 400.059 35.7171L404.337 35.7145C404.454 35.7145 404.566 35.6682 404.648 35.5857C404.73 35.5033 404.777 35.3915 404.777 35.2748V31.9126C404.777 31.796 404.73 31.6842 404.648 31.6017C404.566 31.5193 404.454 31.473 404.337 31.473H401.332C399.258 31.473 398.546 30.8445 398.546 30.8445C397.998 30.3557 397.771 29.66 397.771 28.4496V20.0828C397.772 19.9739 397.815 19.8696 397.891 19.7916C397.967 19.7135 398.07 19.6678 398.179 19.6638H404.348C404.464 19.6638 404.576 19.6175 404.658 19.5351C404.741 19.4526 404.787 19.3408 404.787 19.2242V16.1206C404.787 16.004 404.741 15.8921 404.658 15.8097C404.576 15.7272 404.464 15.6809 404.348 15.6809H398.195C398.083 15.6802 397.976 15.6357 397.896 15.5568C397.817 15.478 397.772 15.3712 397.771 15.2593V9.71168C397.771 9.65362 397.76 9.59608 397.738 9.54241C397.715 9.48874 397.683 9.44002 397.642 9.39909C397.6 9.35816 397.551 9.32584 397.498 9.30402C397.444 9.2822 397.386 9.27132 397.328 9.272C397.212 9.27257 397.1 9.31904 397.018 9.40132L393.431 13.0092C393.39 13.0501 393.358 13.0985 393.336 13.1518C393.315 13.205 393.304 13.2621 393.304 13.3196V15.2826C393.299 15.3908 393.252 15.4928 393.173 15.5674C393.095 15.6421 392.991 15.6836 392.882 15.6835H390.275C390.159 15.6835 390.047 15.7298 389.964 15.8123C389.882 15.8947 389.836 16.0066 389.836 16.1232V19.2267C389.836 19.3434 389.882 19.4552 389.964 19.5376C390.047 19.6201 390.159 19.6664 390.275 19.6664H392.981C393.069 19.6863 393.149 19.7343 393.208 19.8033C393.268 19.8722 393.303 19.9585 393.309 20.0492V29.2461C393.309 31.4186 393.94 33.0635 395.176 34.1213ZM344.997 35.373C344.868 35.3724 344.745 35.3209 344.654 35.2299C344.563 35.1388 344.511 35.0156 344.511 34.8868V23.313C344.528 22.5987 344.378 21.8902 344.073 21.244C343.813 20.6942 343.399 20.2316 342.881 19.912C342.35 19.5959 341.741 19.4347 341.122 19.4465C340.344 19.4408 339.577 19.6321 338.893 20.0026C338.134 20.4413 337.485 21.0482 336.997 21.7768C336.554 22.42 336.177 23.1063 335.872 23.8251V34.8868C335.872 35.0158 335.821 35.1394 335.73 35.2306C335.639 35.3218 335.515 35.373 335.386 35.373H331.506C331.378 35.373 331.254 35.3218 331.163 35.2306C331.071 35.1394 331.02 35.0158 331.02 34.8868V9.87453C331.02 9.74558 331.071 9.6219 331.163 9.53072C331.254 9.43953 331.378 9.38831 331.506 9.38831H335.081C335.21 9.38831 335.333 9.43953 335.425 9.53072C335.516 9.6219 335.567 9.74558 335.567 9.87453V18.324L335.614 18.2025C335.743 18.0525 335.872 17.9154 336.004 17.7887C336.759 17.0452 337.655 16.4596 338.64 16.0662C339.617 15.6871 340.656 15.495 341.704 15.4998C343.064 15.4688 344.409 15.7943 345.605 16.4438C346.702 17.0598 347.593 17.9854 348.168 19.1051C348.778 20.337 349.081 21.6981 349.052 23.0725V34.8868C349.051 35.0156 349 35.1388 348.909 35.2299C348.818 35.3209 348.695 35.3724 348.566 35.373H344.997ZM492.699 10.1332H494.225C494.362 10.1332 494.473 10.2443 494.473 10.3815V11.9514C494.473 12.0885 494.362 12.1996 494.225 12.1996H492.699C492.562 12.1996 492.45 12.0885 492.45 11.9514V10.3815C492.45 10.2443 492.562 10.1332 492.699 10.1332ZM492.704 13.0402H494.225C494.362 13.0402 494.473 13.1513 494.473 13.2884V21.6759C494.473 21.813 494.362 21.9242 494.225 21.9242H492.704C492.567 21.9242 492.456 21.813 492.456 21.6759V13.2884C492.456 13.1513 492.567 13.0402 492.704 13.0402ZM328.349 26.8745H324.322C324.204 26.8751 324.091 26.9168 324.001 26.9924C323.911 27.068 323.851 27.1727 323.83 27.2883C323.685 28.0959 323.364 28.8615 322.889 29.5306C322.359 30.2582 321.645 30.8314 320.82 31.191C319.889 31.5876 318.885 31.7832 317.874 31.7652C316.676 31.8006 315.501 31.4367 314.532 30.7307C313.457 29.9805 312.623 28.9336 312.132 27.7176C311.534 26.2402 311.243 24.656 311.279 23.0622C311.244 21.4669 311.541 19.8816 312.151 18.4069C312.658 17.1821 313.517 16.1347 314.618 15.3964C315.62 14.6913 316.823 14.3285 318.047 14.3619C318.995 14.3481 319.936 14.5377 320.804 14.9179C321.588 15.2619 322.264 15.8104 322.762 16.5059C323.204 17.1376 323.507 17.8562 323.649 18.6138C323.673 18.728 323.735 18.8308 323.825 18.9054C323.914 18.9801 324.027 19.0222 324.143 19.025H328.209C328.28 19.0247 328.35 19.0093 328.415 18.9799C328.479 18.9505 328.537 18.9077 328.584 18.8543C328.631 18.7988 328.666 18.734 328.687 18.664C328.707 18.594 328.713 18.5205 328.703 18.4482C328.516 16.9866 327.97 15.5941 327.112 14.3955C326.151 13.0915 324.859 12.0675 323.37 11.429C321.688 10.7149 319.874 10.3625 318.047 10.3945C315.627 10.3945 313.493 10.9117 311.706 11.9462C309.914 12.981 308.463 14.5174 307.534 16.3663C306.554 18.2646 306.057 20.5251 306.057 23.0907C306.057 25.6563 306.543 27.909 307.498 29.8151C308.401 31.6605 309.829 33.1982 311.602 34.2351C313.363 35.2697 315.482 35.7869 317.874 35.7869C319.747 35.8213 321.607 35.4627 323.334 34.7343C324.864 34.0626 326.188 32.9959 327.169 31.6436C328.061 30.4058 328.635 28.9679 328.84 27.4564C328.852 27.385 328.848 27.3119 328.828 27.2422C328.809 27.1725 328.775 27.1078 328.728 27.0525C328.681 26.9972 328.623 26.9527 328.558 26.922C328.492 26.8912 328.421 26.875 328.349 26.8745ZM431.054 26.8744H435.081L435.078 26.9055C435.151 26.906 435.222 26.9222 435.288 26.953C435.353 26.9837 435.411 27.0282 435.458 27.0835C435.504 27.1388 435.539 27.2035 435.558 27.2732C435.577 27.3429 435.581 27.416 435.57 27.4874C435.364 28.9989 434.79 30.4368 433.899 31.6746C432.912 33.0062 431.59 34.0536 430.069 34.711C428.342 35.4394 426.482 35.798 424.609 35.7636C422.217 35.7636 420.098 35.2463 418.337 34.2118C416.563 33.1749 415.136 31.6372 414.233 29.7918C413.278 27.8857 412.792 25.633 412.792 23.0674C412.792 20.5017 413.289 18.2413 414.269 16.3429C415.198 14.4941 416.648 12.9577 418.441 11.9229C420.228 10.8884 422.361 10.3711 424.782 10.3711C426.609 10.3392 428.423 10.6916 430.105 11.4057C431.596 12.051 432.887 13.0833 433.845 14.3955C434.702 15.5941 435.248 16.9865 435.435 18.4482C435.445 18.5205 435.44 18.594 435.419 18.664C435.399 18.7339 435.364 18.7988 435.316 18.8543C435.269 18.9076 435.212 18.9505 435.147 18.9799C435.082 19.0093 435.012 19.0247 434.941 19.025H430.876C430.759 19.0222 430.647 18.98 430.557 18.9054C430.467 18.8307 430.405 18.7279 430.382 18.6137C430.239 17.8561 429.936 17.1376 429.494 16.5059C428.996 15.8104 428.32 15.2618 427.537 14.9179C426.668 14.5377 425.728 14.3481 424.78 14.3618C423.555 14.3285 422.352 14.6913 421.35 15.3964C420.249 16.1347 419.39 17.182 418.883 18.4068C418.273 19.8816 417.976 21.4668 418.011 23.0622C417.976 24.6559 418.266 26.2401 418.865 27.7176C419.355 28.9336 420.189 29.9805 421.265 30.7306C422.233 31.4367 423.409 31.8006 424.606 31.7652C425.618 31.7832 426.622 31.5876 427.552 31.191C428.377 30.8313 429.091 30.2582 429.621 29.5306C430.096 28.8615 430.418 28.0959 430.563 27.2882C430.583 27.1727 430.644 27.068 430.733 26.9924C430.823 26.9168 430.937 26.875 431.054 26.8744ZM380.272 35.717C378.763 35.7504 377.261 35.4968 375.846 34.9696C374.706 34.5372 373.704 33.8033 372.947 32.8462C372.403 32.1282 372.022 31.3004 371.83 30.4202C371.812 30.3409 371.812 30.2585 371.831 30.1792C371.849 30.1 371.885 30.0259 371.936 29.9625C371.987 29.8972 372.053 29.8445 372.128 29.8082C372.203 29.7719 372.285 29.753 372.368 29.753H376.247C376.362 29.753 376.473 29.789 376.566 29.8558C376.659 29.9226 376.728 30.0169 376.765 30.1254C376.944 30.6858 377.309 31.1685 377.799 31.4936C378.42 31.9099 379.25 32.1194 380.269 32.1194C380.861 32.1315 381.451 32.0441 382.015 31.8608C382.477 31.713 382.892 31.4453 383.217 31.0849C383.508 30.7483 383.665 30.3165 383.657 29.8719C383.661 29.5972 383.599 29.3255 383.476 29.0798C383.353 28.834 383.173 28.6214 382.951 28.4598C382.498 28.1106 381.818 27.8391 380.882 27.6322L377.667 26.983C375.857 26.6183 374.471 25.9485 373.558 25.0226C373.105 24.5551 372.752 24.0009 372.52 23.3932C372.287 22.7856 372.18 22.1372 372.205 21.4871C372.172 20.3411 372.51 19.2151 373.17 18.2775C373.879 17.3257 374.844 16.5954 375.952 16.1722C377.312 15.6539 378.758 15.4027 380.212 15.4325C381.639 15.4022 383.058 15.6518 384.389 16.167C385.487 16.5896 386.443 17.313 387.149 18.2542C387.659 18.9627 388.006 19.7752 388.165 20.6336C388.18 20.7129 388.177 20.7945 388.157 20.8726C388.136 20.9507 388.099 21.0233 388.048 21.0853C387.996 21.1473 387.931 21.1972 387.858 21.2313C387.785 21.2654 387.705 21.283 387.625 21.2828H384.043C383.929 21.2842 383.818 21.2501 383.726 21.1851C383.633 21.1201 383.563 21.0276 383.525 20.9207C383.345 20.3996 383.007 19.9476 382.558 19.6275C381.891 19.173 381.096 18.9446 380.29 18.9758C379.744 18.966 379.201 19.0536 378.686 19.2344C378.241 19.3893 377.844 19.6566 377.533 20.0103C377.248 20.3331 377.094 20.7513 377.103 21.1819C377.101 21.4399 377.157 21.6951 377.27 21.9276C377.382 22.16 377.546 22.3633 377.75 22.5216C378.169 22.8811 378.818 23.1553 379.734 23.3648L383.241 24.0941C385.08 24.482 386.463 25.1286 387.356 25.9718C388.248 26.8149 388.685 27.9477 388.693 29.334C388.703 30.5233 388.335 31.6852 387.643 32.6522C386.889 33.659 385.871 34.437 384.702 34.8997C383.294 35.4647 381.788 35.7425 380.272 35.717ZM351.116 25.6304C351.116 31.5789 355.254 35.717 361.179 35.717C364.412 35.717 367.102 34.5661 369.143 32.2747C369.176 32.2363 369.202 32.1916 369.219 32.1432C369.235 32.0949 369.242 32.0437 369.238 31.9927C369.234 31.9429 369.22 31.8943 369.197 31.8499C369.174 31.8055 369.142 31.7662 369.104 31.7341L366.859 29.7944C366.787 29.7326 366.695 29.6995 366.6 29.7013C366.504 29.7028 366.412 29.7396 366.342 29.8047C364.736 31.2712 363.212 31.8971 361.249 31.8971C358.399 31.8971 356.283 30.1875 355.727 27.4357C355.722 27.4112 355.723 27.3858 355.729 27.3616C355.735 27.3374 355.747 27.3149 355.764 27.296C355.78 27.2747 355.801 27.2576 355.825 27.2459C355.85 27.2342 355.876 27.2283 355.903 27.2287H369.815C369.913 27.2284 370.007 27.1913 370.079 27.1247C370.151 27.0581 370.195 26.9669 370.203 26.8692C370.231 26.5175 370.255 26.202 370.255 25.8839C370.255 20.6854 367.257 15.4403 360.685 15.4403C354.114 15.4403 351.116 20.6854 351.116 25.558V25.6304ZM355.774 23.7631C356.286 20.8871 358.19 19.1077 360.737 19.1077C363.362 19.1077 365.188 20.8457 365.605 23.7683C365.608 23.7927 365.607 23.8178 365.599 23.8415C365.592 23.8652 365.58 23.887 365.563 23.9053C365.546 23.9255 365.526 23.9418 365.502 23.9529C365.478 23.9641 365.452 23.9699 365.426 23.97H355.952C355.925 23.9704 355.899 23.9645 355.875 23.9528C355.85 23.9412 355.829 23.924 355.813 23.9027C355.796 23.8841 355.783 23.8618 355.777 23.8375C355.77 23.8133 355.769 23.7878 355.774 23.7631ZM457.002 10.6841H437.346C437.239 10.6841 437.136 10.7269 437.059 10.803C436.983 10.8792 436.94 10.9824 436.94 11.0901V14.5687C436.94 14.6712 436.981 14.7695 437.053 14.8421C437.125 14.9148 437.223 14.956 437.326 14.9567H444.164C444.242 14.9563 444.319 14.9714 444.391 15.0011C444.463 15.0307 444.528 15.0743 444.584 15.1294C444.639 15.1845 444.682 15.2499 444.712 15.3219C444.742 15.3939 444.757 15.4711 444.756 15.5489V34.98C444.756 35.0876 444.799 35.1909 444.875 35.2671C444.951 35.3432 445.055 35.386 445.162 35.386H449.169C449.279 35.386 449.385 35.3421 449.463 35.264C449.541 35.186 449.585 35.08 449.585 34.9696L449.657 15.5464C449.658 15.3897 449.721 15.2397 449.832 15.1292C449.943 15.0187 450.093 14.9567 450.25 14.9567H457.013C457.115 14.956 457.213 14.9148 457.285 14.8421C457.358 14.7695 457.398 14.6712 457.398 14.5687V11.0901C457.398 10.9842 457.357 10.8825 457.283 10.8066C457.209 10.7307 457.108 10.6868 457.002 10.6841ZM464.252 21.907C464.276 21.917 464.303 21.9219 464.33 21.9216H468.861C469.581 21.9366 470.298 21.8055 470.966 21.5362C471.527 21.3096 472.009 20.9229 472.352 20.4241C472.679 19.9204 472.848 19.3304 472.836 18.7301C472.835 18.323 472.747 17.9208 472.577 17.5507C472.411 17.1886 472.165 16.8685 471.858 16.6145C471.613 16.4133 471.336 16.2534 471.038 16.1412C471.024 16.1367 471.012 16.1278 471.003 16.1157C470.994 16.1036 470.989 16.0889 470.989 16.0739C470.988 16.0588 470.992 16.0436 471 16.0306C471.007 16.0176 471.019 16.0074 471.033 16.0015C471.274 15.892 471.495 15.7454 471.69 15.567C472.164 15.1292 472.461 14.5331 472.525 13.8913C472.589 13.2495 472.417 12.6064 472.039 12.0832C471.687 11.622 471.212 11.2696 470.669 11.0668C470 10.8197 469.291 10.7004 468.579 10.7151H464.33C464.303 10.7147 464.276 10.7197 464.252 10.7297C464.227 10.7397 464.204 10.7545 464.185 10.7732C464.166 10.792 464.151 10.8144 464.141 10.839C464.131 10.8636 464.125 10.8901 464.125 10.9168V21.7199C464.125 21.7466 464.131 21.773 464.141 21.7977C464.151 21.8223 464.166 21.8447 464.185 21.8634C464.204 21.8822 464.227 21.897 464.252 21.907ZM466.239 17.1405C466.266 17.1134 466.303 17.0981 466.342 17.0981H468.693C469.054 17.0899 469.414 17.1541 469.75 17.2869C470.024 17.3993 470.26 17.5878 470.431 17.83C470.595 18.0713 470.68 18.3579 470.674 18.6499C470.681 18.9368 470.601 19.2191 470.444 19.4597C470.288 19.7002 470.062 19.8877 469.797 19.9974C469.483 20.1285 469.144 20.1928 468.804 20.1862H466.342C466.304 20.1862 466.267 20.1713 466.24 20.1447C466.213 20.1181 466.198 20.0819 466.197 20.0439V17.2429C466.197 17.2045 466.212 17.1677 466.239 17.1405ZM466.239 12.4852C466.266 12.458 466.303 12.4427 466.342 12.4427L468.579 12.4479C468.915 12.4406 469.248 12.5023 469.559 12.6289C469.81 12.7357 470.026 12.9093 470.185 13.1307C470.333 13.3552 470.409 13.6196 470.402 13.8885C470.408 14.1629 470.333 14.433 470.185 14.6644C470.031 14.8936 469.813 15.0733 469.559 15.1816C469.248 15.3086 468.915 15.3702 468.579 15.3627H466.342C466.304 15.3627 466.267 15.3478 466.24 15.3212C466.213 15.2946 466.198 15.2584 466.197 15.2204V12.5876C466.197 12.5492 466.212 12.5123 466.239 12.4852ZM500.248 22.082C499.432 22.101 498.624 21.9104 497.902 21.5286C497.244 21.1647 496.711 20.6114 496.371 19.9406C496.008 19.1857 495.831 18.3547 495.854 17.5172C495.834 16.6786 496.019 15.8478 496.392 15.0964C496.739 14.4238 497.279 13.8706 497.944 13.5084C498.669 13.1272 499.479 12.9367 500.297 12.9549C500.994 12.9425 501.685 13.0774 502.325 13.3506C502.892 13.5949 503.38 13.9904 503.737 14.4938C504.064 14.9678 504.262 15.5186 504.311 16.0921C504.314 16.1168 504.311 16.1416 504.304 16.1652C504.296 16.1888 504.284 16.2106 504.267 16.2292C504.25 16.2477 504.229 16.2626 504.206 16.2728C504.183 16.283 504.158 16.2884 504.133 16.2887H502.522C502.481 16.2888 502.441 16.2747 502.409 16.2488C502.378 16.2228 502.356 16.1866 502.348 16.1464C502.287 15.8616 502.168 15.5923 501.999 15.355C501.813 15.1023 501.564 14.9019 501.278 14.7731C500.904 14.6168 500.499 14.5495 500.095 14.5764C499.692 14.6034 499.299 14.7238 498.95 14.9283C498.565 15.1811 498.262 15.5406 498.078 15.9628C497.86 16.4559 497.753 16.991 497.765 17.5301C497.754 18.0725 497.858 18.6112 498.071 19.1104C498.251 19.5292 498.547 19.8879 498.924 20.1449C499.317 20.3936 499.775 20.5205 500.241 20.5096C500.579 20.5124 500.913 20.4409 501.221 20.3001C501.513 20.1637 501.773 19.9651 501.981 19.7181C502.168 19.4898 502.306 19.2258 502.387 18.9423C502.397 18.9051 502.419 18.8721 502.449 18.8484C502.48 18.8246 502.517 18.8113 502.555 18.8104H504.143C504.17 18.81 504.196 18.8154 504.22 18.8262C504.244 18.837 504.265 18.853 504.282 18.8731C504.299 18.8931 504.311 18.9166 504.318 18.942C504.325 18.9674 504.326 18.9939 504.322 19.0198C504.231 19.5772 504.009 20.1049 503.673 20.5587C503.298 21.0518 502.803 21.4402 502.235 21.6863C501.608 21.9568 500.931 22.0916 500.248 22.082ZM485.351 21.7458C485.987 21.9824 486.662 22.0965 487.34 22.082C488.021 22.0978 488.698 21.9764 489.332 21.7251C489.856 21.5103 490.31 21.1539 490.643 20.6957C490.954 20.2598 491.12 19.7366 491.116 19.2008C491.126 18.9203 491.077 18.6409 490.973 18.38C490.87 18.1192 490.713 17.8827 490.513 17.6852C489.985 17.2393 489.345 16.9468 488.662 16.8395L487.087 16.5111C486.765 16.4568 486.461 16.3274 486.199 16.1335C486.109 16.0628 486.035 15.9721 485.985 15.8685C485.935 15.7649 485.909 15.6511 485.91 15.536C485.908 15.346 485.976 15.1619 486.101 15.0187C486.241 14.8606 486.419 14.7413 486.618 14.6722C486.849 14.5906 487.093 14.5503 487.337 14.5532C487.698 14.5397 488.053 14.6421 488.351 14.8455C488.559 14.994 488.713 15.2053 488.791 15.4481C488.803 15.4896 488.829 15.5262 488.863 15.5526C488.897 15.5791 488.939 15.5941 488.982 15.5955H490.687C490.716 15.595 490.745 15.5883 490.772 15.5759C490.799 15.5634 490.823 15.5454 490.842 15.5231C490.861 15.5019 490.875 15.4766 490.882 15.4493C490.89 15.4219 490.891 15.3932 490.886 15.3653C490.821 14.9531 490.66 14.5618 490.418 14.2222C490.099 13.7999 489.669 13.4748 489.176 13.2833C488.577 13.0511 487.938 12.9386 487.296 12.9523C486.643 12.9391 485.993 13.0515 485.382 13.2833C484.883 13.4755 484.448 13.8045 484.128 14.2325C483.832 14.6563 483.679 15.164 483.693 15.6808C483.683 15.9738 483.731 16.2659 483.836 16.5397C483.941 16.8135 484.1 17.0632 484.304 17.274C484.818 17.7466 485.462 18.0546 486.153 18.1585L487.596 18.4508C487.929 18.5058 488.247 18.632 488.527 18.8206C488.625 18.8937 488.705 18.9889 488.759 19.0986C488.814 19.2083 488.841 19.3293 488.84 19.4517C488.844 19.6501 488.774 19.8428 488.644 19.9922C488.499 20.1524 488.314 20.2711 488.108 20.3362C487.858 20.4171 487.596 20.4564 487.332 20.4526C486.945 20.471 486.56 20.3738 486.228 20.1733C486.005 20.0221 485.843 19.798 485.768 19.5396C485.755 19.4977 485.729 19.4608 485.695 19.4343C485.66 19.4079 485.617 19.3931 485.574 19.3922H483.722C483.692 19.3927 483.663 19.3996 483.636 19.4125C483.609 19.4255 483.585 19.4442 483.567 19.4672C483.548 19.4888 483.534 19.5146 483.527 19.5425C483.52 19.5703 483.519 19.5995 483.525 19.6276C483.607 20.0499 483.784 20.448 484.042 20.7914C484.384 21.2221 484.837 21.5519 485.351 21.7458ZM479.828 21.0506C479.888 20.9922 479.946 20.9316 480.003 20.869L480.016 20.8403L480.023 20.8231V20.8172L480 20.8716C479.945 20.9332 479.887 20.993 479.828 21.0506ZM482.085 21.7018C482.085 21.7587 482.062 21.8133 482.022 21.8536C481.981 21.8938 481.927 21.9164 481.87 21.9164H480.23C480.173 21.9164 480.119 21.8938 480.078 21.8536C480.038 21.8133 480.016 21.7587 480.016 21.7018V20.8716C479.648 21.2818 479.195 21.606 478.688 21.821C478.181 22.036 477.633 22.1366 477.083 22.1156C476.803 22.1156 476.524 22.0887 476.25 22.0354C474.768 21.7431 473.847 20.719 473.847 19.3637C473.847 17.5171 475.22 16.4593 477.618 16.4593C478.09 16.4577 478.562 16.4966 479.028 16.5757C479.315 16.6248 479.979 16.7464 480.041 16.7593C480.041 16.4821 480.007 16.206 479.941 15.9369C479.682 15.1403 478.953 14.7187 477.807 14.7187C477.485 14.7176 477.165 14.7426 476.847 14.7937C476.435 14.8604 476.029 14.965 475.636 15.1063C476.03 14.9633 476.436 14.8577 476.85 14.7911C477.125 14.747 477.403 14.7223 477.681 14.7171C477.402 14.7221 477.123 14.746 476.847 14.7885C476.353 14.8694 475.869 15.0047 475.404 15.192C475.378 15.2027 475.349 15.2078 475.321 15.2072C475.319 15.2071 475.316 15.207 475.314 15.2069C475.32 15.2074 475.326 15.2076 475.332 15.2075C475.353 15.2073 475.374 15.2042 475.395 15.1983C475.373 15.2064 475.35 15.2104 475.327 15.2101C475.282 15.2106 475.238 15.1971 475.202 15.1716C475.165 15.1461 475.137 15.1099 475.122 15.0679L474.698 13.8394C474.683 13.7891 474.687 13.7353 474.709 13.6878C474.722 13.6604 474.74 13.6361 474.762 13.6163C474.779 13.6007 474.798 13.5878 474.82 13.5781C475.249 13.3928 475.695 13.2456 476.15 13.1382C476.223 13.1209 476.296 13.1046 476.369 13.0893C476.441 13.0753 476.512 13.0622 476.584 13.05C477.077 12.9655 477.575 12.925 478.075 12.929C478.08 12.929 478.085 12.929 478.09 12.929C479.41 12.9314 480.448 13.274 481.096 13.9185C481.096 13.9189 481.096 13.9192 481.097 13.9195C481.504 14.3071 481.785 14.8127 481.94 15.4299C482.032 15.787 482.081 16.1811 482.084 16.6141C482.084 16.6339 482.085 16.6539 482.085 16.674L482.085 21.7018ZM475.395 15.1983C475.398 15.1971 475.401 15.1959 475.404 15.1946C475.481 15.1637 475.558 15.1343 475.636 15.1063C475.559 15.1343 475.483 15.1637 475.407 15.1946C475.403 15.1959 475.399 15.1972 475.395 15.1983ZM478.029 17.7835C477.614 17.7835 477.252 17.8371 476.95 17.9386C476.288 18.1613 475.916 18.6146 475.916 19.2396C475.916 20.0646 476.604 20.5974 477.67 20.5974C478.735 20.5974 479.628 20.1241 479.946 19.3611C480.021 19.1832 480.063 18.993 480.07 18.7999V18.7197V18.1378L479.959 18.0939C479.336 17.8888 478.685 17.7857 478.029 17.7887L478.029 17.7835Z" fill="#00C9EA"/>
</g>
<defs>
<clipPath id="clip0_9065_96245">
<rect width="505" height="40" fill="white"/>
</clipPath>
</defs>
</svg>
