<svg width="281" height="40" viewBox="0 0 281 40" fill="none" xmlns="http://www.w3.org/2000/svg">
<g clip-path="url(#clip0_9065_87462)">
<path d="M20 0C16.0444 0 12.1776 1.17298 8.8886 3.37061C5.59962 5.56824 3.03617 8.69181 1.52242 12.3463C0.0086657 16.0009 -0.387401 20.0222 0.384303 23.9018C1.15601 27.7814 3.06082 31.3451 5.85787 34.1421C8.65492 36.9392 12.2186 38.844 16.0982 39.6157C19.9778 40.3874 23.9992 39.9913 27.6537 38.4776C31.3082 36.9638 34.4318 34.4004 36.6294 31.1114C38.827 27.8224 40 23.9556 40 20C40 14.6957 37.8929 9.60859 34.1421 5.85786C30.3914 2.10714 25.3043 0 20 0ZM26.0106 18.6629C24.0815 18.6864 22.238 19.4631 20.8739 20.8273C19.5097 22.1915 18.7329 24.035 18.7094 25.964C18.7094 25.9951 18.7094 26.0261 18.7094 26.0572C18.7099 26.9914 18.4333 27.9048 17.9146 28.6819C17.3959 29.4589 16.6583 30.0646 15.7953 30.4224C14.9322 30.7801 13.9825 30.8739 13.0661 30.6917C12.1498 30.5096 11.308 30.0598 10.6474 29.3991C9.9868 28.7385 9.53696 27.8968 9.35482 26.9804C9.17268 26.0641 9.26642 25.1143 9.62418 24.2513C9.98195 23.3882 10.5877 22.6507 11.3647 22.132C12.1417 21.6132 13.0551 21.3366 13.9894 21.3371C14.9529 21.3368 15.9068 21.1459 16.7962 20.7753C17.6856 20.4047 18.4929 19.8618 19.1716 19.1778C19.8502 18.4939 20.3869 17.6824 20.7505 16.7902C21.1142 15.8979 21.2977 14.9425 21.2906 13.979C21.292 13.967 21.292 13.9549 21.2906 13.9428C21.2906 13.0093 21.5674 12.0967 22.0861 11.3205C22.6047 10.5443 23.3419 9.93935 24.2043 9.5821C25.0668 9.22485 26.0159 9.13138 26.9314 9.31351C27.847 9.49563 28.6881 9.94517 29.3482 10.6053C30.0083 11.2654 30.4578 12.1064 30.6399 13.022C30.8221 13.9376 30.7286 14.8866 30.3714 15.7491C30.0141 16.6116 29.4091 17.3488 28.6329 17.8674C27.8567 18.386 26.9441 18.6629 26.0106 18.6629Z" fill="#00C9EA"/>
<path fill-rule="evenodd" clip-rule="evenodd" d="M72.4033 30.4701H57.9613C57.4831 30.4641 57.0261 30.2714 56.6879 29.9332C56.3496 29.595 56.157 29.138 56.1509 28.6597V3.90605C56.1509 3.79836 56.1081 3.69508 56.032 3.61893C55.9558 3.54278 55.8526 3.5 55.7449 3.5H51.2861C51.1784 3.5 51.0751 3.54278 50.9989 3.61893C50.9228 3.69508 50.88 3.79836 50.88 3.90605V30.1055C50.8821 31.4897 51.4329 32.8167 52.4117 33.7955C53.3905 34.7744 54.7175 35.3252 56.1018 35.3272H72.3956C72.5028 35.3265 72.6054 35.2835 72.681 35.2074C72.7566 35.1313 72.7991 35.0284 72.7991 34.9212V30.8788C72.8004 30.7722 72.7596 30.6694 72.6855 30.5928C72.6113 30.5163 72.5099 30.4722 72.4033 30.4701ZM125.338 5.72412H129.424C129.648 5.72412 129.83 5.90592 129.83 6.13017V10.2166C129.83 10.4408 129.648 10.6226 129.424 10.6226H125.338C125.113 10.6226 124.932 10.4408 124.932 10.2166V6.13017C124.932 5.90592 125.113 5.72412 125.338 5.72412ZM91.6765 13.4912H95.7629C95.8165 13.4909 95.8695 13.5011 95.9191 13.5214C95.9687 13.5416 96.0137 13.5715 96.0517 13.6092C96.0897 13.647 96.1198 13.6918 96.1404 13.7413C96.161 13.7907 96.1716 13.8437 96.1716 13.8973V34.9215C96.1716 35.0291 96.1288 35.1324 96.0526 35.2086C95.9765 35.2847 95.8732 35.3275 95.7655 35.3275H92.2222C92.1148 35.3268 92.0119 35.2838 91.9359 35.2078C91.8599 35.1318 91.8169 35.0289 91.8162 34.9215V32.3662C90.9225 33.4138 89.8276 34.2714 88.5962 34.8878C87.2529 35.5792 85.7619 35.9342 84.2512 35.9224C81.4451 35.9224 79.2156 35.0973 77.6302 33.4628C76.0448 31.8282 75.2405 29.6531 75.2405 26.997V13.8973C75.2405 13.7896 75.2833 13.6863 75.3594 13.6101C75.4356 13.534 75.5388 13.4912 75.6465 13.4912H79.7355C79.7887 13.4912 79.8414 13.5017 79.8905 13.5222C79.9396 13.5426 79.9842 13.5726 80.0217 13.6103C80.0592 13.648 80.0889 13.6928 80.109 13.7421C80.1291 13.7913 80.1393 13.8441 80.139 13.8973V26.3582C80.139 28.1013 80.5812 29.41 81.4502 30.2713C82.3192 31.1325 83.5995 31.5644 85.2521 31.5644C86.4764 31.5771 87.6754 31.2162 88.6893 30.5299C89.4371 30.0238 90.1093 29.4143 90.686 28.7195C91.0701 28.25 91.277 27.6604 91.2705 27.0539V13.8973C91.2705 13.7896 91.3133 13.6863 91.3894 13.6101C91.4656 13.534 91.5688 13.4912 91.6765 13.4912ZM116.759 14.037C115.314 13.2571 113.691 12.865 112.049 12.899C110.539 12.889 109.048 13.2439 107.704 13.9335C106.476 14.5499 105.383 15.4055 104.489 16.45V13.8947C104.489 13.7875 104.446 13.6849 104.369 13.6093C104.293 13.5337 104.19 13.4913 104.083 13.4913H100.491C100.385 13.4926 100.283 13.5357 100.209 13.6113C100.134 13.6868 100.093 13.7886 100.093 13.8947V34.9215C100.093 35.0288 100.135 35.1316 100.211 35.2077C100.286 35.2838 100.389 35.3269 100.496 35.3276H104.585C104.693 35.3276 104.796 35.2848 104.872 35.2086C104.948 35.1325 104.991 35.0292 104.991 34.9215V21.7882C104.993 21.1389 105.23 20.5124 105.658 20.0243C106.234 19.3664 106.892 18.7857 107.616 18.2967C108.63 17.6093 109.831 17.2483 111.056 17.2621C112.556 17.2621 113.787 17.7096 114.718 18.5967C115.649 19.4838 116.128 20.7744 116.128 22.4529V34.9189C116.128 35.0264 116.171 35.1293 116.247 35.2053C116.323 35.2813 116.426 35.3243 116.534 35.325H120.623C120.73 35.3243 120.833 35.2812 120.908 35.2051C120.984 35.1291 121.026 35.0262 121.026 34.9189V21.8192C121.053 20.2106 120.67 18.6217 119.911 17.2026C119.182 15.87 118.088 14.7722 116.759 14.037ZM125.338 13.4912H129.424C129.648 13.4912 129.83 13.673 129.83 13.8973V34.9214C129.83 35.1457 129.648 35.3275 129.424 35.3275H125.338C125.113 35.3275 124.932 35.1457 124.932 34.9214V13.8973C124.932 13.673 125.113 13.4912 125.338 13.4912ZM149.452 17.7972H142.508C142.36 17.7985 142.218 17.8586 142.114 17.9643C142.01 18.07 141.951 18.2126 141.952 18.361V27.7674C141.952 29.1615 142.216 29.9632 142.865 30.5348C142.873 30.5426 143.664 31.2641 146.064 31.2641H149.434C149.488 31.2641 149.54 31.2746 149.59 31.295C149.639 31.3155 149.684 31.3454 149.721 31.3831C149.759 31.4208 149.789 31.4655 149.809 31.5148C149.83 31.5641 149.84 31.6169 149.84 31.6702V35.4591C149.84 35.5125 149.83 35.5653 149.809 35.6145C149.789 35.6638 149.759 35.7086 149.721 35.7463C149.684 35.784 149.639 35.8139 149.59 35.8343C149.54 35.8547 149.488 35.8652 149.434 35.8652H144.598C142.374 35.8652 140.537 35.2807 139.167 34.091C137.796 32.9013 137.098 31.0779 137.098 28.6597V18.3144C137.09 18.1922 137.044 18.0755 136.964 17.9822C136.885 17.8889 136.777 17.8239 136.658 17.7972H133.598C133.492 17.7952 133.391 17.7519 133.316 17.6766C133.241 17.6013 133.199 17.4999 133.197 17.3937V13.8944C133.197 13.7876 133.239 13.6851 133.314 13.6091C133.39 13.5331 133.491 13.4897 133.598 13.4884H136.526C136.671 13.4879 136.81 13.4318 136.915 13.3318C137.02 13.2317 137.083 13.0952 137.09 12.9504V10.7391C137.089 10.6857 137.099 10.6327 137.12 10.5834C137.14 10.5341 137.171 10.4894 137.209 10.452L141.246 6.39152C141.302 6.33401 141.375 6.29462 141.454 6.27836C141.533 6.26211 141.615 6.26972 141.689 6.30023C141.764 6.33074 141.828 6.38277 141.873 6.44969C141.918 6.51662 141.942 6.5954 141.942 6.67601V12.9246C141.942 13.0746 142.002 13.2182 142.108 13.3243C142.214 13.4304 142.358 13.4903 142.508 13.491H149.452C149.56 13.491 149.663 13.5334 149.739 13.609C149.815 13.6846 149.858 13.7872 149.858 13.8944V17.3911C149.858 17.4986 149.815 17.6015 149.739 17.6775C149.663 17.7535 149.56 17.7965 149.452 17.7972ZM248.702 31.3599H238.414C238.257 31.3599 238.106 31.2975 237.995 31.1864C237.884 31.0753 237.822 30.9247 237.822 30.7676V25.3234C237.822 25.2456 237.837 25.1686 237.867 25.0967C237.897 25.0249 237.94 24.9596 237.995 24.9046C238.05 24.8496 238.115 24.806 238.187 24.7762C238.259 24.7464 238.336 24.7311 238.414 24.7311H248.071C248.182 24.7311 248.288 24.6873 248.366 24.6092C248.444 24.5311 248.488 24.4252 248.488 24.3147V21.1775C248.488 21.0671 248.444 20.9612 248.366 20.8831C248.288 20.805 248.182 20.7611 248.071 20.7611H238.414C238.257 20.7604 238.107 20.6978 237.996 20.5869C237.885 20.476 237.822 20.3257 237.822 20.1689V15.1902C237.822 15.0333 237.885 14.8831 237.996 14.7722C238.107 14.6612 238.257 14.5986 238.414 14.5979H248.692C248.747 14.5979 248.802 14.587 248.853 14.5657C248.903 14.5445 248.95 14.5134 248.988 14.4741C249.027 14.4349 249.058 14.3884 249.078 14.3373C249.099 14.2862 249.109 14.2315 249.108 14.1764V11.0443C249.108 10.9339 249.065 10.828 248.986 10.7499C248.908 10.6718 248.802 10.6279 248.692 10.6279H233.05C232.94 10.6279 232.834 10.6718 232.756 10.7499C232.677 10.828 232.634 10.9339 232.634 11.0443V34.9135C232.634 35.0239 232.677 35.1298 232.756 35.2079C232.834 35.286 232.94 35.3299 233.05 35.3299H248.702C248.813 35.3299 248.919 35.286 248.997 35.2079C249.075 35.1298 249.119 35.0239 249.119 34.9135V31.7763C249.119 31.6658 249.075 31.5599 248.997 31.4818C248.919 31.4037 248.813 31.3599 248.702 31.3599ZM197.927 10.7559C198.039 10.8341 198.124 10.9447 198.171 11.0728L206.734 34.6497C206.766 34.7333 206.774 34.8239 206.758 34.9119C206.742 34.9998 206.703 35.0818 206.644 35.1489C206.592 35.2054 206.529 35.2502 206.458 35.2801C206.388 35.31 206.312 35.3243 206.235 35.3221H202.374C202.271 35.3219 202.17 35.29 202.086 35.2308C202.002 35.1716 201.938 35.0879 201.903 34.9911L199.906 29.6219C199.875 29.5372 199.819 29.464 199.745 29.4122C199.671 29.3604 199.583 29.3325 199.493 29.3322H190.44C190.35 29.3321 190.262 29.3599 190.188 29.4117C190.114 29.4635 190.057 29.5369 190.027 29.6219L188.077 35.0532C188.047 35.1341 187.994 35.204 187.924 35.2535C187.853 35.303 187.769 35.3297 187.683 35.3299H183.9C183.823 35.3321 183.747 35.3178 183.676 35.2878C183.606 35.2579 183.543 35.2132 183.491 35.1566C183.432 35.0895 183.392 35.0077 183.376 34.9198C183.359 34.832 183.367 34.7413 183.398 34.6575L191.873 11.0728C191.921 10.9447 192.007 10.8342 192.119 10.7561C192.232 10.678 192.365 10.636 192.502 10.6357H197.545C197.682 10.6358 197.815 10.6778 197.927 10.7559ZM195.181 16.6285C195.116 16.5819 195.038 16.5574 194.959 16.5584C194.88 16.5586 194.803 16.5841 194.739 16.6311C194.675 16.678 194.628 16.7441 194.604 16.8196L191.759 24.7881C191.727 24.8819 191.727 24.9837 191.76 25.0774C191.792 25.1711 191.855 25.2513 191.938 25.3053C192.006 25.3493 192.085 25.3718 192.166 25.37H197.752C197.852 25.372 197.949 25.3381 198.026 25.2743C198.097 25.2164 198.149 25.1377 198.174 25.0492C198.198 24.9607 198.195 24.8667 198.163 24.7803L195.318 16.817C195.294 16.7411 195.246 16.675 195.181 16.6285ZM224.026 25.7711L223.32 24.646L223.237 24.5297C223.375 24.4728 223.496 24.4185 223.605 24.3667C224.931 23.762 226.075 22.8181 226.92 21.6304C227.698 20.5363 228.115 19.2275 228.115 17.8854C228.165 16.5364 227.803 15.2042 227.078 14.0652C226.354 12.9263 225.3 12.0344 224.057 11.5076C222.645 10.8968 221.118 10.5969 219.58 10.6282H209.791C209.681 10.6282 209.575 10.6721 209.497 10.7502C209.419 10.8283 209.375 10.9342 209.375 11.0446V34.9137C209.375 35.0242 209.419 35.1301 209.497 35.2082C209.575 35.2863 209.681 35.3301 209.791 35.3301H213.8C213.855 35.3301 213.909 35.3194 213.959 35.2984C214.01 35.2775 214.056 35.2468 214.094 35.2082C214.133 35.1695 214.164 35.1236 214.185 35.0731C214.206 35.0226 214.216 34.9684 214.216 34.9137V25.978C214.217 25.8211 214.28 25.6709 214.391 25.56C214.501 25.449 214.652 25.3864 214.809 25.3857H218.104C218.177 25.3859 218.248 25.4041 218.312 25.4389C218.376 25.4737 218.431 25.5238 218.471 25.5849L224.58 35.1025C224.625 35.1724 224.687 35.2298 224.76 35.2696C224.833 35.3093 224.915 35.3302 224.999 35.3301H229.315C229.405 35.3283 229.492 35.3023 229.568 35.2549C229.643 35.2074 229.705 35.1403 229.745 35.0607C229.786 34.981 229.804 34.8919 229.798 34.8027C229.792 34.7135 229.762 34.6276 229.711 34.5542L224.026 25.7711ZM214.216 15.1905C214.217 15.0336 214.28 14.8834 214.391 14.7724C214.501 14.6615 214.652 14.5989 214.809 14.5982H219.536C220.22 14.5836 220.898 14.7195 221.523 14.9965C222.051 15.2358 222.496 15.6287 222.798 16.1241C223.103 16.66 223.256 17.269 223.24 17.8854C223.255 18.5435 223.075 19.1913 222.723 19.7476C222.354 20.2965 221.832 20.7253 221.223 20.9812C220.492 21.2853 219.707 21.4342 218.916 21.4183H214.809C214.652 21.4176 214.501 21.355 214.391 21.2441C214.28 21.1332 214.217 20.9829 214.216 20.8261V15.1905ZM178.093 26.7924H182.11C182.18 26.7926 182.249 26.8077 182.313 26.8367C182.377 26.8657 182.433 26.9079 182.48 26.9605C182.527 27.0162 182.561 27.0812 182.581 27.1511C182.601 27.2211 182.606 27.2945 182.596 27.3666C182.389 28.9448 181.773 30.4413 180.808 31.7069C179.842 32.9726 178.562 33.9631 177.095 34.5798C175.378 35.3065 173.528 35.6651 171.664 35.6324C169.269 35.6324 167.163 35.1152 165.405 34.0807C163.638 33.0491 162.215 31.5198 161.313 29.6839C160.359 27.7907 159.875 25.5458 159.875 22.9853C159.875 20.4249 160.372 18.18 161.347 16.2868C162.276 14.4462 163.723 12.9178 165.511 11.89C167.293 10.8555 169.421 10.3382 171.837 10.3382C173.659 10.3077 175.467 10.6602 177.144 11.3728C178.63 12.0082 179.919 13.0298 180.876 14.3315C181.731 15.5273 182.276 16.9161 182.464 18.3739C182.472 18.4448 182.466 18.5165 182.445 18.5848C182.424 18.653 182.39 18.7161 182.343 18.7703C182.297 18.8245 182.24 18.8684 182.176 18.8995C182.111 18.9305 182.041 18.948 181.97 18.9507H177.915C177.799 18.9473 177.687 18.9049 177.598 18.8303C177.509 18.7557 177.447 18.6533 177.423 18.5395C177.277 17.7841 176.974 17.0678 176.534 16.4368C176.036 15.7434 175.36 15.1967 174.578 14.854C173.716 14.4755 172.783 14.2859 171.842 14.2979C170.619 14.2656 169.418 14.6284 168.418 15.3324C167.321 16.0698 166.465 17.1142 165.958 18.3351C165.351 19.8033 165.055 21.3815 165.089 22.9698C165.052 24.5634 165.342 26.1477 165.94 27.6252C166.426 28.8397 167.254 29.8866 168.325 30.6383C169.291 31.3432 170.463 31.7071 171.659 31.6728C172.667 31.6904 173.669 31.4947 174.597 31.0986C175.422 30.7417 176.136 30.1701 176.666 29.4434C177.138 28.7766 177.458 28.0135 177.602 27.2088C177.625 27.0941 177.686 26.9904 177.775 26.9148C177.864 26.8392 177.976 26.796 178.093 26.7924ZM258.634 14.6575C258.836 14.829 258.997 15.0426 259.107 15.2833C259.218 15.527 259.274 15.7917 259.273 16.0592C259.287 16.4775 259.17 16.8899 258.938 17.2383C258.706 17.5867 258.371 17.8536 257.98 18.0016C257.509 18.1847 257.007 18.2726 256.503 18.2602H253.353C253.31 18.2602 253.269 18.2434 253.238 18.2134C253.208 18.1834 253.19 18.1426 253.19 18.0998V10.7599C253.19 10.7167 253.207 10.6752 253.237 10.6447C253.268 10.6141 253.309 10.5969 253.353 10.5969H256.306C256.805 10.5913 257.301 10.679 257.767 10.8556C258.149 10.9943 258.482 11.2404 258.727 11.5642C258.952 11.8774 259.07 12.2547 259.063 12.6401C259.064 12.8759 259.015 13.1093 258.921 13.3255C258.826 13.5423 258.688 13.7379 258.516 13.9009C258.344 14.0638 258.142 14.1909 257.92 14.2747C258.181 14.353 258.424 14.4832 258.634 14.6575ZM254.77 12.0711V13.5686C254.77 13.6118 254.787 13.6533 254.818 13.6838C254.848 13.7144 254.89 13.7315 254.933 13.7315H256.306C256.514 13.7354 256.72 13.6958 256.911 13.6152C257.074 13.5487 257.213 13.4364 257.312 13.2919C257.405 13.1477 257.452 12.9794 257.449 12.8082C257.453 12.6394 257.405 12.4735 257.312 12.3324C257.213 12.1902 257.073 12.0811 256.911 12.0194C256.719 11.9418 256.513 11.9039 256.306 11.9082H254.943C254.921 11.9082 254.9 11.9126 254.88 11.9211C254.86 11.9296 254.841 11.942 254.826 11.9577C254.811 11.9734 254.799 11.992 254.791 12.0124C254.783 12.0327 254.78 12.0545 254.78 12.0763L254.77 12.0711ZM257.082 16.8248C257.243 16.7582 257.383 16.6469 257.483 16.5041C257.582 16.3504 257.632 16.1698 257.625 15.9868C257.63 15.8087 257.577 15.6339 257.475 15.4877C257.371 15.3402 257.226 15.2261 257.059 15.1592C256.855 15.077 256.637 15.0374 256.417 15.0428H254.943C254.9 15.0428 254.859 15.0596 254.829 15.0896C254.798 15.1196 254.781 15.1604 254.78 15.2032V16.7679C254.78 16.8111 254.797 16.8525 254.828 16.8831C254.859 16.9137 254.9 16.9308 254.943 16.9308H256.461C256.673 16.9392 256.885 16.9031 257.082 16.8248ZM265.262 10.5972H260.501C260.458 10.5972 260.416 10.6143 260.386 10.6449C260.355 10.6754 260.338 10.7169 260.338 10.7601V18.0975C260.339 18.1403 260.356 18.181 260.387 18.211C260.417 18.241 260.458 18.2578 260.501 18.2578H265.262C265.305 18.2578 265.346 18.241 265.377 18.211C265.407 18.181 265.425 18.1403 265.425 18.0975V17.1018C265.425 17.059 265.407 17.0182 265.377 16.9882C265.346 16.9582 265.305 16.9414 265.262 16.9414H262.092C262.048 16.9414 262.007 16.9242 261.976 16.8937C261.946 16.8631 261.929 16.8217 261.929 16.7785V15.1284C261.929 15.107 261.933 15.0858 261.941 15.066C261.949 15.0463 261.961 15.0283 261.976 15.0132C261.992 14.9981 262.01 14.9861 262.029 14.9779C262.049 14.9697 262.07 14.9655 262.092 14.9655H265.262C265.284 14.9655 265.305 14.9612 265.325 14.9531C265.345 14.9449 265.363 14.9329 265.378 14.9177C265.393 14.9026 265.405 14.8846 265.413 14.8649C265.421 14.8451 265.425 14.8239 265.425 14.8025V13.8094C265.425 13.7666 265.407 13.7258 265.377 13.6958C265.346 13.6658 265.305 13.649 265.262 13.649H262.092C262.07 13.649 262.049 13.6448 262.029 13.6366C262.01 13.6284 261.992 13.6164 261.976 13.6013C261.961 13.5862 261.949 13.5682 261.941 13.5484C261.933 13.5287 261.929 13.5075 261.929 13.4861V12.0765C261.929 12.0551 261.933 12.034 261.941 12.0142C261.949 11.9944 261.961 11.9765 261.976 11.9613C261.992 11.9462 262.01 11.9342 262.029 11.926C262.049 11.9178 262.07 11.9136 262.092 11.9136H265.262C265.284 11.9136 265.305 11.9094 265.325 11.9012C265.345 11.893 265.363 11.881 265.378 11.8659C265.393 11.8507 265.405 11.8328 265.413 11.813C265.421 11.7933 265.425 11.7721 265.425 11.7507V10.7601C265.425 10.7387 265.421 10.7175 265.413 10.6978C265.405 10.678 265.393 10.66 265.378 10.6449C265.363 10.6298 265.345 10.6178 265.325 10.6096C265.305 10.6014 265.284 10.5972 265.262 10.5972ZM268.664 11.9136H266.496C266.453 11.9136 266.412 11.8964 266.381 11.8659C266.35 11.8353 266.333 11.7939 266.333 11.7507V10.7601C266.333 10.7169 266.35 10.6754 266.381 10.6449C266.412 10.6143 266.453 10.5972 266.496 10.5972H272.758C272.801 10.5972 272.842 10.6143 272.873 10.6449C272.903 10.6754 272.921 10.7169 272.921 10.7601V11.7507C272.921 11.7939 272.903 11.8353 272.873 11.8659C272.842 11.8964 272.801 11.9136 272.758 11.9136H270.58C270.559 11.9136 270.537 11.9178 270.518 11.926C270.498 11.9342 270.48 11.9462 270.465 11.9613C270.45 11.9765 270.438 11.9944 270.429 12.0142C270.421 12.034 270.417 12.0551 270.417 12.0765V18.0975C270.416 18.1403 270.399 18.181 270.368 18.211C270.338 18.241 270.297 18.2578 270.254 18.2578H268.979C268.937 18.2578 268.896 18.2409 268.866 18.2109C268.836 18.1808 268.819 18.14 268.819 18.0975V12.0765C268.819 12.0346 268.803 11.9943 268.774 11.964C268.745 11.9336 268.705 11.9156 268.664 11.9136ZM279.935 18.0561L277.305 10.7032C277.293 10.6729 277.273 10.6466 277.247 10.6277C277.221 10.6089 277.189 10.5982 277.157 10.5972H275.267C275.233 10.5975 275.201 10.6079 275.174 10.6268C275.147 10.6457 275.126 10.6723 275.114 10.7032L272.486 18.0432C272.478 18.0675 272.476 18.0935 272.48 18.1188C272.483 18.1442 272.493 18.1684 272.508 18.1893C272.523 18.2102 272.542 18.2274 272.565 18.2393C272.588 18.2512 272.613 18.2575 272.639 18.2578H273.919C273.953 18.2576 273.985 18.2471 274.013 18.2276C274.04 18.2082 274.06 18.1808 274.072 18.1492L274.669 16.4371H277.691L278.293 18.1621C278.304 18.194 278.325 18.2214 278.353 18.2409C278.381 18.2603 278.414 18.2707 278.448 18.2708H279.782C279.808 18.2705 279.833 18.2641 279.856 18.2522C279.879 18.2403 279.898 18.2232 279.913 18.2023C279.928 18.1813 279.938 18.1572 279.941 18.1318C279.945 18.1064 279.943 18.0805 279.935 18.0561ZM277.232 15.1181L276.663 13.4861L276.192 11.8489L275.704 13.4732L275.13 15.1181H277.232Z" fill="white"/>
</g>
<defs>
<clipPath id="clip0_9065_87462">
<rect width="281" height="40" fill="white"/>
</clipPath>
</defs>
</svg>
