<svg width="468" height="40" viewBox="0 0 468 40" fill="none" xmlns="http://www.w3.org/2000/svg">
<g clip-path="url(#clip0_9065_87457)">
<path d="M20.0003 0C16.0446 0 12.1778 1.17298 8.88885 3.37061C5.59986 5.56824 3.03642 8.69181 1.52266 12.3463C0.00890984 16.0009 -0.387157 20.0222 0.384548 23.9018C1.15625 27.7814 3.06107 31.3451 5.85812 34.1421C8.65517 36.9392 12.2188 38.844 16.0984 39.6157C19.9781 40.3874 23.9994 39.9913 27.6539 38.4776C31.3084 36.9638 34.432 34.4004 36.6296 31.1114C38.8273 27.8224 40.0003 23.9556 40.0003 20C40.0003 14.6957 37.8931 9.60859 34.1424 5.85786C30.3917 2.10714 25.3046 0 20.0003 0ZM26.0109 18.6629C24.0818 18.6864 22.2383 19.4631 20.8741 20.8273C19.5099 22.1915 18.7332 24.035 18.7097 25.964C18.7097 25.9951 18.7097 26.0261 18.7097 26.0572C18.7102 26.9914 18.4336 27.9048 17.9149 28.6819C17.3961 29.4589 16.6586 30.0646 15.7955 30.4224C14.9325 30.7801 13.9827 30.8739 13.0664 30.6917C12.15 30.5096 11.3083 30.0598 10.6477 29.3991C9.98704 28.7385 9.5372 27.8968 9.35506 26.9804C9.17292 26.0641 9.26666 25.1143 9.62443 24.2513C9.98219 23.3882 10.5879 22.6507 11.3649 22.132C12.142 21.6132 13.0554 21.3366 13.9896 21.3371C14.9532 21.3368 15.9071 21.1459 16.7965 20.7753C17.6859 20.4047 18.4932 19.8618 19.1718 19.1778C19.8505 18.4939 20.3871 17.6824 20.7508 16.7902C21.1144 15.8979 21.298 14.9425 21.2908 13.979C21.2922 13.967 21.2922 13.9549 21.2908 13.9428C21.2908 13.0093 21.5677 12.0967 22.0863 11.3205C22.6049 10.5443 23.3421 9.93935 24.2046 9.5821C25.0671 9.22485 26.0161 9.13138 26.9317 9.31351C27.8473 9.49563 28.6883 9.94517 29.3484 10.6053C30.0085 11.2654 30.4581 12.1064 30.6402 13.022C30.8223 13.9376 30.7288 14.8866 30.3716 15.7491C30.0143 16.6116 29.4094 17.3488 28.6332 17.8674C27.857 18.386 26.9444 18.6629 26.0109 18.6629Z" fill="#00C9EA"/>
<path fill-rule="evenodd" clip-rule="evenodd" d="M72.4037 30.4701H57.9617C57.4834 30.4641 57.0264 30.2714 56.6882 29.9332C56.35 29.595 56.1573 29.138 56.1513 28.6597V3.90605C56.1513 3.79836 56.1085 3.69508 56.0324 3.61893C55.9562 3.54278 55.8529 3.5 55.7452 3.5H51.2864C51.1787 3.5 51.0754 3.54278 50.9993 3.61893C50.9232 3.69508 50.8804 3.79836 50.8804 3.90605V30.1055C50.8824 31.4897 51.4332 32.8167 52.4121 33.7955C53.3909 34.7744 54.7179 35.3252 56.1021 35.3272H72.396C72.5032 35.3265 72.6058 35.2835 72.6814 35.2074C72.757 35.1313 72.7994 35.0284 72.7994 34.9212V30.8788C72.8008 30.7722 72.76 30.6694 72.6858 30.5928C72.6117 30.5163 72.5103 30.4722 72.4037 30.4701ZM129.424 5.72412H125.338C125.114 5.72412 124.932 5.90592 124.932 6.13017V10.2166C124.932 10.4408 125.114 10.6226 125.338 10.6226H129.424C129.649 10.6226 129.83 10.4408 129.83 10.2166V6.13017C129.83 5.90592 129.649 5.72412 129.424 5.72412ZM179.635 25.4422C179.195 24.634 178.587 23.9287 177.853 23.3732C177.087 22.796 176.247 22.3253 175.355 21.974C174.42 21.6027 173.456 21.3094 172.474 21.0972L170.022 20.5282C169.491 20.4106 168.966 20.2665 168.449 20.0963C167.962 19.9382 167.494 19.7275 167.053 19.4679C166.67 19.2512 166.342 18.9506 166.093 18.5885C165.857 18.2306 165.737 17.809 165.749 17.3807C165.751 16.8316 165.939 16.2993 166.282 15.8703C166.689 15.387 167.217 15.021 167.813 14.8099C168.599 14.5248 169.431 14.3889 170.267 14.409C171.617 14.409 172.73 14.6883 173.568 15.2392C173.921 15.4624 174.225 15.7564 174.46 16.1027C174.694 16.449 174.854 16.8401 174.931 17.2514C174.958 17.3671 175.024 17.4699 175.118 17.5424C175.213 17.615 175.329 17.6528 175.448 17.6497H179.402C179.515 17.6554 179.627 17.6238 179.721 17.5598C179.814 17.4958 179.884 17.4029 179.92 17.2953C179.938 17.2457 179.945 17.1928 179.94 17.1402C179.86 15.9144 179.422 14.739 178.681 13.7598C177.797 12.6298 176.631 11.7529 175.3 11.2175C173.718 10.5772 172.023 10.264 170.317 10.2968C168.608 10.2712 166.911 10.5814 165.322 11.2097C163.948 11.7449 162.738 12.6313 161.813 13.7805C160.952 14.8886 160.496 16.2573 160.52 17.66C160.52 19.4497 161.171 20.9033 162.457 21.9843C163.742 23.0654 165.465 23.8517 167.629 24.3689L170.601 25.0802C171.426 25.2662 172.237 25.5117 173.027 25.8147C173.61 26.0289 174.139 26.3669 174.579 26.8052C174.94 27.1962 175.136 27.7112 175.127 28.2432C175.129 28.8672 174.904 29.4707 174.496 29.9424C174.027 30.4657 173.432 30.8609 172.768 31.0908C171.923 31.383 171.032 31.5231 170.138 31.5046C169.259 31.5156 168.385 31.3792 167.552 31.1011C166.844 30.8706 166.209 30.4587 165.71 29.9062C165.297 29.4198 165.034 28.8243 164.952 28.1915C164.929 28.072 164.865 27.9644 164.77 27.8878C164.676 27.8111 164.557 27.7703 164.435 27.7725H160.398C160.252 27.7726 160.111 27.8302 160.007 27.9329C159.959 27.9794 159.921 28.0364 159.897 28.0995C159.873 28.1627 159.864 28.2304 159.87 28.2975C159.956 29.6775 160.431 31.005 161.241 32.1253C162.164 33.3231 163.406 34.235 164.826 34.7556C166.54 35.3865 168.356 35.6935 170.182 35.6608C172.292 35.6608 174.121 35.3504 175.613 34.7375C176.992 34.2183 178.196 33.3221 179.089 32.1512C179.897 31.0275 180.322 29.6735 180.3 28.2898C180.322 27.2998 180.093 26.3203 179.635 25.4422ZM225.581 11.8487C223.789 10.8141 221.655 10.2969 219.239 10.2969C216.824 10.2969 214.685 10.8141 212.88 11.8487C211.079 12.8654 209.623 14.3963 208.698 16.2454C207.733 18.1386 207.244 20.3835 207.244 22.9414C207.244 25.4993 207.733 27.7468 208.698 29.6399C209.622 31.4896 211.079 33.0207 212.88 34.0367C214.69 35.0712 216.824 35.5885 219.239 35.5885C221.655 35.5885 223.789 35.0712 225.581 34.0367C227.374 33.016 228.823 31.4857 229.745 29.6399C230.71 27.7468 231.199 25.5018 231.199 22.9414C231.199 20.3809 230.702 18.1438 229.745 16.2454C228.822 14.4007 227.373 12.8707 225.581 11.8487ZM222.627 30.5917C221.641 31.2964 220.451 31.6596 219.239 31.6262C218.011 31.6598 216.805 31.2971 215.8 30.5917C214.698 29.8536 213.836 28.81 213.319 27.589C212.703 26.1232 212.403 24.544 212.437 22.9543C212.401 21.3644 212.696 19.7843 213.304 18.3145C213.813 17.0894 214.675 16.0439 215.781 15.3117C216.806 14.6046 218.029 14.2422 219.273 14.2772C220.477 14.2446 221.658 14.608 222.635 15.3117C223.731 16.0544 224.589 17.0969 225.108 18.3145C225.723 19.7796 226.024 21.3578 225.99 22.9466C226.024 24.5362 225.723 26.1153 225.108 27.5812C224.59 28.8013 223.729 29.844 222.627 30.5814V30.5917ZM271.995 31.3291H261.707C261.55 31.3284 261.4 31.2657 261.29 31.1547C261.179 31.0437 261.117 30.8935 261.117 30.7368V25.2978C261.117 25.1412 261.179 24.9909 261.29 24.8799C261.4 24.7689 261.55 24.7062 261.707 24.7055H271.364C271.474 24.7055 271.58 24.6617 271.658 24.5836C271.737 24.5055 271.78 24.3996 271.78 24.2891V21.1442C271.78 21.0337 271.737 20.9278 271.658 20.8497C271.58 20.7716 271.474 20.7278 271.364 20.7278H261.707C261.628 20.7278 261.55 20.7121 261.478 20.6817C261.406 20.6512 261.34 20.6066 261.285 20.5505C261.23 20.4944 261.187 20.4278 261.158 20.3548C261.129 20.2818 261.115 20.2037 261.117 20.1252V15.1568C261.117 15.0002 261.179 14.85 261.29 14.739C261.4 14.628 261.55 14.5653 261.707 14.5646H271.985C272.095 14.5646 272.201 14.5207 272.279 14.4426C272.357 14.3645 272.401 14.2586 272.401 14.1482V11.0136C272.401 10.9031 272.357 10.7972 272.279 10.7191C272.201 10.641 272.095 10.5972 271.985 10.5972H256.343C256.232 10.5972 256.126 10.641 256.048 10.7191C255.97 10.7972 255.926 10.9031 255.926 11.0136V34.8827C255.926 34.9931 255.97 35.099 256.048 35.1771C256.126 35.2552 256.232 35.2991 256.343 35.2991H271.995C272.106 35.2991 272.212 35.2553 272.29 35.1773C272.369 35.0993 272.413 34.9934 272.414 34.8827V31.7455C272.413 31.6348 272.369 31.5289 272.29 31.4509C272.212 31.3729 272.106 31.3291 271.995 31.3291ZM244.05 10.5968C245.699 10.5615 247.336 10.8918 248.842 11.5641C250.158 12.1597 251.267 13.1339 252.026 14.3625C252.787 15.649 253.173 17.1226 253.141 18.617C253.172 20.1136 252.779 21.5886 252.008 22.8715C251.224 24.1093 250.092 25.0882 248.754 25.6854C247.197 26.3697 245.51 26.7052 243.809 26.6682H240.132C240.015 26.6682 239.903 26.7145 239.821 26.797C239.738 26.8794 239.692 26.9912 239.692 27.1079V34.8797C239.692 34.9904 239.648 35.0966 239.57 35.1751C239.492 35.2536 239.386 35.298 239.276 35.2987H234.892C234.781 35.298 234.675 35.2536 234.597 35.1751C234.519 35.0966 234.475 34.9904 234.475 34.8797V11.0132C234.476 10.903 234.52 10.7975 234.598 10.7195C234.676 10.6416 234.782 10.5975 234.892 10.5968H244.05ZM246.22 22.1964C246.867 21.8872 247.407 21.3919 247.772 20.774C248.145 20.1038 248.331 19.3452 248.31 18.5782C248.327 17.8355 248.149 17.1013 247.792 16.4496C247.448 15.8548 246.938 15.3738 246.323 15.066C245.616 14.7199 244.837 14.5487 244.05 14.5668H240.284C240.128 14.5668 239.977 14.6288 239.866 14.7394C239.755 14.8499 239.693 14.9999 239.692 15.1565V22.1059C239.693 22.2625 239.755 22.4125 239.866 22.523C239.977 22.6336 240.128 22.6956 240.284 22.6956H243.825C244.651 22.7142 245.47 22.5435 246.22 22.1964ZM200.618 26.759H204.634C204.705 26.758 204.775 26.772 204.84 26.8001C204.904 26.8282 204.962 26.8698 205.009 26.922C205.057 26.9778 205.092 27.043 205.113 27.1135C205.133 27.1839 205.139 27.258 205.128 27.3306C204.923 28.8381 204.349 30.2718 203.458 31.5049C202.478 32.8343 201.165 33.8809 199.651 34.5387C197.929 35.2671 196.073 35.6258 194.204 35.5913C191.811 35.5913 189.706 35.0741 187.948 34.0395C186.18 33.0082 184.756 31.4789 183.853 29.6428C182.902 27.7496 182.418 25.5098 182.418 22.9468C182.418 20.3838 182.912 18.1414 183.89 16.2457C184.814 14.4082 186.253 12.8802 188.033 11.8489C189.815 10.8144 191.943 10.2971 194.359 10.2971C196.181 10.2676 197.989 10.62 199.666 11.3316C201.154 11.9704 202.445 12.9955 203.403 14.3007C204.257 15.496 204.801 16.8838 204.989 18.3406C204.999 18.4128 204.993 18.4863 204.973 18.5563C204.952 18.6263 204.917 18.6911 204.87 18.7466C204.823 18.8004 204.766 18.8435 204.701 18.8729C204.636 18.9024 204.566 18.9175 204.495 18.9173H200.442C200.328 18.9141 200.218 18.8733 200.13 18.8013C200.042 18.7292 199.979 18.63 199.953 18.519C199.811 17.7642 199.509 17.0483 199.069 16.4189C198.572 15.725 197.897 15.1774 197.116 14.8335C196.25 14.4533 195.312 14.2637 194.367 14.2775C193.144 14.2439 191.944 14.6068 190.945 15.312C189.847 16.049 188.99 17.0935 188.483 18.3147C187.875 19.7881 187.58 21.3716 187.616 22.9649C187.583 24.5515 187.872 26.1284 188.467 27.5996C188.957 28.8112 189.788 29.8544 190.86 30.6023C191.825 31.3079 192.998 31.6719 194.193 31.6368C195.203 31.6555 196.205 31.4607 197.134 31.0653C197.955 30.7058 198.665 30.1334 199.19 29.4074C199.665 28.7416 199.986 27.9782 200.129 27.1728C200.15 27.0577 200.21 26.9534 200.299 26.8778C200.388 26.8022 200.501 26.7602 200.618 26.759ZM91.6769 13.4912H95.7633C95.8168 13.4909 95.8699 13.5011 95.9195 13.5214C95.969 13.5416 96.0141 13.5715 96.0521 13.6092C96.0901 13.647 96.1202 13.6918 96.1408 13.7413C96.1613 13.7907 96.1719 13.8437 96.1719 13.8973V34.9215C96.1719 35.0291 96.1291 35.1324 96.053 35.2086C95.9768 35.2847 95.8736 35.3275 95.7659 35.3275H92.2226C92.1151 35.3268 92.0122 35.2838 91.9362 35.2078C91.8602 35.1318 91.8172 35.0289 91.8166 34.9215V32.3662C90.9229 33.4138 89.8279 34.2714 88.5966 34.8878C87.2533 35.5792 85.7623 35.9342 84.2516 35.9224C81.4454 35.9224 79.216 35.0973 77.6306 33.4628C76.0452 31.8282 75.2408 29.6531 75.2408 26.997V13.8973C75.2408 13.7896 75.2836 13.6863 75.3598 13.6101C75.4359 13.534 75.5392 13.4912 75.6469 13.4912H79.7359C79.7891 13.4912 79.8417 13.5017 79.8909 13.5222C79.94 13.5426 79.9846 13.5726 80.0221 13.6103C80.0596 13.648 80.0892 13.6928 80.1094 13.7421C80.1295 13.7913 80.1397 13.8441 80.1393 13.8973V26.3582C80.1393 28.1013 80.5816 29.41 81.4506 30.2713C82.3196 31.1325 83.5998 31.5644 85.2525 31.5644C86.4768 31.5771 87.6758 31.2162 88.6897 30.5299C89.4375 30.0238 90.1097 29.4143 90.6863 28.7195C91.0705 28.25 91.2774 27.6604 91.2708 27.0539V13.8973C91.2708 13.7896 91.3136 13.6863 91.3898 13.6101C91.4659 13.534 91.5692 13.4912 91.6769 13.4912ZM116.759 14.037C115.314 13.2571 113.691 12.865 112.049 12.899C110.539 12.889 109.048 13.2439 107.704 13.9335C106.476 14.5499 105.383 15.4055 104.49 16.45V13.8947C104.489 13.7875 104.446 13.6849 104.37 13.6093C104.294 13.5337 104.191 13.4913 104.084 13.4913H100.491C100.385 13.4926 100.284 13.5357 100.209 13.6113C100.135 13.6868 100.093 13.7886 100.093 13.8947V34.9215C100.093 35.0288 100.135 35.1316 100.211 35.2077C100.286 35.2838 100.389 35.3269 100.496 35.3276H104.585C104.693 35.3276 104.796 35.2848 104.872 35.2086C104.949 35.1325 104.991 35.0292 104.991 34.9215V21.7882C104.993 21.1389 105.23 20.5124 105.659 20.0243C106.234 19.3664 106.892 18.7857 107.616 18.2967C108.631 17.6093 109.831 17.2483 111.056 17.2621C112.556 17.2621 113.787 17.7096 114.719 18.5967C115.65 19.4838 116.128 20.7744 116.128 22.4529V34.9189C116.129 35.0264 116.172 35.1293 116.248 35.2053C116.324 35.2813 116.427 35.3243 116.534 35.325H120.623C120.73 35.3243 120.833 35.2812 120.909 35.2051C120.984 35.1291 121.027 35.0262 121.027 34.9189V21.8192C121.054 20.2106 120.67 18.6217 119.912 17.2026C119.182 15.87 118.089 14.7722 116.759 14.037ZM125.338 13.4912H129.424C129.649 13.4912 129.83 13.673 129.83 13.8973V34.9214C129.83 35.1457 129.649 35.3275 129.424 35.3275H125.338C125.114 35.3275 124.932 35.1457 124.932 34.9214V13.8973C124.932 13.673 125.114 13.4912 125.338 13.4912ZM149.453 17.7972H142.508C142.36 17.7985 142.218 17.8586 142.114 17.9643C142.01 18.07 141.952 18.2126 141.952 18.361V27.7674C141.952 29.1615 142.216 29.9632 142.865 30.5348C142.873 30.5426 143.665 31.2641 146.065 31.2641H149.435C149.488 31.2641 149.541 31.2746 149.59 31.295C149.639 31.3155 149.684 31.3454 149.722 31.3831C149.759 31.4208 149.789 31.4655 149.81 31.5148C149.83 31.5641 149.841 31.6169 149.841 31.6702V35.4591C149.841 35.5125 149.83 35.5653 149.81 35.6145C149.789 35.6638 149.759 35.7086 149.722 35.7463C149.684 35.784 149.639 35.8139 149.59 35.8343C149.541 35.8547 149.488 35.8652 149.435 35.8652H144.598C142.374 35.8652 140.538 35.2807 139.167 34.091C137.796 32.9013 137.098 31.0779 137.098 28.6597V18.3144C137.091 18.1922 137.044 18.0755 136.965 17.9822C136.885 17.8889 136.778 17.8239 136.658 17.7972H133.599C133.492 17.7952 133.391 17.7519 133.316 17.6766C133.242 17.6013 133.199 17.4999 133.198 17.3937V13.8944C133.198 13.7876 133.24 13.6851 133.315 13.6091C133.39 13.5331 133.492 13.4897 133.599 13.4884H136.526C136.671 13.4879 136.811 13.4318 136.915 13.3318C137.02 13.2317 137.083 13.0952 137.09 12.9504V10.7391C137.09 10.6857 137.1 10.6327 137.12 10.5834C137.141 10.5341 137.171 10.4894 137.209 10.452L141.246 6.39152C141.303 6.33401 141.375 6.29462 141.454 6.27836C141.533 6.26211 141.615 6.26972 141.69 6.30023C141.764 6.33074 141.828 6.38277 141.873 6.44969C141.918 6.51662 141.942 6.5954 141.942 6.67601V12.9246C141.943 13.0746 142.003 13.2182 142.109 13.3243C142.215 13.4304 142.358 13.4903 142.508 13.491H149.453C149.56 13.491 149.663 13.5334 149.739 13.609C149.815 13.6846 149.858 13.7872 149.859 13.8944V17.3911C149.858 17.4986 149.815 17.6015 149.739 17.6775C149.663 17.7535 149.56 17.7965 149.453 17.7972Z" fill="white"/>
<path fill-rule="evenodd" clip-rule="evenodd" d="M421.984 9.30127H425.346C425.649 9.30127 425.894 9.54675 425.894 9.84957V13.3075C425.894 13.6103 425.649 13.8558 425.346 13.8558H421.984C421.681 13.8558 421.435 13.6103 421.435 13.3075V9.84957C421.435 9.54675 421.681 9.30127 421.984 9.30127ZM409.383 34.1532C410.619 35.211 412.262 35.749 414.266 35.749L418.549 35.7361C418.665 35.7361 418.777 35.6897 418.86 35.6073C418.942 35.5248 418.989 35.413 418.989 35.2964V31.9342C418.989 31.8176 418.942 31.7057 418.86 31.6233C418.777 31.5408 418.665 31.4945 418.549 31.4945H415.544C413.469 31.4945 412.758 30.866 412.758 30.866C412.207 30.3746 411.982 29.6815 411.982 28.4711V20.1147C411.982 20.0058 412.025 19.9011 412.1 19.8229C412.176 19.7447 412.279 19.6991 412.388 19.6957H418.557C418.614 19.6957 418.672 19.6843 418.725 19.6622C418.778 19.6401 418.827 19.6078 418.868 19.5669C418.908 19.5261 418.941 19.4776 418.963 19.4243C418.985 19.371 418.996 19.3138 418.996 19.256V16.1525C418.996 16.0358 418.95 15.924 418.868 15.8416C418.785 15.7591 418.673 15.7128 418.557 15.7128H412.404C412.292 15.7121 412.185 15.6676 412.105 15.5887C412.026 15.5099 411.981 15.403 411.98 15.2912V9.74356C411.98 9.68529 411.969 9.62747 411.947 9.5735C411.925 9.51953 411.893 9.4705 411.852 9.42929C411.81 9.38808 411.761 9.35553 411.707 9.33355C411.653 9.31157 411.596 9.30061 411.537 9.3013C411.421 9.30283 411.309 9.35021 411.227 9.4332L407.637 13.0385C407.555 13.122 407.51 13.2345 407.51 13.3515V15.3119C407.505 15.4201 407.458 15.5221 407.38 15.5967C407.301 15.6714 407.197 15.7129 407.089 15.7128H404.487C404.429 15.7128 404.372 15.7242 404.319 15.7463C404.265 15.7683 404.217 15.8007 404.176 15.8416C404.135 15.8824 404.103 15.9309 404.081 15.9842C404.059 16.0375 404.047 16.0947 404.047 16.1525V19.256C404.047 19.3726 404.094 19.4845 404.176 19.5669C404.259 19.6494 404.37 19.6957 404.487 19.6957H407.187C407.276 19.7165 407.356 19.7651 407.415 19.8344C407.474 19.9038 407.509 19.9902 407.516 20.0811V29.278C407.516 31.4505 408.147 33.0954 409.383 34.1532ZM373.477 34.1531C374.713 35.2109 376.356 35.7489 378.36 35.7489L382.648 35.7463C382.706 35.7463 382.763 35.7349 382.816 35.7128C382.87 35.6907 382.918 35.6583 382.959 35.6175C383 35.5767 383.032 35.5282 383.054 35.4749C383.077 35.4215 383.088 35.3644 383.088 35.3066V31.9444C383.088 31.8867 383.077 31.8295 383.054 31.7761C383.032 31.7228 383 31.6743 382.959 31.6335C382.918 31.5927 382.87 31.5603 382.816 31.5382C382.763 31.5161 382.706 31.5047 382.648 31.5047H379.643C377.569 31.5047 376.855 30.8763 376.855 30.8763C376.307 30.3849 376.079 29.6917 376.079 28.4813V20.1249C376.078 20.0146 376.119 19.9081 376.195 19.8279C376.271 19.7478 376.375 19.7003 376.485 19.6956H382.653C382.711 19.6956 382.768 19.6842 382.822 19.6621C382.875 19.64 382.923 19.6076 382.964 19.5668C383.005 19.526 383.038 19.4775 383.06 19.4242C383.082 19.3708 383.093 19.3137 383.093 19.2559V16.1523C383.093 16.0357 383.047 15.9239 382.964 15.8414C382.882 15.759 382.77 15.7127 382.653 15.7127H376.501C376.389 15.712 376.282 15.6675 376.202 15.5886C376.123 15.5098 376.078 15.4029 376.076 15.2911V9.74345C376.077 9.65611 376.051 9.57066 376.003 9.498C375.954 9.42533 375.885 9.36875 375.804 9.33545C375.724 9.30216 375.635 9.29366 375.549 9.31105C375.464 9.32844 375.385 9.37092 375.324 9.43309L371.737 13.0384C371.655 13.1219 371.609 13.2344 371.61 13.3514V15.3118C371.605 15.42 371.558 15.522 371.479 15.5966C371.401 15.6712 371.297 15.7128 371.188 15.7127H368.581C368.524 15.7127 368.466 15.724 368.413 15.7461C368.36 15.7682 368.311 15.8006 368.27 15.8414C368.23 15.8823 368.197 15.9307 368.175 15.9841C368.153 16.0374 368.142 16.0946 368.142 16.1523V19.2559C368.142 19.3725 368.188 19.4844 368.27 19.5668C368.353 19.6493 368.465 19.6956 368.581 19.6956H371.279C371.368 19.7159 371.448 19.7643 371.508 19.8336C371.568 19.903 371.603 19.9897 371.61 20.081V29.2779C371.61 31.4504 372.241 33.0953 373.477 34.1531ZM467.092 18.9791C466.521 17.8696 465.643 16.9482 464.562 16.3255C463.391 15.6799 462.069 15.3552 460.732 15.3841C459.698 15.3726 458.672 15.569 457.715 15.9618C456.759 16.3545 455.891 16.9356 455.163 17.6704C454.963 17.8756 454.78 18.098 454.618 18.3351V16.2453C454.618 16.0999 454.56 15.9605 454.457 15.8576C454.354 15.7548 454.215 15.697 454.069 15.697H450.661C450.516 15.6977 450.377 15.7558 450.275 15.8586C450.172 15.9613 450.115 16.1004 450.115 16.2453V34.7401C450.115 34.8851 450.172 35.0242 450.275 35.1269C450.377 35.2297 450.516 35.2877 450.661 35.2884H454.051C454.123 35.2884 454.195 35.2742 454.261 35.2467C454.328 35.2191 454.388 35.1787 454.439 35.1278C454.49 35.0769 454.53 35.0165 454.558 34.9499C454.585 34.8834 454.6 34.8121 454.6 34.7401V23.725C454.6 23.6903 454.607 23.656 454.62 23.6241C454.926 22.9124 455.299 22.2317 455.735 21.5913C456.227 20.8459 456.887 20.2259 457.662 19.7808C458.37 19.4009 459.162 19.2044 459.966 19.2093C460.62 19.1956 461.265 19.362 461.831 19.6903C462.368 20.0223 462.8 20.5005 463.075 21.0688C463.388 21.7302 463.542 22.4556 463.525 23.187V34.7505C463.525 34.8225 463.539 34.8938 463.567 34.9603C463.594 35.0268 463.635 35.0872 463.686 35.1382C463.737 35.1891 463.797 35.2295 463.864 35.257C463.93 35.2846 464.001 35.2988 464.073 35.2988H467.436C467.508 35.2988 467.579 35.2846 467.645 35.257C467.712 35.2295 467.772 35.1891 467.823 35.1382C467.874 35.0872 467.915 35.0268 467.942 34.9603C467.97 34.8938 467.984 34.8225 467.984 34.7505V22.9439C468.01 21.5697 467.704 20.2096 467.092 18.9791ZM342.506 16.3255C343.587 16.9482 344.465 17.8696 345.035 18.9791C345.651 20.2087 345.961 21.5689 345.938 22.9439V34.7505C345.938 34.8954 345.881 35.0345 345.778 35.1373C345.676 35.24 345.537 35.2981 345.392 35.2988H342.03C341.958 35.2988 341.887 35.2846 341.821 35.257C341.754 35.2294 341.694 35.189 341.643 35.138C341.593 35.0871 341.552 35.0266 341.525 34.9601C341.498 34.8936 341.484 34.8223 341.484 34.7505V23.187C341.501 22.4553 341.346 21.73 341.032 21.0688C340.757 20.5005 340.325 20.0223 339.788 19.6903C339.222 19.362 338.577 19.1956 337.923 19.2093C337.119 19.2044 336.327 19.4009 335.619 19.7808C334.845 20.2266 334.185 20.8464 333.692 21.5913C333.256 22.2317 332.883 22.9124 332.577 23.6241C332.564 23.656 332.557 23.6903 332.556 23.725V34.7401C332.556 34.8855 332.499 35.025 332.396 35.1278C332.293 35.2306 332.154 35.2884 332.008 35.2884H328.617C328.473 35.2877 328.334 35.2297 328.231 35.1269C328.129 35.0242 328.072 34.8851 328.072 34.7401V16.2453C328.072 16.1004 328.129 15.9613 328.231 15.8586C328.334 15.7558 328.473 15.6977 328.617 15.697H332.026C332.172 15.697 332.311 15.7548 332.414 15.8576C332.517 15.9605 332.575 16.0999 332.575 16.2453V18.3351C332.737 18.098 332.919 17.8756 333.12 17.6704C333.846 16.9372 334.712 16.357 335.666 15.9643C336.621 15.5716 337.644 15.3743 338.676 15.3841C340.013 15.3552 341.334 15.6799 342.506 16.3255ZM324.327 18.9791C323.756 17.8696 322.878 16.9482 321.797 16.3256C320.625 15.6796 319.303 15.3549 317.964 15.3841C316.931 15.3724 315.905 15.5687 314.949 15.9615C313.993 16.3543 313.126 16.9355 312.399 17.6704C312.198 17.8756 312.015 18.098 311.853 18.3351V16.2454C311.853 16.1 311.795 15.9605 311.692 15.8577C311.589 15.7549 311.45 15.6971 311.305 15.6971H307.896C307.824 15.6971 307.753 15.7113 307.686 15.7389C307.62 15.7665 307.56 15.8069 307.509 15.8578C307.458 15.9088 307.418 15.9693 307.391 16.0358C307.364 16.1023 307.35 16.1735 307.35 16.2454V34.7401C307.35 34.812 307.364 34.8833 307.391 34.9498C307.418 35.0163 307.458 35.0768 307.509 35.1277C307.56 35.1786 307.62 35.2191 307.686 35.2467C307.753 35.2742 307.824 35.2885 307.896 35.2884H311.286C311.358 35.2884 311.43 35.2743 311.496 35.2467C311.563 35.2192 311.623 35.1788 311.674 35.1279C311.725 35.0769 311.765 35.0165 311.793 34.95C311.821 34.8835 311.835 34.8122 311.835 34.7401V23.725C311.835 23.6904 311.842 23.656 311.855 23.6242C312.161 22.9125 312.534 22.2317 312.97 21.5913C313.463 20.8459 314.122 20.2259 314.897 19.7809C315.605 19.4009 316.398 19.2044 317.201 19.2093C317.855 19.1956 318.5 19.3621 319.066 19.6904C319.603 20.0223 320.035 20.5005 320.31 21.0689C320.623 21.7303 320.777 22.4556 320.76 23.1871V34.7505C320.76 34.8225 320.774 34.8938 320.802 34.9603C320.829 35.0268 320.87 35.0873 320.921 35.1382C320.972 35.1891 321.032 35.2295 321.099 35.2571C321.165 35.2846 321.236 35.2988 321.308 35.2988H324.671C324.743 35.2988 324.814 35.2846 324.88 35.2571C324.947 35.2295 325.007 35.1891 325.058 35.1382C325.109 35.0873 325.15 35.0268 325.177 34.9603C325.205 34.8938 325.219 34.8225 325.219 34.7505V22.944C325.245 21.5698 324.939 20.2096 324.327 18.9791ZM357.902 15.2656C359.713 15.2656 361.498 15.6824 363.122 16.4836C364.591 17.2861 365.782 18.5153 366.538 20.0088C367.322 21.5373 367.72 23.3555 367.72 25.4401C367.72 27.5246 367.314 29.348 366.538 30.8713C365.783 32.3652 364.592 33.5938 363.122 34.3939C361.498 35.1952 359.713 35.6119 357.902 35.6119C356.092 35.6119 354.306 35.1952 352.683 34.3939C351.214 33.593 350.022 32.3646 349.267 30.8713C348.483 29.3428 348.085 27.5272 348.085 25.4401C348.085 23.3529 348.491 21.5296 349.267 20.0088C350.021 18.5143 351.213 17.2848 352.683 16.4836C354.306 15.6824 356.092 15.2656 357.902 15.2656ZM357.908 31.8774C358.911 31.9024 359.9 31.6327 360.752 31.1015H360.74C361.562 30.5598 362.205 29.7868 362.589 28.8799C363.04 27.7885 363.26 26.6155 363.235 25.4349C363.26 24.2542 363.04 23.0811 362.589 21.9899C362.209 21.0831 361.57 20.3085 360.752 19.7631C359.9 19.2339 358.911 18.9643 357.908 18.9872C356.897 18.9631 355.9 19.2326 355.039 19.7631C354.213 20.3018 353.568 21.0768 353.188 21.9873C352.735 23.0782 352.515 24.2515 352.541 25.4323C352.515 26.6131 352.735 27.7863 353.188 28.8773C353.568 29.7872 354.214 30.562 355.039 31.1015C355.901 31.6309 356.897 31.9004 357.908 31.8774ZM442.997 16.4836C441.374 15.6824 439.588 15.2656 437.778 15.2656C435.968 15.2656 434.182 15.6824 432.559 16.4836C431.089 17.2848 429.897 18.5143 429.142 20.0088C428.367 21.5296 427.96 23.3529 427.96 25.4401C427.96 27.5272 428.359 29.3428 429.142 30.8713C429.898 32.3646 431.089 33.593 432.559 34.3939C434.182 35.1952 435.968 35.6119 437.778 35.6119C439.588 35.6119 441.374 35.1952 442.997 34.3939C444.467 33.5938 445.659 32.3652 446.414 30.8713C447.19 29.348 447.596 27.5246 447.596 25.4401C447.596 23.3555 447.198 21.5373 446.414 20.0088C445.658 18.5153 444.466 17.2861 442.997 16.4836ZM440.628 31.1015C439.776 31.6327 438.787 31.9024 437.783 31.8774C436.772 31.9008 435.776 31.6314 434.915 31.1015C434.089 30.562 433.444 29.7872 433.063 28.8773C432.611 27.7863 432.391 26.6131 432.417 25.4323C432.39 24.2515 432.611 23.0782 433.063 21.9873C433.443 21.0768 434.089 20.3018 434.915 19.7631C435.776 19.2326 436.772 18.9631 437.783 18.9872C438.787 18.9643 439.775 19.2339 440.628 19.7631C441.446 20.3085 442.085 21.0831 442.465 21.9899C442.915 23.0813 443.134 24.2544 443.109 25.4349C443.134 26.6154 442.915 27.7883 442.465 28.8799C442.084 29.785 441.446 30.5579 440.628 31.1015ZM394.059 15.7129C392.819 15.7036 391.581 15.8188 390.363 16.0569C389.21 16.2991 388.083 16.656 387.001 17.1225C386.905 17.1647 386.828 17.2408 386.785 17.3362C386.741 17.4316 386.734 17.5397 386.766 17.6397L386.965 18.2113L387.689 20.3062C387.708 20.3603 387.737 20.41 387.775 20.4525C387.814 20.4949 387.86 20.5292 387.912 20.5534C387.964 20.5775 388.02 20.591 388.077 20.5929C388.135 20.5949 388.192 20.5854 388.245 20.5649C389.256 20.1582 390.309 19.8642 391.385 19.6881C392.076 19.5783 392.775 19.5238 393.475 19.5252C395.996 19.5252 397.597 20.4485 398.148 22.1994C398.291 22.6653 398.364 23.15 398.363 23.6374C398.364 23.6633 398.364 23.6892 398.363 23.715V24.1883C398.316 24.1728 398.27 24.1596 398.223 24.1463C398.2 24.1397 398.176 24.1331 398.153 24.1262C396.503 23.6205 394.784 23.371 393.058 23.3865C388.237 23.3865 384.914 25.4246 384.914 29.5782V29.6506C384.914 32.8654 387.198 34.8388 390.086 35.4077C390.683 35.527 391.289 35.5868 391.897 35.5862C394.845 35.5862 396.87 34.4094 398.215 32.899L398.321 32.7826V34.8517C398.321 34.9074 398.332 34.9625 398.354 35.014C398.375 35.0655 398.406 35.1122 398.446 35.1516C398.485 35.191 398.532 35.2222 398.583 35.2436C398.635 35.2649 398.69 35.2758 398.745 35.2758H402.304C402.36 35.2762 402.415 35.2654 402.467 35.2443C402.519 35.2231 402.565 35.1918 402.605 35.1524C402.644 35.1129 402.676 35.066 402.697 35.0144C402.718 34.9628 402.729 34.9075 402.728 34.8517V23.7978C402.728 21.2839 402.056 19.2458 400.6 17.8492C399.214 16.4759 397.002 15.7129 394.059 15.7129ZM398.427 27.0436V28.2773V28.4505C398.415 28.8731 398.328 29.29 398.169 29.6816C397.476 31.3343 395.557 32.3921 393.185 32.3921C391.018 32.3921 389.336 31.3369 389.336 29.4773V29.4049C389.336 27.4031 391.056 26.2004 393.969 26.2004C395.396 26.1899 396.815 26.4144 398.169 26.8651L398.451 26.966L398.427 27.0436ZM425.351 15.7075H421.997C421.694 15.7075 421.448 15.953 421.448 16.2558V34.748C421.448 35.0508 421.694 35.2963 421.997 35.2963H425.351C425.654 35.2963 425.899 35.0508 425.899 34.748V16.2558C425.899 15.953 425.654 15.7075 425.351 15.7075ZM296.756 10.6994C296.852 10.7668 296.925 10.8618 296.966 10.9718L305.56 34.5306C305.591 34.6159 305.601 34.7074 305.59 34.7974C305.578 34.8874 305.545 34.9733 305.493 35.0479C305.44 35.1232 305.37 35.1848 305.289 35.2275C305.208 35.2703 305.117 35.2929 305.025 35.2936H301.259C301.141 35.2934 301.026 35.2568 300.93 35.1888C300.834 35.1207 300.761 35.0245 300.721 34.9134L298.702 29.3114C298.683 29.2627 298.651 29.2207 298.608 29.1907C298.566 29.1607 298.516 29.1442 298.464 29.1433H289.039C288.987 29.1437 288.936 29.1599 288.893 29.19C288.85 29.22 288.817 29.2623 288.799 29.3114L286.792 34.9134C286.752 35.0247 286.68 35.1211 286.583 35.1893C286.487 35.2574 286.372 35.2938 286.254 35.2936H282.633C282.541 35.2929 282.45 35.2703 282.369 35.2275C282.287 35.1848 282.217 35.1232 282.165 35.0479C282.113 34.9733 282.08 34.8874 282.068 34.7974C282.057 34.7074 282.067 34.6159 282.097 34.5306L290.668 10.9718C290.709 10.8616 290.782 10.7664 290.878 10.6989C290.974 10.6314 291.089 10.5949 291.206 10.5942H296.428C296.546 10.5953 296.66 10.6319 296.756 10.6994ZM297.131 25.1526C297.144 25.1459 297.156 25.1361 297.165 25.1242H297.17C297.177 25.1109 297.18 25.0963 297.18 25.0815C297.18 25.0667 297.177 25.0521 297.17 25.0388L293.888 15.1203C293.883 15.101 293.871 15.0841 293.854 15.0724C293.838 15.0607 293.818 15.0548 293.798 15.0556C293.778 15.0548 293.758 15.0607 293.742 15.0724C293.725 15.0841 293.713 15.101 293.707 15.1203L290.345 25.0362C290.337 25.0496 290.333 25.0648 290.333 25.0802C290.333 25.0956 290.337 25.1108 290.345 25.1242C290.354 25.1363 290.366 25.1461 290.379 25.1529C290.393 25.1596 290.408 25.1631 290.423 25.163H297.088C297.103 25.1629 297.118 25.1593 297.131 25.1526Z" fill="#00C9EA"/>
</g>
<defs>
<clipPath id="clip0_9065_87457">
<rect width="468" height="40" fill="white"/>
</clipPath>
</defs>
</svg>
