<svg width="161" height="40" viewBox="0 0 161 40" fill="none" xmlns="http://www.w3.org/2000/svg">
<g clip-path="url(#clip0_9065_96259)">
<path d="M20 0C16.0444 0 12.1776 1.17298 8.8886 3.37061C5.59962 5.56824 3.03617 8.69181 1.52242 12.3463C0.0086657 16.0009 -0.387401 20.0222 0.384303 23.9018C1.15601 27.7814 3.06082 31.3451 5.85787 34.1421C8.65492 36.9392 12.2186 38.844 16.0982 39.6157C19.9778 40.3874 23.9992 39.9913 27.6537 38.4776C31.3082 36.9638 34.4318 34.4004 36.6294 31.1114C38.827 27.8224 40 23.9556 40 20C40 14.6957 37.8929 9.60859 34.1421 5.85786C30.3914 2.10714 25.3043 0 20 0ZM26.0106 18.6629C24.0815 18.6864 22.238 19.4631 20.8739 20.8273C19.5097 22.1915 18.7329 24.035 18.7094 25.964C18.7094 25.9951 18.7094 26.0261 18.7094 26.0572C18.7094 26.9907 18.4326 27.9033 17.914 28.6795C17.3953 29.4557 16.6582 30.0606 15.7957 30.4179C14.9332 30.7751 13.9842 30.8686 13.0686 30.6865C12.153 30.5044 11.3119 30.0548 10.6518 29.3947C9.99173 28.7346 9.54219 27.8936 9.36007 26.978C9.17794 26.0624 9.27142 25.1134 9.62866 24.2509C9.98591 23.3884 10.5909 22.6512 11.3671 22.1326C12.1433 21.6139 13.0559 21.3371 13.9894 21.3371C14.9529 21.3368 15.9068 21.1459 16.7962 20.7753C17.6856 20.4047 18.4929 19.8618 19.1716 19.1778C19.8502 18.4939 20.3869 17.6824 20.7505 16.7902C21.1142 15.8979 21.2977 14.9425 21.2906 13.979V13.9428C21.2906 13.0093 21.5674 12.0967 22.0861 11.3205C22.6047 10.5443 23.3419 9.93935 24.2043 9.5821C25.0668 9.22485 26.0159 9.13138 26.9314 9.31351C27.847 9.49563 28.6881 9.94517 29.3482 10.6053C30.0083 11.2654 30.4578 12.1064 30.6399 13.022C30.8221 13.9376 30.7286 14.8866 30.3714 15.7491C30.0141 16.6116 29.4091 17.3488 28.6329 17.8674C27.8567 18.386 26.9441 18.6629 26.0106 18.6629Z" fill="#00C9EA"/>
<path fill-rule="evenodd" clip-rule="evenodd" d="M72.4013 30.5185H57.9593C57.481 30.5124 57.024 30.3198 56.6858 29.9815C56.3476 29.6433 56.1549 29.1863 56.1488 28.708V3.95439C56.1488 3.8467 56.1061 3.74342 56.0299 3.66727C55.9538 3.59112 55.8505 3.54834 55.7428 3.54834H51.284C51.1763 3.54834 51.073 3.59112 50.9969 3.66727C50.9207 3.74342 50.8779 3.8467 50.8779 3.95439V30.1538C50.88 31.5381 51.4308 32.8651 52.4096 33.8439C53.3884 34.8227 54.7154 35.3735 56.0997 35.3756H72.3935C72.501 35.3749 72.6039 35.3319 72.6799 35.2559C72.7559 35.1799 72.7989 35.077 72.7996 34.9695V30.9271C72.8003 30.8203 72.7589 30.7175 72.6843 30.641C72.6097 30.5645 72.5081 30.5205 72.4013 30.5185ZM125.335 5.77258H129.422C129.646 5.77258 129.828 5.95438 129.828 6.17863V10.265C129.828 10.4893 129.646 10.6711 129.422 10.6711H125.335C125.111 10.6711 124.929 10.4893 124.929 10.265V6.17863C124.929 5.95438 125.111 5.77258 125.335 5.77258ZM91.6743 13.5393H95.7607C95.8143 13.539 95.8673 13.5492 95.9169 13.5695C95.9665 13.5897 96.0115 13.6196 96.0495 13.6573C96.0875 13.6951 96.1176 13.7399 96.1382 13.7894C96.1588 13.8388 96.1694 13.8918 96.1694 13.9454V34.9695C96.1694 35.0772 96.1266 35.1805 96.0504 35.2567C95.9743 35.3328 95.871 35.3756 95.7633 35.3756H92.22C92.1126 35.3749 92.0097 35.3319 91.9337 35.2559C91.8577 35.1799 91.8147 35.077 91.814 34.9695V32.4143C90.9208 33.4613 89.8268 34.3187 88.5966 34.9359C87.2523 35.627 85.7605 35.982 84.249 35.9705C81.4429 35.9705 79.2134 35.1454 77.628 33.5109C76.0426 31.8763 75.2383 29.7012 75.2383 27.0451V13.9454C75.2383 13.8377 75.2811 13.7344 75.3572 13.6582C75.4334 13.5821 75.5366 13.5393 75.6443 13.5393H79.7333C79.7865 13.5393 79.8392 13.5498 79.8883 13.5703C79.9374 13.5907 79.982 13.6207 80.0195 13.6584C80.057 13.6961 80.0867 13.7409 80.1068 13.7902C80.1269 13.8394 80.1371 13.8922 80.1368 13.9454V26.4062C80.1368 28.1494 80.579 29.4581 81.448 30.3193C82.317 31.1806 83.5973 31.6125 85.2499 31.6125C86.475 31.6249 87.6747 31.264 88.6897 30.578C89.4362 30.0712 90.1074 29.4617 90.6838 28.7676C91.0679 28.2981 91.2748 27.7085 91.2683 27.102V13.9454C91.2683 13.8377 91.3111 13.7344 91.3872 13.6582C91.4634 13.5821 91.5666 13.5393 91.6743 13.5393ZM116.757 14.085C115.311 13.3051 113.689 12.913 112.047 12.947C110.536 12.937 109.046 13.2919 107.702 13.9816C106.473 14.5979 105.38 15.4535 104.487 16.4981V13.9428C104.486 13.8355 104.443 13.7329 104.367 13.6573C104.291 13.5817 104.188 13.5393 104.081 13.5393H100.491C100.385 13.54 100.283 13.5828 100.208 13.6584C100.132 13.734 100.09 13.8362 100.09 13.9428V34.9695C100.09 35.0772 100.133 35.1805 100.209 35.2567C100.285 35.3328 100.389 35.3756 100.496 35.3756H104.583C104.69 35.3756 104.794 35.3328 104.87 35.2567C104.946 35.1805 104.989 35.0772 104.989 34.9695V21.8362C104.991 21.187 105.228 20.5604 105.656 20.0724C106.231 19.4144 106.89 18.8337 107.614 18.3447C108.628 17.6573 109.828 17.2963 111.054 17.3102C112.554 17.3102 113.785 17.7576 114.716 18.6447C115.647 19.5318 116.126 20.8224 116.126 22.5009V34.967C116.126 35.0744 116.169 35.1773 116.245 35.2533C116.321 35.3293 116.424 35.3723 116.532 35.373H120.621C120.728 35.3723 120.831 35.3293 120.907 35.2533C120.983 35.1773 121.026 35.0744 121.027 34.967V21.8673C121.053 20.2584 120.668 18.6695 119.909 17.2507C119.18 15.9175 118.087 14.8195 116.757 14.085ZM125.335 13.5393H129.422C129.646 13.5393 129.828 13.7211 129.828 13.9454V34.9695C129.828 35.1938 129.646 35.3756 129.422 35.3756H125.335C125.111 35.3756 124.929 35.1938 124.929 34.9695V13.9454C124.929 13.7211 125.111 13.5393 125.335 13.5393ZM142.506 13.5393H149.445C149.498 13.5386 149.552 13.5485 149.601 13.5685C149.651 13.5884 149.696 13.618 149.734 13.6555C149.773 13.693 149.803 13.7377 149.824 13.787C149.845 13.8363 149.856 13.8892 149.856 13.9428V17.4395C149.855 17.547 149.812 17.6498 149.736 17.7258C149.66 17.8019 149.558 17.8448 149.45 17.8455H142.506C142.358 17.8476 142.216 17.9079 142.112 18.0134C142.008 18.1189 141.95 18.2611 141.95 18.4093V27.8158C141.95 29.2098 142.214 30.0116 142.863 30.5831C142.87 30.5909 143.662 31.3125 146.062 31.3125H149.432C149.485 31.3125 149.538 31.323 149.587 31.3434C149.637 31.3638 149.681 31.3937 149.719 31.4314C149.757 31.4691 149.787 31.5139 149.807 31.5631C149.828 31.6124 149.838 31.6652 149.838 31.7185V35.5075C149.838 35.5608 149.828 35.6136 149.807 35.6629C149.787 35.7121 149.757 35.7569 149.719 35.7946C149.681 35.8323 149.637 35.8622 149.587 35.8826C149.538 35.903 149.485 35.9135 149.432 35.9135H144.596C142.369 35.9135 140.535 35.329 139.164 34.1393C137.794 32.9496 137.095 31.1263 137.095 28.7081V18.3628C137.088 18.2405 137.041 18.1239 136.962 18.0306C136.883 17.9372 136.775 17.8723 136.656 17.8455H133.596C133.49 17.8435 133.389 17.8003 133.314 17.725C133.239 17.6497 133.196 17.5482 133.195 17.4421V13.9428C133.195 13.836 133.237 13.7335 133.312 13.6575C133.387 13.5815 133.489 13.5381 133.596 13.5367H136.524C136.669 13.5362 136.808 13.4802 136.913 13.3801C137.018 13.28 137.08 13.1436 137.087 12.9988V10.7875C137.087 10.7341 137.097 10.6811 137.118 10.6318C137.138 10.5824 137.168 10.5377 137.206 10.5004L141.246 6.43986C141.283 6.40165 141.327 6.37121 141.376 6.35033C141.425 6.32946 141.478 6.31857 141.531 6.31831C141.584 6.31797 141.637 6.32822 141.687 6.34847C141.737 6.36872 141.782 6.39858 141.82 6.43632C141.858 6.47406 141.888 6.51894 141.908 6.56837C141.929 6.6178 141.939 6.67082 141.939 6.72436V12.9729C141.94 13.1229 142 13.2666 142.106 13.3727C142.212 13.4787 142.356 13.5386 142.506 13.5393ZM160.61 8.86843C160.397 8.37064 160.092 7.91777 159.71 7.53389C159.327 7.15099 158.874 6.84542 158.375 6.63385C157.334 6.20278 156.164 6.20278 155.122 6.63385C154.115 7.06079 153.314 7.862 152.887 8.86843C152.672 9.38428 152.562 9.93763 152.562 10.4965C152.562 11.0554 152.672 11.6087 152.887 12.1246C153.314 13.131 154.115 13.9322 155.122 14.3592C156.164 14.7903 157.334 14.7903 158.375 14.3592C158.873 14.144 159.324 13.8349 159.705 13.4488C160.087 13.0684 160.394 12.6191 160.61 12.1246C161.041 11.082 161.041 9.91105 160.61 8.86843ZM159.382 12.0289C159.115 12.484 158.737 12.8633 158.282 13.1307C157.817 13.4009 157.288 13.5433 156.75 13.5433C156.212 13.5433 155.683 13.4009 155.218 13.1307C154.763 12.8625 154.384 12.4834 154.116 12.0289C153.847 11.5636 153.705 11.0354 153.705 10.4978C153.705 9.96018 153.847 9.43205 154.116 8.96671C154.383 8.5111 154.762 8.1317 155.218 7.86494C155.683 7.59544 156.212 7.45353 156.75 7.45353C157.288 7.45353 157.817 7.59544 158.282 7.86494C158.739 8.13163 159.119 8.51099 159.387 8.96671C159.656 9.43244 159.798 9.96102 159.798 10.4991C159.798 11.0372 159.656 11.5658 159.387 12.0315L159.382 12.0289ZM158.471 9.87451C158.478 10.1175 158.412 10.3569 158.283 10.5625C158.175 10.726 158.03 10.8624 157.861 10.9608L158.598 12.4143H157.579L156.976 11.1392H156.286V12.4143H155.357V8.58911H157.217C157.427 8.58884 157.634 8.63661 157.822 8.72877C158.013 8.82239 158.175 8.96636 158.29 9.14517C158.415 9.36747 158.478 9.61951 158.471 9.87451ZM157.049 10.3866C157.174 10.3854 157.294 10.3375 157.385 10.2521H157.38C157.43 10.2 157.47 10.1379 157.494 10.0697C157.519 10.0015 157.53 9.92884 157.525 9.85641C157.533 9.7834 157.524 9.7094 157.497 9.64087C157.471 9.57234 157.428 9.51137 157.372 9.46329C157.279 9.39205 157.166 9.35301 157.049 9.35208H156.273V10.3866H157.049Z" fill="black"/>
</g>
<defs>
<clipPath id="clip0_9065_96259">
<rect width="161" height="40" fill="white"/>
</clipPath>
</defs>
</svg>
