<svg width="573" height="40" viewBox="0 0 573 40" fill="none" xmlns="http://www.w3.org/2000/svg">
<g clip-path="url(#clip0_9065_96246)">
<path d="M20 0C16.0444 0 12.1776 1.17298 8.8886 3.37061C5.59962 5.56824 3.03617 8.69181 1.52242 12.3463C0.0086657 16.0009 -0.387401 20.0222 0.384303 23.9018C1.15601 27.7814 3.06082 31.3451 5.85787 34.1421C8.65492 36.9392 12.2186 38.844 16.0982 39.6157C19.9778 40.3874 23.9992 39.9913 27.6537 38.4776C31.3082 36.9638 34.4318 34.4004 36.6294 31.1114C38.827 27.8224 40 23.9556 40 20C40 14.6957 37.8929 9.60859 34.1421 5.85786C30.3914 2.10714 25.3043 0 20 0ZM26.0106 18.6629C24.0815 18.6864 22.238 19.4631 20.8739 20.8273C19.5097 22.1915 18.7329 24.035 18.7094 25.964C18.7094 25.9951 18.7094 26.0261 18.7094 26.0572C18.7094 26.9907 18.4326 27.9033 17.914 28.6795C17.3953 29.4557 16.6582 30.0606 15.7957 30.4179C14.9332 30.7751 13.9842 30.8686 13.0686 30.6865C12.153 30.5044 11.3119 30.0548 10.6518 29.3947C9.99173 28.7346 9.54219 27.8936 9.36007 26.978C9.17794 26.0624 9.27142 25.1134 9.62866 24.2509C9.98591 23.3884 10.5909 22.6512 11.3671 22.1326C12.1433 21.6139 13.0559 21.3371 13.9894 21.3371C14.9529 21.3368 15.9068 21.1459 16.7962 20.7753C17.6856 20.4047 18.4929 19.8618 19.1716 19.1778C19.8502 18.4939 20.3869 17.6824 20.7505 16.7902C21.1142 15.8979 21.2977 14.9425 21.2906 13.979V13.9428C21.2906 13.0093 21.5674 12.0967 22.0861 11.3205C22.6047 10.5443 23.3419 9.93935 24.2043 9.5821C25.0668 9.22485 26.0159 9.13138 26.9314 9.31351C27.847 9.49563 28.6881 9.94517 29.3482 10.6053C30.0083 11.2654 30.4578 12.1064 30.6399 13.022C30.8221 13.9376 30.7286 14.8866 30.3714 15.7491C30.0141 16.6116 29.4091 17.3488 28.6329 17.8674C27.8567 18.386 26.9441 18.6629 26.0106 18.6629Z" fill="#00C9EA"/>
<path fill-rule="evenodd" clip-rule="evenodd" d="M57.9593 30.5186H72.4013C72.5081 30.5206 72.6097 30.5647 72.6843 30.6411C72.7589 30.7176 72.8003 30.8204 72.7996 30.9272V34.9696C72.7989 35.0771 72.7559 35.18 72.6799 35.256C72.6039 35.332 72.501 35.375 72.3935 35.3757H56.0997C54.7154 35.3736 53.3884 34.8228 52.4096 33.844C51.4308 32.8652 50.88 31.5382 50.8779 30.1539V3.95451C50.8779 3.84682 50.9207 3.74354 50.9969 3.66739C51.073 3.59124 51.1763 3.54846 51.284 3.54846H55.7428C55.8505 3.54846 55.9538 3.59124 56.0299 3.66739C56.1061 3.74354 56.1488 3.84682 56.1488 3.95451V28.7082C56.1549 29.1864 56.3476 29.6434 56.6858 29.9817C57.024 30.3199 57.481 30.5126 57.9593 30.5186ZM129.422 5.77271H125.335C125.111 5.77271 124.929 5.9545 124.929 6.17876V10.2651C124.929 10.4894 125.111 10.6712 125.335 10.6712H129.422C129.646 10.6712 129.828 10.4894 129.828 10.2651V6.17876C129.828 5.9545 129.646 5.77271 129.422 5.77271ZM95.761 13.5393H91.6746C91.5669 13.5393 91.4636 13.5821 91.3875 13.6582C91.3113 13.7344 91.2685 13.8377 91.2685 13.9454V27.102C91.275 27.7085 91.0681 28.2981 90.684 28.7676C90.1077 29.4617 89.4364 30.0712 88.69 30.578C87.675 31.264 86.4752 31.6249 85.2502 31.6125C83.5975 31.6125 82.3173 31.1806 81.4483 30.3193C80.5793 29.4581 80.137 28.1494 80.137 26.4062V13.9454C80.1374 13.8922 80.1272 13.8394 80.107 13.7902C80.0869 13.7409 80.0573 13.6961 80.0198 13.6584C79.9823 13.6207 79.9377 13.5907 79.8885 13.5703C79.8394 13.5498 79.7868 13.5393 79.7335 13.5393H75.6446C75.5369 13.5393 75.4336 13.5821 75.3575 13.6582C75.2813 13.7344 75.2385 13.8377 75.2385 13.9454V27.0451C75.2385 29.7012 76.0429 31.8763 77.6283 33.5109C79.2137 35.1454 81.4431 35.9705 84.2493 35.9705C85.7608 35.982 87.2526 35.627 88.5969 34.9359C89.827 34.3187 90.921 33.4613 91.8142 32.4143V34.9695C91.8149 35.077 91.8579 35.1799 91.9339 35.2559C92.0099 35.3319 92.1128 35.3749 92.2203 35.3756H95.7635C95.8712 35.3756 95.9745 35.3328 96.0507 35.2567C96.1268 35.1805 96.1696 35.0772 96.1696 34.9695V13.9454C96.1696 13.8918 96.159 13.8388 96.1384 13.7894C96.1179 13.7399 96.0877 13.6951 96.0498 13.6573C96.0118 13.6196 95.9667 13.5897 95.9171 13.5695C95.8676 13.5492 95.8145 13.539 95.761 13.5393ZM112.047 12.9471C113.689 12.9131 115.312 13.3052 116.757 14.0851C118.087 14.8196 119.18 15.9176 119.91 17.2507C120.668 18.6695 121.053 20.2585 121.027 21.8673V34.967C121.026 35.0745 120.983 35.1774 120.907 35.2534C120.831 35.3294 120.728 35.3724 120.621 35.3731H116.532C116.424 35.3724 116.321 35.3294 116.245 35.2534C116.169 35.1774 116.126 35.0745 116.126 34.967V22.501C116.126 20.8224 115.647 19.5319 114.716 18.6448C113.785 17.7577 112.554 17.3102 111.054 17.3102C109.829 17.2964 108.629 17.6574 107.614 18.3448C106.89 18.8338 106.232 19.4145 105.656 20.0724C105.228 20.5605 104.991 21.187 104.989 21.8363V34.9696C104.989 35.0773 104.946 35.1806 104.87 35.2567C104.794 35.3329 104.691 35.3757 104.583 35.3757H100.497C100.389 35.3757 100.286 35.3329 100.21 35.2567C100.133 35.1806 100.091 35.0773 100.091 34.9696V13.9428C100.091 13.8363 100.133 13.734 100.208 13.6585C100.283 13.5829 100.385 13.5401 100.491 13.5394H104.081C104.189 13.5394 104.291 13.5818 104.367 13.6574C104.444 13.733 104.487 13.8356 104.487 13.9428V16.4981C105.381 15.4536 106.474 14.598 107.702 13.9816C109.046 13.292 110.537 12.9371 112.047 12.9471ZM129.422 13.5394H125.335C125.111 13.5394 124.929 13.7212 124.929 13.9455V34.9697C124.929 35.1939 125.111 35.3757 125.335 35.3757H129.422C129.646 35.3757 129.828 35.1939 129.828 34.9697V13.9455C129.828 13.7212 129.646 13.5394 129.422 13.5394ZM149.445 13.5394H142.506C142.356 13.5387 142.212 13.4788 142.106 13.3727C142 13.2666 141.94 13.123 141.94 12.973V6.72442C141.94 6.67088 141.929 6.61786 141.908 6.56843C141.888 6.519 141.858 6.47412 141.82 6.43638C141.782 6.39864 141.737 6.36878 141.687 6.34853C141.638 6.32828 141.585 6.31803 141.531 6.31837C141.478 6.31863 141.425 6.32952 141.376 6.35039C141.328 6.37127 141.283 6.40171 141.247 6.43992L137.207 10.5004C137.169 10.5378 137.138 10.5825 137.118 10.6318C137.097 10.6812 137.087 10.7341 137.088 10.7875V12.9988C137.08 13.1436 137.018 13.2801 136.913 13.3802C136.808 13.4803 136.669 13.5363 136.524 13.5368H133.596C133.489 13.5381 133.387 13.5815 133.312 13.6575C133.237 13.7335 133.195 13.836 133.195 13.9428V17.4421C133.197 17.5483 133.239 17.6497 133.314 17.725C133.389 17.8003 133.49 17.8436 133.596 17.8456H136.656C136.775 17.8723 136.883 17.9373 136.962 18.0306C137.042 18.124 137.088 18.2406 137.095 18.3629V28.7081C137.095 31.1263 137.794 32.9497 139.165 34.1394C140.535 35.3291 142.369 35.9136 144.596 35.9136H149.432C149.486 35.9136 149.538 35.9031 149.588 35.8827C149.637 35.8623 149.682 35.8324 149.719 35.7947C149.757 35.757 149.787 35.7122 149.807 35.6629C149.828 35.6137 149.838 35.5609 149.838 35.5076V31.7186C149.838 31.6653 149.828 31.6125 149.807 31.5632C149.787 31.5139 149.757 31.4692 149.719 31.4315C149.682 31.3938 149.637 31.3639 149.588 31.3435C149.538 31.323 149.486 31.3125 149.432 31.3125H146.062C143.662 31.3125 142.871 30.591 142.863 30.5832C142.214 30.0116 141.95 29.2099 141.95 27.8158V18.4094C141.95 18.2612 142.008 18.119 142.112 18.0134C142.216 17.9079 142.358 17.8476 142.506 17.8456H149.45C149.558 17.8449 149.661 17.8019 149.737 17.7259C149.813 17.6499 149.856 17.547 149.856 17.4395V13.9428C149.856 13.8893 149.845 13.8363 149.824 13.787C149.803 13.7377 149.773 13.693 149.735 13.6555C149.696 13.618 149.651 13.5885 149.602 13.5685C149.552 13.5486 149.499 13.5387 149.445 13.5394ZM210.751 22.0457C211.648 22.3976 212.493 22.87 213.263 23.4501C213.993 24.0029 214.598 24.7046 215.037 25.5088C215.494 26.3861 215.722 27.3648 215.699 28.3538C215.727 29.7428 215.305 31.1037 214.496 32.2332C213.603 33.4042 212.399 34.3004 211.02 34.8196C209.528 35.4325 207.7 35.7429 205.589 35.7429C203.76 35.7809 201.94 35.4784 200.222 34.8506C198.803 34.331 197.56 33.4199 196.638 32.2229C195.828 31.1016 195.352 29.7733 195.267 28.3925C195.262 28.3254 195.271 28.2579 195.295 28.1949C195.319 28.1319 195.356 28.0748 195.404 28.0279C195.508 27.9259 195.649 27.8692 195.795 27.8701H199.832C199.953 27.8678 200.072 27.9082 200.166 27.9844C200.261 28.0605 200.326 28.1674 200.349 28.2865C200.43 28.9194 200.694 29.5152 201.107 30.0012C201.606 30.5539 202.241 30.9666 202.948 31.1987C203.782 31.4747 204.656 31.6101 205.535 31.5996C206.43 31.6163 207.321 31.4754 208.168 31.1832C208.837 30.9545 209.436 30.5583 209.908 30.0323C210.316 29.5612 210.54 28.9587 210.539 28.3356C210.549 27.8028 210.352 27.2867 209.991 26.8951C209.551 26.4567 209.022 26.1188 208.439 25.9045C207.651 25.5979 206.841 25.3498 206.016 25.1622L203.044 24.451C200.879 23.9312 199.157 23.1501 197.872 22.0664C196.586 20.9827 195.934 19.5292 195.934 17.7395C195.911 16.3368 196.367 14.9681 197.228 13.86C198.153 12.7116 199.363 11.8253 200.737 11.2892C202.326 10.6609 204.023 10.3507 205.731 10.3763C207.431 10.3434 209.12 10.654 210.697 11.2892C212.028 11.8262 213.194 12.7028 214.08 13.8316C214.819 14.8118 215.256 15.9867 215.337 17.2119C215.341 17.2654 215.334 17.3191 215.316 17.3697C215.278 17.4756 215.208 17.5669 215.115 17.6305C215.022 17.6941 214.911 17.7268 214.799 17.724H210.844C210.726 17.7273 210.61 17.6898 210.516 17.6178C210.422 17.5457 210.355 17.4435 210.327 17.3283C210.252 16.9162 210.091 16.5242 209.857 16.177C209.622 15.8298 209.318 15.535 208.964 15.311C208.126 14.7627 207.014 14.4833 205.664 14.4833C204.828 14.4653 203.996 14.6021 203.21 14.8868C202.614 15.0979 202.086 15.4639 201.679 15.9472C201.336 16.3762 201.148 16.9085 201.146 17.4576C201.135 17.8858 201.255 18.307 201.49 18.6654C201.74 19.027 202.068 19.3283 202.449 19.5473C202.891 19.8051 203.359 20.0149 203.846 20.1732C204.363 20.3416 204.887 20.484 205.418 20.6L207.87 21.169C208.853 21.3812 209.817 21.6744 210.751 22.0457ZM249.215 22.1104H239.697C239.646 22.1104 239.596 22.1205 239.549 22.1402C239.502 22.1599 239.459 22.1888 239.423 22.2251C239.387 22.2614 239.359 22.3045 239.34 22.3519C239.321 22.3992 239.311 22.4499 239.312 22.5009V26.0856C239.312 26.1878 239.353 26.2858 239.425 26.3581C239.497 26.4303 239.595 26.4709 239.697 26.4709H245.056C244.976 27.2657 244.737 28.0362 244.353 28.7365C243.858 29.6222 243.113 30.342 242.211 30.8056C241.189 31.3138 240.058 31.5651 238.916 31.5375C237.618 31.5616 236.341 31.2075 235.241 30.5185C234.144 29.7865 233.285 28.7501 232.769 27.5365C232.179 26.2433 231.879 24.9062 231.879 23.0259C231.83 21.4844 232.134 19.9522 232.769 18.5464C233.286 17.3405 234.142 16.3108 235.233 15.5825C236.302 14.9044 237.545 14.553 238.81 14.5713C239.51 14.5652 240.208 14.6619 240.879 14.8584C241.486 15.0362 242.055 15.3218 242.561 15.7015C243.053 16.0774 243.48 16.5317 243.825 17.0464C244.156 17.5496 244.417 18.095 244.601 18.668C244.617 18.7239 244.651 18.773 244.698 18.8072C244.745 18.8415 244.802 18.859 244.86 18.8568H249.094C249.134 18.8578 249.174 18.8495 249.21 18.8324C249.246 18.8153 249.278 18.79 249.303 18.7585C249.329 18.7288 249.348 18.6936 249.358 18.6555C249.369 18.6174 249.37 18.5774 249.363 18.5387C249.171 17.425 248.779 16.3551 248.206 15.3808C247.6 14.3562 246.811 13.4515 245.879 12.7117C244.911 11.9506 243.818 11.3634 242.648 10.9763C241.387 10.5627 240.066 10.3566 238.738 10.3659C237.165 10.3523 235.605 10.653 234.15 11.2504C232.753 11.8322 231.498 12.7071 230.469 13.8161C229.389 15.0015 228.561 16.3933 228.033 17.9076C227.429 19.564 227.134 21.3174 227.164 23.0803C227.164 25.7287 227.661 27.7589 228.638 29.6857C229.557 31.5425 230.991 33.0957 232.769 34.1601C234.517 35.1946 236.578 35.7325 238.896 35.7325C240.823 35.7675 242.73 35.3297 244.449 34.4575C246.037 33.6257 247.355 32.359 248.25 30.8056C249.169 29.2331 249.634 27.3425 249.634 25.1907V22.5268C249.634 22.4719 249.623 22.4175 249.602 22.3668C249.581 22.3162 249.55 22.2701 249.511 22.2314C249.472 22.1927 249.426 22.1621 249.375 22.1413C249.324 22.1206 249.27 22.1101 249.215 22.1104ZM187.508 10.6711H191.553C191.661 10.6711 191.764 10.7139 191.84 10.7901C191.916 10.8662 191.959 10.9695 191.959 11.0772V34.9593C191.959 35.0665 191.917 35.1694 191.841 35.2455C191.766 35.3215 191.663 35.3646 191.556 35.3653H187.467C187.39 35.365 187.315 35.3448 187.248 35.3067C187.181 35.2686 187.126 35.214 187.086 35.1481L174.84 18.3629V24.6812H174.814V34.9696C174.814 35.0773 174.772 35.1806 174.695 35.2567C174.619 35.3329 174.516 35.3757 174.408 35.3757H170.389C170.282 35.3757 170.178 35.3329 170.102 35.2567C170.026 35.1806 169.983 35.0773 169.983 34.9696V11.0772C169.983 10.9695 170.026 10.8662 170.102 10.7901C170.178 10.7139 170.282 10.6711 170.389 10.6711H174.786C174.862 10.6712 174.937 10.6913 175.004 10.7294C175.07 10.7675 175.125 10.8223 175.164 10.8884L187.102 27.5727V23.0234V20.5664V11.0772C187.102 10.9695 187.145 10.8662 187.221 10.7901C187.297 10.7139 187.4 10.6711 187.508 10.6711ZM274.512 10.6711H270.48C270.372 10.6711 270.269 10.7139 270.193 10.79C270.116 10.8662 270.074 10.9695 270.074 11.0772V19.7465C270.074 19.8243 270.058 19.9013 270.029 19.9731C269.999 20.045 269.955 20.1103 269.9 20.1653C269.845 20.2203 269.78 20.2639 269.708 20.2937C269.636 20.3234 269.559 20.3388 269.481 20.3388H258.373C258.295 20.3388 258.218 20.3234 258.147 20.2937C258.075 20.2639 258.009 20.2203 257.954 20.1653C257.899 20.1103 257.856 20.045 257.826 19.9731C257.796 19.9013 257.781 19.8243 257.781 19.7465V11.0772C257.781 10.9695 257.738 10.8662 257.662 10.79C257.586 10.7139 257.483 10.6711 257.375 10.6711H253.343C253.29 10.6714 253.237 10.6822 253.189 10.7028C253.14 10.7234 253.095 10.7534 253.058 10.7911C253.021 10.8288 252.992 10.8735 252.972 10.9226C252.952 10.9716 252.942 11.0242 252.942 11.0772V34.967C252.942 35.0202 252.952 35.0729 252.972 35.1222C252.992 35.1714 253.022 35.2162 253.059 35.2539C253.097 35.2917 253.141 35.3216 253.19 35.3421C253.239 35.3625 253.292 35.373 253.345 35.373H257.377C257.431 35.373 257.484 35.3625 257.533 35.3421C257.582 35.3217 257.627 35.2918 257.665 35.2541C257.702 35.2164 257.732 35.1716 257.753 35.1224C257.773 35.0731 257.783 35.0203 257.783 34.967V25.1907C257.783 25.113 257.798 25.0361 257.828 24.9642C257.857 24.8924 257.9 24.8271 257.955 24.7721C258.01 24.717 258.075 24.6734 258.147 24.6436C258.219 24.6138 258.296 24.5984 258.373 24.5984H269.494C269.572 24.5981 269.649 24.6132 269.721 24.6428C269.793 24.6725 269.859 24.7161 269.914 24.7711C269.969 24.8262 270.013 24.8916 270.042 24.9636C270.072 25.0357 270.087 25.1128 270.087 25.1907V34.967C270.087 35.0747 270.129 35.1779 270.206 35.2541C270.282 35.3302 270.385 35.373 270.493 35.373H274.525C274.632 35.373 274.736 35.3302 274.812 35.2541C274.888 35.1779 274.931 35.0747 274.931 34.967V11.0772C274.931 11.0227 274.92 10.9688 274.899 10.9187C274.877 10.8686 274.846 10.8232 274.807 10.7854C274.768 10.7475 274.722 10.7178 274.671 10.6982C274.62 10.6786 274.566 10.6694 274.512 10.6711ZM278.223 10.6841H297.879C297.986 10.6861 298.087 10.7298 298.161 10.8057C298.236 10.8817 298.278 10.9838 298.277 11.0901V14.5687C298.278 14.6196 298.268 14.6699 298.249 14.717C298.23 14.7641 298.201 14.8068 298.166 14.8429C298.13 14.879 298.087 14.9076 298.04 14.9271C297.993 14.9466 297.943 14.9567 297.892 14.9567H291.129C290.972 14.9567 290.822 15.0187 290.711 15.1292C290.6 15.2397 290.537 15.3897 290.537 15.5464L290.467 34.9696C290.466 35.0803 290.422 35.1862 290.343 35.2642C290.265 35.3422 290.158 35.386 290.048 35.386H286.044C285.936 35.386 285.833 35.3433 285.756 35.2672C285.68 35.1912 285.636 35.0879 285.636 34.98V15.5489C285.636 15.3919 285.573 15.2412 285.462 15.1301C285.351 15.0191 285.2 14.9567 285.043 14.9567H278.202C278.1 14.956 278.002 14.9148 277.93 14.8421C277.858 14.7695 277.817 14.6712 277.817 14.5687V11.0901C277.817 10.9824 277.86 10.8792 277.936 10.803C278.012 10.7269 278.115 10.6841 278.223 10.6841ZM165.186 10.6841H161.133C160.909 10.6841 160.727 10.8659 160.727 11.0901V34.98C160.727 35.2042 160.909 35.386 161.133 35.386H165.186C165.41 35.386 165.592 35.2042 165.592 34.98V11.0901C165.592 10.8659 165.41 10.6841 165.186 10.6841ZM219.418 10.6841H223.471C223.695 10.6841 223.877 10.8659 223.877 11.0901V34.98C223.877 35.2042 223.695 35.386 223.471 35.386H219.418C219.194 35.386 219.012 35.2042 219.012 34.98V11.0901C219.012 10.8659 219.194 10.6841 219.418 10.6841Z" fill="black"/>
<path fill-rule="evenodd" clip-rule="evenodd" d="M400.059 35.7171C398.055 35.7171 396.413 35.1792 395.176 34.1213C393.94 33.0635 393.309 31.4186 393.309 29.2461V20.0492C393.303 19.9585 393.268 19.8722 393.208 19.8033C393.149 19.7343 393.069 19.6863 392.981 19.6664H390.275C390.159 19.6664 390.047 19.6201 389.964 19.5376C389.882 19.4552 389.836 19.3434 389.836 19.2267V16.1232C389.836 16.0066 389.882 15.8947 389.964 15.8123C390.047 15.7298 390.159 15.6835 390.275 15.6835H392.882C392.991 15.6836 393.095 15.6421 393.173 15.5674C393.252 15.4928 393.299 15.3908 393.304 15.2826V13.3196C393.304 13.2621 393.315 13.205 393.336 13.1518C393.358 13.0985 393.39 13.0501 393.431 13.0092L397.018 9.40132C397.1 9.31904 397.212 9.27257 397.328 9.272C397.386 9.27132 397.444 9.2822 397.498 9.30402C397.551 9.32584 397.6 9.35816 397.642 9.39909C397.683 9.44002 397.715 9.48874 397.738 9.54241C397.76 9.59608 397.771 9.65362 397.771 9.71168V15.2593C397.772 15.3712 397.817 15.478 397.896 15.5568C397.976 15.6357 398.083 15.6802 398.195 15.6809H404.348C404.464 15.6809 404.576 15.7272 404.658 15.8097C404.741 15.8921 404.787 16.004 404.787 16.1206V19.2242C404.787 19.3408 404.741 19.4526 404.658 19.5351C404.576 19.6175 404.464 19.6638 404.348 19.6638H398.179C398.07 19.6678 397.967 19.7135 397.891 19.7916C397.815 19.8696 397.772 19.9739 397.771 20.0828V28.4496C397.771 29.66 397.998 30.3557 398.546 30.8445C398.546 30.8445 399.258 31.473 401.332 31.473H404.337C404.454 31.473 404.566 31.5193 404.648 31.6017C404.73 31.6842 404.777 31.796 404.777 31.9126V35.2748C404.777 35.3915 404.73 35.5033 404.648 35.5857C404.566 35.6682 404.454 35.7145 404.337 35.7145L400.059 35.7171ZM344.654 35.2299C344.745 35.3209 344.868 35.3724 344.997 35.373H348.566C348.695 35.3724 348.818 35.3209 348.909 35.2299C349 35.1388 349.051 35.0156 349.052 34.8868V23.0725C349.081 21.6981 348.778 20.337 348.168 19.1051C347.593 17.9854 346.702 17.0598 345.605 16.4438C344.409 15.7943 343.064 15.4688 341.704 15.4998C340.656 15.495 339.617 15.6871 338.64 16.0662C337.655 16.4596 336.759 17.0452 336.004 17.7887C335.872 17.9154 335.743 18.0525 335.614 18.2025L335.567 18.324V9.87453C335.567 9.74558 335.516 9.6219 335.425 9.53072C335.333 9.43953 335.21 9.38831 335.081 9.38831H331.506C331.378 9.38831 331.254 9.43953 331.163 9.53072C331.071 9.6219 331.02 9.74558 331.02 9.87453V34.8868C331.02 35.0158 331.071 35.1394 331.163 35.2306C331.254 35.3218 331.378 35.373 331.506 35.373H335.386C335.515 35.373 335.639 35.3218 335.73 35.2306C335.821 35.1394 335.872 35.0158 335.872 34.8868V23.8251C336.177 23.1063 336.554 22.42 336.997 21.7768C337.485 21.0482 338.134 20.4413 338.893 20.0026C339.577 19.6321 340.344 19.4408 341.122 19.4465C341.741 19.4347 342.35 19.5959 342.881 19.912C343.399 20.2316 343.813 20.6942 344.073 21.244C344.378 21.8902 344.528 22.5987 344.511 23.313V34.8868C344.511 35.0156 344.563 35.1388 344.654 35.2299ZM530.852 10.1332H532.378C532.515 10.1332 532.626 10.2443 532.626 10.3815V11.9514C532.626 12.0885 532.515 12.1996 532.378 12.1996H530.852C530.715 12.1996 530.604 12.0885 530.604 11.9514V10.3815C530.604 10.2443 530.715 10.1332 530.852 10.1332ZM530.857 13.0402H532.378C532.515 13.0402 532.626 13.1513 532.626 13.2884V21.6759C532.626 21.813 532.515 21.9242 532.378 21.9242H530.857C530.72 21.9242 530.609 21.813 530.609 21.6759V13.2884C530.609 13.1513 530.72 13.0402 530.857 13.0402ZM328.349 26.8745H324.322C324.204 26.8751 324.091 26.9168 324.001 26.9924C323.911 27.068 323.851 27.1727 323.83 27.2883C323.685 28.0959 323.364 28.8615 322.889 29.5306C322.359 30.2582 321.645 30.8314 320.82 31.191C319.889 31.5876 318.885 31.7832 317.874 31.7652C316.676 31.8006 315.501 31.4367 314.532 30.7307C313.457 29.9805 312.623 28.9336 312.132 27.7176C311.534 26.2402 311.243 24.656 311.279 23.0622C311.244 21.4669 311.541 19.8816 312.151 18.4069C312.658 17.1821 313.517 16.1347 314.618 15.3964C315.62 14.6913 316.823 14.3285 318.047 14.3619C318.995 14.3481 319.936 14.5377 320.804 14.9179C321.588 15.2619 322.264 15.8104 322.762 16.5059C323.204 17.1376 323.507 17.8562 323.649 18.6138C323.673 18.728 323.735 18.8308 323.825 18.9054C323.914 18.9801 324.027 19.0222 324.143 19.025H328.209C328.28 19.0247 328.35 19.0093 328.415 18.9799C328.479 18.9505 328.537 18.9077 328.584 18.8543C328.631 18.7988 328.666 18.734 328.687 18.664C328.707 18.594 328.713 18.5205 328.703 18.4482C328.516 16.9866 327.97 15.5941 327.112 14.3955C326.151 13.0915 324.859 12.0675 323.37 11.429C321.688 10.7149 319.874 10.3625 318.047 10.3945C315.627 10.3945 313.493 10.9117 311.706 11.9462C309.914 12.981 308.463 14.5174 307.534 16.3663C306.554 18.2646 306.057 20.5251 306.057 23.0907C306.057 25.6563 306.543 27.909 307.498 29.8151C308.401 31.6605 309.829 33.1982 311.602 34.2351C313.363 35.2697 315.482 35.7869 317.874 35.7869C319.747 35.8213 321.607 35.4627 323.334 34.7343C324.864 34.0626 326.188 32.9959 327.169 31.6436C328.061 30.4058 328.635 28.9679 328.84 27.4564C328.852 27.385 328.848 27.3119 328.828 27.2422C328.809 27.1725 328.775 27.1078 328.728 27.0525C328.681 26.9972 328.623 26.9527 328.558 26.922C328.492 26.8912 328.421 26.875 328.349 26.8745ZM437.346 10.6841H457.002C457.109 10.6861 457.21 10.7298 457.285 10.8057C457.359 10.8817 457.401 10.9838 457.401 11.0901V14.5687C457.401 14.6712 457.36 14.7695 457.288 14.8421C457.216 14.9148 457.118 14.956 457.015 14.9567H450.252C450.096 14.9567 449.945 15.0187 449.834 15.1292C449.723 15.2397 449.661 15.3897 449.66 15.5464L449.59 34.9696C449.589 35.0803 449.545 35.1862 449.466 35.2642C449.388 35.3422 449.282 35.386 449.171 35.386H445.165C445.057 35.3853 444.955 35.3423 444.879 35.2663C444.803 35.1903 444.76 35.0874 444.759 34.98V15.5489C444.759 15.3919 444.696 15.2412 444.585 15.1302C444.474 15.0191 444.324 14.9567 444.167 14.9567H437.326C437.223 14.956 437.125 14.9148 437.053 14.8421C436.981 14.7695 436.94 14.6712 436.94 14.5687V11.0901C436.94 10.9824 436.983 10.8792 437.059 10.803C437.136 10.7269 437.239 10.6841 437.346 10.6841ZM435.081 26.8744H431.054C430.937 26.875 430.823 26.9168 430.733 26.9924C430.644 27.068 430.583 27.1727 430.563 27.2882C430.418 28.0959 430.096 28.8615 429.621 29.5306C429.091 30.2582 428.377 30.8313 427.552 31.191C426.622 31.5876 425.618 31.7832 424.606 31.7652C423.409 31.8006 422.233 31.4367 421.265 30.7306C420.189 29.9805 419.355 28.9336 418.865 27.7176C418.266 26.2401 417.976 24.6559 418.011 23.0622C417.976 21.4668 418.273 19.8816 418.883 18.4068C419.39 17.182 420.249 16.1347 421.35 15.3964C422.352 14.6913 423.555 14.3285 424.78 14.3618C425.728 14.3481 426.668 14.5377 427.537 14.9179C428.32 15.2618 428.996 15.8104 429.494 16.5059C429.936 17.1376 430.239 17.8561 430.382 18.6137C430.405 18.7279 430.467 18.8307 430.557 18.9054C430.647 18.98 430.759 19.0222 430.876 19.025H434.941C435.012 19.0247 435.082 19.0093 435.147 18.9799C435.212 18.9505 435.269 18.9076 435.316 18.8543C435.364 18.7988 435.399 18.7339 435.419 18.664C435.44 18.594 435.445 18.5205 435.435 18.4482C435.248 16.9865 434.702 15.5941 433.845 14.3955C432.887 13.0833 431.596 12.051 430.105 11.4057C428.423 10.6916 426.609 10.3392 424.782 10.3711C422.361 10.3711 420.228 10.8884 418.441 11.9229C416.648 12.9577 415.198 14.4941 414.269 16.3429C413.289 18.2413 412.792 20.5017 412.792 23.0674C412.792 25.633 413.278 27.8857 414.233 29.7918C415.136 31.6372 416.563 33.1749 418.337 34.2118C420.098 35.2463 422.217 35.7636 424.609 35.7636C426.482 35.798 428.342 35.4394 430.069 34.711C431.59 34.0536 432.912 33.0062 433.899 31.6746C434.79 30.4368 435.364 28.9989 435.57 27.4874C435.581 27.416 435.577 27.3429 435.558 27.2732C435.539 27.2035 435.504 27.1388 435.458 27.0835C435.411 27.0282 435.353 26.9837 435.288 26.953C435.222 26.9222 435.151 26.906 435.078 26.9055L435.081 26.8744ZM375.846 34.9696C377.261 35.4968 378.763 35.7504 380.272 35.717C381.788 35.7425 383.294 35.4647 384.702 34.8997C385.871 34.437 386.889 33.659 387.643 32.6522C388.335 31.6852 388.703 30.5233 388.693 29.334C388.685 27.9477 388.248 26.8149 387.356 25.9718C386.463 25.1286 385.08 24.482 383.241 24.0941L379.734 23.3648C378.818 23.1553 378.169 22.8811 377.75 22.5216C377.546 22.3633 377.382 22.16 377.27 21.9276C377.157 21.6951 377.101 21.4399 377.103 21.1819C377.094 20.7513 377.248 20.3331 377.533 20.0103C377.844 19.6566 378.241 19.3893 378.686 19.2344C379.201 19.0536 379.744 18.966 380.29 18.9758C381.096 18.9446 381.891 19.173 382.558 19.6275C383.007 19.9476 383.345 20.3996 383.525 20.9207C383.563 21.0276 383.633 21.1201 383.726 21.1851C383.818 21.2501 383.929 21.2842 384.043 21.2828H387.625C387.705 21.283 387.785 21.2654 387.858 21.2313C387.931 21.1972 387.996 21.1473 388.048 21.0853C388.099 21.0233 388.136 20.9507 388.157 20.8726C388.177 20.7945 388.18 20.7129 388.165 20.6336C388.006 19.7752 387.659 18.9627 387.149 18.2542C386.443 17.313 385.487 16.5896 384.389 16.167C383.058 15.6518 381.639 15.4022 380.212 15.4325C378.758 15.4027 377.312 15.6539 375.952 16.1722C374.844 16.5954 373.879 17.3257 373.17 18.2775C372.51 19.2151 372.172 20.3411 372.205 21.4871C372.18 22.1372 372.287 22.7856 372.52 23.3932C372.752 24.0009 373.105 24.5551 373.558 25.0226C374.471 25.9485 375.857 26.6183 377.667 26.983L380.882 27.6322C381.818 27.8391 382.498 28.1106 382.951 28.4598C383.173 28.6214 383.353 28.834 383.476 29.0798C383.599 29.3255 383.661 29.5972 383.657 29.8719C383.665 30.3165 383.508 30.7483 383.217 31.0849C382.892 31.4453 382.477 31.713 382.015 31.8608C381.451 32.0441 380.861 32.1315 380.269 32.1194C379.25 32.1194 378.42 31.9099 377.799 31.4936C377.309 31.1685 376.944 30.6858 376.765 30.1254C376.728 30.0169 376.659 29.9226 376.566 29.8558C376.473 29.789 376.362 29.753 376.247 29.753H372.368C372.285 29.753 372.203 29.7719 372.128 29.8082C372.053 29.8445 371.987 29.8972 371.936 29.9625C371.885 30.0259 371.849 30.1 371.831 30.1792C371.812 30.2585 371.812 30.3409 371.83 30.4202C372.022 31.3004 372.403 32.1282 372.947 32.8462C373.704 33.8033 374.706 34.5372 375.846 34.9696ZM361.179 35.717C355.254 35.717 351.116 31.5789 351.116 25.6304V25.558C351.116 20.6854 354.114 15.4403 360.685 15.4403C367.257 15.4403 370.255 20.6854 370.255 25.8839C370.255 26.202 370.231 26.5175 370.203 26.8692C370.195 26.9669 370.151 27.0581 370.079 27.1247C370.007 27.1913 369.913 27.2284 369.815 27.2287H355.903C355.876 27.2283 355.85 27.2342 355.825 27.2459C355.801 27.2576 355.78 27.2747 355.764 27.296C355.747 27.3149 355.735 27.3374 355.729 27.3616C355.723 27.3858 355.722 27.4112 355.727 27.4357C356.283 30.1875 358.399 31.8971 361.249 31.8971C363.212 31.8971 364.736 31.2712 366.342 29.8047C366.412 29.7396 366.504 29.7028 366.6 29.7013C366.695 29.6995 366.787 29.7326 366.859 29.7944L369.104 31.7341C369.142 31.7662 369.174 31.8055 369.197 31.8499C369.22 31.8943 369.234 31.9429 369.238 31.9927C369.242 32.0437 369.235 32.0949 369.219 32.1432C369.202 32.1916 369.176 32.2363 369.143 32.2747C367.102 34.5661 364.412 35.717 361.179 35.717ZM360.737 19.1077C358.19 19.1077 356.286 20.8871 355.774 23.7631C355.769 23.7878 355.77 23.8133 355.777 23.8375C355.783 23.8618 355.796 23.8841 355.813 23.9027C355.829 23.924 355.85 23.9412 355.875 23.9528C355.899 23.9645 355.925 23.9704 355.952 23.97H365.426C365.452 23.9699 365.478 23.9641 365.502 23.9529C365.526 23.9418 365.546 23.9255 365.563 23.9053C365.58 23.887 365.592 23.8652 365.599 23.8415C365.607 23.8178 365.608 23.7927 365.605 23.7683C365.188 20.8457 363.362 19.1077 360.737 19.1077ZM478.751 15.9473H483.008C483.161 15.9473 483.285 16.0712 483.285 16.224V17.6749C483.285 17.8278 483.161 17.9517 483.008 17.9517H478.751C478.598 17.9517 478.474 17.8278 478.474 17.6749V16.224C478.474 16.0712 478.598 15.9473 478.751 15.9473ZM567.237 21.9552C567.208 21.9555 567.18 21.9502 567.153 21.9394C567.127 21.9286 567.102 21.9126 567.082 21.8923C567.062 21.8721 567.046 21.848 567.035 21.8215C567.024 21.795 567.019 21.7666 567.019 21.7379V13.2367C567.019 13.2081 567.024 13.1797 567.035 13.1532C567.046 13.1267 567.062 13.1026 567.082 13.0823C567.102 13.0621 567.127 13.0461 567.153 13.0353C567.18 13.0245 567.208 13.0191 567.237 13.0195H568.832C568.861 13.0191 568.889 13.0245 568.916 13.0353C568.942 13.0461 568.967 13.0621 568.987 13.0823C569.007 13.1026 569.023 13.1267 569.034 13.1532C569.045 13.1797 569.05 13.2081 569.05 13.2367V14.7885C569.6 13.6091 570.482 12.9393 571.61 12.8488H571.848C571.877 12.8484 571.905 12.8538 571.932 12.8645C571.959 12.8752 571.984 12.8912 572.004 12.9113C572.025 12.9315 572.041 12.9555 572.053 12.9821C572.064 13.0086 572.07 13.0372 572.07 13.066V14.9204C572.073 14.9433 572.07 14.9664 572.062 14.9879C572.054 15.0094 572.041 15.0288 572.024 15.0446C571.992 15.0701 571.953 15.0846 571.913 15.0859C571.807 15.0859 571.701 15.0859 571.6 15.0989C570.11 15.2308 569.181 16.3144 569.05 18.0757V21.7379C569.05 21.7666 569.045 21.795 569.034 21.8215C569.023 21.848 569.007 21.8721 568.987 21.8923C568.967 21.9126 568.942 21.9286 568.916 21.9394C568.889 21.9502 568.861 21.9555 568.832 21.9552H567.237ZM465.015 10.6841H466.6C466.724 10.6841 466.825 10.7848 466.825 10.9091V21.6682C466.825 21.7924 466.724 21.8932 466.6 21.8932H465.015C464.891 21.8932 464.79 21.7924 464.79 21.6682V10.9091C464.79 10.7848 464.891 10.6841 465.015 10.6841ZM492.613 21.8932C492.568 21.8928 492.523 21.8785 492.486 21.8522C492.448 21.8259 492.42 21.7887 492.404 21.7458L491.488 19.2008C491.478 19.1751 491.461 19.153 491.439 19.1373C491.416 19.1217 491.389 19.1131 491.362 19.1129H487.105C487.077 19.1129 487.051 19.1214 487.029 19.1372C487.006 19.1529 486.989 19.1751 486.98 19.2008L486.049 21.7458C486.034 21.7887 486.006 21.826 485.969 21.8524C485.932 21.8788 485.888 21.893 485.842 21.8932H484.138C484.102 21.8933 484.066 21.8847 484.034 21.868C484.002 21.8513 483.975 21.8271 483.954 21.7975C483.934 21.7681 483.921 21.7342 483.916 21.6985C483.912 21.6629 483.916 21.6268 483.929 21.5932L487.844 10.8315C487.86 10.7883 487.888 10.751 487.926 10.7246C487.963 10.6982 488.008 10.6841 488.054 10.6841H490.449C490.494 10.6841 490.539 10.6982 490.577 10.7246C490.614 10.751 490.643 10.7883 490.658 10.8315L494.589 21.5932C494.602 21.6267 494.606 21.6627 494.602 21.6982C494.597 21.7337 494.584 21.7676 494.564 21.797C494.544 21.8265 494.517 21.8506 494.485 21.8673C494.453 21.8841 494.418 21.8929 494.382 21.8932H492.613ZM489.23 13.1902C489.202 13.1901 489.175 13.1991 489.152 13.2158C489.129 13.2326 489.112 13.2563 489.104 13.2833L487.702 17.1421C487.692 17.1609 487.687 17.1817 487.687 17.2029C487.687 17.2241 487.692 17.2449 487.702 17.2637C487.713 17.2775 487.727 17.2885 487.743 17.2957C487.76 17.3029 487.777 17.3061 487.795 17.3051H490.64C490.661 17.3051 490.682 17.2999 490.701 17.29C490.72 17.2801 490.736 17.2657 490.749 17.2482C490.761 17.2309 490.769 17.2106 490.772 17.1894C490.775 17.1681 490.772 17.1465 490.764 17.1266L489.36 13.2885C489.352 13.26 489.335 13.2349 489.312 13.2171C489.289 13.1993 489.26 13.1898 489.23 13.1902ZM495.631 24.7443C495.658 24.7556 495.687 24.7614 495.717 24.7614H497.31C497.37 24.7614 497.427 24.7377 497.469 24.6955C497.511 24.6533 497.535 24.5961 497.535 24.5364V21.094C497.535 21.0655 497.553 21.0449 497.595 21.0449C497.61 21.0426 497.626 21.0426 497.641 21.0449C497.935 21.355 498.286 21.6046 498.676 21.7794C499.183 22.0032 499.732 22.116 500.287 22.1104C501.038 22.121 501.775 21.9105 502.408 21.5052C503.035 21.0934 503.54 20.5197 503.869 19.8448C504.215 19.1006 504.394 18.2899 504.394 17.4693C504.394 16.6486 504.215 15.8379 503.869 15.0937C503.54 14.4188 503.035 13.8451 502.408 13.4333C501.659 12.9618 500.772 12.7564 499.892 12.8502C499.012 12.944 498.189 13.3317 497.556 13.9506C497.525 13.9506 497.525 13.9273 497.525 13.8963V13.2342C497.522 13.1759 497.497 13.1209 497.454 13.0808C497.412 13.0408 497.356 13.0188 497.297 13.0195H495.717C495.658 13.0195 495.601 13.0429 495.559 13.0845C495.517 13.1261 495.493 13.1827 495.492 13.2419V24.5364C495.492 24.5659 495.498 24.5952 495.509 24.6225C495.52 24.6498 495.537 24.6746 495.558 24.6955C495.579 24.7164 495.604 24.733 495.631 24.7443ZM498.826 14.7502C499.126 14.6164 499.451 14.5483 499.78 14.5506C500.234 14.5435 500.68 14.6772 501.055 14.9334C501.435 15.2026 501.736 15.5687 501.927 15.9938C502.134 16.4775 502.242 16.9984 502.242 17.5249C502.242 18.0513 502.134 18.5723 501.927 19.056C501.736 19.481 501.435 19.8472 501.055 20.1164C500.68 20.3725 500.234 20.5062 499.78 20.4991C499.286 20.5048 498.805 20.3475 498.409 20.0517C498.144 19.8553 497.921 19.6083 497.752 19.325C497.6 19.0628 497.522 18.7643 497.525 18.4611V16.4981C497.524 16.2849 497.571 16.0743 497.664 15.8826C497.765 15.6816 497.891 15.4946 498.039 15.3265C498.258 15.0805 498.526 14.884 498.826 14.7502ZM505.693 24.7614C505.663 24.7614 505.634 24.7556 505.606 24.7443C505.579 24.733 505.554 24.7164 505.533 24.6955C505.513 24.6746 505.496 24.6498 505.485 24.6225C505.473 24.5952 505.468 24.5659 505.468 24.5364V13.2419C505.468 13.1827 505.492 13.1261 505.534 13.0845C505.576 13.0429 505.633 13.0195 505.693 13.0195H507.273C507.331 13.0188 507.388 13.0408 507.43 13.0808C507.472 13.1209 507.498 13.1759 507.5 13.2342V13.8963C507.5 13.9273 507.5 13.9506 507.531 13.9506C508.164 13.3317 508.987 12.944 509.868 12.8502C510.748 12.7564 511.634 12.9618 512.383 13.4333C513.011 13.8443 513.515 14.4183 513.842 15.0937C514.189 15.8375 514.37 16.6484 514.37 17.4693C514.37 18.2902 514.189 19.1011 513.842 19.8448C513.515 20.5203 513.011 21.0942 512.383 21.5052C511.751 21.9102 511.014 22.1207 510.263 22.1104C509.708 22.116 509.159 22.0032 508.651 21.7794C508.262 21.6046 507.91 21.355 507.617 21.0449C507.6 21.0424 507.584 21.0424 507.568 21.0449C507.529 21.0449 507.511 21.0655 507.511 21.094V24.5364C507.511 24.5961 507.487 24.6533 507.445 24.6955C507.403 24.7377 507.345 24.7614 507.286 24.7614H505.693ZM509.763 14.5506C509.435 14.5483 509.109 14.6164 508.809 14.7502C508.509 14.884 508.241 15.0805 508.023 15.3265C507.874 15.4946 507.748 15.6816 507.648 15.8826C507.555 16.0743 507.507 16.2849 507.508 16.4981V18.4611C507.505 18.7643 507.583 19.0628 507.736 19.325C507.904 19.6083 508.128 19.8553 508.393 20.0517C508.788 20.3475 509.27 20.5048 509.763 20.4991C510.218 20.5062 510.663 20.3725 511.038 20.1164C511.419 19.8472 511.72 19.481 511.91 19.056C512.118 18.5723 512.225 18.0513 512.225 17.5249C512.225 16.9984 512.118 16.4775 511.91 15.9938C511.72 15.5687 511.419 15.2026 511.038 14.9334C510.663 14.6772 510.218 14.5435 509.763 14.5506ZM474.893 21.8583C474.935 21.9005 474.993 21.9242 475.052 21.9242H476.622C476.682 21.9242 476.739 21.9005 476.781 21.8583C476.824 21.8161 476.847 21.7589 476.847 21.6992V16.3947C476.861 15.7666 476.72 15.1447 476.436 14.5843C476.171 14.0763 475.764 13.6566 475.264 13.3765C474.719 13.0816 474.107 12.9337 473.488 12.9471C473.012 12.9434 472.539 13.0312 472.096 13.2058C471.651 13.383 471.246 13.6467 470.904 13.9817C470.809 14.0814 470.723 14.1887 470.645 14.3024H470.627L470.604 14.3231V13.2446C470.601 13.1862 470.576 13.1312 470.534 13.0912C470.491 13.0511 470.435 13.0292 470.376 13.0299H468.796C468.767 13.0295 468.737 13.035 468.71 13.0461C468.683 13.0571 468.658 13.0734 468.637 13.0941C468.616 13.1148 468.6 13.1394 468.588 13.1666C468.577 13.1938 468.571 13.2229 468.571 13.2523V21.6992C468.571 21.7589 468.595 21.8161 468.637 21.8583C468.679 21.9005 468.736 21.9242 468.796 21.9242H470.379C470.439 21.9242 470.496 21.9005 470.538 21.8583C470.58 21.8161 470.604 21.7589 470.604 21.6992V16.8576C470.603 16.7594 470.624 16.6622 470.666 16.5731C470.798 16.2824 470.956 16.0045 471.139 15.7429C471.372 15.3959 471.683 15.1081 472.047 14.9024C472.384 14.7269 472.759 14.638 473.138 14.6438C473.448 14.637 473.754 14.7147 474.023 14.8688C474.278 15.0222 474.484 15.2457 474.615 15.5128C474.762 15.8202 474.834 16.1576 474.827 16.4981V21.6992C474.827 21.7589 474.851 21.8161 474.893 21.8583ZM538.622 22.1828C535.903 22.1828 533.93 20.2379 533.93 17.5585C533.93 14.8791 535.852 12.8824 538.399 12.8824C541.428 12.8824 542.796 15.2903 542.796 17.6749C542.796 17.8094 542.796 17.9335 542.775 18.0861C542.77 18.141 542.745 18.192 542.704 18.2293C542.663 18.2666 542.61 18.2874 542.555 18.2879H536.219C536.206 18.2878 536.193 18.2906 536.182 18.2959C536.17 18.3013 536.16 18.3091 536.152 18.3189C536.144 18.3285 536.138 18.3397 536.135 18.3518C536.132 18.3639 536.131 18.3765 536.133 18.3887C536.234 18.9801 536.547 19.5145 537.014 19.8916C537.481 20.2686 538.069 20.4626 538.668 20.4371C539.096 20.4429 539.521 20.3631 539.917 20.2023C540.314 20.0415 540.675 19.803 540.978 19.5008C541.019 19.4641 541.072 19.4438 541.128 19.4439C541.179 19.4437 541.229 19.4621 541.267 19.4957L542.235 20.3336C542.257 20.3527 542.275 20.3761 542.288 20.4023C542.301 20.4285 542.308 20.4571 542.31 20.4862C542.312 20.5149 542.309 20.5437 542.299 20.5709C542.29 20.5981 542.275 20.623 542.255 20.644C541.798 21.1489 541.235 21.5481 540.608 21.8138C539.98 22.0796 539.303 22.2055 538.622 22.1828ZM538.412 14.6825C537.24 14.6825 536.369 15.4998 536.131 16.8162C536.129 16.8284 536.131 16.8407 536.134 16.8525C536.138 16.8642 536.144 16.875 536.152 16.8843C536.16 16.8935 536.17 16.901 536.181 16.9062C536.192 16.9114 536.204 16.9142 536.216 16.9145H540.561C540.573 16.9145 540.585 16.912 540.597 16.9071C540.608 16.9022 540.618 16.895 540.626 16.8861C540.634 16.8768 540.639 16.8661 540.643 16.8545C540.647 16.843 540.648 16.8308 540.647 16.8188C540.453 15.4895 539.597 14.6696 538.412 14.6696V14.6825ZM556.635 17.5585C556.635 20.2379 558.609 22.1828 561.327 22.1828C562.005 22.2025 562.678 22.0751 563.302 21.8094C563.926 21.5438 564.485 21.1462 564.94 20.644C564.959 20.6228 564.974 20.5979 564.984 20.5708C564.994 20.5437 564.998 20.515 564.997 20.4862C564.995 20.4569 564.987 20.4283 564.973 20.4021C564.96 20.3759 564.942 20.3526 564.919 20.3336L563.952 19.4957C563.913 19.4621 563.864 19.4437 563.812 19.4439C563.757 19.4443 563.704 19.4645 563.662 19.5008C563.36 19.8028 563 20.0412 562.603 20.202C562.207 20.3628 561.783 20.4427 561.355 20.4371C560.756 20.4637 560.167 20.2702 559.7 19.8929C559.233 19.5156 558.92 18.9806 558.821 18.3887C558.818 18.3767 558.818 18.3641 558.821 18.352C558.823 18.34 558.829 18.3286 558.836 18.3189C558.844 18.3091 558.855 18.3013 558.866 18.2959C558.878 18.2906 558.891 18.2878 558.903 18.2879H565.25C565.305 18.2868 565.357 18.2657 565.397 18.2285C565.438 18.1912 565.462 18.1406 565.467 18.0861C565.488 17.9335 565.488 17.8094 565.488 17.6749C565.488 15.2903 564.133 12.8824 561.104 12.8824C558.557 12.8824 556.635 14.8791 556.635 17.5585ZM558.805 16.8162C559.041 15.4998 559.915 14.6825 561.084 14.6825V14.6696C562.289 14.6696 563.124 15.4688 563.318 16.8188C563.321 16.8307 563.32 16.8429 563.317 16.8545C563.314 16.8662 563.308 16.8769 563.3 16.8861C563.291 16.8951 563.281 16.9023 563.27 16.9072C563.258 16.912 563.246 16.9146 563.233 16.9145H558.891C558.878 16.9149 558.865 16.9123 558.853 16.9069C558.842 16.9016 558.831 16.8935 558.823 16.8835C558.815 16.8745 558.809 16.8637 558.806 16.852C558.803 16.8403 558.803 16.8281 558.805 16.8162ZM522.809 21.8932C522.763 21.8932 522.718 21.8791 522.681 21.8527C522.643 21.8263 522.615 21.7889 522.599 21.7458L518.774 10.9815C518.763 10.9477 518.759 10.9117 518.765 10.8764C518.77 10.8411 518.783 10.8075 518.804 10.7785C518.825 10.7494 518.852 10.7257 518.884 10.7093C518.915 10.6929 518.951 10.6842 518.986 10.6841H520.709C520.755 10.6837 520.801 10.698 520.839 10.7249C520.877 10.7518 520.906 10.79 520.921 10.8341L523.949 19.3689C523.967 19.431 523.999 19.4698 524.03 19.4698C524.061 19.4698 524.089 19.431 524.107 19.3715L527.123 10.8367C527.138 10.7935 527.167 10.7562 527.204 10.7298C527.242 10.7034 527.286 10.6892 527.332 10.6893H529.026C529.062 10.6893 529.098 10.6981 529.13 10.7147C529.162 10.7314 529.189 10.7555 529.21 10.785C529.231 10.8138 529.244 10.8474 529.248 10.8826C529.253 10.9178 529.249 10.9535 529.236 10.9867L525.413 21.7509C525.398 21.7941 525.369 21.8315 525.332 21.8578C525.294 21.8842 525.25 21.8984 525.204 21.8984L522.809 21.8932ZM551.648 21.9098C551.687 21.9391 551.734 21.9551 551.783 21.9553L553.604 21.9656C553.653 21.9654 553.701 21.9494 553.74 21.9201C553.779 21.8907 553.808 21.8496 553.821 21.8027L556.25 13.3144C556.26 13.2811 556.262 13.2459 556.256 13.2116C556.25 13.1774 556.235 13.1452 556.214 13.1178C556.193 13.0903 556.166 13.0681 556.135 13.0528C556.104 13.0375 556.07 13.0297 556.035 13.0299H554.597C554.548 13.0301 554.501 13.0461 554.462 13.0754C554.423 13.1047 554.394 13.1459 554.38 13.1928L552.673 19.2112C552.67 19.2246 552.662 19.2366 552.652 19.2451C552.641 19.2536 552.627 19.2581 552.614 19.2577C552.6 19.2576 552.587 19.253 552.576 19.2446C552.565 19.2361 552.557 19.2244 552.554 19.2112L550.777 13.1902C550.763 13.1436 550.735 13.1028 550.695 13.0739C550.656 13.0449 550.609 13.0295 550.56 13.0299H549.008C548.96 13.0297 548.913 13.0452 548.874 13.0741C548.835 13.103 548.807 13.1438 548.794 13.1902L547.071 19.1853C547.068 19.1983 547.06 19.2097 547.049 19.2177C547.038 19.2257 547.025 19.2298 547.012 19.2293C546.998 19.2303 546.985 19.2264 546.974 19.2183C546.963 19.2102 546.955 19.1985 546.952 19.1853L545.237 13.1825C545.223 13.1356 545.195 13.0944 545.156 13.0651C545.117 13.0357 545.069 13.0197 545.02 13.0195H543.486C543.452 13.0192 543.417 13.0272 543.386 13.0427C543.355 13.0582 543.327 13.0808 543.306 13.1088C543.286 13.1367 543.272 13.1692 543.266 13.2036C543.26 13.2379 543.262 13.2732 543.272 13.3066L545.716 21.7923C545.73 21.8388 545.758 21.8797 545.796 21.909C545.835 21.9383 545.882 21.9545 545.931 21.9553H547.728C547.777 21.9551 547.824 21.9391 547.864 21.9098C547.903 21.8804 547.931 21.8392 547.945 21.7923L549.696 15.7145C549.699 15.701 549.707 15.689 549.718 15.6806C549.728 15.6721 549.742 15.6676 549.756 15.6679C549.769 15.6681 549.783 15.6727 549.793 15.6811C549.804 15.6895 549.812 15.7013 549.815 15.7145L551.566 21.7923C551.58 21.8392 551.609 21.8804 551.648 21.9098Z" fill="#00C9EA"/>
</g>
<defs>
<clipPath id="clip0_9065_96246">
<rect width="573" height="40" fill="white"/>
</clipPath>
</defs>
</svg>
