<svg width="402" height="40" viewBox="0 0 402 40" fill="none" xmlns="http://www.w3.org/2000/svg">
<g clip-path="url(#clip0_9065_91857)">
<path d="M20 0C16.0444 0 12.1776 1.17298 8.8886 3.37061C5.59962 5.56824 3.03617 8.69181 1.52242 12.3463C0.0086657 16.0009 -0.387401 20.0222 0.384303 23.9018C1.15601 27.7814 3.06082 31.3451 5.85787 34.1421C8.65492 36.9392 12.2186 38.844 16.0982 39.6157C19.9778 40.3874 23.9992 39.9913 27.6537 38.4776C31.3082 36.9638 34.4318 34.4004 36.6294 31.1114C38.827 27.8224 40 23.9556 40 20C40 14.6957 37.8929 9.60859 34.1421 5.85786C30.3914 2.10714 25.3043 0 20 0ZM26.0106 18.6629C24.0815 18.6864 22.238 19.4631 20.8739 20.8273C19.5097 22.1915 18.7329 24.035 18.7094 25.964C18.7094 25.9951 18.7094 26.0261 18.7094 26.0572C18.7094 26.9907 18.4326 27.9033 17.914 28.6795C17.3953 29.4557 16.6582 30.0606 15.7957 30.4179C14.9332 30.7751 13.9842 30.8686 13.0686 30.6865C12.153 30.5044 11.3119 30.0548 10.6518 29.3947C9.99173 28.7346 9.54219 27.8936 9.36007 26.978C9.17794 26.0624 9.27142 25.1134 9.62866 24.2509C9.98591 23.3884 10.5909 22.6512 11.3671 22.1326C12.1433 21.6139 13.0559 21.3371 13.9894 21.3371C14.9529 21.3368 15.9068 21.1459 16.7962 20.7753C17.6856 20.4047 18.4929 19.8618 19.1716 19.1778C19.8502 18.4939 20.3869 17.6824 20.7505 16.7902C21.1142 15.8979 21.2977 14.9425 21.2906 13.979V13.9428C21.2906 13.0093 21.5674 12.0967 22.0861 11.3205C22.6047 10.5443 23.3419 9.93935 24.2043 9.5821C25.0668 9.22485 26.0159 9.13138 26.9314 9.31351C27.847 9.49563 28.6881 9.94517 29.3482 10.6053C30.0083 11.2654 30.4578 12.1064 30.6399 13.022C30.8221 13.9376 30.7286 14.8866 30.3714 15.7491C30.0141 16.6116 29.4091 17.3488 28.6329 17.8674C27.8567 18.386 26.9441 18.6629 26.0106 18.6629Z" fill="#00C9EA"/>
<path fill-rule="evenodd" clip-rule="evenodd" d="M57.9593 30.5186H72.4013C72.5081 30.5206 72.6097 30.5647 72.6843 30.6411C72.7589 30.7176 72.8003 30.8204 72.7996 30.9272V34.9696C72.7989 35.0771 72.7559 35.18 72.6799 35.256C72.6039 35.332 72.501 35.375 72.3935 35.3757H56.0997C54.7154 35.3736 53.3884 34.8228 52.4096 33.844C51.4308 32.8652 50.88 31.5382 50.8779 30.1539V3.95451C50.8779 3.84682 50.9207 3.74354 50.9969 3.66739C51.073 3.59124 51.1763 3.54846 51.284 3.54846H55.7428C55.8505 3.54846 55.9538 3.59124 56.0299 3.66739C56.1061 3.74354 56.1488 3.84682 56.1488 3.95451V28.7082C56.1549 29.1864 56.3476 29.6434 56.6858 29.9817C57.024 30.3199 57.481 30.5126 57.9593 30.5186ZM125.335 5.77271H129.422C129.646 5.77271 129.828 5.9545 129.828 6.17876V10.2651C129.828 10.4894 129.646 10.6712 129.422 10.6712H125.335C125.111 10.6712 124.929 10.4894 124.929 10.2651V6.17876C124.929 5.9545 125.111 5.77271 125.335 5.77271ZM397.416 9.1271H400.74C400.816 9.12642 400.891 9.14083 400.962 9.16951C401.033 9.19818 401.097 9.24056 401.151 9.29418C401.205 9.34781 401.248 9.41162 401.277 9.48193C401.307 9.55225 401.322 9.62767 401.322 9.70385V34.7601C401.322 34.8357 401.307 34.9106 401.278 34.9804C401.249 35.0503 401.206 35.1137 401.153 35.167C401.099 35.2204 401.035 35.2626 400.965 35.2913C400.895 35.32 400.82 35.3346 400.745 35.3343H397.421C397.346 35.3346 397.271 35.32 397.201 35.2913C397.132 35.2625 397.068 35.2202 397.015 35.1669C396.961 35.1135 396.919 35.05 396.89 34.9802C396.862 34.9104 396.847 34.8356 396.847 34.7601V33.2083C396.193 33.9308 395.402 34.5163 394.52 34.9308C393.226 35.5324 391.802 35.7971 390.379 35.7003C388.956 35.6035 387.58 35.1484 386.38 34.3773C385.024 33.4591 383.943 32.1886 383.254 30.7022C382.492 29.0601 382.11 27.2672 382.136 25.4571C382.109 23.6478 382.491 21.8557 383.254 20.2146C383.943 18.7275 385.024 17.4561 386.38 16.5369C387.738 15.6414 389.333 15.1747 390.958 15.1972C391.777 15.193 392.593 15.3071 393.379 15.536C394.125 15.7576 394.834 16.0897 395.482 16.5214C395.981 16.8548 396.438 17.2483 396.842 17.693V9.70385C396.842 9.62823 396.856 9.55329 396.885 9.48333C396.914 9.41337 396.956 9.34977 397.009 9.29618C397.063 9.24259 397.126 9.20007 397.196 9.17105C397.266 9.14203 397.341 9.1271 397.416 9.1271ZM396.842 28.3434V22.8346L396.819 22.7104C396.568 22.0283 396.196 21.3967 395.722 20.8457C395.25 20.3055 394.669 19.8703 394.018 19.5681C393.357 19.2614 392.636 19.1042 391.907 19.1077C390.92 19.0929 389.951 19.3837 389.135 19.9405C388.307 20.5247 387.652 21.3218 387.239 22.2475C386.785 23.3026 386.551 24.4391 386.551 25.5877C386.551 26.7363 386.785 27.8729 387.239 28.9279C387.65 29.8546 388.306 30.652 389.135 31.2349C389.951 31.7929 390.919 32.0839 391.907 32.0677C392.993 32.0825 394.053 31.7359 394.921 31.0824C395.793 30.4118 396.453 29.5027 396.819 28.465L396.842 28.3434ZM342.428 16.6067C340.805 15.8054 339.019 15.3887 337.209 15.3887C335.399 15.3887 333.613 15.8054 331.99 16.6067C330.52 17.4079 329.328 18.6374 328.574 20.1318C327.798 21.6526 327.392 23.476 327.392 25.5631C327.392 27.6503 327.79 29.4659 328.574 30.9944C329.329 32.4876 330.521 33.7161 331.99 34.517C333.613 35.3182 335.399 35.735 337.209 35.735C339.019 35.735 340.805 35.3182 342.428 34.517C343.899 33.7169 345.09 32.4882 345.845 30.9944C346.621 29.471 347.027 27.6477 347.027 25.5631C347.027 23.4785 346.629 21.6604 345.845 20.1318C345.089 18.6383 343.898 17.4092 342.428 16.6067ZM340.059 31.2246C339.207 31.7557 338.218 32.0255 337.214 32.0005C336.204 32.0234 335.208 31.754 334.346 31.2246C333.52 30.685 332.875 29.9102 332.494 29.0003C332.042 27.9094 331.822 26.7361 331.848 25.5554C331.822 24.3737 332.042 23.1997 332.494 22.1078C332.875 21.1983 333.52 20.4242 334.346 19.8861C335.207 19.3556 336.203 19.0861 337.214 19.1103C338.218 19.0874 339.206 19.357 340.059 19.8861C340.877 20.4312 341.515 21.2047 341.896 22.1104C342.347 23.2027 342.567 24.3765 342.542 25.5579C342.567 26.7386 342.347 27.9115 341.896 29.0029C341.512 29.9098 340.869 30.6828 340.046 31.2246H340.059ZM354.191 15.9575C355.422 15.7164 356.674 15.5994 357.928 15.6084C360.913 15.6084 363.142 16.3817 364.531 17.7887C366.003 19.1879 366.683 21.2517 366.683 23.7941V34.9515C366.683 35.0653 366.638 35.1745 366.557 35.255C366.477 35.3356 366.368 35.3808 366.254 35.3808H362.656C362.542 35.3808 362.433 35.3356 362.353 35.255C362.272 35.1745 362.227 35.0653 362.227 34.9515V32.8824L362.118 33.0014C360.758 34.5299 358.709 35.7196 355.727 35.7196C355.12 35.7174 354.514 35.6577 353.917 35.5411C350.984 34.9644 348.675 32.9678 348.675 29.7168V29.6418C348.675 25.4493 352.037 23.3803 356.912 23.3803C358.656 23.3655 360.393 23.6176 362.061 24.1277L362.271 24.1898V23.7113V23.6337C362.271 23.1411 362.198 22.6513 362.054 22.1802C361.495 20.4086 359.878 19.4749 357.326 19.4749C356.618 19.4736 355.912 19.5281 355.213 19.6379C354.125 19.8171 353.06 20.1145 352.037 20.525C351.983 20.5463 351.925 20.5565 351.867 20.555C351.809 20.5535 351.752 20.5402 351.7 20.5161C351.647 20.4919 351.6 20.4573 351.561 20.4144C351.522 20.3715 351.492 20.3211 351.473 20.2663L350.741 18.1482L350.542 17.5688C350.506 17.4664 350.51 17.354 350.553 17.2545C350.597 17.155 350.677 17.0759 350.777 17.0334C351.877 16.5619 353.02 16.2015 354.191 15.9575ZM362.343 28.315V27.0684L362.367 26.9908C362.304 26.9657 362.237 26.9431 362.171 26.9204C362.141 26.9103 362.111 26.9002 362.082 26.8899C360.712 26.4335 359.277 26.2063 357.833 26.2175C354.887 26.2175 353.149 27.433 353.149 29.4581V29.5305C353.149 31.4108 354.835 32.4789 357.028 32.4789C359.426 32.4789 361.366 31.4082 362.069 29.7374C362.234 29.3414 362.326 28.9193 362.343 28.4908V28.315ZM381.128 16.0533V20C381.131 20.0341 381.128 20.0685 381.118 20.1014C381.109 20.1342 381.092 20.1648 381.071 20.1914C381.018 20.2292 380.955 20.2507 380.89 20.2534C380.654 20.2534 380.421 20.2638 380.194 20.2819C377.031 20.5509 374.814 22.6768 374.504 26.7037V35.0239C374.504 35.1213 374.465 35.2147 374.396 35.2836C374.328 35.3525 374.234 35.3912 374.137 35.3912H370.578C370.481 35.3912 370.387 35.3525 370.318 35.2836C370.249 35.2147 370.211 35.1213 370.211 35.0239V16.4024C370.211 16.3052 370.25 16.2122 370.319 16.1435C370.388 16.0747 370.481 16.0358 370.578 16.0351H374.137C374.233 16.0358 374.324 16.0736 374.393 16.1407C374.461 16.2078 374.501 16.2988 374.504 16.3946V20.1991C375.564 17.6981 377.447 15.9239 380.22 15.7119C380.393 15.686 380.569 15.686 380.75 15.686C380.799 15.685 380.848 15.6937 380.893 15.7116C380.939 15.7296 380.98 15.7565 381.016 15.7906C381.051 15.8248 381.079 15.8656 381.098 15.9107C381.117 15.9558 381.127 16.0042 381.128 16.0533ZM324.935 25.6847C324.566 24.8823 324.02 24.1746 323.336 23.6157C322.805 23.179 322.208 22.8297 321.567 22.5811C321.549 22.5757 321.534 22.5647 321.523 22.5499C321.512 22.535 321.505 22.517 321.505 22.4984C321.504 22.4785 321.509 22.4588 321.52 22.442C321.53 22.4253 321.546 22.4124 321.565 22.4053C322.081 22.1649 322.557 21.8465 322.977 21.4613C323.558 20.9284 324.023 20.2812 324.342 19.5603C324.743 18.6173 324.899 17.5883 324.795 16.569C324.691 15.5498 324.33 14.5734 323.748 13.7308C322.968 12.7032 321.912 11.919 320.703 11.4703C319.234 10.9238 317.675 10.6606 316.108 10.6944H306.851C306.7 10.6951 306.555 10.7555 306.448 10.8626C306.341 10.9696 306.28 11.1146 306.28 11.266V34.8015C306.28 34.9529 306.341 35.0979 306.448 35.2049C306.555 35.312 306.7 35.3724 306.851 35.3731H316.7C318.286 35.4052 319.863 35.1158 321.335 34.5222C322.578 34.021 323.646 33.1636 324.404 32.0574C325.131 30.9428 325.505 29.635 325.478 28.3047C325.487 27.4025 325.302 26.5089 324.935 25.6847ZM320.021 17.724C320.037 18.3083 319.874 18.8836 319.554 19.3725C319.233 19.8613 318.771 20.2401 318.228 20.4578C317.564 20.7321 316.849 20.8643 316.131 20.8457H311.113C311.101 20.8457 311.089 20.8432 311.077 20.8384C311.066 20.8336 311.055 20.8265 311.047 20.8175C311.038 20.8086 311.031 20.7981 311.027 20.7865C311.022 20.7749 311.02 20.7625 311.02 20.75V14.7679C311.02 14.7429 311.03 14.719 311.047 14.7011C311.065 14.6832 311.088 14.6729 311.113 14.6722H316.131C316.85 14.6557 317.565 14.7877 318.231 15.0601C318.765 15.2822 319.225 15.6508 319.558 16.1231C319.868 16.5979 320.026 17.1569 320.008 17.724H320.021ZM311.02 24.9243C311.02 24.8994 311.03 24.8755 311.047 24.8576C311.065 24.8397 311.088 24.8293 311.113 24.8287H316.374C317.152 24.8097 317.926 24.9478 318.65 25.2347C319.233 25.4708 319.737 25.8693 320.101 26.383C320.448 26.8962 320.629 27.504 320.618 28.1236C320.628 28.729 320.461 29.3242 320.137 29.8358C319.802 30.3461 319.322 30.745 318.759 30.9815C318.083 31.2634 317.356 31.4009 316.625 31.385H311.119C311.094 31.385 311.07 31.3752 311.053 31.3577C311.035 31.3402 311.025 31.3166 311.025 31.2919L311.02 24.9243ZM95.761 13.5393H91.6746C91.5669 13.5393 91.4636 13.5821 91.3875 13.6582C91.3113 13.7344 91.2685 13.8377 91.2685 13.9454V27.102C91.275 27.7085 91.0681 28.2981 90.684 28.7676C90.1077 29.4617 89.4364 30.0712 88.69 30.578C87.675 31.264 86.4752 31.6249 85.2502 31.6125C83.5975 31.6125 82.3173 31.1806 81.4483 30.3193C80.5793 29.4581 80.137 28.1494 80.137 26.4062V13.9454C80.1374 13.8922 80.1272 13.8394 80.107 13.7902C80.0869 13.7409 80.0573 13.6961 80.0198 13.6584C79.9823 13.6207 79.9377 13.5907 79.8885 13.5703C79.8394 13.5498 79.7868 13.5393 79.7335 13.5393H75.6446C75.5369 13.5393 75.4336 13.5821 75.3575 13.6582C75.2813 13.7344 75.2385 13.8377 75.2385 13.9454V27.0451C75.2385 29.7012 76.0429 31.8763 77.6283 33.5109C79.2137 35.1454 81.4431 35.9705 84.2493 35.9705C85.7608 35.982 87.2526 35.627 88.5969 34.9359C89.827 34.3187 90.921 33.4613 91.8142 32.4143V34.9695C91.8149 35.077 91.8579 35.1799 91.9339 35.2559C92.0099 35.3319 92.1128 35.3749 92.2203 35.3756H95.7635C95.8712 35.3756 95.9745 35.3328 96.0507 35.2567C96.1268 35.1805 96.1696 35.0772 96.1696 34.9695V13.9454C96.1696 13.8918 96.159 13.8388 96.1384 13.7894C96.1179 13.7399 96.0877 13.6951 96.0498 13.6573C96.0118 13.6196 95.9667 13.5897 95.9171 13.5695C95.8676 13.5492 95.8145 13.539 95.761 13.5393ZM112.047 12.9471C113.689 12.9131 115.312 13.3052 116.757 14.0851C118.087 14.8196 119.18 15.9176 119.91 17.2507C120.668 18.6695 121.053 20.2585 121.027 21.8673V34.967C121.026 35.0745 120.983 35.1774 120.907 35.2534C120.831 35.3294 120.728 35.3724 120.621 35.3731H116.532C116.424 35.3724 116.321 35.3294 116.245 35.2534C116.169 35.1774 116.126 35.0745 116.126 34.967V22.501C116.126 20.8224 115.647 19.5319 114.716 18.6448C113.785 17.7577 112.554 17.3102 111.054 17.3102C109.829 17.2964 108.629 17.6574 107.614 18.3448C106.89 18.8338 106.232 19.4145 105.656 20.0724C105.228 20.5605 104.991 21.187 104.989 21.8363V34.9696C104.989 35.0773 104.946 35.1806 104.87 35.2567C104.794 35.3329 104.691 35.3757 104.583 35.3757H100.497C100.389 35.3757 100.286 35.3329 100.21 35.2567C100.133 35.1806 100.091 35.0773 100.091 34.9696V13.9428C100.091 13.8363 100.133 13.734 100.208 13.6585C100.283 13.5829 100.385 13.5401 100.491 13.5394H104.081C104.189 13.5394 104.291 13.5818 104.367 13.6574C104.444 13.733 104.487 13.8356 104.487 13.9428V16.4981C105.381 15.4536 106.474 14.598 107.702 13.9816C109.046 13.292 110.537 12.9371 112.047 12.9471ZM129.422 13.5394H125.335C125.111 13.5394 124.929 13.7212 124.929 13.9455V34.9697C124.929 35.1939 125.111 35.3757 125.335 35.3757H129.422C129.646 35.3757 129.828 35.1939 129.828 34.9697V13.9455C129.828 13.7212 129.646 13.5394 129.422 13.5394ZM149.445 13.5394H142.506C142.356 13.5387 142.212 13.4788 142.106 13.3727C142 13.2666 141.94 13.123 141.94 12.973V6.72442C141.94 6.67088 141.929 6.61786 141.908 6.56843C141.888 6.519 141.858 6.47412 141.82 6.43638C141.782 6.39864 141.737 6.36878 141.687 6.34853C141.638 6.32828 141.585 6.31803 141.531 6.31837C141.478 6.31863 141.425 6.32952 141.376 6.35039C141.328 6.37127 141.283 6.40171 141.247 6.43992L137.207 10.5004C137.169 10.5378 137.138 10.5825 137.118 10.6318C137.097 10.6812 137.087 10.7341 137.088 10.7875V12.9988C137.08 13.1436 137.018 13.2801 136.913 13.3802C136.808 13.4803 136.669 13.5363 136.524 13.5368H133.596C133.489 13.5381 133.387 13.5815 133.312 13.6575C133.237 13.7335 133.195 13.836 133.195 13.9428V17.4421C133.197 17.5483 133.239 17.6497 133.314 17.725C133.389 17.8003 133.49 17.8436 133.596 17.8456H136.656C136.775 17.8723 136.883 17.9373 136.962 18.0306C137.042 18.124 137.088 18.2406 137.095 18.3629V28.7081C137.095 31.1263 137.794 32.9497 139.165 34.1394C140.535 35.3291 142.369 35.9136 144.596 35.9136H149.432C149.486 35.9136 149.538 35.9031 149.588 35.8827C149.637 35.8623 149.682 35.8324 149.719 35.7947C149.757 35.757 149.787 35.7122 149.807 35.6629C149.828 35.6137 149.838 35.5609 149.838 35.5076V31.7186C149.838 31.6653 149.828 31.6125 149.807 31.5632C149.787 31.5139 149.757 31.4692 149.719 31.4315C149.682 31.3938 149.637 31.3639 149.588 31.3435C149.538 31.323 149.486 31.3125 149.432 31.3125H146.062C143.662 31.3125 142.871 30.591 142.863 30.5832C142.214 30.0116 141.95 29.2099 141.95 27.8158V18.4094C141.95 18.2612 142.008 18.119 142.112 18.0134C142.216 17.9079 142.358 17.8476 142.506 17.8456H149.45C149.558 17.8449 149.661 17.8019 149.737 17.7259C149.813 17.6499 149.856 17.547 149.856 17.4395V13.9428C149.856 13.8893 149.845 13.8363 149.824 13.787C149.803 13.7377 149.773 13.693 149.735 13.6555C149.696 13.618 149.651 13.5885 149.602 13.5685C149.552 13.5486 149.499 13.5387 149.445 13.5394ZM210.751 22.0457C211.648 22.3976 212.493 22.87 213.263 23.4501C213.993 24.0029 214.598 24.7046 215.037 25.5088C215.494 26.3861 215.722 27.3648 215.699 28.3538C215.727 29.7428 215.305 31.1037 214.496 32.2332C213.603 33.4042 212.399 34.3004 211.02 34.8196C209.528 35.4325 207.7 35.7429 205.589 35.7429C203.76 35.7809 201.94 35.4784 200.222 34.8506C198.803 34.331 197.56 33.4199 196.638 32.2229C195.828 31.1016 195.352 29.7733 195.267 28.3925C195.262 28.3254 195.271 28.2579 195.295 28.1949C195.319 28.1319 195.356 28.0748 195.404 28.0279C195.508 27.9259 195.649 27.8692 195.795 27.8701H199.832C199.953 27.8678 200.072 27.9082 200.166 27.9844C200.261 28.0605 200.326 28.1674 200.349 28.2865C200.43 28.9194 200.694 29.5152 201.107 30.0012C201.606 30.5539 202.241 30.9666 202.948 31.1987C203.782 31.4747 204.656 31.6101 205.535 31.5996C206.43 31.6163 207.321 31.4754 208.168 31.1832C208.837 30.9545 209.436 30.5583 209.908 30.0323C210.316 29.5612 210.54 28.9587 210.539 28.3356C210.549 27.8028 210.352 27.2867 209.991 26.8951C209.551 26.4567 209.022 26.1188 208.439 25.9045C207.651 25.5979 206.841 25.3498 206.016 25.1622L203.044 24.451C200.879 23.9312 199.157 23.1501 197.872 22.0664C196.586 20.9827 195.934 19.5292 195.934 17.7395C195.911 16.3368 196.367 14.9681 197.228 13.86C198.153 12.7116 199.363 11.8253 200.737 11.2892C202.326 10.6609 204.023 10.3507 205.731 10.3763C207.431 10.3434 209.12 10.654 210.697 11.2892C212.028 11.8262 213.194 12.7028 214.08 13.8316C214.819 14.8118 215.256 15.9867 215.337 17.2119C215.341 17.2654 215.334 17.3191 215.316 17.3697C215.278 17.4756 215.208 17.5669 215.115 17.6305C215.022 17.6941 214.911 17.7268 214.799 17.724H210.844C210.726 17.7273 210.61 17.6898 210.516 17.6178C210.422 17.5457 210.355 17.4435 210.327 17.3283C210.252 16.9162 210.091 16.5242 209.857 16.177C209.622 15.8298 209.318 15.535 208.964 15.311C208.126 14.7627 207.014 14.4833 205.664 14.4833C204.828 14.4653 203.996 14.6021 203.21 14.8868C202.614 15.0979 202.086 15.4639 201.679 15.9472C201.336 16.3762 201.148 16.9085 201.146 17.4576C201.135 17.8858 201.255 18.307 201.49 18.6654C201.74 19.027 202.068 19.3283 202.449 19.5473C202.891 19.8051 203.359 20.0149 203.846 20.1732C204.363 20.3416 204.887 20.484 205.418 20.6L207.87 21.169C208.853 21.3812 209.817 21.6744 210.751 22.0457ZM249.215 22.1104H239.697C239.646 22.1104 239.596 22.1205 239.549 22.1402C239.502 22.1599 239.459 22.1888 239.423 22.2251C239.387 22.2614 239.359 22.3045 239.34 22.3519C239.321 22.3992 239.311 22.4499 239.312 22.5009V26.0856C239.312 26.1878 239.353 26.2858 239.425 26.3581C239.497 26.4303 239.595 26.4709 239.697 26.4709H245.056C244.976 27.2657 244.737 28.0362 244.353 28.7365C243.858 29.6222 243.113 30.342 242.211 30.8056C241.189 31.3138 240.058 31.5651 238.916 31.5375C237.618 31.5616 236.341 31.2075 235.241 30.5185C234.144 29.7865 233.285 28.7501 232.769 27.5365C232.179 26.2433 231.879 24.9062 231.879 23.0259C231.83 21.4844 232.134 19.9522 232.769 18.5464C233.286 17.3405 234.142 16.3108 235.233 15.5825C236.302 14.9044 237.545 14.553 238.81 14.5713C239.51 14.5652 240.208 14.6619 240.879 14.8584C241.486 15.0362 242.055 15.3218 242.561 15.7015C243.053 16.0774 243.48 16.5317 243.825 17.0464C244.156 17.5496 244.417 18.095 244.601 18.668C244.617 18.7239 244.651 18.773 244.698 18.8072C244.745 18.8415 244.802 18.859 244.86 18.8568H249.094C249.134 18.8578 249.174 18.8495 249.21 18.8324C249.246 18.8153 249.278 18.79 249.303 18.7585C249.329 18.7288 249.348 18.6936 249.358 18.6555C249.369 18.6174 249.37 18.5774 249.363 18.5387C249.171 17.425 248.779 16.3551 248.206 15.3808C247.6 14.3562 246.811 13.4515 245.879 12.7117C244.911 11.9506 243.818 11.3634 242.648 10.9763C241.387 10.5627 240.066 10.3566 238.738 10.3659C237.165 10.3523 235.605 10.653 234.15 11.2504C232.753 11.8322 231.498 12.7071 230.469 13.8161C229.389 15.0015 228.561 16.3933 228.033 17.9076C227.429 19.564 227.134 21.3174 227.164 23.0803C227.164 25.7287 227.661 27.7589 228.638 29.6857C229.557 31.5425 230.991 33.0957 232.769 34.1601C234.517 35.1946 236.578 35.7325 238.896 35.7325C240.823 35.7675 242.73 35.3297 244.449 34.4575C246.037 33.6257 247.355 32.359 248.25 30.8056C249.169 29.2331 249.634 27.3425 249.634 25.1907V22.5268C249.634 22.4719 249.623 22.4175 249.602 22.3668C249.581 22.3162 249.55 22.2701 249.511 22.2314C249.472 22.1927 249.426 22.1621 249.375 22.1413C249.324 22.1206 249.27 22.1101 249.215 22.1104ZM187.508 10.6711H191.553C191.661 10.6711 191.764 10.7139 191.84 10.7901C191.916 10.8662 191.959 10.9695 191.959 11.0772V34.9593C191.959 35.0665 191.917 35.1694 191.841 35.2455C191.766 35.3215 191.663 35.3646 191.556 35.3653H187.467C187.39 35.365 187.315 35.3448 187.248 35.3067C187.181 35.2686 187.126 35.214 187.086 35.1481L174.84 18.3629V24.6812H174.814V34.9696C174.814 35.0773 174.772 35.1806 174.695 35.2567C174.619 35.3329 174.516 35.3757 174.408 35.3757H170.389C170.282 35.3757 170.178 35.3329 170.102 35.2567C170.026 35.1806 169.983 35.0773 169.983 34.9696V11.0772C169.983 10.9695 170.026 10.8662 170.102 10.7901C170.178 10.7139 170.282 10.6711 170.389 10.6711H174.786C174.862 10.6712 174.937 10.6913 175.004 10.7294C175.07 10.7675 175.125 10.8223 175.164 10.8884L187.102 27.5727V23.0234V20.5664V11.0772C187.102 10.9695 187.145 10.8662 187.221 10.7901C187.297 10.7139 187.4 10.6711 187.508 10.6711ZM274.512 10.6711H270.48C270.372 10.6711 270.269 10.7139 270.193 10.79C270.116 10.8662 270.074 10.9695 270.074 11.0772V19.7465C270.074 19.8243 270.058 19.9013 270.029 19.9731C269.999 20.045 269.955 20.1103 269.9 20.1653C269.845 20.2203 269.78 20.2639 269.708 20.2937C269.636 20.3234 269.559 20.3388 269.481 20.3388H258.373C258.295 20.3388 258.218 20.3234 258.147 20.2937C258.075 20.2639 258.009 20.2203 257.954 20.1653C257.899 20.1103 257.856 20.045 257.826 19.9731C257.796 19.9013 257.781 19.8243 257.781 19.7465V11.0772C257.781 10.9695 257.738 10.8662 257.662 10.79C257.586 10.7139 257.483 10.6711 257.375 10.6711H253.343C253.29 10.6714 253.237 10.6822 253.189 10.7028C253.14 10.7234 253.095 10.7534 253.058 10.7911C253.021 10.8288 252.992 10.8735 252.972 10.9226C252.952 10.9716 252.942 11.0242 252.942 11.0772V34.967C252.942 35.0202 252.952 35.0729 252.972 35.1222C252.992 35.1714 253.022 35.2162 253.059 35.2539C253.097 35.2917 253.141 35.3216 253.19 35.3421C253.239 35.3625 253.292 35.373 253.345 35.373H257.377C257.431 35.373 257.484 35.3625 257.533 35.3421C257.582 35.3217 257.627 35.2918 257.665 35.2541C257.702 35.2164 257.732 35.1716 257.753 35.1224C257.773 35.0731 257.783 35.0203 257.783 34.967V25.1907C257.783 25.113 257.798 25.0361 257.828 24.9642C257.857 24.8924 257.9 24.8271 257.955 24.7721C258.01 24.717 258.075 24.6734 258.147 24.6436C258.219 24.6138 258.296 24.5984 258.373 24.5984H269.494C269.572 24.5981 269.649 24.6132 269.721 24.6428C269.793 24.6725 269.859 24.7161 269.914 24.7711C269.969 24.8262 270.013 24.8916 270.042 24.9636C270.072 25.0357 270.087 25.1128 270.087 25.1907V34.967C270.087 35.0747 270.129 35.1779 270.206 35.2541C270.282 35.3302 270.385 35.373 270.493 35.373H274.525C274.632 35.373 274.736 35.3302 274.812 35.2541C274.888 35.1779 274.931 35.0747 274.931 34.967V11.0772C274.931 11.0227 274.92 10.9688 274.899 10.9187C274.877 10.8686 274.846 10.8232 274.807 10.7854C274.768 10.7475 274.722 10.7178 274.671 10.6982C274.62 10.6786 274.566 10.6694 274.512 10.6711ZM278.223 10.6841H297.879C297.986 10.6861 298.087 10.7298 298.161 10.8057C298.236 10.8817 298.278 10.9838 298.277 11.0901V14.5687C298.278 14.6196 298.268 14.6699 298.249 14.717C298.23 14.7641 298.201 14.8068 298.166 14.8429C298.13 14.879 298.087 14.9076 298.04 14.9271C297.993 14.9466 297.943 14.9567 297.892 14.9567H291.129C290.972 14.9567 290.822 15.0187 290.711 15.1292C290.6 15.2397 290.537 15.3897 290.537 15.5464L290.467 34.9696C290.466 35.0803 290.422 35.1862 290.343 35.2642C290.265 35.3422 290.158 35.386 290.048 35.386H286.044C285.936 35.386 285.833 35.3433 285.756 35.2672C285.68 35.1912 285.636 35.0879 285.636 34.98V15.5489C285.636 15.3919 285.573 15.2412 285.462 15.1301C285.351 15.0191 285.2 14.9567 285.043 14.9567H278.202C278.1 14.956 278.002 14.9148 277.93 14.8421C277.858 14.7695 277.817 14.6712 277.817 14.5687V11.0901C277.817 10.9824 277.86 10.8792 277.936 10.803C278.012 10.7269 278.115 10.6841 278.223 10.6841ZM165.186 10.6841H161.133C160.909 10.6841 160.727 10.8659 160.727 11.0901V34.98C160.727 35.2042 160.909 35.386 161.133 35.386H165.186C165.41 35.386 165.592 35.2042 165.592 34.98V11.0901C165.592 10.8659 165.41 10.6841 165.186 10.6841ZM219.418 10.6841H223.471C223.695 10.6841 223.877 10.8659 223.877 11.0901V34.98C223.877 35.2042 223.695 35.386 223.471 35.386H219.418C219.194 35.386 219.012 35.2042 219.012 34.98V11.0901C219.012 10.8659 219.194 10.6841 219.418 10.6841Z" fill="black"/>
</g>
<defs>
<clipPath id="clip0_9065_91857">
<rect width="402" height="40" fill="white"/>
</clipPath>
</defs>
</svg>
