<svg width="389" height="40" viewBox="0 0 389 40" fill="none" xmlns="http://www.w3.org/2000/svg">
<path d="M20 0C8.95383 0 0 8.95383 0 20C0 31.0462 8.95383 40 20 40C31.0462 40 40 31.0462 40 20C40 8.95383 31.0462 0 20 0ZM26.0106 18.6629C21.9966 18.7146 18.7586 21.9553 18.7094 25.964H18.7068C18.7068 25.9951 18.7068 26.0261 18.7068 26.0572C18.7068 28.6642 16.5938 30.7772 13.9868 30.7772C11.3798 30.7772 9.26678 28.6642 9.26678 26.0572C9.26678 23.4501 11.3798 21.3371 13.9868 21.3371H13.9894C15.9343 21.3371 17.799 20.5586 19.1698 19.1775C20.5405 17.7965 21.3035 15.924 21.288 13.979C21.288 13.9661 21.288 13.9558 21.288 13.9428C21.288 11.3358 23.401 9.22281 26.008 9.22281C28.615 9.22281 30.728 11.3358 30.728 13.9428C30.728 16.5499 28.615 18.6629 26.008 18.6629H26.0106Z" fill="#00C9EA"/>
<path fill-rule="evenodd" clip-rule="evenodd" d="M57.962 30.5211H72.4014C72.6264 30.5211 72.8074 30.7047 72.8074 30.9271V34.9695C72.8074 35.1945 72.6264 35.3756 72.4014 35.3756H56.1024C53.2238 35.3756 50.8806 33.0324 50.8806 30.1538V3.95439C50.8806 3.72938 51.0617 3.54834 51.2867 3.54834H55.7377C55.9627 3.54834 56.1438 3.72938 56.1438 3.95439V28.7106C56.1515 29.7038 56.9688 30.5159 57.962 30.5211ZM125.336 5.77257H129.422C129.646 5.77257 129.828 5.95437 129.828 6.17863V10.265C129.828 10.4893 129.646 10.6711 129.422 10.6711H125.336C125.111 10.6711 124.929 10.4893 124.929 10.265V6.17863C124.929 5.95437 125.111 5.77257 125.336 5.77257ZM313.713 35.0859C313.79 35.311 314.005 35.461 314.243 35.461L314.24 35.4661H319.516C319.754 35.4661 319.966 35.3161 320.047 35.0911L328.473 11.3694C328.535 11.1961 328.509 11.0099 328.403 10.8573C328.3 10.7073 328.126 10.6168 327.943 10.6168H324.211C323.973 10.6168 323.761 10.7668 323.68 10.9918L317.028 29.7866C316.997 29.8978 316.946 29.9469 316.928 29.9469C316.915 29.9469 316.863 29.9055 316.824 29.7736L310.149 10.9918C310.069 10.7642 309.854 10.6142 309.616 10.6142H305.814C305.631 10.6142 305.46 10.7021 305.354 10.8521C305.248 11.0021 305.222 11.1884 305.284 11.3642L313.713 35.0859ZM339.31 25.6355C339.31 31.5711 343.448 35.717 349.373 35.717L349.368 35.7144C352.611 35.7144 355.293 34.5609 357.336 32.2901C357.406 32.2125 357.442 32.1143 357.435 32.0082C357.427 31.9022 357.38 31.8065 357.3 31.7367L355.055 29.7969C354.985 29.7374 354.897 29.7038 354.804 29.7038C354.706 29.7038 354.61 29.74 354.538 29.8073C352.932 31.2737 351.408 31.8996 349.445 31.8996C346.595 31.8996 344.48 30.1926 343.924 27.4408C343.913 27.3891 343.926 27.3399 343.96 27.2985C343.993 27.2546 344.045 27.2313 344.099 27.2313H358.011C358.213 27.2313 358.384 27.0761 358.399 26.8744C358.43 26.5226 358.453 26.2071 358.453 25.889C358.453 20.6905 355.464 15.4454 348.884 15.4454C342.305 15.4454 339.31 20.6905 339.31 25.5631V25.6355ZM343.965 23.7501C344.48 20.887 346.383 19.1077 348.931 19.1077C351.553 19.1077 353.374 20.8457 353.798 23.7553C353.803 23.8044 353.79 23.8536 353.757 23.8923C353.721 23.9311 353.671 23.9544 353.617 23.9544H344.143C344.089 23.9544 344.037 23.9311 344.004 23.8898C343.97 23.851 343.957 23.7992 343.965 23.7501ZM378.474 35.7894C378.223 35.7894 378.001 35.6213 377.931 35.3808L374.101 22.0897C374.09 22.0483 374.057 22.0431 374.041 22.0431C374.026 22.0431 373.992 22.0483 373.982 22.0897L370.154 35.3808C370.084 35.6213 369.862 35.7894 369.611 35.7894H365.682C365.431 35.7894 365.209 35.6213 365.139 35.3808L359.793 16.8239C359.744 16.6507 359.778 16.4696 359.884 16.3274C359.992 16.1851 360.155 16.1024 360.336 16.1024H363.688C363.939 16.1024 364.161 16.2705 364.231 16.511L367.979 29.6366C367.989 29.6779 368.023 29.6831 368.038 29.6831C368.054 29.6831 368.087 29.6779 368.1 29.6366L371.864 16.511C371.933 16.2705 372.156 16.1024 372.407 16.1024H375.777C376.025 16.1024 376.247 16.2705 376.317 16.5084L380.204 29.6728C380.217 29.7141 380.248 29.7193 380.264 29.7193C380.285 29.7193 380.313 29.7116 380.323 29.6728L384.055 16.5136C384.125 16.2731 384.348 16.1049 384.599 16.1049H387.741C387.919 16.1049 388.085 16.1877 388.191 16.33C388.3 16.4722 388.333 16.6532 388.284 16.8265L382.972 35.3834C382.905 35.6239 382.682 35.792 382.429 35.792H378.466L378.474 35.7894ZM95.7558 13.5393H91.672C91.4496 13.5393 91.266 13.7203 91.266 13.9453V27.1045C91.266 27.7278 91.0591 28.3201 90.6815 28.7701C90.1099 29.4581 89.4374 30.0633 88.6848 30.5728C87.6632 31.2633 86.5072 31.6151 85.245 31.6151C83.5924 31.6151 82.3147 31.1806 81.4457 30.3271C80.5767 29.4736 80.1345 28.1572 80.1345 26.414V13.9453C80.1345 13.7229 79.9534 13.5393 79.7284 13.5393H75.6394C75.4144 13.5393 75.2334 13.7203 75.2334 13.9453V27.045C75.2334 29.7012 76.0377 31.8763 77.6231 33.5082C79.2086 35.1402 81.438 35.9678 84.2441 35.9678C85.814 35.9678 87.2779 35.6239 88.5891 34.9437C89.8849 34.2738 90.966 33.4255 91.8065 32.4168V34.9721C91.8065 35.1971 91.9876 35.3782 92.2126 35.3782H95.7558C95.9782 35.3782 96.1619 35.1971 96.1619 34.9721V13.9453C96.1619 13.7229 95.9808 13.5393 95.7558 13.5393ZM112.047 12.947C113.826 12.947 115.412 13.3298 116.757 14.085H116.762C118.104 14.8402 119.162 15.9032 119.902 17.2481C120.641 18.593 121.016 20.1473 121.016 21.8672V34.9669C121.016 35.1919 120.835 35.373 120.61 35.373H116.521C116.296 35.373 116.115 35.1894 116.115 34.9669V22.5009C116.115 20.8224 115.642 19.5189 114.714 18.6343C113.782 17.7498 112.549 17.2998 111.049 17.2998C109.787 17.2998 108.631 17.6515 107.609 18.3421C106.882 18.8309 106.225 19.4128 105.651 20.0697C105.222 20.5611 104.984 21.187 104.984 21.8336V34.9669C104.984 35.1919 104.803 35.373 104.578 35.373H100.489C100.264 35.373 100.083 35.1894 100.083 34.9669V13.9428C100.083 13.7177 100.264 13.5367 100.489 13.5367H104.079C104.304 13.5367 104.485 13.7203 104.485 13.9428V16.498C105.325 15.492 106.406 14.6411 107.702 13.9712C109.016 13.291 110.477 12.947 112.047 12.947ZM125.336 13.5393H129.425C129.65 13.5393 129.831 13.7203 129.831 13.9453V34.9695C129.831 35.1945 129.65 35.3756 129.425 35.3756H125.336C125.111 35.3756 124.929 35.1945 124.929 34.9695V13.9428C124.929 13.7177 125.111 13.5367 125.336 13.5367V13.5393ZM149.445 13.5393H142.516C142.206 13.5393 141.95 13.2858 141.95 12.9729V6.72693C141.947 6.47347 141.741 6.32087 141.539 6.32087C141.433 6.32087 141.332 6.36484 141.254 6.44243L137.215 10.5029C137.14 10.5805 137.096 10.6814 137.096 10.79V13.0013C137.08 13.3013 136.832 13.5393 136.532 13.5393H133.596C133.374 13.5393 133.19 13.7203 133.19 13.9453V17.442C133.19 17.6671 133.371 17.8481 133.596 17.8481H136.653C136.899 17.9024 137.08 18.1171 137.096 18.3679V28.7236C137.096 31.1418 137.794 32.9651 139.167 34.1419C140.541 35.3213 142.372 35.9161 144.606 35.9161H149.443C149.668 35.9161 149.849 35.7351 149.849 35.5101V31.7133C149.849 31.4883 149.668 31.3073 149.443 31.3073H146.06C143.662 31.3073 142.868 30.5857 142.86 30.578C142.211 30.0064 141.947 29.2046 141.947 27.8106V18.4016C141.95 18.0964 142.193 17.8507 142.498 17.8403H149.443C149.668 17.8403 149.849 17.6593 149.849 17.4343V13.9376C149.849 13.7152 149.668 13.5315 149.443 13.5315L149.445 13.5393ZM210.751 22.0457C211.677 22.4156 212.523 22.8889 213.263 23.4501L213.268 23.4553C214.013 24.0217 214.613 24.7174 215.05 25.5217C215.487 26.3261 215.709 27.283 215.709 28.3589C215.709 29.815 215.301 31.1134 214.499 32.2203C213.697 33.3247 212.528 34.1988 211.023 34.8144C209.528 35.4273 207.637 35.7377 205.589 35.7377C203.541 35.7377 201.733 35.4377 200.222 34.8454C198.699 34.248 197.494 33.3635 196.638 32.2151C195.854 31.1651 195.391 29.8745 195.267 28.3848C195.257 28.2503 195.303 28.121 195.404 28.0201C195.505 27.9167 195.647 27.8598 195.795 27.8598L199.832 27.852C200.093 27.852 200.318 28.0305 200.354 28.2684C200.458 28.9512 200.714 29.5305 201.112 29.9831C201.578 30.5159 202.198 30.9168 202.954 31.1806C203.722 31.4496 204.555 31.5841 205.55 31.5841C206.546 31.5841 207.43 31.4418 208.181 31.1651C208.92 30.8909 209.507 30.5056 209.924 30.0168C210.332 29.5357 210.544 28.9641 210.552 28.3176C210.542 27.7408 210.358 27.2572 210.004 26.8796C209.637 26.489 209.112 26.1554 208.442 25.889C207.754 25.6149 206.939 25.3666 206.018 25.1467L203.047 24.4355C200.872 23.9156 199.128 23.1139 197.864 22.0509C196.578 20.9698 195.927 19.5137 195.927 17.7266C195.927 16.2627 196.361 14.9592 197.222 13.8549C198.078 12.7583 199.26 11.8918 200.732 11.2841C202.198 10.6789 203.851 10.3711 205.726 10.3711C207.601 10.3711 209.272 10.6789 210.692 11.2841C212.117 11.8918 213.255 12.7479 214.072 13.8264C214.812 14.804 215.236 15.9394 215.329 17.2041C215.334 17.2636 215.327 17.3154 215.311 17.3619C215.228 17.5792 215.034 17.7162 214.799 17.7162L210.844 17.724C210.588 17.724 210.371 17.5585 210.325 17.3283C210.154 16.4748 209.696 15.7972 208.962 15.3161C208.124 14.7652 207.014 14.4859 205.661 14.4859C204.71 14.4859 203.882 14.6204 203.207 14.8842C202.54 15.1454 202.025 15.5023 201.676 15.9446C201.329 16.3843 201.151 16.8912 201.143 17.455C201.143 17.9206 201.26 18.3266 201.487 18.6628C201.72 19.0094 202.043 19.3042 202.449 19.5448C202.866 19.7905 203.336 20.0025 203.846 20.1707C204.363 20.3414 204.893 20.4862 205.418 20.6026L207.87 21.1716C208.861 21.3836 209.831 21.6785 210.751 22.0457ZM249.215 22.1104H239.697C239.485 22.1104 239.312 22.2837 239.312 22.4957V26.0778C239.312 26.2899 239.485 26.4632 239.697 26.4632H245.056C244.961 27.3037 244.725 28.0667 244.355 28.7262C243.856 29.6159 243.135 30.3116 242.211 30.7952C241.285 31.2789 240.179 31.5246 238.916 31.5246C237.525 31.5246 236.289 31.1832 235.239 30.5082C234.189 29.8331 233.358 28.8322 232.769 27.5313C232.176 26.2278 231.876 24.9036 231.876 23.0208C231.876 21.1379 232.179 19.8422 232.774 18.5413C233.369 17.2429 234.199 16.2472 235.239 15.5773C236.281 14.9075 237.484 14.5687 238.816 14.5687C239.558 14.5687 240.256 14.6644 240.885 14.8558C241.513 15.0446 242.079 15.3291 242.566 15.6989C243.055 16.0687 243.479 16.5213 243.83 17.0412C244.154 17.5222 244.42 18.068 244.617 18.6654C244.653 18.7792 244.759 18.8542 244.875 18.8542H249.109C249.189 18.8542 249.267 18.818 249.319 18.7559C249.37 18.6938 249.391 18.6137 249.378 18.5361C249.176 17.3955 248.786 16.3351 248.222 15.3782C247.617 14.354 246.833 13.4566 245.894 12.7117C244.955 11.9668 243.869 11.3823 242.667 10.9763C241.464 10.5702 240.147 10.3659 238.756 10.3659C237.111 10.3659 235.567 10.6633 234.165 11.2478C232.764 11.8323 231.527 12.6962 230.485 13.8161C229.445 14.9333 228.625 16.3093 228.049 17.9076C227.472 19.5034 227.18 21.0474 227.18 23.0751C227.18 25.7235 227.676 27.7537 228.654 29.6805C229.632 31.6099 231.015 33.1152 232.764 34.16C234.512 35.2049 236.573 35.7351 238.891 35.7351C240.97 35.7351 242.837 35.3058 244.443 34.4575C246.049 33.6091 247.33 32.3806 248.248 30.8082C249.166 29.2331 249.632 27.3451 249.632 25.1933V22.5319C249.632 22.3018 249.445 22.1155 249.215 22.1155V22.1104ZM187.503 10.6711H191.553C191.778 10.6711 191.959 10.8521 191.959 11.0771V34.9644C191.959 35.1894 191.778 35.3704 191.553 35.3704H187.464C187.309 35.3704 187.164 35.2877 187.084 35.1558L174.838 18.3706V24.6786H174.809V34.967C174.809 35.192 174.628 35.373 174.403 35.373H170.381C170.156 35.373 169.975 35.192 169.975 34.967V11.0771C169.975 10.8521 170.156 10.6711 170.381 10.6711H174.783C174.938 10.6711 175.083 10.7538 175.163 10.8857L187.102 27.5701V23.0208L187.097 20.5637V11.0771C187.097 10.8521 187.278 10.6711 187.503 10.6711ZM274.509 10.6711H270.482C270.257 10.6711 270.076 10.8521 270.076 11.0771V19.7465C270.076 20.0723 269.812 20.3387 269.484 20.3387H258.373C258.047 20.3387 257.781 20.0723 257.781 19.7465V11.0771C257.781 10.8521 257.6 10.6711 257.375 10.6711H253.343C253.118 10.6711 252.937 10.8521 252.937 11.0771V34.967C252.937 35.192 253.118 35.373 253.343 35.373H257.375C257.6 35.373 257.781 35.192 257.781 34.967V25.1881C257.781 24.8622 258.047 24.5958 258.373 24.5958H269.481C269.81 24.5958 270.074 24.8622 270.074 25.1881V34.967C270.074 35.192 270.255 35.373 270.48 35.373H274.509C274.734 35.373 274.915 35.192 274.915 34.967V11.0771C274.915 10.8521 274.734 10.6711 274.509 10.6711ZM278.223 10.684H297.879L297.877 10.6866C298.102 10.6866 298.283 10.8676 298.283 11.0927V14.5713C298.283 14.7833 298.109 14.9566 297.897 14.9566H291.134C290.808 14.9566 290.542 15.2204 290.542 15.5463L290.472 34.9696C290.472 35.1997 290.286 35.386 290.056 35.386H286.049C285.824 35.386 285.643 35.2049 285.643 34.9799L285.633 15.5463C285.633 15.2204 285.369 14.954 285.041 14.954H278.202C277.99 14.954 277.817 14.7807 277.817 14.5687V11.0901C277.817 10.8651 277.998 10.684 278.223 10.684ZM161.133 10.684H165.186C165.411 10.684 165.592 10.8651 165.592 11.0901V34.9799C165.592 35.2049 165.411 35.386 165.186 35.386H161.133C160.908 35.386 160.727 35.2049 160.727 34.9799V11.0901C160.727 10.8651 160.908 10.684 161.133 10.684ZM223.471 10.684H219.418C219.193 10.684 219.012 10.8651 219.012 11.0901V34.9799C219.012 35.2049 219.193 35.386 219.418 35.386H223.471C223.696 35.386 223.877 35.2049 223.877 34.9799V11.0901C223.877 10.8651 223.696 10.684 223.471 10.684ZM332.083 9.39087H335.445C335.748 9.39087 335.994 9.63657 335.994 9.93917V13.3997C335.994 13.7023 335.748 13.948 335.445 13.948H332.083C331.781 13.948 331.535 13.7023 331.535 13.3997V9.93917C331.535 9.63657 331.781 9.39087 332.083 9.39087ZM335.451 15.7972H332.096C331.794 15.7972 331.548 16.0429 331.548 16.3455V34.8402C331.548 35.1428 331.794 35.3885 332.096 35.3885H335.451C335.753 35.3885 335.999 35.1428 335.999 34.8402V16.3455C335.999 16.0429 335.753 15.7972 335.451 15.7972Z" fill="black"/>
</svg>
