<svg width="370" height="40" viewBox="0 0 370 40" fill="none" xmlns="http://www.w3.org/2000/svg">
<g clip-path="url(#clip0_9065_87455)">
<path d="M20.0003 0C16.0446 0 12.1778 1.17298 8.88885 3.37061C5.59986 5.56824 3.03642 8.69181 1.52266 12.3463C0.00890984 16.0009 -0.387157 20.0222 0.384548 23.9018C1.15625 27.7814 3.06107 31.3451 5.85812 34.1421C8.65517 36.9392 12.2188 38.844 16.0984 39.6157C19.9781 40.3874 23.9994 39.9913 27.6539 38.4776C31.3084 36.9638 34.432 34.4004 36.6296 31.1114C38.8273 27.8224 40.0003 23.9556 40.0003 20C40.0003 14.6957 37.8931 9.60859 34.1424 5.85786C30.3917 2.10714 25.3046 0 20.0003 0ZM26.0109 18.6629C24.0818 18.6864 22.2383 19.4631 20.8741 20.8273C19.5099 22.1915 18.7332 24.035 18.7097 25.964C18.7097 25.9951 18.7097 26.0261 18.7097 26.0572C18.7102 26.9914 18.4336 27.9048 17.9149 28.6819C17.3961 29.4589 16.6586 30.0646 15.7955 30.4224C14.9325 30.7801 13.9827 30.8739 13.0664 30.6917C12.15 30.5096 11.3083 30.0598 10.6477 29.3991C9.98704 28.7385 9.5372 27.8968 9.35506 26.9804C9.17292 26.0641 9.26666 25.1143 9.62443 24.2513C9.98219 23.3882 10.5879 22.6507 11.3649 22.132C12.142 21.6132 13.0554 21.3366 13.9896 21.3371C14.9532 21.3368 15.9071 21.1459 16.7965 20.7753C17.6859 20.4047 18.4932 19.8618 19.1718 19.1778C19.8505 18.4939 20.3871 17.6824 20.7508 16.7902C21.1144 15.8979 21.298 14.9425 21.2908 13.979C21.2922 13.967 21.2922 13.9549 21.2908 13.9428C21.2908 13.0093 21.5677 12.0967 22.0863 11.3205C22.6049 10.5443 23.3421 9.93935 24.2046 9.5821C25.0671 9.22485 26.0161 9.13138 26.9317 9.31351C27.8473 9.49563 28.6883 9.94517 29.3484 10.6053C30.0085 11.2654 30.4581 12.1064 30.6402 13.022C30.8223 13.9376 30.7288 14.8866 30.3716 15.7491C30.0143 16.6116 29.4094 17.3488 28.6332 17.8674C27.857 18.386 26.9444 18.6629 26.0109 18.6629Z" fill="#00C9EA"/>
<path fill-rule="evenodd" clip-rule="evenodd" d="M72.4037 30.4701H57.9617C57.4834 30.4641 57.0264 30.2714 56.6882 29.9332C56.35 29.595 56.1573 29.138 56.1513 28.6597V3.90605C56.1513 3.79836 56.1085 3.69508 56.0324 3.61893C55.9562 3.54278 55.8529 3.5 55.7452 3.5H51.2864C51.1787 3.5 51.0754 3.54278 50.9993 3.61893C50.9232 3.69508 50.8804 3.79836 50.8804 3.90605V30.1055C50.8824 31.4897 51.4332 32.8167 52.4121 33.7955C53.3909 34.7744 54.7179 35.3252 56.1021 35.3272H72.396C72.5032 35.3265 72.6058 35.2835 72.6814 35.2074C72.757 35.1313 72.7994 35.0284 72.7994 34.9212V30.8788C72.8008 30.7722 72.76 30.6694 72.6858 30.5928C72.6117 30.5163 72.5103 30.4722 72.4037 30.4701ZM129.424 5.72412H125.338C125.114 5.72412 124.932 5.90592 124.932 6.13017V10.2166C124.932 10.4408 125.114 10.6226 125.338 10.6226H129.424C129.649 10.6226 129.83 10.4408 129.83 10.2166V6.13017C129.83 5.90592 129.649 5.72412 129.424 5.72412ZM179.635 25.4422C179.195 24.634 178.587 23.9287 177.853 23.3732C177.087 22.796 176.247 22.3253 175.355 21.974C174.42 21.6027 173.456 21.3094 172.474 21.0972L170.022 20.5282C169.491 20.4106 168.966 20.2665 168.449 20.0963C167.962 19.9382 167.494 19.7275 167.053 19.4679C166.67 19.2512 166.342 18.9506 166.093 18.5885C165.857 18.2306 165.737 17.809 165.749 17.3807C165.751 16.8316 165.939 16.2993 166.282 15.8703C166.689 15.387 167.217 15.021 167.813 14.8099C168.599 14.5248 169.431 14.3889 170.267 14.409C171.617 14.409 172.73 14.6883 173.568 15.2392C173.921 15.4624 174.225 15.7564 174.46 16.1027C174.694 16.449 174.854 16.8401 174.931 17.2514C174.958 17.3671 175.024 17.4699 175.118 17.5424C175.213 17.615 175.329 17.6528 175.448 17.6497H179.402C179.515 17.6554 179.627 17.6238 179.721 17.5598C179.814 17.4958 179.884 17.4029 179.92 17.2953C179.938 17.2457 179.945 17.1928 179.94 17.1402C179.86 15.9144 179.422 14.739 178.681 13.7598C177.797 12.6298 176.631 11.7529 175.3 11.2175C173.718 10.5772 172.023 10.264 170.317 10.2968C168.608 10.2712 166.911 10.5814 165.322 11.2097C163.948 11.7449 162.738 12.6313 161.813 13.7805C160.952 14.8886 160.496 16.2573 160.52 17.66C160.52 19.4497 161.171 20.9033 162.457 21.9843C163.742 23.0654 165.465 23.8517 167.629 24.3689L170.601 25.0802C171.426 25.2662 172.237 25.5117 173.027 25.8147C173.61 26.0289 174.139 26.3669 174.579 26.8052C174.94 27.1962 175.136 27.7112 175.127 28.2432C175.129 28.8672 174.904 29.4707 174.496 29.9424C174.027 30.4657 173.432 30.8609 172.768 31.0908C171.923 31.383 171.032 31.5231 170.138 31.5046C169.259 31.5156 168.385 31.3792 167.552 31.1011C166.844 30.8706 166.209 30.4587 165.71 29.9062C165.297 29.4198 165.034 28.8243 164.952 28.1915C164.929 28.072 164.865 27.9644 164.77 27.8878C164.676 27.8111 164.557 27.7703 164.435 27.7725H160.398C160.252 27.7726 160.111 27.8302 160.007 27.9329C159.959 27.9794 159.921 28.0364 159.897 28.0995C159.873 28.1627 159.864 28.2304 159.87 28.2975C159.956 29.6775 160.431 31.005 161.241 32.1253C162.164 33.3231 163.406 34.235 164.826 34.7556C166.54 35.3865 168.356 35.6935 170.182 35.6608C172.292 35.6608 174.121 35.3504 175.613 34.7375C176.992 34.2183 178.196 33.3221 179.089 32.1512C179.897 31.0275 180.322 29.6735 180.3 28.2898C180.322 27.2998 180.093 26.3203 179.635 25.4422ZM225.581 11.8487C223.789 10.8141 221.655 10.2969 219.239 10.2969C216.824 10.2969 214.685 10.8141 212.88 11.8487C211.079 12.8654 209.623 14.3963 208.698 16.2454C207.733 18.1386 207.244 20.3835 207.244 22.9414C207.244 25.4993 207.733 27.7468 208.698 29.6399C209.622 31.4896 211.079 33.0207 212.88 34.0367C214.69 35.0712 216.824 35.5885 219.239 35.5885C221.655 35.5885 223.789 35.0712 225.581 34.0367C227.374 33.016 228.823 31.4857 229.745 29.6399C230.71 27.7468 231.199 25.5018 231.199 22.9414C231.199 20.3809 230.702 18.1438 229.745 16.2454C228.822 14.4007 227.373 12.8707 225.581 11.8487ZM222.627 30.5917C221.641 31.2964 220.451 31.6596 219.239 31.6262C218.011 31.6598 216.805 31.2971 215.8 30.5917C214.698 29.8536 213.836 28.81 213.319 27.589C212.703 26.1232 212.403 24.544 212.437 22.9543C212.401 21.3644 212.696 19.7843 213.304 18.3145C213.813 17.0894 214.675 16.0439 215.781 15.3117C216.806 14.6046 218.029 14.2422 219.273 14.2772C220.477 14.2446 221.658 14.608 222.635 15.3117C223.731 16.0544 224.589 17.0969 225.108 18.3145C225.723 19.7796 226.024 21.3578 225.99 22.9466C226.024 24.5362 225.723 26.1153 225.108 27.5812C224.59 28.8013 223.729 29.844 222.627 30.5814V30.5917ZM271.995 31.3291H261.707C261.55 31.3284 261.4 31.2657 261.29 31.1547C261.179 31.0437 261.117 30.8935 261.117 30.7368V25.2978C261.117 25.1412 261.179 24.9909 261.29 24.8799C261.4 24.7689 261.55 24.7062 261.707 24.7055H271.364C271.474 24.7055 271.58 24.6617 271.658 24.5836C271.737 24.5055 271.78 24.3996 271.78 24.2891V21.1442C271.78 21.0337 271.737 20.9278 271.658 20.8497C271.58 20.7716 271.474 20.7278 271.364 20.7278H261.707C261.628 20.7278 261.55 20.7121 261.478 20.6817C261.406 20.6512 261.34 20.6066 261.285 20.5505C261.23 20.4944 261.187 20.4278 261.158 20.3548C261.129 20.2818 261.115 20.2037 261.117 20.1252V15.1568C261.117 15.0005 261.179 14.8505 261.29 14.7399C261.4 14.6293 261.55 14.5672 261.707 14.5672H271.985C272.095 14.5665 272.201 14.522 272.279 14.4435C272.357 14.365 272.401 14.2589 272.401 14.1482V11.0136C272.401 10.9031 272.357 10.7972 272.279 10.7191C272.201 10.641 272.095 10.5972 271.985 10.5972H256.343C256.232 10.5972 256.126 10.641 256.048 10.7191C255.97 10.7972 255.926 10.9031 255.926 11.0136V34.8801C255.926 34.9908 255.97 35.097 256.048 35.1755C256.126 35.254 256.232 35.2984 256.343 35.2991H271.995C272.106 35.2984 272.212 35.2541 272.291 35.1756C272.369 35.0972 272.413 34.991 272.414 34.8801V31.7455C272.413 31.6348 272.369 31.5289 272.29 31.4509C272.212 31.3729 272.106 31.3291 271.995 31.3291ZM244.05 10.5968C245.699 10.5615 247.336 10.8918 248.842 11.5641C250.158 12.1597 251.267 13.1339 252.026 14.3625C252.787 15.649 253.173 17.1226 253.141 18.617C253.172 20.1136 252.779 21.5886 252.008 22.8715C251.224 24.1093 250.092 25.0882 248.754 25.6854C247.197 26.3697 245.51 26.7052 243.809 26.6682H240.132C240.015 26.6682 239.903 26.7145 239.821 26.797C239.738 26.8794 239.692 26.9912 239.692 27.1079V34.8797C239.692 34.9904 239.648 35.0966 239.57 35.1751C239.492 35.2536 239.386 35.298 239.276 35.2987H234.892C234.781 35.298 234.675 35.2536 234.597 35.1751C234.519 35.0966 234.475 34.9904 234.475 34.8797V11.0132C234.476 10.903 234.52 10.7975 234.598 10.7195C234.676 10.6416 234.782 10.5975 234.892 10.5968H244.05ZM246.22 22.1964C246.867 21.8872 247.407 21.3919 247.772 20.774C248.145 20.1038 248.331 19.3452 248.31 18.5782C248.327 17.8355 248.149 17.1013 247.792 16.4496C247.448 15.8548 246.938 15.3738 246.323 15.066C245.616 14.7199 244.837 14.5487 244.05 14.5668H240.284C240.128 14.5668 239.977 14.6288 239.866 14.7394C239.755 14.8499 239.693 14.9999 239.692 15.1565V22.1059C239.693 22.2625 239.755 22.4125 239.866 22.523C239.977 22.6336 240.128 22.6956 240.284 22.6956H243.825C244.651 22.7142 245.47 22.5435 246.22 22.1964ZM200.618 26.759H204.634C204.705 26.758 204.775 26.772 204.84 26.8001C204.904 26.8282 204.962 26.8698 205.009 26.922C205.057 26.9778 205.092 27.043 205.113 27.1135C205.133 27.1839 205.139 27.258 205.128 27.3306C204.923 28.8381 204.349 30.2718 203.458 31.5049C202.478 32.8343 201.165 33.8809 199.651 34.5387C197.929 35.2671 196.073 35.6258 194.204 35.5913C191.811 35.5913 189.706 35.0741 187.948 34.0395C186.18 33.0082 184.756 31.4789 183.853 29.6428C182.902 27.7496 182.418 25.5098 182.418 22.9468C182.418 20.3838 182.912 18.1414 183.89 16.2457C184.814 14.4082 186.253 12.8802 188.033 11.8489C189.815 10.8144 191.943 10.2971 194.359 10.2971C196.181 10.2676 197.989 10.62 199.666 11.3316C201.154 11.9704 202.445 12.9955 203.403 14.3007C204.257 15.496 204.801 16.8838 204.989 18.3406C204.999 18.4128 204.993 18.4863 204.973 18.5563C204.952 18.6263 204.917 18.6911 204.87 18.7466C204.823 18.8004 204.766 18.8435 204.701 18.8729C204.636 18.9024 204.566 18.9175 204.495 18.9173H200.442C200.328 18.9141 200.218 18.8733 200.13 18.8013C200.042 18.7292 199.979 18.63 199.953 18.519C199.811 17.7642 199.509 17.0483 199.069 16.4189C198.572 15.725 197.897 15.1774 197.116 14.8335C196.25 14.4533 195.312 14.2637 194.367 14.2775C193.144 14.2439 191.944 14.6068 190.945 15.312C189.847 16.049 188.99 17.0935 188.483 18.3147C187.875 19.7881 187.58 21.3716 187.616 22.9649C187.583 24.5515 187.872 26.1284 188.467 27.5996C188.957 28.8112 189.788 29.8544 190.86 30.6023C191.825 31.3079 192.998 31.6719 194.193 31.6368C195.203 31.6555 196.205 31.4607 197.134 31.0653C197.955 30.7058 198.665 30.1334 199.19 29.4074C199.665 28.7416 199.986 27.9782 200.129 27.1728C200.15 27.0577 200.21 26.9534 200.299 26.8778C200.388 26.8022 200.501 26.7602 200.618 26.759ZM91.6769 13.4912H95.7633C95.8168 13.4909 95.8699 13.5011 95.9195 13.5214C95.969 13.5416 96.0141 13.5715 96.0521 13.6092C96.0901 13.647 96.1202 13.6918 96.1408 13.7413C96.1613 13.7907 96.1719 13.8437 96.1719 13.8973V34.9215C96.1719 35.0291 96.1291 35.1324 96.053 35.2086C95.9768 35.2847 95.8736 35.3275 95.7659 35.3275H92.2226C92.1151 35.3268 92.0122 35.2838 91.9362 35.2078C91.8602 35.1318 91.8172 35.0289 91.8166 34.9215V32.3662C90.9229 33.4138 89.8279 34.2714 88.5966 34.8878C87.2533 35.5792 85.7623 35.9342 84.2516 35.9224C81.4454 35.9224 79.216 35.0973 77.6306 33.4628C76.0452 31.8282 75.2408 29.6531 75.2408 26.997V13.8973C75.2408 13.7896 75.2836 13.6863 75.3598 13.6101C75.4359 13.534 75.5392 13.4912 75.6469 13.4912H79.7359C79.7891 13.4912 79.8417 13.5017 79.8909 13.5222C79.94 13.5426 79.9846 13.5726 80.0221 13.6103C80.0596 13.648 80.0892 13.6928 80.1094 13.7421C80.1295 13.7913 80.1397 13.8441 80.1393 13.8973V26.3582C80.1393 28.1013 80.5816 29.41 81.4506 30.2713C82.3196 31.1325 83.5998 31.5644 85.2525 31.5644C86.4768 31.5771 87.6758 31.2162 88.6897 30.5299C89.4375 30.0238 90.1097 29.4143 90.6863 28.7195C91.0705 28.25 91.2774 27.6604 91.2708 27.0539V13.8973C91.2708 13.7896 91.3136 13.6863 91.3898 13.6101C91.4659 13.534 91.5692 13.4912 91.6769 13.4912ZM116.759 14.037C115.314 13.2571 113.691 12.865 112.049 12.899C110.539 12.889 109.048 13.2439 107.704 13.9335C106.476 14.5499 105.383 15.4055 104.49 16.45V13.8947C104.489 13.7875 104.446 13.6849 104.37 13.6093C104.294 13.5337 104.191 13.4913 104.084 13.4913H100.491C100.385 13.4926 100.284 13.5357 100.209 13.6113C100.135 13.6868 100.093 13.7886 100.093 13.8947V34.9215C100.093 35.0288 100.135 35.1316 100.211 35.2077C100.286 35.2838 100.389 35.3269 100.496 35.3276H104.585C104.693 35.3276 104.796 35.2848 104.872 35.2086C104.949 35.1325 104.991 35.0292 104.991 34.9215V21.7882C104.993 21.1389 105.23 20.5124 105.659 20.0243C106.234 19.3664 106.892 18.7857 107.616 18.2967C108.631 17.6093 109.831 17.2483 111.056 17.2621C112.556 17.2621 113.787 17.7096 114.719 18.5967C115.65 19.4838 116.128 20.7744 116.128 22.4529V34.9189C116.129 35.0264 116.172 35.1293 116.248 35.2053C116.324 35.2813 116.427 35.3243 116.534 35.325H120.623C120.73 35.3243 120.833 35.2812 120.909 35.2051C120.984 35.1291 121.027 35.0262 121.027 34.9189V21.8192C121.054 20.2106 120.67 18.6217 119.912 17.2026C119.182 15.87 118.089 14.7722 116.759 14.037ZM125.338 13.4912H129.424C129.649 13.4912 129.83 13.673 129.83 13.8973V34.9214C129.83 35.1457 129.649 35.3275 129.424 35.3275H125.338C125.114 35.3275 124.932 35.1457 124.932 34.9214V13.8973C124.932 13.673 125.114 13.4912 125.338 13.4912ZM149.453 17.7972H142.508C142.36 17.7985 142.218 17.8586 142.114 17.9643C142.01 18.07 141.952 18.2126 141.952 18.361V27.7674C141.952 29.1615 142.216 29.9632 142.865 30.5348C142.873 30.5426 143.665 31.2641 146.065 31.2641H149.435C149.488 31.2641 149.541 31.2746 149.59 31.295C149.639 31.3155 149.684 31.3454 149.722 31.3831C149.759 31.4208 149.789 31.4655 149.81 31.5148C149.83 31.5641 149.841 31.6169 149.841 31.6702V35.4591C149.841 35.5125 149.83 35.5653 149.81 35.6145C149.789 35.6638 149.759 35.7086 149.722 35.7463C149.684 35.784 149.639 35.8139 149.59 35.8343C149.541 35.8547 149.488 35.8652 149.435 35.8652H144.598C142.374 35.8652 140.538 35.2807 139.167 34.091C137.796 32.9013 137.098 31.0779 137.098 28.6597V18.3144C137.091 18.1922 137.044 18.0755 136.965 17.9822C136.885 17.8889 136.778 17.8239 136.658 17.7972H133.599C133.492 17.7952 133.391 17.7519 133.316 17.6766C133.242 17.6013 133.199 17.4999 133.198 17.3937V13.8944C133.198 13.7876 133.24 13.6851 133.315 13.6091C133.39 13.5331 133.492 13.4897 133.599 13.4884H136.526C136.671 13.4879 136.811 13.4318 136.915 13.3318C137.02 13.2317 137.083 13.0952 137.09 12.9504V10.7391C137.09 10.6857 137.1 10.6327 137.12 10.5834C137.141 10.5341 137.171 10.4894 137.209 10.452L141.246 6.39152C141.303 6.33401 141.375 6.29462 141.454 6.27836C141.533 6.26211 141.615 6.26972 141.69 6.30023C141.764 6.33074 141.828 6.38277 141.873 6.44969C141.918 6.51662 141.942 6.5954 141.942 6.67601V12.9246C141.943 13.0746 142.003 13.2182 142.109 13.3243C142.215 13.4304 142.358 13.4903 142.508 13.491H149.453C149.56 13.491 149.663 13.5334 149.739 13.609C149.815 13.6846 149.858 13.7872 149.859 13.8944V17.3911C149.858 17.4986 149.815 17.6015 149.739 17.6775C149.663 17.7535 149.56 17.7965 149.453 17.7972Z" fill="white"/>
<path fill-rule="evenodd" clip-rule="evenodd" d="M297.975 11.5614C296.467 10.8915 294.831 10.5621 293.182 10.5967H284.024C283.914 10.5967 283.808 10.6406 283.73 10.7187C283.652 10.7968 283.608 10.9027 283.608 11.0131V34.8822C283.608 34.9925 283.652 35.098 283.73 35.1759C283.808 35.2539 283.914 35.298 284.024 35.2986H288.408C288.518 35.298 288.624 35.2539 288.702 35.1759C288.779 35.098 288.824 34.9925 288.824 34.8822V27.1078C288.824 27.05 288.836 26.9929 288.858 26.9395C288.88 26.8862 288.912 26.8377 288.953 26.7969C288.994 26.756 289.042 26.7237 289.096 26.7016C289.149 26.6795 289.206 26.6681 289.264 26.6681H292.939C294.64 26.7054 296.329 26.3699 297.887 25.6853C299.225 25.0881 300.356 24.1092 301.14 22.8714C301.911 21.5883 302.303 20.1133 302.271 18.6169C302.304 17.1228 301.918 15.6492 301.158 14.3624C300.399 13.1331 299.291 12.1579 297.975 11.5614ZM296.891 20.7739C296.527 21.3918 295.986 21.8871 295.339 22.1963C294.589 22.5437 293.768 22.7145 292.942 22.6955H289.411C289.255 22.6955 289.104 22.6335 288.993 22.5229C288.882 22.4124 288.82 22.2625 288.819 22.1058V15.1564C288.82 14.9995 288.882 14.8493 288.993 14.7383C289.104 14.6274 289.254 14.5648 289.411 14.5641H293.177C293.964 14.5457 294.744 14.7179 295.45 15.0659C296.064 15.3745 296.575 15.8553 296.919 16.4495C297.275 17.1017 297.453 17.8356 297.437 18.5781C297.456 19.3458 297.267 20.1045 296.891 20.7739ZM365.736 35.2988C365.593 35.2981 365.455 35.2406 365.354 35.1388C365.253 35.037 365.196 34.8993 365.196 34.7557V16.9722L360.895 19.2378C360.813 19.2976 360.717 19.3336 360.617 19.3418C360.516 19.3501 360.415 19.3301 360.326 19.2843C360.237 19.2391 360.162 19.1702 360.11 19.0853C360.058 19.0004 360.031 18.9028 360.031 18.8033V14.766C360.031 14.6804 360.051 14.5959 360.089 14.5195C360.128 14.4431 360.184 14.3769 360.253 14.3264L366.331 10.7055C366.424 10.6384 366.537 10.6022 366.652 10.6021H369.329C369.4 10.6017 369.47 10.6154 369.536 10.6425C369.602 10.6695 369.662 10.7092 369.712 10.7595C369.763 10.8097 369.803 10.8694 369.83 10.9351C369.858 11.0009 369.872 11.0714 369.872 11.1426V34.7609C369.872 34.9049 369.814 35.043 369.713 35.1449C369.611 35.2468 369.473 35.304 369.329 35.304L365.736 35.2988ZM313.769 10.6074C316.415 10.6074 318.748 11.1118 320.706 12.1075C322.615 13.0556 324.2 14.5488 325.26 16.3982C326.318 18.2422 326.853 20.4173 326.853 22.9235C326.853 25.4296 326.318 27.6435 325.263 29.4979C324.206 31.3549 322.619 32.855 320.706 33.8067C318.748 34.7921 316.415 35.3094 313.769 35.3094H305.752C305.6 35.3087 305.455 35.2482 305.348 35.1412C305.241 35.0341 305.181 34.8892 305.18 34.7378V11.179C305.18 11.0274 305.24 10.882 305.347 10.7748C305.455 10.6676 305.6 10.6074 305.752 10.6074H313.769ZM320.964 27.4081C321.655 26.0163 321.997 24.477 321.96 22.9235L321.958 22.9131C321.994 21.3765 321.653 19.8543 320.964 18.4802C320.327 17.2545 319.336 16.2489 318.119 15.5938C316.774 14.8943 315.274 14.5464 313.759 14.5826H309.996C309.971 14.5826 309.947 14.5923 309.929 14.6097C309.911 14.6271 309.901 14.6508 309.9 14.6757V31.2281C309.901 31.2533 309.911 31.2773 309.929 31.2951C309.947 31.3129 309.971 31.3232 309.996 31.3238H313.759C315.274 31.3588 316.774 31.011 318.119 30.3126C319.339 29.6535 320.331 28.6411 320.964 27.4081ZM359.459 31.3136H348.651C348.582 31.3136 348.517 31.2863 348.468 31.2378C348.42 31.1893 348.392 31.1235 348.392 31.0549V11.1687C348.392 11.0172 348.332 10.8718 348.225 10.7646C348.118 10.6574 347.972 10.5972 347.821 10.5972H344.241C344.09 10.5978 343.945 10.6583 343.838 10.7653C343.731 10.8724 343.67 11.0174 343.67 11.1687V34.7275C343.67 34.8789 343.731 35.0239 343.838 35.1309C343.945 35.238 344.09 35.2984 344.241 35.2991H359.451C359.603 35.2984 359.748 35.238 359.855 35.1309C359.962 35.0239 360.022 34.8789 360.023 34.7275V31.8826C360.022 31.7328 359.963 31.5892 359.857 31.4828C359.752 31.3764 359.609 31.3156 359.459 31.3136ZM330.164 20.7739H339.591C339.874 20.7739 340.103 21.0032 340.103 21.286V24.4982C340.103 24.781 339.874 25.0103 339.591 25.0103H330.164C329.881 25.0103 329.652 24.781 329.652 24.4982V21.286C329.652 21.0032 329.881 20.7739 330.164 20.7739Z" fill="#00C9EA"/>
</g>
<defs>
<clipPath id="clip0_9065_87455">
<rect width="370" height="40" fill="white"/>
</clipPath>
</defs>
</svg>
