<svg width="488" height="40" viewBox="0 0 488 40" fill="none" xmlns="http://www.w3.org/2000/svg">
<g clip-path="url(#clip0_9065_96249)">
<path d="M20 0C16.0444 0 12.1776 1.17298 8.8886 3.37061C5.59962 5.56824 3.03617 8.69181 1.52242 12.3463C0.0086657 16.0009 -0.387401 20.0222 0.384303 23.9018C1.15601 27.7814 3.06082 31.3451 5.85787 34.1421C8.65492 36.9392 12.2186 38.844 16.0982 39.6157C19.9778 40.3874 23.9992 39.9913 27.6537 38.4776C31.3082 36.9638 34.4318 34.4004 36.6294 31.1114C38.827 27.8224 40 23.9556 40 20C40 14.6957 37.8929 9.60859 34.1421 5.85786C30.3914 2.10714 25.3043 0 20 0ZM26.0106 18.6629C24.0815 18.6864 22.238 19.4631 20.8739 20.8273C19.5097 22.1915 18.7329 24.035 18.7094 25.964C18.7094 25.9951 18.7094 26.0261 18.7094 26.0572C18.7094 26.9907 18.4326 27.9033 17.914 28.6795C17.3953 29.4557 16.6582 30.0606 15.7957 30.4179C14.9332 30.7751 13.9842 30.8686 13.0686 30.6865C12.153 30.5044 11.3119 30.0548 10.6518 29.3947C9.99173 28.7346 9.54219 27.8936 9.36007 26.978C9.17794 26.0624 9.27142 25.1134 9.62866 24.2509C9.98591 23.3884 10.5909 22.6512 11.3671 22.1326C12.1433 21.6139 13.0559 21.3371 13.9894 21.3371C14.9529 21.3368 15.9068 21.1459 16.7962 20.7753C17.6856 20.4047 18.4929 19.8618 19.1716 19.1778C19.8502 18.4939 20.3869 17.6824 20.7505 16.7902C21.1142 15.8979 21.2977 14.9425 21.2906 13.979V13.9428C21.2906 13.0093 21.5674 12.0967 22.0861 11.3205C22.6047 10.5443 23.3419 9.93935 24.2043 9.5821C25.0668 9.22485 26.0159 9.13138 26.9314 9.31351C27.847 9.49563 28.6881 9.94517 29.3482 10.6053C30.0083 11.2654 30.4578 12.1064 30.6399 13.022C30.8221 13.9376 30.7286 14.8866 30.3714 15.7491C30.0141 16.6116 29.4091 17.3488 28.6329 17.8674C27.8567 18.386 26.9441 18.6629 26.0106 18.6629Z" fill="#00C9EA"/>
<path fill-rule="evenodd" clip-rule="evenodd" d="M57.9593 30.5185H72.4013C72.5081 30.5205 72.6097 30.5645 72.6843 30.641C72.7589 30.7175 72.8003 30.8203 72.7996 30.9271V34.9695C72.7989 35.077 72.7559 35.1799 72.6799 35.2559C72.6039 35.3319 72.501 35.3749 72.3935 35.3756H56.0997C54.7154 35.3735 53.3884 34.8227 52.4096 33.8439C51.4308 32.8651 50.88 31.5381 50.8779 30.1538V3.95439C50.8779 3.8467 50.9207 3.74342 50.9969 3.66727C51.073 3.59112 51.1763 3.54834 51.284 3.54834H55.7428C55.8505 3.54834 55.9538 3.59112 56.0299 3.66727C56.1061 3.74342 56.1488 3.8467 56.1488 3.95439V28.708C56.1549 29.1863 56.3476 29.6433 56.6858 29.9815C57.024 30.3198 57.481 30.5124 57.9593 30.5185ZM129.422 5.77258H125.335C125.111 5.77258 124.929 5.95438 124.929 6.17863V10.265C124.929 10.4893 125.111 10.6711 125.335 10.6711H129.422C129.646 10.6711 129.828 10.4893 129.828 10.265V6.17863C129.828 5.95438 129.646 5.77258 129.422 5.77258ZM95.7607 13.5392H91.6743C91.5666 13.5392 91.4634 13.582 91.3872 13.6581C91.3111 13.7343 91.2683 13.8376 91.2683 13.9452V27.1018C91.2748 27.7084 91.0679 28.298 90.6838 28.7674C90.1074 29.4616 89.4362 30.0711 88.6897 30.5779C87.6747 31.2639 86.475 31.6247 85.2499 31.6124C83.5973 31.6124 82.317 31.1805 81.448 30.3192C80.579 29.458 80.1368 28.1493 80.1368 26.4061V13.9452C80.1371 13.892 80.1269 13.8393 80.1068 13.7901C80.0867 13.7408 80.057 13.696 80.0195 13.6583C79.982 13.6205 79.9374 13.5906 79.8883 13.5702C79.8392 13.5497 79.7865 13.5392 79.7333 13.5392H75.6443C75.5366 13.5392 75.4334 13.582 75.3572 13.6581C75.2811 13.7343 75.2383 13.8376 75.2383 13.9452V27.0449C75.2383 29.7011 76.0426 31.8762 77.628 33.5107C79.2134 35.1453 81.4429 35.9703 84.249 35.9703C85.7605 35.9819 87.2523 35.6269 88.5966 34.9358C89.8268 34.3186 90.9208 33.4612 91.814 32.4141V34.9694C91.8147 35.0769 91.8577 35.1798 91.9337 35.2558C92.0097 35.3318 92.1126 35.3748 92.22 35.3755H95.7633C95.871 35.3755 95.9743 35.3327 96.0504 35.2565C96.1266 35.1804 96.1694 35.0771 96.1694 34.9694V13.9452C96.1694 13.8917 96.1588 13.8387 96.1382 13.7893C96.1176 13.7398 96.0875 13.6949 96.0495 13.6572C96.0115 13.6195 95.9665 13.5896 95.9169 13.5694C95.8673 13.5491 95.8143 13.5389 95.7607 13.5392ZM112.047 12.947C113.689 12.913 115.311 13.305 116.757 14.085C118.087 14.8195 119.18 15.9175 119.909 17.2506C120.668 18.6694 121.053 20.2584 121.027 21.8672V34.9669C121.026 35.0744 120.983 35.1773 120.907 35.2533C120.831 35.3293 120.728 35.3723 120.621 35.373H116.532C116.424 35.3723 116.321 35.3293 116.245 35.2533C116.169 35.1773 116.126 35.0744 116.126 34.9669V22.5008C116.126 20.8223 115.647 19.5318 114.716 18.6446C113.785 17.7575 112.554 17.3101 111.054 17.3101C109.828 17.2963 108.628 17.6572 107.614 18.3446C106.89 18.8337 106.231 19.4144 105.656 20.0723C105.228 20.5603 104.991 21.1869 104.989 21.8362V34.9695C104.989 35.0772 104.946 35.1805 104.87 35.2566C104.794 35.3328 104.69 35.3755 104.583 35.3755H100.496C100.389 35.3755 100.285 35.3328 100.209 35.2566C100.133 35.1805 100.09 35.0772 100.09 34.9695V13.9427C100.09 13.8362 100.132 13.7339 100.208 13.6583C100.283 13.5827 100.385 13.5399 100.491 13.5393H104.081C104.188 13.5393 104.291 13.5817 104.367 13.6573C104.443 13.7329 104.486 13.8355 104.487 13.9427V16.498C105.38 15.4535 106.473 14.5979 107.702 13.9815C109.046 13.2919 110.536 12.937 112.047 12.947ZM129.422 13.5393H125.335C125.111 13.5393 124.929 13.7211 124.929 13.9454V34.9695C124.929 35.1938 125.111 35.3756 125.335 35.3756H129.422C129.646 35.3756 129.828 35.1938 129.828 34.9695V13.9454C129.828 13.7211 129.646 13.5393 129.422 13.5393ZM149.445 13.5392H142.506C142.356 13.5386 142.212 13.4787 142.106 13.3726C142 13.2665 141.94 13.1229 141.939 12.9728V6.7243C141.939 6.67076 141.929 6.61774 141.908 6.56831C141.888 6.51887 141.858 6.474 141.82 6.43626C141.782 6.39852 141.737 6.36866 141.687 6.34841C141.637 6.32816 141.584 6.3179 141.531 6.31825C141.478 6.31851 141.425 6.3294 141.376 6.35027C141.327 6.37115 141.283 6.40159 141.246 6.4398L137.206 10.5003C137.168 10.5377 137.138 10.5824 137.118 10.6317C137.097 10.681 137.087 10.734 137.087 10.7874V12.9987C137.08 13.1435 137.018 13.28 136.913 13.3801C136.808 13.4801 136.669 13.5362 136.524 13.5367H133.596C133.489 13.538 133.387 13.5814 133.312 13.6574C133.237 13.7334 133.195 13.8359 133.195 13.9427V17.442C133.196 17.5481 133.239 17.6496 133.314 17.7249C133.389 17.8002 133.49 17.8435 133.596 17.8455H136.656C136.775 17.8722 136.883 17.9372 136.962 18.0305C137.041 18.1238 137.088 18.2405 137.095 18.3627V28.708C137.095 31.1262 137.794 32.9496 139.164 34.1393C140.535 35.329 142.369 35.9135 144.596 35.9135H149.432C149.485 35.9135 149.538 35.903 149.587 35.8826C149.637 35.8622 149.681 35.8323 149.719 35.7946C149.757 35.7569 149.787 35.7121 149.807 35.6628C149.828 35.6136 149.838 35.5608 149.838 35.5074V31.7185C149.838 31.6652 149.828 31.6124 149.807 31.5631C149.787 31.5138 149.757 31.4691 149.719 31.4314C149.681 31.3936 149.637 31.3637 149.587 31.3433C149.538 31.3229 149.485 31.3124 149.432 31.3124H146.062C143.662 31.3124 142.87 30.5908 142.863 30.5831C142.214 30.0115 141.95 29.2097 141.95 27.8157V18.4093C141.95 18.2611 142.008 18.1188 142.112 18.0133C142.216 17.9078 142.358 17.8475 142.506 17.8455H149.45C149.558 17.8448 149.66 17.8018 149.736 17.7258C149.812 17.6498 149.855 17.5469 149.856 17.4394V13.9427C149.856 13.8892 149.845 13.8362 149.824 13.7869C149.803 13.7376 149.773 13.6929 149.734 13.6554C149.696 13.6179 149.651 13.5884 149.601 13.5684C149.552 13.5485 149.498 13.5386 149.445 13.5392ZM210.751 22.0456C211.648 22.3975 212.493 22.8699 213.262 23.45C213.993 24.0028 214.598 24.7045 215.037 25.5087C215.494 26.386 215.722 27.3646 215.699 28.3536C215.727 29.7427 215.305 31.1035 214.496 32.2331C213.603 33.404 212.398 34.3003 211.02 34.8194C209.528 35.4324 207.699 35.7427 205.589 35.7427C203.76 35.7808 201.94 35.4782 200.222 34.8505C198.803 34.3309 197.56 33.4198 196.638 32.2228C195.827 31.1014 195.352 29.7732 195.267 28.3924C195.261 28.3253 195.271 28.2578 195.295 28.1948C195.318 28.1317 195.356 28.0747 195.404 28.0278C195.508 27.9258 195.649 27.8691 195.794 27.87H199.832C199.953 27.8677 200.071 27.9081 200.166 27.9842C200.261 28.0604 200.325 28.1673 200.349 28.2864C200.43 28.9193 200.693 29.5151 201.107 30.0011C201.606 30.5537 202.241 30.9665 202.948 31.1986C203.782 31.4745 204.656 31.61 205.535 31.5995C206.43 31.6162 207.321 31.4752 208.167 31.1831C208.836 30.9544 209.436 30.5582 209.908 30.0322C210.316 29.5611 210.54 28.9586 210.539 28.3355C210.549 27.8026 210.352 27.2866 209.991 26.8949C209.551 26.4566 209.022 26.1186 208.439 25.9044C207.651 25.5977 206.841 25.3496 206.016 25.1621L203.044 24.4509C200.879 23.931 199.157 23.15 197.871 22.0663C196.586 20.9826 195.934 19.5291 195.934 17.7394C195.911 16.3367 196.367 14.968 197.227 13.8599C198.153 12.7115 199.363 11.8252 200.737 11.2891C202.326 10.6608 204.023 10.3506 205.731 10.3761C207.431 10.3433 209.12 10.6538 210.697 11.2891C212.027 11.826 213.194 12.7027 214.08 13.8315C214.819 14.8117 215.256 15.9866 215.337 17.2118C215.341 17.2652 215.334 17.319 215.316 17.3695C215.278 17.4755 215.208 17.5667 215.115 17.6303C215.022 17.694 214.911 17.7267 214.799 17.7239H210.844C210.726 17.7272 210.61 17.6897 210.516 17.6176C210.421 17.5456 210.355 17.4434 210.327 17.3282C210.251 16.9161 210.091 16.5241 209.857 16.1769C209.622 15.8297 209.318 15.5348 208.964 15.3108C208.126 14.7625 207.014 14.4832 205.664 14.4832C204.828 14.4652 203.996 14.6019 203.209 14.8867C202.614 15.0977 202.085 15.4638 201.678 15.9471C201.336 16.3761 201.148 16.9083 201.146 17.4575C201.135 17.8856 201.255 18.3068 201.49 18.6653C201.74 19.0269 202.068 19.3281 202.449 19.5472C202.891 19.805 203.359 20.0148 203.846 20.1731C204.362 20.3415 204.887 20.4839 205.418 20.5998L207.87 21.1688C208.853 21.381 209.817 21.6743 210.751 22.0456ZM249.215 22.1103H239.697C239.646 22.1103 239.596 22.1204 239.549 22.1401C239.501 22.1598 239.459 22.1886 239.423 22.225C239.387 22.2613 239.359 22.3044 239.34 22.3517C239.321 22.3991 239.311 22.4498 239.312 22.5008V26.0854C239.312 26.1876 239.352 26.2857 239.425 26.3579C239.497 26.4302 239.595 26.4708 239.697 26.4708H245.056C244.976 27.2656 244.737 28.0361 244.353 28.7364C243.857 29.6211 243.112 30.3406 242.211 30.8055C241.189 31.3137 240.058 31.565 238.916 31.5374C237.618 31.5615 236.341 31.2074 235.241 30.5184C234.144 29.7864 233.285 28.75 232.768 27.5364C232.179 26.2432 231.879 24.9061 231.879 23.0258C231.83 21.4843 232.134 19.952 232.768 18.5463C233.286 17.3404 234.142 16.3107 235.233 15.5824C236.302 14.9043 237.545 14.5528 238.81 14.5712C239.51 14.5663 240.207 14.663 240.879 14.8582C241.486 15.0361 242.055 15.3217 242.56 15.7014C243.053 16.0772 243.48 16.5316 243.825 17.0463C244.155 17.5494 244.416 18.0949 244.601 18.6679C244.617 18.7238 244.651 18.7729 244.697 18.8071C244.744 18.8414 244.801 18.8588 244.86 18.8567H249.093C249.133 18.8577 249.173 18.8493 249.21 18.8323C249.246 18.8152 249.278 18.7899 249.303 18.7584C249.329 18.7287 249.348 18.6935 249.358 18.6554C249.368 18.6173 249.37 18.5773 249.362 18.5386C249.171 17.4248 248.779 16.355 248.206 15.3807C247.6 14.3561 246.811 13.4514 245.879 12.7116C244.911 11.9503 243.818 11.3639 242.648 10.9788C241.387 10.5631 240.066 10.356 238.738 10.3658C237.165 10.3522 235.605 10.6529 234.15 11.2503C232.753 11.8321 231.498 12.707 230.469 13.8159C229.389 15.0013 228.56 16.3932 228.033 17.9075C227.429 19.5639 227.134 21.3172 227.164 23.0801C227.164 25.7285 227.661 27.7588 228.638 29.6856C229.557 31.5424 230.991 33.0956 232.768 34.1599C234.517 35.1945 236.578 35.7324 238.895 35.7324C240.823 35.7677 242.73 35.329 244.448 34.4548C246.036 33.624 247.355 32.3582 248.25 30.8055C249.168 29.233 249.634 27.3424 249.634 25.1906V22.5267C249.634 22.4718 249.623 22.4174 249.602 22.3667C249.581 22.316 249.55 22.27 249.511 22.2313C249.472 22.1926 249.426 22.162 249.375 22.1412C249.324 22.1204 249.27 22.1099 249.215 22.1103ZM187.508 10.671H191.553C191.661 10.671 191.764 10.7138 191.84 10.79C191.916 10.8661 191.959 10.9694 191.959 11.0771V34.9591C191.959 35.0664 191.916 35.1693 191.841 35.2453C191.765 35.3214 191.663 35.3645 191.555 35.3652H187.466C187.39 35.3648 187.314 35.3447 187.248 35.3066C187.181 35.2685 187.125 35.2139 187.086 35.1479L174.84 18.3627V24.6811H174.814V34.9695C174.814 35.0772 174.771 35.1805 174.695 35.2566C174.619 35.3328 174.516 35.3755 174.408 35.3755H170.389C170.281 35.3755 170.178 35.3328 170.102 35.2566C170.026 35.1805 169.983 35.0772 169.983 34.9695V11.0771C169.983 10.9694 170.026 10.8661 170.102 10.79C170.178 10.7138 170.281 10.671 170.389 10.671H174.786C174.862 10.6711 174.937 10.6911 175.004 10.7293C175.07 10.7674 175.125 10.8222 175.163 10.8883L187.102 27.5726V23.0233V20.5663V11.0771C187.102 10.9694 187.145 10.8661 187.221 10.79C187.297 10.7138 187.4 10.671 187.508 10.671ZM274.512 10.671H270.479C270.372 10.671 270.269 10.7138 270.192 10.7899C270.116 10.8661 270.073 10.9693 270.073 11.077V19.7464C270.073 19.8242 270.058 19.9012 270.028 19.973C269.999 20.0449 269.955 20.1102 269.9 20.1652C269.845 20.2202 269.78 20.2638 269.708 20.2936C269.636 20.3233 269.559 20.3386 269.481 20.3386H258.373C258.295 20.3386 258.218 20.3233 258.146 20.2936C258.074 20.2638 258.009 20.2202 257.954 20.1652C257.899 20.1102 257.856 20.0449 257.826 19.973C257.796 19.9012 257.781 19.8242 257.781 19.7464V11.077C257.781 10.9693 257.738 10.8661 257.662 10.7899C257.586 10.7138 257.482 10.671 257.375 10.671H253.343C253.29 10.6713 253.237 10.6821 253.188 10.7027C253.14 10.7233 253.095 10.7533 253.058 10.791C253.021 10.8287 252.991 10.8734 252.971 10.9224C252.951 10.9715 252.941 11.0241 252.942 11.077V34.9669C252.941 35.0201 252.951 35.0728 252.972 35.1221C252.992 35.1713 253.021 35.2161 253.059 35.2538C253.096 35.2916 253.141 35.3215 253.19 35.3419C253.239 35.3624 253.292 35.3729 253.345 35.3729H257.377C257.431 35.3729 257.483 35.3624 257.533 35.342C257.582 35.3216 257.627 35.2917 257.664 35.254C257.702 35.2163 257.732 35.1715 257.752 35.1222C257.773 35.073 257.783 35.0202 257.783 34.9669V25.1906C257.783 25.1129 257.798 25.036 257.827 24.9641C257.857 24.8923 257.9 24.827 257.955 24.7719C258.01 24.7169 258.075 24.6732 258.147 24.6434C258.218 24.6136 258.295 24.5983 258.373 24.5983H269.494C269.572 24.598 269.649 24.6131 269.721 24.6427C269.793 24.6723 269.859 24.7159 269.914 24.771C269.969 24.8261 270.012 24.8915 270.042 24.9635C270.072 25.0355 270.087 25.1127 270.086 25.1906V34.9669C270.086 35.0745 270.129 35.1778 270.205 35.254C270.281 35.3301 270.385 35.3729 270.492 35.3729H274.524C274.632 35.3729 274.735 35.3301 274.812 35.254C274.888 35.1778 274.931 35.0745 274.931 34.9669V11.077C274.931 11.0226 274.92 10.9687 274.898 10.9186C274.877 10.8685 274.846 10.8231 274.807 10.7852C274.768 10.7474 274.722 10.7177 274.671 10.6981C274.62 10.6785 274.566 10.6692 274.512 10.671ZM278.223 10.684H297.879C297.985 10.686 298.087 10.7297 298.161 10.8056C298.236 10.8815 298.277 10.9837 298.277 11.09V14.5686C298.278 14.6194 298.268 14.6698 298.249 14.7169C298.229 14.7639 298.201 14.8067 298.165 14.8428C298.129 14.8788 298.087 14.9075 298.04 14.927C297.993 14.9465 297.943 14.9566 297.892 14.9566H291.129C290.972 14.9566 290.822 15.0186 290.711 15.1291C290.6 15.2396 290.537 15.3896 290.536 15.5462L290.467 34.9695C290.466 35.0802 290.421 35.1861 290.343 35.2641C290.264 35.3421 290.158 35.3859 290.048 35.3859H286.044C285.936 35.3859 285.832 35.3432 285.756 35.2671C285.679 35.191 285.636 35.0878 285.635 34.9798V15.5488C285.635 15.3917 285.573 15.2411 285.462 15.13C285.351 15.019 285.2 14.9566 285.043 14.9566H278.202C278.1 14.9559 278.002 14.9147 277.93 14.842C277.857 14.7693 277.817 14.6711 277.817 14.5686V11.09C277.817 10.9823 277.86 10.879 277.936 10.8029C278.012 10.7267 278.115 10.684 278.223 10.684ZM165.185 10.684H161.133C160.908 10.684 160.727 10.8658 160.727 11.09V34.9798C160.727 35.2041 160.908 35.3859 161.133 35.3859H165.185C165.41 35.3859 165.591 35.2041 165.591 34.9798V11.09C165.591 10.8658 165.41 10.684 165.185 10.684ZM219.418 10.684H223.471C223.695 10.684 223.877 10.8658 223.877 11.09V34.9798C223.877 35.2041 223.695 35.3859 223.471 35.3859H219.418C219.194 35.3859 219.012 35.2041 219.012 34.9798V11.09C219.012 10.8658 219.194 10.684 219.418 10.684Z" fill="black"/>
<path fill-rule="evenodd" clip-rule="evenodd" d="M445.874 10.1332H447.399C447.537 10.1332 447.648 10.2443 447.648 10.3815V11.9514C447.648 12.0885 447.537 12.1996 447.399 12.1996H445.874C445.736 12.1996 445.625 12.0885 445.625 11.9514V10.3815C445.625 10.2443 445.736 10.1332 445.874 10.1332ZM321.797 12.1867C323.705 13.1337 325.289 14.6251 326.349 16.4723C327.405 18.3163 327.943 20.4733 327.943 22.982C327.943 25.4908 327.405 27.7021 326.349 29.5564C325.294 31.4117 323.709 32.9101 321.797 33.8601C319.84 34.8558 317.507 35.3601 314.864 35.3601H306.864C306.713 35.3601 306.568 35.3003 306.461 35.1937C306.354 35.087 306.293 34.9423 306.292 34.7912V11.2557C306.292 11.1041 306.353 10.9587 306.46 10.8515C306.567 10.7443 306.712 10.6841 306.864 10.6841H314.864C317.507 10.6841 319.84 11.1884 321.797 12.1867ZM311.007 14.7627V31.2945C311.008 31.3194 311.018 31.3431 311.036 31.3605C311.054 31.3778 311.078 31.3876 311.103 31.3876H314.864C316.378 31.4237 317.877 31.0767 319.221 30.3789C320.441 29.7209 321.433 28.7093 322.066 27.477C322.755 26.0844 323.096 24.5456 323.06 22.9924C323.095 21.4575 322.754 19.9374 322.066 18.5646C321.429 17.3389 320.438 16.3333 319.221 15.6783C317.877 14.9796 316.378 14.6317 314.864 14.667H311.103C311.078 14.6677 311.054 14.678 311.036 14.6958C311.018 14.7136 311.008 14.7375 311.007 14.7627ZM352.365 10.6841H372.001C372.105 10.6894 372.203 10.7345 372.274 10.8101C372.346 10.8857 372.386 10.9859 372.386 11.0901V14.5713C372.386 14.6219 372.376 14.672 372.357 14.7188C372.337 14.7655 372.309 14.808 372.273 14.8438C372.237 14.8796 372.195 14.908 372.148 14.9273C372.101 14.9467 372.051 14.9567 372.001 14.9567H365.243C365.086 14.9567 364.936 15.0187 364.825 15.1292C364.714 15.2397 364.651 15.3897 364.65 15.5464L364.58 34.9437C364.58 34.9984 364.57 35.0526 364.549 35.1031C364.528 35.1536 364.497 35.1995 364.459 35.2382C364.42 35.2769 364.374 35.3075 364.323 35.3284C364.273 35.3494 364.219 35.3601 364.164 35.3601H360.163C360.055 35.3601 359.952 35.3174 359.876 35.2412C359.8 35.1651 359.757 35.0618 359.757 34.9541V15.5438C359.758 15.3883 359.697 15.2388 359.588 15.1279C359.479 15.0169 359.331 14.9536 359.175 14.9515H352.345C352.242 14.9515 352.144 14.9109 352.072 14.8386C352 14.7664 351.959 14.6683 351.959 14.5661V11.0901C351.959 10.9824 352.002 10.8792 352.078 10.803C352.154 10.7269 352.258 10.6841 352.365 10.6841ZM349.412 25.6848C349.043 24.8823 348.497 24.1746 347.813 23.6157C347.284 23.1772 346.686 22.8278 346.044 22.5812C346.027 22.5749 346.011 22.5634 346 22.5481C345.989 22.5329 345.983 22.5147 345.982 22.4958C345.981 22.4763 345.986 22.457 345.997 22.4407C346.008 22.4244 346.023 22.412 346.042 22.4053C346.558 22.1641 347.034 21.8448 347.454 21.4587C348.036 20.9265 348.501 20.2792 348.819 19.5578C349.22 18.6143 349.376 17.5849 349.272 16.5652C349.168 15.5455 348.807 14.5687 348.225 13.7256C347.447 12.701 346.394 11.9195 345.188 11.4729C343.718 10.9261 342.158 10.6629 340.59 10.697H331.333C331.182 10.697 331.036 10.7573 330.929 10.8645C330.822 10.9716 330.762 11.117 330.762 11.2686V34.8041C330.762 34.8792 330.776 34.9535 330.805 35.0228C330.834 35.0922 330.876 35.1552 330.929 35.2083C330.982 35.2614 331.045 35.3035 331.115 35.3322C331.184 35.3609 331.258 35.3757 331.333 35.3757H341.185C342.772 35.4089 344.349 35.1203 345.822 34.5274C347.066 34.0237 348.134 33.1657 348.894 32.06C349.62 30.9437 349.993 29.6356 349.968 28.3047C349.974 27.4014 349.784 26.5076 349.412 25.6848ZM344.482 17.7215C344.498 18.306 344.335 18.8814 344.014 19.3702C343.693 19.8589 343.23 20.2376 342.687 20.4552C342.021 20.7296 341.305 20.8617 340.585 20.8432H335.57C335.557 20.8435 335.545 20.8414 335.533 20.8368C335.522 20.8323 335.511 20.8255 335.502 20.8168C335.493 20.8081 335.486 20.7978 335.481 20.7863C335.476 20.7748 335.474 20.7625 335.474 20.7501V14.7627C335.474 14.7374 335.484 14.713 335.502 14.6951C335.52 14.6771 335.544 14.667 335.57 14.667H340.585C341.305 14.6503 342.02 14.7824 342.687 15.055C343.221 15.2785 343.681 15.6467 344.017 16.118C344.327 16.5939 344.485 17.1534 344.469 17.7215H344.482ZM335.479 24.9244C335.479 24.9117 335.481 24.8991 335.486 24.8873C335.49 24.8756 335.497 24.8649 335.506 24.8559C335.515 24.847 335.526 24.8399 335.538 24.8352C335.55 24.8306 335.562 24.8283 335.575 24.8287H340.835C341.614 24.8097 342.388 24.9478 343.111 25.2347C343.695 25.4708 344.198 25.8694 344.562 26.3831C344.911 26.8968 345.091 27.5057 345.08 28.1262C345.093 28.7332 344.923 29.33 344.59 29.838C344.258 30.3459 343.779 30.7411 343.217 30.9712C342.542 31.2531 341.815 31.3906 341.084 31.3747H335.577C335.565 31.375 335.552 31.3728 335.54 31.3681C335.529 31.3634 335.518 31.3564 335.509 31.3474C335.5 31.3385 335.493 31.3278 335.488 31.316C335.484 31.3042 335.481 31.2916 335.482 31.279L335.479 24.9244ZM447.399 13.0402H445.879C445.742 13.0402 445.63 13.1513 445.63 13.2884V21.6759C445.63 21.813 445.742 21.9242 445.879 21.9242H447.399C447.537 21.9242 447.648 21.813 447.648 21.6759V13.2884C447.648 13.1513 447.537 13.0402 447.399 13.0402ZM393.772 15.9473H398.029C398.182 15.9473 398.306 16.0712 398.306 16.224V17.6749C398.306 17.8278 398.182 17.9517 398.029 17.9517H393.772C393.619 17.9517 393.495 17.8278 393.495 17.6749V16.224C393.495 16.0712 393.619 15.9473 393.772 15.9473ZM482.255 21.9552C482.198 21.9552 482.142 21.9324 482.102 21.8916C482.061 21.8509 482.038 21.7956 482.038 21.738V13.2368C482.038 13.1791 482.061 13.1239 482.102 13.0831C482.142 13.0424 482.198 13.0195 482.255 13.0195H483.854C483.911 13.0195 483.967 13.0424 484.007 13.0831C484.048 13.1239 484.071 13.1791 484.071 13.2368V14.7886C484.619 13.6092 485.501 12.9393 486.629 12.8488H486.867C486.896 12.8481 486.925 12.8532 486.952 12.8638C486.979 12.8744 487.004 12.8902 487.025 12.9104C487.046 12.9306 487.062 12.9548 487.074 12.9815C487.085 13.0082 487.091 13.037 487.092 13.0661V14.9205C487.093 14.9434 487.089 14.9663 487.08 14.9877C487.072 15.0091 487.059 15.0285 487.043 15.0446C487.012 15.0698 486.974 15.0843 486.934 15.086C486.825 15.086 486.722 15.086 486.618 15.0989C485.131 15.2308 484.203 16.3145 484.071 18.0758V21.738C484.071 21.7956 484.048 21.8509 484.007 21.8916C483.967 21.9324 483.911 21.9552 483.854 21.9552H482.255ZM380.034 10.6841H381.619C381.743 10.6841 381.844 10.7848 381.844 10.9091V21.6682C381.844 21.7924 381.743 21.8932 381.619 21.8932H380.034C379.909 21.8932 379.809 21.7924 379.809 21.6682V10.9091C379.809 10.7848 379.909 10.6841 380.034 10.6841ZM407.632 21.8932C407.586 21.8928 407.542 21.8785 407.504 21.8522C407.467 21.8259 407.438 21.7887 407.423 21.7458L406.507 19.2008C406.498 19.1754 406.481 19.1533 406.459 19.1376C406.437 19.1219 406.41 19.1133 406.383 19.1129H402.123C402.096 19.1129 402.069 19.1214 402.047 19.1372C402.025 19.1529 402.008 19.1751 401.999 19.2008L401.071 21.7458C401.055 21.7889 401.027 21.8263 400.989 21.8527C400.952 21.8791 400.907 21.8932 400.861 21.8932H399.157C399.121 21.8931 399.085 21.8844 399.053 21.8677C399.021 21.8511 398.994 21.827 398.973 21.7975C398.953 21.7681 398.939 21.7342 398.935 21.6985C398.93 21.6629 398.935 21.6268 398.947 21.5932L402.863 10.8315C402.879 10.7885 402.907 10.7514 402.945 10.7251C402.982 10.6987 403.027 10.6844 403.072 10.6841H405.47C405.516 10.6842 405.56 10.6985 405.597 10.7249C405.634 10.7513 405.662 10.7885 405.677 10.8315L409.611 21.5932C409.623 21.6269 409.626 21.663 409.622 21.6984C409.617 21.7339 409.604 21.7677 409.583 21.797C409.563 21.8263 409.535 21.8504 409.504 21.8671C409.472 21.8838 409.437 21.8928 409.401 21.8932H407.632ZM404.242 13.1902C404.213 13.1901 404.186 13.1991 404.163 13.2158C404.14 13.2326 404.123 13.2563 404.115 13.2833L402.713 17.1421C402.703 17.1609 402.698 17.1817 402.698 17.2029C402.698 17.2241 402.703 17.2449 402.713 17.2637C402.724 17.2775 402.738 17.2885 402.755 17.2957C402.771 17.3029 402.788 17.3061 402.806 17.3051H405.651C405.672 17.3051 405.693 17.2999 405.711 17.29C405.73 17.2801 405.746 17.2657 405.757 17.2482C405.769 17.2307 405.777 17.2106 405.781 17.1895C405.784 17.1684 405.782 17.1469 405.775 17.1266L404.368 13.2885C404.361 13.2603 404.345 13.2352 404.322 13.2173C404.299 13.1995 404.271 13.19 404.242 13.1902ZM410.65 24.7443C410.677 24.7556 410.706 24.7614 410.736 24.7614H412.329C412.389 24.7614 412.446 24.7377 412.488 24.6955C412.53 24.6533 412.554 24.5961 412.554 24.5364V21.094C412.554 21.0655 412.572 21.0449 412.613 21.0449C412.629 21.0426 412.645 21.0426 412.66 21.0449C412.954 21.3544 413.305 21.6039 413.695 21.7794C414.202 22.0029 414.751 22.1158 415.306 22.1104C416.057 22.121 416.794 21.9105 417.427 21.5052C418.054 21.0934 418.559 20.5197 418.888 19.8448C419.234 19.1006 419.413 18.2899 419.413 17.4693C419.413 16.6486 419.234 15.8379 418.888 15.0937C418.559 14.4188 418.054 13.8451 417.427 13.4333C416.677 12.9618 415.791 12.7564 414.911 12.8502C414.031 12.944 413.208 13.3317 412.575 13.9506C412.559 13.9506 412.544 13.9273 412.544 13.8963V13.2342C412.541 13.1759 412.516 13.1209 412.473 13.0808C412.431 13.0408 412.374 13.0188 412.316 13.0195H410.736C410.677 13.0195 410.62 13.0429 410.578 13.0845C410.535 13.1261 410.511 13.1827 410.511 13.2419V24.5364C410.511 24.5659 410.517 24.5952 410.528 24.6225C410.539 24.6498 410.556 24.6746 410.577 24.6955C410.598 24.7164 410.622 24.733 410.65 24.7443ZM413.845 14.7502C414.145 14.6164 414.47 14.5483 414.799 14.5506C415.253 14.5435 415.699 14.6772 416.074 14.9334C416.455 15.2019 416.756 15.5683 416.946 15.9938C417.153 16.4775 417.26 16.9984 417.26 17.5249C417.26 18.0513 417.153 18.5723 416.946 19.056C416.756 19.4815 416.455 19.8479 416.074 20.1164C415.699 20.3725 415.253 20.5062 414.799 20.4991C414.305 20.5044 413.824 20.3472 413.428 20.0517C413.164 19.8553 412.941 19.6082 412.774 19.325C412.621 19.063 412.541 18.7645 412.544 18.4611V16.4981C412.542 16.2849 412.59 16.0743 412.683 15.8826C412.784 15.6821 412.91 15.4952 413.058 15.3265C413.276 15.0805 413.544 14.884 413.845 14.7502ZM420.711 24.7614C420.682 24.7614 420.653 24.7556 420.625 24.7443C420.598 24.733 420.573 24.7164 420.552 24.6955C420.531 24.6746 420.515 24.6498 420.503 24.6225C420.492 24.5952 420.486 24.5659 420.486 24.5364V13.2419C420.487 13.1827 420.511 13.1261 420.553 13.0845C420.595 13.0429 420.652 13.0195 420.711 13.0195H422.292C422.35 13.0188 422.406 13.0408 422.449 13.0808C422.491 13.1209 422.516 13.1759 422.519 13.2342V13.8963C422.519 13.9273 422.535 13.9506 422.55 13.9506C423.183 13.3317 424.006 12.944 424.886 12.8502C425.767 12.7564 426.653 12.9618 427.402 13.4333C428.03 13.8451 428.535 14.4188 428.863 15.0937C429.211 15.8375 429.391 16.6484 429.391 17.4693C429.391 18.2902 429.211 19.1011 428.863 19.8448C428.535 20.5197 428.03 21.0934 427.402 21.5052C426.77 21.9105 426.032 22.121 425.281 22.1104C424.727 22.116 424.177 22.0032 423.67 21.7794C423.281 21.6039 422.93 21.3544 422.636 21.0449C422.62 21.0426 422.604 21.0426 422.589 21.0449C422.548 21.0449 422.529 21.0655 422.529 21.094V24.5364C422.529 24.5961 422.506 24.6533 422.464 24.6955C422.421 24.7377 422.364 24.7614 422.304 24.7614H420.711ZM424.774 14.5506C424.442 14.549 424.113 14.6187 423.81 14.7549C423.514 14.8885 423.249 15.0833 423.034 15.3265C422.884 15.4945 422.757 15.6815 422.656 15.8826C422.563 16.0743 422.515 16.2849 422.517 16.4981V18.4611C422.514 18.7645 422.594 19.063 422.747 19.325C422.914 19.6082 423.137 19.8553 423.401 20.0517C423.797 20.3472 424.278 20.5044 424.772 20.4991C425.226 20.5062 425.672 20.3725 426.047 20.1164C426.428 19.8479 426.729 19.4815 426.919 19.056C427.126 18.5723 427.233 18.0513 427.233 17.5249C427.233 16.9984 427.126 16.4775 426.919 15.9938C426.728 15.5687 426.427 15.2026 426.047 14.9334C425.672 14.6777 425.228 14.5441 424.774 14.5506ZM389.985 21.9071C390.013 21.9184 390.042 21.9242 390.071 21.9242H391.639C391.698 21.9236 391.754 21.8996 391.796 21.8574C391.838 21.8153 391.861 21.7585 391.861 21.6992V16.3947C391.875 15.7666 391.734 15.1447 391.45 14.5843C391.185 14.0763 390.778 13.6566 390.278 13.3765C389.733 13.0816 389.121 12.9337 388.501 12.9471C388.025 12.9434 387.553 13.0312 387.11 13.2058C386.665 13.3837 386.26 13.6474 385.918 13.9817C385.824 14.082 385.737 14.1892 385.659 14.3024H385.641L385.618 14.3231V13.2446C385.615 13.1862 385.59 13.1312 385.547 13.0912C385.505 13.0511 385.448 13.0292 385.39 13.0299H383.81C383.78 13.0295 383.751 13.035 383.724 13.0461C383.697 13.0571 383.672 13.0734 383.651 13.0941C383.63 13.1148 383.613 13.1394 383.602 13.1666C383.591 13.1938 383.585 13.2229 383.585 13.2523V21.6992C383.585 21.7589 383.608 21.8161 383.651 21.8583C383.693 21.9005 383.75 21.9242 383.81 21.9242H385.398C385.457 21.9242 385.515 21.9005 385.557 21.8583C385.599 21.8161 385.623 21.7589 385.623 21.6992V16.8576C385.622 16.7594 385.643 16.6622 385.685 16.5731C385.818 16.2829 385.976 16.005 386.158 15.7429C386.392 15.3965 386.702 15.1088 387.066 14.9024C387.403 14.7269 387.778 14.638 388.157 14.6438C388.467 14.6366 388.773 14.7144 389.042 14.8688C389.297 15.0222 389.503 15.2457 389.634 15.5128C389.783 15.8196 389.856 16.1573 389.849 16.4981V21.6992C389.848 21.7287 389.854 21.7579 389.865 21.7851C389.876 21.8124 389.892 21.8373 389.913 21.8582C389.934 21.8791 389.958 21.8957 389.985 21.9071ZM453.64 22.1828C450.922 22.1828 448.949 20.2379 448.949 17.5585C448.949 14.8791 450.87 12.8824 453.418 12.8824C456.446 12.8824 457.802 15.2903 457.802 17.6749C457.802 17.8094 457.802 17.9335 457.781 18.0861C457.776 18.1406 457.751 18.1912 457.711 18.2285C457.671 18.2657 457.618 18.2868 457.564 18.2879H451.225C451.212 18.2878 451.199 18.2906 451.188 18.2959C451.176 18.3013 451.166 18.3091 451.157 18.3189C451.15 18.3286 451.144 18.34 451.142 18.352C451.139 18.3641 451.139 18.3767 451.142 18.3887C451.242 18.9806 451.554 19.5156 452.021 19.8929C452.488 20.2702 453.077 20.4637 453.677 20.4371C454.104 20.4427 454.528 20.3628 454.925 20.202C455.321 20.0412 455.681 19.8028 455.984 19.5008C456.025 19.4645 456.078 19.4443 456.134 19.4439C456.185 19.4437 456.234 19.4621 456.273 19.4957L457.24 20.3336C457.263 20.3526 457.281 20.3759 457.295 20.4021C457.308 20.4283 457.316 20.4569 457.318 20.4862C457.319 20.515 457.315 20.5437 457.305 20.5708C457.296 20.5979 457.281 20.6228 457.261 20.644C456.805 21.1472 456.245 21.5454 455.62 21.8111C454.995 22.0767 454.319 22.2036 453.64 22.1828ZM453.431 14.6825C452.262 14.6825 451.388 15.4998 451.152 16.8162C451.15 16.8281 451.15 16.8403 451.153 16.852C451.156 16.8637 451.162 16.8745 451.17 16.8835C451.178 16.8935 451.188 16.9015 451.199 16.9069C451.21 16.9123 451.223 16.9149 451.235 16.9145H455.58C455.592 16.9147 455.604 16.9122 455.615 16.9073C455.627 16.9024 455.637 16.8951 455.645 16.8861C455.653 16.8772 455.659 16.8665 455.663 16.8548C455.666 16.8432 455.667 16.8309 455.665 16.8188C455.474 15.4895 454.618 14.6696 453.431 14.6696V14.6825ZM471.656 17.5585C471.656 20.2379 473.63 22.1828 476.348 22.1828C477.029 22.205 477.707 22.0788 478.334 21.8131C478.962 21.5474 479.524 21.1485 479.982 20.644C480.001 20.6226 480.016 20.5977 480.025 20.5706C480.034 20.5435 480.038 20.5148 480.036 20.4862C480.035 20.4571 480.027 20.4285 480.014 20.4023C480.001 20.3761 479.983 20.3527 479.961 20.3336L478.991 19.4957C478.953 19.4621 478.903 19.4437 478.852 19.4439C478.797 19.444 478.745 19.4643 478.704 19.5008C478.401 19.8026 478.04 20.0409 477.644 20.2017C477.247 20.3624 476.823 20.4425 476.395 20.4371C475.795 20.4632 475.207 20.2694 474.74 19.8922C474.273 19.515 473.96 18.9804 473.86 18.3887C473.857 18.3765 473.857 18.3637 473.86 18.3516C473.864 18.3394 473.87 18.3282 473.878 18.3189C473.886 18.3089 473.895 18.3009 473.907 18.2954C473.918 18.29 473.93 18.2874 473.943 18.2879H480.282C480.337 18.2868 480.389 18.2657 480.429 18.2285C480.469 18.1912 480.494 18.1406 480.499 18.0861C480.52 17.9335 480.52 17.8094 480.52 17.6749C480.52 15.2903 479.152 12.8824 476.123 12.8824C473.576 12.8824 471.656 14.8791 471.656 17.5585ZM473.824 16.8162C474.059 15.4998 474.933 14.6825 476.105 14.6825V14.6696C477.308 14.6696 478.143 15.4688 478.34 16.8188C478.341 16.8308 478.34 16.843 478.336 16.8545C478.332 16.8661 478.327 16.8768 478.319 16.8861C478.302 16.9037 478.279 16.9139 478.254 16.9145H473.909C473.897 16.9147 473.885 16.9121 473.873 16.907C473.862 16.902 473.852 16.8945 473.844 16.8851C473.836 16.8758 473.83 16.8648 473.826 16.8529C473.823 16.841 473.822 16.8285 473.824 16.8162ZM437.83 21.8932C437.784 21.893 437.739 21.8788 437.701 21.8525C437.663 21.8261 437.634 21.7889 437.618 21.7458L433.796 10.9815C433.783 10.9482 433.779 10.9123 433.784 10.877C433.789 10.8416 433.802 10.8082 433.824 10.7798C433.844 10.7503 433.871 10.7262 433.903 10.7096C433.934 10.6929 433.969 10.6841 434.005 10.6841H435.73C435.776 10.6843 435.821 10.6988 435.859 10.7257C435.896 10.7525 435.925 10.7904 435.94 10.8341L438.968 19.3689C438.986 19.431 439.017 19.4698 439.048 19.4698C439.079 19.4698 439.11 19.431 439.126 19.3715L442.144 10.8367C442.159 10.7933 442.188 10.7557 442.225 10.7293C442.263 10.7029 442.308 10.6889 442.354 10.6893H444.048C444.083 10.6893 444.118 10.6981 444.15 10.7147C444.182 10.7314 444.209 10.7555 444.229 10.7849C444.249 10.8139 444.262 10.8473 444.267 10.8824C444.272 10.9175 444.269 10.9532 444.257 10.9867L440.432 21.7509C440.417 21.7941 440.388 21.8314 440.351 21.8578C440.313 21.8842 440.268 21.8984 440.223 21.8984L437.83 21.8932ZM466.666 21.9097C466.706 21.9391 466.753 21.9551 466.802 21.9553L468.615 21.963C468.664 21.9627 468.711 21.9466 468.749 21.9172C468.788 21.8879 468.816 21.8468 468.83 21.8001L471.261 13.3118C471.27 13.2783 471.271 13.2431 471.265 13.209C471.258 13.1748 471.243 13.1428 471.222 13.1152C471.201 13.0876 471.174 13.0652 471.143 13.0499C471.112 13.0346 471.078 13.0269 471.044 13.0273H469.606C469.557 13.0276 469.51 13.0437 469.471 13.0731C469.432 13.1024 469.404 13.1435 469.391 13.1902L467.694 19.2112C467.691 19.2244 467.683 19.2361 467.672 19.2445C467.662 19.253 467.648 19.2576 467.635 19.2577C467.621 19.2577 467.607 19.2532 467.596 19.2448C467.585 19.2364 467.577 19.2246 467.573 19.2112L465.796 13.1902C465.782 13.144 465.754 13.1035 465.715 13.0746C465.676 13.0457 465.63 13.0301 465.581 13.0299H464.029C463.981 13.0295 463.933 13.0449 463.894 13.0738C463.855 13.1028 463.826 13.1436 463.812 13.1902L462.095 19.1853C462.092 19.1985 462.084 19.2102 462.073 19.2183C462.062 19.2263 462.049 19.2302 462.035 19.2293C462.022 19.2297 462.009 19.2257 461.998 19.2177C461.987 19.2097 461.979 19.1983 461.976 19.1853L460.261 13.1825C460.247 13.1356 460.219 13.0944 460.18 13.0651C460.14 13.0357 460.093 13.0197 460.044 13.0195H458.51C458.476 13.0193 458.442 13.0272 458.411 13.0424C458.38 13.0577 458.353 13.08 458.332 13.1075C458.31 13.1353 458.296 13.168 458.289 13.2026C458.283 13.2373 458.285 13.2729 458.296 13.3066L460.735 21.7923C460.748 21.8392 460.777 21.8804 460.816 21.9097C460.855 21.9391 460.903 21.9551 460.952 21.9553H462.747C462.796 21.9551 462.843 21.9391 462.882 21.9097C462.921 21.8804 462.95 21.8392 462.964 21.7923L464.715 15.7145C464.718 15.7013 464.726 15.6895 464.737 15.6811C464.747 15.6727 464.761 15.6681 464.774 15.6679C464.788 15.6676 464.802 15.6721 464.812 15.6805C464.823 15.689 464.831 15.701 464.834 15.7145L466.585 21.7923C466.599 21.8392 466.627 21.8804 466.666 21.9097Z" fill="#00C9EA"/>
</g>
<defs>
<clipPath id="clip0_9065_96249">
<rect width="488" height="40" fill="white"/>
</clipPath>
</defs>
</svg>
