<svg width="852" height="42" viewBox="0 0 852 42" fill="none" xmlns="http://www.w3.org/2000/svg">
<path d="M20 0C8.95383 0 0 8.95383 0 20C0 31.0462 8.95383 40 20 40C31.0462 40 40 31.0462 40 20C40 8.95383 31.0462 0 20 0ZM26.0106 18.6629C21.9966 18.7146 18.7586 21.9553 18.7094 25.964H18.7068C18.7068 25.9951 18.7068 26.0261 18.7068 26.0572C18.7068 28.6642 16.5938 30.7772 13.9868 30.7772C11.3798 30.7772 9.26678 28.6642 9.26678 26.0572C9.26678 23.4501 11.3798 21.3371 13.9868 21.3371H13.9894C15.9343 21.3371 17.799 20.5586 19.1698 19.1775C20.5405 17.7965 21.3035 15.924 21.288 13.979C21.288 13.9661 21.288 13.9558 21.288 13.9428C21.288 11.3358 23.401 9.22281 26.008 9.22281C28.615 9.22281 30.728 11.3358 30.728 13.9428C30.728 16.5499 28.615 18.6629 26.008 18.6629H26.0106Z" fill="#00C9EA"/>
<path fill-rule="evenodd" clip-rule="evenodd" d="M72.2426 30.4542H57.8349C56.8439 30.449 56.0284 29.6387 56.0207 28.6477V3.94581C56.0207 3.72129 55.84 3.54065 55.6155 3.54065H51.1742C50.9497 3.54065 50.769 3.72129 50.769 3.94581V30.0877C50.769 32.96 53.1071 35.2981 55.9794 35.2981H72.2426C72.4671 35.2981 72.6478 35.1174 72.6478 34.8929V30.8594C72.6478 30.6374 72.4671 30.4542 72.2426 30.4542ZM129.138 5.76001H125.061C124.837 5.76001 124.656 5.94141 124.656 6.16517V10.2426C124.656 10.4664 124.837 10.6478 125.061 10.6478H129.138C129.362 10.6478 129.543 10.4664 129.543 10.2426V6.16517C129.543 5.94141 129.362 5.76001 129.138 5.76001ZM732.235 34.8181L732.263 11.0994C732.263 10.8362 732.057 10.6736 731.853 10.6736H726.276C726.101 10.6736 725.943 10.7846 725.884 10.9497L718.493 29.4246C718.472 29.4787 718.431 29.5071 718.382 29.52C718.335 29.5071 718.292 29.4813 718.271 29.4246L710.88 10.9497C710.821 10.7846 710.663 10.6736 710.488 10.6736H704.674C704.467 10.6736 704.292 10.8233 704.263 11.0271L704.268 34.8155C704.268 35.0555 704.426 35.2929 704.679 35.2929H708.359C708.57 35.2929 708.772 35.12 708.772 34.9239L708.753 18.462C708.772 18.2942 709.004 18.2658 709.063 18.4258L715.959 35.022C716.018 35.1871 716.175 35.2955 716.348 35.2955H720.413C720.588 35.2955 720.743 35.1871 720.803 35.022L727.698 18.4258C727.755 18.2658 727.99 18.2942 728.008 18.462L727.99 34.9239C727.99 35.1278 728.191 35.2929 728.403 35.2929H731.822C732.075 35.2929 732.232 35.0865 732.232 34.8155L732.235 34.8181ZM548.261 9.37036H544.906C544.604 9.37036 544.359 9.61552 544.359 9.91746V13.3704C544.359 13.6723 544.604 13.9175 544.906 13.9175H548.261C548.563 13.9175 548.808 13.6723 548.808 13.3704V9.91746C548.808 9.61552 548.563 9.37036 548.261 9.37036ZM544.919 15.7626H548.266C548.568 15.7626 548.813 16.0078 548.813 16.3097V34.7639C548.813 35.0658 548.568 35.311 548.266 35.311H544.919C544.617 35.311 544.372 35.0658 544.372 34.7639V16.3097C544.372 16.0078 544.617 15.7626 544.919 15.7626ZM648.405 9.37036H645.05C644.748 9.37036 644.503 9.61552 644.503 9.91746V13.3704C644.503 13.6723 644.748 13.9175 645.05 13.9175H648.405C648.707 13.9175 648.952 13.6723 648.952 13.3704V9.91746C648.952 9.61552 648.707 9.37036 648.405 9.37036ZM645.063 15.7626H648.41C648.712 15.7626 648.957 16.0078 648.957 16.3097V34.7639C648.957 35.0658 648.712 35.311 648.41 35.311H645.063C644.761 35.311 644.516 35.0658 644.516 34.7639V16.3097C644.516 16.0078 644.761 15.7626 645.063 15.7626ZM481.548 26.8051L485.566 26.8155V26.8232C485.708 26.8232 485.845 26.8877 485.941 26.9961C486.036 27.1071 486.077 27.2568 486.057 27.4039C485.822 28.9858 485.259 30.3897 484.387 31.5819C483.43 32.8903 482.145 33.9097 480.568 34.6116C478.996 35.3109 477.164 35.6645 475.12 35.6645C472.725 35.6645 470.619 35.1432 468.862 34.1187C467.099 33.0916 465.721 31.6077 464.767 29.7084C463.812 27.8168 463.329 25.5613 463.329 23.009C463.329 20.4568 463.825 18.2013 464.8 16.3071C465.781 14.4077 467.182 12.9239 468.965 11.8968C470.748 10.8697 472.877 10.351 475.293 10.351C477.265 10.351 479.053 10.6993 480.601 11.3858C482.155 12.0748 483.412 13.071 484.336 14.3458C485.177 15.5071 485.711 16.8697 485.923 18.3897C485.943 18.5368 485.899 18.6839 485.804 18.7948C485.711 18.9032 485.574 18.9651 485.43 18.9651L481.373 18.9755C481.136 18.9755 480.927 18.8 480.88 18.5626C480.725 17.7755 480.426 17.0684 479.995 16.4593C479.51 15.7755 478.852 15.2413 478.041 14.8748C477.228 14.5058 476.302 14.32 475.293 14.32C473.856 14.32 472.929 14.671 471.868 15.3651C470.808 16.0593 469.979 17.0684 469.406 18.369C468.831 19.6774 468.539 21.2335 468.539 23.0039C468.539 24.7742 468.826 26.3329 469.391 27.6413C469.951 28.9419 470.756 29.951 471.786 30.6451C472.813 31.3368 473.711 31.6877 475.123 31.6877C476.222 31.6877 477.213 31.4942 478.062 31.1148C478.908 30.7355 479.6 30.1806 480.121 29.458C480.581 28.818 480.898 28.0671 481.058 27.2206C481.102 26.9806 481.308 26.8051 481.548 26.8051ZM338.797 15.5743C337.383 15.5743 336.17 15.7007 335.068 15.9226C333.842 16.1704 332.748 16.542 331.662 16.9962C331.455 17.0839 331.352 17.3188 331.424 17.5304L331.623 18.1059L332.353 20.222C332.433 20.4517 332.689 20.5678 332.916 20.4801C333.956 20.0775 334.968 19.7704 336.085 19.5949C336.743 19.4917 337.432 19.4323 338.193 19.4323C340.741 19.4323 342.356 20.3639 342.911 22.1291C343.048 22.5626 343.122 23.0478 343.128 23.5794C343.128 23.5923 343.128 23.6052 343.129 23.6181C343.13 23.631 343.13 23.6439 343.13 23.6568V24.1343C343.061 24.1136 342.991 24.093 342.919 24.0723C342.261 23.8762 341.587 23.7059 340.859 23.5794C339.951 23.422 338.955 23.3265 337.775 23.3265C332.913 23.3265 329.559 25.3859 329.559 29.5743V29.6465C329.559 32.893 331.863 34.8826 334.79 35.4581C335.375 35.5742 335.984 35.6362 336.609 35.6362C339.584 35.6362 341.628 34.4491 342.986 32.9239C343.022 32.8852 343.058 32.8465 343.091 32.8052V34.8749C343.091 35.1123 343.282 35.3033 343.52 35.3033H347.112C347.35 35.3033 347.54 35.1123 347.54 34.8749V23.7265C347.54 21.1897 346.862 19.133 345.391 17.7368C343.995 16.3407 341.773 15.5691 338.792 15.5691L338.797 15.5743ZM343.208 27.0091V28.253C343.208 28.2884 343.205 28.323 343.202 28.3577L343.202 28.3595C343.201 28.3771 343.199 28.3948 343.198 28.4127L343.197 28.4284C343.177 28.8697 343.084 29.2852 342.921 29.6697C342.222 31.3394 340.284 32.4052 337.891 32.4052C335.706 32.4052 334.008 31.3394 334.008 29.4659V29.391C334.008 27.3704 335.742 26.1575 338.681 26.1575C340.348 26.1575 341.788 26.4388 342.919 26.8284C342.951 26.8397 342.983 26.8506 343.015 26.8615C343.079 26.8833 343.143 26.905 343.205 26.9291V27.0091H343.208ZM418.872 15.9226C419.974 15.7007 421.187 15.5743 422.601 15.5743L422.596 15.5691C425.577 15.5691 427.799 16.3407 429.195 17.7368C430.666 19.133 431.344 21.1897 431.344 23.7265V34.8749C431.344 35.1123 431.154 35.3033 430.916 35.3033H427.324C427.086 35.3033 426.895 35.1123 426.895 34.8749V32.8052C426.862 32.8465 426.826 32.8852 426.79 32.9239C425.432 34.4491 423.388 35.6362 420.413 35.6362C419.788 35.6362 419.179 35.5742 418.594 35.4581C415.667 34.8826 413.363 32.893 413.363 29.6465V29.5743C413.363 25.3859 416.717 23.3265 421.579 23.3265C422.759 23.3265 423.755 23.422 424.663 23.5794C425.391 23.7059 426.064 23.8762 426.723 24.0723L426.794 24.093L426.857 24.1113L426.934 24.1343V23.6568C426.934 23.6513 426.934 23.6458 426.934 23.6402L426.933 23.6181C426.932 23.6052 426.932 23.5923 426.932 23.5794C426.926 23.0478 426.852 22.5626 426.715 22.1291C426.16 20.3639 424.544 19.4323 421.997 19.4323C421.236 19.4323 420.547 19.4917 419.889 19.5949C418.772 19.7704 417.76 20.0775 416.72 20.4801C416.493 20.5678 416.237 20.4517 416.157 20.222L415.427 18.1059L415.228 17.5304C415.156 17.3188 415.259 17.0839 415.466 16.9962C416.552 16.542 417.646 16.1704 418.872 15.9226ZM427.012 28.253V27.0091H427.009V26.9291C426.947 26.905 426.883 26.8833 426.819 26.8615L426.761 26.8419L426.723 26.8284C425.592 26.4388 424.152 26.1575 422.485 26.1575C419.546 26.1575 417.812 27.3704 417.812 29.391V29.4659C417.812 31.3394 419.51 32.4052 421.695 32.4052C424.088 32.4052 426.026 31.3394 426.725 29.6697C426.888 29.2852 426.981 28.8697 427.001 28.4284C427.002 28.4045 427.004 28.3811 427.006 28.3577V28.3571V28.3566C427.009 28.3223 427.012 28.2881 427.012 28.253ZM621.461 35.0942L621.605 35.0864L621.461 35.1045V35.0942ZM613.277 35.3961C613.881 35.5148 614.493 35.5742 615.097 35.5742V35.5767C617.714 35.5767 619.856 34.6709 621.461 32.8851V34.7303C621.461 34.978 621.662 35.1767 621.907 35.1767H625.577C625.825 35.1767 626.023 34.9755 626.023 34.7303V23.6825C626.023 21.058 625.298 19.04 623.868 17.6825C622.446 16.2606 620.165 15.5096 617.267 15.5096C615.923 15.5096 614.707 15.6232 613.551 15.858C612.428 16.0851 611.337 16.4309 610.114 16.9471C609.897 17.0374 609.788 17.2825 609.866 17.5045L610.823 20.2735C610.885 20.4542 611.053 20.5729 611.244 20.5729C611.301 20.5729 611.357 20.5625 611.409 20.5419C612.586 20.0825 613.567 19.8064 614.588 19.6464C615.277 19.538 615.959 19.4864 616.671 19.4864C619.148 19.4864 620.743 20.3948 621.285 22.1135C621.422 22.5393 621.492 23.0167 621.502 23.5329V23.9871L621.386 23.9535C620.653 23.7342 620.003 23.5767 619.332 23.4606C618.359 23.2903 617.352 23.2077 616.258 23.2077C611.027 23.2077 608.026 25.4967 608.026 29.4838V29.5561C608.026 32.5213 610.039 34.7587 613.277 35.3961ZM612.588 29.298C612.588 27.3342 614.297 26.16 617.156 26.16H617.159C618.635 26.16 620.083 26.3896 621.342 26.8232L621.577 26.9058V28.1677C621.577 28.1759 621.577 28.1839 621.576 28.1918C621.575 28.2165 621.572 28.2404 621.572 28.2658C621.569 28.289 621.567 28.3148 621.567 28.338C621.546 28.7613 621.456 29.169 621.298 29.5458C620.607 31.1922 618.635 32.2167 616.372 32.2167C614.108 32.2167 612.588 31.0735 612.588 29.3703V29.298ZM748.338 35.0942L748.483 35.0864L748.338 35.1045V35.0942ZM740.152 35.3961C740.756 35.5148 741.368 35.5742 741.972 35.5742V35.5767C744.588 35.5767 746.73 34.6709 748.336 32.8851V34.7303C748.336 34.978 748.537 35.1767 748.782 35.1767H752.452C752.699 35.1767 752.898 34.9755 752.898 34.7303V23.6825C752.898 21.058 752.173 19.04 750.743 17.6825C749.321 16.2606 747.04 15.5096 744.142 15.5096C742.797 15.5096 741.582 15.6232 740.426 15.858C739.303 16.0851 738.212 16.4309 736.988 16.9471C736.772 17.0374 736.663 17.2825 736.741 17.5045L737.698 20.2735C737.76 20.4542 737.928 20.5729 738.119 20.5729C738.175 20.5729 738.232 20.5625 738.284 20.5419C739.461 20.0825 740.441 19.8064 741.463 19.6464C742.152 19.538 742.834 19.4864 743.546 19.4864C746.023 19.4864 747.618 20.3948 748.16 22.1135C748.297 22.5393 748.366 23.0167 748.377 23.5329V23.9871L748.261 23.9535C747.528 23.7342 746.877 23.5767 746.206 23.4606C745.234 23.2903 744.227 23.2077 743.133 23.2077C737.902 23.2077 734.901 25.4967 734.901 29.4838V29.5561C734.901 32.5213 736.914 34.7587 740.152 35.3961ZM739.463 29.298C739.463 27.3342 741.172 26.16 744.031 26.16H744.034C745.51 26.16 746.957 26.3896 748.217 26.8232L748.452 26.9058V28.1677C748.452 28.1728 748.451 28.1778 748.451 28.1828L748.451 28.1926L748.45 28.2029L748.449 28.2167L748.447 28.2369L748.447 28.2519C748.446 28.2565 748.446 28.2611 748.446 28.2658C748.445 28.2785 748.444 28.292 748.443 28.3054L748.442 28.3161L748.441 28.3258L748.441 28.338C748.421 28.7613 748.33 29.169 748.173 29.5458C747.481 31.1922 745.51 32.2167 743.246 32.2167C740.983 32.2167 739.463 31.0735 739.463 29.3703V29.298ZM789.688 35.0942L789.832 35.0864L789.688 35.1045V35.0942ZM781.502 35.3961C782.106 35.5148 782.718 35.5742 783.321 35.5742V35.5767C785.938 35.5767 788.08 34.6709 789.685 32.8851V34.7303C789.685 34.978 789.887 35.1767 790.132 35.1767H793.801C794.049 35.1767 794.248 34.9755 794.248 34.7303V23.6825C794.248 21.058 793.523 19.04 792.093 17.6825C790.671 16.2606 788.39 15.5096 785.492 15.5096C784.147 15.5096 782.932 15.6232 781.776 15.858C780.653 16.0851 779.561 16.4309 778.338 16.9471C778.121 17.0374 778.013 17.2825 778.091 17.5045L779.048 20.2735C779.11 20.4542 779.278 20.5729 779.469 20.5729C779.525 20.5729 779.582 20.5625 779.634 20.5419C780.811 20.0825 781.791 19.8064 782.813 19.6464C783.502 19.538 784.183 19.4864 784.896 19.4864C787.373 19.4864 788.968 20.3948 789.51 22.1135C789.647 22.5393 789.716 23.0167 789.727 23.5329V23.9871L789.61 23.9535C788.878 23.7342 788.227 23.5767 787.556 23.4606C786.583 23.2903 785.577 23.2077 784.483 23.2077C779.252 23.2077 776.25 25.4967 776.25 29.4838V29.5561C776.25 32.5213 778.263 34.7587 781.502 35.3961ZM780.813 29.298C780.813 27.3342 782.521 26.16 785.381 26.16H785.383C786.86 26.16 788.307 26.3896 789.567 26.8232L789.801 26.9058V28.1677C789.801 28.1845 789.8 28.2006 789.799 28.2167C789.798 28.2329 789.796 28.249 789.796 28.2658C789.795 28.2759 789.794 28.2865 789.793 28.2972L789.792 28.3116C789.792 28.3206 789.791 28.3295 789.791 28.338C789.771 28.7613 789.68 29.169 789.523 29.5458C788.831 31.1922 786.86 32.2167 784.596 32.2167C782.333 32.2167 780.813 31.0735 780.813 29.3703V29.298ZM374.609 35.6413C368.743 35.6413 364.485 31.4452 364.485 25.662V25.5897C364.485 19.8813 368.63 15.5742 374.124 15.5742C380.658 15.5742 383.582 20.7665 383.582 25.9149C383.582 26.2194 383.559 26.5213 383.535 26.8052C383.517 27.0349 383.321 27.2155 383.092 27.2155H369.381C369.316 27.2155 369.257 27.2439 369.218 27.2929C369.179 27.342 369.164 27.4013 369.174 27.4607C369.729 30.2091 371.84 31.9149 374.681 31.9149C376.617 31.9149 378.116 31.3084 379.693 29.8839C379.778 29.8091 379.884 29.7652 379.997 29.7652C380.103 29.7652 380.204 29.8039 380.284 29.871L382.377 31.6826C382.467 31.7626 382.524 31.8762 382.532 31.9974C382.539 32.1187 382.498 32.2323 382.418 32.32C380.408 34.5239 377.778 35.6387 374.604 35.6387L374.609 35.6413ZM374.09 19.3007C371.546 19.3007 369.646 21.0787 369.133 23.9381C369.123 23.9974 369.138 24.0568 369.177 24.1033C369.218 24.1523 369.277 24.1807 369.339 24.1807H378.738C378.8 24.1807 378.859 24.1549 378.898 24.1058C378.937 24.0594 378.955 24.0026 378.947 23.9433C378.529 21.0787 376.668 19.2981 374.088 19.2981L374.09 19.3007ZM818.356 25.662C818.356 31.4452 822.614 35.6413 828.48 35.6413L828.475 35.6387C831.649 35.6387 834.279 34.5239 836.289 32.32C836.369 32.2323 836.41 32.1187 836.403 31.9974C836.395 31.8762 836.338 31.7626 836.248 31.6826L834.155 29.871C834.075 29.8039 833.974 29.7652 833.868 29.7652C833.755 29.7652 833.649 29.8091 833.564 29.8839C831.987 31.3084 830.488 31.9149 828.552 31.9149C825.711 31.9149 823.6 30.2091 823.045 27.4607C823.035 27.4013 823.05 27.342 823.089 27.2929C823.128 27.2439 823.187 27.2155 823.252 27.2155H836.963C837.192 27.2155 837.388 27.0349 837.407 26.8052C837.43 26.5213 837.453 26.2194 837.453 25.9149C837.453 20.7665 834.529 15.5742 827.995 15.5742C822.501 15.5742 818.356 19.8813 818.356 25.5897V25.662ZM823.004 23.9381C823.518 21.0787 825.417 19.3007 827.961 19.3007L827.959 19.2981C830.539 19.2981 832.4 21.0787 832.818 23.9433C832.826 24.0026 832.808 24.0594 832.769 24.1058C832.73 24.1549 832.671 24.1807 832.609 24.1807H823.21C823.148 24.1807 823.089 24.1523 823.048 24.1033C823.009 24.0568 822.994 23.9974 823.004 23.9381ZM687.554 35.1587C687.301 35.1587 687.094 34.9522 687.094 34.6993V23.1896C687.094 22.3742 686.939 21.6516 686.635 21.0425C686.33 20.4361 685.905 19.9638 685.365 19.6361C684.826 19.3109 684.186 19.1458 683.466 19.1458C682.63 19.1458 681.843 19.3419 681.13 19.7238C680.418 20.1084 679.763 20.7225 679.185 21.5509C678.79 22.1161 678.416 22.8 678.067 23.5871C678.049 23.6284 678.039 23.6748 678.039 23.7213V34.6942C678.039 34.9471 677.832 35.1535 677.579 35.1535H674.204C673.951 35.1535 673.745 34.9471 673.745 34.6942V16.3819C673.745 16.129 673.951 15.9225 674.204 15.9225H677.595C677.848 15.9225 678.054 16.129 678.054 16.3819V18.4103C678.059 18.4438 678.08 18.498 678.101 18.498C678.106 18.498 678.129 18.498 678.168 18.4645C678.343 18.2167 678.521 17.9767 678.743 17.76C679.51 17.0064 680.361 16.4387 681.275 16.0671C682.191 15.6954 683.185 15.5096 684.225 15.5096C685.659 15.5096 686.929 15.8219 687.998 16.4361C689.066 17.0529 689.902 17.9303 690.483 19.0425C691.061 20.1548 691.355 21.4709 691.355 22.9496V34.7019C691.355 34.9548 691.148 35.1613 690.896 35.1613H687.556L687.554 35.1587ZM769.747 34.6993C769.747 34.9522 769.954 35.1587 770.206 35.1587L770.209 35.1613H773.548C773.801 35.1613 774.008 34.9548 774.008 34.7019V22.9496C774.008 21.4709 773.714 20.1548 773.135 19.0425C772.555 17.9303 771.719 17.0529 770.65 16.4361C769.582 15.8219 768.312 15.5096 766.877 15.5096C765.837 15.5096 764.844 15.6954 763.928 16.0671C763.014 16.4387 762.163 17.0064 761.396 17.76C761.174 17.9767 760.996 18.2167 760.821 18.4645C760.782 18.498 760.759 18.498 760.754 18.498C760.733 18.498 760.712 18.4438 760.707 18.4103V16.3819C760.707 16.129 760.501 15.9225 760.248 15.9225H756.857C756.604 15.9225 756.397 16.129 756.397 16.3819V34.6942C756.397 34.9471 756.604 35.1535 756.857 35.1535H760.232C760.485 35.1535 760.692 34.9471 760.692 34.6942V23.7213C760.692 23.6748 760.702 23.6284 760.72 23.5871C761.068 22.8 761.443 22.1161 761.837 21.5509C762.416 20.7225 763.071 20.1084 763.783 19.7238C764.495 19.3419 765.283 19.1458 766.119 19.1458C766.839 19.1458 767.479 19.3109 768.018 19.6361C768.557 19.9638 768.983 20.4361 769.288 21.0425C769.592 21.6516 769.747 22.3742 769.747 23.1896V34.6993ZM581.133 35.5742C579.698 35.5742 578.428 35.262 577.36 34.6478C576.292 34.031 575.455 33.1536 574.877 32.0413C574.299 30.9291 574.005 29.6129 574.005 28.1342V16.382C574.005 16.1291 574.212 15.9226 574.464 15.9226H577.804C578.057 15.9226 578.263 16.1291 578.263 16.382V27.8916C578.263 28.7071 578.418 29.4297 578.723 30.0387C579.027 30.6452 579.453 31.12 579.992 31.4452C580.532 31.7703 581.172 31.9355 581.892 31.9355C582.728 31.9355 583.515 31.7394 584.227 31.3574C584.939 30.9729 585.595 30.3587 586.173 29.5303C586.568 28.9652 586.942 28.2813 587.29 27.4942C587.308 27.4529 587.319 27.4065 587.319 27.36V16.382C587.319 16.1291 587.525 15.9226 587.778 15.9226H591.154C591.406 15.9226 591.613 16.1291 591.613 16.382V34.6994C591.613 34.9523 591.406 35.1587 591.154 35.1587H587.763C587.51 35.1587 587.303 34.9523 587.303 34.6994V32.671C587.298 32.6374 587.277 32.5833 587.257 32.5833C587.252 32.5833 587.228 32.5833 587.19 32.6168C587.014 32.8645 586.836 33.1045 586.614 33.3213C585.848 34.0749 584.996 34.6426 584.083 35.0142C583.166 35.3858 582.175 35.5742 581.133 35.5742ZM556.41 40.9651C557.703 41.4503 559.236 41.6954 560.968 41.6954L560.973 41.7032C562.934 41.7032 564.661 41.3445 566.106 40.6399C567.554 39.9303 568.676 38.898 569.44 37.5664C570.204 36.2348 570.591 34.6348 570.591 32.8103V16.3535C570.591 16.1006 570.385 15.8941 570.132 15.8941H566.756C566.508 15.8941 566.307 16.0877 566.297 16.338V17.9045C566.302 17.9612 566.292 18.0051 566.269 18.0309C566.258 18.0412 566.245 18.0464 566.232 18.0464C566.201 18.0464 566.165 18.0206 566.134 17.9767C564.599 15.8606 562.212 15.6051 561.943 15.5819C561.479 15.5354 561.025 15.5122 560.589 15.5122C558.831 15.5122 557.27 15.8993 555.951 16.6632C554.632 17.4296 553.598 18.5264 552.88 19.9277C552.163 21.329 551.799 23.0219 551.799 24.8903C551.799 26.7587 552.15 28.4103 552.844 29.7987C553.541 31.187 554.545 32.2735 555.83 33.027C557.115 33.778 558.635 34.1599 560.346 34.1599C561.574 34.1599 562.743 33.8993 563.82 33.3909C564.705 32.9729 565.463 32.3974 566.078 31.6774L566.093 31.7264L566.176 31.5793C566.186 31.5561 566.222 31.5122 566.271 31.5122C566.271 31.5122 566.289 31.5303 566.289 31.6129V33.2903C566.289 34.8077 565.838 36.0103 564.945 36.8696C564.054 37.7264 562.785 38.1625 561.174 38.1625C559.835 38.1625 558.746 37.9174 557.943 37.4296C557.247 37.009 556.808 36.449 556.635 35.7651C556.578 35.5432 556.398 35.3961 556.186 35.3961H552.669C552.537 35.3961 552.41 35.4529 552.323 35.5509C552.235 35.6464 552.194 35.7677 552.207 35.8941C552.315 36.9961 552.702 37.9793 553.352 38.8154C554.083 39.7548 555.112 40.4774 556.41 40.9651ZM558.498 19.5664C559.278 19.0812 560.214 18.8335 561.278 18.8335V18.8387C562.047 18.8387 562.774 18.9935 563.443 19.298C564.109 19.6025 564.694 20.0464 565.182 20.6116C565.61 21.1122 565.954 21.7006 566.199 22.3612C566.256 22.5212 566.287 22.6993 566.287 22.8877V26.7845C566.287 26.9729 566.258 27.1509 566.199 27.3083C565.954 27.969 565.613 28.5574 565.182 29.058C564.694 29.6258 564.109 30.067 563.443 30.3716C562.777 30.6761 562.047 30.8309 561.278 30.8309C560.214 30.8309 559.278 30.5832 558.498 30.098C557.719 29.6129 557.105 28.9109 556.676 28.018C556.245 27.1225 556.026 26.0206 556.026 24.8154C556.026 23.6103 556.245 22.5445 556.676 21.6464C557.105 20.7535 557.719 20.0541 558.498 19.5664ZM806.57 41.6954C804.839 41.6954 803.306 41.4503 802.013 40.9651C800.715 40.4774 799.685 39.7548 798.955 38.8154C798.305 37.9793 797.918 36.9961 797.809 35.8941C797.796 35.7677 797.838 35.6464 797.925 35.5509C798.013 35.4529 798.139 35.3961 798.271 35.3961H801.788C802 35.3961 802.181 35.5432 802.237 35.7651C802.41 36.449 802.849 37.009 803.546 37.4296C804.348 37.9174 805.438 38.1625 806.777 38.1625C808.387 38.1625 809.657 37.7264 810.547 36.8696C811.44 36.0103 811.892 34.8077 811.892 33.2903V31.6129C811.892 31.5303 811.874 31.5122 811.874 31.5122C811.825 31.5122 811.788 31.5561 811.778 31.5793L811.696 31.7264L811.68 31.6774C811.066 32.3974 810.307 32.9729 809.422 33.3909C808.346 33.8993 807.177 34.1599 805.948 34.1599C804.238 34.1599 802.718 33.778 801.432 33.027C800.147 32.2735 799.143 31.187 798.447 29.7987C797.752 28.4103 797.401 26.7587 797.401 24.8903C797.401 23.0219 797.765 21.329 798.483 19.9277C799.2 18.5264 800.235 17.4296 801.554 16.6632C802.872 15.8993 804.434 15.5122 806.191 15.5122C806.627 15.5122 807.081 15.5354 807.546 15.5819C807.814 15.6051 810.201 15.8606 811.737 17.9767C811.768 18.0206 811.804 18.0464 811.835 18.0464C811.848 18.0464 811.861 18.0412 811.871 18.0309C811.894 18.0051 811.905 17.9612 811.899 17.9045V16.338C811.91 16.0877 812.111 15.8941 812.359 15.8941H815.734C815.987 15.8941 816.194 16.1006 816.194 16.3535V32.8103C816.194 34.6348 815.807 36.2348 815.043 37.5664C814.279 38.898 813.156 39.9303 811.708 40.6399C810.263 41.3445 808.537 41.7032 806.576 41.7032L806.57 41.6954ZM806.88 18.8335C805.817 18.8335 804.88 19.0812 804.101 19.5664C803.321 20.0541 802.707 20.7535 802.279 21.6464C801.848 22.5445 801.628 23.6103 801.628 24.8154C801.628 26.0206 801.848 27.1225 802.279 28.018C802.707 28.9109 803.321 29.6129 804.101 30.098C804.88 30.5832 805.817 30.8309 806.88 30.8309C807.649 30.8309 808.379 30.6761 809.045 30.3716C809.711 30.067 810.297 29.6258 810.785 29.058C811.216 28.5574 811.556 27.969 811.801 27.3083C811.861 27.1509 811.889 26.9729 811.889 26.7845V22.8877C811.889 22.6993 811.858 22.5212 811.801 22.3612C811.556 21.7006 811.213 21.1122 810.785 20.6116C810.297 20.0464 809.711 19.6025 809.045 19.298C808.377 18.9935 807.649 18.8387 806.88 18.8387V18.8335ZM355.435 34.3716C356.317 34.8929 357.401 35.1587 358.653 35.1587L358.656 35.1535H362.661C362.914 35.1535 363.12 34.9471 363.12 34.6942V32.1161C363.12 31.8632 362.914 31.6567 362.661 31.6567H360.108C359.316 31.6567 358.686 31.5535 358.237 31.3522C357.796 31.1535 357.481 30.8567 357.306 30.4722C357.125 30.0825 357.035 29.5509 357.035 28.8954V19.7367C357.035 19.5638 357.177 19.4219 357.35 19.4219H362.666C362.919 19.4219 363.125 19.2154 363.125 18.9625V16.3845C363.125 16.1316 362.919 15.9251 362.666 15.9251H357.35C357.177 15.9251 357.035 15.7832 357.035 15.6103V11.1277C357.035 10.8722 356.828 10.6658 356.576 10.6658C356.503 10.6658 356.434 10.6838 356.354 10.7251L352.994 13.6206C352.836 13.7006 352.738 13.858 352.738 14.0335V15.6103C352.738 15.7832 352.596 15.9251 352.423 15.9251H349.739C349.486 15.9251 349.28 16.1316 349.28 16.3845V18.9625C349.28 19.2154 349.486 19.4219 349.739 19.4219H352.423C352.596 19.4219 352.738 19.5638 352.738 19.7367V28.8954C352.738 30.1471 352.968 31.2516 353.419 32.178C353.871 33.1096 354.55 33.8477 355.435 34.3716ZM637.027 35.1587C635.776 35.1587 634.692 34.8929 633.809 34.3716C632.924 33.8477 632.245 33.1096 631.794 32.178C631.342 31.2516 631.112 30.1471 631.112 28.8954V19.7367C631.112 19.5638 630.97 19.4219 630.798 19.4219H628.114C627.861 19.4219 627.654 19.2154 627.654 18.9625V16.3845C627.654 16.1316 627.861 15.9251 628.114 15.9251H630.798C630.97 15.9251 631.112 15.7832 631.112 15.6103V14.0335C631.112 13.858 631.21 13.7006 631.368 13.6206L634.728 10.7251C634.808 10.6838 634.878 10.6658 634.95 10.6658C635.203 10.6658 635.409 10.8722 635.409 11.1277V15.6103C635.409 15.7832 635.551 15.9251 635.724 15.9251H641.04C641.293 15.9251 641.5 16.1316 641.5 16.3845V18.9625C641.5 19.2154 641.293 19.4219 641.04 19.4219H635.724C635.551 19.4219 635.409 19.5638 635.409 19.7367V28.8954C635.409 29.5509 635.5 30.0825 635.68 30.4722C635.856 30.8567 636.17 31.1535 636.612 31.3522C637.061 31.5535 637.69 31.6567 638.483 31.6567H641.035C641.288 31.6567 641.494 31.8632 641.494 32.1161V34.6942C641.494 34.9471 641.288 35.1535 641.035 35.1535H637.03L637.027 35.1587ZM432.831 41.2722C432.831 41.5251 433.037 41.7316 433.29 41.7316V41.7393H436.292C437.401 41.7393 438.377 41.5742 439.19 41.249C440.003 40.9238 440.746 40.3871 441.396 39.6567C442.041 38.929 442.64 37.9045 443.172 36.6116L451.559 16.5703C451.618 16.4284 451.603 16.2658 451.517 16.1367C451.43 16.0077 451.288 15.9303 451.133 15.9303H447.688C447.499 15.9303 447.334 16.0413 447.262 16.2142L442.372 28.0413C442.343 28.1135 442.276 28.1393 442.225 28.1393C442.173 28.1393 442.108 28.1135 442.077 28.0413L437.187 16.2142C437.115 16.0413 436.95 15.9303 436.761 15.9303H433.277C433.125 15.9303 432.981 16.0051 432.895 16.1342C432.808 16.2606 432.792 16.4232 432.852 16.5651L439.935 33.6929C439.969 33.7703 439.969 33.8555 439.935 33.9329L439.582 34.7871C439.241 35.5819 438.901 36.2426 438.568 36.7458C438.24 37.2413 437.858 37.6155 437.432 37.8632C437.006 38.1109 436.506 38.2348 435.946 38.2348H433.29C433.037 38.2348 432.831 38.4413 432.831 38.6942V41.2722ZM497.577 35.5742C495.613 35.5742 493.881 35.169 492.423 34.3716C490.965 33.5716 489.832 32.4051 489.056 30.9006C488.281 29.3987 487.889 27.5948 487.889 25.5406C487.889 23.4864 488.281 21.6826 489.056 20.1806C489.832 18.6761 490.965 17.5071 492.423 16.7097C493.881 15.9122 495.616 15.5071 497.577 15.5071C499.538 15.5071 501.275 15.9122 502.73 16.7097C504.189 17.5071 505.321 18.6761 506.098 20.1806C506.872 21.6826 507.265 23.4864 507.265 25.5406C507.265 27.5948 506.872 29.3987 506.098 30.9006C505.321 32.4051 504.189 33.5742 502.73 34.3716C501.275 35.169 499.541 35.5742 497.577 35.5742ZM497.576 19.0426C496.467 19.0427 495.491 19.306 494.676 19.8271C493.861 20.3484 493.231 21.1045 492.803 22.0774C492.369 23.0555 492.15 24.2193 492.15 25.5406C492.15 26.8619 492.369 28.0284 492.8 29.0039C493.229 29.9768 493.861 30.7355 494.674 31.2542C495.487 31.7755 496.465 32.0387 497.574 32.0387C498.684 32.0387 499.654 31.7755 500.457 31.2542C501.259 30.7355 501.884 29.9768 502.315 29.0039C502.749 28.0258 502.965 26.8593 502.965 25.5406C502.965 24.2219 502.746 23.0555 502.315 22.0774C501.884 21.1045 501.259 20.3458 500.457 19.8271C499.655 19.306 498.685 19.0428 497.576 19.0426ZM531.879 34.6994C531.879 34.9523 532.085 35.1587 532.338 35.1587V35.1562H535.677C535.93 35.1562 536.137 34.9497 536.137 34.6968V20.7794C536.137 20.6065 536.279 20.4646 536.452 20.4646H539.479C539.732 20.4646 539.938 20.2581 539.938 20.0052V17.4271C539.938 17.1742 539.732 16.9678 539.479 16.9678H536.452C536.279 16.9678 536.137 16.8258 536.137 16.6529V14.9316C536.137 14.2323 536.245 13.68 536.457 13.2904C536.666 12.9033 536.996 12.6194 537.44 12.4413C537.892 12.2607 538.498 12.1704 539.246 12.1704H542.075C542.328 12.1704 542.534 11.9639 542.534 11.711V9.13294C542.534 8.88004 542.328 8.67358 542.075 8.67358H537.83C536.601 8.67358 535.523 8.93681 534.63 9.46068C533.734 9.98197 533.045 10.72 532.578 11.6516C532.114 12.5781 531.879 13.7058 531.879 15.0039V16.6555C531.879 16.8284 531.737 16.9704 531.564 16.9704H528.88C528.627 16.9704 528.421 17.1768 528.421 17.4297V20.0078C528.421 20.2607 528.627 20.4671 528.88 20.4671H531.564C531.737 20.4671 531.879 20.6091 531.879 20.782V34.6994ZM661.417 35.5742C659.453 35.5742 657.721 35.169 656.263 34.3716C654.805 33.5716 653.672 32.4051 652.895 30.9006C652.121 29.3987 651.729 27.5948 651.729 25.5406C651.729 23.4864 652.121 21.6826 652.895 20.1806C653.672 18.6761 654.805 17.5071 656.263 16.7097C657.721 15.9122 659.455 15.5071 661.417 15.5071C663.378 15.5071 665.115 15.9122 666.57 16.7097C668.028 17.5071 669.161 18.6761 669.938 20.1806C670.712 21.6851 671.104 23.4864 671.104 25.5406C671.104 27.5948 670.712 29.3961 669.938 30.9006C669.161 32.4051 668.028 33.5742 666.57 34.3716C665.115 35.169 663.381 35.5742 661.417 35.5742ZM661.414 19.0426C660.305 19.0429 659.331 19.3061 658.516 19.8271C657.701 20.3484 657.071 21.1045 656.643 22.0774C656.209 23.0555 655.99 24.2193 655.99 25.5406C655.99 26.8619 656.209 28.0284 656.64 29.0039C657.068 29.9768 657.701 30.7355 658.514 31.2542C659.326 31.7755 660.305 32.0387 661.414 32.0387C662.524 32.0387 663.494 31.7755 664.297 31.2542C665.099 30.7355 665.724 29.9768 666.155 29.0039C666.588 28.0258 666.805 26.8593 666.805 25.5406C666.805 24.2219 666.586 23.0555 666.155 22.0774C665.724 21.1045 665.099 20.3458 664.297 19.8271C663.494 19.3058 662.524 19.0426 661.414 19.0426ZM402.39 34.8928C402.472 35.1793 402.738 35.378 403.035 35.378H406.888C407.187 35.378 407.453 35.1793 407.533 34.8928L412.704 16.8283C412.764 16.6245 412.725 16.4103 412.596 16.2399C412.47 16.0722 412.273 15.9741 412.062 15.9741H409.004C408.704 15.9741 408.439 16.1754 408.359 16.4619L404.782 29.0761L401.055 16.4541C400.973 16.1728 400.707 15.9741 400.413 15.9741H397.133C396.833 15.9741 396.57 16.1728 396.488 16.4593L392.88 29.0399L389.288 16.4593C389.205 16.1728 388.942 15.9716 388.643 15.9716H385.381C385.166 15.9716 384.97 16.0696 384.844 16.2399C384.715 16.4103 384.676 16.6245 384.735 16.8283L389.938 34.8928C390.021 35.1793 390.286 35.378 390.583 35.378H394.405C394.702 35.378 394.968 35.1793 395.05 34.8928L398.72 22.1522L402.39 34.8928ZM523.272 35.1587C523.02 35.1587 522.813 34.9522 522.813 34.6993V23.1896C522.813 22.3742 522.658 21.6516 522.354 21.0425C522.049 20.4361 521.623 19.9638 521.084 19.6361C520.545 19.3109 519.905 19.1458 519.185 19.1458C518.349 19.1458 517.561 19.3419 516.849 19.7238C516.137 20.1084 515.481 20.7225 514.903 21.5509C514.509 22.1161 514.132 22.8025 513.786 23.5871C513.768 23.6284 513.758 23.6774 513.758 23.7213V34.6942C513.758 34.9471 513.551 35.1535 513.298 35.1535H509.923C509.67 35.1535 509.463 34.9471 509.463 34.6942V16.3819C509.463 16.129 509.67 15.9225 509.923 15.9225H513.314C513.567 15.9225 513.773 16.129 513.773 16.3819V18.4103C513.778 18.4438 513.799 18.498 513.82 18.498C513.825 18.498 513.845 18.498 513.887 18.4645C514.062 18.2167 514.24 17.9767 514.462 17.76C515.229 17.0064 516.08 16.4387 516.994 16.0671C517.91 15.6954 518.903 15.5096 519.943 15.5096C521.378 15.5096 522.648 15.8219 523.716 16.4361C524.785 17.0529 525.621 17.9303 526.199 19.0425C526.777 20.1548 527.071 21.4709 527.071 22.9496V34.7019C527.071 34.9548 526.865 35.1613 526.612 35.1613H523.272V35.1587ZM595.525 34.7123C595.525 34.96 595.726 35.1587 595.972 35.1587L595.969 35.1613H599.584C599.832 35.1613 600.031 34.96 600.031 34.7149V26.7949C600.325 22.9729 602.405 20.6168 605.734 20.3329C605.961 20.3149 606.199 20.3046 606.439 20.3046C606.452 20.3046 606.576 20.2994 606.666 20.2246C606.772 20.1342 606.764 19.9742 606.764 19.9742V15.9639C606.764 15.7187 606.563 15.5175 606.307 15.5175C606.124 15.52 605.943 15.5304 605.765 15.5433C603.226 15.7368 601.252 17.2181 600.034 19.8349V16.3097C600.034 16.062 599.832 15.8633 599.587 15.8633H595.972C595.724 15.8633 595.525 16.0646 595.525 16.3097V34.7123ZM840.297 35.1587C840.052 35.1587 839.85 34.96 839.85 34.7123V16.3097C839.85 16.0646 840.049 15.8633 840.297 15.8633H843.912C844.157 15.8633 844.359 16.062 844.359 16.3097V19.8349C845.577 17.2181 847.551 15.7368 850.09 15.5433C850.268 15.5304 850.449 15.52 850.632 15.5175C850.888 15.5175 851.089 15.7187 851.089 15.9639V19.9742C851.089 19.9742 851.097 20.1342 850.991 20.2246C850.901 20.2994 850.777 20.3046 850.764 20.3046C850.524 20.3046 850.286 20.3149 850.059 20.3329C846.73 20.6168 844.65 22.9729 844.356 26.7949V34.7149C844.356 34.96 844.157 35.1613 843.91 35.1613H840.294L840.297 35.1587ZM91.4709 13.5096H95.5458C95.7703 13.5096 95.9509 13.6929 95.9509 13.9148V34.8955C95.9509 35.12 95.7677 35.3006 95.5458 35.3006H92.0103C91.7858 35.3006 91.6051 35.12 91.6051 34.8955V32.3458C90.7664 33.3522 89.6877 34.1987 88.3948 34.8671C87.0864 35.5458 85.6258 35.889 84.0593 35.889C81.2593 35.889 79.0348 35.0632 77.4529 33.4348C75.8709 31.8064 75.0684 29.6361 75.0684 26.9858V13.9148C75.0684 13.6903 75.249 13.5096 75.4735 13.5096H79.5535C79.778 13.5096 79.9587 13.6929 79.9587 13.9148V26.3561C79.9587 28.0954 80.4 29.409 81.2671 30.2606C82.1342 31.1122 83.409 31.5458 85.058 31.5458C86.3174 31.5458 87.4709 31.1948 88.4903 30.5058C89.2413 29.9974 89.9122 29.3935 90.4825 28.7071C90.8593 28.258 91.0658 27.6671 91.0658 27.0451V13.9148C91.0658 13.6903 91.249 13.5096 91.4709 13.5096ZM116.501 14.0542C115.159 13.3006 113.577 12.9187 111.801 12.9187C110.235 12.9187 108.777 13.2619 107.466 13.9406C106.173 14.609 105.094 15.4581 104.256 16.4619V13.9122C104.256 13.6903 104.075 13.5071 103.85 13.5071H100.268C100.044 13.5071 99.8633 13.6877 99.8633 13.9122V34.8903C99.8633 35.1122 100.044 35.2955 100.268 35.2955H104.348C104.573 35.2955 104.754 35.1148 104.754 34.8903V21.7858C104.754 21.1406 104.991 20.5161 105.419 20.0258C105.992 19.3703 106.648 18.7897 107.373 18.3019C108.392 17.6129 109.546 17.2619 110.805 17.2619C112.302 17.2619 113.533 17.711 114.462 18.5935C115.388 19.4761 115.861 20.7768 115.861 22.4516V34.8903C115.861 35.1122 116.041 35.2955 116.266 35.2955H120.346C120.57 35.2955 120.751 35.1148 120.751 34.8903V21.8193C120.751 20.1032 120.377 18.5522 119.639 17.2103C118.901 15.8684 117.845 14.8077 116.506 14.0542H116.501ZM129.141 13.5097H125.061V13.5071C124.836 13.5071 124.656 13.6877 124.656 13.9122V34.8929C124.656 35.1174 124.836 35.298 125.061 35.298H129.141C129.365 35.298 129.546 35.1174 129.546 34.8929V13.9148C129.546 13.6903 129.365 13.5097 129.141 13.5097ZM142.204 13.5097H149.117L149.115 13.502C149.339 13.502 149.52 13.6852 149.52 13.9071V17.3962C149.52 17.6207 149.339 17.8013 149.115 17.8013H142.186C141.881 17.8116 141.639 18.0568 141.636 18.3613V27.7497C141.636 29.1407 141.899 29.9407 142.547 30.511C142.555 30.5187 143.347 31.2387 145.739 31.2387H149.115C149.339 31.2387 149.52 31.4194 149.52 31.6439V35.4323C149.52 35.6568 149.339 35.8374 149.115 35.8374H144.289C142.059 35.8374 140.232 35.2439 138.862 34.0671C137.492 32.8929 136.795 31.0736 136.795 28.6607V18.3278C136.779 18.0774 136.599 17.8633 136.353 17.8091H133.303C133.079 17.8091 132.898 17.6284 132.898 17.4039V13.9149C132.898 13.6904 133.081 13.5097 133.303 13.5097H136.232C136.532 13.5097 136.779 13.2723 136.795 12.9729V10.7665C136.795 10.6581 136.839 10.5575 136.913 10.48L140.944 6.42842C141.022 6.351 141.122 6.30713 141.228 6.30713C141.43 6.30713 141.636 6.45939 141.639 6.71229V12.9445C141.639 13.2568 141.894 13.5097 142.204 13.5097ZM212.795 23.3987C212.057 22.8387 211.213 22.3665 210.289 21.9974C209.37 21.631 208.403 21.3368 207.414 21.1252L204.968 20.5574C204.444 20.4413 203.915 20.2968 203.399 20.1265C202.89 19.9587 202.421 19.7471 202.005 19.5019C201.6 19.2619 201.278 18.9677 201.045 18.6219C200.818 18.2865 200.702 17.8813 200.702 17.4168C200.71 16.8542 200.888 16.3484 201.234 15.9097C201.582 15.4684 202.096 15.1123 202.761 14.8516C203.435 14.5884 204.261 14.4542 205.21 14.4542C206.56 14.4542 207.667 14.7329 208.503 15.2826C209.236 15.7626 209.693 16.4387 209.863 17.2903C209.91 17.52 210.127 17.6852 210.382 17.6852L214.328 17.6774C214.563 17.6774 214.756 17.5406 214.839 17.3239C214.854 17.2774 214.862 17.2258 214.857 17.1665C214.764 15.9045 214.341 14.7716 213.603 13.7961C212.787 12.72 211.652 11.8658 210.23 11.2594C208.813 10.6555 207.146 10.3484 205.275 10.3484C203.404 10.3484 201.755 10.6555 200.292 11.2594C198.823 11.8658 197.644 12.7303 196.79 13.8245C195.93 14.9265 195.497 16.2271 195.497 17.6877C195.497 19.471 196.147 20.9239 197.43 22.0026C198.692 23.0632 200.431 23.8632 202.601 24.3819L205.567 25.0916C206.485 25.311 207.298 25.5587 207.985 25.8323C208.653 26.0981 209.177 26.431 209.543 26.8206C209.897 27.1974 210.08 27.68 210.09 28.2555C210.083 28.9006 209.871 29.471 209.463 29.951C209.048 30.4387 208.462 30.8232 207.724 31.0968C206.976 31.3729 206.093 31.5148 205.099 31.5148C204.106 31.5148 203.275 31.3806 202.508 31.1123C201.755 30.849 201.136 30.449 200.671 29.9174C200.274 29.4658 200.018 28.8877 199.915 28.2065C199.879 27.969 199.654 27.791 199.394 27.791L195.365 27.7987C195.218 27.7987 195.076 27.8555 194.976 27.9587C194.875 28.0594 194.828 28.1884 194.839 28.3226C194.963 29.809 195.425 31.0968 196.207 32.1445C197.061 33.2903 198.263 34.1729 199.783 34.769C201.29 35.36 203.094 35.6594 205.138 35.6594C207.182 35.6594 209.068 35.3497 210.56 34.7381C212.062 34.1239 213.228 33.2516 214.028 32.1497C214.828 31.0452 215.236 29.7497 215.236 28.2968C215.236 27.2232 215.014 26.2684 214.578 25.4658C214.142 24.6632 213.543 23.969 212.8 23.4039L212.795 23.3987ZM239.172 22.062H248.669V22.0671C248.898 22.0671 249.084 22.2529 249.084 22.4826V25.1381C249.084 27.2852 248.619 29.1691 247.703 30.7407C246.787 32.3097 245.51 33.5355 243.907 34.382C242.305 35.2284 240.441 35.6568 238.367 35.6568C236.054 35.6568 233.998 35.1278 232.253 34.0852C230.508 33.0426 229.128 31.5407 228.152 29.6155C227.177 27.6929 226.681 25.6671 226.681 23.0246C226.681 21.0013 226.973 19.4607 227.548 17.8684C228.124 16.2736 228.942 14.9007 229.979 13.7858C231.019 12.6684 232.253 11.8065 233.652 11.2233C235.05 10.64 236.591 10.3433 238.232 10.3433C239.621 10.3433 240.934 10.5471 242.134 10.9523C243.334 11.3575 244.418 11.9407 245.355 12.6839C246.292 13.4271 247.074 14.3226 247.678 15.3446C248.24 16.2994 248.63 17.3575 248.831 18.4955C248.844 18.5729 248.823 18.6529 248.772 18.7149C248.72 18.7768 248.643 18.8129 248.563 18.8129H244.338C244.222 18.8129 244.116 18.7381 244.08 18.6246C243.884 18.0284 243.618 17.4839 243.296 17.0039C242.945 16.4852 242.521 16.0336 242.034 15.6646C241.548 15.2955 240.983 15.0116 240.356 14.8233C239.729 14.6323 239.032 14.5368 238.292 14.5368C236.963 14.5368 235.763 14.8749 234.723 15.5433C233.685 16.2116 232.857 17.2052 232.263 18.5007C231.67 19.7987 231.368 21.0916 231.368 22.9704C231.368 24.8491 231.667 26.1704 232.258 27.471C232.847 28.7691 233.675 29.7678 234.723 30.4413C235.77 31.1149 237.004 31.4555 238.392 31.4555C239.652 31.4555 240.756 31.2104 241.68 30.7278C242.601 30.2452 243.321 29.551 243.819 28.6633C244.188 28.0052 244.423 27.2439 244.519 26.4052H239.172C238.96 26.4052 238.787 26.2323 238.787 26.0207V22.4465C238.787 22.2349 238.96 22.062 239.172 22.062ZM326.934 22.062H317.437C317.226 22.062 317.053 22.2349 317.053 22.4465V26.0207C317.053 26.2323 317.226 26.4052 317.437 26.4052H322.784C322.689 27.2439 322.454 28.0052 322.085 28.6633C321.587 29.551 320.867 30.2452 319.946 30.7278C319.022 31.2104 317.917 31.4555 316.658 31.4555C315.27 31.4555 314.036 31.1149 312.988 30.4413C311.941 29.7678 311.112 28.7691 310.524 27.471C309.933 26.1704 309.633 24.8491 309.633 22.9704C309.633 21.0916 309.935 19.7987 310.529 18.5007C311.122 17.2052 311.951 16.2116 312.988 15.5433C314.028 14.8749 315.228 14.5368 316.557 14.5368C317.298 14.5368 317.995 14.6323 318.622 14.8233C319.249 15.0116 319.814 15.2955 320.299 15.6646C320.787 16.0336 321.21 16.4852 321.561 17.0039C321.884 17.4839 322.15 18.0284 322.346 18.6246C322.382 18.7381 322.488 18.8129 322.604 18.8129H326.828C326.908 18.8129 326.986 18.7768 327.037 18.7149C327.089 18.6529 327.11 18.5729 327.097 18.4955C326.895 17.3575 326.506 16.2994 325.943 15.3446C325.339 14.3226 324.557 13.4271 323.621 12.6839C322.684 11.9407 321.6 11.3575 320.4 10.9523C319.2 10.5471 317.886 10.3433 316.498 10.3433C314.857 10.3433 313.316 10.64 311.917 11.2233C310.519 11.8065 309.285 12.6684 308.245 13.7858C307.208 14.9007 306.39 16.2736 305.814 17.8684C305.239 19.4607 304.947 21.0013 304.947 23.0246C304.947 25.6671 305.442 27.6929 306.418 29.6155C307.393 31.5407 308.774 33.0426 310.519 34.0852C312.263 35.1278 314.32 35.6568 316.632 35.6568C318.707 35.6568 320.57 35.2284 322.173 34.382C323.775 33.5355 325.053 32.3097 325.969 30.7407C326.885 29.1691 327.35 27.2852 327.35 25.1381V22.4826C327.35 22.2529 327.164 22.0671 326.934 22.0671V22.062ZM187.092 10.6477H191.133C191.357 10.6477 191.538 10.8284 191.538 11.0529V34.8877C191.538 35.1122 191.357 35.2929 191.133 35.2929H187.053C186.898 35.2929 186.753 35.2103 186.673 35.0787L174.454 18.3303V24.6245H174.426V34.8903C174.426 35.1148 174.245 35.2954 174.021 35.2954H170.008C169.783 35.2954 169.603 35.1148 169.603 34.8903V11.0529C169.603 10.8284 169.783 10.6477 170.008 10.6477H174.4C174.555 10.6477 174.699 10.7303 174.779 10.8619L186.692 27.5096V22.9703L186.686 20.5187V11.0529C186.686 10.8284 186.867 10.6477 187.092 10.6477ZM273.907 10.6477H269.889C269.664 10.6477 269.484 10.8284 269.484 11.0529V19.7032C269.484 20.0284 269.221 20.2942 268.893 20.2942H257.806C257.481 20.2942 257.215 20.0284 257.215 19.7032V11.0529C257.215 10.8284 257.035 10.6477 256.81 10.6477H252.787C252.562 10.6477 252.382 10.8284 252.382 11.0529V34.8903C252.382 35.1148 252.562 35.2954 252.787 35.2954H256.81C257.035 35.2954 257.215 35.1148 257.215 34.8903V25.1329C257.215 24.8077 257.481 24.5419 257.806 24.5419H268.89C269.218 24.5419 269.481 24.8077 269.481 25.1329V34.8903C269.481 35.1148 269.662 35.2954 269.886 35.2954H273.907C274.132 35.2954 274.312 35.1148 274.312 34.8903V11.0529C274.312 10.8284 274.132 10.6477 273.907 10.6477ZM277.613 10.6606H297.226L297.223 10.6632C297.448 10.6632 297.628 10.8439 297.628 11.0684V14.5394C297.628 14.751 297.455 14.9239 297.244 14.9239H290.495C290.17 14.9239 289.905 15.1871 289.905 15.5123L289.835 34.8929C289.835 35.1226 289.649 35.3084 289.419 35.3084H285.422C285.197 35.3084 285.017 35.1277 285.017 34.9032L285.006 15.5123C285.006 15.1871 284.743 14.9213 284.415 14.9213H277.592C277.381 14.9213 277.208 14.7484 277.208 14.5368V11.0658C277.208 10.8413 277.388 10.6606 277.613 10.6606ZM160.779 10.6606H164.823C165.048 10.6606 165.228 10.8413 165.228 11.0658V34.9032C165.228 35.1277 165.048 35.3084 164.823 35.3084H160.779C160.555 35.3084 160.374 35.1277 160.374 34.9032V11.0658C160.374 10.8413 160.555 10.6606 160.779 10.6606ZM222.981 10.6606H218.937C218.712 10.6606 218.532 10.8413 218.532 11.0658V34.9032C218.532 35.1277 218.712 35.3084 218.937 35.3084H222.981C223.205 35.3084 223.386 35.1277 223.386 34.9032V11.0658C223.386 10.8413 223.205 10.6606 222.981 10.6606Z" fill="white"/>
</svg>
