<svg width="392" height="40" viewBox="0 0 392 40" fill="none" xmlns="http://www.w3.org/2000/svg">
<rect width="392" height="40" fill="black"/>
<path d="M20 0C8.95383 0 0 8.95383 0 20C0 31.0462 8.95383 40 20 40C31.0462 40 40 31.0462 40 20C40 8.95383 31.0462 0 20 0ZM26.0106 18.6629C21.9966 18.7146 18.7586 21.9553 18.7094 25.964H18.7068C18.7068 25.9951 18.7068 26.0261 18.7068 26.0572C18.7068 28.6642 16.5938 30.7772 13.9868 30.7772C11.3798 30.7772 9.26678 28.6642 9.26678 26.0572C9.26678 23.4501 11.3798 21.3371 13.9868 21.3371H13.9894C15.9343 21.3371 17.799 20.5586 19.1698 19.1775C20.5405 17.7965 21.3035 15.924 21.288 13.979C21.288 13.9661 21.288 13.9558 21.288 13.9428C21.288 11.3358 23.401 9.22281 26.008 9.22281C28.615 9.22281 30.728 11.3358 30.728 13.9428C30.728 16.5499 28.615 18.6629 26.008 18.6629H26.0106Z" fill="white"/>
<path fill-rule="evenodd" clip-rule="evenodd" d="M57.9622 30.5211H72.4016C72.6266 30.5211 72.8077 30.7047 72.8077 30.9271V34.9695C72.8077 35.1945 72.6266 35.3756 72.4016 35.3756H56.1026C53.2241 35.3756 50.8809 33.0324 50.8809 30.1538V3.95439C50.8809 3.72938 51.0619 3.54834 51.2869 3.54834H55.738C55.963 3.54834 56.144 3.72938 56.144 3.95439V28.7106C56.1518 29.7038 56.9691 30.5159 57.9622 30.5211ZM129.422 5.77257H125.336C125.112 5.77257 124.93 5.95437 124.93 6.17863V10.265C124.93 10.4893 125.112 10.6711 125.336 10.6711H129.422C129.646 10.6711 129.828 10.4893 129.828 10.265V6.17863C129.828 5.95437 129.646 5.77257 129.422 5.77257ZM95.7612 13.5393H91.6723C91.4499 13.5393 91.2662 13.7203 91.2662 13.9453V27.1045C91.2662 27.7278 91.0593 28.3201 90.6817 28.7701C90.1101 29.4581 89.4377 30.0633 88.6851 30.5728C87.6635 31.2633 86.5074 31.6151 85.2453 31.6151C83.5926 31.6151 82.315 31.1806 81.446 30.3271C80.577 29.4736 80.1347 28.1572 80.1347 26.414V13.9428C80.1347 13.7203 79.9537 13.5367 79.7287 13.5367H75.6397C75.4147 13.5367 75.2336 13.7177 75.2336 13.9428V27.0425C75.2336 29.6986 76.038 31.8737 77.6234 33.5057C79.2088 35.1376 81.4382 35.9653 84.2444 35.9653C85.8143 35.9653 87.2781 35.6213 88.5894 34.9411C89.8851 34.2712 90.9662 33.4229 91.8068 32.4142V34.9695C91.8068 35.1945 91.9878 35.3756 92.2128 35.3756H95.7561C95.9785 35.3756 96.1621 35.1945 96.1621 34.9695V13.9428C96.1621 13.7203 95.9811 13.5367 95.7561 13.5367L95.7612 13.5393ZM112.047 12.947C113.827 12.947 115.412 13.3298 116.757 14.085H116.762C118.104 14.8402 119.162 15.9032 119.902 17.2481C120.642 18.593 121.017 20.1473 121.017 21.8672V34.9669C121.017 35.1919 120.836 35.373 120.611 35.373H116.522C116.297 35.373 116.116 35.1894 116.116 34.9669V22.5009C116.116 20.8224 115.642 19.5189 114.714 18.6343C113.783 17.7498 112.549 17.2998 111.049 17.2998C109.787 17.2998 108.631 17.6515 107.609 18.3421C106.882 18.8309 106.225 19.4128 105.651 20.0697C105.222 20.5611 104.984 21.187 104.984 21.8336V34.9669C104.984 35.1919 104.803 35.373 104.578 35.373H100.489C100.264 35.373 100.083 35.1894 100.083 34.9669V13.9428C100.083 13.7177 100.264 13.5367 100.489 13.5367H104.079C104.304 13.5367 104.485 13.7203 104.485 13.9428V16.498C105.325 15.492 106.407 14.6411 107.702 13.9712C109.016 13.291 110.477 12.947 112.047 12.947ZM125.336 13.5393H129.425C129.65 13.5393 129.831 13.7203 129.831 13.9453V34.9695C129.831 35.1945 129.65 35.3756 129.425 35.3756H125.336C125.111 35.3756 124.93 35.1945 124.93 34.9695V13.9428C124.93 13.7177 125.111 13.5367 125.336 13.5367V13.5393ZM149.445 13.5393H142.517C142.206 13.5393 141.95 13.2858 141.95 12.9729V6.72693C141.948 6.47347 141.741 6.32087 141.539 6.32087C141.433 6.32087 141.332 6.36484 141.255 6.44243L137.215 10.5029C137.14 10.5805 137.096 10.6814 137.096 10.79V13.0013C137.08 13.3013 136.832 13.5393 136.532 13.5393H133.596C133.374 13.5393 133.19 13.7203 133.19 13.9453V17.442C133.19 17.6671 133.371 17.8481 133.596 17.8481H136.654C136.899 17.9024 137.08 18.1171 137.096 18.3679V28.7236C137.096 31.1418 137.794 32.9651 139.167 34.1419C140.541 35.3213 142.372 35.9161 144.606 35.9161H149.443C149.668 35.9161 149.849 35.7351 149.849 35.5101V31.7133C149.849 31.4883 149.668 31.3073 149.443 31.3073H146.06C143.662 31.3073 142.868 30.5857 142.861 30.578C142.212 30.0064 141.948 29.2046 141.948 27.8106V18.4016C141.95 18.0964 142.193 17.8507 142.499 17.8403H149.443C149.668 17.8403 149.849 17.6593 149.849 17.4343V13.9376C149.849 13.7152 149.668 13.5315 149.443 13.5315L149.445 13.5393ZM210.751 22.0199C211.677 22.3897 212.523 22.863 213.263 23.4242L213.268 23.4294C214.013 23.9958 214.613 24.6915 215.05 25.4959C215.487 26.3002 215.709 27.2572 215.709 28.3331C215.709 29.7892 215.301 31.0875 214.499 32.1944C213.697 33.2988 212.528 34.173 211.023 34.7885C209.528 35.4015 207.637 35.7118 205.589 35.7118C203.541 35.7118 201.733 35.4118 200.222 34.8195C198.699 34.2221 197.494 33.3376 196.638 32.1893C195.854 31.1392 195.391 29.8486 195.267 28.3589C195.257 28.2244 195.303 28.0951 195.404 27.9942C195.505 27.8908 195.647 27.8339 195.795 27.8339L199.832 27.8261C200.093 27.8261 200.318 28.0046 200.354 28.2425C200.458 28.9253 200.714 29.5047 201.112 29.9573C201.578 30.49 202.198 30.8909 202.954 31.1547C203.722 31.4237 204.555 31.5582 205.55 31.5582C206.546 31.5582 207.43 31.416 208.181 31.1392C208.92 30.8651 209.507 30.4797 209.924 29.9909C210.332 29.5098 210.544 28.9383 210.552 28.2917C210.542 27.7149 210.358 27.2313 210.004 26.8537C209.637 26.4632 209.112 26.1295 208.442 25.8631C207.754 25.589 206.939 25.3407 206.018 25.1208L203.047 24.4096C200.872 23.8898 199.128 23.088 197.864 22.025C196.578 20.9439 195.927 19.4879 195.927 17.7007C195.927 16.2368 196.361 14.9333 197.222 13.829C198.078 12.7324 199.26 11.866 200.732 11.2582C202.198 10.653 203.851 10.3452 205.726 10.3452C207.601 10.3452 209.272 10.653 210.692 11.2582C212.117 11.866 213.255 12.722 214.072 13.8005C214.812 14.7782 215.236 15.9136 215.329 17.1783C215.334 17.2378 215.327 17.2895 215.311 17.336C215.228 17.5533 215.034 17.6904 214.799 17.6904L210.844 17.6981C210.588 17.6981 210.371 17.5326 210.325 17.3024C210.154 16.4489 209.696 15.7713 208.962 15.2903C208.124 14.7394 207.014 14.46 205.661 14.46C204.71 14.46 203.882 14.5945 203.207 14.8583C202.54 15.1196 202.025 15.4765 201.676 15.9187C201.329 16.3584 201.151 16.8653 201.143 17.4291C201.143 17.8947 201.26 18.3007 201.487 18.637C201.72 18.9835 202.043 19.2784 202.449 19.5189C202.866 19.7646 203.336 19.9767 203.846 20.1448C204.363 20.3155 204.893 20.4603 205.418 20.5767L207.87 21.1457C208.861 21.3578 209.831 21.6526 210.751 22.0199ZM249.215 22.0871H239.697C239.485 22.0871 239.312 22.2604 239.312 22.4725V26.0545C239.312 26.2666 239.485 26.4399 239.697 26.4399H245.056C244.961 27.2805 244.725 28.0434 244.355 28.7029C243.856 29.5926 243.135 30.2883 242.211 30.772C241.285 31.2556 240.179 31.5013 238.916 31.5013C237.525 31.5013 236.289 31.1599 235.239 30.4849C234.189 29.8099 233.358 28.809 232.769 27.508C232.176 26.2045 231.876 24.8803 231.876 22.9975C231.876 21.1147 232.179 19.8189 232.774 18.518C233.369 17.2197 234.199 16.2239 235.239 15.5541C236.281 14.8842 237.484 14.5454 238.816 14.5454C239.558 14.5454 240.256 14.6411 240.885 14.8325C241.513 15.0213 242.079 15.3058 242.566 15.6756C243.055 16.0455 243.479 16.4981 243.83 17.0179C244.154 17.499 244.42 18.0447 244.617 18.6421C244.653 18.7559 244.759 18.8309 244.875 18.8309H249.109C249.189 18.8309 249.267 18.7947 249.319 18.7327C249.37 18.6706 249.391 18.5904 249.378 18.5128C249.176 17.3723 248.786 16.3119 248.222 15.3549C247.617 14.3308 246.833 13.4333 245.894 12.6884C244.955 11.9436 243.869 11.3591 242.667 10.953C241.464 10.547 240.147 10.3427 238.756 10.3427C237.111 10.3427 235.567 10.6401 234.165 11.2246C232.764 11.8091 231.527 12.6729 230.485 13.7928C229.445 14.9101 228.625 16.286 228.049 17.8844C227.472 19.4801 227.18 21.0241 227.18 23.0518C227.18 25.7002 227.676 27.7305 228.654 29.6573C229.632 31.5867 231.015 33.0919 232.764 34.1368C234.512 35.1817 236.573 35.7118 238.891 35.7118C240.97 35.7118 242.837 35.2825 244.443 34.4342C246.049 33.5859 247.33 32.3574 248.248 30.7849C249.166 29.2098 249.632 27.3218 249.632 25.17V22.5087C249.632 22.2785 249.445 22.0923 249.215 22.0923V22.0871ZM187.5 10.653H191.545C191.77 10.653 191.951 10.834 191.951 11.059V34.9411C191.951 35.1661 191.77 35.3471 191.545 35.3471H187.459C187.306 35.3471 187.161 35.2644 187.081 35.1325L174.84 18.3524L174.812 34.9411C174.812 35.1661 174.631 35.3471 174.406 35.3471H170.387C170.162 35.3471 169.98 35.1661 169.98 34.9411V11.059C169.98 10.834 170.162 10.653 170.387 10.653H174.788C174.941 10.653 175.086 10.7357 175.166 10.8676L187.099 27.5468L187.094 11.059C187.094 10.834 187.275 10.653 187.5 10.653ZM274.507 10.6504H270.477C270.252 10.6504 270.071 10.8314 270.071 11.0564V19.7232C270.071 20.0491 269.807 20.3155 269.479 20.3155H258.373C258.047 20.3155 257.781 20.0491 257.781 19.7232V11.0564C257.781 10.8314 257.6 10.6504 257.375 10.6504H253.346C253.12 10.6504 252.939 10.8314 252.939 11.0564V34.9411C252.939 35.1661 253.12 35.3471 253.346 35.3471H257.375C257.6 35.3471 257.781 35.1661 257.781 34.9411V25.1648C257.781 24.8389 258.047 24.5725 258.373 24.5725H269.479C269.807 24.5725 270.071 24.8389 270.071 25.1648V34.9411C270.071 35.1661 270.252 35.3471 270.477 35.3471H274.507C274.732 35.3471 274.913 35.1661 274.913 34.9411V11.0564C274.913 10.8314 274.732 10.6504 274.507 10.6504ZM278.233 10.6736H297.866C298.091 10.6736 298.272 10.8547 298.272 11.0797V14.5557C298.272 14.7678 298.099 14.9411 297.887 14.9411H291.131C290.806 14.9411 290.539 15.2049 290.539 15.5308L290.469 34.9333C290.469 35.1635 290.283 35.3497 290.053 35.3497H286.052C285.827 35.3497 285.646 35.1687 285.646 34.9437L285.635 15.5333C285.635 15.2049 285.369 14.9411 285.043 14.9411H278.213C278.001 14.9411 277.827 14.7678 277.827 14.5557V11.0797C277.827 10.8547 278.008 10.6736 278.233 10.6736ZM161.136 10.6736H165.183C165.408 10.6736 165.589 10.8547 165.589 11.0797V34.9411C165.589 35.1661 165.408 35.3471 165.183 35.3471H161.136C160.911 35.3471 160.729 35.1661 160.729 34.9411V11.0797C160.729 10.8547 160.911 10.6736 161.136 10.6736ZM219.421 10.6736H223.468C223.693 10.6736 223.874 10.8554 223.874 11.0797V34.9385C223.874 35.1627 223.693 35.3445 223.468 35.3445H219.421C219.196 35.3445 219.015 35.1627 219.015 34.9385V11.0797C219.015 10.8554 219.196 10.6736 219.421 10.6736Z" fill="white"/>
<path fill-rule="evenodd" clip-rule="evenodd" d="M391.398 22.0794H381.88C381.668 22.0794 381.495 22.2527 381.495 22.4648V26.0468C381.495 26.2589 381.668 26.4322 381.88 26.4322H387.239C387.143 27.2728 386.908 28.0357 386.538 28.6952C386.039 29.5849 385.317 30.2806 384.394 30.7643C383.468 31.2479 382.361 31.4936 381.102 31.4936C379.71 31.4936 378.474 31.1522 377.424 30.4772C376.374 29.8022 375.544 28.8013 374.954 27.5004C374.362 26.1969 374.062 24.8727 374.062 22.9898C374.062 21.107 374.364 19.8112 374.959 18.5103C375.554 17.212 376.384 16.2162 377.424 15.5464C378.466 14.8765 379.669 14.5377 381.001 14.5377C381.743 14.5377 382.441 14.6334 383.07 14.8248C383.698 15.0136 384.265 15.2981 384.751 15.6679C385.24 16.0378 385.664 16.4904 386.016 17.0102C386.339 17.4913 386.605 18.037 386.802 18.6345C386.838 18.7483 386.944 18.8233 387.061 18.8233H391.294C391.375 18.8233 391.452 18.7871 391.504 18.725C391.556 18.6629 391.576 18.5827 391.563 18.5051C391.362 17.3646 390.971 16.3042 390.407 15.3472C389.802 14.3231 389.018 13.4256 388.08 12.6808C387.141 11.9359 386.055 11.3514 384.852 10.9453C383.649 10.5393 382.333 10.335 380.941 10.335C379.296 10.335 377.752 10.6324 376.351 11.2169C374.949 11.8014 373.713 12.6652 372.67 13.7851C371.631 14.9024 370.811 16.2783 370.234 17.8767C369.657 19.4724 369.365 21.0165 369.365 23.0441C369.365 25.6925 369.862 27.7228 370.839 29.6496C371.817 31.579 373.201 33.0842 374.949 34.1291C376.697 35.174 378.759 35.7042 381.076 35.7042C383.155 35.7042 385.023 35.2748 386.629 34.4265C388.235 33.5782 389.515 32.3497 390.433 30.7772C391.351 29.2022 391.817 27.3141 391.817 25.1623V22.501C391.817 22.2708 391.631 22.0846 391.4 22.0846L391.398 22.0794ZM334.323 34.8714L334.352 11.1005C334.352 10.8367 334.145 10.6738 333.94 10.6738H328.351C328.175 10.6738 328.018 10.785 327.958 10.9505L320.551 29.466C320.53 29.5203 320.489 29.5487 320.44 29.5616C320.393 29.5487 320.349 29.5229 320.329 29.466L312.921 10.9505C312.862 10.785 312.704 10.6738 312.528 10.6738H306.701C306.494 10.6738 306.318 10.8238 306.29 11.0281L306.295 34.8688C306.295 35.1093 306.453 35.3472 306.706 35.3472H310.395C310.607 35.3472 310.808 35.174 310.808 34.9774L310.79 18.4793C310.808 18.3112 311.041 18.2827 311.101 18.4431L318.011 35.0757C318.071 35.2412 318.228 35.3498 318.402 35.3498H322.475C322.651 35.3498 322.806 35.2412 322.866 35.0757L329.776 18.4431C329.833 18.2827 330.069 18.3112 330.087 18.4793L330.069 34.9774C330.069 35.1817 330.27 35.3472 330.482 35.3472H333.909C334.163 35.3472 334.321 35.1403 334.321 34.8688L334.323 34.8714ZM365.887 11.1005L365.858 34.8714L365.855 34.8688C365.855 35.1403 365.698 35.3472 365.444 35.3472H362.017C361.805 35.3472 361.604 35.1817 361.604 34.9774L361.622 18.4793C361.604 18.3112 361.368 18.2827 361.311 18.4431L354.401 35.0757C354.341 35.2412 354.186 35.3498 354.01 35.3498H349.937C349.763 35.3498 349.606 35.2412 349.546 35.0757L342.636 18.4431C342.576 18.2827 342.343 18.3112 342.325 18.4793L342.343 34.9774C342.343 35.174 342.142 35.3472 341.929 35.3472H338.241C337.988 35.3472 337.83 35.1093 337.83 34.8688L337.825 11.0281C337.853 10.8238 338.029 10.6738 338.236 10.6738H344.063C344.239 10.6738 344.397 10.785 344.456 10.9505L351.863 29.466C351.884 29.5229 351.928 29.5487 351.975 29.5616C352.024 29.5487 352.065 29.5203 352.086 29.466L359.493 10.9505C359.553 10.785 359.71 10.6738 359.886 10.6738H365.475C365.68 10.6738 365.887 10.8367 365.887 11.1005Z" fill="white"/>
</svg>
