<svg width="150" height="40" viewBox="0 0 150 40" fill="none" xmlns="http://www.w3.org/2000/svg">
<g clip-path="url(#clip0_9065_85510)">
<path d="M20 0C16.0444 0 12.1776 1.17298 8.8886 3.37061C5.59962 5.56824 3.03617 8.69181 1.52242 12.3463C0.0086657 16.0009 -0.387401 20.0222 0.384303 23.9018C1.15601 27.7814 3.06082 31.3451 5.85787 34.1421C8.65492 36.9392 12.2186 38.844 16.0982 39.6157C19.9778 40.3874 23.9992 39.9913 27.6537 38.4776C31.3082 36.9638 34.4318 34.4004 36.6294 31.1114C38.827 27.8224 40 23.9556 40 20C40 14.6957 37.8929 9.60859 34.1421 5.85786C30.3914 2.10714 25.3043 0 20 0ZM26.0106 18.6629C24.0815 18.6864 22.238 19.4631 20.8739 20.8273C19.5097 22.1915 18.7329 24.035 18.7094 25.964V25.964C18.7094 25.9951 18.7094 26.0261 18.7094 26.0572C18.7094 26.9907 18.4326 27.9033 17.914 28.6795C17.3953 29.4557 16.6582 30.0606 15.7957 30.4179C14.9332 30.7751 13.9842 30.8686 13.0686 30.6865C12.153 30.5044 11.3119 30.0548 10.6518 29.3947C9.99173 28.7346 9.54219 27.8936 9.36007 26.978C9.17794 26.0624 9.27142 25.1134 9.62866 24.2509C9.98591 23.3884 10.5909 22.6512 11.3671 22.1326C12.1433 21.6139 13.0559 21.3371 13.9894 21.3371V21.3371C14.9529 21.3368 15.9068 21.1459 16.7962 20.7753C17.6856 20.4047 18.4929 19.8618 19.1716 19.1778C19.8502 18.4939 20.3869 17.6824 20.7505 16.7902C21.1142 15.8979 21.2977 14.9425 21.2906 13.979V13.9428C21.2906 13.0093 21.5674 12.0967 22.0861 11.3205C22.6047 10.5443 23.3419 9.93935 24.2043 9.5821C25.0668 9.22485 26.0158 9.13138 26.9314 9.31351C27.847 9.49563 28.6881 9.94517 29.3482 10.6053C30.0083 11.2654 30.4578 12.1064 30.6399 13.022C30.8221 13.9376 30.7286 14.8866 30.3714 15.7491C30.0141 16.6116 29.4091 17.3488 28.6329 17.8674C27.8567 18.386 26.9441 18.6629 26.0106 18.6629V18.6629Z" fill="#00C9EA"/>
<path fill-rule="evenodd" clip-rule="evenodd" d="M72.4013 30.5186H57.9593C57.481 30.5125 57.024 30.3198 56.6858 29.9816C56.3476 29.6434 56.1549 29.1864 56.1488 28.7081V3.95448C56.1488 3.84679 56.1061 3.74351 56.0299 3.66736C55.9538 3.59121 55.8505 3.54843 55.7428 3.54843H51.284C51.1763 3.54843 51.073 3.59121 50.9969 3.66736C50.9207 3.74351 50.8779 3.84679 50.8779 3.95448V30.1539C50.88 31.5382 51.4308 32.8651 52.4096 33.844C53.3884 34.8228 54.7154 35.3736 56.0997 35.3757H72.3935C72.501 35.375 72.6039 35.332 72.6799 35.256C72.7559 35.18 72.7989 35.0771 72.7996 34.9696V30.9272C72.8003 30.8204 72.7589 30.7176 72.6843 30.6411C72.6097 30.5646 72.5081 30.5206 72.4013 30.5186ZM125.335 5.77266H129.422C129.646 5.77266 129.828 5.95445 129.828 6.17871V10.2651C129.828 10.4894 129.646 10.6711 129.422 10.6711H125.335C125.111 10.6711 124.929 10.4894 124.929 10.2651V6.17871C124.929 5.95445 125.111 5.77266 125.335 5.77266ZM91.6748 13.5394H95.7612C95.8147 13.539 95.8678 13.5493 95.9174 13.5695C95.967 13.5898 96.012 13.6196 96.05 13.6574C96.088 13.6951 96.1181 13.74 96.1387 13.7894C96.1593 13.8389 96.1698 13.8919 96.1698 13.9454V34.9696C96.1698 35.0773 96.1271 35.1806 96.0509 35.2567C95.9748 35.3329 95.8715 35.3757 95.7638 35.3757H92.2205C92.1131 35.375 92.0102 35.332 91.9342 35.256C91.8582 35.18 91.8152 35.0771 91.8145 34.9696V32.4143C90.9212 33.4614 89.8272 34.3188 88.5971 34.936C87.2528 35.6271 85.761 35.9821 84.2495 35.9705C81.4433 35.9705 79.2139 35.1455 77.6285 33.5109C76.0431 31.8764 75.2388 29.7013 75.2388 27.0451V13.9454C75.2388 13.8377 75.2815 13.7345 75.3577 13.6583C75.4338 13.5822 75.5371 13.5394 75.6448 13.5394H79.7338C79.787 13.5394 79.8397 13.5499 79.8888 13.5703C79.9379 13.5908 79.9825 13.6207 80.02 13.6585C80.0575 13.6962 80.0872 13.741 80.1073 13.7902C80.1274 13.8395 80.1376 13.8922 80.1373 13.9454V26.4063C80.1373 28.1495 80.5795 29.4582 81.4485 30.3194C82.3175 31.1807 83.5977 31.6126 85.2504 31.6126C86.4754 31.6249 87.6752 31.2641 88.6902 30.578C89.4366 30.0712 90.1079 29.4618 90.6843 28.7676C91.0684 28.2981 91.2753 27.7086 91.2688 27.102V13.9454C91.2688 13.8377 91.3116 13.7345 91.3877 13.6583C91.4639 13.5822 91.5671 13.5394 91.6748 13.5394ZM116.757 14.0851C115.312 13.3052 113.689 12.9131 112.047 12.9471C110.537 12.9371 109.046 13.292 107.702 13.9816C106.474 14.598 105.381 15.4536 104.487 16.4981V13.9428C104.487 13.8356 104.444 13.733 104.367 13.6574C104.291 13.5818 104.189 13.5394 104.081 13.5394H100.491C100.385 13.5401 100.283 13.5829 100.208 13.6585C100.133 13.734 100.091 13.8363 100.091 13.9428V34.9696C100.091 35.0773 100.133 35.1806 100.21 35.2567C100.286 35.3329 100.389 35.3757 100.497 35.3757H104.583C104.691 35.3757 104.794 35.3329 104.87 35.2567C104.946 35.1806 104.989 35.0773 104.989 34.9696V21.8363C104.991 21.187 105.228 20.5605 105.656 20.0724C106.232 19.4145 106.89 18.8338 107.614 18.3448C108.629 17.6574 109.829 17.2964 111.054 17.3102C112.554 17.3102 113.785 17.7577 114.716 18.6448C115.647 19.5319 116.126 20.8224 116.126 22.501V34.967C116.126 35.0745 116.169 35.1774 116.245 35.2534C116.321 35.3294 116.424 35.3724 116.532 35.3731H120.621C120.728 35.3724 120.831 35.3294 120.907 35.2534C120.983 35.1774 121.026 35.0745 121.027 34.967V21.8673C121.053 20.2585 120.668 18.6695 119.91 17.2507C119.18 15.9176 118.087 14.8196 116.757 14.0851ZM125.335 13.5394H129.422C129.646 13.5394 129.828 13.7212 129.828 13.9454V34.9696C129.828 35.1939 129.646 35.3757 129.422 35.3757H125.335C125.111 35.3757 124.929 35.1939 124.929 34.9696V13.9454C124.929 13.7212 125.111 13.5394 125.335 13.5394ZM142.506 13.5394H149.445C149.499 13.5387 149.552 13.5486 149.602 13.5686C149.651 13.5885 149.696 13.6181 149.735 13.6556C149.773 13.6931 149.803 13.7377 149.824 13.7871C149.845 13.8364 149.856 13.8893 149.856 13.9428V17.4396C149.856 17.547 149.813 17.6499 149.737 17.7259C149.661 17.8019 149.558 17.8449 149.45 17.8456H142.506C142.358 17.8476 142.216 17.9079 142.112 18.0135C142.008 18.119 141.95 18.2612 141.95 18.4094V27.8159C141.95 29.2099 142.214 30.0116 142.863 30.5832C142.871 30.591 143.662 31.3126 146.062 31.3126H149.432C149.486 31.3126 149.538 31.3231 149.588 31.3435C149.637 31.3639 149.682 31.3938 149.719 31.4315C149.757 31.4692 149.787 31.514 149.807 31.5632C149.828 31.6125 149.838 31.6653 149.838 31.7186V35.5076C149.838 35.5609 149.828 35.6137 149.807 35.663C149.787 35.7122 149.757 35.757 149.719 35.7947C149.682 35.8324 149.637 35.8623 149.588 35.8827C149.538 35.9031 149.486 35.9136 149.432 35.9136H144.596C142.369 35.9136 140.535 35.3291 139.165 34.1394C137.794 32.9497 137.095 31.1263 137.095 28.7081V18.3629C137.088 18.2406 137.042 18.124 136.962 18.0306C136.883 17.9373 136.775 17.8724 136.656 17.8456H133.596C133.49 17.8436 133.389 17.8004 133.314 17.7251C133.239 17.6498 133.197 17.5483 133.195 17.4421V13.9428C133.195 13.836 133.237 13.7335 133.312 13.6575C133.387 13.5815 133.489 13.5382 133.596 13.5368H136.524C136.669 13.5363 136.808 13.4803 136.913 13.3802C137.018 13.2801 137.08 13.1436 137.088 12.9988V10.7875C137.087 10.7341 137.097 10.6812 137.118 10.6318C137.138 10.5825 137.169 10.5378 137.207 10.5005L141.247 6.43994C141.283 6.40173 141.328 6.37129 141.376 6.35041C141.425 6.32953 141.478 6.31864 141.531 6.31838C141.585 6.31804 141.638 6.32829 141.687 6.34855C141.737 6.3688 141.782 6.39865 141.82 6.43639C141.858 6.47413 141.888 6.51901 141.908 6.56845C141.929 6.61788 141.94 6.67089 141.94 6.72443V12.973C141.94 13.123 142 13.2667 142.106 13.3727C142.212 13.4788 142.356 13.5387 142.506 13.5394Z" fill="white"/>
</g>
<defs>
<clipPath id="clip0_9065_85510">
<rect width="150" height="40" fill="white"/>
</clipPath>
</defs>
</svg>
