<svg width="343" height="40" viewBox="0 0 343 40" fill="none" xmlns="http://www.w3.org/2000/svg">
<g clip-path="url(#clip0_9078_100899)">
<path d="M20.0003 0C16.0446 0 12.1778 1.17298 8.88885 3.37061C5.59986 5.56824 3.03642 8.69181 1.52266 12.3463C0.00890984 16.0009 -0.387157 20.0222 0.384548 23.9018C1.15625 27.7814 3.06107 31.3451 5.85812 34.1421C8.65517 36.9392 12.2188 38.844 16.0984 39.6157C19.9781 40.3874 23.9994 39.9913 27.6539 38.4776C31.3084 36.9638 34.432 34.4004 36.6296 31.1114C38.8273 27.8224 40.0003 23.9556 40.0003 20C40.0003 14.6957 37.8931 9.60859 34.1424 5.85786C30.3917 2.10714 25.3046 0 20.0003 0ZM26.0109 18.6629C24.0818 18.6864 22.2383 19.4631 20.8741 20.8273C19.5099 22.1915 18.7332 24.035 18.7097 25.964C18.7097 25.9951 18.7097 26.0261 18.7097 26.0572C18.7102 26.9914 18.4336 27.9048 17.9149 28.6819C17.3961 29.4589 16.6586 30.0646 15.7955 30.4224C14.9325 30.7801 13.9827 30.8739 13.0664 30.6917C12.15 30.5096 11.3083 30.0598 10.6477 29.3991C9.98704 28.7385 9.5372 27.8968 9.35506 26.9804C9.17292 26.0641 9.26666 25.1143 9.62443 24.2513C9.98219 23.3882 10.5879 22.6507 11.3649 22.132C12.142 21.6132 13.0554 21.3366 13.9896 21.3371C14.9532 21.3368 15.9071 21.1459 16.7965 20.7753C17.6859 20.4047 18.4932 19.8618 19.1718 19.1778C19.8505 18.4939 20.3871 17.6824 20.7508 16.7902C21.1144 15.8979 21.298 14.9425 21.2908 13.979C21.2922 13.967 21.2922 13.9549 21.2908 13.9428C21.2908 13.0093 21.5677 12.0967 22.0863 11.3205C22.6049 10.5443 23.3421 9.93935 24.2046 9.5821C25.0671 9.22485 26.0161 9.13138 26.9317 9.31351C27.8473 9.49563 28.6883 9.94517 29.3484 10.6053C30.0085 11.2654 30.4581 12.1064 30.6402 13.022C30.8223 13.9376 30.7288 14.8866 30.3716 15.7491C30.0143 16.6116 29.4094 17.3488 28.6332 17.8674C27.857 18.386 26.9444 18.6629 26.0109 18.6629Z" fill="#00C9EA"/>
<path fill-rule="evenodd" clip-rule="evenodd" d="M72.4036 30.4701H57.9616C57.4833 30.4641 57.0263 30.2714 56.6881 29.9332C56.3499 29.595 56.1572 29.138 56.1512 28.6597V3.90605C56.1512 3.79836 56.1084 3.69508 56.0322 3.61893C55.9561 3.54278 55.8528 3.5 55.7451 3.5H51.2863C51.1786 3.5 51.0753 3.54278 50.9992 3.61893C50.923 3.69508 50.8802 3.79836 50.8802 3.90605V30.1055C50.8823 31.4897 51.4331 32.8167 52.4119 33.7955C53.3908 34.7744 54.7178 35.3252 56.102 35.3272H72.3958C72.5031 35.3265 72.6057 35.2835 72.6813 35.2074C72.7569 35.1313 72.7993 35.0284 72.7993 34.9212V30.8788C72.8007 30.7722 72.7599 30.6694 72.6857 30.5928C72.6116 30.5163 72.5101 30.4722 72.4036 30.4701ZM125.338 5.72412H129.424C129.648 5.72412 129.83 5.90592 129.83 6.13017V10.2166C129.83 10.4408 129.648 10.6226 129.424 10.6226H125.338C125.114 10.6226 124.932 10.4408 124.932 10.2166V6.13017C124.932 5.90592 125.114 5.72412 125.338 5.72412ZM91.6768 13.4912H95.7632C95.8167 13.4909 95.8698 13.5011 95.9193 13.5214C95.9689 13.5416 96.014 13.5715 96.0519 13.6092C96.0899 13.647 96.1201 13.6918 96.1406 13.7413C96.1612 13.7907 96.1718 13.8437 96.1718 13.8973V34.9215C96.1718 35.0291 96.129 35.1324 96.0529 35.2086C95.9767 35.2847 95.8734 35.3275 95.7657 35.3275H92.2225C92.115 35.3268 92.0121 35.2838 91.9361 35.2078C91.8601 35.1318 91.8171 35.0289 91.8164 34.9215V32.3662C90.9228 33.4138 89.8278 34.2714 88.5965 34.8878C87.2532 35.5792 85.7622 35.9342 84.2515 35.9224C81.4453 35.9224 79.2159 35.0973 77.6305 33.4628C76.0451 31.8282 75.2407 29.6531 75.2407 26.997V13.8973C75.2407 13.7896 75.2835 13.6863 75.3597 13.6101C75.4358 13.534 75.5391 13.4912 75.6468 13.4912H79.7357C79.7889 13.4912 79.8416 13.5017 79.8907 13.5222C79.9399 13.5426 79.9845 13.5726 80.022 13.6103C80.0595 13.648 80.0891 13.6928 80.1092 13.7421C80.1294 13.7913 80.1396 13.8441 80.1392 13.8973V26.3582C80.1392 28.1013 80.5815 29.41 81.4505 30.2713C82.3195 31.1325 83.5997 31.5644 85.2524 31.5644C86.4766 31.5771 87.6757 31.2162 88.6896 30.5299C89.4374 30.0238 90.1096 29.4143 90.6862 28.7195C91.0703 28.25 91.2772 27.6604 91.2707 27.0539V13.8973C91.2707 13.7896 91.3135 13.6863 91.3897 13.6101C91.4658 13.534 91.5691 13.4912 91.6768 13.4912ZM116.759 14.037C115.314 13.2571 113.691 12.865 112.049 12.899C110.539 12.889 109.048 13.2439 107.704 13.9335C106.476 14.5499 105.383 15.4055 104.49 16.45V13.8947C104.489 13.7875 104.446 13.6849 104.37 13.6093C104.294 13.5337 104.191 13.4913 104.083 13.4913H100.491C100.385 13.4926 100.284 13.5357 100.209 13.6113C100.135 13.6868 100.093 13.7886 100.093 13.8947V34.9215C100.093 35.0288 100.135 35.1316 100.211 35.2077C100.286 35.2838 100.389 35.3269 100.496 35.3276H104.585C104.693 35.3276 104.796 35.2848 104.872 35.2086C104.948 35.1325 104.991 35.0292 104.991 34.9215V21.7882C104.993 21.1389 105.23 20.5124 105.659 20.0243C106.234 19.3664 106.892 18.7857 107.616 18.2967C108.631 17.6093 109.831 17.2483 111.056 17.2621C112.556 17.2621 113.787 17.7096 114.718 18.5967C115.649 19.4838 116.128 20.7744 116.128 22.4529V34.9189C116.129 35.0264 116.172 35.1293 116.248 35.2053C116.324 35.2813 116.427 35.3243 116.534 35.325H120.623C120.73 35.3243 120.833 35.2812 120.908 35.2051C120.984 35.1291 121.026 35.0262 121.026 34.9189V21.8192C121.054 20.2106 120.67 18.6217 119.912 17.2026C119.182 15.87 118.089 14.7722 116.759 14.037ZM125.338 13.4912H129.424C129.648 13.4912 129.83 13.673 129.83 13.8973V34.9214C129.83 35.1457 129.648 35.3275 129.424 35.3275H125.338C125.114 35.3275 124.932 35.1457 124.932 34.9214V13.8973C124.932 13.673 125.114 13.4912 125.338 13.4912ZM149.453 17.7972H142.508C142.36 17.7985 142.218 17.8586 142.114 17.9643C142.01 18.07 141.952 18.2126 141.952 18.361V27.7674C141.952 29.1615 142.216 29.9632 142.865 30.5348C142.873 30.5426 143.664 31.2641 146.065 31.2641H149.435C149.488 31.2641 149.541 31.2746 149.59 31.295C149.639 31.3155 149.684 31.3454 149.722 31.3831C149.759 31.4208 149.789 31.4655 149.81 31.5148C149.83 31.5641 149.841 31.6169 149.841 31.6702V35.4591C149.841 35.5125 149.83 35.5653 149.81 35.6145C149.789 35.6638 149.759 35.7086 149.722 35.7463C149.684 35.784 149.639 35.8139 149.59 35.8343C149.541 35.8547 149.488 35.8652 149.435 35.8652H144.598C142.374 35.8652 140.538 35.2807 139.167 34.091C137.796 32.9013 137.098 31.0779 137.098 28.6597V18.3144C137.091 18.1922 137.044 18.0755 136.965 17.9822C136.885 17.8889 136.778 17.8239 136.658 17.7972H133.599C133.492 17.7952 133.391 17.7519 133.316 17.6766C133.242 17.6013 133.199 17.4999 133.198 17.3937V13.8944C133.198 13.7876 133.24 13.6851 133.315 13.6091C133.39 13.5331 133.492 13.4897 133.599 13.4884H136.526C136.671 13.4879 136.81 13.4318 136.915 13.3318C137.02 13.2317 137.083 13.0952 137.09 12.9504V10.7391C137.089 10.6857 137.1 10.6327 137.12 10.5834C137.141 10.5341 137.171 10.4894 137.209 10.452L141.246 6.39152C141.303 6.33401 141.375 6.29462 141.454 6.27836C141.533 6.26211 141.615 6.26972 141.69 6.30023C141.764 6.33074 141.828 6.38277 141.873 6.44969C141.918 6.51662 141.942 6.5954 141.942 6.67601V12.9246C141.943 13.0746 142.003 13.2182 142.109 13.3243C142.215 13.4304 142.358 13.4903 142.508 13.491H149.453C149.56 13.491 149.663 13.5334 149.739 13.609C149.815 13.6846 149.858 13.7872 149.859 13.8944V17.3911C149.858 17.4986 149.815 17.6015 149.739 17.6775C149.663 17.7535 149.56 17.7965 149.453 17.7972ZM248.703 31.3599H238.414C238.257 31.3599 238.106 31.2975 237.995 31.1864C237.884 31.0753 237.822 30.9247 237.822 30.7676V25.3234C237.822 25.2456 237.837 25.1686 237.867 25.0967C237.897 25.0249 237.94 24.9596 237.995 24.9046C238.05 24.8496 238.116 24.806 238.188 24.7762C238.259 24.7464 238.336 24.7311 238.414 24.7311H248.072C248.182 24.7311 248.288 24.6873 248.366 24.6092C248.444 24.5311 248.488 24.4252 248.488 24.3147V21.1775C248.488 21.0671 248.444 20.9612 248.366 20.8831C248.288 20.805 248.182 20.7611 248.072 20.7611H238.414C238.257 20.7604 238.107 20.6978 237.996 20.5869C237.885 20.476 237.823 20.3257 237.822 20.1689V15.1902C237.823 15.0333 237.885 14.8831 237.996 14.7722C238.107 14.6612 238.257 14.5986 238.414 14.5979H248.692C248.747 14.5979 248.802 14.587 248.853 14.5657C248.904 14.5445 248.95 14.5134 248.989 14.4741C249.027 14.4349 249.058 14.3884 249.078 14.3373C249.099 14.2862 249.109 14.2315 249.109 14.1764V11.0443C249.109 10.9339 249.065 10.828 248.987 10.7499C248.909 10.6718 248.803 10.6279 248.692 10.6279H233.05C232.94 10.6279 232.834 10.6718 232.756 10.7499C232.678 10.828 232.634 10.9339 232.634 11.0443V34.9135C232.634 35.0239 232.678 35.1298 232.756 35.2079C232.834 35.286 232.94 35.3299 233.05 35.3299H248.703C248.813 35.3299 248.919 35.286 248.997 35.2079C249.075 35.1298 249.119 35.0239 249.119 34.9135V31.7763C249.119 31.6658 249.075 31.5599 248.997 31.4818C248.919 31.4037 248.813 31.3599 248.703 31.3599ZM197.927 10.7559C198.039 10.8341 198.124 10.9447 198.171 11.0728L206.734 34.6497C206.766 34.7333 206.774 34.8239 206.758 34.9119C206.742 34.9998 206.703 35.0818 206.644 35.1489C206.592 35.2054 206.529 35.2502 206.458 35.2801C206.388 35.31 206.312 35.3243 206.235 35.3221H202.374C202.271 35.3219 202.17 35.29 202.086 35.2308C202.002 35.1716 201.938 35.0879 201.903 34.9911L199.906 29.6219C199.875 29.5372 199.819 29.464 199.745 29.4122C199.671 29.3604 199.583 29.3325 199.493 29.3322H190.44C190.35 29.3321 190.262 29.3599 190.188 29.4117C190.114 29.4635 190.057 29.5369 190.027 29.6219L188.077 35.0532C188.047 35.1341 187.994 35.204 187.924 35.2535C187.853 35.303 187.769 35.3297 187.683 35.3299H183.9C183.823 35.3321 183.747 35.3178 183.676 35.2878C183.606 35.2579 183.543 35.2132 183.491 35.1566C183.432 35.0895 183.392 35.0077 183.376 34.9198C183.359 34.832 183.367 34.7413 183.398 34.6575L191.873 11.0728C191.921 10.9447 192.007 10.8342 192.119 10.7561C192.232 10.678 192.365 10.636 192.502 10.6357H197.545C197.682 10.6358 197.815 10.6778 197.927 10.7559ZM195.181 16.6285C195.116 16.5819 195.038 16.5574 194.959 16.5584C194.88 16.5586 194.803 16.5841 194.739 16.6311C194.675 16.678 194.628 16.7441 194.604 16.8196L191.759 24.7881C191.727 24.8819 191.727 24.9837 191.76 25.0774C191.792 25.1711 191.855 25.2513 191.938 25.3053C192.006 25.3493 192.085 25.3718 192.166 25.37H197.752C197.852 25.372 197.949 25.3381 198.026 25.2743C198.097 25.2164 198.149 25.1377 198.174 25.0492C198.198 24.9607 198.195 24.8667 198.163 24.7803L195.318 16.817C195.294 16.7411 195.246 16.675 195.181 16.6285ZM224.027 25.7711L223.32 24.646L223.238 24.5297C223.375 24.4728 223.496 24.4185 223.605 24.3667C224.931 23.762 226.075 22.8181 226.921 21.6304C227.698 20.5363 228.115 19.2275 228.115 17.8854C228.165 16.5364 227.803 15.2042 227.079 14.0652C226.354 12.9263 225.3 12.0344 224.058 11.5076C222.646 10.8968 221.119 10.5969 219.581 10.6282H209.791C209.681 10.6282 209.575 10.6721 209.497 10.7502C209.419 10.8283 209.375 10.9342 209.375 11.0446V34.9137C209.375 35.0242 209.419 35.1301 209.497 35.2082C209.575 35.2863 209.681 35.3301 209.791 35.3301H213.8C213.855 35.3301 213.909 35.3194 213.96 35.2984C214.01 35.2775 214.056 35.2468 214.095 35.2082C214.133 35.1695 214.164 35.1236 214.185 35.0731C214.206 35.0226 214.217 34.9684 214.217 34.9137V25.978C214.217 25.8211 214.28 25.6709 214.391 25.56C214.502 25.449 214.652 25.3864 214.809 25.3857H218.104C218.177 25.3859 218.249 25.4041 218.313 25.4389C218.377 25.4737 218.431 25.5238 218.471 25.5849L224.58 35.1025C224.625 35.1724 224.687 35.2298 224.761 35.2696C224.834 35.3093 224.916 35.3302 224.999 35.3301H229.316C229.405 35.3283 229.492 35.3023 229.568 35.2549C229.644 35.2074 229.705 35.1403 229.746 35.0607C229.786 34.981 229.805 34.8919 229.798 34.8027C229.792 34.7135 229.762 34.6276 229.711 34.5542L224.027 25.7711ZM214.217 15.1905C214.217 15.0336 214.28 14.8834 214.391 14.7724C214.502 14.6615 214.652 14.5989 214.809 14.5982H219.537C220.22 14.5836 220.898 14.7195 221.523 14.9965C222.052 15.2358 222.496 15.6287 222.798 16.1241C223.103 16.66 223.256 17.269 223.24 17.8854C223.255 18.5435 223.075 19.1913 222.723 19.7476C222.354 20.2965 221.833 20.7253 221.223 20.9812C220.493 21.2853 219.707 21.4342 218.916 21.4183H214.809C214.652 21.4176 214.502 21.355 214.391 21.2441C214.28 21.1332 214.217 20.9829 214.217 20.8261V15.1905ZM178.094 26.7924H182.11C182.18 26.7926 182.249 26.8077 182.313 26.8367C182.377 26.8657 182.434 26.9079 182.48 26.9605C182.527 27.0162 182.561 27.0812 182.581 27.1511C182.601 27.2211 182.607 27.2945 182.596 27.3666C182.39 28.9448 181.773 30.4413 180.808 31.7069C179.843 32.9726 178.563 33.9631 177.095 34.5798C175.378 35.3065 173.528 35.6651 171.664 35.6324C169.269 35.6324 167.164 35.1152 165.405 34.0807C163.639 33.0491 162.215 31.5198 161.313 29.6839C160.359 27.7907 159.875 25.5458 159.875 22.9853C159.875 20.4249 160.372 18.18 161.347 16.2868C162.276 14.4462 163.724 12.9178 165.511 11.89C167.293 10.8555 169.422 10.3382 171.837 10.3382C173.659 10.3077 175.467 10.6602 177.144 11.3728C178.63 12.0082 179.919 13.0298 180.876 14.3315C181.731 15.5273 182.277 16.9161 182.464 18.3739C182.473 18.4448 182.466 18.5165 182.445 18.5848C182.425 18.653 182.39 18.7161 182.343 18.7703C182.297 18.8245 182.24 18.8684 182.176 18.8995C182.112 18.9305 182.042 18.948 181.97 18.9507H177.915C177.799 18.9473 177.687 18.9049 177.598 18.8303C177.509 18.7557 177.447 18.6533 177.424 18.5395C177.277 17.7841 176.974 17.0678 176.534 16.4368C176.036 15.7434 175.361 15.1967 174.579 14.854C173.717 14.4755 172.784 14.2859 171.842 14.2979C170.619 14.2656 169.419 14.6284 168.418 15.3324C167.321 16.0698 166.465 17.1142 165.958 18.3351C165.351 19.8033 165.056 21.3815 165.09 22.9698C165.053 24.5634 165.342 26.1477 165.94 27.6252C166.426 28.8397 167.255 29.8866 168.325 30.6383C169.291 31.3432 170.464 31.7071 171.659 31.6728C172.668 31.6904 173.669 31.4947 174.597 31.0986C175.422 30.7417 176.136 30.1701 176.666 29.4434C177.139 28.7766 177.458 28.0135 177.602 27.2088C177.625 27.0941 177.686 26.9904 177.775 26.9148C177.864 26.8392 177.977 26.796 178.094 26.7924Z" fill="black"/>
<path fill-rule="evenodd" clip-rule="evenodd" d="M337.77 35.2683C337.878 35.329 338 35.3608 338.124 35.3608L342.022 35.3504C342.151 35.3508 342.277 35.3168 342.388 35.2518C342.5 35.1868 342.591 35.0932 342.654 34.9808C342.717 34.8684 342.749 34.7412 342.746 34.6125C342.743 34.4837 342.705 34.3581 342.638 34.2487L335.396 22.5378L341.344 16.5582C341.445 16.4594 341.514 16.3325 341.541 16.1942C341.569 16.0558 341.555 15.9123 341.5 15.7823C341.446 15.6497 341.354 15.5363 341.235 15.4569C341.116 15.3775 340.975 15.3359 340.832 15.3375H336.583C336.487 15.3367 336.391 15.3553 336.303 15.3922C336.214 15.4291 336.133 15.4835 336.066 15.5522L329.259 22.4163V10.0381C329.259 9.84607 329.182 9.66188 329.046 9.52607C328.911 9.39026 328.726 9.31396 328.534 9.31396H325.172C324.98 9.31465 324.797 9.39116 324.661 9.52682C324.525 9.66248 324.449 9.84628 324.448 10.0381V34.6444C324.449 34.836 324.525 35.0195 324.661 35.1548C324.797 35.29 324.981 35.3659 325.172 35.3659H328.534C328.629 35.3663 328.723 35.3479 328.811 35.3118C328.899 35.2757 328.979 35.2226 329.046 35.1555C329.114 35.0885 329.167 35.0088 329.203 34.9211C329.24 34.8334 329.259 34.7393 329.259 34.6444V28.7217L332.005 25.9621L337.506 35.0142C337.571 35.1201 337.662 35.2076 337.77 35.2683ZM277.377 23.5569C276.879 23.146 276.321 22.8137 275.722 22.5716C275.695 22.5607 275.672 22.5421 275.656 22.5182C275.64 22.4942 275.631 22.466 275.631 22.4371C275.629 22.4061 275.636 22.3751 275.652 22.3483C275.668 22.3215 275.691 22.3001 275.719 22.2871C276.19 22.0527 276.625 21.7532 277.013 21.3974C277.596 20.8632 278.062 20.2131 278.381 19.4887C278.785 18.5429 278.942 17.51 278.838 16.4868C278.734 15.4635 278.372 14.4835 277.786 13.6384C277.005 12.6113 275.948 11.8274 274.739 11.378C273.265 10.8311 271.7 10.5679 270.128 10.6021H260.745C260.618 10.6021 260.496 10.6525 260.406 10.7422C260.317 10.8319 260.266 10.9536 260.266 11.0805V34.8902C260.266 34.9529 260.279 35.015 260.303 35.0729C260.327 35.1308 260.362 35.1834 260.406 35.2276C260.451 35.2718 260.504 35.3068 260.562 35.3306C260.62 35.3544 260.682 35.3664 260.745 35.3661H270.723C272.316 35.3987 273.899 35.1093 275.378 34.5152C276.625 34.0103 277.697 33.1495 278.458 32.0401C279.187 30.9215 279.563 29.6094 279.537 28.2744C279.542 27.3704 279.352 26.476 278.981 25.6519C278.613 24.8406 278.064 24.124 277.377 23.5569ZM274.033 17.655C274.044 18.2376 273.883 18.8106 273.57 19.3024C273.243 19.7904 272.78 20.1717 272.238 20.399C271.57 20.6743 270.852 20.8073 270.13 20.7896H265.32C265.235 20.7889 265.154 20.7548 265.095 20.6947C265.035 20.6347 265.002 20.5535 265.002 20.4689V14.9109C265.002 14.8265 265.035 14.7456 265.095 14.6859C265.154 14.6263 265.235 14.5928 265.32 14.5928H270.13C270.852 14.575 271.57 14.7071 272.238 14.9807C272.774 15.2041 273.236 15.5733 273.573 16.0463C273.886 16.5234 274.046 17.0845 274.033 17.655ZM265.002 25.1036C265.002 25.0192 265.035 24.9383 265.095 24.8786C265.154 24.819 265.235 24.7854 265.32 24.7854H270.376C271.157 24.7666 271.933 24.9047 272.66 25.1915C273.245 25.4301 273.75 25.8302 274.116 26.345C274.464 26.8606 274.645 27.4712 274.633 28.0933C274.649 28.704 274.479 29.305 274.145 29.8168C273.812 30.3286 273.331 30.7269 272.766 30.959C272.088 31.2432 271.359 31.3816 270.624 31.365H265.322C265.238 31.365 265.157 31.3315 265.097 31.2719C265.038 31.2122 265.004 31.1313 265.004 31.0469L265.002 25.1036ZM291.288 15.2651C293.097 15.2651 294.883 15.682 296.505 16.4834C297.977 17.2851 299.169 18.5155 299.925 20.0112C300.708 21.5397 301.107 23.3579 301.107 25.4424C301.107 27.527 300.7 29.3504 299.925 30.8737C299.167 32.3666 297.975 33.5949 296.505 34.3963C294.883 35.1977 293.097 35.6145 291.288 35.6145C289.478 35.6145 287.692 35.1977 286.07 34.3963C284.599 33.5959 283.407 32.3662 282.653 30.8711C281.869 29.3426 281.471 27.527 281.471 25.4398C281.471 23.3527 281.877 21.5293 282.653 20.0086C283.408 18.5141 284.599 17.2846 286.07 16.4834C287.692 15.682 289.478 15.2651 291.288 15.2651ZM291.294 31.8772C292.298 31.901 293.286 31.6313 294.139 31.1013C294.957 30.5575 295.595 29.7835 295.973 28.8771C296.425 27.786 296.645 26.6128 296.619 25.4321C296.645 24.2505 296.425 23.0764 295.973 21.9845C295.594 21.0785 294.956 20.3046 294.139 19.7603C293.286 19.2311 292.298 18.9615 291.294 18.9844C290.283 18.9614 289.287 19.2309 288.426 19.7603C287.601 20.3004 286.956 21.075 286.574 21.9845C286.122 23.0764 285.901 24.2505 285.927 25.4321C285.901 26.6129 286.122 27.7861 286.574 28.8771C286.955 29.787 287.6 30.5617 288.426 31.1013C289.287 31.6314 290.283 31.9009 291.294 31.8772ZM312.495 15.2651C314.305 15.2651 316.091 15.682 317.713 16.4834C319.184 17.2862 320.376 18.5163 321.132 20.0112C321.916 21.5397 322.314 23.3579 322.314 25.4424C322.314 27.527 321.908 29.3504 321.132 30.8737C320.375 32.3666 319.183 33.5949 317.713 34.3963C316.091 35.1977 314.305 35.6145 312.495 35.6145C310.686 35.6145 308.9 35.1977 307.277 34.3963C305.807 33.5959 304.615 32.3662 303.861 30.8711C303.075 29.3426 302.679 27.527 302.679 25.4398C302.679 23.3527 303.085 21.5293 303.861 20.0086C304.615 18.5135 305.807 17.2838 307.277 16.4834C308.9 15.682 310.686 15.2651 312.495 15.2651ZM312.502 31.8772C313.505 31.9001 314.494 31.6305 315.347 31.1013C316.164 30.5575 316.803 29.7835 317.18 28.8771C317.633 27.786 317.853 26.6128 317.827 25.4321C317.853 24.2505 317.633 23.0764 317.18 21.9845C316.802 21.0785 316.164 20.3046 315.347 19.7603C314.494 19.2311 313.505 18.9615 312.502 18.9844C311.491 18.9614 310.495 19.2309 309.634 19.7603C308.808 20.3004 308.163 21.075 307.782 21.9845C307.329 23.0764 307.109 24.2505 307.135 25.4321C307.109 26.6129 307.329 27.7861 307.782 28.8771C308.163 29.787 308.808 30.5617 309.634 31.1013C310.495 31.6314 311.491 31.9009 312.502 31.8772Z" fill="#00C9EA"/>
</g>
<defs>
<clipPath id="clip0_9078_100899">
<rect width="343" height="40" fill="white"/>
</clipPath>
</defs>
</svg>
