<svg width="373" height="40" viewBox="0 0 373 40" fill="none" xmlns="http://www.w3.org/2000/svg">
<g clip-path="url(#clip0_9597_157952)">
<rect width="373" height="40" fill="black"/>
<path d="M20 0C16.0444 0 12.1776 1.17298 8.8886 3.37061C5.59962 5.56824 3.03617 8.69181 1.52242 12.3463C0.0086657 16.0009 -0.387401 20.0222 0.384303 23.9018C1.15601 27.7814 3.06082 31.3451 5.85787 34.1421C8.65492 36.9392 12.2186 38.844 16.0982 39.6157C19.9778 40.3874 23.9992 39.9913 27.6537 38.4776C31.3082 36.9638 34.4318 34.4004 36.6294 31.1114C38.827 27.8224 40 23.9556 40 20C40 14.6957 37.8929 9.60859 34.1421 5.85786C30.3914 2.10714 25.3043 0 20 0ZM26.0106 18.6629C24.0815 18.6864 22.238 19.4631 20.8739 20.8273C19.5097 22.1915 18.7329 24.035 18.7094 25.964C18.7094 25.9951 18.7094 26.0261 18.7094 26.0572C18.7094 26.9907 18.4326 27.9033 17.914 28.6795C17.3953 29.4557 16.6582 30.0606 15.7957 30.4179C14.9332 30.7751 13.9842 30.8686 13.0686 30.6865C12.153 30.5044 11.3119 30.0548 10.6518 29.3947C9.99173 28.7346 9.54219 27.8936 9.36007 26.978C9.17794 26.0624 9.27142 25.1134 9.62866 24.2509C9.98591 23.3884 10.5909 22.6512 11.3671 22.1326C12.1433 21.6139 13.0559 21.3371 13.9894 21.3371C14.9529 21.3368 15.9068 21.1459 16.7962 20.7753C17.6856 20.4047 18.4929 19.8618 19.1716 19.1778C19.8502 18.4939 20.3869 17.6824 20.7505 16.7902C21.1142 15.8979 21.2977 14.9425 21.2906 13.979V13.9428C21.2906 13.0093 21.5674 12.0967 22.0861 11.3205C22.6047 10.5443 23.3419 9.93935 24.2043 9.5821C25.0668 9.22485 26.0159 9.13138 26.9314 9.31351C27.847 9.49563 28.6881 9.94517 29.3482 10.6053C30.0083 11.2654 30.4578 12.1064 30.6399 13.022C30.8221 13.9376 30.7286 14.8866 30.3714 15.7491C30.0141 16.6116 29.4091 17.3488 28.6329 17.8674C27.8567 18.386 26.9441 18.6629 26.0106 18.6629Z" fill="white"/>
<path fill-rule="evenodd" clip-rule="evenodd" d="M57.9593 30.5185H72.4013C72.5081 30.5205 72.6097 30.5645 72.6843 30.641C72.7589 30.7175 72.8003 30.8203 72.7996 30.9271V34.9695C72.7989 35.077 72.7559 35.1799 72.6799 35.2559C72.6039 35.3319 72.501 35.3749 72.3935 35.3756H56.0997C54.7154 35.3735 53.3884 34.8227 52.4096 33.8439C51.4308 32.8651 50.88 31.5381 50.8779 30.1538V3.95439C50.8779 3.8467 50.9207 3.74342 50.9969 3.66727C51.073 3.59112 51.1763 3.54834 51.284 3.54834H55.7428C55.8505 3.54834 55.9538 3.59112 56.0299 3.66727C56.1061 3.74342 56.1488 3.8467 56.1488 3.95439V28.708C56.1549 29.1863 56.3476 29.6433 56.6858 29.9815C57.024 30.3198 57.481 30.5124 57.9593 30.5185ZM129.422 5.77258H125.335C125.111 5.77258 124.929 5.95438 124.929 6.17863V10.265C124.929 10.4893 125.111 10.6711 125.335 10.6711H129.422C129.646 10.6711 129.828 10.4893 129.828 10.265V6.17863C129.828 5.95438 129.646 5.77258 129.422 5.77258ZM95.761 13.5393H91.6746C91.5669 13.5393 91.4636 13.5821 91.3875 13.6582C91.3113 13.7344 91.2685 13.8376 91.2685 13.9453V27.1019C91.275 27.7085 91.0681 28.2981 90.684 28.7675C90.1077 29.4617 89.4364 30.0711 88.69 30.5779C87.675 31.264 86.4752 31.6248 85.2502 31.6125C83.5975 31.6125 82.3173 31.1806 81.4483 30.3193C80.5793 29.4581 80.137 28.1494 80.137 26.4062V13.9453C80.1374 13.8921 80.1272 13.8394 80.107 13.7901C80.0869 13.7409 80.0573 13.6961 80.0198 13.6584C79.9823 13.6206 79.9377 13.5907 79.8885 13.5702C79.8394 13.5498 79.7868 13.5393 79.7335 13.5393H75.6446C75.5369 13.5393 75.4336 13.5821 75.3575 13.6582C75.2813 13.7344 75.2385 13.8376 75.2385 13.9453V27.045C75.2385 29.7012 76.0429 31.8763 77.6283 33.5108C79.2137 35.1454 81.4431 35.9704 84.2493 35.9704C85.7608 35.982 87.2526 35.627 88.5969 34.9359C89.827 34.3187 90.921 33.4613 91.8142 32.4142V34.9695C91.8149 35.077 91.8579 35.1799 91.9339 35.2559C92.0099 35.3319 92.1128 35.3749 92.2203 35.3756H95.7635C95.8712 35.3756 95.9745 35.3328 96.0507 35.2566C96.1268 35.1805 96.1696 35.0772 96.1696 34.9695V13.9453C96.1696 13.8918 96.159 13.8388 96.1384 13.7893C96.1179 13.7399 96.0877 13.695 96.0498 13.6573C96.0118 13.6196 95.9667 13.5897 95.9171 13.5694C95.8676 13.5492 95.8145 13.5389 95.761 13.5393ZM112.047 12.947C113.689 12.913 115.312 13.3051 116.757 14.085C118.087 14.8195 119.18 15.9175 119.91 17.2506C120.668 18.6695 121.053 20.2584 121.027 21.8672V34.9669C121.026 35.0744 120.983 35.1773 120.907 35.2533C120.831 35.3293 120.728 35.3723 120.621 35.373H116.532C116.424 35.3723 116.321 35.3293 116.245 35.2533C116.169 35.1773 116.126 35.0744 116.126 34.9669V22.5009C116.126 20.8224 115.647 19.5318 114.716 18.6447C113.785 17.7576 112.554 17.3101 111.054 17.3101C109.829 17.2963 108.629 17.6573 107.614 18.3447C106.89 18.8337 106.232 19.4144 105.656 20.0723C105.228 20.5604 104.991 21.1869 104.989 21.8362V34.9695C104.989 35.0772 104.946 35.1805 104.87 35.2566C104.794 35.3328 104.691 35.3756 104.583 35.3756H100.497C100.389 35.3756 100.286 35.3328 100.21 35.2566C100.133 35.1805 100.091 35.0772 100.091 34.9695V13.9427C100.091 13.8362 100.133 13.734 100.208 13.6584C100.283 13.5828 100.385 13.54 100.491 13.5393H104.081C104.189 13.5393 104.291 13.5817 104.367 13.6573C104.444 13.7329 104.487 13.8355 104.487 13.9427V16.498C105.381 15.4535 106.474 14.5979 107.702 13.9815C109.046 13.2919 110.537 12.937 112.047 12.947ZM129.422 13.5393H125.335C125.111 13.5393 124.929 13.7211 124.929 13.9453V34.9695C124.929 35.1938 125.111 35.3756 125.335 35.3756H129.422C129.646 35.3756 129.828 35.1938 129.828 34.9695V13.9453C129.828 13.7211 129.646 13.5393 129.422 13.5393ZM149.445 13.5393H142.506C142.356 13.5386 142.212 13.4787 142.106 13.3726C142 13.2666 141.94 13.1229 141.94 12.9729V6.72433C141.94 6.67079 141.929 6.61777 141.908 6.56834C141.888 6.5189 141.858 6.47403 141.82 6.43629C141.782 6.39855 141.737 6.36869 141.687 6.34844C141.638 6.32819 141.585 6.31793 141.531 6.31828C141.478 6.31854 141.425 6.32943 141.376 6.3503C141.328 6.37118 141.283 6.40162 141.247 6.43983L137.207 10.5004C137.169 10.5377 137.138 10.5824 137.118 10.6317C137.097 10.6811 137.087 10.734 137.088 10.7874V12.9987C137.08 13.1435 137.018 13.28 136.913 13.3801C136.808 13.4802 136.669 13.5362 136.524 13.5367H133.596C133.489 13.5381 133.387 13.5814 133.312 13.6574C133.237 13.7334 133.195 13.8359 133.195 13.9427V17.442C133.197 17.5482 133.239 17.6496 133.314 17.725C133.389 17.8003 133.49 17.8435 133.596 17.8455H136.656C136.775 17.8723 136.883 17.9372 136.962 18.0305C137.042 18.1239 137.088 18.2405 137.095 18.3628V28.708C137.095 31.1262 137.794 32.9496 139.165 34.1393C140.535 35.329 142.369 35.9135 144.596 35.9135H149.432C149.486 35.9135 149.538 35.903 149.588 35.8826C149.637 35.8622 149.682 35.8323 149.719 35.7946C149.757 35.7569 149.787 35.7121 149.807 35.6629C149.828 35.6136 149.838 35.5608 149.838 35.5075V31.7185C149.838 31.6652 149.828 31.6124 149.807 31.5631C149.787 31.5139 149.757 31.4691 149.719 31.4314C149.682 31.3937 149.637 31.3638 149.588 31.3434C149.538 31.323 149.486 31.3125 149.432 31.3125H146.062C143.662 31.3125 142.871 30.5909 142.863 30.5831C142.214 30.0115 141.95 29.2098 141.95 27.8158V18.4093C141.95 18.2611 142.008 18.1189 142.112 18.0134C142.216 17.9078 142.358 17.8475 142.506 17.8455H149.45C149.558 17.8448 149.661 17.8018 149.737 17.7258C149.813 17.6498 149.856 17.5469 149.856 17.4394V13.9427C149.856 13.8892 149.845 13.8363 149.824 13.7869C149.803 13.7376 149.773 13.693 149.735 13.6555C149.696 13.618 149.651 13.5884 149.602 13.5684C149.552 13.5485 149.499 13.5386 149.445 13.5393ZM210.751 22.0457C211.648 22.3975 212.493 22.87 213.263 23.4501C213.993 24.0029 214.598 24.7046 215.037 25.5088C215.494 26.386 215.722 27.3647 215.699 28.3537C215.727 29.7428 215.305 31.1036 214.496 32.2332C213.603 33.4041 212.399 34.3003 211.02 34.8195C209.528 35.4325 207.7 35.7428 205.589 35.7428C203.76 35.7809 201.94 35.4783 200.222 34.8506C198.803 34.331 197.56 33.4199 196.638 32.2229C195.828 31.1015 195.352 29.7733 195.267 28.3925C195.262 28.3254 195.271 28.2579 195.295 28.1949C195.319 28.1318 195.356 28.0748 195.404 28.0278C195.508 27.9258 195.649 27.8691 195.795 27.8701H199.832C199.953 27.8678 200.072 27.9082 200.166 27.9843C200.261 28.0604 200.326 28.1674 200.349 28.2865C200.43 28.9194 200.694 29.5151 201.107 30.0012C201.606 30.5538 202.241 30.9666 202.948 31.1987C203.782 31.4746 204.656 31.6101 205.535 31.5996C206.43 31.6163 207.321 31.4753 208.168 31.1832C208.837 30.9545 209.436 30.5583 209.908 30.0322C210.316 29.5612 210.54 28.9587 210.539 28.3356C210.549 27.8027 210.352 27.2867 209.991 26.895C209.551 26.4567 209.022 26.1187 208.439 25.9045C207.651 25.5978 206.841 25.3497 206.016 25.1622L203.044 24.451C200.879 23.9311 199.157 23.1501 197.872 22.0664C196.586 20.9827 195.934 19.5292 195.934 17.7395C195.911 16.3368 196.367 14.9681 197.228 13.86C198.153 12.7116 199.363 11.8253 200.737 11.2892C202.326 10.6609 204.023 10.3507 205.731 10.3762C207.431 10.3434 209.12 10.6539 210.697 11.2892C212.028 11.8261 213.194 12.7028 214.08 13.8315C214.819 14.8118 215.256 15.9867 215.337 17.2119C215.341 17.2653 215.334 17.3191 215.316 17.3696C215.278 17.4756 215.208 17.5668 215.115 17.6304C215.022 17.694 214.911 17.7268 214.799 17.724H210.844C210.726 17.7273 210.61 17.6898 210.516 17.6177C210.422 17.5457 210.355 17.4435 210.327 17.3282C210.252 16.9161 210.091 16.5242 209.857 16.177C209.622 15.8298 209.318 15.5349 208.964 15.3109C208.126 14.7626 207.014 14.4833 205.664 14.4833C204.828 14.4652 203.996 14.602 203.21 14.8868C202.614 15.0978 202.086 15.4639 201.679 15.9472C201.336 16.3762 201.148 16.9084 201.146 17.4576C201.135 17.8857 201.255 18.3069 201.49 18.6654C201.74 19.027 202.068 19.3282 202.449 19.5473C202.891 19.8051 203.359 20.0149 203.846 20.1732C204.363 20.3416 204.887 20.484 205.418 20.5999L207.87 21.1689C208.853 21.3811 209.817 21.6744 210.751 22.0457ZM249.215 22.1103H239.697C239.646 22.1103 239.596 22.1205 239.549 22.1402C239.502 22.1598 239.459 22.1887 239.423 22.225C239.387 22.2614 239.359 22.3045 239.34 22.3518C239.321 22.3992 239.311 22.4498 239.312 22.5009V26.0855C239.312 26.1877 239.353 26.2857 239.425 26.358C239.497 26.4303 239.595 26.4709 239.697 26.4709H245.056C244.976 27.2656 244.737 28.0362 244.353 28.7365C243.857 29.6212 243.113 30.3407 242.211 30.8055C241.189 31.3138 240.058 31.565 238.916 31.5375C237.618 31.5615 236.341 31.2075 235.241 30.5185C234.144 29.7864 233.285 28.75 232.769 27.5364C232.179 26.2433 231.879 24.9061 231.879 23.0259C231.83 21.4844 232.134 19.9521 232.769 18.5464C233.286 17.3405 234.142 16.3108 235.233 15.5825C236.302 14.9044 237.545 14.5529 238.81 14.5712C239.51 14.5664 240.207 14.6631 240.879 14.8583C241.486 15.0362 242.055 15.3218 242.561 15.7014C243.053 16.0773 243.48 16.5317 243.825 17.0463C244.156 17.5495 244.417 18.095 244.601 18.6679C244.617 18.7239 244.651 18.7729 244.698 18.8072C244.745 18.8414 244.802 18.8589 244.86 18.8567H249.094C249.134 18.8578 249.174 18.8494 249.21 18.8323C249.246 18.8153 249.278 18.79 249.303 18.7585C249.329 18.7288 249.348 18.6935 249.358 18.6554C249.369 18.6173 249.37 18.5774 249.363 18.5386C249.171 17.4249 248.779 16.355 248.206 15.3807C247.6 14.3561 246.811 13.4515 245.879 12.7117C244.911 11.9504 243.818 11.3639 242.648 10.9788C241.387 10.5631 240.066 10.3561 238.738 10.3659C237.165 10.3522 235.605 10.653 234.15 11.2504C232.753 11.8321 231.498 12.7071 230.469 13.816C229.389 15.0014 228.561 16.3932 228.033 17.9076C227.429 19.5639 227.134 21.3173 227.164 23.0802C227.164 25.7286 227.661 27.7589 228.638 29.6857C229.557 31.5425 230.991 33.0957 232.769 34.16C234.517 35.1945 236.578 35.7325 238.896 35.7325C240.823 35.7678 242.73 35.3291 244.449 34.4548C246.037 33.6241 247.355 32.3583 248.25 30.8055C249.169 29.2331 249.634 27.3425 249.634 25.1906V22.5267C249.634 22.4718 249.623 22.4175 249.602 22.3668C249.581 22.3161 249.55 22.2701 249.511 22.2314C249.472 22.1927 249.426 22.1621 249.375 22.1413C249.324 22.1205 249.27 22.11 249.215 22.1103ZM187.508 10.6711H191.553C191.661 10.6711 191.764 10.7138 191.84 10.79C191.916 10.8661 191.959 10.9694 191.959 11.0771V34.9592C191.959 35.0664 191.917 35.1693 191.841 35.2454C191.766 35.3215 191.663 35.3645 191.556 35.3652H187.467C187.39 35.3649 187.315 35.3447 187.248 35.3066C187.181 35.2685 187.126 35.2139 187.086 35.148L174.84 18.3628V24.6811H174.814V34.9695C174.814 35.0772 174.772 35.1805 174.695 35.2566C174.619 35.3328 174.516 35.3756 174.408 35.3756H170.389C170.282 35.3756 170.178 35.3328 170.102 35.2566C170.026 35.1805 169.983 35.0772 169.983 34.9695V11.0771C169.983 10.9694 170.026 10.8661 170.102 10.79C170.178 10.7138 170.282 10.6711 170.389 10.6711H174.786C174.862 10.6711 174.937 10.6912 175.004 10.7293C175.07 10.7674 175.125 10.8222 175.164 10.8883L187.102 27.5726V23.0233V20.5663V11.0771C187.102 10.9694 187.145 10.8661 187.221 10.79C187.297 10.7138 187.4 10.6711 187.508 10.6711ZM274.512 10.671H270.48C270.372 10.671 270.269 10.7138 270.193 10.79C270.116 10.8661 270.074 10.9694 270.074 11.0771V19.7464C270.074 19.8242 270.058 19.9012 270.029 19.9731C269.999 20.0449 269.955 20.1102 269.9 20.1652C269.845 20.2202 269.78 20.2639 269.708 20.2936C269.636 20.3234 269.559 20.3387 269.481 20.3387H258.373C258.295 20.3387 258.218 20.3234 258.147 20.2936C258.075 20.2639 258.009 20.2202 257.954 20.1652C257.899 20.1102 257.856 20.0449 257.826 19.9731C257.796 19.9012 257.781 19.8242 257.781 19.7464V11.0771C257.781 10.9694 257.738 10.8661 257.662 10.79C257.586 10.7138 257.483 10.671 257.375 10.671H253.343C253.29 10.6714 253.237 10.6822 253.189 10.7027C253.14 10.7233 253.095 10.7533 253.058 10.791C253.021 10.8287 252.992 10.8734 252.972 10.9225C252.952 10.9716 252.942 11.0241 252.942 11.0771V34.9669C252.942 35.0201 252.952 35.0729 252.972 35.1221C252.992 35.1714 253.022 35.2161 253.059 35.2539C253.097 35.2916 253.141 35.3216 253.19 35.342C253.239 35.3624 253.292 35.373 253.345 35.373H257.377C257.431 35.373 257.484 35.3625 257.533 35.3421C257.582 35.3217 257.627 35.2917 257.665 35.254C257.702 35.2163 257.732 35.1716 257.753 35.1223C257.773 35.073 257.783 35.0202 257.783 34.9669V25.1906C257.783 25.113 257.798 25.036 257.828 24.9642C257.857 24.8923 257.9 24.827 257.955 24.772C258.01 24.717 258.075 24.6733 258.147 24.6435C258.219 24.6137 258.296 24.5984 258.373 24.5984H269.494C269.572 24.598 269.649 24.6131 269.721 24.6428C269.793 24.6724 269.859 24.716 269.914 24.7711C269.969 24.8261 270.013 24.8916 270.042 24.9636C270.072 25.0356 270.087 25.1128 270.087 25.1906V34.9669C270.087 35.0746 270.129 35.1779 270.206 35.254C270.282 35.3302 270.385 35.373 270.493 35.373H274.525C274.632 35.373 274.736 35.3302 274.812 35.254C274.888 35.1779 274.931 35.0746 274.931 34.9669V11.0771C274.931 11.0227 274.92 10.9688 274.899 10.9187C274.877 10.8685 274.846 10.8232 274.807 10.7853C274.768 10.7474 274.722 10.7178 274.671 10.6982C274.62 10.6785 274.566 10.6693 274.512 10.671ZM278.223 10.684H297.879C297.986 10.686 298.087 10.7297 298.161 10.8056C298.236 10.8816 298.278 10.9837 298.277 11.09V14.5686C298.278 14.6195 298.268 14.6699 298.249 14.7169C298.23 14.764 298.201 14.8067 298.166 14.8428C298.13 14.8789 298.087 14.9075 298.04 14.927C297.993 14.9465 297.943 14.9566 297.892 14.9566H291.129C290.972 14.9566 290.822 15.0186 290.711 15.1291C290.6 15.2397 290.537 15.3896 290.537 15.5463L290.467 34.9695C290.466 35.0802 290.422 35.1861 290.343 35.2641C290.265 35.3421 290.158 35.3859 290.048 35.3859H286.044C285.936 35.3859 285.833 35.3432 285.756 35.2671C285.68 35.1911 285.636 35.0878 285.636 34.9799V15.5489C285.636 15.3918 285.573 15.2411 285.462 15.1301C285.351 15.019 285.2 14.9566 285.043 14.9566H278.202C278.1 14.9559 278.002 14.9147 277.93 14.842C277.858 14.7694 277.817 14.6711 277.817 14.5686V11.09C277.817 10.9824 277.86 10.8791 277.936 10.8029C278.012 10.7268 278.115 10.684 278.223 10.684ZM165.186 10.684H161.133C160.909 10.684 160.727 10.8658 160.727 11.09V34.9799C160.727 35.2041 160.909 35.3859 161.133 35.3859H165.186C165.41 35.3859 165.592 35.2041 165.592 34.9799V11.09C165.592 10.8658 165.41 10.684 165.186 10.684ZM219.418 10.684H223.471C223.695 10.684 223.877 10.8658 223.877 11.09V34.9799C223.877 35.2041 223.695 35.3859 223.471 35.3859H219.418C219.194 35.3859 219.012 35.2041 219.012 34.9799V11.09C219.012 10.8658 219.194 10.684 219.418 10.684Z" fill="white"/>
<path fill-rule="evenodd" clip-rule="evenodd" d="M326.349 16.4723C325.289 14.6251 323.705 13.1337 321.797 12.1867C319.84 11.1884 317.507 10.6841 314.864 10.6841H306.864C306.712 10.6841 306.567 10.7443 306.46 10.8515C306.353 10.9587 306.292 11.1041 306.292 11.2557V34.7912C306.293 34.9423 306.354 35.087 306.461 35.1937C306.568 35.3003 306.713 35.3601 306.864 35.3601H314.864C317.507 35.3601 319.84 34.8558 321.797 33.8601C323.709 32.9101 325.294 31.4117 326.349 29.5564C327.405 27.7021 327.943 25.4908 327.943 22.982C327.943 20.4733 327.405 18.3163 326.349 16.4723ZM311.007 31.2945V14.7627C311.008 14.7375 311.018 14.7136 311.036 14.6958C311.054 14.678 311.078 14.6677 311.103 14.667H314.864C316.378 14.6317 317.877 14.9796 319.221 15.6783C320.438 16.3333 321.429 17.3389 322.066 18.5646C322.754 19.9374 323.095 21.4575 323.06 22.9924C323.096 24.5456 322.755 26.0844 322.066 27.477C321.433 28.7093 320.441 29.7209 319.221 30.3789C317.877 31.0767 316.378 31.4237 314.864 31.3876H311.103C311.078 31.3876 311.054 31.3778 311.036 31.3605C311.018 31.3431 311.008 31.3194 311.007 31.2945ZM372 10.6841H352.365C352.257 10.6841 352.154 10.7269 352.078 10.803C352.002 10.8792 351.959 10.9824 351.959 11.0901V14.5661C351.959 14.6683 352 14.7664 352.072 14.8386C352.144 14.9109 352.242 14.9515 352.344 14.9515H359.175C359.33 14.9536 359.479 15.0169 359.588 15.1279C359.697 15.2388 359.757 15.3883 359.757 15.5438V34.9541C359.757 35.0618 359.8 35.1651 359.876 35.2412C359.952 35.3174 360.055 35.3601 360.163 35.3601H364.164C364.219 35.3601 364.273 35.3494 364.323 35.3284C364.374 35.3075 364.42 35.2769 364.458 35.2382C364.497 35.1995 364.528 35.1536 364.549 35.1031C364.569 35.0526 364.58 34.9984 364.58 34.9437L364.65 15.5464C364.651 15.3897 364.713 15.2397 364.824 15.1292C364.935 15.0187 365.086 14.9567 365.242 14.9567H372C372.051 14.9567 372.101 14.9467 372.148 14.9273C372.195 14.908 372.237 14.8796 372.273 14.8438C372.309 14.808 372.337 14.7655 372.356 14.7188C372.376 14.672 372.386 14.6219 372.386 14.5713V11.0901C372.386 10.9859 372.346 10.8857 372.274 10.8101C372.202 10.7345 372.104 10.6894 372 10.6841ZM347.813 23.6157C348.497 24.1746 349.043 24.8823 349.412 25.6847C349.784 26.5075 349.974 27.4014 349.968 28.3047C349.993 29.6356 349.62 30.9437 348.894 32.06C348.134 33.1657 347.066 34.0237 345.822 34.5273C344.349 35.1203 342.772 35.4089 341.185 35.3757H331.333C331.258 35.3757 331.184 35.3609 331.115 35.3321C331.045 35.3034 330.982 35.2613 330.929 35.2082C330.876 35.1552 330.834 35.0922 330.805 35.0228C330.776 34.9535 330.762 34.8791 330.762 34.8041V11.2686C330.762 11.117 330.822 10.9716 330.929 10.8644C331.036 10.7572 331.182 10.697 331.333 10.697H340.59C342.158 10.6628 343.718 10.9261 345.188 11.4729C346.394 11.9195 347.447 12.701 348.225 13.7256C348.807 14.5687 349.168 15.5455 349.272 16.5652C349.376 17.5849 349.22 18.6143 348.819 19.5577C348.501 20.2792 348.036 20.9265 347.454 21.4587C347.034 21.8448 346.558 22.164 346.042 22.4053C346.023 22.4119 346.008 22.4243 345.997 22.4407C345.986 22.457 345.981 22.4763 345.982 22.4958C345.983 22.5146 345.989 22.5329 346 22.5481C346.011 22.5633 346.026 22.5749 346.044 22.5811C346.686 22.8278 347.284 23.1772 347.813 23.6157ZM344.014 19.3701C344.335 18.8813 344.498 18.3059 344.482 17.7214H344.469C344.485 17.1533 344.327 16.5939 344.017 16.1179C343.681 15.6466 343.221 15.2785 342.687 15.055C342.02 14.7823 341.305 14.6503 340.585 14.667H335.57C335.544 14.667 335.52 14.6771 335.502 14.695C335.484 14.713 335.474 14.7373 335.474 14.7627V20.75C335.474 20.7625 335.476 20.7748 335.481 20.7863C335.486 20.7977 335.493 20.8081 335.502 20.8168C335.511 20.8255 335.522 20.8323 335.533 20.8368C335.545 20.8413 335.557 20.8435 335.57 20.8431H340.585C341.305 20.8617 342.021 20.7295 342.687 20.4552C343.23 20.2376 343.693 19.8589 344.014 19.3701ZM335.486 24.8873C335.481 24.8991 335.479 24.9117 335.479 24.9243L335.482 31.2789C335.481 31.2916 335.484 31.3042 335.488 31.316C335.493 31.3277 335.5 31.3384 335.509 31.3474C335.518 31.3563 335.529 31.3634 335.54 31.3681C335.552 31.3727 335.565 31.375 335.577 31.3746H341.084C341.815 31.3905 342.542 31.2531 343.217 30.9712C343.779 30.741 344.258 30.3459 344.59 29.838C344.923 29.33 345.093 28.7331 345.08 28.1262C345.091 27.5057 344.911 26.8967 344.562 26.383C344.198 25.8693 343.695 25.4708 343.111 25.2347C342.388 24.9478 341.614 24.8097 340.835 24.8287H335.575C335.562 24.8283 335.55 24.8305 335.538 24.8352C335.526 24.8399 335.515 24.8469 335.506 24.8559C335.497 24.8648 335.49 24.8755 335.486 24.8873Z" fill="white"/>
</g>
<defs>
<clipPath id="clip0_9597_157952">
<rect width="373" height="40" fill="white"/>
</clipPath>
</defs>
</svg>
