<svg width="375" height="40" viewBox="0 0 375 40" fill="none" xmlns="http://www.w3.org/2000/svg">
<g opacity="0.2" clip-path="url(#clip0_9065_87459)">
<rect width="375" height="40" fill="#1F1F21"/>
<path d="M20.0003 0C16.0446 0 12.1778 1.17298 8.88885 3.37061C5.59986 5.56824 3.03642 8.69181 1.52266 12.3463C0.00890984 16.0009 -0.387157 20.0222 0.384548 23.9018C1.15625 27.7814 3.06107 31.3451 5.85812 34.1421C8.65517 36.9392 12.2188 38.844 16.0984 39.6157C19.9781 40.3874 23.9994 39.9913 27.6539 38.4776C31.3084 36.9638 34.432 34.4004 36.6296 31.1114C38.8273 27.8224 40.0003 23.9556 40.0003 20C40.0003 14.6957 37.8931 9.60859 34.1424 5.85786C30.3917 2.10714 25.3046 0 20.0003 0ZM26.0109 18.6629C24.0818 18.6864 22.2383 19.4631 20.8741 20.8273C19.5099 22.1915 18.7332 24.035 18.7097 25.964C18.7097 25.9951 18.7097 26.0261 18.7097 26.0572C18.7102 26.9914 18.4336 27.9048 17.9149 28.6819C17.3961 29.4589 16.6586 30.0646 15.7955 30.4224C14.9325 30.7801 13.9827 30.8739 13.0664 30.6917C12.15 30.5096 11.3083 30.0598 10.6477 29.3991C9.98704 28.7385 9.5372 27.8968 9.35506 26.9804C9.17292 26.0641 9.26666 25.1143 9.62443 24.2513C9.98219 23.3882 10.5879 22.6507 11.3649 22.132C12.142 21.6132 13.0554 21.3366 13.9896 21.3371C14.9532 21.3368 15.9071 21.1459 16.7965 20.7753C17.6859 20.4047 18.4932 19.8618 19.1718 19.1778C19.8505 18.4939 20.3871 17.6824 20.7508 16.7902C21.1144 15.8979 21.298 14.9425 21.2908 13.979C21.2922 13.967 21.2922 13.9549 21.2908 13.9428C21.2908 13.0093 21.5677 12.0967 22.0863 11.3205C22.6049 10.5443 23.3421 9.93935 24.2046 9.5821C25.0671 9.22485 26.0161 9.13138 26.9317 9.31351C27.8473 9.49563 28.6883 9.94517 29.3484 10.6053C30.0085 11.2654 30.4581 12.1064 30.6402 13.022C30.8223 13.9376 30.7288 14.8866 30.3716 15.7491C30.0143 16.6116 29.4094 17.3488 28.6332 17.8674C27.857 18.386 26.9444 18.6629 26.0109 18.6629Z" fill="#00C9EA"/>
<path fill-rule="evenodd" clip-rule="evenodd" d="M72.4037 30.4701H57.9617C57.4834 30.4641 57.0264 30.2714 56.6882 29.9332C56.35 29.595 56.1573 29.138 56.1513 28.6597V3.90605C56.1513 3.79836 56.1085 3.69508 56.0324 3.61893C55.9562 3.54278 55.8529 3.5 55.7452 3.5H51.2864C51.1787 3.5 51.0754 3.54278 50.9993 3.61893C50.9232 3.69508 50.8804 3.79836 50.8804 3.90605V30.1055C50.8824 31.4897 51.4332 32.8167 52.4121 33.7955C53.3909 34.7744 54.7179 35.3252 56.1021 35.3272H72.396C72.5032 35.3265 72.6058 35.2835 72.6814 35.2074C72.757 35.1313 72.7994 35.0284 72.7994 34.9212V30.8788C72.8008 30.7722 72.76 30.6694 72.6858 30.5928C72.6117 30.5163 72.5103 30.4722 72.4037 30.4701ZM129.424 5.72412H125.338C125.114 5.72412 124.932 5.90592 124.932 6.13017V10.2166C124.932 10.4408 125.114 10.6226 125.338 10.6226H129.424C129.649 10.6226 129.83 10.4408 129.83 10.2166V6.13017C129.83 5.90592 129.649 5.72412 129.424 5.72412ZM232.921 26.759H228.904C228.787 26.7596 228.674 26.8014 228.584 26.877C228.494 26.9526 228.434 27.0573 228.413 27.1728C228.27 27.9777 227.95 28.7409 227.477 29.4074C226.947 30.1343 226.233 30.7066 225.408 31.0653C224.479 31.4604 223.478 31.6552 222.47 31.6368C221.273 31.6723 220.1 31.3083 219.133 30.6023C218.062 29.8544 217.231 28.8112 216.741 27.5996C216.146 26.1284 215.856 24.5515 215.89 22.9649C215.857 21.3709 216.156 19.7874 216.767 18.3147C217.274 17.0935 218.131 16.049 219.229 15.312C220.228 14.6072 221.428 14.2443 222.651 14.2775C223.596 14.2637 224.534 14.4533 225.4 14.8335C226.181 15.1774 226.856 15.725 227.353 16.4189C227.793 17.0483 228.095 17.7642 228.237 18.519C228.261 18.6332 228.323 18.736 228.412 18.8107C228.502 18.8853 228.614 18.9275 228.731 18.9303H232.786C232.857 18.9303 232.927 18.915 232.991 18.8856C233.056 18.8561 233.113 18.8131 233.159 18.7596C233.206 18.7041 233.241 18.6392 233.262 18.5692C233.282 18.4993 233.288 18.4257 233.278 18.3535C233.092 16.8965 232.547 15.5084 231.692 14.3137C230.736 13.004 229.447 11.9744 227.958 11.3316C226.28 10.62 224.473 10.2676 222.651 10.2971C220.238 10.2971 218.109 10.8144 216.327 11.8489C214.54 12.8769 213.093 14.4053 212.163 16.2457C211.188 18.1388 210.692 20.3838 210.692 22.9442C210.692 25.5047 211.175 27.747 212.127 29.6402C213.031 31.4757 214.455 33.0047 216.221 34.0369C217.98 35.0715 220.085 35.5887 222.48 35.5887C224.344 35.6211 226.194 35.2625 227.911 34.5361C229.375 33.9191 230.652 32.9296 231.615 31.6659C232.578 30.4022 233.193 28.9084 233.399 27.3332C233.41 27.2607 233.405 27.1868 233.385 27.1164C233.365 27.0459 233.33 26.9806 233.283 26.9246C233.237 26.8744 233.181 26.834 233.119 26.8056C233.056 26.7772 232.989 26.7613 232.921 26.759ZM170.733 10.2969C173.149 10.2969 175.282 10.8141 177.077 11.8487C178.869 12.8707 180.318 14.4007 181.241 16.2454C182.206 18.1412 182.695 20.3861 182.695 22.944C182.695 25.5018 182.206 27.7468 181.241 29.6399C180.319 31.4857 178.87 33.016 177.077 34.0367C175.285 35.0712 173.149 35.5885 170.733 35.5885C168.317 35.5885 166.186 35.0712 164.376 34.0367C162.575 33.0207 161.118 31.4896 160.194 29.6399C159.229 27.7468 158.74 25.5044 158.74 22.944C158.74 20.3835 159.229 18.1386 160.194 16.2454C161.119 14.3963 162.575 12.8654 164.376 11.8487C166.178 10.8141 168.317 10.2969 170.733 10.2969ZM170.733 31.6288C171.946 31.6611 173.136 31.2979 174.124 30.5943V30.584C175.224 29.8441 176.085 28.7998 176.601 27.5787C177.219 26.1142 177.521 24.5357 177.486 22.9466C177.521 21.3574 177.22 19.7789 176.601 18.3145C176.085 17.096 175.228 16.053 174.131 15.3117C173.154 14.6075 171.973 14.244 170.769 14.2772C169.525 14.2418 168.302 14.6042 167.278 15.3117C166.171 16.0444 165.308 17.0897 164.797 18.3145C164.191 19.7863 163.896 21.3679 163.931 22.9595C163.896 24.5486 164.197 26.1272 164.815 27.5916C165.331 28.8132 166.194 29.857 167.296 30.5943C168.301 31.2996 169.506 31.6624 170.733 31.6288ZM247.523 10.2969C249.939 10.2969 252.073 10.8141 253.865 11.8487C255.657 12.87 257.107 14.4001 258.029 16.2454C258.994 18.1412 259.482 20.3861 259.482 22.944C259.482 25.5018 258.994 27.7468 258.029 29.6399C257.107 31.4857 255.658 33.016 253.865 34.0367C252.073 35.0712 249.939 35.5885 247.523 35.5885C245.108 35.5885 242.974 35.0712 241.164 34.0367C239.362 33.0207 237.906 31.4896 236.981 29.6399C236.017 27.7468 235.528 25.5044 235.528 22.944C235.528 20.3835 236.017 18.1386 236.981 16.2454C237.907 14.3963 239.363 12.8654 241.164 11.8487C242.969 10.8141 245.108 10.2969 247.523 10.2969ZM247.523 31.6262C248.735 31.66 249.925 31.2967 250.911 30.5917V30.5814C252.013 29.8433 252.875 28.7997 253.392 27.5787C254.01 26.1142 254.311 24.5357 254.276 22.9466C254.311 21.3574 254.01 19.7789 253.392 18.3145C252.873 17.0966 252.015 16.0541 250.919 15.3117C249.942 14.6077 248.761 14.2442 247.557 14.2772C246.313 14.2422 245.09 14.6046 244.065 15.3117C242.96 16.0447 242.097 17.0899 241.588 18.3145C240.981 19.7855 240.686 21.3662 240.721 22.9569C240.686 24.546 240.988 26.1246 241.606 27.589C242.121 28.8104 242.982 29.8543 244.083 30.5917C245.089 31.2971 246.295 31.6598 247.523 31.6262ZM202.904 10.6304H206.952C207.059 10.6304 207.163 10.6732 207.239 10.7493C207.315 10.8255 207.358 10.9287 207.358 11.0364V34.934C207.358 35.0417 207.315 35.145 207.239 35.2211C207.163 35.2973 207.059 35.3401 206.952 35.3401H202.863C202.787 35.34 202.712 35.3202 202.646 35.2826C202.579 35.245 202.524 35.1908 202.485 35.1254L190.244 18.3298V24.6379H190.216V34.9262C190.216 35.0339 190.173 35.1372 190.097 35.2134C190.021 35.2895 189.917 35.3323 189.81 35.3323H185.788C185.68 35.3323 185.577 35.2895 185.501 35.2134C185.425 35.1372 185.382 35.0339 185.382 34.9262V11.0364C185.382 10.9287 185.425 10.8255 185.501 10.7493C185.577 10.6732 185.68 10.6304 185.788 10.6304H190.185C190.261 10.6307 190.336 10.6506 190.403 10.6882C190.469 10.7258 190.525 10.7798 190.565 10.845L202.511 27.532V22.98V20.523V11.0364C202.511 10.9309 202.552 10.8296 202.625 10.7538C202.699 10.678 202.799 10.6337 202.904 10.6304ZM91.6769 13.4912H95.7633C95.8168 13.4909 95.8699 13.5011 95.9195 13.5214C95.969 13.5416 96.0141 13.5715 96.0521 13.6092C96.0901 13.647 96.1202 13.6918 96.1408 13.7413C96.1613 13.7907 96.1719 13.8437 96.1719 13.8973V34.9215C96.1719 35.0291 96.1291 35.1324 96.053 35.2086C95.9768 35.2847 95.8736 35.3275 95.7659 35.3275H92.2226C92.1151 35.3268 92.0122 35.2838 91.9362 35.2078C91.8602 35.1318 91.8172 35.0289 91.8166 34.9215V32.3662C90.9229 33.4138 89.8279 34.2714 88.5966 34.8878C87.2533 35.5792 85.7623 35.9342 84.2516 35.9224C81.4454 35.9224 79.216 35.0973 77.6306 33.4628C76.0452 31.8282 75.2408 29.6531 75.2408 26.997V13.8973C75.2408 13.7896 75.2836 13.6863 75.3598 13.6101C75.4359 13.534 75.5392 13.4912 75.6469 13.4912H79.7359C79.7891 13.4912 79.8417 13.5017 79.8909 13.5222C79.94 13.5426 79.9846 13.5726 80.0221 13.6103C80.0596 13.648 80.0892 13.6928 80.1094 13.7421C80.1295 13.7913 80.1397 13.8441 80.1393 13.8973V26.3582C80.1393 28.1013 80.5816 29.41 81.4506 30.2713C82.3196 31.1325 83.5998 31.5644 85.2525 31.5644C86.4768 31.5771 87.6758 31.2162 88.6897 30.5299C89.4375 30.0238 90.1097 29.4143 90.6863 28.7195C91.0705 28.25 91.2774 27.6604 91.2708 27.0539V13.8973C91.2708 13.7896 91.3136 13.6863 91.3898 13.6101C91.4659 13.534 91.5692 13.4912 91.6769 13.4912ZM116.759 14.037C115.314 13.2571 113.691 12.865 112.049 12.899C110.539 12.889 109.048 13.2439 107.704 13.9335C106.476 14.5499 105.383 15.4055 104.49 16.45V13.8947C104.489 13.7875 104.446 13.6849 104.37 13.6093C104.294 13.5337 104.191 13.4913 104.084 13.4913H100.491C100.385 13.4926 100.284 13.5357 100.209 13.6113C100.135 13.6868 100.093 13.7886 100.093 13.8947V34.9215C100.093 35.0288 100.135 35.1316 100.211 35.2077C100.286 35.2838 100.389 35.3269 100.496 35.3276H104.585C104.693 35.3276 104.796 35.2848 104.872 35.2086C104.949 35.1325 104.991 35.0292 104.991 34.9215V21.7882C104.993 21.1389 105.23 20.5124 105.659 20.0243C106.234 19.3664 106.892 18.7857 107.616 18.2967C108.631 17.6093 109.831 17.2483 111.056 17.2621C112.556 17.2621 113.787 17.7096 114.719 18.5967C115.65 19.4838 116.128 20.7744 116.128 22.4529V34.9189C116.129 35.0264 116.172 35.1293 116.248 35.2053C116.324 35.2813 116.427 35.3243 116.534 35.325H120.623C120.73 35.3243 120.833 35.2812 120.909 35.2051C120.984 35.1291 121.027 35.0262 121.027 34.9189V21.8192C121.054 20.2106 120.67 18.6217 119.912 17.2026C119.182 15.87 118.089 14.7722 116.759 14.037ZM125.338 13.4912H129.424C129.649 13.4912 129.83 13.673 129.83 13.8973V34.9214C129.83 35.1457 129.649 35.3275 129.424 35.3275H125.338C125.114 35.3275 124.932 35.1457 124.932 34.9214V13.8973C124.932 13.673 125.114 13.4912 125.338 13.4912ZM149.453 17.7972H142.508C142.36 17.7985 142.218 17.8586 142.114 17.9643C142.01 18.07 141.952 18.2126 141.952 18.361V27.7674C141.952 29.1615 142.216 29.9632 142.865 30.5348C142.873 30.5426 143.665 31.2641 146.065 31.2641H149.435C149.488 31.2641 149.541 31.2746 149.59 31.295C149.639 31.3155 149.684 31.3454 149.722 31.3831C149.759 31.4208 149.789 31.4655 149.81 31.5148C149.83 31.5641 149.841 31.6169 149.841 31.6702V35.4591C149.841 35.5125 149.83 35.5653 149.81 35.6145C149.789 35.6638 149.759 35.7086 149.722 35.7463C149.684 35.784 149.639 35.8139 149.59 35.8343C149.541 35.8547 149.488 35.8652 149.435 35.8652H144.598C142.374 35.8652 140.538 35.2807 139.167 34.091C137.796 32.9013 137.098 31.0779 137.098 28.6597V18.3144C137.091 18.1922 137.044 18.0755 136.965 17.9822C136.885 17.8889 136.778 17.8239 136.658 17.7972H133.599C133.492 17.7952 133.391 17.7519 133.316 17.6766C133.242 17.6013 133.199 17.4999 133.198 17.3937V13.8944C133.198 13.7876 133.24 13.6851 133.315 13.6091C133.39 13.5331 133.492 13.4897 133.599 13.4884H136.526C136.671 13.4879 136.811 13.4318 136.915 13.3318C137.02 13.2317 137.083 13.0952 137.09 12.9504V10.7391C137.09 10.6857 137.1 10.6327 137.12 10.5834C137.141 10.5341 137.171 10.4894 137.209 10.452L141.246 6.39152C141.303 6.33401 141.375 6.29462 141.454 6.27836C141.533 6.26211 141.615 6.26972 141.69 6.30023C141.764 6.33074 141.828 6.38277 141.873 6.44969C141.918 6.51662 141.942 6.5954 141.942 6.67601V12.9246C141.943 13.0746 142.003 13.2182 142.109 13.3243C142.215 13.4304 142.358 13.4903 142.508 13.491H149.453C149.56 13.491 149.663 13.5334 149.739 13.609C149.815 13.6846 149.858 13.7872 149.859 13.8944V17.3911C149.858 17.4986 149.815 17.6015 149.739 17.6775C149.663 17.7535 149.56 17.7965 149.453 17.7972Z" fill="white"/>
<path fill-rule="evenodd" clip-rule="evenodd" d="M337.432 34.8749C339.166 35.5101 341.003 35.8162 342.85 35.7776C344.981 35.7776 346.828 35.462 348.333 34.8284C349.74 34.2957 350.968 33.3769 351.876 32.1774C352.705 31.0265 353.141 29.6386 353.118 28.2203C353.139 27.2063 352.905 26.2032 352.437 25.303C351.987 24.4739 351.363 23.7515 350.609 23.1848C349.829 22.5956 348.972 22.1162 348.061 21.7597C347.121 21.387 346.151 21.0921 345.162 20.8778L342.716 20.3088C342.191 20.1938 341.673 20.0523 341.164 19.8846C340.69 19.7314 340.235 19.5267 339.806 19.2743C339.447 19.0709 339.138 18.7888 338.903 18.4492C338.691 18.1228 338.582 17.7394 338.593 17.35C338.594 16.8423 338.767 16.3499 339.084 15.9534C339.47 15.4967 339.971 15.1512 340.535 14.9525C341.298 14.6769 342.106 14.5453 342.917 14.5646C344.229 14.5646 345.302 14.8465 346.111 15.3637C346.446 15.5721 346.734 15.8477 346.957 16.1732C347.179 16.4986 347.332 16.8668 347.405 17.2543C347.44 17.4109 347.529 17.5503 347.656 17.6488C347.783 17.7473 347.94 17.7989 348.1 17.7949H352.044C352.193 17.7975 352.338 17.7535 352.46 17.6691C352.582 17.5846 352.675 17.464 352.725 17.3242C352.75 17.2494 352.76 17.1701 352.753 17.0914C352.672 15.8343 352.222 14.629 351.46 13.6257C350.558 12.4767 349.37 11.5848 348.015 11.0394C346.42 10.3973 344.712 10.0832 342.992 10.1161C341.263 10.0897 339.546 10.4034 337.939 11.0394C336.54 11.5857 335.308 12.489 334.367 13.6594C333.483 14.7922 333.012 16.1927 333.032 17.6294C333.032 19.4682 333.705 20.9683 335.029 22.0804C336.312 23.1615 338.078 23.9814 340.274 24.4986L343.238 25.2073C344.051 25.3934 344.85 25.6389 345.628 25.9418C346.188 26.145 346.697 26.466 347.123 26.8832C347.451 27.2402 347.628 27.7098 347.619 28.1945C347.62 28.7735 347.413 29.3335 347.035 29.7721C346.583 30.2726 346.01 30.6492 345.372 30.8661C344.549 31.1507 343.682 31.2881 342.811 31.2722C341.951 31.2839 341.096 31.1519 340.279 30.8817C339.603 30.6609 338.997 30.2667 338.521 29.7385C338.131 29.2795 337.882 28.717 337.807 28.1195C337.776 27.957 337.689 27.8107 337.561 27.7065C337.432 27.6023 337.271 27.547 337.106 27.5505H333.079C332.885 27.5505 332.7 27.6267 332.562 27.7626C332.494 27.8295 332.442 27.9105 332.409 28C332.377 28.0894 332.364 28.185 332.373 28.2798C332.461 29.6908 332.948 31.0477 333.777 32.1929C334.718 33.4142 335.985 34.3441 337.432 34.8749ZM305.54 25.7733L304.834 24.6482L304.753 24.5318C304.888 24.4749 305.009 24.4206 305.118 24.3689C306.444 23.7625 307.587 22.819 308.434 21.6326C309.208 20.5372 309.623 19.2289 309.623 17.8876C309.672 16.5384 309.31 15.2063 308.585 14.0675C307.86 12.9286 306.806 12.0367 305.563 11.5097C304.151 10.8974 302.624 10.5975 301.086 10.6304H291.305C291.194 10.6304 291.088 10.6742 291.01 10.7523C290.932 10.8304 290.888 10.9363 290.888 11.0468V34.9159C290.888 35.0263 290.932 35.1322 291.01 35.2103C291.088 35.2884 291.194 35.3323 291.305 35.3323H295.313C295.424 35.3323 295.53 35.2884 295.608 35.2103C295.686 35.1322 295.73 35.0263 295.73 34.9159V25.9802C295.73 25.8231 295.792 25.6724 295.903 25.5614C296.014 25.4503 296.165 25.3879 296.322 25.3879H299.617C299.69 25.3876 299.762 25.4056 299.826 25.4404C299.89 25.4752 299.945 25.5257 299.984 25.587L306.093 35.1047C306.139 35.1744 306.201 35.2317 306.274 35.2714C306.347 35.3112 306.429 35.3321 306.512 35.3323H310.829C310.922 35.328 311.012 35.2965 311.087 35.2418C311.189 35.1641 311.258 35.0516 311.281 34.926C311.305 34.8004 311.281 34.6706 311.214 34.5616L305.54 25.7733ZM295.73 15.1926C295.73 15.0356 295.792 14.8849 295.903 14.7738C296.014 14.6628 296.165 14.6004 296.322 14.6004H301.05C301.733 14.5857 302.411 14.7217 303.036 14.9987C303.565 15.237 304.009 15.6291 304.311 16.1237C304.616 16.6606 304.769 17.2704 304.753 17.8876C304.773 18.5497 304.589 19.202 304.227 19.7568C303.865 20.3116 303.342 20.7423 302.728 20.9912C302 21.2906 301.217 21.4359 300.429 21.4179H296.322C296.165 21.4172 296.015 21.3546 295.904 21.2437C295.793 21.1328 295.73 20.9825 295.73 20.8256V15.1926ZM329.523 31.3623H319.234C319.156 31.3626 319.079 31.3476 319.007 31.3179C318.935 31.2883 318.87 31.2447 318.815 31.1896C318.76 31.1345 318.716 31.0691 318.686 30.9971C318.657 30.9251 318.642 30.8479 318.642 30.77V25.3232C318.642 25.2456 318.657 25.1687 318.687 25.097C318.717 25.0253 318.761 24.9602 318.816 24.9054C318.871 24.8506 318.936 24.8072 319.008 24.7777C319.08 24.7482 319.157 24.7332 319.234 24.7336H328.892C329.002 24.7329 329.108 24.6884 329.186 24.6099C329.264 24.5314 329.308 24.4253 329.308 24.3146V21.18C329.308 21.0693 329.264 20.9631 329.186 20.8846C329.108 20.8061 329.002 20.7617 328.892 20.761H319.234C319.156 20.7613 319.079 20.7462 319.007 20.7166C318.935 20.687 318.87 20.6433 318.815 20.5883C318.76 20.5332 318.716 20.4678 318.686 20.3958C318.657 20.3238 318.642 20.2466 318.642 20.1687V15.1926C318.642 15.1148 318.657 15.0376 318.686 14.9656C318.716 14.8936 318.76 14.8281 318.815 14.7731C318.87 14.718 318.935 14.6744 319.007 14.6448C319.079 14.6151 319.156 14.6 319.234 14.6004H329.499C329.61 14.6004 329.716 14.5565 329.794 14.4784C329.872 14.4003 329.916 14.2944 329.916 14.184V11.0468C329.916 10.9363 329.872 10.8304 329.794 10.7523C329.716 10.6742 329.61 10.6304 329.499 10.6304H313.86C313.753 10.6357 313.652 10.6819 313.579 10.7594C313.505 10.8369 313.464 10.9398 313.464 11.0468V34.9159C313.464 35.0263 313.508 35.1322 313.586 35.2103C313.664 35.2884 313.77 35.3323 313.881 35.3323H329.533C329.588 35.3323 329.642 35.3215 329.692 35.3006C329.743 35.2797 329.789 35.249 329.827 35.2103C329.866 35.1717 329.897 35.1258 329.918 35.0752C329.939 35.0247 329.949 34.9706 329.949 34.9159V31.7787C329.949 31.7231 329.938 31.6681 329.917 31.6169C329.895 31.5657 329.864 31.5193 329.824 31.4805C329.784 31.4417 329.737 31.4113 329.685 31.391C329.633 31.3707 329.578 31.3609 329.523 31.3623ZM374.525 10.6304H354.869C354.761 10.6304 354.658 10.6732 354.581 10.7493C354.505 10.8255 354.463 10.9287 354.463 11.0364V14.515C354.463 14.6168 354.503 14.7144 354.574 14.7866C354.646 14.8588 354.744 14.8997 354.845 14.9004H361.684C361.841 14.9004 361.991 14.9628 362.102 15.0739C362.213 15.1849 362.276 15.3356 362.276 15.4926V34.9262C362.276 35.0339 362.319 35.1372 362.395 35.2134C362.471 35.2895 362.574 35.3323 362.682 35.3323H366.688C366.798 35.3323 366.904 35.2884 366.982 35.2103C367.061 35.1322 367.104 35.0263 367.104 34.9159L367.177 15.4926C367.177 15.4142 367.192 15.3366 367.223 15.2642C367.253 15.1918 367.297 15.1262 367.353 15.0711C367.409 15.016 367.475 14.9725 367.548 14.9432C367.621 14.9139 367.698 14.8994 367.777 14.9004H374.54C374.642 14.9004 374.74 14.8598 374.813 14.7875C374.885 14.7152 374.925 14.6172 374.925 14.515V11.0364C374.925 10.9296 374.883 10.8271 374.808 10.7511C374.733 10.6751 374.631 10.6317 374.525 10.6304ZM287.288 27.7965C287.385 27.8412 287.472 27.9064 287.542 27.9876C287.607 28.0663 287.655 28.1578 287.683 28.2562C287.711 28.3546 287.719 28.4578 287.705 28.5592C287.496 29.8385 286.985 31.0497 286.215 32.0921C285.358 33.2227 284.224 34.1134 282.922 34.6784C281.494 35.2936 279.952 35.6003 278.396 35.5784C276.545 35.6196 274.714 35.185 273.079 34.3163C271.573 33.4896 270.352 32.2276 269.574 30.6955C268.74 28.9914 268.327 27.112 268.369 25.215C268.369 23.1279 268.78 21.2838 269.593 19.732C270.385 18.1995 271.617 16.9386 273.131 16.1112C274.773 15.2445 276.609 14.8102 278.466 14.8491C280.045 14.8235 281.611 15.1311 283.062 15.7517C284.365 16.3131 285.488 17.2222 286.308 18.3794C287.059 19.4659 287.515 20.7286 287.632 22.0442C287.643 22.1454 287.632 22.2477 287.6 22.3444C287.568 22.4411 287.517 22.53 287.448 22.6054C287.379 22.6821 287.295 22.7434 287.2 22.7853C287.106 22.8272 287.004 22.8487 286.9 22.8486H283.406C283.239 22.8482 283.077 22.7909 282.948 22.686C282.818 22.5811 282.728 22.4349 282.692 22.2718C282.571 21.6911 282.33 21.1423 281.984 20.6605C281.61 20.1516 281.109 19.7488 280.533 19.4915C279.764 19.1719 278.932 19.0343 278.102 19.0894C277.271 19.1446 276.465 19.3911 275.745 19.8096C274.96 20.323 274.339 21.051 273.956 21.9071C273.497 22.9473 273.273 24.0759 273.301 25.2125C273.275 26.3548 273.492 27.4897 273.94 28.541C274.311 29.4044 274.922 30.1438 275.699 30.6722C276.505 31.1831 277.445 31.4424 278.399 31.417C279.092 31.4241 279.779 31.2775 280.408 30.9877C281.008 30.7121 281.538 30.3056 281.96 29.798C282.339 29.3425 282.621 28.8145 282.788 28.2462C282.834 28.0961 282.926 27.9646 283.053 27.8714C283.179 27.7783 283.332 27.7283 283.489 27.7289H286.978C287.085 27.7288 287.191 27.7519 287.288 27.7965Z" fill="#00C9EA"/>
</g>
<defs>
<clipPath id="clip0_9065_87459">
<rect width="375" height="40" fill="white"/>
</clipPath>
</defs>
</svg>
