<svg xmlns="http://www.w3.org/2000/svg" width="852" height="42" fill="currentColor" viewBox="0 0 852 42"><path fill="#00C9EA" d="M20 0C8.954 0 0 8.954 0 20s8.954 20 20 20 20-8.954 20-20S31.046 0 20 0Zm6.01 18.663a7.395 7.395 0 0 0-7.3 7.301h-.003v.093a4.72 4.72 0 1 1-4.72-4.72h.002a7.3 7.3 0 0 0 7.299-7.358v-.036a4.72 4.72 0 1 1 4.72 4.72h.003Z"/><path fill="#fff" fill-rule="evenodd" d="M72.243 30.454H57.835a1.83 1.83 0 0 1-1.814-1.806V3.946a.404.404 0 0 0-.406-.405h-4.44a.404.404 0 0 0-.406.405v26.142a5.217 5.217 0 0 0 5.21 5.21h16.264c.224 0 .405-.18.405-.405v-4.034a.406.406 0 0 0-.405-.405ZM129.138 5.76h-4.077a.405.405 0 0 0-.405.405v4.078c0 .223.181.405.405.405h4.077a.405.405 0 0 0 .405-.405V6.165a.405.405 0 0 0-.405-.405Zm603.097 29.058.028-23.719a.414.414 0 0 0-.41-.425h-5.577a.418.418 0 0 0-.392.276l-7.391 18.475a.153.153 0 0 1-.111.095.151.151 0 0 1-.111-.095L710.88 10.95a.418.418 0 0 0-.392-.276h-5.814a.413.413 0 0 0-.411.353l.005 23.788c0 .24.158.478.411.478h3.68c.211 0 .413-.173.413-.37l-.019-16.461c.019-.168.251-.196.31-.036l6.896 16.596a.413.413 0 0 0 .389.273h4.065c.175 0 .33-.108.39-.273l6.895-16.596c.057-.16.292-.132.31.036l-.018 16.462c0 .204.201.369.413.369h3.419c.253 0 .41-.206.41-.477l.003.002ZM548.261 9.37h-3.355a.547.547 0 0 0-.547.547v3.453c0 .302.245.548.547.548h3.355a.547.547 0 0 0 .547-.548V9.917a.547.547 0 0 0-.547-.547Zm-3.342 6.393h3.347c.302 0 .547.245.547.547v18.454a.547.547 0 0 1-.547.547h-3.347a.547.547 0 0 1-.547-.547V16.31c0-.302.245-.547.547-.547ZM648.405 9.37h-3.355a.547.547 0 0 0-.547.547v3.453c0 .302.245.548.547.548h3.355a.547.547 0 0 0 .547-.548V9.917a.547.547 0 0 0-.547-.547Zm-3.342 6.393h3.347c.302 0 .547.245.547.547v18.454a.547.547 0 0 1-.547.547h-3.347a.547.547 0 0 1-.547-.547V16.31c0-.302.245-.547.547-.547ZM481.548 26.805l4.018.01v.008c.142 0 .279.065.375.173a.52.52 0 0 1 .116.408c-.235 1.582-.798 2.986-1.67 4.178-.957 1.308-2.242 2.328-3.819 3.03-1.572.699-3.404 1.052-5.448 1.052-2.395 0-4.501-.52-6.258-1.545-1.763-1.027-3.141-2.511-4.095-4.41-.955-1.892-1.438-4.148-1.438-6.7 0-2.552.496-4.808 1.471-6.702.981-1.9 2.382-3.383 4.165-4.41 1.783-1.027 3.912-1.546 6.328-1.546 1.972 0 3.76.348 5.308 1.035 1.554.689 2.811 1.685 3.735 2.96.841 1.161 1.375 2.524 1.587 4.044a.516.516 0 0 1-.119.405.492.492 0 0 1-.374.17l-4.057.01a.51.51 0 0 1-.493-.412 5.425 5.425 0 0 0-.885-2.104 4.753 4.753 0 0 0-1.954-1.584c-.813-.37-1.739-.555-2.748-.555-1.437 0-2.364.351-3.425 1.045-1.06.694-1.889 1.703-2.462 3.004-.575 1.308-.867 2.864-.867 4.635 0 1.77.287 3.329.852 4.637.56 1.3 1.365 2.31 2.395 3.004 1.027.692 1.925 1.043 3.337 1.043 1.099 0 2.09-.194 2.939-.573a5.029 5.029 0 0 0 2.059-1.657c.46-.64.777-1.39.937-2.237a.502.502 0 0 1 .49-.416Zm-142.751-11.23c-1.414 0-2.627.126-3.729.348-1.226.247-2.32.619-3.406 1.073a.43.43 0 0 0-.238.534l.199.576.73 2.116a.43.43 0 0 0 .563.258c1.04-.402 2.052-.71 3.169-.885a13.452 13.452 0 0 1 2.108-.163c2.548 0 4.163.932 4.718 2.697a4.995 4.995 0 0 1 .218 1.49l.001.038v.477a19.06 19.06 0 0 0-.211-.062 17.818 17.818 0 0 0-2.06-.493 17.784 17.784 0 0 0-3.084-.253c-4.862 0-8.216 2.06-8.216 6.248v.072c0 3.247 2.304 5.237 5.231 5.812a9.343 9.343 0 0 0 1.819.178c2.975 0 5.019-1.187 6.377-2.712a2.35 2.35 0 0 0 .105-.119v2.07c0 .237.191.428.429.428h3.592a.427.427 0 0 0 .428-.428V23.727c0-2.537-.678-4.594-2.149-5.99-1.396-1.396-3.618-2.168-6.599-2.168l.005.005Zm4.411 11.434v1.244c0 .035-.003.07-.006.105v.002l-.004.053-.001.015c-.02.442-.113.857-.276 1.242-.699 1.67-2.637 2.735-5.03 2.735-2.185 0-3.883-1.066-3.883-2.94v-.074c0-2.02 1.734-3.233 4.673-3.233 1.667 0 3.107.28 4.238.67l.096.034c.064.021.128.043.19.067v.08h.003Zm75.664-11.086a18.68 18.68 0 0 1 3.729-.349l-.005-.005c2.981 0 5.203.772 6.599 2.168 1.471 1.396 2.149 3.453 2.149 5.99v11.148c0 .237-.19.428-.428.428h-3.592a.428.428 0 0 1-.429-.428v-2.07c-.033.041-.069.08-.105.119-1.358 1.525-3.402 2.712-6.377 2.712a9.343 9.343 0 0 1-1.819-.178c-2.927-.575-5.231-2.565-5.231-5.811v-.073c0-4.188 3.354-6.248 8.216-6.248 1.18 0 2.176.096 3.084.253.728.127 1.401.297 2.06.493l.071.021.063.018.077.023v-.494l-.001-.022-.001-.039a4.995 4.995 0 0 0-.217-1.45c-.555-1.765-2.171-2.697-4.718-2.697-.761 0-1.45.06-2.108.163-1.117.175-2.129.483-3.169.885a.431.431 0 0 1-.563-.258l-.73-2.116-.199-.576a.43.43 0 0 1 .238-.534c1.086-.454 2.18-.826 3.406-1.073Zm8.14 12.33v-1.244h-.003v-.08a3.872 3.872 0 0 0-.19-.067l-.058-.02-.038-.014c-1.131-.39-2.571-.67-4.238-.67-2.939 0-4.673 1.212-4.673 3.233v.075c0 1.873 1.698 2.94 3.883 2.94 2.393 0 4.331-1.067 5.03-2.736.163-.385.256-.8.276-1.242l.005-.07v-.001c.003-.035.006-.069.006-.104Zm194.449 6.841.144-.008-.144.019v-.01Zm-8.184.302a9.458 9.458 0 0 0 1.82.178v.003c2.617 0 4.759-.906 6.364-2.692v1.845c0 .248.201.447.446.447h3.67a.446.446 0 0 0 .446-.447V23.683c0-2.625-.725-4.643-2.155-6-1.422-1.422-3.703-2.173-6.601-2.173-1.344 0-2.56.113-3.716.348-1.123.227-2.214.573-3.437 1.09a.445.445 0 0 0-.248.556l.957 2.77a.442.442 0 0 0 .586.268c1.177-.46 2.158-.736 3.179-.896.689-.108 1.371-.16 2.083-.16 2.477 0 4.072.909 4.614 2.627.137.426.207.904.217 1.42v.454l-.116-.034a17.318 17.318 0 0 0-2.054-.492c-.973-.17-1.98-.253-3.074-.253-5.231 0-8.232 2.289-8.232 6.276v.072c0 2.965 2.013 5.203 5.251 5.84Zm-.689-6.098c0-1.964 1.709-3.138 4.568-3.138h.003c1.476 0 2.924.23 4.183.663l.235.083v1.262l-.001.024c-.001.024-.004.048-.004.074a3.575 3.575 0 0 1-.274 1.28c-.691 1.646-2.663 2.67-4.926 2.67-2.264 0-3.784-1.143-3.784-2.846v-.072Zm135.75 5.796.145-.008-.145.019v-.01Zm-8.186.302a9.458 9.458 0 0 0 1.82.178v.003c2.616 0 4.758-.906 6.364-2.692v1.845c0 .248.201.447.446.447h3.67a.447.447 0 0 0 .446-.447V23.683c0-2.625-.725-4.643-2.155-6-1.422-1.422-3.703-2.173-6.601-2.173-1.345 0-2.56.113-3.716.348-1.123.227-2.214.573-3.438 1.09a.445.445 0 0 0-.247.556l.957 2.77a.442.442 0 0 0 .586.268c1.177-.46 2.157-.736 3.179-.896.689-.108 1.371-.16 2.083-.16 2.477 0 4.072.909 4.614 2.627.137.426.206.904.217 1.42v.454l-.116-.034a17.332 17.332 0 0 0-2.055-.492 17.654 17.654 0 0 0-3.073-.253c-5.231 0-8.232 2.289-8.232 6.276v.072c0 2.965 2.013 5.203 5.251 5.84Zm-.689-6.098c0-1.964 1.709-3.138 4.568-3.138h.003c1.476 0 2.923.23 4.183.663l.235.083v1.262l-.001.015v.01l-.001.01-.001.014-.002.02v.015l-.001.014-.003.04-.001.01-.001.01v.012c-.02.423-.111.831-.268 1.208-.692 1.646-2.663 2.67-4.927 2.67-2.263 0-3.783-1.143-3.783-2.846v-.072Zm50.225 5.796.144-.008-.144.019v-.01Zm-8.186.302a9.455 9.455 0 0 0 1.819.178v.003c2.617 0 4.759-.906 6.364-2.692v1.845c0 .248.202.447.447.447h3.669a.447.447 0 0 0 .447-.447V23.683c0-2.625-.725-4.643-2.155-6-1.422-1.422-3.703-2.173-6.601-2.173-1.345 0-2.56.113-3.716.348-1.123.227-2.215.573-3.438 1.09a.444.444 0 0 0-.247.556l.957 2.77a.442.442 0 0 0 .586.268c1.177-.46 2.157-.736 3.179-.896.689-.108 1.37-.16 2.083-.16 2.477 0 4.072.909 4.614 2.627.137.426.206.904.217 1.42v.454l-.117-.034a17.272 17.272 0 0 0-2.054-.492 17.662 17.662 0 0 0-3.073-.253c-5.231 0-8.233 2.289-8.233 6.276v.072c0 2.965 2.013 5.203 5.252 5.84Zm-.689-6.098c0-1.964 1.708-3.138 4.568-3.138h.002c1.477 0 2.924.23 4.184.663l.234.083v1.262l-.002.049c-.001.016-.003.032-.003.049a5.81 5.81 0 0 0-.003.031l-.001.015-.001.026c-.02.423-.111.831-.268 1.208-.692 1.646-2.663 2.67-4.927 2.67-2.263 0-3.783-1.143-3.783-2.846v-.072Zm-406.204 6.343c-5.866 0-10.124-4.196-10.124-9.979v-.072c0-5.709 4.145-10.016 9.639-10.016 6.534 0 9.458 5.193 9.458 10.34 0 .305-.023.607-.047.891a.448.448 0 0 1-.443.41h-13.711a.21.21 0 0 0-.207.245c.555 2.75 2.666 4.455 5.507 4.455 1.936 0 3.435-.607 5.012-2.031a.447.447 0 0 1 .591-.013l2.093 1.812c.09.08.147.193.155.314a.436.436 0 0 1-.114.323c-2.01 2.204-4.64 3.319-7.814 3.319l.005.002Zm-.519-16.34c-2.544 0-4.444 1.778-4.957 4.637a.2.2 0 0 0 .044.165c.041.05.1.078.162.078h9.399a.202.202 0 0 0 .16-.075.206.206 0 0 0 .049-.163c-.418-2.864-2.279-4.645-4.859-4.645l.002.003Zm444.266 6.361c0 5.783 4.258 9.98 10.124 9.98l-.005-.003c3.174 0 5.804-1.115 7.814-3.319a.436.436 0 0 0 .114-.323.464.464 0 0 0-.155-.314l-2.093-1.812a.447.447 0 0 0-.591.013c-1.577 1.424-3.076 2.03-5.012 2.03-2.841 0-4.952-1.705-5.507-4.453a.21.21 0 0 1 .207-.245h13.711a.45.45 0 0 0 .444-.41c.023-.285.046-.587.046-.891 0-5.148-2.924-10.34-9.458-10.34-5.494 0-9.639 4.306-9.639 10.015v.072Zm4.648-1.724c.514-2.86 2.413-4.637 4.957-4.637l-.002-.003c2.58 0 4.441 1.78 4.859 4.645a.206.206 0 0 1-.049.163.202.202 0 0 1-.16.075h-9.399a.212.212 0 0 1-.162-.078.202.202 0 0 1-.044-.165Zm-135.45 11.22a.46.46 0 0 1-.46-.459V23.19c0-.815-.155-1.537-.459-2.146-.305-.607-.73-1.08-1.27-1.407-.539-.325-1.179-.49-1.899-.49-.836 0-1.623.196-2.336.578-.712.384-1.367.998-1.945 1.827-.395.565-.769 1.249-1.118 2.036a.339.339 0 0 0-.028.134v10.973a.46.46 0 0 1-.46.46h-3.375a.46.46 0 0 1-.459-.46V16.382a.46.46 0 0 1 .459-.46h3.391a.46.46 0 0 1 .459.46v2.028c.005.034.026.088.047.088.005 0 .028 0 .067-.034.175-.247.353-.487.575-.704a7.816 7.816 0 0 1 2.532-1.693 7.81 7.81 0 0 1 2.95-.557c1.434 0 2.704.312 3.773.926a6.356 6.356 0 0 1 2.485 2.607c.578 1.112.872 2.428.872 3.907v11.752a.46.46 0 0 1-.459.46h-3.34l-.002-.003Zm82.193-.459c0 .253.207.46.459.46l.003.002h3.339a.46.46 0 0 0 .46-.46V22.95c0-1.48-.294-2.795-.873-3.907a6.343 6.343 0 0 0-2.485-2.607c-1.068-.614-2.338-.926-3.773-.926-1.04 0-2.033.185-2.949.557-.914.372-1.765.94-2.532 1.693-.222.217-.4.457-.575.704-.039.034-.062.034-.067.034-.021 0-.042-.054-.047-.088v-2.028a.46.46 0 0 0-.459-.46h-3.391a.46.46 0 0 0-.46.46v18.312c0 .253.207.46.46.46h3.375a.46.46 0 0 0 .46-.46V23.721c0-.046.01-.093.028-.134a12.25 12.25 0 0 1 1.117-2.036c.579-.828 1.234-1.443 1.946-1.827a4.894 4.894 0 0 1 2.336-.578c.72 0 1.36.165 1.899.49.539.328.965.8 1.27 1.407.304.609.459 1.331.459 2.147V34.7Zm-188.614.875c-1.435 0-2.705-.312-3.773-.926a6.332 6.332 0 0 1-2.483-2.607c-.578-1.112-.872-2.428-.872-3.907V16.382a.46.46 0 0 1 .459-.46h3.34a.46.46 0 0 1 .459.46v11.51c0 .815.155 1.538.46 2.147.304.606.73 1.081 1.269 1.406.54.325 1.18.49 1.9.49a4.89 4.89 0 0 0 2.335-.578c.712-.384 1.368-.998 1.946-1.827a12.14 12.14 0 0 0 1.117-2.036.34.34 0 0 0 .029-.134V16.382a.46.46 0 0 1 .459-.46h3.376a.46.46 0 0 1 .459.46v18.317a.46.46 0 0 1-.459.46h-3.391a.46.46 0 0 1-.46-.46v-2.028c-.005-.034-.026-.088-.046-.088-.005 0-.029 0-.067.034a5.013 5.013 0 0 1-.576.704 7.812 7.812 0 0 1-2.531 1.693 7.81 7.81 0 0 1-2.95.56Zm-24.723 5.391c1.293.485 2.826.73 4.558.73l.005.008c1.961 0 3.688-.359 5.133-1.063 1.448-.71 2.57-1.742 3.334-3.074.764-1.331 1.151-2.931 1.151-4.756V16.353a.46.46 0 0 0-.459-.459h-3.376a.458.458 0 0 0-.459.444v1.566c.005.057-.005.101-.028.127a.054.054 0 0 1-.037.015c-.031 0-.067-.025-.098-.07-1.535-2.115-3.922-2.37-4.191-2.394-.464-.047-.918-.07-1.354-.07-1.758 0-3.319.387-4.638 1.151-1.319.767-2.353 1.863-3.071 3.265-.717 1.401-1.081 3.094-1.081 4.962 0 1.869.351 3.52 1.045 4.909.697 1.388 1.701 2.474 2.986 3.228 1.285.751 2.805 1.133 4.516 1.133 1.228 0 2.397-.26 3.474-.77a6.708 6.708 0 0 0 2.258-1.713l.015.05.083-.148c.01-.023.046-.067.095-.067 0 0 .018.018.018.1v1.678c0 1.518-.451 2.72-1.344 3.58-.891.856-2.16 1.293-3.771 1.293-1.339 0-2.428-.246-3.231-.733-.696-.421-1.135-.981-1.308-1.665a.468.468 0 0 0-.449-.369h-3.517a.464.464 0 0 0-.462.498 5.566 5.566 0 0 0 1.145 2.921c.731.94 1.76 1.662 3.058 2.15Zm2.088-21.399c.78-.485 1.716-.732 2.78-.732v.005a5.19 5.19 0 0 1 2.165.459 5.08 5.08 0 0 1 1.739 1.314c.428.5.772 1.089 1.017 1.75.057.16.088.337.088.526v3.896c0 .189-.029.367-.088.524a5.702 5.702 0 0 1-1.017 1.75 5.049 5.049 0 0 1-1.739 1.314 5.173 5.173 0 0 1-2.165.459c-1.064 0-2-.248-2.78-.733-.779-.485-1.393-1.187-1.822-2.08-.431-.896-.65-1.997-.65-3.203 0-1.205.219-2.27.65-3.169.429-.893 1.043-1.592 1.822-2.08Zm248.072 22.13c-1.731 0-3.264-.246-4.557-.73-1.298-.489-2.328-1.211-3.058-2.15a5.576 5.576 0 0 1-1.146-2.922.466.466 0 0 1 .462-.498h3.517c.212 0 .393.147.449.37.173.683.612 1.243 1.309 1.664.802.487 1.892.733 3.231.733 1.61 0 2.88-.437 3.77-1.293.893-.86 1.345-2.062 1.345-3.58v-1.677c0-.083-.018-.1-.018-.1-.049 0-.086.043-.096.066l-.082.147-.016-.049a6.698 6.698 0 0 1-2.258 1.714 8.07 8.07 0 0 1-3.474.769c-1.71 0-3.23-.382-4.516-1.133-1.285-.754-2.289-1.84-2.985-3.228-.695-1.389-1.046-3.04-1.046-4.909 0-1.868.364-3.561 1.082-4.962.717-1.402 1.752-2.498 3.071-3.265 1.318-.764 2.88-1.15 4.637-1.15.436 0 .89.022 1.355.069.268.023 2.655.279 4.191 2.395.031.044.067.07.098.07a.05.05 0 0 0 .036-.016c.023-.026.034-.07.028-.127v-1.566a.46.46 0 0 1 .46-.444h3.375a.46.46 0 0 1 .46.46V32.81c0 1.825-.387 3.425-1.151 4.756-.764 1.332-1.887 2.364-3.335 3.074-1.445.704-3.171 1.063-5.132 1.063l-.006-.008Zm.31-22.862c-1.063 0-2 .247-2.779.732-.78.488-1.394 1.188-1.822 2.08-.431.898-.651 1.964-.651 3.17 0 1.205.22 2.306.651 3.202.428.893 1.042 1.595 1.822 2.08.779.485 1.716.733 2.779.733a5.053 5.053 0 0 0 3.905-1.773 5.7 5.7 0 0 0 1.016-1.75c.06-.157.088-.335.088-.523v-3.897a1.57 1.57 0 0 0-.088-.527 5.762 5.762 0 0 0-1.016-1.75 5.084 5.084 0 0 0-1.74-1.313 5.18 5.18 0 0 0-2.165-.46v-.005ZM355.435 34.371c.882.52 1.966.787 3.218.787l.003-.005h4.005a.46.46 0 0 0 .459-.46v-2.578a.46.46 0 0 0-.459-.46h-2.553c-.792 0-1.422-.102-1.871-.304-.441-.198-.756-.495-.931-.88-.181-.39-.271-.921-.271-1.577v-9.158c0-.173.142-.315.315-.315h5.316a.46.46 0 0 0 .459-.46v-2.578a.46.46 0 0 0-.459-.459h-5.316a.316.316 0 0 1-.315-.315v-4.482a.461.461 0 0 0-.459-.462.468.468 0 0 0-.222.06l-3.36 2.895a.46.46 0 0 0-.256.412v1.577a.316.316 0 0 1-.315.315h-2.684a.46.46 0 0 0-.459.46v2.577c0 .253.206.46.459.46h2.684c.173 0 .315.142.315.315v9.158c0 1.252.23 2.357.681 3.283a5.087 5.087 0 0 0 2.016 2.194Zm281.592.787c-1.251 0-2.335-.266-3.218-.787a5.078 5.078 0 0 1-2.015-2.194c-.452-.926-.682-2.03-.682-3.283v-9.158a.316.316 0 0 0-.314-.315h-2.684a.46.46 0 0 1-.46-.46v-2.578a.46.46 0 0 1 .46-.459h2.684a.316.316 0 0 0 .314-.315v-1.576a.46.46 0 0 1 .256-.413l3.36-2.896a.47.47 0 0 1 .222-.06.46.46 0 0 1 .459.463v4.482c0 .173.142.315.315.315h5.316a.46.46 0 0 1 .46.46v2.577a.46.46 0 0 1-.46.46h-5.316a.316.316 0 0 0-.315.315v9.158c0 .656.091 1.188.271 1.577.176.385.49.681.932.88.449.201 1.078.305 1.871.305h2.552a.46.46 0 0 1 .459.46v2.577a.46.46 0 0 1-.459.46h-4.005l-.003.005Zm-204.196 6.113c0 .253.206.46.459.46v.007h3.002c1.109 0 2.085-.165 2.898-.49.813-.325 1.556-.862 2.206-1.592.645-.728 1.244-1.752 1.776-3.045l8.387-20.042a.462.462 0 0 0-.426-.64h-3.445a.458.458 0 0 0-.426.284l-4.89 11.827a.156.156 0 0 1-.147.098.159.159 0 0 1-.148-.098l-4.89-11.827a.458.458 0 0 0-.426-.284h-3.484a.458.458 0 0 0-.425.635l7.083 17.128a.295.295 0 0 1 0 .24l-.353.854c-.341.795-.681 1.456-1.014 1.959-.328.495-.71.87-1.136 1.117-.426.248-.926.372-1.486.372h-2.656a.46.46 0 0 0-.459.46v2.577Zm64.746-5.698c-1.964 0-3.696-.405-5.154-1.202a8.137 8.137 0 0 1-3.367-3.471c-.775-1.502-1.167-3.306-1.167-5.36 0-2.055.392-3.858 1.167-5.36.776-1.505 1.909-2.674 3.367-3.471 1.458-.798 3.193-1.203 5.154-1.203 1.961 0 3.698.405 5.153 1.203 1.459.797 2.591 1.966 3.368 3.47.774 1.503 1.167 3.306 1.167 5.36 0 2.055-.393 3.859-1.167 5.36-.777 1.505-1.909 2.674-3.368 3.472-1.455.797-3.189 1.202-5.153 1.202Zm-.001-16.531c-1.109 0-2.085.263-2.9.784s-1.445 1.277-1.873 2.25c-.434.978-.653 2.142-.653 3.464 0 1.32.219 2.487.65 3.463.429.973 1.061 1.731 1.874 2.25.813.521 1.791.785 2.9.785 1.11 0 2.08-.264 2.883-.785.802-.519 1.427-1.277 1.858-2.25.434-.978.65-2.145.65-3.463 0-1.32-.219-2.486-.65-3.464-.431-.973-1.056-1.731-1.858-2.25-.802-.521-1.772-.784-2.881-.784Zm34.303 15.656c0 .253.206.46.459.46v-.003h3.339a.46.46 0 0 0 .46-.46V20.78c0-.172.142-.314.315-.314h3.027a.46.46 0 0 0 .459-.46v-2.578a.46.46 0 0 0-.459-.46h-3.027a.316.316 0 0 1-.315-.314v-1.721c0-.7.108-1.252.32-1.642.209-.387.539-.67.983-.849.452-.18 1.058-.27 1.806-.27h2.829a.46.46 0 0 0 .459-.46V9.133a.46.46 0 0 0-.459-.46h-4.245c-1.229 0-2.307.264-3.2.788a5.171 5.171 0 0 0-2.052 2.19c-.464.927-.699 2.055-.699 3.353v1.652a.316.316 0 0 1-.315.314h-2.684a.46.46 0 0 0-.459.46v2.578c0 .253.206.46.459.46h2.684c.173 0 .315.141.315.314v13.917Zm129.538.875c-1.964 0-3.696-.405-5.154-1.202a8.145 8.145 0 0 1-3.368-3.471c-.774-1.502-1.166-3.306-1.166-5.36 0-2.055.392-3.858 1.166-5.36.777-1.505 1.91-2.674 3.368-3.471 1.458-.798 3.192-1.203 5.154-1.203 1.961 0 3.698.405 5.153 1.203 1.458.797 2.591 1.966 3.368 3.47.774 1.505 1.166 3.306 1.166 5.36 0 2.055-.392 3.856-1.166 5.36-.777 1.505-1.91 2.674-3.368 3.472-1.455.797-3.189 1.202-5.153 1.202Zm-.003-16.531c-1.109 0-2.083.263-2.898.784s-1.445 1.277-1.873 2.25c-.434.978-.653 2.142-.653 3.464 0 1.32.219 2.487.65 3.463.428.973 1.061 1.731 1.874 2.25.812.521 1.791.785 2.9.785 1.11 0 2.08-.264 2.883-.785.802-.519 1.427-1.277 1.858-2.25.433-.978.65-2.145.65-3.463 0-1.32-.219-2.486-.65-3.464-.431-.973-1.056-1.731-1.858-2.25-.803-.521-1.773-.784-2.883-.784ZM402.39 34.893a.673.673 0 0 0 .645.485h3.853a.67.67 0 0 0 .645-.485l5.171-18.065a.666.666 0 0 0-.642-.854h-3.058a.67.67 0 0 0-.645.488l-3.577 12.614-3.727-12.622a.674.674 0 0 0-.642-.48h-3.28a.67.67 0 0 0-.645.485l-3.608 12.58-3.592-12.58a.675.675 0 0 0-.645-.487h-3.262a.661.661 0 0 0-.537.268.66.66 0 0 0-.109.588l5.203 18.065a.674.674 0 0 0 .645.485h3.822a.673.673 0 0 0 .645-.485l3.67-12.74 3.67 12.74Zm120.882.266a.46.46 0 0 1-.459-.46V23.19c0-.815-.155-1.537-.459-2.146a3.387 3.387 0 0 0-1.27-1.407c-.539-.325-1.179-.49-1.899-.49-.836 0-1.624.196-2.336.578-.712.384-1.368.998-1.946 1.827a12.172 12.172 0 0 0-1.117 2.036.349.349 0 0 0-.028.134v10.973a.46.46 0 0 1-.46.46h-3.375a.46.46 0 0 1-.46-.46V16.382a.46.46 0 0 1 .46-.46h3.391a.46.46 0 0 1 .459.46v2.028c.005.034.026.088.047.088.005 0 .025 0 .067-.034.175-.247.353-.487.575-.704a7.816 7.816 0 0 1 2.532-1.693 7.805 7.805 0 0 1 2.949-.557c1.435 0 2.705.312 3.773.926a6.326 6.326 0 0 1 2.483 2.607c.578 1.112.872 2.428.872 3.907v11.752a.46.46 0 0 1-.459.46h-3.34v-.003Zm72.253-.447c0 .248.201.447.447.447l-.003.002h3.615a.447.447 0 0 0 .447-.446v-7.92c.294-3.822 2.374-6.178 5.703-6.462a8.97 8.97 0 0 1 .705-.028.4.4 0 0 0 .227-.08c.106-.09.098-.25.098-.25v-4.011a.45.45 0 0 0-.457-.447 9.238 9.238 0 0 0-.542.026c-2.539.194-4.513 1.675-5.731 4.292V16.31a.447.447 0 0 0-.447-.447h-3.615a.447.447 0 0 0-.447.447v18.402Zm244.772.447a.447.447 0 0 1-.447-.447V16.31c0-.245.199-.447.447-.447h3.615c.245 0 .447.199.447.447v3.525c1.218-2.617 3.192-4.098 5.731-4.292.178-.013.359-.023.542-.025a.45.45 0 0 1 .457.446v4.01s.008.16-.098.25a.4.4 0 0 1-.227.08c-.24 0-.478.01-.705.029-3.329.284-5.409 2.64-5.703 6.462v7.92a.447.447 0 0 1-.446.446h-3.616l.003-.002ZM91.471 13.509h4.075c.224 0 .405.184.405.406v20.98a.406.406 0 0 1-.405.406H92.01a.404.404 0 0 1-.405-.406v-2.55c-.839 1.007-1.917 1.854-3.21 2.522-1.309.679-2.77 1.022-4.336 1.022-2.8 0-5.024-.826-6.606-2.454-1.582-1.629-2.385-3.799-2.385-6.45v-13.07c0-.225.181-.405.406-.405h4.08c.224 0 .405.183.405.405v12.441c0 1.74.441 3.053 1.308 3.905.867.851 2.142 1.285 3.791 1.285 1.26 0 2.413-.351 3.432-1.04a9.531 9.531 0 0 0 1.993-1.799c.376-.449.583-1.04.583-1.662v-13.13c0-.225.183-.405.405-.405Zm25.03.545c-1.342-.753-2.924-1.135-4.7-1.135-1.566 0-3.024.343-4.335 1.022-1.293.668-2.372 1.517-3.21 2.52v-2.549a.406.406 0 0 0-.406-.405h-3.582a.404.404 0 0 0-.405.405V34.89c0 .222.181.405.405.405h4.08c.225 0 .406-.18.406-.405V21.786c0-.645.237-1.27.665-1.76a10.043 10.043 0 0 1 1.954-1.724 6.017 6.017 0 0 1 3.432-1.04c1.497 0 2.728.449 3.657 1.331.926.883 1.399 2.184 1.399 3.859V34.89c0 .222.18.405.405.405h4.08c.224 0 .405-.18.405-.405V21.82c0-1.717-.374-3.268-1.112-4.61a7.996 7.996 0 0 0-3.133-3.156h-.005Zm12.64-.544h-4.08v-.003a.404.404 0 0 0-.405.405v20.98c0 .225.18.406.405.406h4.08c.224 0 .405-.18.405-.405V13.915a.404.404 0 0 0-.405-.405Zm13.063 0h6.913l-.002-.008c.224 0 .405.183.405.405v3.49a.404.404 0 0 1-.405.404h-6.929a.566.566 0 0 0-.55.56v9.389c0 1.39.263 2.19.911 2.761.008.008.8.728 3.192.728h3.376c.224 0 .405.18.405.405v3.788a.404.404 0 0 1-.405.405h-4.826c-2.23 0-4.057-.593-5.427-1.77-1.37-1.174-2.067-2.993-2.067-5.406V18.328a.569.569 0 0 0-.442-.519h-3.05a.404.404 0 0 1-.405-.405v-3.49c0-.224.183-.404.405-.404h2.929c.3 0 .547-.238.563-.537v-2.207c0-.108.044-.209.118-.286l4.031-4.052a.407.407 0 0 1 .695.284v6.232c0 .313.255.566.565.566Zm70.591 9.889a10.72 10.72 0 0 0-2.506-1.402 17.892 17.892 0 0 0-2.875-.872l-2.446-.568a16.237 16.237 0 0 1-1.569-.43 7.173 7.173 0 0 1-1.394-.625 2.944 2.944 0 0 1-.96-.88c-.227-.335-.343-.74-.343-1.205a2.433 2.433 0 0 1 .532-1.507c.348-.442.862-.798 1.527-1.058.674-.264 1.5-.398 2.449-.398 1.35 0 2.457.279 3.293.829a3.032 3.032 0 0 1 1.36 2.007c.047.23.264.395.519.395l3.946-.008a.536.536 0 0 0 .511-.353.395.395 0 0 0 .018-.158 6.251 6.251 0 0 0-1.254-3.37c-.816-1.076-1.951-1.93-3.373-2.537-1.417-.604-3.084-.91-4.955-.91s-3.52.306-4.983.91c-1.469.607-2.648 1.471-3.502 2.566-.86 1.102-1.293 2.402-1.293 3.863 0 1.783.65 3.236 1.933 4.315 1.262 1.06 3.001 1.86 5.171 2.379l2.966.71c.918.219 1.731.467 2.418.74.668.266 1.192.599 1.558.989.354.376.537.859.547 1.434a2.595 2.595 0 0 1-.627 1.696c-.415.488-1.001.872-1.739 1.146-.748.276-1.631.418-2.625.418-.993 0-1.824-.134-2.591-.403-.753-.263-1.372-.663-1.837-1.195-.397-.451-.653-1.03-.756-1.71-.036-.238-.261-.416-.521-.416l-4.029.008a.542.542 0 0 0-.389.16.454.454 0 0 0-.137.364c.124 1.486.586 2.774 1.368 3.822.854 1.145 2.056 2.028 3.576 2.624 1.507.591 3.311.89 5.355.89 2.044 0 3.93-.31 5.422-.92 1.502-.615 2.668-1.487 3.468-2.59.8-1.104 1.208-2.4 1.208-3.852 0-1.074-.222-2.029-.658-2.831a6.447 6.447 0 0 0-1.778-2.062l-.005-.005Zm26.377-1.337h9.497v.005c.229 0 .415.186.415.416v2.655c0 2.147-.465 4.031-1.381 5.603a9.438 9.438 0 0 1-3.796 3.641c-1.602.846-3.466 1.275-5.54 1.275-2.313 0-4.369-.53-6.114-1.572s-3.125-2.544-4.101-4.47c-.975-1.922-1.471-3.948-1.471-6.59 0-2.024.292-3.564.867-5.157.576-1.594 1.394-2.967 2.431-4.082a10.51 10.51 0 0 1 3.673-2.563c1.398-.583 2.939-.88 4.58-.88 1.389 0 2.702.204 3.902.61 1.2.405 2.284.988 3.221 1.73a9.659 9.659 0 0 1 2.323 2.662 9.41 9.41 0 0 1 1.153 3.15.274.274 0 0 1-.059.22.274.274 0 0 1-.209.098h-4.225a.271.271 0 0 1-.258-.188 6.615 6.615 0 0 0-.784-1.621 5.636 5.636 0 0 0-1.262-1.34 5.265 5.265 0 0 0-1.678-.84 7.102 7.102 0 0 0-2.064-.287c-1.329 0-2.529.338-3.569 1.006-1.038.669-1.866 1.662-2.46 2.958-.593 1.298-.895 2.59-.895 4.47 0 1.878.299 3.2.89 4.5.589 1.298 1.417 2.297 2.465 2.97 1.047.674 2.281 1.015 3.669 1.015 1.26 0 2.364-.246 3.288-.728a5.143 5.143 0 0 0 2.139-2.065c.369-.658.604-1.42.7-2.258h-5.347a.386.386 0 0 1-.385-.384v-3.575c0-.211.173-.384.385-.384Zm87.762 0h-9.497a.385.385 0 0 0-.384.384v3.575c0 .211.173.384.384.384h5.347c-.095.839-.33 1.6-.699 2.258a5.143 5.143 0 0 1-2.139 2.065c-.924.482-2.029.727-3.288.727-1.388 0-2.622-.34-3.67-1.014-1.047-.673-1.876-1.672-2.464-2.97-.591-1.3-.891-2.622-.891-4.5 0-1.88.302-3.172.896-4.47.593-1.296 1.422-2.29 2.459-2.958 1.04-.668 2.24-1.006 3.569-1.006.741 0 1.438.095 2.065.286a5.25 5.25 0 0 1 1.677.842c.488.369.911.82 1.262 1.339a6.58 6.58 0 0 1 .785 1.62.271.271 0 0 0 .258.189h4.224a.273.273 0 0 0 .269-.317 9.411 9.411 0 0 0-1.154-3.151 9.672 9.672 0 0 0-2.322-2.661 10.634 10.634 0 0 0-3.221-1.732c-1.2-.405-2.514-.609-3.902-.609-1.641 0-3.182.297-4.581.88a10.515 10.515 0 0 0-3.672 2.563c-1.037 1.115-1.855 2.488-2.431 4.082-.575 1.593-.867 3.133-.867 5.157 0 2.642.495 4.668 1.471 6.59.975 1.926 2.356 3.428 4.101 4.47 1.744 1.043 3.801 1.572 6.113 1.572 2.075 0 3.938-.429 5.541-1.275a9.444 9.444 0 0 0 3.796-3.641c.916-1.572 1.381-3.456 1.381-5.603v-2.655a.415.415 0 0 0-.416-.416v-.005ZM187.092 10.648h4.041c.224 0 .405.18.405.405v23.835a.404.404 0 0 1-.405.405h-4.08a.447.447 0 0 1-.38-.214L174.454 18.33v6.295h-.028V34.89a.404.404 0 0 1-.405.405h-4.013a.404.404 0 0 1-.405-.405V11.053c0-.225.18-.405.405-.405h4.392c.155 0 .299.082.379.214l11.913 16.648v-4.54l-.006-2.451v-9.466c0-.225.181-.405.406-.405Zm86.815 0h-4.018a.404.404 0 0 0-.405.405v8.65a.59.59 0 0 1-.591.591h-11.087a.593.593 0 0 1-.591-.59v-8.651a.404.404 0 0 0-.405-.405h-4.023a.404.404 0 0 0-.405.405V34.89c0 .225.18.405.405.405h4.023c.225 0 .405-.18.405-.405v-9.757c0-.325.266-.591.591-.591h11.084a.59.59 0 0 1 .591.59v9.758c0 .225.181.405.405.405h4.021c.225 0 .405-.18.405-.405V11.053a.404.404 0 0 0-.405-.405Zm3.706.013h19.613l-.003.002c.225 0 .405.18.405.405v3.471a.385.385 0 0 1-.384.385h-6.749a.59.59 0 0 0-.59.588l-.07 19.38c0 .23-.186.416-.416.416h-3.997a.404.404 0 0 1-.405-.405l-.011-19.39a.59.59 0 0 0-.591-.592h-6.823a.385.385 0 0 1-.384-.384v-3.471c0-.225.18-.405.405-.405Zm-116.834 0h4.044c.225 0 .405.18.405.405v23.837c0 .225-.18.405-.405.405h-4.044a.404.404 0 0 1-.405-.405V11.066c0-.225.181-.405.405-.405Zm62.202 0h-4.044a.404.404 0 0 0-.405.405v23.837c0 .225.18.405.405.405h4.044c.224 0 .405-.18.405-.405V11.066a.404.404 0 0 0-.405-.405Z" clip-rule="evenodd"/></svg>