<svg xmlns="http://www.w3.org/2000/svg" width="284" height="40" fill="currentColor" viewBox="0 0 284 40"><g clip-path="url(#a)"><path fill="#00C9EA" d="M20 0a20 20 0 1 0 0 40 20 20 0 0 0 0-40Zm6.01 18.662a7.39 7.39 0 0 0-7.3 7.3v.095a4.724 4.724 0 1 1-4.724-4.724 7.3 7.3 0 0 0 7.299-7.358v-.037a4.72 4.72 0 1 1 4.719 4.724h.005Z"/><path fill="#fff" fill-rule="evenodd" d="M71.525 30.52H57.08a1.834 1.834 0 0 1-1.818-1.813V3.951a.405.405 0 0 0-.406-.405h-4.452A.405.405 0 0 0 50 3.95v26.201a5.23 5.23 0 0 0 5.225 5.22h16.3a.405.405 0 0 0 .405-.405v-4.042a.405.405 0 0 0-.405-.405ZM128.55 5.774h-4.09a.406.406 0 0 0-.405.406v4.09c0 .223.182.405.405.405h4.09a.405.405 0 0 0 .405-.406V6.18a.405.405 0 0 0-.405-.405Zm71.192 21.03h4.015a.534.534 0 0 1 .368.122.532.532 0 0 1 .117.405 9.107 9.107 0 0 1-5.492 7.21 13.419 13.419 0 0 1-5.444 1.065 12.26 12.26 0 0 1-6.254-1.546 10.37 10.37 0 0 1-4.095-4.41 14.748 14.748 0 0 1-1.434-6.696 14.43 14.43 0 0 1 1.471-6.697 10.548 10.548 0 0 1 4.159-4.41 12.553 12.553 0 0 1 6.329-1.546c1.824-.02 3.631.343 5.305 1.067a9.008 9.008 0 0 1 3.733 2.959 8.887 8.887 0 0 1 1.599 4.041.523.523 0 0 1-.291.531.493.493 0 0 1-.205.045h-4.052a.534.534 0 0 1-.496-.41 5.366 5.366 0 0 0-.885-2.101 4.74 4.74 0 0 0-1.951-1.6 6.634 6.634 0 0 0-2.746-.533 5.67 5.67 0 0 0-3.423 1.066 6.703 6.703 0 0 0-2.464 3.002 11.478 11.478 0 0 0-.863 4.634 11.65 11.65 0 0 0 .847 4.633 6.737 6.737 0 0 0 2.394 3.007 5.377 5.377 0 0 0 3.333 1.04 7.171 7.171 0 0 0 2.938-.57 4.971 4.971 0 0 0 2.058-1.659 5.455 5.455 0 0 0 .938-2.234.535.535 0 0 1 .491-.416Zm24.964-14.92a13.82 13.82 0 0 0-12.701 0 10.418 10.418 0 0 0-4.186 4.41 16.2 16.2 0 0 0 0 13.394 10.386 10.386 0 0 0 4.186 4.41 13.815 13.815 0 0 0 12.701 0 10.408 10.408 0 0 0 4.164-4.41 16.2 16.2 0 0 0 0-13.394 10.46 10.46 0 0 0-4.164-4.41Zm-2.954 18.742a5.573 5.573 0 0 1-3.391 1.067 5.723 5.723 0 0 1-3.44-1.067 6.82 6.82 0 0 1-2.479-3.001 11.296 11.296 0 0 1-.88-4.634 11.496 11.496 0 0 1 .864-4.633 6.71 6.71 0 0 1 2.479-3.002 5.867 5.867 0 0 1 3.493-1.066 5.488 5.488 0 0 1 3.37 1.066 6.85 6.85 0 0 1 2.463 3.002 12.572 12.572 0 0 1 0 9.267 6.78 6.78 0 0 1-2.479 3.002Zm49.394.747h-10.312a.588.588 0 0 1-.591-.592v-5.444a.591.591 0 0 1 .591-.592h9.657a.416.416 0 0 0 .415-.416v-3.14a.415.415 0 0 0-.415-.416h-9.657a.59.59 0 0 1-.591-.592v-4.974a.59.59 0 0 1 .364-.549.59.59 0 0 1 .227-.043h10.275a.412.412 0 0 0 .296-.124.418.418 0 0 0 .12-.297v-3.136a.416.416 0 0 0-.416-.415h-15.638a.413.413 0 0 0-.39.255.42.42 0 0 0-.032.16V34.93a.42.42 0 0 0 .124.296.414.414 0 0 0 .298.12h15.675a.414.414 0 0 0 .416-.416v-3.14a.415.415 0 0 0-.416-.416Zm-27.976-20.73a11.264 11.264 0 0 1 4.799.964 7.32 7.32 0 0 1 3.183 2.779 8.048 8.048 0 0 1 1.114 4.265 7.925 7.925 0 0 1-1.136 4.265 7.46 7.46 0 0 1-3.252 2.816 11.66 11.66 0 0 1-4.943.98h-3.679a.437.437 0 0 0-.437.438v7.78a.416.416 0 0 1-.416.415h-4.388a.416.416 0 0 1-.416-.416V11.06a.416.416 0 0 1 .416-.416h9.155Zm2.181 11.596a3.608 3.608 0 0 0 1.551-1.418l-.021.01c.391-.663.596-1.42.592-2.19a4.218 4.218 0 0 0-.533-2.133 3.564 3.564 0 0 0-1.472-1.387 4.905 4.905 0 0 0-2.271-.496h-3.765a.584.584 0 0 0-.592.592v6.932a.594.594 0 0 0 .592.597h3.525a5.335 5.335 0 0 0 2.394-.507Zm-66.59 3.253a6.445 6.445 0 0 0-1.787-2.069 10.59 10.59 0 0 0-2.511-1.402 18.015 18.015 0 0 0-2.879-.875l-2.453-.57a15.204 15.204 0 0 1-1.573-.432 7.12 7.12 0 0 1-1.397-.63 2.948 2.948 0 0 1-.959-.879 2.095 2.095 0 0 1-.342-1.21 2.43 2.43 0 0 1 .533-1.51 3.537 3.537 0 0 1 1.531-1.066 6.825 6.825 0 0 1 2.452-.4 5.948 5.948 0 0 1 3.301.832 3.038 3.038 0 0 1 1.365 2.01.53.53 0 0 0 .533.4h3.956a.533.533 0 0 0 .534-.352.392.392 0 0 0 0-.16 6.227 6.227 0 0 0-1.259-3.375 8.105 8.105 0 0 0-3.38-2.543 12.57 12.57 0 0 0-4.964-.917 13.096 13.096 0 0 0-4.996.912 8.46 8.46 0 0 0-3.509 2.575 6.152 6.152 0 0 0-1.295 3.871 5.395 5.395 0 0 0 1.935 4.324c1.521 1.184 3.294 2 5.183 2.384l2.975.714c.823.19 1.632.437 2.421.741a4.312 4.312 0 0 1 1.562.992c.355.394.546.91.533 1.44 0 .623-.223 1.226-.629 1.7a4.121 4.121 0 0 1-1.744 1.147 7.618 7.618 0 0 1-2.628.416 7.884 7.884 0 0 1-2.597-.4 4.302 4.302 0 0 1-1.845-1.195 3.3 3.3 0 0 1-.757-1.716.533.533 0 0 0-.533-.416h-4.036a.56.56 0 0 0-.395.16.465.465 0 0 0-.133.362 7.281 7.281 0 0 0 1.37 3.828 7.959 7.959 0 0 0 3.583 2.634c1.723.629 3.547.93 5.38.89a14.39 14.39 0 0 0 5.433-.922 7.914 7.914 0 0 0 3.477-2.596 6.442 6.442 0 0 0 1.21-3.86 5.867 5.867 0 0 0-.666-2.837Zm-87.96-11.954h4.083a.404.404 0 0 1 .384.432v21.023a.406.406 0 0 1-.405.406h-3.54a.405.405 0 0 1-.406-.406V32.44a10.36 10.36 0 0 1-3.199 2.528 9.373 9.373 0 0 1-4.345 1.023c-2.805 0-5.039-.826-6.623-2.458-1.583-1.631-2.388-3.796-2.388-6.462v-13.1a.405.405 0 0 1 .405-.406h4.09a.405.405 0 0 1 .405.406v12.466c0 1.743.442 3.06 1.311 3.913.87.853 2.15 1.285 3.802 1.285a6.02 6.02 0 0 0 3.44-1.066 9.455 9.455 0 0 0 1.993-1.802 2.58 2.58 0 0 0 .581-1.664v-13.16a.41.41 0 0 1 .411-.405Zm25.08.544a9.537 9.537 0 0 0-4.708-1.136 9.375 9.375 0 0 0-4.346 1.024 10.369 10.369 0 0 0-3.199 2.527v-2.554a.405.405 0 0 0-.405-.405h-3.588a.405.405 0 0 0-.406.405v21.024a.405.405 0 0 0 .406.405h4.089a.405.405 0 0 0 .406-.405V21.834a2.661 2.661 0 0 1 .666-1.765 10.22 10.22 0 0 1 1.957-1.727 6.018 6.018 0 0 1 3.439-1.04 5.109 5.109 0 0 1 3.663 1.333c.933.885 1.402 2.186 1.402 3.866v12.466a.405.405 0 0 0 .405.405h4.058a.407.407 0 0 0 .405-.405v-13.1a9.43 9.43 0 0 0-1.114-4.618 8.051 8.051 0 0 0-3.13-3.167Zm8.579-.544h4.09c.224 0 .405.181.405.405v21.024a.405.405 0 0 1-.405.405h-4.09a.406.406 0 0 1-.405-.405V13.943c0-.224.182-.405.405-.405Zm24.095 4.308h-6.931a.572.572 0 0 0-.56.565v9.41c0 1.392.267 2.192.912 2.768 0 .006.8.725 3.199.725h3.386a.405.405 0 0 1 .405.406v3.796a.406.406 0 0 1-.405.405h-4.836c-2.245 0-4.069-.624-5.444-1.776-1.376-1.151-2.069-3.001-2.069-5.417V18.374a.57.57 0 0 0-.443-.533h-3.06a.406.406 0 0 1-.405-.406v-3.497a.404.404 0 0 1 .405-.406h2.938a.57.57 0 0 0 .565-.533v-2.213a.41.41 0 0 1 .117-.288l4.037-4.057a.403.403 0 0 1 .623.058.409.409 0 0 1 .07.225v6.248a.567.567 0 0 0 .565.566h6.931a.405.405 0 0 1 .406.405v3.498a.405.405 0 0 1-.406.405Zm134.188-4.9a4.038 4.038 0 0 0-2.138-2.133 4.061 4.061 0 0 0-3.108 0 4.1 4.1 0 0 0-1.275.858 3.987 3.987 0 0 0-.858 1.275 4.077 4.077 0 0 0 0 3.114 4.017 4.017 0 0 0 2.133 2.133 4.062 4.062 0 0 0 3.108 0c.477-.2.91-.492 1.275-.859.366-.366.659-.799.863-1.274a4.068 4.068 0 0 0 0-3.114ZM281.624 16a2.99 2.99 0 0 1-1.067 1.066 2.875 2.875 0 0 1-1.493.4 2.91 2.91 0 0 1-1.519-.368 3.127 3.127 0 0 1-1.067-1.066 2.86 2.86 0 0 1-.4-1.493 2.92 2.92 0 0 1 .4-1.498 3.064 3.064 0 0 1 1.067-1.066 2.907 2.907 0 0 1 1.503-.4 2.873 2.873 0 0 1 1.493.4c.441.258.808.625 1.067 1.066a2.976 2.976 0 0 1 0 2.996l.016-.037Zm-.952-2.173c0 .236-.064.467-.184.67a1.154 1.154 0 0 1-.416.378l.725 1.429h-1.002l-.592-1.242h-.682v1.242h-.907v-3.69h1.824c.205-.001.407.044.592.134.186.093.345.235.458.41.12.203.184.434.184.67Zm-1.495.568a.533.533 0 0 0 .527-.57.5.5 0 0 0-.165-.421.597.597 0 0 0-.346-.123h-.667v1.114h.651Z" clip-rule="evenodd"/></g><defs><clipPath id="a"><path fill="#fff" d="M0 0h284v40H0z"/></clipPath></defs></svg>