<svg xmlns="http://www.w3.org/2000/svg" width="392" height="40" fill="currentColor" viewBox="0 0 392 40"><path fill="#000" d="M0 0h392v40H0z"/><path fill="#fff" d="M20 0C8.954 0 0 8.954 0 20s8.954 20 20 20 20-8.954 20-20S31.046 0 20 0Zm6.01 18.663a7.395 7.395 0 0 0-7.3 7.301h-.003v.093a4.72 4.72 0 1 1-4.72-4.72h.002a7.3 7.3 0 0 0 7.299-7.358v-.036a4.72 4.72 0 1 1 4.72 4.72h.003Z"/><path fill="#fff" fill-rule="evenodd" d="M57.962 30.521h14.44c.225 0 .406.184.406.406v4.042a.405.405 0 0 1-.406.407h-16.3a5.229 5.229 0 0 1-5.221-5.222v-26.2c0-.225.18-.406.406-.406h4.451c.225 0 .406.181.406.406v24.757a1.834 1.834 0 0 0 1.818 1.81Zm71.46-24.748h-4.086a.406.406 0 0 0-.406.406v4.086c0 .224.182.406.406.406h4.086a.406.406 0 0 0 .406-.406V6.179a.406.406 0 0 0-.406-.406Zm-33.66 7.766h-4.09a.407.407 0 0 0-.406.406v13.16a2.59 2.59 0 0 1-.584 1.665 9.552 9.552 0 0 1-1.997 1.803 6.031 6.031 0 0 1-3.44 1.042c-1.652 0-2.93-.434-3.799-1.288-.869-.853-1.311-2.17-1.311-3.913V13.943a.407.407 0 0 0-.406-.406h-4.09a.405.405 0 0 0-.405.406v13.1c0 2.656.804 4.83 2.39 6.463 1.585 1.632 3.814 2.46 6.62 2.46 1.57 0 3.034-.345 4.345-1.025 1.296-.67 2.377-1.518 3.218-2.527v2.555c0 .225.18.407.406.407h3.543a.407.407 0 0 0 .406-.407V13.943a.407.407 0 0 0-.406-.406l.005.002Zm16.285-.592c1.78 0 3.365.383 4.71 1.138h.005a8.016 8.016 0 0 1 3.14 3.163c.74 1.345 1.115 2.9 1.115 4.62v13.099a.405.405 0 0 1-.406.406h-4.089a.407.407 0 0 1-.406-.406V22.5c0-1.679-.474-2.982-1.402-3.867-.931-.884-2.165-1.334-3.665-1.334a6.032 6.032 0 0 0-3.44 1.042 10.043 10.043 0 0 0-1.958 1.728 2.684 2.684 0 0 0-.667 1.764v13.133a.405.405 0 0 1-.406.406h-4.089a.407.407 0 0 1-.406-.406V13.943c0-.225.181-.406.406-.406h3.59c.225 0 .406.183.406.406v2.555c.84-1.006 1.922-1.857 3.217-2.527 1.314-.68 2.775-1.024 4.345-1.024Zm13.289.592h4.089c.225 0 .406.181.406.406V34.97a.405.405 0 0 1-.406.407h-4.089a.405.405 0 0 1-.406-.407V13.943c0-.225.181-.406.406-.406v.002Zm24.109 0h-6.928a.568.568 0 0 1-.567-.566V6.727a.406.406 0 0 0-.695-.285l-4.04 4.06a.412.412 0 0 0-.119.288v2.211a.568.568 0 0 1-.564.538h-2.936a.407.407 0 0 0-.406.406v3.497c0 .225.181.406.406.406h3.058a.57.57 0 0 1 .442.52v10.356c0 2.418.698 4.241 2.071 5.418 1.374 1.18 3.205 1.774 5.439 1.774h4.837a.405.405 0 0 0 .406-.406v-3.797a.405.405 0 0 0-.406-.406h-3.383c-2.398 0-3.192-.721-3.199-.729-.649-.572-.913-1.373-.913-2.767V18.4a.566.566 0 0 1 .551-.56h6.944a.405.405 0 0 0 .406-.407v-3.496a.407.407 0 0 0-.406-.407l.002.008Zm61.306 8.48c.926.37 1.772.844 2.512 1.405l.005.005a6.458 6.458 0 0 1 1.782 2.067c.437.804.659 1.761.659 2.837 0 1.456-.408 2.755-1.21 3.861-.802 1.105-1.971 1.979-3.476 2.594-1.495.614-3.386.924-5.434.924s-3.856-.3-5.367-.893c-1.523-.597-2.728-1.481-3.584-2.63-.784-1.05-1.247-2.34-1.371-3.83a.459.459 0 0 1 .137-.365.546.546 0 0 1 .391-.16l4.037-.008c.261 0 .486.179.522.416.104.683.36 1.263.758 1.715.466.533 1.086.934 1.842 1.198.768.269 1.601.403 2.596.403.996 0 1.88-.142 2.631-.419.739-.274 1.326-.66 1.743-1.148a2.61 2.61 0 0 0 .628-1.7c-.01-.576-.194-1.06-.548-1.437-.367-.39-.892-.724-1.562-.99a17.8 17.8 0 0 0-2.424-.743l-2.971-.711c-2.175-.52-3.919-1.322-5.183-2.385-1.286-1.081-1.937-2.537-1.937-4.324 0-1.464.434-2.768 1.295-3.872.856-1.097 2.038-1.963 3.51-2.57 1.466-.606 3.119-.914 4.994-.914 1.875 0 3.546.308 4.966.913 1.425.608 2.563 1.464 3.38 2.543a6.26 6.26 0 0 1 1.257 3.377.38.38 0 0 1-.018.158.537.537 0 0 1-.512.354l-3.955.008c-.256 0-.473-.165-.519-.396a3.043 3.043 0 0 0-1.363-2.012c-.838-.55-1.948-.83-3.301-.83-.951 0-1.779.134-2.454.398-.667.262-1.182.618-1.531 1.06-.347.44-.525.947-.533 1.511 0 .466.117.872.344 1.208.233.346.556.641.962.882.417.246.887.458 1.397.626.517.17 1.047.315 1.572.432l2.452.569c.991.212 1.961.507 2.881.874Zm38.464.068h-9.518a.386.386 0 0 0-.385.386v3.582c0 .212.173.385.385.385h5.359c-.095.84-.331 1.603-.701 2.263a5.149 5.149 0 0 1-2.144 2.069c-.926.484-2.032.73-3.295.73-1.391 0-2.627-.342-3.677-1.017-1.05-.675-1.881-1.676-2.47-2.977-.593-1.303-.893-2.628-.893-4.51 0-1.883.303-3.18.898-4.48.595-1.298 1.425-2.294 2.465-2.964 1.042-.67 2.245-1.009 3.577-1.009.742 0 1.44.096 2.069.287a5.28 5.28 0 0 1 1.681.844c.489.37.913.822 1.264 1.342.324.481.59 1.027.787 1.624a.271.271 0 0 0 .258.189h4.234c.08 0 .158-.036.21-.098a.275.275 0 0 0 .059-.22 9.428 9.428 0 0 0-1.156-3.158 9.678 9.678 0 0 0-2.328-2.667 10.66 10.66 0 0 0-3.227-1.735c-1.203-.406-2.52-.61-3.911-.61-1.645 0-3.189.297-4.591.882a10.536 10.536 0 0 0-3.68 2.568c-1.04 1.117-1.86 2.493-2.436 4.091-.577 1.596-.869 3.14-.869 5.168 0 2.648.496 4.678 1.474 6.605.978 1.93 2.361 3.435 4.11 4.48 1.748 1.045 3.809 1.575 6.127 1.575 2.079 0 3.946-.43 5.552-1.278a9.463 9.463 0 0 0 3.805-3.65c.918-1.574 1.384-3.462 1.384-5.614v-2.661a.417.417 0 0 0-.417-.417v-.005ZM187.5 10.653h4.045c.225 0 .406.181.406.406v23.882a.405.405 0 0 1-.406.406h-4.086a.446.446 0 0 1-.378-.215l-12.241-16.78-.028 16.59a.405.405 0 0 1-.406.405h-4.019a.406.406 0 0 1-.407-.406V11.06c0-.225.182-.406.407-.406h4.401c.153 0 .298.083.378.215l11.933 16.679-.005-16.488c0-.225.181-.406.406-.406Zm87.007-.003h-4.03a.405.405 0 0 0-.406.406v8.667a.592.592 0 0 1-.592.593h-11.106a.594.594 0 0 1-.592-.593v-8.667a.405.405 0 0 0-.406-.406h-4.029a.405.405 0 0 0-.407.406v23.885c0 .225.181.406.407.406h4.029a.405.405 0 0 0 .406-.406v-9.776c0-.326.266-.592.592-.592h11.106c.328 0 .592.266.592.592v9.776c0 .225.181.406.406.406h4.03a.405.405 0 0 0 .406-.406V11.056a.405.405 0 0 0-.406-.406Zm3.726.024h19.633c.225 0 .406.18.406.406v3.476a.386.386 0 0 1-.385.385h-6.756a.592.592 0 0 0-.592.59l-.07 19.402c0 .23-.186.417-.416.417h-4.001a.405.405 0 0 1-.406-.406l-.011-19.41a.592.592 0 0 0-.592-.593h-6.83a.387.387 0 0 1-.386-.385V11.08c0-.225.181-.406.406-.406Zm-117.097 0h4.047c.225 0 .406.18.406.406v23.86a.405.405 0 0 1-.406.406h-4.047a.406.406 0 0 1-.407-.406V11.08c0-.225.182-.406.407-.406Zm58.285 0h4.047c.225 0 .406.181.406.406v23.858a.406.406 0 0 1-.406.406h-4.047a.406.406 0 0 1-.406-.406V11.08c0-.225.181-.406.406-.406ZM391.398 22.08h-9.518a.386.386 0 0 0-.385.385v3.582c0 .212.173.385.385.385h5.359c-.096.84-.331 1.604-.701 2.263a5.155 5.155 0 0 1-2.144 2.07c-.926.483-2.033.729-3.292.729-1.392 0-2.628-.342-3.678-1.017-1.05-.675-1.88-1.676-2.47-2.977-.592-1.303-.892-2.627-.892-4.51s.302-3.179.897-4.48c.595-1.298 1.425-2.294 2.465-2.964 1.042-.67 2.245-1.008 3.577-1.008.742 0 1.44.095 2.069.287a5.27 5.27 0 0 1 1.681.843c.489.37.913.822 1.265 1.342.323.481.589 1.027.786 1.624a.271.271 0 0 0 .259.19h4.233a.271.271 0 0 0 .269-.318 9.406 9.406 0 0 0-1.156-3.159 9.689 9.689 0 0 0-2.327-2.666 10.651 10.651 0 0 0-3.228-1.736c-1.203-.406-2.519-.61-3.911-.61-1.645 0-3.189.297-4.59.882a10.54 10.54 0 0 0-3.681 2.568c-1.039 1.117-1.859 2.493-2.436 4.092-.577 1.595-.869 3.14-.869 5.167 0 2.648.497 4.679 1.474 6.606.978 1.929 2.362 3.434 4.11 4.48 1.748 1.044 3.81 1.574 6.127 1.574 2.079 0 3.947-.43 5.553-1.278a9.46 9.46 0 0 0 3.804-3.649c.918-1.575 1.384-3.463 1.384-5.615v-2.661a.416.416 0 0 0-.417-.416l-.002-.006Zm-57.075 12.79.029-23.77a.416.416 0 0 0-.412-.427h-5.589a.419.419 0 0 0-.393.277l-7.407 18.515a.153.153 0 0 1-.111.096c-.047-.013-.091-.04-.111-.096l-7.408-18.516a.418.418 0 0 0-.393-.276h-5.827a.412.412 0 0 0-.411.354l.005 23.84c0 .241.158.48.411.48h3.689c.212 0 .413-.174.413-.37l-.018-16.499c.018-.168.251-.196.311-.036l6.91 16.633c.06.165.217.274.391.274h4.073a.414.414 0 0 0 .391-.274l6.91-16.633c.057-.16.293-.132.311.036l-.018 16.498c0 .205.201.37.413.37h3.427c.254 0 .412-.207.412-.478l.002.002Zm31.564-23.77-.029 23.77-.003-.002c0 .271-.157.478-.411.478h-3.427c-.212 0-.413-.165-.413-.37l.018-16.498c-.018-.168-.254-.196-.311-.036l-6.91 16.633a.414.414 0 0 1-.391.274h-4.073a.416.416 0 0 1-.391-.274l-6.91-16.633c-.06-.16-.293-.132-.311.036l.018 16.498c0 .197-.201.37-.414.37h-3.688c-.253 0-.411-.238-.411-.478l-.005-23.84a.412.412 0 0 1 .411-.355h5.827c.176 0 .334.111.393.277l7.407 18.515c.021.057.065.083.112.096a.153.153 0 0 0 .111-.096l7.407-18.516a.419.419 0 0 1 .393-.276h5.589c.205 0 .412.163.412.427Z" clip-rule="evenodd"/></svg>