<svg xmlns="http://www.w3.org/2000/svg" width="150" height="40" fill="currentColor" viewBox="0 0 150 40"><g clip-path="url(#a)"><path fill="#00C9EA" d="M20 0a20 20 0 1 0 0 40 20 20 0 0 0 0-40Zm6.01 18.663a7.391 7.391 0 0 0-7.3 7.301v.093a4.72 4.72 0 1 1-4.72-4.72 7.303 7.303 0 0 0 7.3-7.358v-.036a4.72 4.72 0 1 1 4.72 4.72Z"/><path fill="#fff" fill-rule="evenodd" d="M72.401 30.519H57.96a1.834 1.834 0 0 1-1.81-1.81V3.953a.406.406 0 0 0-.406-.406h-4.459a.406.406 0 0 0-.406.406v26.2a5.23 5.23 0 0 0 5.222 5.222h16.294a.409.409 0 0 0 .406-.406v-4.043a.406.406 0 0 0-.399-.408Zm52.934-24.746h4.087c.224 0 .406.181.406.406v4.086a.406.406 0 0 1-.406.406h-4.087a.406.406 0 0 1-.406-.406V6.18c0-.225.182-.406.406-.406Zm-33.66 7.766h4.086a.406.406 0 0 1 .409.406V34.97a.406.406 0 0 1-.406.406H92.22a.409.409 0 0 1-.407-.406v-2.556a10.302 10.302 0 0 1-3.217 2.522 9.352 9.352 0 0 1-4.347 1.035c-2.807 0-5.036-.825-6.621-2.46-1.586-1.635-2.39-3.81-2.39-6.466v-13.1a.406.406 0 0 1 .406-.406h4.089a.404.404 0 0 1 .403.406v12.461c0 1.744.442 3.052 1.311 3.913.87.862 2.15 1.294 3.802 1.294a6.034 6.034 0 0 0 3.44-1.035 9.604 9.604 0 0 0 1.994-1.81c.384-.47.591-1.06.585-1.666V13.945a.406.406 0 0 1 .406-.406Zm25.082.546a9.503 9.503 0 0 0-4.71-1.138 9.383 9.383 0 0 0-4.345 1.035 10.335 10.335 0 0 0-3.215 2.516v-2.555a.404.404 0 0 0-.406-.403h-3.59a.403.403 0 0 0-.4.403V34.97a.405.405 0 0 0 .406.406h4.086a.405.405 0 0 0 .406-.406V21.836a2.69 2.69 0 0 1 .667-1.764 10.163 10.163 0 0 1 1.958-1.727 6.014 6.014 0 0 1 3.44-1.035c1.5 0 2.731.448 3.662 1.335s1.41 2.177 1.41 3.856v12.466a.405.405 0 0 0 .406.406h4.089a.409.409 0 0 0 .406-.406v-13.1a9.474 9.474 0 0 0-1.117-4.616 8.01 8.01 0 0 0-3.153-3.166Zm8.578-.546h4.087c.224 0 .406.182.406.406V34.97a.406.406 0 0 1-.406.406h-4.087a.406.406 0 0 1-.406-.406V13.945c0-.224.182-.406.406-.406Zm17.171 0h6.939a.407.407 0 0 1 .411.404v3.497a.405.405 0 0 1-.406.406h-6.944a.564.564 0 0 0-.556.563v9.407c0 1.394.264 2.196.913 2.767.008.008.799.73 3.199.73h3.37a.41.41 0 0 1 .287.119.396.396 0 0 1 .119.287v3.789a.396.396 0 0 1-.119.287.398.398 0 0 1-.287.119h-4.836c-2.227 0-4.061-.585-5.431-1.775-1.371-1.19-2.07-3.013-2.07-5.43V18.362a.559.559 0 0 0-.439-.517h-3.06a.409.409 0 0 1-.401-.404v-3.5a.406.406 0 0 1 .401-.405h2.928a.566.566 0 0 0 .564-.538v-2.212a.392.392 0 0 1 .119-.287l4.04-4.06a.394.394 0 0 1 .44-.091.403.403 0 0 1 .253.375v6.249a.566.566 0 0 0 .566.566Z" clip-rule="evenodd"/></g><defs><clipPath id="a"><path fill="#fff" d="M0 0h150v40H0z"/></clipPath></defs></svg>