<svg width="41" height="41" viewBox="0 0 41 41" fill="none" xmlns="http://www.w3.org/2000/svg">
<path d="M20.4902 0.375C16.5346 0.375 12.6678 1.54798 9.37884 3.74561C6.08985 5.94324 3.52641 9.06681 2.01265 12.7213C0.4989 16.3759 0.102833 20.3972 0.874538 24.2768C1.64624 28.1564 3.55106 31.7201 6.34811 34.5171C9.14516 37.3142 12.7088 39.219 16.5884 39.9907C20.4681 40.7624 24.4894 40.3663 28.1439 38.8526C31.7984 37.3388 34.922 34.7754 37.1196 31.4864C39.3173 28.1974 40.4902 24.3306 40.4902 20.375C40.4902 15.0707 38.3831 9.98359 34.6324 6.23286C30.8817 2.48214 25.7946 0.375 20.4902 0.375ZM26.5008 19.0379C24.5717 19.0614 22.7283 19.8381 21.3641 21.2023C19.9999 22.5665 19.2232 24.41 19.1997 26.339C19.1997 26.3701 19.1997 26.4011 19.1997 26.4322C19.1997 27.3657 18.9228 28.2783 18.4042 29.0545C17.8856 29.8307 17.1484 30.4356 16.2859 30.7929C15.4234 31.1501 14.4744 31.2436 13.5588 31.0615C12.6432 30.8794 11.8022 30.4298 11.1421 29.7697C10.482 29.1096 10.0324 28.2686 9.8503 27.353C9.66818 26.4374 9.76165 25.4884 10.1189 24.6259C10.4761 23.7634 11.0811 23.0262 11.8573 22.5076C12.6335 21.9889 13.5461 21.7121 14.4796 21.7121C15.4432 21.7118 16.3971 21.5209 17.2865 21.1503C18.1759 20.7797 18.9831 20.2368 19.6618 19.5528C20.3405 18.8689 20.8771 18.0574 21.2408 17.1652C21.6044 16.2729 21.788 15.3175 21.7808 14.354V14.3178C21.7808 13.3843 22.0576 12.4717 22.5763 11.6955C23.0949 10.9193 23.8321 10.3144 24.6946 9.9571C25.557 9.59985 26.5061 9.50638 27.4217 9.68851C28.3373 9.87063 29.1783 10.3202 29.8384 10.9803C30.4985 11.6404 30.9481 12.4814 31.1302 13.397C31.3123 14.3126 31.2188 15.2616 30.8616 16.1241C30.5043 16.9866 29.8994 17.7238 29.1232 18.2424C28.347 18.761 27.4344 19.0379 26.5008 19.0379Z" fill="#00C9EA"/>
</svg>
