<svg xmlns="http://www.w3.org/2000/svg" width="20" height="20" fill="currentColor" viewBox="0 0 20 20">
  <path d="M9.953 16.936c.282.389.029 1.064-.451 1.064H2a2 2 0 01-2-2V2a2 2 0 012-2h5.172a2 2 0 011.287.47A.3.3 0 008 .723V5.5a.5.5 0 00.5.5h4.776a.3.3 0 00.255-.458A2 2 0 0114 6.828V8.5a.541.541 0 01-.5.525 5 5 0 00-3.547 7.911zM13.232 5.232L8.586.586a1.962 1.962 0 00-.012-.012l4.658 4.658z"/>
  <g>
    <path fill-rule="evenodd" d="M0 2a2 2 0 012-2h5.879a2 2 0 011.414.586l4.121 4.121A2 2 0 0114 6.121V8.5a.5.5 0 01-1 0V6.121c0-.05-.004-.1-.011-.148a.827.827 0 01-.213.027H8V1.224c0-.075.01-.146.027-.213A1 1 0 007.88 1H2a1 1 0 00-1 1v14a1 1 0 001 1h7.5a.5.5 0 010 1H2a2 2 0 01-2-2V2zm9-.293V5h3.293L9 1.707z" clip-rule="evenodd"/>
    <path fill-rule="evenodd" d="M10 14a4 4 0 117.16 2.453l2.694 2.693a.5.5 0 01-.708.708l-2.693-2.694A4 4 0 0110 14zm4-3a3 3 0 100 6 3 3 0 000-6z" clip-rule="evenodd"/>
  </g>
</svg>
