<svg xmlns="http://www.w3.org/2000/svg" width="20" height="20" fill="currentColor" viewBox="0 0 20 20">
  <path fill-rule="evenodd" d="M9.835 17.87c.245-.214.324-.65.118-.934A5 5 0 0113.5 9.024a.562.562 0 00.44-.288A.497.497 0 0014 8.51V6.12a2 2 0 00-.586-1.414l-.073-.073L9.366.66 9.293.586A2 2 0 007.879 0H2a2 2 0 00-2 2v14a2 2 0 002 2h7.502a.486.486 0 00.333-.13zM8 1.008v.217c0-.075.01-.146.027-.213A1.004 1.004 0 008 1.007zM12.78 6h.213a.838.838 0 00-.004-.027.826.826 0 01-.208.027zM9 5V1.707L12.293 5H9zm5 6a3 3 0 100 6 3 3 0 000-6zm-4 3a4 4 0 117.16 2.453l2.694 2.693a.5.5 0 01-.708.708l-2.693-2.694A4 4 0 0110 14z" clip-rule="evenodd"/>
</svg>
