<svg xmlns="http://www.w3.org/2000/svg" fill="currentColor" viewBox="0 0 20 20">
  <path d="M8.5 1a.5.5 0 000 1A6.5 6.5 0 112 8.5a.5.5 0 00-1 0 7.5 7.5 0 0012.438 5.645l4.708 4.709a.5.5 0 00.708-.707l-4.709-4.709A7.5 7.5 0 008.5 1z"/>
  <path d="M8.5 12a.5.5 0 01-.5-.5v-6a.5.5 0 011 0v6a.5.5 0 01-.5.5zM5 11.5a.5.5 0 001 0v-4a.5.5 0 00-1 0v4zM11.5 12a.5.5 0 01-.5-.5v-2a.5.5 0 011 0v2a.5.5 0 01-.5.5zM6 2.45a.5.5 0 100-1 .5.5 0 000 1zM4 3.6a.5.5 0 11-1 0 .5.5 0 011 0zM1.96 6.5a.5.5 0 100-1 .5.5 0 000 1z"/>
</svg>
