<svg xmlns="http://www.w3.org/2000/svg" width="20" height="20" fill="currentColor" viewBox="0 0 20 20">
  <path d="M20 4a4 4 0 11-8 0 4 4 0 018 0z"/>
  <path fill-rule="evenodd" d="M11.187 5.359A.48.48 0 0010.734 5H7.937a2 2 0 00-3.874 0H2.5a.5.5 0 000 1h1.563a2 2 0 003.874 0h2.795c.322 0 .542-.33.455-.641zm2.23 2.923a.5.5 0 00-.486.027c-.423.268-.74.692-.868 1.191H2.5a.5.5 0 000 1h9.563a2 2 0 003.874 0H18.5a.5.5 0 000-1h-2.563a2.034 2.034 0 00-.05-.167.5.5 0 00-.944.334 1 1 0 11-1.477-.512.5.5 0 00-.05-.873zM5 5.5a1 1 0 112 0 1 1 0 01-2 0zm3 9a1 1 0 112 0 1 1 0 01-2 0zm-.937.5H2.5a.5.5 0 010-1h4.563a2 2 0 013.874 0H17.5a.5.5 0 010 1h-6.563a2 2 0 01-3.874 0z" clip-rule="evenodd"/>
</svg>
