<svg xmlns="http://www.w3.org/2000/svg" width="20" height="20" fill="currentColor" viewBox="0 0 20 20">
  <path fill-rule="evenodd" d="M4.063 6H2.5a.5.5 0 010-1h1.563a2 2 0 013.874 0H17.5a.5.5 0 010 1H7.937a2 2 0 01-3.874 0zM5 5.5a1 1 0 112 0 1 1 0 01-2 0zm7.063 5H2.5a.5.5 0 010-1h9.563a2 2 0 013.874 0H17.5a.5.5 0 010 1h-1.563a2 2 0 01-3.874 0zM13 10a1 1 0 112 0 1 1 0 01-2 0zm-5 4.5a1 1 0 112 0 1 1 0 01-2 0zm-.937.5H2.5a.5.5 0 010-1h4.563a2 2 0 013.874 0H17.5a.5.5 0 010 1h-6.563a2 2 0 01-3.874 0z" clip-rule="evenodd"/>
</svg>
