<svg xmlns="http://www.w3.org/2000/svg" width="20" height="20" fill="currentColor" viewBox="0 0 20 20">
  <path d="M3.809 10.705c1.456-1.455 3.972-1.317 5.397.107 1.425 1.424 1.582 3.903.126 5.358-2.047 2.045-6.575 1.088-6.575 1.088s-.994-4.507 1.052-6.553z"/>
  <path fill-rule="evenodd" d="M17.266 2.734a2.507 2.507 0 00-3.546 0l-6.509 6.51c-1.328-.24-2.758.096-3.767 1.104C2.27 11.522 2.008 13.343 2 14.755a13.52 13.52 0 00.241 2.567l.009.043.003.012v.005l.07.316.317.067h.005l.012.003.043.009.157.028a13.705 13.705 0 002.42.194c1.416-.017 3.242-.288 4.415-1.461 1.017-1.017 1.343-2.446 1.087-3.77l6.487-6.488c.979-.979.979-2.566 0-3.546zm-6.834 8.963l6.125-6.126a1.505 1.505 0 00-2.128-2.127L8.293 9.58c.47.213.904.506 1.273.875.362.361.652.784.866 1.242zm-7.689 5.577l-.49.108.49-.108zm-.103.49l.103-.49-.103.49zm.908-.87a11.774 11.774 0 01-.375-.053 12.522 12.522 0 01-.17-2.081c.007-1.361.273-2.826 1.15-3.703 1.245-1.244 3.45-1.147 4.704.107 1.257 1.257 1.367 3.425.126 4.665-.879.878-2.35 1.151-3.718 1.168a12.715 12.715 0 01-1.717-.102z" clip-rule="evenodd"/>
</svg>
