<svg xmlns="http://www.w3.org/2000/svg" fill="currentColor" viewBox="0 0 20 20">
  <path fill-rule="evenodd" d="M13.72 2.734a2.507 2.507 0 113.546 3.546l-6.487 6.488c.256 1.324-.07 2.753-1.087 3.77-1.173 1.173-2.999 1.445-4.415 1.461a13.705 13.705 0 01-2.577-.222l-.043-.009-.012-.002-.003-.001H2.64l.103-.49-.49.107v-.005l-.003-.012-.009-.043a12.408 12.408 0 01-.118-.72A13.52 13.52 0 012 14.756c.008-1.412.27-3.233 1.444-4.407C4.453 9.34 5.883 9.003 7.211 9.244l6.51-6.51zm2.837 2.837l-6.125 6.126a4.36 4.36 0 00-.866-1.242 4.312 4.312 0 00-1.273-.875l6.136-6.136a1.504 1.504 0 112.128 2.127z" clip-rule="evenodd"/>
  <path d="M2.254 17.382l.49-.108-.104.49-.317-.066-.07-.316z"/>
</svg>
