<svg xmlns="http://www.w3.org/2000/svg" width="20" height="20" fill="currentColor" viewBox="0 0 20 20">
  <path d="M10 1a.5.5 0 01.5.5v2a.5.5 0 01-1 0v-2A.5.5 0 0110 1zM16.364 3.636a.5.5 0 010 .707L14.95 5.757a.5.5 0 11-.707-.707l1.414-1.414a.5.5 0 01.707 0zM18.5 10.5a.5.5 0 000-1h-2a.5.5 0 000 1h2zM16.364 16.364a.5.5 0 01-.707 0l-1.414-1.414a.5.5 0 11.707-.707l1.414 1.414a.5.5 0 010 .707zM9.5 18.5a.5.5 0 001 0v-2a.5.5 0 00-1 0v2zM3.636 16.364a.5.5 0 010-.707l1.414-1.414a.5.5 0 11.707.707l-1.414 1.414a.5.5 0 01-.707 0zM1.5 9.5a.5.5 0 000 1h2a.5.5 0 000-1h-2zM3.636 3.636a.5.5 0 01.707 0L5.757 5.05a.5.5 0 11-.707.707L3.636 4.343a.5.5 0 010-.707z"/>
  <path fill-rule="evenodd" d="M15 9.968A5 5 0 1015 10v-.032zM10 6v8a4 4 0 010-8z" clip-rule="evenodd"/>
</svg>
