<svg xmlns="http://www.w3.org/2000/svg" width="20" height="20" fill="currentColor" viewBox="0 0 20 20">
  <path d="M18 6a4 4 0 11-8 0 4 4 0 018 0z"/>
  <path fill-rule="evenodd" d="M16.548 11.073a.539.539 0 00-.715-.418.438.438 0 00-.289.45c.127 1.051.516 2.08 1.235 2.895H3.22c.972-1.1 1.341-2.59 1.276-4-.066-1.42.066-3.19.83-4.587a4.326 4.326 0 011.65-1.712c.699-.403 1.61-.669 2.8-.698a.486.486 0 00.362-.179c.257-.312.088-.83-.317-.822a9.58 9.58 0 00-.2.005c-1.27.049-2.307.345-3.145.827a5.326 5.326 0 00-2.027 2.1c-.897 1.638-1.022 3.63-.953 5.112.062 1.333-.329 2.645-1.235 3.51-.547.522-.177 1.444.58 1.444H7a3 3 0 106 0h4.16c.756 0 1.126-.922.579-1.444-.67-.64-1.06-1.525-1.19-2.483zM12 15H8a2 2 0 104 0z" clip-rule="evenodd"/>
</svg>
