<svg xmlns="http://www.w3.org/2000/svg" width="20" height="20" fill="currentColor" viewBox="0 0 20 20">
  <path d="M18 6a4 4 0 11-8 0 4 4 0 018 0z"/>
  <path fill-rule="evenodd" d="M16.05 10.622c.241.016.464.2.498.451.132.957.52 1.843 1.19 2.483.548.522.178 1.444-.578 1.444H13a3 3 0 11-6 0H2.84c-.756 0-1.126-.922-.579-1.444.906-.865 1.297-2.177 1.235-3.51-.069-1.482.056-3.474.953-5.113a5.326 5.326 0 012.027-2.099c.838-.482 1.875-.778 3.145-.827a9.58 9.58 0 01.2-.005c.405-.007.574.51.317.822a.498.498 0 01-.085.082A.405.405 0 0110 3a5 5 0 004 8c.581 0 1.14-.055 1.658-.227a.483.483 0 01.307-.15.442.442 0 01.08-.059l.005.058zM10 17a2 2 0 01-2-2h4a2 2 0 01-2 2z" clip-rule="evenodd"/>
</svg>
