<svg xmlns="http://www.w3.org/2000/svg" width="20" height="20" fill="currentColor" viewBox="0 0 20 20">
  <path fill-rule="evenodd" d="M15.5 10h-.595-.405a5.5 5.5 0 00-5.047 7.688c.059.137.047.54.047.54v.272a.5.5 0 01-.5.5H3.5A2.5 2.5 0 011 16.5v-14A2.5 2.5 0 013.5 0h6.172a2.5 2.5 0 011.581.564.84.84 0 01.113.095l3.975 3.975a.843.843 0 01.095.113A2.5 2.5 0 0116 6.328V9.5a.5.5 0 01-.5.5zM11 1.707L14.293 5H11V1.707zM19 15.5a4.5 4.5 0 11-9 0 4.5 4.5 0 019 0zm-4 .793l1.146-1.147a.5.5 0 01.708.708l-2 2a.5.5 0 01-.708 0l-2-2a.5.5 0 01.708-.708L14 16.293V13.5a.5.5 0 011 0v2.793z" clip-rule="evenodd"/>
</svg>
