<svg xmlns="http://www.w3.org/2000/svg" width="20" height="20" fill="currentColor" viewBox="0 0 20 20">
  <path fill-rule="evenodd" d="M15.993 6.84a2 2 0 11-2.829-2.828 2 2 0 012.829 2.828zm-.707-.707a1 1 0 11-1.414-1.414 1 1 0 011.414 1.414z" clip-rule="evenodd"/>
  <path fill-rule="evenodd" d="M11.46 15.02v2.42c0 .89 1.077 1.336 1.707.706l2.327-2.326a1.5 1.5 0 00.439-1.037l.06-3.7.696-.696c1.865-1.866 2.374-3.766 2.345-5.302a6.655 6.655 0 00-.771-2.993.89.89 0 00-.35-.35A6.655 6.655 0 0014.92.97c-1.537-.028-3.437.48-5.302 2.346l-.692.691-3.71.06a1.5 1.5 0 00-1.036.44L1.854 6.832c-.63.63-.184 1.707.707 1.707h2.42l2.886 2.886-.01.01-6.717 6.717a.5.5 0 10.707.707l6.717-6.717.01-.01 2.886 2.887zm5.942-12.418a5.68 5.68 0 00-2.5-.632c-1.274-.024-2.91.386-4.577 2.053L6.1 8.246l5.657 5.657 3.347-3.346a.502.502 0 01.08-.08l.796-.797c1.668-1.667 2.077-3.303 2.054-4.577a5.678 5.678 0 00-.633-2.5zM12.46 14.615l2.516-2.515-.043 2.667a.5.5 0 01-.146.346l-2.327 2.326v-2.824zM5.233 5.067l2.676-.043L5.394 7.54H2.56l2.326-2.327a.5.5 0 01.346-.146z" clip-rule="evenodd"/>
  <path d="M5.388 18.148a.5.5 0 10.707.707l2.121-2.122a.5.5 0 10-.707-.707l-2.121 2.122zM1.493 14.264a.5.5 0 010-.707l3.182-3.182a.5.5 0 11.707.707L2.2 14.264a.5.5 0 01-.707 0z"/>
</svg>
