<svg xmlns="http://www.w3.org/2000/svg" width="20" height="20" fill="currentColor" viewBox="0 0 20 20">
  <path fill-rule="evenodd" d="M11.46 15.02l-2.886-2.887-.01.01-6.717 6.717a.5.5 0 11-.707-.707l6.717-6.717.01-.01L4.981 8.54H2.56c-.891 0-1.337-1.077-.707-1.707L4.18 4.506a1.5 1.5 0 011.037-.439l3.709-.06.692-.691C11.483 1.45 13.384.942 14.92.97a6.655 6.655 0 012.992.771.89.89 0 01.351.351c.194.352.743 1.476.771 2.993.029 1.536-.48 3.436-2.345 5.302l-.697.696-.06 3.7a1.5 1.5 0 01-.438 1.037l-2.327 2.326c-.63.63-1.707.184-1.707-.707v-2.42zm3.516-2.92l-2.516 2.515v2.824l2.327-2.326a.5.5 0 00.146-.346l.043-2.667zM7.909 5.024l-2.676.043a.5.5 0 00-.346.146L2.561 7.54h2.833l2.515-2.516zm5.256 1.816a2 2 0 102.828-2.828 2 2 0 00-2.829 2.828z" clip-rule="evenodd"/>
  <path d="M5.388 18.855a.5.5 0 010-.707l2.121-2.122a.5.5 0 01.707.707l-2.121 2.122a.5.5 0 01-.707 0zM1.493 13.557a.5.5 0 10.707.707l3.182-3.182a.5.5 0 10-.707-.707l-3.182 3.182z"/>
</svg>
