<svg xmlns="http://www.w3.org/2000/svg" fill="currentColor" viewBox="0 0 20 20">
  <path fill-rule="evenodd" d="M3.5 1A1.5 1.5 0 002 2.5v14A1.5 1.5 0 003.5 18H9a.5.5 0 010 1H3.5A2.5 2.5 0 011 16.5v-14A2.5 2.5 0 013.5 0h6.172a2.5 2.5 0 011.581.564.84.84 0 01.113.095l3.975 3.975a.843.843 0 01.095.113A2.5 2.5 0 0116 6.328V9.5a.5.5 0 01-1 0V6.328c0-.118-.014-.235-.041-.348a.834.834 0 01-.183.02H10V1.224c0-.064.007-.125.02-.183A1.5 1.5 0 009.672 1H3.5zm10.793 4L11 1.707V5h3.293z" clip-rule="evenodd"/>
  <path fill-rule="evenodd" d="M19 15.5a4.5 4.5 0 11-9 0 4.5 4.5 0 019 0zm-4 .793l1.146-1.147a.5.5 0 01.708.708l-2 2a.5.5 0 01-.708 0l-2-2a.5.5 0 01.708-.708L14 16.293V13.5a.5.5 0 011 0v2.793z" clip-rule="evenodd"/>
</svg>
