<svg xmlns="http://www.w3.org/2000/svg" fill="currentColor" viewBox="0 0 20 20">
  <path fill-rule="evenodd" d="M1.5 9c0-2 1.443-3.5 3.5-3.5 0-2.442 2.5-4 5-4s5 1.558 5 4c2.057 0 3.5 1.5 3.5 3.5s-1.257 4-3.5 4h-3V8.5a2 2 0 10-4 0V13H5c-2 0-3.5-2-3.5-4z" clip-rule="evenodd"/>
  <path fill-rule="evenodd" d="M5.5 5.5c0-1.032.523-1.894 1.36-2.514C7.704 2.361 8.847 2 10 2s2.296.36 3.14.986c.837.62 1.36 1.482 1.36 2.514V6h.5c1.775 0 3 1.27 3 3 0 .896-.28 1.64-.771 2.155-.487.512-1.224.845-2.229.845h-.5a.5.5 0 000 1h.5c1.238 0 2.25-.417 2.953-1.155C18.652 11.11 19 10.104 19 9c0-2.115-1.441-3.76-3.528-3.976-.143-1.191-.818-2.16-1.737-2.841C12.704 1.418 11.347 1 10 1s-2.704.418-3.735 1.183c-.919.68-1.594 1.65-1.737 2.841C2.441 5.24 1 6.885 1 9c0 2.276 1.724 4 4 4h.5a.5.5 0 000-1H5c-1.724 0-3-1.276-3-3 0-1.73 1.225-3 3-3h.5v-.5zm8.33 8.624a.5.5 0 01.046.705l-3.5 4a.5.5 0 01-.752 0l-3.5-4a.5.5 0 01.752-.658L9.5 17.169V8.5a.5.5 0 011 0v8.67l2.624-3a.5.5 0 01.705-.046z" clip-rule="evenodd"/>
</svg>
