<svg xmlns="http://www.w3.org/2000/svg" width="20" height="20" fill="currentColor" viewBox="0 0 20 20">
  <path d="M14.5 18.5h-9a2 2 0 01-2-2v-13a2 2 0 012-2h5.172a2 2 0 011.286.469.3.3 0 00-.458.255V6.5h4.276a.3.3 0 00.255-.458 2 2 0 01.469 1.286V16.5a2 2 0 01-2 2z"/>
  <path fill-rule="evenodd" d="M5.5 2A1.5 1.5 0 004 3.5v13A1.5 1.5 0 005.5 18h9a1.5 1.5 0 001.5-1.5V7.328c0-.118-.014-.235-.041-.348a.834.834 0 01-.183.02H11V2.224c0-.064.007-.125.02-.183A1.499 1.499 0 0010.672 2H5.5zm6.754-.436A2.5 2.5 0 0010.672 1H5.5A2.5 2.5 0 003 3.5v13A2.5 2.5 0 005.5 19h9a2.5 2.5 0 002.5-2.5V7.328a2.5 2.5 0 00-.564-1.582.839.839 0 00-.095-.112l-.073-.073-3.829-3.829-.073-.073a.845.845 0 00-.112-.095zM12 2.707V6h3.293L12 2.707zm-1.5 12.086l2.646-2.647a.5.5 0 01.708.708l-3.5 3.5a.5.5 0 01-.708 0l-3.5-3.5a.5.5 0 01.708-.708L9.5 14.793V8.5a.5.5 0 011 0v6.293z" clip-rule="evenodd"/>
</svg>
