<svg xmlns="http://www.w3.org/2000/svg" fill="currentColor" viewBox="0 0 20 20">
  <path fill-rule="evenodd" d="M3 3a2 2 0 012-2h5.879a2 2 0 011.414.586l.073.073 3.975 3.975.073.073A2 2 0 0117 7.121V11.5a.5.5 0 01-1 0V7.121c0-.05-.004-.1-.011-.148a.827.827 0 01-.213.027H11V2.224c0-.075.01-.146.027-.213A1.001 1.001 0 0010.88 2H5a1 1 0 00-1 1v14a1 1 0 001 1h5.5a.5.5 0 010 1H5a2 2 0 01-2-2V3zm9-.293V6h3.293L12 2.707zm2 14.586V13.5a.5.5 0 011 0v3.793l1.146-1.147a.5.5 0 01.708.708l-2 2a.5.5 0 01-.708 0l-2-2a.5.5 0 01.708-.708L14 17.293z" clip-rule="evenodd"/>
</svg>
