<svg xmlns="http://www.w3.org/2000/svg" width="20" height="20" fill="currentColor" viewBox="0 0 20 20">
  <path fill-rule="evenodd" d="M2.979 5H1.5a.5.5 0 000 1H3l.42 9.604A2.5 2.5 0 005.919 18h8.164a2.5 2.5 0 002.497-2.396L17 6h1.5a.5.5 0 000-1H14v-.5A2.5 2.5 0 0011.5 2h-3A2.5 2.5 0 006 4.5V5H2.979zM7 5h6v-.5A1.5 1.5 0 0011.5 3h-3A1.5 1.5 0 007 4.5V5zm5.854 3.146a.5.5 0 010 .708L10.707 11l2.147 2.146a.5.5 0 01-.708.708L10 11.707l-2.146 2.147a.5.5 0 01-.708-.708L9.293 11 7.146 8.854a.5.5 0 11.708-.708L10 10.293l2.146-2.147a.5.5 0 01.708 0z" clip-rule="evenodd"/>
</svg>
