<svg xmlns="http://www.w3.org/2000/svg" width="20" height="20" fill="currentColor" viewBox="0 0 20 20">
  <path fill-rule="evenodd" d="M2 3.5A1.5 1.5 0 013.5 2h4A1.5 1.5 0 019 3.5v13A1.5 1.5 0 017.5 18h-4A1.5 1.5 0 012 16.5v-13zM3.5 3a.5.5 0 00-.5.5v13a.5.5 0 00.5.5h4a.5.5 0 00.5-.5v-13a.5.5 0 00-.5-.5h-4zM11 3.5A1.5 1.5 0 0112.5 2h4A1.5 1.5 0 0118 3.5v4A1.5 1.5 0 0116.5 9h-4A1.5 1.5 0 0111 7.5v-4zm1.5-.5a.5.5 0 00-.5.5v4a.5.5 0 00.5.5h4a.5.5 0 00.5-.5v-4a.5.5 0 00-.5-.5h-4zM12.5 11a1.5 1.5 0 00-1.5 1.5v4a1.5 1.5 0 001.5 1.5h4a1.5 1.5 0 001.5-1.5v-4a1.5 1.5 0 00-1.5-1.5h-4zm-.5 1.5a.5.5 0 01.5-.5h4a.5.5 0 01.5.5v4a.5.5 0 01-.5.5h-4a.5.5 0 01-.5-.5v-4z" clip-rule="evenodd"/>
</svg>
