<svg xmlns="http://www.w3.org/2000/svg" width="20" height="20" fill="currentColor" viewBox="0 0 20 20">
  <path d="M19.145 17.004a1 1 0 01-.868 1.496H1.723a1 1 0 01-.868-1.496L9.132 2.519a1 1 0 011.736 0l8.277 14.485z"/>
  <path fill-rule="evenodd" d="M10.434 2.253a.5.5 0 00-.868 0l-8.5 15a.5.5 0 00.435.747h16.998a.5.5 0 00.435-.747l-8.5-15zM8.697 1.76a1.498 1.498 0 012.606 0l8.5 15A1.5 1.5 0 0118.499 19H1.501a1.5 1.5 0 01-1.304-2.24l8.5-15zM10.003 7a.75.75 0 01.75.75v4.5a.75.75 0 01-1.5 0v-4.5a.75.75 0 01.75-.75zM10 16a1 1 0 100-2 1 1 0 000 2z" clip-rule="evenodd"/>
</svg>
