<svg xmlns="http://www.w3.org/2000/svg" width="16" height="16" fill="currentColor" viewBox="0 0 16 16">
  <path d="M15.37 13.751a.5.5 0 01-.433.749H1.063a.5.5 0 01-.434-.749L7.566 1.656a.5.5 0 01.868 0l6.937 12.095z"/>
  <path fill-rule="evenodd" d="M8.43 2.249a.5.5 0 00-.86 0L1.071 13.246a.5.5 0 00.43.754H14.5a.5.5 0 00.43-.755L8.43 2.25zm-1.72-.51c.58-.981 2-.981 2.58 0l6.499 10.997A1.5 1.5 0 0114.499 15H1.5a1.5 1.5 0 01-1.29-2.264L6.71 1.74zM9 12a1 1 0 11-2 0 1 1 0 012 0zm-.25-5.248a.75.75 0 00-1.5 0v2.5a.75.75 0 001.5 0v-2.5z" clip-rule="evenodd"/>
</svg>
