<svg xmlns="http://www.w3.org/2000/svg" width="20" height="20" fill="currentColor" viewBox="0 0 20 20">
  <path fill-rule="evenodd" d="M10 1C8.343 1 7 2.342 7 3.997V13.2c0 .122.036.24.104.342l1.98 2.969c.218.326.567.489.916.489.349 0 .698-.163.915-.49l1.981-2.968A.617.617 0 0013 13.2V3.997A2.999 2.999 0 0010 1zM8 3.997a1.999 1.999 0 014 0v1H8v-1zm0 1.998v7.089l1.917 2.873a.1.1 0 00.166 0L12 13.084V5.995H8zm-.725 9.523c-2.23.108-1.862.47-1.51.816.052.05.102.1.145.149.212.243 1.086.418 2.334.478l-.97-1.442zm4.547 1.346c.236-.021.475-.046.716-.074 2.546-.292 2.65-.866.102-1.144l-.818 1.218zM5.5 13a.5.5 0 010 1h-3a.5.5 0 00-.5.5v3a.5.5 0 00.5.5h15a.5.5 0 00.5-.5v-3a.5.5 0 00-.5-.5h-3a.5.5 0 010-1h3a1.5 1.5 0 011.5 1.5v3a1.5 1.5 0 01-1.5 1.5h-15A1.5 1.5 0 011 17.5v-3A1.5 1.5 0 012.5 13h3z" clip-rule="evenodd"/>
</svg>
