<svg xmlns="http://www.w3.org/2000/svg" width="20" height="20" fill="currentColor" viewBox="0 0 20 20">
  <path d="M4.647 4.635C6.371 2.918 8.875 2 11 2c2.076 0 3.226.517 3.853 1.141a.5.5 0 01-.386.853.204.204 0 01-.048.006H12.5a2.5 2.5 0 000 5h4.826a.5.5 0 01.62.245c.032.063.07.134.113.213.154.286.365.68.54 1.194.227.671.401 1.556.401 2.8 0 .833-.211 1.503-.599 2.025-.385.517-.913.846-1.476 1.056-1.085.405-2.41.405-3.384.405H13.5c-1.61 0-3.558.333-5.9.733-.489.083-.995.17-1.518.256-1.518.252-2.814-.158-3.723-1.094C1.464 15.912 1 14.538 1 12.953c0-3.141 1.508-6.189 3.647-8.318z"/>
  <path d="M12 6.5a.5.5 0 00.5.5h6a.5.5 0 000-1h-6a.5.5 0 00-.5.5z"/>
</svg>
