<svg xmlns="http://www.w3.org/2000/svg" width="20" height="20" fill="currentColor" viewBox="0 0 20 20">
  <path d="M5 5.1C2.938 7.162 1.5 10 1.5 13s2 5 4.5 4.5c.653-.13 1.242-.262 1.792-.386 1.516-.34 2.74-.614 4.208-.614 2 0 6.5 0 6.5-3 0-2.12-.52-3.096-.872-3.754-.046-.087-.09-.168-.128-.246l-.195-.39a.2.2 0 00-.179-.11H12.5a2.5 2.5 0 010-5h1.904c.152 0 .248-.164.162-.29-.19-.28-.422-.523-.724-.678C13.249 2.729 12.354 2.5 11 2.5c-2 0-4.375.975-6 2.6z"/>
  <path fill-rule="evenodd" d="M11 2c-2.125 0-4.629.918-6.353 2.635C2.508 6.764 1 9.812 1 12.954c0 1.584.464 2.958 1.36 3.88.908.935 2.204 1.345 3.722 1.093.523-.087 1.029-.173 1.517-.256 2.343-.4 4.29-.733 5.901-.733h.041c.974 0 2.299 0 3.384-.405.563-.21 1.09-.539 1.476-1.056.388-.522.599-1.192.599-2.026 0-1.243-.174-2.128-.401-2.799a7.54 7.54 0 00-.54-1.194l-.112-.213a.5.5 0 10-.894.449c.047.093.095.183.145.276.15.28.308.576.453 1.004.19.557.349 1.331.349 2.477 0 .66-.164 1.11-.401 1.429-.24.322-.587.553-1.024.716-.9.336-2.053.342-3.075.342-1.703 0-3.756.351-6.1.752-.481.082-.976.167-1.482.25-1.234.205-2.188-.131-2.842-.803C2.41 15.45 2 14.357 2 12.954c0-2.832 1.369-5.635 3.353-7.61C6.879 3.823 9.125 3 11 3c1.924 0 2.774.478 3.147.85a.5.5 0 00.706-.709C14.226 2.517 13.076 2 11 2zm1.5 5a.5.5 0 010-1h6a.5.5 0 010 1h-6z" clip-rule="evenodd"/>
</svg>
