<svg xmlns="http://www.w3.org/2000/svg" width="20" height="20" fill="currentColor" viewBox="0 0 20 20">
  <path d="M15.848 17.143l1.576-2.521a.5.5 0 00.076-.265V6.5h-5v7.857a.5.5 0 00.076.265l1.576 2.521a1 1 0 001.696 0z"/>
  <path fill-rule="evenodd" d="M15 2c-1.657 0-3 1.341-3 2.996v9.378c0 .116.033.23.095.329l1.635 2.596a1.501 1.501 0 002.54 0l1.635-2.596a.617.617 0 00.095-.329V4.996A2.998 2.998 0 0015 2zm2 4V4.996a1.999 1.999 0 00-2-1.997c-1.105 0-2 .894-2 1.997V6h4zm-4 1v7.264l1.577 2.504a.5.5 0 00.846 0L17 14.264V7h-4zM2 6.5a.5.5 0 01.5-.5h6a.5.5 0 010 1h-6a.5.5 0 01-.5-.5zm.5 3a.5.5 0 000 1h6a.5.5 0 000-1h-6zm-.5 4a.5.5 0 01.5-.5h4a.5.5 0 010 1h-4a.5.5 0 01-.5-.5z" clip-rule="evenodd"/>
</svg>
