<svg xmlns="http://www.w3.org/2000/svg" width="20" height="20" fill="currentColor" viewBox="0 0 20 20">
  <path fill-rule="evenodd" d="M12.817 1.587a2 2 0 00-2.828 0L3.686 7.89a1.38 1.38 0 00-.01.01l-2.09 2.089a2 2 0 000 2.828l5.597 5.596a2 2 0 002.828 0l2.1-2.099 6.302-6.303a2 2 0 000-2.828l-5.596-5.596zm-2.121.707a1 1 0 011.414 0l5.596 5.596a1 1 0 010 1.414l-6.303 6.303-7.01-7.01 6.303-6.303zm-8.402 8.402l1.392-1.392 7.01 7.01-1.392 1.392a1 1 0 01-1.414 0L2.294 12.11a1 1 0 010-1.414z" clip-rule="evenodd"/>
</svg>
