<svg xmlns="http://www.w3.org/2000/svg" width="20" height="20" fill="currentColor" viewBox="0 0 20 20">
  <path fill-rule="evenodd" d="M8.392 16.185l8.66-8.66a3.236 3.236 0 10-4.577-4.577l-8.66 8.66a1.14 1.14 0 00-.264.413l-1.456 3.967c-.439 1.195.722 2.356 1.917 1.917l3.967-1.456a1.14 1.14 0 00.413-.264zM13.18 3.652a2.24 2.24 0 113.169 3.169l-.779.778-3.168-3.168.778-.779zm-1.482 1.483l3.168 3.168-7.177 7.178a.145.145 0 01-.053.033l-3.967 1.457a.498.498 0 01-.639-.64l1.457-3.966a.146.146 0 01.033-.053l7.178-7.177z" clip-rule="evenodd"/>
</svg>
