<svg xmlns="http://www.w3.org/2000/svg" fill="currentColor" viewBox="0 0 20 20">
  <path fill-rule="evenodd" d="M12 4.996A2.998 2.998 0 0115 2c1.657 0 3 1.341 3 2.996v9.378c0 .116-.033.23-.095.329l-1.635 2.596a1.501 1.501 0 01-2.54 0l-1.635-2.596a.617.617 0 01-.095-.329V4.996zM17 6h-4V4.996c0-1.103.895-1.997 2-1.997s2 .894 2 1.997V6zM2 6.5a.5.5 0 01.5-.5h6a.5.5 0 010 1h-6a.5.5 0 01-.5-.5zm.5 3a.5.5 0 000 1h6a.5.5 0 000-1h-6zm-.5 4a.5.5 0 01.5-.5h4a.5.5 0 010 1h-4a.5.5 0 01-.5-.5z" clip-rule="evenodd"/>
</svg>
