<svg xmlns="http://www.w3.org/2000/svg" width="16" height="16" fill="currentColor" viewBox="0 0 16 16">
  <path fill-rule="evenodd" d="M3.831 3.964C5.174 2.682 7.117 2 8.765 2c1.691 0 2.632.71 3.08 1.138a.5.5 0 01.017.707c-.12.125-.27.155-.436.155H9.5a1.5 1.5 0 100 3h3.626c.25 0 .6-.042.78.208l.057.08c.17.232.42.575.627 1.055.235.543.41 1.247.41 2.188 0 .64-.17 1.163-.487 1.573-.314.404-.74.656-1.183.814-.847.304-1.874.303-2.615.303h-.038c-1.223 0-2.702.242-4.493.536l-1.164.188c-1.187.189-2.214-.117-2.94-.834C1.364 12.405 1 11.358 1 10.166c0-2.353 1.176-4.622 2.831-6.202zM9 5.5a.5.5 0 00.5.5h5a.5.5 0 000-1h-5a.5.5 0 00-.5.5z" clip-rule="evenodd"/>
</svg>
