<svg xmlns="http://www.w3.org/2000/svg" fill="currentColor" viewBox="0 0 16 16">
  <path fill-rule="evenodd" d="M3.831 3.964C5.174 2.682 7.117 2 8.765 2c1.691 0 2.632.71 3.08 1.138a.5.5 0 01.017.707c-.12.125-.27.155-.436.155H9.5a1.5 1.5 0 100 3h3.626c.25 0 .6-.042.78.208l.057.08c.17.232.42.575.627 1.055.235.543.41 1.247.41 2.188 0 .64-.17 1.163-.487 1.573-.314.404-.74.656-1.183.814-.847.304-1.874.303-2.615.303h-.038c-1.223 0-2.702.242-4.493.536l-1.164.188c-1.187.189-2.214-.117-2.94-.834C1.364 12.405 1 11.358 1 10.166c0-2.353 1.176-4.622 2.831-6.202zM9 5.5a.5.5 0 00.5.5h5a.5.5 0 000-1h-5a.5.5 0 00-.5.5z" clip-rule="evenodd"/>
  <path d="M8.765 2c-1.648 0-3.591.682-4.934 1.964C2.176 5.544 1 7.814 1 10.166c0 1.192.364 2.239 1.08 2.945.726.717 1.753 1.023 2.94.834l1.164-.188c1.791-.294 3.27-.536 4.493-.536h.038c.74 0 1.768 0 2.615-.303.443-.158.869-.41 1.183-.814.318-.41.487-.933.487-1.573 0-.941-.175-1.645-.41-2.188-.207-.48-.457-.823-.626-1.056l-.058-.079a.5.5 0 10-.812.584l.062.085c.168.232.355.49.516.862.178.413.328.981.328 1.792 0 .456-.117.753-.277.96-.165.211-.408.37-.73.486-.667.239-1.53.244-2.316.244-1.312 0-2.892.26-4.684.553l-1.13.184c-.919.146-1.612-.096-2.08-.558C2.304 11.927 2 11.164 2 10.166c0-2.028 1.024-4.049 2.522-5.48C5.664 3.597 7.354 3 8.765 3c1.367 0 2.073.56 2.39.862a.5.5 0 00.69-.724C11.397 2.711 10.456 2 8.765 2z"/>
  <path d="M9.5 6a.5.5 0 010-1h5a.5.5 0 010 1h-5z"/>
</svg>
