<svg xmlns="http://www.w3.org/2000/svg" fill="currentColor" viewBox="0 0 20 20">
  <path d="M18.5 8.678c0-.154-.168-.252-.306-.184a5 5 0 01-6.688-6.688c.067-.138-.03-.306-.184-.306H3.5a2 2 0 00-2 2v9a2 2 0 002 2h1.8c.11 0 .2.09.2.2v2.828a.2.2 0 00.321.159l3.642-2.777a2 2 0 011.213-.41H16.5a2 2 0 002-2V8.678z"/>
  <path fill-rule="evenodd" d="M18.26 8.461c.321-.163.74.054.74.414V12.5a2.5 2.5 0 01-2.5 2.5h-5.824a1.5 1.5 0 00-.91.307L5 19v-4H3.5A2.5 2.5 0 011 12.5v-9A2.5 2.5 0 013.5 1h7.625c.274 0 .465.243.469.5.004.257-.196.5-.464.5H3.5A1.5 1.5 0 002 3.5v9A1.5 1.5 0 003.5 14h2a.5.5 0 01.5.5V17l3.16-2.488A2.5 2.5 0 0110.676 14H16.5a1.5 1.5 0 001.5-1.5V8.87c0-.174.105-.33.26-.409zM10.5 10a.5.5 0 000-1h-3a.5.5 0 000 1h3zm.5-3.5a.5.5 0 01-.5.5h-3a.5.5 0 010-1h3a.5.5 0 01.5.5z" clip-rule="evenodd"/>
  <circle cx="16" cy="4" r="4"/>
</svg>
