<svg xmlns="http://www.w3.org/2000/svg" width="20" height="20" fill="currentColor" viewBox="0 0 20 20">
  <path fill-rule="evenodd" d="M16 15.5H7A1.5 1.5 0 015.5 14V3A1.5 1.5 0 017 1.5h5.879c.387 0 .76.15 1.038.418a.25.25 0 00-.417.186V5.5h3.396a.25.25 0 00.186-.417A1.5 1.5 0 0117.5 6.12V14a1.5 1.5 0 01-1.5 1.5z" clip-rule="evenodd"/>
  <path fill-rule="evenodd" d="M6 3a1 1 0 011-1h6v4h4v8a1 1 0 01-1 1H7a1 1 0 01-1-1V3zm10.293 2L14 2.707V5h2.293zm1.156-.258A2 2 0 0118 6.122V14a2 2 0 01-2 2H7a2 2 0 01-2-2V3a2 2 0 012-2h5.879a2 2 0 011.401.573l.012.012 3.122 3.122.002.002.01.01a.82.82 0 01.023.023zM13.959 17a1 1 0 01-1 1H4.041a1 1 0 01-1-1V6A1 1 0 014 5V4a2 2 0 00-1.958 2v11a2 2 0 002 2h8.916a2 2 0 002-2h-1z" clip-rule="evenodd"/>
</svg>
