<svg xmlns="http://www.w3.org/2000/svg" width="20" height="20" fill="currentColor" viewBox="0 0 20 20">
  <path d="M1.518 10.482a.556.556 0 000 .786l6.285 6.285a.555.555 0 00.786 0l7.856-7.856a.553.553 0 00.105-.147H2.45l-.932.932z"/>
  <path fill-rule="evenodd" d="M17 18c1.105 0 2-.882 2-1.97 0-1.327-2-3.03-2-3.03s-2 1.707-2 3.03c0 1.088.896 1.97 2 1.97z" clip-rule="evenodd"/>
  <g>
    <path fill-rule="evenodd" d="M1.447 9.64l4.607-4.607-1.802-1.082a.5.5 0 11.515-.859l2.018 1.21L8.64 2.448a1.526 1.526 0 012.158 0l5.755 5.755a1.526 1.526 0 010 2.158L9.36 17.553a1.526 1.526 0 01-2.158 0l-5.755-5.755a1.526 1.526 0 010-2.158zm8.632-6.474l5.755 5.755a.509.509 0 01.084.111H3.494l3.46-3.46L9.26 6.957a.5.5 0 00.516-.859L7.684 4.842 9.36 3.166a.509.509 0 01.719 0zm-7.587 6.868l-.326.326a.509.509 0 000 .719l5.755 5.755c.199.198.52.198.72 0l6.799-6.8H2.492zM19 16.03c0 1.088-.895 1.97-2 1.97s-2-.882-2-1.97c0-1.323 2-3.03 2-3.03s2 1.703 2 3.03zm-1 0c0 .521-.434.97-1 .97-.566 0-1-.448-1-.97 0-.095.042-.278.192-.556.143-.264.347-.544.572-.81.08-.094.159-.184.236-.268.078.084.157.173.236.267.225.265.429.545.572.81.15.277.192.46.192.556z" clip-rule="evenodd"/>
  </g>
</svg>
