<svg xmlns="http://www.w3.org/2000/svg" width="20" height="20" fill="currentColor" viewBox="0 0 20 20">
  <path fill-rule="evenodd" d="M15.834 8.921l-5.755-5.755a.509.509 0 00-.72 0L7.685 4.842l2.093 1.256a.501.501 0 01-.516.86L6.953 5.571l-3.46 3.46h12.425a.509.509 0 00-.084-.111zm-9.78-3.888L1.447 9.64a1.526 1.526 0 000 2.158l5.755 5.755a1.526 1.526 0 002.158 0l7.193-7.193a1.526 1.526 0 000-2.158l-5.755-5.755a1.526 1.526 0 00-2.158 0L6.785 4.303l-2.018-1.21a.5.5 0 00-.515.858l1.802 1.082zM2.166 10.36l.326-.326H15.44l-6.8 6.8a.509.509 0 01-.719 0l-5.755-5.755a.509.509 0 010-.72zM17 17c.566 0 1-.448 1-.97 0-.096-.042-.28-.192-.557a4.994 4.994 0 00-.572-.81 8.208 8.208 0 00-.236-.267 8.054 8.054 0 00-.236.268 5.006 5.006 0 00-.572.81c-.15.278-.192.461-.192.555 0 .523.434.97 1 .97zm0 1c1.105 0 2-.882 2-1.97 0-1.327-2-3.03-2-3.03s-2 1.707-2 3.03c0 1.088.895 1.97 2 1.97z" clip-rule="evenodd"/>
</svg>
