<svg xmlns="http://www.w3.org/2000/svg" width="20" height="20" fill="currentColor" viewBox="0 0 20 20">
  <mask id="a">
    <path fill-rule="evenodd" d="M2 3a2 2 0 012-2h12a2 2 0 012 2v11.5a2 2 0 01-2 2H2V3zm7 9a1 1 0 112 0 1 1 0 01-2 0zm.05-5.605c0-.593.523-1.145 1.25-1.145s1.25.552 1.25 1.145a.764.764 0 01-.157.498c-.123.165-.306.323-.614.572l-.019.016-.004.004a7.39 7.39 0 01-.164.127c-.443.34-1.143.877-1.306 1.908a.75.75 0 101.482.233c.065-.41.27-.573.718-.931l.213-.172.02-.015.004-.003.034-.028c.562-.456 1.293-1.05 1.293-2.21 0-1.496-1.272-2.644-2.75-2.644S7.55 4.898 7.55 6.395a.75.75 0 101.5 0z" clip-rule="evenodd"/>
  </mask>
  <path fill-rule="evenodd" d="M2 3a2 2 0 012-2h12a2 2 0 012 2v11.5a2 2 0 01-2 2H2V3zm7 9a1 1 0 112 0 1 1 0 01-2 0zm.05-5.605c0-.593.523-1.145 1.25-1.145s1.25.552 1.25 1.145a.764.764 0 01-.157.498c-.123.165-.306.323-.614.572l-.019.016-.004.004a7.39 7.39 0 01-.164.127c-.443.34-1.143.877-1.306 1.908a.75.75 0 101.482.233c.065-.41.27-.573.718-.931l.213-.172.02-.015.004-.003.034-.028c.562-.456 1.293-1.05 1.293-2.21 0-1.496-1.272-2.644-2.75-2.644S7.55 4.898 7.55 6.395a.75.75 0 101.5 0z" clip-rule="evenodd"/>
  <path d="M2 16.5H1v1h1v-1zm9.393-9.607l-.804-.595.804.595zm-.614.572l.625.782.006-.005-.63-.777zm-.019.016l-.78.624.624.78.78-.623-.624-.781zm0 0l.781-.625-.63-.787-.781.636.63.776zm-.004.004l-.631-.777.63.777zm-.164.127l-.608-.794.608.794zM9.286 9.52L8.3 9.365l.987.155zm.625.858l-.156.988.156-.988zm.857-.625l-.988-.155.988.155zm.718-.931l-.624-.782.624.782zm.213-.172l-.624-.78-.006.004.63.776zm.02-.015l.776-.63-.625-.77-.776.62.624.78zm0 0l-.777.63.63.778.777-.631-.63-.777zm.004-.003l-.63-.777.63.777zm.034-.028l-.63-.777.63.777zM4 0a3 3 0 00-3 3h2a1 1 0 011-1V0zm12 0H4v2h12V0zm3 3a3 3 0 00-3-3v2a1 1 0 011 1h2zm0 11.5V3h-2v11.5h2zm-3 3a3 3 0 003-3h-2a1 1 0 01-1 1v2zm-14 0h14v-2H2v2zM1 3v13.5h2V3H1zm9 7a2 2 0 00-2 2h2v-2zm2 2a2 2 0 00-2-2v2h2zm-2 2a2 2 0 002-2h-2v2zm-2-2a2 2 0 002 2v-2H8zm2.3-7.75c-1.238 0-2.25.959-2.25 2.145h2s0-.008.006-.021a.17.17 0 01.038-.051.29.29 0 01.206-.073v-2zm2.25 2.145c0-1.186-1.012-2.145-2.25-2.145v2c.104 0 .17.037.206.073.02.019.032.037.038.05.006.014.006.021.006.022h2zm-.353 1.092a1.76 1.76 0 00.353-1.092h-2c0 .023-.003.003.011-.038a.307.307 0 01.021-.047l.007-.012 1.608 1.19zm-.787.755c.286-.232.575-.47.787-.755l-1.608-1.19c-.034.046-.111.125-.44.392l1.26 1.553zm-.025.02l.019-.015-1.249-1.563-.019.016 1.249 1.562zm-1.406-.157l1.562-1.249-1.562 1.25zm1.407.156l.005-.004-1.261-1.552-.005.003 1.261 1.553zm-.185.144c.057-.043.124-.094.185-.144l-1.261-1.552a6.405 6.405 0 01-.141.11L11.2 8.404zm-.927 1.27c.095-.604.484-.93.927-1.27L9.984 6.818c-.443.34-1.456 1.09-1.685 2.547l1.975.31zm-.208-.285a.25.25 0 01.208.286L8.3 9.365a1.75 1.75 0 001.456 2l.311-1.975zm-.286.208a.25.25 0 01.286-.208l-.31 1.976a1.75 1.75 0 002-1.457L9.78 9.598zm1.082-1.558c-.196.156-.45.354-.644.583a1.922 1.922 0 00-.438.975l1.976.31c.005-.03.008-.03 0-.014-.007.018-.014.026-.008.018a.97.97 0 01.1-.095 9.28 9.28 0 01.262-.213L10.862 8.04zm.207-.166c-.073.06-.14.113-.207.166l1.248 1.564.22-.177-1.261-1.553zm.025-.02l-.02.015 1.25 1.563.019-.016-1.25-1.562zm1.401.152l-1.553 1.26 1.553-1.26zm-1.403-.15l-.004.003 1.26 1.553.005-.004-1.26-1.553zm.035-.029l-.034.028 1.26 1.553.034-.028-1.26-1.553zm.923-1.432c0 .643-.35.967-.923 1.432l1.26 1.554c.55-.447 1.663-1.31 1.663-2.986h-2zM10.3 4.75c.982 0 1.75.755 1.75 1.645h2c0-2.103-1.776-3.645-3.75-3.645v2zM8.55 6.395c0-.89.768-1.645 1.75-1.645v-2c-1.974 0-3.75 1.542-3.75 3.645h2zm-.25-.25a.25.25 0 01.25.25h-2c0 .966.783 1.75 1.75 1.75v-2zm-.25.25a.25.25 0 01.25-.25v2a1.75 1.75 0 001.75-1.75h-2z" mask="url(#a)"/>
  <path d="M17.5 19a.5.5 0 000-1v1zM3 4.5a.5.5 0 00-1 0h1zM17.5 18h-13v1h13v-1zM3 16.5v-12H2v12h1zM4.5 18A1.5 1.5 0 013 16.5H2A2.5 2.5 0 004.5 19v-1z"/>
  <path fill-rule="evenodd" d="M4 1a2 2 0 00-2 2v13.5A2.5 2.5 0 004.5 19h13a.5.5 0 000-1h-13A1.5 1.5 0 013 16.5h13a2 2 0 002-2V3a2 2 0 00-2-2H4zm6 10a1 1 0 100 2 1 1 0 000-2zm.3-5.75c-.727 0-1.25.552-1.25 1.145a.75.75 0 01-1.5 0c0-1.497 1.272-2.645 2.75-2.645s2.75 1.148 2.75 2.645c0 1.16-.731 1.753-1.293 2.209l-.034.028-.005.003-.019.015c-.076.063-.147.12-.213.172-.449.358-.653.52-.718.931a.75.75 0 11-1.482-.233c.163-1.03.863-1.568 1.306-1.908a7.39 7.39 0 00.164-.127l.004-.004.02-.016c.307-.25.49-.407.613-.572a.764.764 0 00.157-.498c0-.593-.523-1.145-1.25-1.145z" clip-rule="evenodd"/>
</svg>
