<svg xmlns="http://www.w3.org/2000/svg" fill="currentColor" viewBox="0 0 20 20">
  <path fill-rule="evenodd" d="M4.854 4.146l.129.13c.018.027.04.053.063.078l10.871 10.87a.5.5 0 01-.77.63L13.693 14.4C12.689 14.764 11.47 15 10 15c-5.285 0-7.32-3.047-7.866-4.12a1.232 1.232 0 01-.032-1.048 7.983 7.983 0 013.32-3.704L4.145 4.854a.5.5 0 11.708-.708zM8 10c0-.37.101-.718.277-1.016l2.739 2.74A2 2 0 018 10zm7.889 3.21c1.121-.863 1.718-1.82 1.977-2.33.17-.333.175-.714.032-1.048C17.402 8.671 15.395 5 10 5c-.604 0-1.165.046-1.687.13-.398.063-.531.544-.246.83l1.88 1.88a.719.719 0 00.392.189c.833.142 1.49.799 1.632 1.632a.719.719 0 00.19.392l3.107 3.108a.471.471 0 00.62.048z" clip-rule="evenodd"/>
</svg>
