<svg xmlns="http://www.w3.org/2000/svg" fill="currentColor" viewBox="0 0 20 20">
  <path fill-rule="evenodd" d="M4 1a2 2 0 00-2 2v13.5A2.5 2.5 0 004.5 19h13a.5.5 0 000-1h-13A1.5 1.5 0 013 16.5h13a2 2 0 002-2V3a2 2 0 00-2-2H4zm6 10a1 1 0 100 2 1 1 0 000-2zm.3-5.75c-.727 0-1.25.552-1.25 1.145a.75.75 0 01-1.5 0c0-1.497 1.272-2.645 2.75-2.645s2.75 1.148 2.75 2.645c0 1.16-.731 1.753-1.293 2.209l-.034.028-.005.003-.019.015c-.076.063-.147.12-.213.172-.449.358-.653.52-.718.931a.75.75 0 11-1.482-.233c.163-1.03.863-1.568 1.306-1.908a7.39 7.39 0 00.164-.127l.004-.004.02-.016c.307-.25.49-.407.613-.572a.764.764 0 00.157-.498c0-.593-.523-1.145-1.25-1.145z" clip-rule="evenodd"/>
</svg>
