<svg xmlns="http://www.w3.org/2000/svg" fill="currentColor" viewBox="0 0 20 20">
  <path fill-rule="evenodd" d="M17.866 10.88c-.26.51-.856 1.467-1.977 2.33a.471.471 0 01-.621-.05l-3.108-3.107a.719.719 0 01-.189-.392 2.002 2.002 0 00-1.632-1.632.719.719 0 01-.392-.19l-1.88-1.88c-.285-.285-.152-.766.246-.83C8.835 5.046 9.396 5 10 5c5.395 0 7.402 3.671 7.898 4.832.143.334.138.715-.032 1.049zm-14.85-.653a6.926 6.926 0 013.143-3.36l1.396 1.395a3 3 0 004.184 4.184l1.162 1.162C12.088 13.85 11.128 14 10 14c-4.802 0-6.548-2.726-6.98-3.575a.228.228 0 01-.004-.198z" clip-rule="evenodd"/>
  <path fill-rule="evenodd" d="M4.983 4.276l-.13-.13a.5.5 0 10-.707.708l1.275 1.274a7.983 7.983 0 00-3.32 3.704c-.142.334-.137.715.033 1.049C2.68 11.953 4.715 15 10 15c1.47 0 2.689-.236 3.694-.6l1.452 1.454a.5.5 0 00.771-.63L5.047 4.354a.503.503 0 01-.064-.078zm10.285 8.885a.471.471 0 00.62.048c1.122-.862 1.719-1.818 1.978-2.328.17-.334.175-.715.032-1.049C17.402 8.671 15.395 5 10 5c-.604 0-1.165.046-1.687.13-.398.063-.532.544-.246.83a.541.541 0 00.465.148C8.987 6.038 9.475 6 10 6c4.82 0 6.56 3.235 6.984 4.227.03.07.026.14-.004.198-.202.397-.691 1.204-1.646 1.952-.247.193-.288.562-.066.784zm-3.108-3.108c.328.327.866.166.828-.295a3.022 3.022 0 00-.75-1.755 3.03 3.03 0 00-1.996-.99c-.461-.04-.622.5-.295.827a.719.719 0 00.392.189c.833.142 1.49.799 1.632 1.632a.719.719 0 00.19.392zm-9.144.174a6.926 6.926 0 013.143-3.36l1.396 1.395a3 3 0 004.184 4.184l1.162 1.162C12.088 13.85 11.128 14 10 14c-4.802 0-6.548-2.726-6.98-3.575a.228.228 0 01-.004-.198zm5.26-1.243a2 2 0 002.74 2.74l-2.74-2.74z" clip-rule="evenodd"/>
</svg>
