<svg xmlns="http://www.w3.org/2000/svg" width="20" height="20" fill="currentColor" viewBox="0 0 20 20">
  <path d="M2 12l5.968 5.738c1.5 1.5 3.152 1.762 4.527 1.762 2.486 0 5.978-1 6.005-5V6a1.5 1.5 0 00-3 0V3a1.5 1.5 0 00-3 0V2a1.5 1.5 0 00-3 0v6.8V4a1.5 1.5 0 00-3 0v7.3l-2-1.8c-.663-.672-1.828-.663-2.5 0-.672.663-.663 1.828 0 2.5z"/>
  <path stroke-linecap="round" stroke-linejoin="round" d="M7.968 17.738L2 12c-.663-.672-.672-1.837 0-2.5s1.837-.672 2.5 0l2 1.8V4a1.5 1.5 0 113 0v4.8V2a1.5 1.5 0 013 0v6.8V3a1.5 1.5 0 013 0v5.8V6a1.5 1.5 0 013 0v8.5c-.027 4-3.52 5-6.005 5-1.375 0-3.027-.262-4.527-1.762z"/>
</svg>
