<svg xmlns="http://www.w3.org/2000/svg" fill="currentColor" viewBox="0 0 20 20">
  <path fill-rule="evenodd" d="M19 5.579v9.393c-.015 2.034-.905 3.26-2.091 4-1.217.76-2.782 1.028-4.118 1.028-1.464 0-3.159-.272-4.706-1.8l-.007-.008-6.668-6.337c-.547-.553-.546-1.52 0-2.052.558-.544 1.54-.544 2.08-.004a.507.507 0 00.021.02l2.237 1.99a.51.51 0 00.544.085.5.5 0 00.3-.457V3.368c0-.64.525-1.157 1.172-1.157.647 0 1.171.518 1.171 1.157v5.306c0 .276.227.5.506.5.28 0 .506-.224.506-.5V1.158C9.947.518 10.472 0 11.12 0c.647 0 1.171.518 1.171 1.158V8.673c0 .277.227.5.506.5.28 0 .506-.223.506-.5v-6.41c0-.64.525-1.158 1.172-1.158.647 0 1.171.519 1.171 1.158v6.411c0 .276.227.5.506.5.28 0 .506-.224.506-.5V5.579c0-.64.525-1.158 1.172-1.158.646 0 1.171.518 1.171 1.158z" clip-rule="evenodd"/>
</svg>
