<svg xmlns="http://www.w3.org/2000/svg" width="20" height="20" fill="currentColor" viewBox="0 0 20 20">
  <path fill-rule="evenodd" d="M10.812 2.28a1.31 1.31 0 00-1.624 0L2.57 7.51A1.5 1.5 0 002 8.685V17a1 1 0 001 1h3v-4.5A1.5 1.5 0 017.5 12h5a1.5 1.5 0 011.5 1.5V18h3a1 1 0 001-1V8.686a1.5 1.5 0 00-.57-1.177l-6.618-5.23zm-2.244-.785a2.31 2.31 0 012.864 0l6.618 5.23A2.5 2.5 0 0119 8.686V17a2 2 0 01-2 2h-3a1 1 0 01-1-1v-4.5a.5.5 0 00-.5-.5h-5a.5.5 0 00-.5.5V18a1 1 0 01-1 1H3a2 2 0 01-2-2V8.686a2.5 2.5 0 01.95-1.961l6.618-5.23z" clip-rule="evenodd"/>
</svg>
