<svg xmlns="http://www.w3.org/2000/svg" width="20" height="20" fill="currentColor" viewBox="0 0 20 20">
  <path d="M6.5 13.5H7h-.5zm1-1V12v.5zm5 0v.5-.5zm1 1H13h.5zm-7 4.5H6h.5zM8.878 1.887l-.31-.392.31.392zM2.26 7.117l-.31-.392.31.392zM18 8.687V17h1V8.686h-1zM2 17V8.686H1V17h1zm.57-9.49l6.618-5.23-.62-.785-6.618 5.23.62.784zm8.242-5.23l6.618 5.23.62-.785-6.618-5.23-.62.784zM6 18H3v1h3v-1zm11 0h-3v1h3v-1zM7 18v-4.5H6V18h1zm.5-5h5v-1h-5v1zm5.5.5V18h1v-4.5h-1zm-.5-.5a.5.5 0 01.5.5h1a1.5 1.5 0 00-1.5-1.5v1zm-5.5.5a.5.5 0 01.5-.5v-1A1.5 1.5 0 006 13.5h1zm7 4.5h-1a1 1 0 001 1v-1zm-8 1a1 1 0 001-1H6v1zM9.188 2.28a1.31 1.31 0 011.624 0l.62-.785a2.31 2.31 0 00-2.864 0l.62.784zM1 17a2 2 0 002 2v-1a1 1 0 01-1-1H1zm17 0a1 1 0 01-1 1v1a2 2 0 002-2h-1zm1-8.314a2.5 2.5 0 00-.95-1.961l-.62.784c.36.285.57.718.57 1.177h1zm-17 0c0-.459.21-.892.57-1.177l-.62-.784A2.5 2.5 0 001 8.686h1z"/>
  <path d="M18.5 17V8.686a2 2 0 00-.76-1.569l-6.618-5.23a1.81 1.81 0 00-2.244 0L2.26 7.117a2 2 0 00-.76 1.57V17A1.5 1.5 0 003 18.5h3a.5.5 0 00.5-.5v-4.5a1 1 0 011-1h5a1 1 0 011 1V18a.5.5 0 00.5.5h3a1.5 1.5 0 001.5-1.5z"/>
  <path fill-rule="evenodd" d="M10.812 2.28a1.31 1.31 0 00-1.624 0L2.57 7.51A1.5 1.5 0 002 8.685V17a1 1 0 001 1h3v-4.5A1.5 1.5 0 017.5 12h5a1.5 1.5 0 011.5 1.5V18h3a1 1 0 001-1V8.686a1.5 1.5 0 00-.57-1.177l-6.618-5.23zm-2.244-.785a2.31 2.31 0 012.864 0l6.618 5.23A2.5 2.5 0 0119 8.686V17a2 2 0 01-2 2h-3a1 1 0 01-1-1v-4.5a.5.5 0 00-.5-.5h-5a.5.5 0 00-.5.5V18a1 1 0 01-1 1H3a2 2 0 01-2-2V8.686a2.5 2.5 0 01.95-1.961l6.618-5.23z" clip-rule="evenodd"/>
</svg>
