<svg xmlns="http://www.w3.org/2000/svg" fill="currentColor" viewBox="0 0 20 20">
  <path fill-rule="evenodd" d="M11 2c-2.125 0-4.629.918-6.353 2.635C2.508 6.764 1 9.812 1 12.954c0 1.584.464 2.958 1.36 3.88.908.935 2.204 1.345 3.722 1.093.523-.087 1.029-.173 1.517-.256 2.343-.4 4.29-.733 5.901-.733h.041c.974 0 2.299 0 3.384-.405.563-.21 1.09-.539 1.476-1.056.388-.522.599-1.192.599-2.026 0-1.282-.185-2.182-.423-2.86a.5.5 0 00-.715-.271c-.184.102-.308.433-.362.518-.443.699-1.111 1.162-2 1.162A2.5 2.5 0 0113 9.5a.5.5 0 00-.5-.5 2.5 2.5 0 010-5 .5.5 0 00.5-.5s.007-.506 0-.803a.505.505 0 00-.417-.577A9.532 9.532 0 0011 2z" clip-rule="evenodd"/>
  <path d="M11 2c-2.125 0-4.629.918-6.353 2.635C2.508 6.764 1 9.812 1 12.954c0 1.584.464 2.958 1.36 3.88.908.935 2.204 1.345 3.722 1.093.523-.087 1.029-.173 1.517-.256 2.343-.4 4.29-.733 5.901-.733h.041c.974 0 2.299 0 3.384-.405.563-.21 1.09-.539 1.476-1.056.388-.522.599-1.192.599-2.026 0-1.282-.185-2.182-.423-2.86a.5.5 0 10-.943.331c.197.561.366 1.348.366 2.53 0 .659-.164 1.109-.401 1.428-.24.322-.587.553-1.024.716-.9.336-2.053.342-3.075.342-1.703 0-3.756.351-6.1.752-.481.082-.976.166-1.482.25-1.234.205-2.188-.131-2.842-.803C2.41 15.45 2 14.357 2 12.954c0-2.832 1.369-5.635 3.353-7.61C6.879 3.823 9.125 3 11 3c.556 0 1.024.04 1.417.106a.5.5 0 00.166-.986A9.532 9.532 0 0011 2z"/>
  <path d="M15.5 3a.5.5 0 00-.5.5V6h-2.5a.5.5 0 000 1H15v2.5a.5.5 0 001 0V7h2.5a.5.5 0 000-1H16V3.5a.5.5 0 00-.5-.5z"/>
</svg>
