<svg xmlns="http://www.w3.org/2000/svg" width="16" height="16" fill="currentColor" viewBox="0 0 16 16">
  <path fill-rule="evenodd" d="M8.765 2c-1.648 0-3.591.682-4.934 1.964C2.176 5.544 1 7.814 1 10.166c0 1.192.364 2.239 1.08 2.945.726.717 1.753 1.023 2.94.834l1.164-.188c1.791-.294 3.27-.536 4.493-.536h.038c.74 0 1.768 0 2.615-.303.443-.158.869-.41 1.183-.814.318-.41.487-.933.487-1.573 0-1.137-.256-1.924-.557-2.497a.5.5 0 00-.94.18 1.879 1.879 0 00-.037.105A1.5 1.5 0 0110.5 8a1 1 0 00-1-1 1.5 1.5 0 110-3 1 1 0 001-1c0-.322.097-.69-.322-.81a4.687 4.687 0 00-.604-.132A5.459 5.459 0 008.764 2z" clip-rule="evenodd"/>
  <path d="M3.831 3.964C5.174 2.682 7.117 2 8.765 2c.29 0 .56.021.81.058.215.033.416.077.603.131a.5.5 0 01-.277.961 3.685 3.685 0 00-.475-.103c-.2-.03-.42-.047-.661-.047-1.411 0-3.1.596-4.243 1.687C3.024 6.117 2 8.138 2 10.166c0 .998.304 1.761.783 2.234.468.462 1.161.704 2.08.558.385-.062.762-.123 1.13-.184 1.791-.293 3.372-.553 4.684-.553.786 0 1.649-.005 2.316-.244.322-.116.566-.275.73-.486.16-.207.277-.504.277-.96 0-.974-.216-1.601-.443-2.032a.5.5 0 01.886-.465c.301.573.557 1.36.557 2.497 0 .64-.17 1.163-.487 1.573-.314.404-.74.656-1.183.814-.847.304-1.874.303-2.615.303h-.038c-1.223 0-2.702.242-4.493.536l-1.164.188c-1.187.189-2.214-.117-2.94-.834C1.364 12.405 1 11.358 1 10.166c0-2.353 1.176-4.622 2.831-6.202z"/>
  <path d="M9 5.5a.5.5 0 00.5.5h2v2a.5.5 0 001 0V6h2a.5.5 0 000-1h-2V3a.5.5 0 00-1 0v2h-2a.5.5 0 00-.5.5z"/>
</svg>
