<svg xmlns="http://www.w3.org/2000/svg" width="16" height="16" fill="currentColor" viewBox="0 0 16 16">
  <path d="M8.765 2c-1.648 0-3.591.682-4.934 1.964C2.176 5.544 1 7.814 1 10.166c0 1.192.364 2.239 1.08 2.945.726.717 1.753 1.023 2.94.834l1.164-.188c1.791-.294 3.27-.536 4.493-.536h.038c.74 0 1.768 0 2.615-.303.443-.158.869-.41 1.183-.814.318-.41.487-.933.487-1.573 0-1.137-.256-1.924-.557-2.497a.5.5 0 00-.94.18 1.879 1.879 0 00-.037.105A1.5 1.5 0 0110.5 8a1 1 0 00-1-1 1.5 1.5 0 110-3 1 1 0 001-1c0-.051.002-.103.005-.155.013-.277.026-.554-.327-.656a4.687 4.687 0 00-.604-.13A5.459 5.459 0 008.764 2z"/>
  <path d="M9 5.5a.5.5 0 00.5.5h2v2a.5.5 0 001 0V6h2a.5.5 0 000-1h-2V3a.5.5 0 00-1 0v2h-2a.5.5 0 00-.5.5z"/>
</svg>
