<svg xmlns="http://www.w3.org/2000/svg" width="20" height="20" fill="currentColor" viewBox="0 0 20 20">
  <path d="M4.647 4.635C6.371 2.918 8.875 2 11 2c.604 0 1.128.044 1.583.12a.505.505 0 01.417.577c.007.297 0 .803 0 .803a.5.5 0 01-.5.5 2.5 2.5 0 000 5 .5.5 0 01.5.5 2.5 2.5 0 002.5 2.5c.889 0 1.557-.463 2-1.162.012-.02.029-.052.048-.092.066-.133.173-.348.315-.426a.5.5 0 01.715.272c.237.677.422 1.577.422 2.86 0 .833-.211 1.503-.599 2.025-.385.517-.913.846-1.476 1.056-1.085.405-2.41.405-3.384.405H13.5c-1.61 0-3.558.333-5.9.733-.489.083-.995.17-1.518.256-1.518.252-2.814-.158-3.723-1.094C1.464 15.912 1 14.538 1 12.953c0-3.141 1.508-6.189 3.647-8.318z"/>
  <path d="M15.5 3a.5.5 0 00-.5.5V6h-2.5a.5.5 0 000 1H15v2.5a.5.5 0 001 0V7h2.5a.5.5 0 000-1H16V3.5a.5.5 0 00-.5-.5z"/>
</svg>
