<svg xmlns="http://www.w3.org/2000/svg" width="20" height="20" fill="currentColor" viewBox="0 0 20 20">
  <path stroke-linecap="round" d="M13.5 5.5h-11M13.5 14.5h-11M11.5 10h-9"/>
  <path stroke-linecap="round" stroke-linejoin="round" d="M17.5 12.5l-3-2.5 3-2.5"/>
  <path fill-rule="evenodd" d="M2.5 5a.5.5 0 000 1h11a.5.5 0 000-1h-11zm0 9a.5.5 0 000 1h11a.5.5 0 000-1h-11zM2 10a.5.5 0 01.5-.5h9a.5.5 0 010 1h-9A.5.5 0 012 10zm15.18 2.884a.5.5 0 00.64-.768L15.281 10l2.54-2.116a.5.5 0 00-.641-.768l-3 2.5a.5.5 0 000 .768l3 2.5z" clip-rule="evenodd"/>
</svg>
