<svg xmlns="http://www.w3.org/2000/svg" width="20" height="20" fill="currentColor" viewBox="0 0 20 20">
  <path fill-rule="evenodd" d="M14.375 3.168A1.857 1.857 0 0116.83 5.63l-1.867 4.064c.184 1.632-.328 3.371-1.601 4.643-1.008 1.007-2.579 1.623-4.112 2.01-1.551.39-3.144.568-4.267.648a1.855 1.855 0 01-1.044-.228l5.801-5.8A1.001 1.001 0 1010 9a1 1 0 00-.966 1.259l-5.8 5.8a1.865 1.865 0 01-.227-1.076c.1-1.137.296-2.755.683-4.308.381-1.529.968-3.089 1.905-4.025 1.279-1.278 3.047-1.798 4.702-1.614l4.078-1.868zm-2.537 2.263a5.048 5.048 0 011.633 1.084c.474.474.84 1.035 1.096 1.645l1.354-2.948a.855.855 0 00-1.13-1.133l-2.953 1.352z" clip-rule="evenodd"/>
</svg>
