<svg xmlns="http://www.w3.org/2000/svg" width="20" height="20" fill="currentColor" viewBox="0 0 20 20">
  <path d="M12.97 9.13a1 1 0 010 1.74L4.994 15.4a1 1 0 01-1.494-.87V5.469a1 1 0 011.494-.87l7.976 4.533z"/>
  <path fill-rule="evenodd" d="M13.24 11.297a1.486 1.486 0 000-2.594L5.245 4.197C4.244 3.632 3 4.35 3 5.494v9.012c0 1.144 1.244 1.862 2.246 1.297l7.993-4.506zm-.496-1.73a.495.495 0 010 .865l-7.993 4.506a.501.501 0 01-.749-.432V5.494c0-.381.415-.62.749-.433l7.993 4.507z" clip-rule="evenodd"/>
  <path d="M17 4.5a.5.5 0 00-1 0v11a.5.5 0 001 0v-11z"/>
</svg>
