<svg xmlns="http://www.w3.org/2000/svg" fill="currentColor" viewBox="0 0 20 20">
  <path d="M1.5 4.5a2 2 0 012-2h3.094a1 1 0 01.851.476l1.262 2.048a1 1 0 00.852.476H16.5a2 2 0 012 2v8a2 2 0 01-2 2h-13a2 2 0 01-2-2v-11z"/>
  <path fill-rule="evenodd" d="M10.5 3h.87a.5.5 0 01.414.221L12.98 5H9.559a.5.5 0 01-.426-.238L8.047 3H10.5zM6.245 3H6.6a.5.5 0 01.42.238L8.28 5.287A1.5 1.5 0 009.56 6H16.5A1.5 1.5 0 0118 7.5v8a1.5 1.5 0 01-1.5 1.5h-13A1.5 1.5 0 012 15.5v-11A1.5 1.5 0 013.5 3h2.745zm.36-1h4.765c.499 0 .966.249 1.244.663l1.551 2.308a.47.47 0 01.018.029H16.5A2.5 2.5 0 0119 7.5v8a2.5 2.5 0 01-2.5 2.5h-13A2.5 2.5 0 011 15.5v-11A2.5 2.5 0 013.5 2H6.604z" clip-rule="evenodd"/>
</svg>
