<svg xmlns="http://www.w3.org/2000/svg" width="20" height="20" fill="currentColor" viewBox="0 0 20 20">
  <path fill-rule="evenodd" d="M4.618 16.146c-.296.584-.537 1.021-.831 1.335-.306.325-.674.52-1.287.519a.5.5 0 000 1c.887 0 1.52-.306 2.015-.834.36-.384.643-.88.913-1.407a2.5 2.5 0 003.387-1.315l4.422-.947 2.367-.508a.501.501 0 00.39-.407l2-12A.5.5 0 0017.2 1.1L9.463 6.903 2.748 3.066a.5.5 0 00-.73.568l2.567 9.259A2.49 2.49 0 004 14.5c0 .63.233 1.206.618 1.646zM6.5 13a1.5 1.5 0 100 3 1.5 1.5 0 000-3z" clip-rule="evenodd"/>
</svg>
