<svg xmlns="http://www.w3.org/2000/svg" fill="currentColor" viewBox="0 0 20 20">
  <rect width="16" height="12" x="2" y="7" rx="2"/>
  <path fill-rule="evenodd" d="M6.695 3.831c-.49.938-.651 2.107-.687 3.169h7.984c-.036-1.062-.198-2.23-.687-3.169-.279-.535-.66-.986-1.178-1.305C11.608 2.206 10.922 2 10 2c-.922 0-1.608.207-2.127.526-.519.32-.9.77-1.178 1.305zm-.887-.462c-.593 1.139-.765 2.496-.8 3.631H4a2 2 0 00-2 2v8a2 2 0 002 2h12a2 2 0 002-2V9a2 2 0 00-2-2h-1.008c-.035-1.135-.207-2.492-.8-3.631-.347-.665-.841-1.264-1.541-1.695C11.951 1.244 11.076 1 10 1c-1.076 0-1.95.243-2.651.674-.7.43-1.194 1.03-1.54 1.695zM16 8H4a1 1 0 00-1 1v8a1 1 0 001 1h12a1 1 0 001-1V9a1 1 0 00-1-1zm-9.25 5.5a.75.75 0 100-1.5.75.75 0 000 1.5zm3.25 0a.75.75 0 100-1.5.75.75 0 000 1.5zm4-.75a.75.75 0 11-1.5 0 .75.75 0 011.5 0z" clip-rule="evenodd"/>
</svg>
