<svg xmlns="http://www.w3.org/2000/svg" fill="currentColor" viewBox="0 0 20 20">
  <path fill-rule="evenodd" d="M10.354 2.146a.5.5 0 00-.708 0l-2.5 2.5a.5.5 0 10.708.708L9.5 3.707V9.5H3.707l1.647-1.646a.5.5 0 10-.708-.708l-2.5 2.5a.5.5 0 000 .708l2.5 2.5a.5.5 0 00.708-.708L3.707 10.5H9.5v5.793l-1.646-1.647a.5.5 0 00-.708.708l2.5 2.5a.5.5 0 00.708 0l2.5-2.5a.5.5 0 00-.708-.708L10.5 16.293V10.5h5.793l-1.647 1.646a.5.5 0 00.708.708l2.5-2.5a.5.5 0 000-.708l-2.5-2.5a.5.5 0 00-.708.708L16.293 9.5H10.5V3.707l1.646 1.647a.5.5 0 00.708-.708l-2.5-2.5z" clip-rule="evenodd"/>
</svg>
