<svg xmlns="http://www.w3.org/2000/svg" fill="currentColor" viewBox="0 0 20 20">
  <path fill-rule="evenodd" d="M14.375 3.168A1.857 1.857 0 0116.83 5.63l-1.867 4.064c.184 1.632-.328 3.371-1.601 4.643-1.008 1.007-2.579 1.623-4.112 2.01-1.551.39-3.144.568-4.267.648a1.84 1.84 0 01-1.977-2.012c.1-1.137.296-2.755.683-4.308.381-1.529.968-3.089 1.905-4.025 1.279-1.278 3.047-1.798 4.702-1.614l4.078-1.868zm-2.537 2.263a5.048 5.048 0 011.633 1.084c.474.474.84 1.035 1.096 1.645l1.354-2.948a.855.855 0 00-1.13-1.133l-2.953 1.352zM4.912 15.996a.896.896 0 01-.194-.006l5.023-5.024a1.001 1.001 0 10-.707-.707L4.01 15.282a.913.913 0 01-.006-.212c.097-1.113.288-2.672.657-4.152.374-1.503.91-2.83 1.642-3.56 1.82-1.819 4.839-1.754 6.459-.135 1.623 1.622 1.708 4.592-.108 6.407-.81.81-2.162 1.37-3.65 1.746-1.47.371-3 .542-4.093.62z" clip-rule="evenodd"/>
</svg>
