<svg xmlns="http://www.w3.org/2000/svg" fill="currentColor" viewBox="0 0 20 20">
  <path d="M3 3.914a.5.5 0 01.854-.353l3.392 3.393a.5.5 0 10.708-.708L4.56 2.854C3.616 1.909 2 2.578 2 3.914V16.5A1.5 1.5 0 003.5 18h12.586c1.336 0 2.005-1.616 1.06-2.56l-3.392-3.394a.5.5 0 00-.708.708l3.393 3.392a.5.5 0 01-.353.854H13v-.5a.5.5 0 10-1 0v.5H9.5v-.5a.5.5 0 10-1 0v.5H6v-.5a.5.5 0 10-1 0v.5H3.5a.5.5 0 01-.5-.5V15h.5a.5.5 0 000-1H3v-2.5h.5a.5.5 0 000-1H3V8h.5a.5.5 0 000-1H3V3.914z"/>
  <path fill-rule="evenodd" d="M6.842 9.45a1.5 1.5 0 00-.394.697l-.529 2.115a1.5 1.5 0 001.82 1.819l2.114-.529a1.5 1.5 0 00.696-.394l6.183-6.183a2.621 2.621 0 10-3.707-3.707L6.842 9.45zm.707.708a.5.5 0 00-.131.232l-.529 2.114a.5.5 0 00.607.607l2.114-.529a.5.5 0 00.232-.131l4.95-4.951L12.5 5.207l-4.95 4.95zM13.207 4.5L15.5 6.793l.525-.525a1.621 1.621 0 10-2.293-2.293l-.525.525z" clip-rule="evenodd"/>
</svg>
