<svg xmlns="http://www.w3.org/2000/svg" width="20" height="20" fill="currentColor" viewBox="0 0 20 20">
  <path d="M1.5 3a.5.5 0 00-.5.5v4a.5.5 0 001 0V6h16v1.5a.5.5 0 001 0v-4a.5.5 0 00-1 0V5H2V3.5a.5.5 0 00-.5-.5z"/>
  <path fill-rule="evenodd" d="M2.5 11A1.5 1.5 0 001 12.5v3A1.5 1.5 0 002.5 17h15a1.5 1.5 0 001.5-1.5v-3a1.5 1.5 0 00-1.5-1.5h-15zM2 12.5a.5.5 0 01.5-.5H5v1.5a.5.5 0 001 0V12h3.5v2.5a.5.5 0 001 0V12H14v1.5a.5.5 0 001 0V12h2.5a.5.5 0 01.5.5v3a.5.5 0 01-.5.5h-15a.5.5 0 01-.5-.5v-3z" clip-rule="evenodd"/>
</svg>
