<svg xmlns="http://www.w3.org/2000/svg" fill="currentColor" viewBox="0 0 20 20">
  <path fill-rule="evenodd" d="M10 18.5a8.5 8.5 0 100-17 8.5 8.5 0 000 17zm-2.5-5.832a1 1 0 001.54.841l4.152-2.668a1 1 0 000-1.682L9.04 6.49a1 1 0 00-1.541.842v5.336z" clip-rule="evenodd"/>
  <path fill-rule="evenodd" d="M2 10a8 8 0 1116 0 8 8 0 01-16 0zm8-9a9 9 0 100 18 9 9 0 000-18zm2.768 8.577a.5.5 0 010 .848l-4.002 2.498A.5.5 0 018 12.498V7.503c0-.392.44-.631.773-.423l3.995 2.497zm.529 1.696a1.5 1.5 0 000-2.544L9.304 6.232C8.304 5.607 7 6.325 7 7.504V10l.008.002L7 12.495c-.003 1.18 1.295 1.901 2.295 1.277l4.002-2.499z" clip-rule="evenodd"/>
</svg>
