<svg xmlns="http://www.w3.org/2000/svg" width="20" height="20" fill="currentColor" viewBox="0 0 20 20">
  <path fill-rule="evenodd" d="M10 6a4 4 0 100 8 4 4 0 000-8zm-3 4a3 3 0 116 0 3 3 0 01-6 0z" clip-rule="evenodd"/>
  <path fill-rule="evenodd" d="M9.054 1a1.4 1.4 0 00-1.37 1.113l-.292 1.39a6.993 6.993 0 00-1.735 1.006l-1.374-.45a1.406 1.406 0 00-1.653.63l-.941 1.62a1.394 1.394 0 00.28 1.744l1.098.975a7.057 7.057 0 000 1.944l-1.099.975a1.394 1.394 0 00-.28 1.744l.942 1.62a1.406 1.406 0 001.653.63l1.374-.45a6.994 6.994 0 001.735 1.007l.291 1.39A1.4 1.4 0 009.053 19h1.893a1.4 1.4 0 001.37-1.113l.292-1.39a6.993 6.993 0 001.734-1.006l1.375.45c.63.206 1.32-.057 1.653-.63l.941-1.62a1.394 1.394 0 00-.28-1.744l-1.098-.975a7.057 7.057 0 000-1.944l1.099-.975c.497-.441.613-1.17.28-1.744l-.942-1.62a1.406 1.406 0 00-1.653-.63l-1.375.45a6.993 6.993 0 00-1.734-1.007l-.291-1.39A1.4 1.4 0 0010.947 1H9.053zm-.392 1.318A.4.4 0 019.054 2h1.892a.4.4 0 01.392.318l.405 1.932.264.094c.704.25 1.348.627 1.904 1.105l.213.184 1.904-.623a.406.406 0 01.477.181l.942 1.62a.394.394 0 01-.08.494l-1.513 1.343.05.277a6.04 6.04 0 010 2.15l-.05.277 1.514 1.343c.14.125.174.33.079.494l-.942 1.62a.406.406 0 01-.477.181l-1.904-.623-.213.184c-.556.478-1.2.855-1.903 1.105l-.265.094-.405 1.932a.4.4 0 01-.392.318H9.054a.4.4 0 01-.392-.318l-.405-1.932-.265-.094a5.994 5.994 0 01-1.903-1.105l-.213-.184-1.904.623a.406.406 0 01-.477-.181l-.942-1.62a.394.394 0 01.08-.494l1.513-1.343-.05-.277a6.04 6.04 0 010-2.15l.05-.277-1.514-1.343a.394.394 0 01-.079-.494l.942-1.62a.406.406 0 01.477-.181l1.904.623.213-.184a5.993 5.993 0 011.903-1.105l.265-.094.405-1.932z" clip-rule="evenodd"/>
</svg>
