<svg xmlns="http://www.w3.org/2000/svg" width="20" height="20" fill="currentColor" viewBox="0 0 20 20">
  <path fill-rule="evenodd" d="M9.054 1a1.4 1.4 0 00-1.37 1.113l-.292 1.39a6.994 6.994 0 00-1.735 1.006l-1.374-.45a1.406 1.406 0 00-1.653.63l-.941 1.62a1.394 1.394 0 00.28 1.744l1.098.975a7.057 7.057 0 000 1.944l-1.099.975a1.394 1.394 0 00-.28 1.744l.942 1.62a1.406 1.406 0 001.653.63l1.374-.45a6.994 6.994 0 001.735 1.007l.291 1.39A1.4 1.4 0 009.053 19h1.893a1.4 1.4 0 001.37-1.113l.292-1.39a6.992 6.992 0 001.734-1.006l1.375.45c.63.206 1.32-.057 1.653-.63l.941-1.62a1.394 1.394 0 00-.28-1.744l-1.098-.975a7.057 7.057 0 000-1.944l1.099-.975c.497-.441.613-1.17.28-1.744l-.942-1.62a1.406 1.406 0 00-1.653-.63l-1.375.45a6.995 6.995 0 00-1.734-1.007l-.291-1.39A1.4 1.4 0 0010.947 1H9.053zM7 10a3 3 0 116 0 3 3 0 01-6 0z" clip-rule="evenodd"/>
</svg>
