<svg xmlns="http://www.w3.org/2000/svg" width="20" height="20" fill="currentColor" viewBox="0 0 20 20">
  <path d="M5.5 18.5H3A1.5 1.5 0 011.5 17V3A1.5 1.5 0 013 1.5h9.661c.34 0 .671.116.937.329l4.339 3.47a1.5 1.5 0 01.563 1.172V17a1.5 1.5 0 01-1.5 1.5h-2.5V15a1.5 1.5 0 00-1.5-1.5H7A1.5 1.5 0 005.5 15v3.5z"/>
  <path fill-rule="evenodd" d="M2 3a1 1 0 011-1h9.661a1 1 0 01.625.22l4.339 3.47a1 1 0 01.375.78V17a1 1 0 01-1 1h-2v-3a2 2 0 00-2-2H7a2 2 0 00-2 2v3H3a1 1 0 01-1-1V3zm4 15h8v-3a1 1 0 00-1-1H7a1 1 0 00-1 1v3zm-1 1H3a2 2 0 01-2-2V3a2 2 0 012-2h9.661a2 2 0 011.25.438l4.338 3.471A2 2 0 0119 6.471V17a2 2 0 01-2 2H5z" clip-rule="evenodd"/>
</svg>
