<svg xmlns="http://www.w3.org/2000/svg" width="20" height="20" fill="currentColor" viewBox="0 0 20 20">
  <rect width="19" height="11" x=".5" y="4.5" rx="1"/>
  <path d="M3.5 12a.5.5 0 000 1h1a.5.5 0 000-1h-1zM3 7.501a.5.5 0 01.5-.5h1a.5.5 0 110 1h-1a.5.5 0 01-.5-.5zM3.5 9.5a.5.5 0 000 1h1a.5.5 0 000-1h-1zM7 10a.5.5 0 01.5-.5h1a.5.5 0 010 1h-1A.5.5 0 017 10zM15.5 9.5a.5.5 0 000 1h1a.5.5 0 000-1h-1zM11 10a.5.5 0 01.5-.5h1a.5.5 0 010 1h-1a.5.5 0 01-.5-.5zM7.5 7.001a.5.5 0 100 1h1a.5.5 0 000-1h-1zM11 7.501a.5.5 0 01.5-.5h1a.5.5 0 010 1h-1a.5.5 0 01-.5-.5zM15.5 7.001a.5.5 0 000 1h1a.5.5 0 000-1h-1zM15 12.5a.5.5 0 01.5-.5h1a.5.5 0 010 1h-1a.5.5 0 01-.5-.5zM7.5 12a.5.5 0 000 1h5a.5.5 0 000-1h-5z"/>
  <path fill-rule="evenodd" d="M1.5 4A1.5 1.5 0 000 5.5v9A1.5 1.5 0 001.5 16h17a1.5 1.5 0 001.5-1.5v-9A1.5 1.5 0 0018.5 4h-17zM1 5.5a.5.5 0 01.5-.5h17a.5.5 0 01.5.5v9a.5.5 0 01-.5.5h-17a.5.5 0 01-.5-.5v-9z" clip-rule="evenodd"/>
</svg>
