<svg xmlns="http://www.w3.org/2000/svg" fill="currentColor" viewBox="0 0 20 20">
  <path fill-rule="evenodd" d="M4 1.993v16.012l4.601-4.438A2.001 2.001 0 0110 13c.505 0 1.01.189 1.399.567L16 18.005V1.993H4z" clip-rule="evenodd"/>
  <path fill-rule="evenodd" d="M4 2v16.005l4.601-4.438A2.002 2.002 0 0110 13c.505 0 1.01.189 1.399.567L16 18.005V2H4zm11.3 16.715c.634.615 1.7.17 1.7-.71V2c0-.548-.448-1-1-1H4c-.552 0-1 .452-1 1v16.005c0 .88 1.066 1.325 1.7.71l4.6-4.438A.994.994 0 0110 14c.252 0 .505.088.7.277l4.6 4.438z" clip-rule="evenodd"/>
</svg>
