<svg xmlns="http://www.w3.org/2000/svg" fill="currentColor" viewBox="0 0 20 20">
  <path fill-rule="evenodd" d="M4.5 1A1.5 1.5 0 003 2.5v14A1.5 1.5 0 004.5 18H10a.5.5 0 010 1H4.5A2.5 2.5 0 012 16.5v-14A2.5 2.5 0 014.5 0h6.172a2.5 2.5 0 011.581.564.84.84 0 01.113.095l3.975 3.975a.843.843 0 01.095.113A2.5 2.5 0 0117 6.328V9.5a.5.5 0 01-1 0V6.328c0-.118-.014-.235-.041-.348a.834.834 0 01-.183.02H11V1.224c0-.064.007-.125.02-.183A1.5 1.5 0 0010.672 1H4.5zm10.793 4L12 1.707V5h3.293zM11 15.5a4.5 4.5 0 119 0 4.5 4.5 0 01-9 0zm4-.793l-1.146 1.147a.5.5 0 01-.708-.708l2-2a.5.5 0 01.708 0l2 2a.5.5 0 01-.708.708L16 14.707V17.5a.5.5 0 01-1 0v-2.793z" clip-rule="evenodd"/>
</svg>
