<svg xmlns="http://www.w3.org/2000/svg" fill="currentColor" viewBox="0 0 20 20">
  <path d="M15.503 12.5a.5.5 0 00.603.434C17.674 12.593 19 10.989 19 9c0-2.115-1.441-3.76-3.528-3.976-.143-1.191-.818-2.16-1.737-2.841C12.704 1.418 11.347 1 10 1s-2.704.418-3.735 1.183c-.919.68-1.594 1.65-1.737 2.841C2.441 5.24 1 6.885 1 9c0 1.989 1.326 3.593 2.894 3.934a.5.5 0 00.603-.434H4.5a2 2 0 01.495-1.317l3.5-4a2 2 0 013.01 0l3.5 4A2 2 0 0115.5 12.5h.003z"/>
  <path d="M6.124 12.17a.5.5 0 00.752.66l2.624-3v8.67a.5.5 0 001 0V9.83l2.624 3a.5.5 0 00.752-.66l-3.5-4a.5.5 0 00-.752 0l-3.5 4z"/>
</svg>
