<svg xmlns="http://www.w3.org/2000/svg" width="20" height="20" fill="currentColor" viewBox="0 0 20 20">
  <path fill-rule="evenodd" d="M10.453 17.688c.158.364-.09.812-.486.812H4.5a2 2 0 01-2-2v-14a2 2 0 012-2h6.172a2 2 0 011.287.47.3.3 0 00-.459.254V5a.5.5 0 00.5.5h3.776a.3.3 0 00.255-.459 2 2 0 01.469 1.287v3.163c0 .312-.284.546-.595.524a5.5 5.5 0 00-5.452 7.674zm5.469-12.766l-.008-.008-3.828-3.828a.486.486 0 00-.008-.008l3.844 3.844z" clip-rule="evenodd"/>
  <path fill-rule="evenodd" d="M4.5 1A1.5 1.5 0 003 2.5v14A1.5 1.5 0 004.5 18H10a.5.5 0 010 1H4.5A2.5 2.5 0 012 16.5v-14A2.5 2.5 0 014.5 0h6.172a2.5 2.5 0 011.581.564.84.84 0 01.113.095l3.975 3.975a.843.843 0 01.095.113A2.5 2.5 0 0117 6.328V9.5a.5.5 0 01-1 0V6.328c0-.118-.014-.235-.041-.348a.834.834 0 01-.183.02H11V1.224c0-.064.007-.125.02-.183A1.5 1.5 0 0010.672 1H4.5zm10.793 4L12 1.707V5h3.293zM11 15.5a4.5 4.5 0 119 0 4.5 4.5 0 01-9 0zm4-.793l-1.146 1.147a.5.5 0 01-.708-.708l2-2a.5.5 0 01.708 0l2 2a.5.5 0 01-.708.708L16 14.707V17.5a.5.5 0 01-1 0v-2.793z" clip-rule="evenodd"/>
</svg>
