<svg xmlns="http://www.w3.org/2000/svg" width="20" height="20" fill="currentColor" viewBox="0 0 20 20">
  <path fill-rule="evenodd" d="M1.5 9c0-2 1.443-3.5 3.5-3.5 0-2.442 2.5-4 5-4s5 1.558 5 4c2.057 0 3.5 1.5 3.5 3.5s-1.5 3.5-3 3.5a2 2 0 00-.495-1.317l-3.5-4a2 2 0 00-3.01 0l-3.5 4A2 2 0 004.5 12.5c-1.5 0-3-1.5-3-3.5z" clip-rule="evenodd"/>
  <path d="M5.5 5.5c0-1.032.523-1.894 1.36-2.514C7.704 2.361 8.847 2 10 2s2.296.36 3.14.986c.837.62 1.36 1.482 1.36 2.514V6h.5c1.775 0 3 1.27 3 3 0 1.565-1.042 2.725-2.106 2.957a.5.5 0 00.212.977C17.674 12.593 19 10.989 19 9c0-2.115-1.441-3.76-3.528-3.976-.143-1.191-.818-2.16-1.737-2.841C12.704 1.418 11.347 1 10 1s-2.704.418-3.735 1.183c-.919.68-1.594 1.65-1.737 2.841C2.441 5.24 1 6.885 1 9c0 1.989 1.326 3.593 2.894 3.934a.5.5 0 10.212-.977C3.042 11.725 2 10.565 2 9c0-1.73 1.225-3 3-3h.5v-.5z"/>
  <path d="M6.17 12.876a.5.5 0 01-.046-.705l3.5-4a.5.5 0 01.752 0l3.5 4a.5.5 0 01-.752.658L10.5 9.831V18.5a.5.5 0 01-1 0V9.83l-2.624 3a.5.5 0 01-.705.046z"/>
</svg>
