<svg xmlns="http://www.w3.org/2000/svg" width="20" height="20" fill="currentColor" viewBox="0 0 20 20">
  <rect width="18" height="18" x="1" y="1" rx="2.5"/>
  <path fill-rule="evenodd" d="M1 3.5A2.5 2.5 0 013.5 1h3a.5.5 0 010 1h-3A1.5 1.5 0 002 3.5v3a.5.5 0 01-1 0v-3zm12-2a.5.5 0 01.5-.5h3A2.5 2.5 0 0119 3.5v3a.5.5 0 01-1 0v-3A1.5 1.5 0 0016.5 2h-3a.5.5 0 01-.5-.5zM1.5 13a.5.5 0 01.5.5v3A1.5 1.5 0 003.5 18h3a.5.5 0 010 1h-3A2.5 2.5 0 011 16.5v-3a.5.5 0 01.5-.5zm17 0a.5.5 0 01.5.5v3a2.5 2.5 0 01-2.5 2.5h-3a.5.5 0 010-1h3a1.5 1.5 0 001.5-1.5v-3a.5.5 0 01.5-.5z" clip-rule="evenodd"/>
</svg>
