<svg xmlns="http://www.w3.org/2000/svg" fill="currentColor" viewBox="0 0 20 20">
  <path fill-rule="evenodd" d="M4.5 3.5a1 1 0 00-1 1v3a1 1 0 001 1h3a1 1 0 001-1v-3a1 1 0 00-1-1h-3zm8 0a1 1 0 00-1 1v3a1 1 0 001 1h3a1 1 0 001-1v-3a1 1 0 00-1-1h-3zm-1 9a1 1 0 011-1h3a1 1 0 011 1v3a1 1 0 01-1 1h-3a1 1 0 01-1-1v-3zm-7-1a1 1 0 00-1 1v3a1 1 0 001 1h3a1 1 0 001-1v-3a1 1 0 00-1-1h-3z" clip-rule="evenodd"/>
  <path fill-rule="evenodd" d="M4.5 3A1.5 1.5 0 003 4.5v3A1.5 1.5 0 004.5 9h3A1.5 1.5 0 009 7.5v-3A1.5 1.5 0 007.5 3h-3zM4 4.5a.5.5 0 01.5-.5h3a.5.5 0 01.5.5v3a.5.5 0 01-.5.5h-3a.5.5 0 01-.5-.5v-3zM12.5 3A1.5 1.5 0 0011 4.5v3A1.5 1.5 0 0012.5 9h3A1.5 1.5 0 0017 7.5v-3A1.5 1.5 0 0015.5 3h-3zM12 4.5a.5.5 0 01.5-.5h3a.5.5 0 01.5.5v3a.5.5 0 01-.5.5h-3a.5.5 0 01-.5-.5v-3zm-1 8a1.5 1.5 0 011.5-1.5h3a1.5 1.5 0 011.5 1.5v3a1.5 1.5 0 01-1.5 1.5h-3a1.5 1.5 0 01-1.5-1.5v-3zm1.5-.5a.5.5 0 00-.5.5v3a.5.5 0 00.5.5h3a.5.5 0 00.5-.5v-3a.5.5 0 00-.5-.5h-3zm-8-1A1.5 1.5 0 003 12.5v3A1.5 1.5 0 004.5 17h3A1.5 1.5 0 009 15.5v-3A1.5 1.5 0 007.5 11h-3zM4 12.5a.5.5 0 01.5-.5h3a.5.5 0 01.5.5v3a.5.5 0 01-.5.5h-3a.5.5 0 01-.5-.5v-3z" clip-rule="evenodd"/>
</svg>
