<svg xmlns="http://www.w3.org/2000/svg" width="20" height="20" fill="currentColor" viewBox="0 0 20 20">
  <path d="M3.5 1A2.5 2.5 0 001 3.5v3a.5.5 0 001 0v-3A1.5 1.5 0 013.5 2h3a.5.5 0 000-1h-3zM13.5 1a.5.5 0 000 1h3A1.5 1.5 0 0118 3.5v3a.5.5 0 001 0v-3A2.5 2.5 0 0016.5 1h-3zM2 13.5a.5.5 0 00-1 0v3A2.5 2.5 0 003.5 19h3a.5.5 0 000-1h-3A1.5 1.5 0 012 16.5v-3zM19 13.5a.5.5 0 00-1 0v3a1.5 1.5 0 01-1.5 1.5h-3a.5.5 0 000 1h3a2.5 2.5 0 002.5-2.5v-3zM9.5 7.5v-3a.5.5 0 011 0v3a.5.5 0 01-1 0zM9.5 15.5v-3a.5.5 0 011 0v3a.5.5 0 01-1 0zM7.5 10.5a.5.5 0 000-1h-3a.5.5 0 000 1h3zM16 10a.5.5 0 01-.5.5h-3a.5.5 0 010-1h3a.5.5 0 01.5.5z"/>
</svg>
