<svg xmlns="http://www.w3.org/2000/svg" width="20" height="20" fill="currentColor" viewBox="0 0 20 20">
  <path fill-rule="evenodd" d="M2 3.5A1.5 1.5 0 013.5 2h4A1.5 1.5 0 019 3.5v4A1.5 1.5 0 017.5 9h-4A1.5 1.5 0 012 7.5v-4zm9 0A1.5 1.5 0 0112.5 2h4A1.5 1.5 0 0118 3.5v4A1.5 1.5 0 0116.5 9h-4A1.5 1.5 0 0111 7.5v-4zM3.5 11A1.5 1.5 0 002 12.5v4A1.5 1.5 0 003.5 18h4A1.5 1.5 0 009 16.5v-4A1.5 1.5 0 007.5 11h-4zm7.5 1.5a1.5 1.5 0 011.5-1.5h4a1.5 1.5 0 011.5 1.5v4a1.5 1.5 0 01-1.5 1.5h-4a1.5 1.5 0 01-1.5-1.5v-4z" clip-rule="evenodd"/>
</svg>
