<svg xmlns="http://www.w3.org/2000/svg" width="20" height="20" fill="currentColor" viewBox="0 0 20 20">
  <path fill-rule="evenodd" d="M3.5 2A1.5 1.5 0 002 3.5v4A1.5 1.5 0 003.5 9h4A1.5 1.5 0 009 7.5v-4A1.5 1.5 0 007.5 2h-4zM3 3.5a.5.5 0 01.5-.5h4a.5.5 0 01.5.5v4a.5.5 0 01-.5.5h-4a.5.5 0 01-.5-.5v-4zM12.5 2A1.5 1.5 0 0011 3.5v4A1.5 1.5 0 0012.5 9h4A1.5 1.5 0 0018 7.5v-4A1.5 1.5 0 0016.5 2h-4zM12 3.5a.5.5 0 01.5-.5h4a.5.5 0 01.5.5v4a.5.5 0 01-.5.5h-4a.5.5 0 01-.5-.5v-4zm-10 9A1.5 1.5 0 013.5 11h4A1.5 1.5 0 019 12.5v4A1.5 1.5 0 017.5 18h-4A1.5 1.5 0 012 16.5v-4zm1.5-.5a.5.5 0 00-.5.5v4a.5.5 0 00.5.5h4a.5.5 0 00.5-.5v-4a.5.5 0 00-.5-.5h-4zm9-1a1.5 1.5 0 00-1.5 1.5v4a1.5 1.5 0 001.5 1.5h4a1.5 1.5 0 001.5-1.5v-4a1.5 1.5 0 00-1.5-1.5h-4zm-.5 1.5a.5.5 0 01.5-.5h4a.5.5 0 01.5.5v4a.5.5 0 01-.5.5h-4a.5.5 0 01-.5-.5v-4z" clip-rule="evenodd"/>
</svg>
