<svg xmlns="http://www.w3.org/2000/svg" fill="currentColor" viewBox="0 0 20 20">
  <path fill-rule="evenodd" d="M7.031 2.75a.5.5 0 0 1-.183.683l-.866.5.564.977A6.968 6.968 0 0 1 10 4a6.96 6.96 0 0 1 3.454.91l.564-.977-.866-.5a.5.5 0 0 1 .5-.866l1.299.75 1.299.75a.5.5 0 0 1-.5.866l-.866-.5-.597 1.033a7 7 0 1 1-8.575 0l-.596-1.033-.866.5a.5.5 0 0 1-.5-.866l1.299-.75 1.3-.75a.5.5 0 0 1 .682.183ZM16 11a6 6 0 1 1-12 0 6 6 0 0 1 12 0Zm-2.5 0a.5.5 0 0 1-.5.5H9.5V8a.5.5 0 0 1 1 0v2.5H13a.5.5 0 0 1 .5.5Z" clip-rule="evenodd"/>
</svg>
