<svg xmlns="http://www.w3.org/2000/svg" fill="currentColor" viewBox="0 0 20 20">
  <path fill-rule="evenodd" d="m18.17 5.836-1.221 1.22-6.918 6.913a1.5 1.5 0 0 1-.711.398l-2.465.59a1.5 1.5 0 0 1-1.807-1.812l.597-2.473a1.5 1.5 0 0 1 .398-.709l1.443-1.442 6.7-6.696A2.82 2.82 0 0 1 16.18 1C17.74 1 19 2.273 19 3.829a2.84 2.84 0 0 1-.83 2.007Zm-7.393 5.972 5.046-5.042-2.582-2.581L6.75 10.67a.5.5 0 0 0-.133.236L6.02 13.38a.5.5 0 0 0 .602.604l2.465-.59a.5.5 0 0 0 .237-.132l1.454-1.453v-.001Zm6.686-6.68-.932.932-2.583-2.583.945-.944A1.82 1.82 0 0 1 16.18 2C17.183 2 18 2.821 18 3.829c0 .487-.194.956-.537 1.3ZM2 3a1 1 0 0 1 1-1h9.5a.5.5 0 0 0 0-1H3a2 2 0 0 0-2 2v14a2 2 0 0 0 2 2h14a2 2 0 0 0 2-2V7.5a.5.5 0 0 0-1 0V17a1 1 0 0 1-1 1H3a1 1 0 0 1-1-1V3Z" clip-rule="evenodd"/>
</svg>
