<svg xmlns="http://www.w3.org/2000/svg" fill="currentColor" viewBox="0 0 20 20">
  <path fill-rule="evenodd" d="M19 10a9 9 0 1 1-18 0 9 9 0 0 1 18 0Zm-9-4a1.5 1.5 0 1 0 0 3 1.5 1.5 0 0 0 0-3ZM7.5 7.5a2.5 2.5 0 1 1 5 0 2.5 2.5 0 0 1-5 0Zm-2 7.42.495.079a3.6 3.6 0 0 1 .128-.453 4.1 4.1 0 0 1 .558-1.053c.55-.745 1.532-1.513 3.326-1.513 1.793 0 2.775.768 3.325 1.512a4.105 4.105 0 0 1 .662 1.396c.009.036.017.072.024.109 0 .005.368-.056.47-.072l.024-.005.014-.002c.082-.012.48-.074.48-.078a4.586 4.586 0 0 0-.17-.617 5.075 5.075 0 0 0-.693-1.305c-.717-.97-1.987-1.918-4.136-1.918-2.15 0-3.42.947-4.138 1.918a5.072 5.072 0 0 0-.823 1.74 2.81 2.81 0 0 0-.04.182v.002l.495.079Z" clip-rule="evenodd"/>
</svg>
