<svg xmlns="http://www.w3.org/2000/svg" fill="currentColor" viewBox="0 0 16 16">
  <path fill-rule="evenodd" d="M15 8A7 7 0 1 1 1 8a7 7 0 0 1 14 0ZM8 5a1 1 0 1 0 0 2 1 1 0 0 0 0-2ZM6 6a2 2 0 1 1 4 0 2 2 0 0 1-4 0Zm-1.5 6c.493.086.492.086.492.087v.001l.002-.01.014-.058a2.776 2.776 0 0 1 .486-.96C5.896 10.55 6.63 10 8 10c1.371 0 2.104.55 2.506 1.06a2.775 2.775 0 0 1 .486.96l.014.057.002.011v-.001L11.5 12l.492-.087v-.006l-.003-.01a1.39 1.39 0 0 0-.03-.131 3.776 3.776 0 0 0-.668-1.325C10.71 9.7 9.691 9 8 9c-1.691 0-2.709.7-3.291 1.44a3.776 3.776 0 0 0-.668 1.326 2.395 2.395 0 0 0-.03.131l-.002.01-.001.004v.002L4.5 12Zm.492.089Z" clip-rule="evenodd"/>
</svg>
