<svg xmlns="http://www.w3.org/2000/svg" fill="currentColor" viewBox="0 0 20 20">
  <path fill-rule="evenodd" d="M0 2a2 2 0 0 1 2-2h5.879a2 2 0 0 1 1.414.586l.073.073 3.975 3.975.073.073A2 2 0 0 1 14 6.121V8.5a.5.5 0 0 1-1 0V6.121c0-.05-.004-.1-.011-.148a.827.827 0 0 1-.213.027H8V1.224c0-.075.01-.146.027-.213A1 1 0 0 0 7.88 1H2a1 1 0 0 0-1 1v14a1 1 0 0 0 1 1h7.5a.5.5 0 0 1 0 1H2a2 2 0 0 1-2-2V2Zm9-.293V5h3.293L9 1.707ZM14 11a3 3 0 1 0 0 6 3 3 0 0 0 0-6Zm-4 3a4 4 0 1 1 7.16 2.453l2.694 2.693a.5.5 0 0 1-.708.708l-2.693-2.694A4 4 0 0 1 10 14Z" clip-rule="evenodd"/>
</svg>
