<svg xmlns="http://www.w3.org/2000/svg" fill="currentColor" viewBox="0 0 16 16">
  <path fill-rule="evenodd" d="M6 6.002A2 2 0 1 1 10.002 6 2 2 0 0 1 6 6.002Zm1 0A1 1 0 1 1 9 6a1 1 0 0 1-2 0Zm-2.013 5.996-.494-.084L4 11.829v-.005l.003-.01a1.477 1.477 0 0 1 .03-.128 3.643 3.643 0 0 1 .669-1.288c.584-.72 1.603-1.4 3.298-1.4 1.694 0 2.714.68 3.297 1.4a3.64 3.64 0 0 1 .67 1.288 2.448 2.448 0 0 1 .03.128l.002.01v.004l.001.002-.493.084-.494.085V12l-.002-.01a2.257 2.257 0 0 0-.09-.283 2.677 2.677 0 0 0-.41-.708C10.107 10.505 9.373 9.97 8 9.97s-2.108.535-2.51 1.03a2.677 2.677 0 0 0-.487.934 1.308 1.308 0 0 0-.014.056l-.003.01Z" clip-rule="evenodd"/>
</svg>
