<svg xmlns="http://www.w3.org/2000/svg" fill="currentColor" viewBox="0 0 20 20">
  <path fill-rule="evenodd" d="M6.48 2.834C7.4 2.304 8.56 2 10.005 2s2.604.304 3.524.834a5.326 5.326 0 0 1 2.027 2.1c.897 1.638 1.022 3.63.953 5.112-.062 1.333.329 2.645 1.235 3.51.547.522.177 1.444-.58 1.444H13c0 1.657-1.338 3-2.996 3a3 3 0 0 1-3.001-3H2.844c-.756 0-1.126-.922-.579-1.444.906-.865 1.297-2.177 1.235-3.51-.069-1.482.056-3.474.953-5.113a5.326 5.326 0 0 1 2.028-2.099ZM10.005 17a2 2 0 0 1-2-2H12c0 1.105-.89 2-1.996 2Z" clip-rule="evenodd"/>
</svg>
