<svg xmlns="http://www.w3.org/2000/svg" fill="currentColor" viewBox="0 0 20 20">
  <path fill-rule="evenodd" d="M17.266 2.734a2.507 2.507 0 0 0-3.546 0L7.211 9.243c-1.328-.24-2.758.096-3.767 1.104C2.27 11.521 2.008 13.342 2 14.754a13.522 13.522 0 0 0 .211 2.411c.033.178.073.355.112.532.178.038.355.077.534.108a13.707 13.707 0 0 0 2.42.194c1.416-.017 3.242-.29 4.415-1.462 1.017-1.016 1.343-2.446 1.087-3.77l6.487-6.487a2.508 2.508 0 0 0 0-3.546Zm-6.834 8.962 6.125-6.126a1.505 1.505 0 0 0-2.128-2.127L8.293 9.579c.47.213.904.506 1.273.875.362.361.652.784.866 1.242Zm-6.884 5.198a12.38 12.38 0 0 1-.375-.053 12.523 12.523 0 0 1-.17-2.081c.007-1.362.273-2.827 1.15-3.704 1.245-1.243 3.45-1.146 4.704.107 1.257 1.257 1.367 3.425.126 4.665-.879.878-2.35 1.152-3.718 1.168a12.715 12.715 0 0 1-1.717-.102Z" clip-rule="evenodd"/>
</svg>
