<svg xmlns="http://www.w3.org/2000/svg" fill="currentColor" viewBox="0 0 20 20">
  <path fill-rule="evenodd" d="M10.5 1.5a.5.5 0 0 0-1 0V3a.5.5 0 0 0 1 0V1.5Zm5.864 2.842a.5.5 0 0 0-.707-.707l-1.06 1.061a.5.5 0 1 0 .706.707l1.061-1.06ZM19 10a.5.5 0 0 1-.5.5H17a.5.5 0 0 1 0-1h1.5a.5.5 0 0 1 .5.5Zm-3.343 6.364a.5.5 0 0 0 .707-.707l-1.06-1.06a.5.5 0 1 0-.708.707l1.06 1.06ZM10 19a.5.5 0 0 1-.5-.5V17a.5.5 0 1 1 1 0v1.5a.5.5 0 0 1-.5.5Zm-6.364-3.343a.5.5 0 1 0 .707.707l1.06-1.06a.5.5 0 0 0-.706-.708l-1.061 1.061ZM1 10a.5.5 0 0 1 .5-.5H3a.5.5 0 0 1 0 1H1.5A.5.5 0 0 1 1 10Zm3.343-6.364a.5.5 0 1 0-.707.707l1.06 1.061a.5.5 0 0 0 .708-.707l-1.06-1.06ZM14.39 11H11v1h3.032a4.47 4.47 0 0 0 .357-1Zm-1.035 2H11v1h1.064a4.515 4.515 0 0 0 1.29-1ZM10 14.5v-9a4.5 4.5 0 0 0 0 9Zm1-8.888V6h1.064A4.468 4.468 0 0 0 11 5.611ZM13.354 7H11v1h3.032c-.18-.364-.41-.7-.678-1Zm1.035 2c.072.322.111.657.111 1H11V9h3.389Zm1.111 1a5.5 5.5 0 1 1-11 0 5.5 5.5 0 0 1 11 0Z" clip-rule="evenodd"/>
</svg>
