<svg xmlns="http://www.w3.org/2000/svg" fill="currentColor" viewBox="0 0 20 20">
  <path d="M10 2.5c5.269 0 6.076 4.259 6.013 7.166-.036 1.657.436 3.354 1.635 4.498a.195.195 0 01-.135.336H2.487a.195.195 0 01-.135-.336c1.198-1.144 1.67-2.841 1.635-4.498C3.924 6.76 4.73 2.5 10 2.5z"/>
  <path fill-rule="evenodd" d="M4.5 10c-.066-1.42.066-3.19.831-4.587a4.326 4.326 0 011.65-1.712C7.72 3.273 8.702 3 10.003 3c1.302 0 2.282.273 3.024.7a4.327 4.327 0 011.65 1.713c.764 1.398.896 3.167.83 4.587-.065 1.41.305 2.9 1.276 4H3.224c.972-1.1 1.341-2.59 1.276-4zm5.504-8c-1.444 0-2.604.304-3.523.834a5.326 5.326 0 00-2.028 2.1c-.897 1.638-1.022 3.63-.953 5.112.062 1.333-.329 2.645-1.235 3.51-.547.522-.177 1.444.58 1.444h4.158a3 3 0 003.001 3A2.996 2.996 0 0013 15h4.164c.756 0 1.126-.922.579-1.444-.906-.865-1.297-2.177-1.235-3.51.069-1.482-.056-3.474-.953-5.113a5.326 5.326 0 00-2.027-2.099c-.92-.53-2.08-.834-3.524-.834zM12 15H8.003a2 2 0 002.001 2A1.996 1.996 0 0012 15z" clip-rule="evenodd"/>
</svg>
