<svg xmlns="http://www.w3.org/2000/svg" fill="currentColor" viewBox="0 0 20 20">
  <path fill-rule="evenodd" d="M17.266 2.734a2.507 2.507 0 0 0-3.546 0l-6.509 6.51c-1.328-.24-2.758.096-3.767 1.104C2.27 11.522 2.008 13.343 2 14.755a13.52 13.52 0 0 0 .241 2.567l.009.043.003.012v.005l.07.316.317.067h.005l.012.003.043.009.157.028a13.705 13.705 0 0 0 2.42.194c1.416-.017 3.242-.288 4.415-1.461 1.017-1.017 1.343-2.446 1.087-3.77l6.487-6.488a2.508 2.508 0 0 0 0-3.546Zm-6.834 8.963 6.125-6.126a1.505 1.505 0 0 0-2.128-2.127L8.293 9.58c.47.213.904.506 1.273.875.362.361.652.784.866 1.242Zm-7.689 5.577-.49.108.49-.108Zm-.103.49.103-.49-.103.49Zm.908-.87a11.774 11.774 0 0 1-.375-.053 12.522 12.522 0 0 1-.17-2.081c.007-1.361.273-2.826 1.15-3.703 1.245-1.244 3.45-1.147 4.704.107 1.257 1.257 1.367 3.425.126 4.665-.879.878-2.35 1.151-3.718 1.168a12.715 12.715 0 0 1-1.717-.102Z" clip-rule="evenodd"/>
</svg>
