<svg xmlns="http://www.w3.org/2000/svg" fill="currentColor" viewBox="0 0 20 20">
  <path fill-rule="evenodd" d="M4.496 10c-.066-1.42.066-3.19.83-4.587a4.326 4.326 0 0 1 1.65-1.712C7.718 3.273 8.698 3 10 3s2.282.273 3.024.7a4.327 4.327 0 0 1 1.65 1.713c.764 1.398.896 3.167.83 4.587-.065 1.41.305 2.9 1.275 4H3.22c.972-1.1 1.341-2.59 1.276-4ZM10 2c-1.444 0-2.604.304-3.524.834a5.326 5.326 0 0 0-2.027 2.1c-.897 1.638-1.022 3.63-.953 5.112.062 1.333-.329 2.645-1.235 3.51-.547.522-.177 1.444.58 1.444h4.157A3 3 0 0 0 10 18a2.996 2.996 0 0 0 2.996-3h4.164c.756 0 1.126-.922.579-1.444-.906-.865-1.297-2.177-1.235-3.51.069-1.482-.056-3.474-.953-5.113a5.326 5.326 0 0 0-2.027-2.099C12.604 2.304 11.444 2 10 2Zm1.996 13H7.999A2 2 0 0 0 10 17a1.996 1.996 0 0 0 1.996-2Z" clip-rule="evenodd"/>
</svg>
