<svg xmlns="http://www.w3.org/2000/svg" fill="currentColor" viewBox="0 0 20 20">
  <path fill-rule="evenodd" d="M17.238 2.76a2.5 2.5 0 0 0-3.536 0l-6.49 6.491c-1.325-.24-2.751.096-3.757 1.1-1.17 1.171-1.432 2.987-1.44 4.395a13.478 13.478 0 0 0 .24 2.56l.01.043.002.011v.004l.001.002.07.314.315.067h.002l.003.001.012.003.043.008.157.029a13.669 13.669 0 0 0 2.413.193c1.412-.017 3.232-.288 4.402-1.457 1.014-1.014 1.34-2.439 1.084-3.76l6.469-6.468a2.5 2.5 0 0 0 0-3.535Zm-6.815 8.937 6.108-6.108a1.5 1.5 0 1 0-2.122-2.121L8.291 9.586a4.3 4.3 0 0 1 1.269.873c.36.36.65.782.863 1.238Zm-7.666 5.561-.489.108.489-.108Zm-.104.49.104-.49-.104.49Z" clip-rule="evenodd"/>
</svg>
