<svg xmlns="http://www.w3.org/2000/svg" fill="currentColor" viewBox="0 0 20 20">
  <path fill-rule="evenodd" d="M1 9c0 2.276 1.724 4 4 4h3V8.5a2 2 0 1 1 4 0V13h3c1.238 0 2.25-.417 2.953-1.155C18.652 11.11 19 10.104 19 9c0-2.115-1.441-3.76-3.528-3.976-.143-1.191-.818-2.16-1.737-2.841C12.704 1.418 11.347 1 10 1s-2.704.418-3.735 1.183c-.919.68-1.594 1.65-1.737 2.841C2.441 5.24 1 6.885 1 9Zm12.83 5.124a.5.5 0 0 1 .046.705l-3.5 4a.5.5 0 0 1-.752 0l-3.5-4a.5.5 0 0 1 .752-.658L9.5 17.169V8.5a.5.5 0 0 1 1 0v8.67l2.624-3a.5.5 0 0 1 .705-.046Z" clip-rule="evenodd"/>
</svg>
