<svg xmlns="http://www.w3.org/2000/svg" fill="currentColor" viewBox="0 0 20 20">
  <path fill-rule="evenodd" d="M2 3.5a.5.5 0 0 1 .5-.5h5a.5.5 0 0 1 .5.5V7a.5.5 0 0 0 1 0V3.5A1.5 1.5 0 0 0 7.5 2h-5A1.5 1.5 0 0 0 1 3.5v8A1.5 1.5 0 0 0 2.5 13h2a.5.5 0 0 0 0-1h-2a.5.5 0 0 1-.5-.5v-8ZM12.5 2A1.5 1.5 0 0 0 11 3.5V7a.5.5 0 0 0 1 0V3.5a.5.5 0 0 1 .5-.5h5a.5.5 0 0 1 .5.5v8a.5.5 0 0 1-.5.5h-2a.5.5 0 0 0 0 1h2a1.5 1.5 0 0 0 1.5-1.5v-8A1.5 1.5 0 0 0 17.5 2h-5Zm.5 3.5a.5.5 0 0 1 .5-.5h3a.5.5 0 0 1 0 1h-3a.5.5 0 0 1-.5-.5Zm1.5 1.554a.5.5 0 0 0 0 1h2a.5.5 0 0 0 0-1h-2Zm-11.5.5a.5.5 0 0 1 .5-.5h2a.5.5 0 0 1 0 1h-2a.5.5 0 0 1-.5-.5Zm12.5 1.582a.5.5 0 0 0 0 1h1a.5.5 0 1 0 0-1h-1ZM3 5.5a.5.5 0 0 1 .5-.5h3a.5.5 0 0 1 0 1h-3a.5.5 0 0 1-.5-.5Zm7 9.5a3 3 0 1 0 0-6 3 3 0 0 0 0 6Zm0 1c.781 0 1.51-.224 2.126-.611l1.987 2.428a.5.5 0 0 0 .774-.634L12.9 14.755A4 4 0 1 0 10 16Z" clip-rule="evenodd"/>
</svg>
