<svg xmlns="http://www.w3.org/2000/svg" fill="currentColor" viewBox="0 0 20 20">
  <path fill-rule="evenodd" d="M4.496 12.506a.5.5 0 0 1-.603.428C2.327 12.593 1 10.989 1 9c0-2.115 1.441-3.76 3.528-3.976.143-1.191.818-2.16 1.737-2.841C7.296 1.418 8.653 1 10 1s2.704.418 3.735 1.183c.919.68 1.594 1.65 1.737 2.841C17.559 5.24 19 6.885 19 9c0 1.989-1.326 3.593-2.894 3.934a.5.5 0 0 1-.603-.434H15.5a2 2 0 0 0-.495-1.317l-3.5-4a2 2 0 0 0-3.01 0l-3.5 4A2 2 0 0 0 4.5 12.5h-.003v.006Zm1.628-.335a.5.5 0 0 0 .752.658L9.5 9.831V18.5a.5.5 0 0 0 1 0V9.83l2.624 3a.5.5 0 0 0 .752-.66l-3.5-4a.5.5 0 0 0-.752 0l-3.5 4Z" clip-rule="evenodd"/>
</svg>
