<svg xmlns="http://www.w3.org/2000/svg" fill="currentColor" viewBox="0 0 20 20">
  <path fill-rule="evenodd" d="M2.5 3.5a1 1 0 011-1h4a1 1 0 011 1v13a1 1 0 01-1 1h-4a1 1 0 01-1-1v-13zm9 0a1 1 0 011-1h4a1 1 0 011 1v4a1 1 0 01-1 1h-4a1 1 0 01-1-1v-4zm1 8a1 1 0 00-1 1v4a1 1 0 001 1h4a1 1 0 001-1v-4a1 1 0 00-1-1h-4z" clip-rule="evenodd"/>
  <path fill-rule="evenodd" d="M2 3.5A1.5 1.5 0 013.5 2h4A1.5 1.5 0 019 3.5v13A1.5 1.5 0 017.5 18h-4A1.5 1.5 0 012 16.5v-13zM3.5 3a.5.5 0 00-.5.5v13a.5.5 0 00.5.5h4a.5.5 0 00.5-.5v-13a.5.5 0 00-.5-.5h-4zm7.5.5A1.5 1.5 0 0112.5 2h4A1.5 1.5 0 0118 3.5v4A1.5 1.5 0 0116.5 9h-4A1.5 1.5 0 0111 7.5v-4zm1.5-.5a.5.5 0 00-.5.5v4a.5.5 0 00.5.5h4a.5.5 0 00.5-.5v-4a.5.5 0 00-.5-.5h-4zm0 9a.5.5 0 00-.5.5v4a.5.5 0 00.5.5h4a.5.5 0 00.5-.5v-4a.5.5 0 00-.5-.5h-4zm-1.5.5a1.5 1.5 0 011.5-1.5h4a1.5 1.5 0 011.5 1.5v4a1.5 1.5 0 01-1.5 1.5h-4a1.5 1.5 0 01-1.5-1.5v-4z" clip-rule="evenodd"/>
</svg>
