<svg xmlns="http://www.w3.org/2000/svg" fill="currentColor" viewBox="0 0 20 20">
  <path d="M5 3a2 2 0 012-2h5.879a2 2 0 011.414.586l4.121 4.121A2 2 0 0119 7.121V11.5a.5.5 0 01-1 0V7.121a1 1 0 00-.293-.707l-4.121-4.121A1 1 0 0012.879 2H7a1 1 0 00-1 1v.5a.5.5 0 01-1 0V3zM5.5 13a.5.5 0 01.5.5V17a1 1 0 001 1h5.5a.5.5 0 010 1H7a2 2 0 01-2-2v-3.5a.5.5 0 01.5-.5zM16 13.5v3.793l-1.146-1.147a.5.5 0 00-.708.708l2 2a.5.5 0 00.708 0l2-2a.5.5 0 00-.708-.708L17 17.293V13.5a.5.5 0 00-1 0z"/>
  <path fill-rule="evenodd" d="M1 6v5h1V9h1.104C4.354 9 5 8.494 5 7.5 5 6.511 4.364 6 3.128 6H1zm1 2V7h.928C3.506 7 4 7 4 7.5s-.499.5-1.077.5H2zM7.722 6H6v5h1.703C9.36 11 10 10.058 10 8.495 10 6.938 9.359 6 7.722 6zM7 10V7h.66C8.5 7 9 7.382 9 8.495 9 9.615 8.5 10 7.656 10H7z" clip-rule="evenodd"/>
  <path d="M12 9h2V8h-2V7h2.5V6H11v5h1V9z"/>
</svg>
