<svg xmlns="http://www.w3.org/2000/svg" fill="currentColor" viewBox="0 0 20 20">
  <path fill-rule="evenodd" d="M2.5 3.5a1 1 0 0 1 1-1h4a1 1 0 0 1 1 1v13a1 1 0 0 1-1 1h-4a1 1 0 0 1-1-1v-13Zm9 0a1 1 0 0 1 1-1h4a1 1 0 0 1 1 1v4a1 1 0 0 1-1 1h-4a1 1 0 0 1-1-1v-4Zm1 8a1 1 0 0 0-1 1v4a1 1 0 0 0 1 1h4a1 1 0 0 0 1-1v-4a1 1 0 0 0-1-1h-4Z" clip-rule="evenodd"/>
  <path fill-rule="evenodd" d="M2 3.5A1.5 1.5 0 0 1 3.5 2h4A1.5 1.5 0 0 1 9 3.5v13A1.5 1.5 0 0 1 7.5 18h-4A1.5 1.5 0 0 1 2 16.5v-13ZM3.5 3a.5.5 0 0 0-.5.5v13a.5.5 0 0 0 .5.5h4a.5.5 0 0 0 .5-.5v-13a.5.5 0 0 0-.5-.5h-4Zm7.5.5A1.5 1.5 0 0 1 12.5 2h4A1.5 1.5 0 0 1 18 3.5v4A1.5 1.5 0 0 1 16.5 9h-4A1.5 1.5 0 0 1 11 7.5v-4Zm1.5-.5a.5.5 0 0 0-.5.5v4a.5.5 0 0 0 .5.5h4a.5.5 0 0 0 .5-.5v-4a.5.5 0 0 0-.5-.5h-4Zm0 9a.5.5 0 0 0-.5.5v4a.5.5 0 0 0 .5.5h4a.5.5 0 0 0 .5-.5v-4a.5.5 0 0 0-.5-.5h-4Zm-1.5.5a1.5 1.5 0 0 1 1.5-1.5h4a1.5 1.5 0 0 1 1.5 1.5v4a1.5 1.5 0 0 1-1.5 1.5h-4a1.5 1.5 0 0 1-1.5-1.5v-4Z" clip-rule="evenodd"/>
</svg>
