<svg xmlns="http://www.w3.org/2000/svg" fill="currentColor" viewBox="0 0 20 20">
  <path fill-rule="evenodd" d="M5.5 2A1.5 1.5 0 0 0 4 3.5v13A1.5 1.5 0 0 0 5.5 18h9a1.5 1.5 0 0 0 1.5-1.5V7.328c0-.118-.014-.235-.041-.348a.834.834 0 0 1-.183.02H11V2.224c0-.064.007-.125.02-.183A1.499 1.499 0 0 0 10.672 2H5.5Zm6.5.707L15.293 6H12V2.707Zm5 4.621a2.5 2.5 0 0 0-.564-1.582.839.839 0 0 0-.095-.112l-.073-.073-3.829-3.829-.073-.073a.845.845 0 0 0-.112-.095A2.5 2.5 0 0 0 10.672 1H5.5A2.5 2.5 0 0 0 3 3.5v13A2.5 2.5 0 0 0 5.5 19h9a2.5 2.5 0 0 0 2.5-2.5V7.328Zm-3.854 4.818L10.5 14.793V8.5a.5.5 0 0 0-1 0v6.293l-2.646-2.647a.5.5 0 0 0-.708.708l3.5 3.5a.5.5 0 0 0 .708 0l3.5-3.5a.5.5 0 0 0-.708-.708Z" clip-rule="evenodd"/>
</svg>
