<svg xmlns="http://www.w3.org/2000/svg" fill="currentColor" viewBox="0 0 20 20">
  <path fill-rule="evenodd" d="M6 3a1 1 0 0 1 1-1h5.879a1 1 0 0 1 .127.008.784.784 0 0 0-.006.096V6h3.896a.8.8 0 0 0 .096-.006.993.993 0 0 1 .008.127V14a1 1 0 0 1-1 1H7a1 1 0 0 1-1-1V3Zm10.293 2L14 2.707V5h2.293Zm1.156-.257A2 2 0 0 1 18 6.12V14a2 2 0 0 1-2 2H7a2 2 0 0 1-2-2V3a2 2 0 0 1 2-2h5.879a2 2 0 0 1 1.401.573l.013.013 3.121 3.121.013.013.022.023ZM14 17a1 1 0 0 1-1 1H4a1 1 0 0 1-1-1V6a1 1 0 0 1 1-1h.135V4H4a2 2 0 0 0-2 2v11a2 2 0 0 0 2 2h9a2 2 0 0 0 2-2h-1Z" clip-rule="evenodd"/>
</svg>
