<svg xmlns="http://www.w3.org/2000/svg" fill="currentColor" viewBox="0 0 20 20">
  <path fill-rule="evenodd" d="M3.5 1A1.5 1.5 0 0 0 2 2.5v14A1.5 1.5 0 0 0 3.5 18H9a.5.5 0 0 1 0 1H3.5A2.5 2.5 0 0 1 1 16.5v-14A2.5 2.5 0 0 1 3.5 0h6.172a2.5 2.5 0 0 1 1.582.564.846.846 0 0 1 .112.095l.073.073 3.829 3.829.073.073a.839.839 0 0 1 .095.112A2.5 2.5 0 0 1 16 6.328V9.5a.5.5 0 0 1-1 0V6.328c0-.118-.014-.235-.041-.348a.834.834 0 0 1-.183.02H10V1.224c0-.064.007-.125.02-.183A1.5 1.5 0 0 0 9.672 1H3.5Zm7.5.707V5h3.293L11 1.707ZM19 15.5a4.5 4.5 0 1 1-9 0 4.5 4.5 0 0 1 9 0Zm-4 .793 1.146-1.147a.5.5 0 0 1 .708.708l-2 2a.5.5 0 0 1-.708 0l-2-2a.5.5 0 0 1 .708-.708L14 16.293V13.5a.5.5 0 0 1 1 0v2.793Z" clip-rule="evenodd"/>
</svg>
