<svg xmlns="http://www.w3.org/2000/svg" fill="currentColor" viewBox="0 0 20 20">
  <path d="M5 13c-2.276 0-4-1.724-4-4 0-2.115 1.441-3.76 3.528-3.976.143-1.191.818-2.16 1.737-2.841C7.296 1.418 8.653 1 10 1s2.704.418 3.735 1.183c.919.68 1.594 1.65 1.737 2.841C17.559 5.24 19 6.885 19 9c0 1.104-.348 2.11-1.047 2.845C17.251 12.583 16.238 13 15 13h-3V8.5a2 2 0 10-4 0V13H5z"/>
  <path d="M13.876 14.83a.5.5 0 00-.752-.66l-2.624 3V8.5a.5.5 0 00-1 0v8.67l-2.624-3a.5.5 0 00-.752.66l3.5 4a.5.5 0 00.752 0l3.5-4z"/>
</svg>
