<svg xmlns="http://www.w3.org/2000/svg" fill="currentColor" viewBox="0 0 20 20">
  <path d="M9.453 17.688c.158.364-.09.812-.486.812H3.5a2 2 0 0 1-2-2v-14a2 2 0 0 1 2-2h6.172a2 2 0 0 1 1.287.47.3.3 0 0 0-.459.254V5a.5.5 0 0 0 .5.5h3.776a.3.3 0 0 0 .255-.459 2 2 0 0 1 .469 1.287v3.163c0 .312-.284.546-.595.524a5.5 5.5 0 0 0-5.452 7.674Zm5.469-12.766-.008-.008-3.828-3.828a.486.486 0 0 0-.008-.008l3.844 3.844Z"/>
  <path fill-rule="evenodd" d="M3.5 1A1.5 1.5 0 0 0 2 2.5v14A1.5 1.5 0 0 0 3.5 18H9a.5.5 0 0 1 0 1H3.5A2.5 2.5 0 0 1 1 16.5v-14A2.5 2.5 0 0 1 3.5 0h6.172a2.5 2.5 0 0 1 1.581.564.84.84 0 0 1 .113.095l3.975 3.975a.843.843 0 0 1 .095.113A2.5 2.5 0 0 1 16 6.328V9.5a.5.5 0 0 1-1 0V6.328c0-.118-.014-.235-.041-.348a.834.834 0 0 1-.183.02H10V1.224c0-.064.007-.125.02-.183A1.5 1.5 0 0 0 9.672 1H3.5Zm10.793 4L11 1.707V5h3.293ZM19 15.5a4.5 4.5 0 1 1-9 0 4.5 4.5 0 0 1 9 0Zm-4 .793 1.146-1.147a.5.5 0 0 1 .708.708l-2 2a.5.5 0 0 1-.708 0l-2-2a.5.5 0 0 1 .708-.708L14 16.293V13.5a.5.5 0 0 1 1 0v2.793Z" clip-rule="evenodd"/>
</svg>
