<svg xmlns="http://www.w3.org/2000/svg" fill="currentColor" viewBox="0 0 20 20">
  <path fill-rule="evenodd" d="M17.88 1.77a6.639 6.639 0 0 0-2.986-.769c-1.533-.028-3.429.48-5.29 2.341l-.69.69-3.7.06c-.39.006-.76.163-1.035.438L1.86 6.85c-.63.629-.184 1.704.705 1.704h2.414l3.58 3.58-.71-.69-6.702 6.703a.5.5 0 0 0 .706.706l6.71-6.713 2.88 2.88v2.415c0 .889 1.075 1.334 1.704.706l2.32-2.322a1.5 1.5 0 0 0 .439-1.034l.06-3.693.694-.695c1.86-1.861 2.368-3.758 2.34-5.29a6.645 6.645 0 0 0-.77-2.987.89.89 0 0 0-.35-.35Zm-4.032 4.383a.997.997 0 1 0 1.411-1.41.997.997 0 0 0-1.41 1.41Zm-.705.706a1.995 1.995 0 1 0 2.821-2.82 1.995 1.995 0 0 0-2.821 2.82ZM1.499 13.562a.499.499 0 0 0 .705.705l3.175-3.175a.499.499 0 0 0-.706-.706L1.5 13.562Zm3.885 5.287a.5.5 0 0 1 0-.706l2.117-2.117a.499.499 0 1 1 .705.706L6.09 18.849a.499.499 0 0 1-.706 0Z" clip-rule="evenodd"/>
</svg>
