<svg xmlns="http://www.w3.org/2000/svg" fill="currentColor" viewBox="0 0 20 20">
  <path fill-rule="evenodd" d="M3 3a2 2 0 0 1 2-2h5.879a2 2 0 0 1 1.414.586l.073.073 3.975 3.975.073.073A2 2 0 0 1 17 7.121V11.5a.5.5 0 0 1-1 0V7.121c0-.05-.004-.1-.011-.148a.827.827 0 0 1-.213.027H11V2.224c0-.075.01-.146.027-.213A1.001 1.001 0 0 0 10.88 2H5a1 1 0 0 0-1 1v14a1 1 0 0 0 1 1h5.5a.5.5 0 0 1 0 1H5a2 2 0 0 1-2-2V3Zm9-.293V6h3.293L12 2.707Zm2 14.586V13.5a.5.5 0 0 1 1 0v3.793l1.146-1.147a.5.5 0 0 1 .708.708l-2 2a.5.5 0 0 1-.708 0l-2-2a.5.5 0 0 1 .708-.708L14 17.293Z" clip-rule="evenodd"/>
</svg>
