<svg xmlns="http://www.w3.org/2000/svg" fill="currentColor" viewBox="0 0 20 20">
  <path fill-rule="evenodd" d="M17.37 2.63a5.665 5.665 0 0 0-2.494-.631c-1.271-.024-2.903.385-4.566 2.049L6.095 8.262l5.644 5.645 3.338-3.34a.504.504 0 0 1 .08-.079l.795-.795C17.615 8.029 18.024 6.396 18 5.125a5.668 5.668 0 0 0-.63-2.495Zm-4.93 11.988 2.51-2.51-.043 2.662a.5.5 0 0 1-.146.344l-2.32 2.322v-2.818Zm-1.053.348.056.055v2.415c0 .889 1.074 1.334 1.703.705l2.32-2.321c.275-.275.433-.646.439-1.034l.06-3.693.694-.695c1.86-1.861 2.368-3.758 2.34-5.29a6.645 6.645 0 0 0-.77-2.987.89.89 0 0 0-.35-.35A6.639 6.639 0 0 0 14.894 1c-1.533-.028-3.429.48-5.29 2.341l-.69.69-3.7.06c-.39.006-.76.163-1.035.438L1.86 6.85c-.63.629-.184 1.704.705 1.704h2.414l.06.06 2.82 2.82-.01.01-6.702 6.703a.5.5 0 0 0 .706.706l6.701-6.704.01-.01 2.824 2.826ZM5.229 5.089 7.9 5.046l-2.51 2.51H2.564l2.32-2.32a.499.499 0 0 1 .345-.147Zm.155 13.054a.5.5 0 0 0 .706.705l2.116-2.117a.5.5 0 0 0-.705-.705l-2.117 2.117ZM1.5 14.267a.5.5 0 0 1 0-.705l3.174-3.176a.499.499 0 1 1 .706.706l-3.175 3.175a.499.499 0 0 1-.705 0Zm13.76-8.114a.997.997 0 1 1-1.41-1.41.997.997 0 0 1 1.41 1.41Zm.706.706a1.995 1.995 0 1 1-2.822-2.821 1.995 1.995 0 0 1 2.822 2.82Z" clip-rule="evenodd"/>
</svg>
