<svg xmlns="http://www.w3.org/2000/svg" fill="currentColor" viewBox="0 0 16 16">
  <path d="M15.37 13.751a.5.5 0 0 1-.433.749H1.063a.5.5 0 0 1-.434-.749L7.566 1.656a.5.5 0 0 1 .868 0l6.937 12.095Z"/>
  <path fill-rule="evenodd" d="M8.43 2.249a.5.5 0 0 0-.86 0L1.071 13.246a.5.5 0 0 0 .43.754H14.5a.5.5 0 0 0 .43-.755L8.43 2.25Zm-1.72-.51c.58-.981 2-.981 2.58 0l6.499 10.997A1.5 1.5 0 0 1 14.499 15H1.5a1.5 1.5 0 0 1-1.29-2.264L6.71 1.74ZM9 12a1 1 0 1 1-2 0 1 1 0 0 1 2 0Zm-.25-5.248a.75.75 0 0 0-1.5 0v2.5a.75.75 0 0 0 1.5 0v-2.5Z" clip-rule="evenodd"/>
</svg>
