<svg xmlns="http://www.w3.org/2000/svg" fill="currentColor" viewBox="0 0 20 20">
  <path fill-rule="evenodd" d="M7 3.997A2.999 2.999 0 0110 1c1.657 0 3 1.342 3 2.997V13.2c0 .122-.036.24-.104.342l-1.98 2.969a1.1 1.1 0 01-1.831 0l-1.981-2.97A.616.616 0 017 13.2V3.997zM10 2c-1.105 0-2 .895-2 1.998v1h4v-1A1.999 1.999 0 0010 2zM5.765 16.334c-.352-.345-.72-.707 1.51-.816l.969 1.443c-1.248-.06-2.122-.235-2.334-.478a2.744 2.744 0 00-.145-.149zm6.773.456c-.24.028-.48.053-.716.074l.818-1.219c2.548.279 2.444.853-.102 1.145zM5.5 13a.5.5 0 010 1h-3a.5.5 0 00-.5.5v3a.5.5 0 00.5.5h15a.5.5 0 00.5-.5v-3a.5.5 0 00-.5-.5h-3a.5.5 0 010-1h3a1.5 1.5 0 011.5 1.5v3a1.5 1.5 0 01-1.5 1.5h-15A1.5 1.5 0 011 17.5v-3A1.5 1.5 0 012.5 13h3z" clip-rule="evenodd"/>
</svg>
