<svg xmlns="http://www.w3.org/2000/svg" fill="currentColor" viewBox="0 0 20 20">
  <path fill-rule="evenodd" d="m8.392 16.185 8.66-8.66a3.236 3.236 0 1 0-4.577-4.577l-8.66 8.66a1.14 1.14 0 0 0-.264.413l-1.456 3.967c-.439 1.195.722 2.356 1.917 1.917l3.967-1.456a1.14 1.14 0 0 0 .413-.264ZM13.18 3.652a2.24 2.24 0 1 1 3.169 3.169l-.779.778-3.168-3.168.778-.779Zm-1.482 1.483 3.168 3.168-7.177 7.178a.145.145 0 0 1-.053.033l-3.967 1.457a.498.498 0 0 1-.639-.64l1.457-3.966a.146.146 0 0 1 .033-.053l7.178-7.177Z" clip-rule="evenodd"/>
</svg>
