<svg xmlns="http://www.w3.org/2000/svg" fill="currentColor" viewBox="0 0 20 20">
  <path d="m18.132 7.525-5.657-5.657a1.5 1.5 0 0 0-2.121 0L3.99 8.232a.5.5 0 0 0 0 .707l7.07 7.071a.5.5 0 0 0 .708 0l6.364-6.364a1.5 1.5 0 0 0 0-2.12Z"/>
  <path fill-rule="evenodd" d="M12.817 1.587a2 2 0 0 0-2.828 0L3.686 7.89a1.38 1.38 0 0 0-.01.01l-2.09 2.089a2 2 0 0 0 0 2.828l5.597 5.596a2 2 0 0 0 2.828 0l2.1-2.099 6.302-6.303a2 2 0 0 0 0-2.828l-5.596-5.596Zm-2.121.707a1 1 0 0 1 1.414 0l5.596 5.596a1 1 0 0 1 0 1.414l-6.303 6.303-7.01-7.01 6.303-6.303Zm-8.402 8.402 1.392-1.392 7.01 7.01-1.392 1.392a1 1 0 0 1-1.414 0L2.294 12.11a1 1 0 0 1 0-1.414Z" clip-rule="evenodd"/>
</svg>
