<svg xmlns="http://www.w3.org/2000/svg" fill="currentColor" viewBox="0 0 20 20">
  <path fill-rule="evenodd" d="M11 2c-2.125 0-4.629.918-6.353 2.635C2.508 6.764 1 9.812 1 12.954c0 1.584.464 2.958 1.36 3.88.908.935 2.204 1.345 3.722 1.093.523-.087 1.029-.173 1.517-.256 2.343-.4 4.29-.733 5.901-.733h.041c.974 0 2.299 0 3.384-.405.563-.21 1.09-.539 1.476-1.056.388-.522.599-1.192.599-2.026 0-1.243-.174-2.128-.401-2.799a7.54 7.54 0 00-.54-1.194l-.112-.213a.5.5 0 10-.894.449c.047.093.095.183.145.276.15.28.308.576.453 1.004.19.557.349 1.331.349 2.477 0 .66-.164 1.11-.401 1.429-.24.322-.587.553-1.024.716-.9.336-2.053.342-3.075.342-1.703 0-3.756.351-6.1.752a297.2 297.2 0 01-1.482.25c-1.234.205-2.188-.131-2.842-.803C2.41 15.45 2 14.357 2 12.954c0-2.832 1.369-5.635 3.353-7.61C6.879 3.823 9.125 3 11 3c1.924 0 2.774.478 3.147.85a.5.5 0 00.706-.709C14.226 2.517 13.076 2 11 2zm1.5 5a.5.5 0 010-1h6a.5.5 0 010 1h-6z" clip-rule="evenodd"/>
</svg>
