<svg xmlns="http://www.w3.org/2000/svg" fill="currentColor" viewBox="0 0 20 20">
  <path d="m15.848 17.143 1.576-2.521a.5.5 0 0 0 .076-.265V6.5h-5v7.857a.5.5 0 0 0 .076.265l1.576 2.521a1 1 0 0 0 1.696 0Z"/>
  <path fill-rule="evenodd" d="M15 2c-1.657 0-3 1.341-3 2.996v9.378c0 .116.033.23.095.329l1.635 2.596a1.501 1.501 0 0 0 2.54 0l1.635-2.596a.617.617 0 0 0 .095-.329V4.996A2.998 2.998 0 0 0 15 2Zm2 4V4.996a1.999 1.999 0 0 0-2-1.997c-1.105 0-2 .894-2 1.997V6h4Zm-4 1v7.264l1.577 2.504a.5.5 0 0 0 .846 0L17 14.264V7h-4ZM2 6.5a.5.5 0 0 1 .5-.5h6a.5.5 0 0 1 0 1h-6a.5.5 0 0 1-.5-.5Zm.5 3a.5.5 0 0 0 0 1h6a.5.5 0 0 0 0-1h-6Zm-.5 4a.5.5 0 0 1 .5-.5h4a.5.5 0 0 1 0 1h-4a.5.5 0 0 1-.5-.5Z" clip-rule="evenodd"/>
</svg>
