<svg xmlns="http://www.w3.org/2000/svg" fill="currentColor" viewBox="0 0 20 20">
  <path fill-rule="evenodd" d="M19 8.875c0-.36-.419-.577-.74-.414a.485.485 0 00-.038.022A4.98 4.98 0 0116 9a5 5 0 01-4.494-7.194.214.214 0 00.014-.036.511.511 0 00.074-.27c-.004-.257-.195-.5-.469-.5H3.5A2.5 2.5 0 001 3.5v9A2.5 2.5 0 003.5 15H5v4l4.766-3.693a1.5 1.5 0 01.91-.307H16.5a2.5 2.5 0 002.5-2.5V8.875zM10.5 10a.5.5 0 000-1h-3a.5.5 0 000 1h3zm.5-3.5a.5.5 0 01-.5.5h-3a.5.5 0 010-1h3a.5.5 0 01.5.5z" clip-rule="evenodd"/>
  <circle cx="16" cy="4" r="4"/>
</svg>
