<svg xmlns="http://www.w3.org/2000/svg" fill="currentColor" viewBox="0 0 20 20">
  <path fill-rule="evenodd" d="M4.063 6H2.5a.5.5 0 0 1 0-1h1.563a2 2 0 0 1 3.874 0H17.5a.5.5 0 0 1 0 1H7.937a2 2 0 0 1-3.874 0ZM5 5.5a1 1 0 1 1 2 0 1 1 0 0 1-2 0Zm7.063 5H2.5a.5.5 0 0 1 0-1h9.563a2 2 0 0 1 3.874 0H17.5a.5.5 0 0 1 0 1h-1.563a2 2 0 0 1-3.874 0ZM13 10a1 1 0 1 1 2 0 1 1 0 0 1-2 0Zm-5 4.5a1 1 0 1 1 2 0 1 1 0 0 1-2 0Zm-.937.5H2.5a.5.5 0 0 1 0-1h4.563a2 2 0 0 1 3.874 0H17.5a.5.5 0 0 1 0 1h-6.563a2 2 0 0 1-3.874 0Z" clip-rule="evenodd"/>
</svg>
