<svg xmlns="http://www.w3.org/2000/svg" fill="currentColor" viewBox="0 0 20 20">
  <path d="M1.5 3.5a2 2 0 012-2h13a2 2 0 012 2v9a2 2 0 01-2 2h-5.814a2 2 0 00-1.228.421L5.5 18v-3.5h-2a2 2 0 01-2-2v-9z"/>
  <path fill-rule="evenodd" d="M3.5 1A2.5 2.5 0 001 3.5v9A2.5 2.5 0 003.5 15H5v4l4.765-3.684a1.5 1.5 0 01.921-.316H16.5a2.5 2.5 0 002.5-2.5v-9A2.5 2.5 0 0016.5 1h-13zM2 3.5A1.5 1.5 0 013.5 2h13A1.5 1.5 0 0118 3.5v9a1.5 1.5 0 01-1.5 1.5h-5.814a2.5 2.5 0 00-1.535.527L6 17v-2.5a.5.5 0 00-.5-.5h-2A1.5 1.5 0 012 12.5v-9zm8.5 6.5a.5.5 0 000-1h-3a.5.5 0 000 1h3zM13 6.5a.5.5 0 01-.5.5h-5a.5.5 0 010-1h5a.5.5 0 01.5.5z" clip-rule="evenodd"/>
</svg>
