<svg xmlns="http://www.w3.org/2000/svg" fill="currentColor" viewBox="0 0 20 20">
  <path fill-rule="evenodd" d="M6.054 5.033L1.447 9.64a1.526 1.526 0 000 2.158l5.755 5.755a1.526 1.526 0 002.158 0l7.193-7.193a1.526 1.526 0 000-2.158l-5.755-5.755a1.526 1.526 0 00-2.158 0L6.785 4.303l-2.018-1.21a.5.5 0 00-.515.858l1.802 1.082zm9.78 3.888l-5.755-5.755a.509.509 0 00-.72 0L7.685 4.842l2.093 1.256a.501.501 0 01-.516.86L6.953 5.571l-3.46 3.46h12.425a.509.509 0 00-.084-.111z" clip-rule="evenodd"/>
  <path d="M19 16.03c0 1.088-.895 1.97-2 1.97s-2-.882-2-1.97c0-1.323 2-3.03 2-3.03s2 1.703 2 3.03z"/>
</svg>
