<svg xmlns="http://www.w3.org/2000/svg" fill="currentColor" viewBox="0 0 20 20">
  <path d="M6.956 2.586a7.565 7.565 0 0 1 5.356-.183c.744.253 1.601.746 2.348 1.325.5.388.976.835 1.34 1.3V2.97a.5.5 0 0 1 1 0V6.5a.5.5 0 0 1-.5.5h-3.532a.5.5 0 1 1 0-1h2.49c-.28-.47-.79-1-1.411-1.482-.684-.53-1.445-.96-2.057-1.168a6.565 6.565 0 0 0-4.648.159 6.622 6.622 0 0 0-3.393 3.205.5.5 0 1 1-.898-.44 7.622 7.622 0 0 1 3.905-3.688ZM10.5 9.5a.5.5 0 0 0-1 0v8a.5.5 0 0 0 1 0v-8ZM17 9a1 1 0 0 1 1 1v7a1 1 0 0 1-1 1h-3.5a.5.5 0 0 1 0-1H17v-7h-3.5a.5.5 0 0 1 0-1H17ZM7 9.5a.5.5 0 0 0-.5-.5H5v1h1.5a.5.5 0 0 0 .5-.5ZM3 15v-3H2v3h1Zm1-6H3a1 1 0 0 0-1 1v1h1v-1h1V9Zm-1 7H2v1a1 1 0 0 0 1 1h1v-1H3v-1Zm4 1.5a.5.5 0 0 0-.5-.5H5v1h1.5a.5.5 0 0 0 .5-.5Z"/>
</svg>
