<svg xmlns="http://www.w3.org/2000/svg" fill="currentColor" viewBox="0 0 20 20">
  <path d="M17.414 6.956a7.565 7.565 0 0 1 .183 5.356c-.253.744-.746 1.602-1.325 2.348a7.75 7.75 0 0 1-1.3 1.34h2.058a.5.5 0 0 1 0 1H13.5a.5.5 0 0 1-.5-.5v-3.532a.5.5 0 1 1 1 0v2.49c.47-.28 1-.79 1.482-1.411.53-.684.96-1.445 1.168-2.057a6.565 6.565 0 0 0-.159-4.648 6.622 6.622 0 0 0-3.205-3.393.5.5 0 1 1 .44-.898 7.622 7.622 0 0 1 3.688 3.905ZM10.5 10.5a.5.5 0 0 0 0-1h-8a.5.5 0 0 0 0 1h8ZM2 17a1 1 0 0 0 1 1h7a1 1 0 0 0 1-1v-3.5a.5.5 0 0 0-1 0V17H3v-3.5a.5.5 0 0 0-1 0V17Zm8.5-10a.5.5 0 0 0 .5-.5V5h-1v1.5a.5.5 0 0 0 .5.5ZM5 3h3V2H5v1Zm6 1V3a1 1 0 0 0-1-1H9v1h1v1h1ZM4 3V2H3a1 1 0 0 0-1 1v1h1V3h1ZM2.5 7a.5.5 0 0 0 .5-.5V5H2v1.5a.5.5 0 0 0 .5.5Z"/>
</svg>
