<svg xmlns="http://www.w3.org/2000/svg" fill="currentColor" viewBox="0 0 20 20">
  <path d="M1.518 10.482a.556.556 0 0 0 0 .786l6.285 6.285a.555.555 0 0 0 .786 0l7.856-7.856a.553.553 0 0 0 .105-.147H2.45l-.932.932Z"/>
  <path fill-rule="evenodd" d="M17 18c1.105 0 2-.882 2-1.97 0-1.327-2-3.03-2-3.03s-2 1.707-2 3.03c0 1.088.896 1.97 2 1.97ZM1.447 9.64l4.607-4.607-1.802-1.082a.5.5 0 1 1 .515-.859l2.018 1.21L8.64 2.448a1.526 1.526 0 0 1 2.158 0l5.755 5.755a1.526 1.526 0 0 1 0 2.158L9.36 17.553a1.526 1.526 0 0 1-2.158 0l-5.755-5.755a1.526 1.526 0 0 1 0-2.158Zm8.632-6.474 5.755 5.755a.509.509 0 0 1 .084.111H3.494l3.46-3.46L9.26 6.957a.5.5 0 0 0 .516-.859L7.684 4.842 9.36 3.166a.509.509 0 0 1 .719 0Zm-7.587 6.868-.326.326a.509.509 0 0 0 0 .719l5.755 5.755a.51.51 0 0 0 .72 0l6.799-6.8H2.492Z" clip-rule="evenodd"/>
  <path fill-rule="evenodd" d="M19 16.03c0 1.088-.895 1.97-2 1.97s-2-.882-2-1.97c0-1.323 2-3.03 2-3.03s2 1.703 2 3.03Zm-1 0c0 .521-.434.97-1 .97-.566 0-1-.448-1-.97 0-.095.042-.278.192-.556.143-.264.347-.544.572-.81.08-.094.159-.184.236-.268.078.084.157.173.236.267a4.9 4.9 0 0 1 .572.81c.15.277.192.46.192.556Z" clip-rule="evenodd"/>
</svg>
