<svg xmlns="http://www.w3.org/2000/svg" fill="currentColor" viewBox="0 0 20 20">
  <path fill-rule="evenodd" d="M1 3.5A2.5 2.5 0 0 1 3.5 1h13A2.5 2.5 0 0 1 19 3.5v9a2.5 2.5 0 0 1-2.5 2.5h-5.814a1.5 1.5 0 0 0-.92.316l-3.959 3.079-.807.627V15H3.5A2.5 2.5 0 0 1 1 12.5v-9ZM3.5 2A1.5 1.5 0 0 0 2 3.5v9A1.5 1.5 0 0 0 3.5 14h2a.5.5 0 0 1 .5.5v2.478l3.151-2.451A2.5 2.5 0 0 1 10.686 14H16.5a1.5 1.5 0 0 0 1.5-1.5v-9A1.5 1.5 0 0 0 16.5 2h-13ZM10 9a.5.5 0 0 1-.5-.5v-3a.5.5 0 0 1 1 0v3a.5.5 0 0 1-.5.5Zm0 2a.5.5 0 1 0 0-1 .5.5 0 0 0 0 1Z" clip-rule="evenodd"/>
</svg>
