<svg xmlns="http://www.w3.org/2000/svg" fill="currentColor" viewBox="0 0 20 20">
  <path d="M3.975 6.344a.5.5 0 0 0-.95.31L3.5 6.5l-.476.155.001.001v.002l.002.005.006.016.018.051c.017.044.04.104.072.179.065.149.163.356.302.599.222.385.551.864 1.018 1.342l-1.297 1.296a.5.5 0 1 0 .708.708l1.34-1.34a6.916 6.916 0 0 0 1.646.923l-.8 1.866a.5.5 0 1 0 .92.394l.837-1.954a8.805 8.805 0 0 0 1.703.245V13.5a.5.5 0 1 0 1 0v-2.512a8.805 8.805 0 0 0 1.703-.245l.837 1.954a.5.5 0 0 0 .92-.394l-.8-1.866a6.913 6.913 0 0 0 1.646-.924l1.39 1.39a.42.42 0 0 0 .631-.025.5.5 0 0 0 .026-.731L15.558 8.85a6.774 6.774 0 0 0 1.018-1.342 5.823 5.823 0 0 0 .374-.778l.018-.051.006-.016.001-.005.001-.002v-.001L16.5 6.5l.475.155a.5.5 0 0 0-.95-.31l-.002.005a1.789 1.789 0 0 1-.065.164c-.05.117-.132.29-.25.494-.237.411-.619.95-1.197 1.456a5.943 5.943 0 0 1-2.17 1.202A7.825 7.825 0 0 1 10 10a7.826 7.826 0 0 1-2.341-.334 5.943 5.943 0 0 1-2.17-1.202 5.783 5.783 0 0 1-1.197-1.456 4.815 4.815 0 0 1-.304-.628 1.504 1.504 0 0 1-.011-.03l-.002-.006Z"/>
</svg>
