<svg xmlns="http://www.w3.org/2000/svg" fill="currentColor" viewBox="0 0 20 20">
  <g class="ic_hint_t2=outlined_20px">
    <path fill-rule="evenodd" d="M10.5 1.5a.5.5 0 0 0-1 0v1a.5.5 0 0 0 1 0v-1ZM10 4a5 5 0 0 0-5 5c0 1.705.905 3.166 2.194 4.052.202.139.306.333.306.51v.938a.5.5 0 0 0 1 0v-.938c0-.572-.325-1.05-.74-1.334C6.709 11.504 6 10.335 6 9a4 4 0 1 1 8 0c0 1.335-.708 2.504-1.76 3.228-.415.285-.74.762-.74 1.334v.938a.5.5 0 0 0 1 0v-.938c0-.177.104-.371.306-.51C14.095 12.166 15 10.705 15 9a5 5 0 0 0-5-5ZM8.5 16a.5.5 0 0 0 0 1h3a.5.5 0 0 0 0-1h-3Zm.5 2.5a.5.5 0 0 1 .5-.5h1a.5.5 0 0 1 0 1h-1a.5.5 0 0 1-.5-.5Zm6.854-15.354a.5.5 0 0 1 0 .708l-.708.707a.5.5 0 1 1-.707-.707l.707-.708a.5.5 0 0 1 .708 0ZM17.5 9a.5.5 0 0 0 0-1h-1a.5.5 0 1 0 0 1h1ZM4.146 3.146a.5.5 0 0 0 0 .708l.708.707a.5.5 0 0 0 .707-.707l-.707-.708a.5.5 0 0 0-.708 0ZM2.5 9a.5.5 0 0 1 0-1h1a.5.5 0 1 1 0 1h-1Z" class="$shape" clip-rule="evenodd"/>
  </g>
</svg>
