<svg xmlns="http://www.w3.org/2000/svg" fill="currentColor" viewBox="0 0 20 20">
  <path fill-rule="evenodd" d="M10.5 1.5a.5.5 0 0 0-1 0v1a.5.5 0 0 0 1 0v-1ZM10 4a5 5 0 0 0-5 5c0 1.705.905 3.166 2.194 4.052.202.14.306.334.306.51v.939a.5.5 0 0 0 1 0v-.939c0-.571-.325-1.049-.74-1.334C6.709 11.504 6 10.336 6 9.001a4 4 0 1 1 8 0c0 1.335-.708 2.503-1.76 3.227-.415.285-.74.763-.74 1.334v.939a.5.5 0 0 0 1 0v-.939c0-.176.104-.37.306-.51C14.095 12.166 15 10.705 15 9.001a5 5 0 0 0-5-5ZM8.5 16a.5.5 0 1 0 0 1h3a.5.5 0 0 0 0-1h-3Zm.5 2.5a.5.5 0 0 1 .5-.5h1a.5.5 0 1 1 0 1h-1a.5.5 0 0 1-.5-.5Zm6.854-15.353a.5.5 0 0 1 0 .707l-.708.707a.5.5 0 1 1-.707-.707l.707-.707a.5.5 0 0 1 .708 0ZM17.5 9a.5.5 0 0 0 0-1h-1a.5.5 0 1 0 0 1h1ZM4.146 3.147a.5.5 0 0 0 0 .707l.708.707a.5.5 0 0 0 .707-.707l-.707-.707a.5.5 0 0 0-.708 0ZM2.5 9a.5.5 0 1 1 0-1h1a.5.5 0 0 1 0 1h-1Z" clip-rule="evenodd"/>
</svg>
