<svg xmlns="http://www.w3.org/2000/svg" fill="currentColor" viewBox="0 0 20 20">
  <path d="M18.5 17V8.686a2 2 0 0 0-.76-1.569l-6.618-5.23a1.81 1.81 0 0 0-2.244 0L2.26 7.117a2 2 0 0 0-.76 1.57V17A1.5 1.5 0 0 0 3 18.5h3a.5.5 0 0 0 .5-.5v-4.5a1 1 0 0 1 1-1h5a1 1 0 0 1 1 1V18a.5.5 0 0 0 .5.5h3a1.5 1.5 0 0 0 1.5-1.5Z"/>
  <path fill-rule="evenodd" d="M10.812 2.28a1.31 1.31 0 0 0-1.624 0L2.57 7.51A1.5 1.5 0 0 0 2 8.685V17a1 1 0 0 0 1 1h3v-4.5A1.5 1.5 0 0 1 7.5 12h5a1.5 1.5 0 0 1 1.5 1.5V18h3a1 1 0 0 0 1-1V8.686a1.5 1.5 0 0 0-.57-1.177l-6.618-5.23Zm-2.244-.785a2.31 2.31 0 0 1 2.864 0l6.618 5.23A2.5 2.5 0 0 1 19 8.686V17a2 2 0 0 1-2 2h-3a1 1 0 0 1-1-1v-4.5a.5.5 0 0 0-.5-.5h-5a.5.5 0 0 0-.5.5V18a1 1 0 0 1-1 1H3a2 2 0 0 1-2-2V8.686a2.5 2.5 0 0 1 .95-1.961l6.618-5.23Z" clip-rule="evenodd"/>
</svg>
