<svg xmlns="http://www.w3.org/2000/svg" fill="currentColor" viewBox="0 0 20 20">
  <g class="ic_hint_t1=outlined_20px">
    <g class="Group 1441">
      <path fill-rule="evenodd" d="M5 7a5 5 0 0 1 10 0c0 1.829-1.035 3.53-2.622 4.398-.49.267-.878.781-.878 1.409V14.5a.5.5 0 0 0 1 0v-1.693c0-.195.125-.405.357-.532C14.76 11.236 16 9.202 16 7A6 6 0 0 0 4 7c0 2.202 1.242 4.236 3.143 5.275.232.127.357.337.357.532V14.5a.5.5 0 0 0 1 0v-1.693c0-.628-.388-1.142-.878-1.41C6.035 10.53 5 8.83 5 7Zm3.5 9a.5.5 0 0 0 0 1h3a.5.5 0 0 0 0-1h-3Zm.5 2.5a.5.5 0 0 1 .5-.5h1a.5.5 0 0 1 0 1h-1a.5.5 0 0 1-.5-.5ZM8.777 8.084a.5.5 0 1 0-.554.832L9.5 10v2.5a.5.5 0 0 0 1 0V10l1.277-1.084a.5.5 0 0 0-.554-.832L10 9.131 8.777 8.084Z" class="$shape" clip-rule="evenodd"/>
    </g>
  </g>
</svg>
