<svg xmlns="http://www.w3.org/2000/svg" fill="currentColor" viewBox="0 0 20 20">
  <path fill-rule="evenodd" d="M9 2a2 2 0 0 1 3.888-.662A2 2 0 0 1 16 3v1.268A2 2 0 0 1 19 6v8.503c-.015 2.176-.987 3.581-2.314 4.42-1.296.819-2.895 1.077-4.19 1.077-1.447 0-3.25-.279-4.878-1.905l-5.974-5.744c-.85-.862-.87-2.344.005-3.207.858-.847 2.331-.87 3.196-.006L6 10.178V4a2 2 0 0 1 3-1.732V2Zm0 6.8a.5.5 0 0 0 1 0V2a1 1 0 1 1 2 0v6.8a.5.5 0 0 0 1 0V3a1 1 0 1 1 2 0v5.8a.5.5 0 0 0 1 0V6a1 1 0 1 1 2 0v8.498c-.013 1.824-.8 2.918-1.848 3.58-1.078.68-2.467.922-3.657.922-1.302 0-2.803-.244-4.174-1.615l-5.97-5.74c-.47-.483-.468-1.327 0-1.79.482-.474 1.33-.473 1.793-.004a.5.5 0 0 0 .021.02l2 1.8A.5.5 0 0 0 7 11.3V4a1 1 0 0 1 2 0v4.8Z" clip-rule="evenodd"/>
</svg>
