<svg xmlns="http://www.w3.org/2000/svg" fill="currentColor" viewBox="0 0 20 20">
  <path fill-rule="evenodd" d="M9 2a2 2 0 0 1 3.888-.662A2 2 0 0 1 16 3v1.268A2 2 0 0 1 19 6v8.503c-.014 2.176-.986 3.581-2.313 4.42-1.296.819-2.896 1.077-4.191 1.077-1.447 0-3.25-.279-4.878-1.905l-5.973-5.744c-.851-.862-.87-2.344.004-3.207.859-.847 2.332-.87 3.196-.006l1.156 1.04V4a2 2 0 0 1 3-1.732V2Zm0 6.8a.5.5 0 0 0 1 0V2a1 1 0 1 1 2 0v6.8a.5.5 0 1 0 1 0V3a1 1 0 1 1 2 0v5.8a.5.5 0 1 0 1 0V6a1 1 0 1 1 2 0v8.498c-.012 1.824-.8 2.918-1.847 3.58-1.078.68-2.467.922-3.657.922-1.303 0-2.803-.244-4.174-1.615l-5.97-5.74c-.47-.483-.468-1.327 0-1.79.481-.474 1.33-.473 1.793-.004a.5.5 0 0 0 .021.02l2 1.8a.5.5 0 0 0 .835-.371V4a1 1 0 0 1 2 0v4.8Z" clip-rule="evenodd"/>
</svg>
