<svg xmlns="http://www.w3.org/2000/svg" fill="currentColor" viewBox="0 0 20 20">
  <path fill-rule="evenodd" d="M5 7a5 5 0 1 1 10 0c0 1.83-1.035 3.53-2.622 4.398-.49.268-.878.782-.878 1.41V14.5a.5.5 0 0 0 1 0v-1.694c0-.194.125-.404.357-.531C14.76 11.236 16 9.203 16 7A6 6 0 0 0 4 7c0 2.203 1.242 4.237 3.143 5.276.232.127.357.337.357.531v1.694a.5.5 0 0 0 1 0v-1.694c0-.627-.388-1.141-.878-1.409C6.035 10.531 5 8.83 5 7Zm3.5 9a.5.5 0 1 0 0 1h3a.5.5 0 0 0 0-1h-3Zm.5 2.5a.5.5 0 0 1 .5-.5h1a.5.5 0 1 1 0 1h-1a.5.5 0 0 1-.5-.5ZM8.777 8.085a.5.5 0 1 0-.554.832L9.5 10v2.5a.5.5 0 1 0 1 0V10l1.277-1.084a.5.5 0 0 0-.554-.832L10 9.132 8.777 8.085Z" clip-rule="evenodd"/>
</svg>
