<svg xmlns="http://www.w3.org/2000/svg" fill="currentColor" viewBox="0 0 20 20">
  <path fill-rule="evenodd" d="M4 2h12a1 1 0 0 1 1 1v11.5a1 1 0 0 1-1 1H3V3a1 1 0 0 1 1-1ZM2 4.5V3a2 2 0 0 1 2-2h12a2 2 0 0 1 2 2v11.5a2 2 0 0 1-2 2H3A1.5 1.5 0 0 0 4.5 18h13a.5.5 0 0 1 0 1h-13A2.5 2.5 0 0 1 2 16.5v-12ZM9 12a1 1 0 1 1 2 0 1 1 0 0 1-2 0Zm.05-5.605c0-.593.523-1.145 1.25-1.145s1.25.552 1.25 1.145a.764.764 0 0 1-.157.498c-.123.165-.306.323-.614.572l-.019.016-.004.004a7.39 7.39 0 0 1-.164.127c-.443.34-1.143.877-1.306 1.908a.75.75 0 1 0 1.482.233c.065-.41.27-.573.718-.931l.213-.172.02-.015.004-.003.034-.028c.562-.456 1.293-1.05 1.293-2.21 0-1.496-1.272-2.644-2.75-2.644S7.55 4.898 7.55 6.395a.75.75 0 1 0 1.5 0Z" clip-rule="evenodd"/>
</svg>
