<svg xmlns="http://www.w3.org/2000/svg" fill="currentColor" viewBox="0 0 20 20">
  <path fill-rule="evenodd" d="M19 5.579v9.393c-.014 2.034-.905 3.26-2.09 4-1.218.76-2.782 1.028-4.119 1.028-1.464 0-3.158-.272-4.705-1.8l-.007-.008-6.669-6.337c-.547-.553-.545-1.52 0-2.052.559-.544 1.541-.544 2.08-.004a.507.507 0 0 0 .022.02l2.236 1.99a.51.51 0 0 0 .545.085.5.5 0 0 0 .3-.457V3.368c0-.64.524-1.157 1.171-1.157s1.172.518 1.172 1.157v5.306c0 .276.226.5.506.5s.506-.224.506-.5V1.158c0-.64.524-1.158 1.171-1.158s1.172.518 1.172 1.158v7.515c0 .277.226.5.506.5s.506-.223.506-.5v-6.41c0-.64.524-1.158 1.171-1.158s1.172.519 1.172 1.158v6.411c0 .276.226.5.506.5s.506-.224.506-.5V5.579c0-.64.524-1.158 1.171-1.158s1.172.518 1.172 1.158Z" clip-rule="evenodd"/>
</svg>
