<svg xmlns="http://www.w3.org/2000/svg" fill="currentColor" viewBox="0 0 20 20">
  <path fill-rule="evenodd" d="M3.5 3a.5.5 0 0 0-.5.5v9.293l2.44-2.44a1.5 1.5 0 0 1 2.12 0l1.586 1.586a.5.5 0 0 0 .708 0l3.585-3.585a1.5 1.5 0 0 1 2.122 0L17 9.793V3.5a.5.5 0 0 0-.5-.5h-13ZM18 10.999V3.5A1.5 1.5 0 0 0 16.5 2h-13A1.5 1.5 0 0 0 2 3.5v13A1.5 1.5 0 0 0 3.5 18h13a1.5 1.5 0 0 0 1.5-1.5v-5.501Zm-1 .208-2.146-2.146a.5.5 0 0 0-.708 0l-3.585 3.585a1.5 1.5 0 0 1-2.122 0l-1.585-1.585a.5.5 0 0 0-.708 0L3 14.207V16.5a.5.5 0 0 0 .5.5h13a.5.5 0 0 0 .5-.5v-5.293ZM6.5 6a.5.5 0 1 0 0 1 .5.5 0 0 0 0-1ZM5 6.5a1.5 1.5 0 1 1 3 0 1.5 1.5 0 0 1-3 0Z" clip-rule="evenodd"/>
</svg>
