<svg xmlns="http://www.w3.org/2000/svg" fill="currentColor" viewBox="0 0 20 20">
  <path fill-rule="evenodd" d="M9.745 2.069a.5.5 0 0 1 .509 0h.002l.005.003.015.01.058.035.215.134a21.691 21.691 0 0 1 3.043 2.36C15.23 6.146 17 8.355 17 10.825 17 14.774 13.878 18 10 18s-7-3.225-7-7.175C3 8.36 4.77 6.151 6.408 4.617a21.796 21.796 0 0 1 3.315-2.535l.016-.01.004-.002.002-.001ZM10 16.999V3.09l-.01.005a20.8 20.8 0 0 0-2.899 2.253C5.48 6.856 4 8.81 4 10.824 4 14.247 6.699 17 10 17Z" clip-rule="evenodd"/>
</svg>
