<svg xmlns="http://www.w3.org/2000/svg" fill="currentColor" viewBox="0 0 16 16">
  <path fill-rule="evenodd" d="M8.765 2c-1.648 0-3.591.682-4.934 1.964C2.176 5.544 1 7.814 1 10.166c0 1.192.364 2.239 1.08 2.945.726.717 1.753 1.023 2.94.834l1.164-.188c1.791-.294 3.27-.536 4.493-.536h.038c.74 0 1.768 0 2.615-.303.443-.158.869-.41 1.183-.814.318-.41.487-.933.487-1.573 0-1.137-.256-1.924-.557-2.497a.5.5 0 0 0-.94.18 1.879 1.879 0 0 0-.037.105A1.5 1.5 0 0 1 10.5 8a1 1 0 0 0-1-1 1.5 1.5 0 1 1 0-3 1 1 0 0 0 1-1c0-.052.003-.104.008-.155a.5.5 0 0 0-.33-.656 4.687 4.687 0 0 0-.604-.13A5.459 5.459 0 0 0 8.764 2ZM9 5.5a.5.5 0 0 0 .5.5h2v2a.5.5 0 0 0 1 0V6h2a.5.5 0 0 0 0-1h-2V3a.5.5 0 0 0-1 0v2h-2a.5.5 0 0 0-.5.5Z" clip-rule="evenodd"/>
</svg>
