<svg xmlns="http://www.w3.org/2000/svg" fill="currentColor" viewBox="0 0 20 20">
  <path fill-rule="evenodd" d="M18.488 13A8.987 8.987 0 0 0 19 10c0-1.052-.18-2.062-.512-3h-4.716c.148.938.228 1.948.228 3s-.08 2.062-.228 3h4.716Zm-.424 1h-4.48c-.654 2.963-2.014 5-3.584 5-1.57 0-2.93-2.037-3.584-5h-4.48A9 9 0 0 0 10 19a9 9 0 0 0 8.064-5ZM1.512 13A8.985 8.985 0 0 1 1 10c0-1.052.18-2.062.512-3h4.716A19.412 19.412 0 0 0 6 10c0 1.052.08 2.062.228 3H1.512Zm.424-7h4.48C7.07 3.037 8.429 1 10 1c1.57 0 2.93 2.037 3.584 5h4.48A9 9 0 0 0 10 1a9 9 0 0 0-8.064 5ZM13 10c0 1.066-.086 2.076-.24 3H7.24A18.3 18.3 0 0 1 7 10a18.3 18.3 0 0 1 .24-3h5.52c.154.924.24 1.934.24 3Zm-4.915 5.958A11.237 11.237 0 0 1 7.442 14h5.116a11.238 11.238 0 0 1-.643 1.958c-.328.738-.693 1.273-1.047 1.61-.35.333-.641.432-.868.432-.227 0-.518-.1-.868-.432-.354-.337-.719-.872-1.047-1.61ZM7.442 6c.173-.732.392-1.392.643-1.958.328-.738.693-1.273 1.047-1.61C9.482 2.099 9.773 2 10 2c.227 0 .518.1.868.432.354.337.719.872 1.047 1.61.251.566.47 1.226.643 1.958H7.442Z" clip-rule="evenodd"/>
</svg>
