<svg xmlns="http://www.w3.org/2000/svg" fill="currentColor" viewBox="0 0 20 20">
  <path fill-rule="evenodd" d="M10.5 3.496A.498.498 0 0 0 10 3c-.276 0-.5.222-.5.496v3.358l-.5.993V6.532c0-1.65-1.91-2.58-3.224-1.57L3.91 6.394A7.427 7.427 0 0 0 1 12.284v2.502c0 1.373 1.37 2.575 2.673 2.113l3.004-1.308A3.476 3.476 0 0 0 9 12.318v-2.251l1-1.986 1 1.986v2.251c0 1.469.93 2.779 2.323 3.273l3.004 1.308c1.303.462 2.673-.74 2.673-2.113v-2.502a7.427 7.427 0 0 0-2.91-5.89l-1.866-1.433C12.909 3.951 11 4.881 11 6.531v1.316l-.5-.993V3.496ZM2 14.786c0 .687.685 1.41 1.336 1.178l3.005-1.308A2.483 2.483 0 0 0 8 12.318V6.532c0-.825-.955-1.29-1.612-.785L4.522 7.18A6.437 6.437 0 0 0 2 12.284v2.502Zm16 0c0 .687-.685 1.41-1.336 1.178l-3.005-1.308A2.483 2.483 0 0 1 12 12.318V6.532c0-.825.955-1.29 1.612-.785l1.866 1.433A6.437 6.437 0 0 1 18 12.284v2.502Z" clip-rule="evenodd"/>
</svg>
