<svg xmlns="http://www.w3.org/2000/svg" fill="currentColor" viewBox="0 0 20 20">
  <path fill-rule="evenodd" d="M14.767 10.88a.5.5 0 0 1-.705-.706l1.924-1.924c1.301-1.302 1.338-3.283.193-4.428s-3.126-1.108-4.428.193L9.827 5.94a.5.5 0 0 1-.706-.706l1.924-1.924c1.64-1.64 4.256-1.777 5.84-.193 1.584 1.584 1.447 4.2-.194 5.84l-1.924 1.924Zm-1.764-3.882a.5.5 0 0 1 0 .705l-5.294 5.294a.5.5 0 1 1-.705-.706l5.293-5.293a.5.5 0 0 1 .706 0Zm-2.127 7.048a.5.5 0 0 1 .003.706L8.94 16.707l-.001.001c-1.631 1.631-4.236 1.752-5.817.17-1.581-1.58-1.46-4.185.17-5.816L5.24 9.115a.5.5 0 0 1 .706.706l-1.947 1.947c-1.286 1.286-1.318 3.257-.17 4.405 1.147 1.147 3.118 1.116 4.404-.17l1.938-1.954a.499.499 0 0 1 .706-.003Z" clip-rule="evenodd"/>
</svg>
