<svg xmlns="http://www.w3.org/2000/svg" fill="currentColor" viewBox="0 0 20 20">
  <circle cx="10" cy="10" r="9"/>
  <path fill-rule="evenodd" d="M10 18c.227 0 .518-.1.868-.432.354-.337.719-.872 1.047-1.61.251-.566.47-1.226.643-1.958H7.442c.173.732.392 1.392.643 1.958.328.738.693 1.273 1.047 1.61.35.333.641.432.868.432Zm-2.76-5A18.3 18.3 0 0 1 7 10a18.3 18.3 0 0 1 .24-3h5.52c.154.924.24 1.934.24 3s-.086 2.076-.24 3H7.24Zm6.344 1c-.343 1.553-.88 2.852-1.539 3.736A8.016 8.016 0 0 0 16.93 14h-3.346Zm3.835-1h-3.647c.148-.938.228-1.948.228-3s-.08-2.062-.228-3h3.647c.375.926.581 1.94.581 3s-.206 2.074-.581 3ZM6.228 13H2.582A7.977 7.977 0 0 1 2 10c0-1.06.207-2.074.582-3h3.646A19.412 19.412 0 0 0 6 10c0 1.052.08 2.062.228 3ZM3.07 14h3.346c.343 1.553.88 2.852 1.539 3.736A8.017 8.017 0 0 1 3.07 14Zm4.372-8h5.116a11.24 11.24 0 0 0-.643-1.958c-.328-.738-.693-1.273-1.047-1.61C10.518 2.099 10.227 2 10 2c-.227 0-.518.1-.868.432-.354.337-.719.872-1.047 1.61-.251.566-.47 1.226-.643 1.958Zm6.142 0h3.346a8.017 8.017 0 0 0-4.885-3.736c.66.884 1.196 2.183 1.54 3.736Zm-5.63-3.736C7.297 3.148 6.76 4.447 6.417 6H3.07a8.017 8.017 0 0 1 4.885-3.736ZM10 1a9 9 0 1 1 0 18 9 9 0 0 1 0-18Z" clip-rule="evenodd"/>
</svg>
