<svg xmlns="http://www.w3.org/2000/svg" fill="currentColor" viewBox="0 0 20 20">
  <g class="ic_link=outlined_20px">
    <g class="Group 1440">
      <path fill-rule="evenodd" d="M14.767 10.88a.5.5 0 0 1-.705-.707l1.924-1.924c1.301-1.301 1.338-3.283.193-4.428-1.145-1.144-3.126-1.108-4.428.194L9.827 5.939a.5.5 0 1 1-.706-.706l1.924-1.924c1.64-1.64 4.256-1.777 5.84-.193 1.584 1.583 1.447 4.199-.194 5.84l-1.924 1.923Zm-1.764-3.883a.5.5 0 0 1 0 .706l-5.294 5.293a.5.5 0 0 1-.705-.705l5.293-5.294a.5.5 0 0 1 .706 0Zm-2.127 7.049a.5.5 0 0 1 .003.705L8.94 16.706l-.001.002c-1.631 1.63-4.236 1.751-5.817.17-1.581-1.58-1.46-4.186.17-5.816L5.24 9.114a.5.5 0 1 1 .706.705l-1.947 1.947c-1.286 1.286-1.318 3.258-.17 4.406 1.147 1.147 3.118 1.115 4.404-.17v-.001l1.938-1.953a.499.499 0 0 1 .706-.003Z" class="$shape" clip-rule="evenodd"/>
    </g>
  </g>
</svg>
