<svg xmlns="http://www.w3.org/2000/svg" fill="currentColor" viewBox="0 0 20 20">
  <path d="M1 3a2 2 0 012-2h9c1.104 0 2 .893 2 1.998V8.5a.5.5 0 01-1 0V2.998A.999.999 0 0012 2H3a1 1 0 00-1 1v9a1 1 0 001 1h5.513a.5.5 0 010 1H3a2 2 0 01-2-2V3z"/>
  <path fill-rule="evenodd" d="M16.453 17.16a4 4 0 11.707-.707l1.694 1.693a.5.5 0 01-.708.708l-1.693-1.694zM17 14a3 3 0 11-6 0 3 3 0 016 0z" clip-rule="evenodd"/>
  <path d="M6.75 17.5a.75.75 0 100-1.5.75.75 0 000 1.5zM17.5 2.75a.75.75 0 11-1.5 0 .75.75 0 011.5 0zM16.75 7.5a.75.75 0 100-1.5.75.75 0 000 1.5zM10 7.5a2.5 2.5 0 11-5 0 2.5 2.5 0 015 0zM2.75 17.5a.75.75 0 100-1.5.75.75 0 000 1.5z"/>
</svg>
