<svg xmlns="http://www.w3.org/2000/svg" fill="currentColor" viewBox="0 0 20 20">
  <path fill-rule="evenodd" d="M1 3a2 2 0 012-2h9c1.105 0 2 .894 2 1.998V8.5a.5.5 0 01-.059.236.549.549 0 01-.44.283c-2.556.202-4.28 1.958-4.481 4.481a.561.561 0 01-.014.086.5.5 0 01-.493.414H3a2 2 0 01-2-2V3zm6.5 7a2.5 2.5 0 100-5 2.5 2.5 0 000 5z" clip-rule="evenodd"/>
  <path fill-rule="evenodd" d="M16.453 17.16a4 4 0 11.707-.707l1.694 1.693a.5.5 0 01-.707.708l-1.694-1.694zM17 14a3 3 0 11-6 0 3 3 0 016 0z" clip-rule="evenodd"/>
  <path d="M6.75 17.5a.75.75 0 100-1.5.75.75 0 000 1.5zM17.5 2.75a.75.75 0 11-1.5 0 .75.75 0 011.5 0zM16.75 7.5a.75.75 0 100-1.5.75.75 0 000 1.5zM2.75 17.5a.75.75 0 100-1.5.75.75 0 000 1.5z"/>
</svg>
