<svg xmlns="http://www.w3.org/2000/svg" fill="currentColor" viewBox="0 0 20 20">
  <path d="M12 1H3a2 2 0 0 0-2 2v9a2 2 0 0 0 2 2h5.5a.533.533 0 0 0 .52-.5c.2-2.523 1.925-4.279 4.48-4.48a.532.532 0 0 0 .5-.52V2.998A1.999 1.999 0 0 0 12 1Z"/>
  <path fill-rule="evenodd" d="M1 3a2 2 0 0 1 2-2h9c1.104 0 2 .893 2 1.998V8.5a.5.5 0 0 1-1 0V2.998A.999.999 0 0 0 12 2H3a1 1 0 0 0-1 1v9a1 1 0 0 0 1 1h5.513a.5.5 0 0 1 0 1H3a2 2 0 0 1-2-2V3Zm16 11a3 3 0 1 1-6 0 3 3 0 0 1 6 0Zm-.547 3.16a4 4 0 1 1 .707-.707l1.694 1.693a.5.5 0 0 1-.708.708l-1.693-1.694Zm-9.703.34a.75.75 0 1 0 0-1.5.75.75 0 0 0 0 1.5ZM17.5 2.75a.75.75 0 1 1-1.5 0 .75.75 0 0 1 1.5 0Zm-.75 4.75a.75.75 0 1 0 0-1.5.75.75 0 0 0 0 1.5ZM10 7.5a2.5 2.5 0 1 1-5 0 2.5 2.5 0 0 1 5 0Zm-7.25 10a.75.75 0 1 0 0-1.5.75.75 0 0 0 0 1.5Z" clip-rule="evenodd"/>
</svg>
