<svg xmlns="http://www.w3.org/2000/svg" fill="currentColor" viewBox="0 0 20 20">
  <path fill-rule="evenodd" d="M2.5 2a.5.5 0 0 0-.5.5v13a.5.5 0 0 0 .5.5h15a.5.5 0 0 0 .5-.5v-13a.5.5 0 0 0-.5-.5h-15ZM1 2.5A1.5 1.5 0 0 1 2.5 1h15A1.5 1.5 0 0 1 19 2.5v13a1.5 1.5 0 0 1-1.5 1.5h-6v1h2a.5.5 0 0 1 0 1h-7a.5.5 0 0 1 0-1h2v-1h-6A1.5 1.5 0 0 1 1 15.5v-13ZM14.437 5v8H13V5h1.437ZM4.5 13h1.536l.663-1.978h3.01L10.38 13h1.535L9.086 5H7.318L4.5 13Zm4.823-3.138H7.086l1.083-3.227h.066l1.088 3.227Z" clip-rule="evenodd"/>
</svg>
