<svg xmlns="http://www.w3.org/2000/svg" fill="currentColor" viewBox="0 0 20 20">
  <path fill-rule="evenodd" d="M2.5 3a.5.5 0 0 0-.5.5v11a.5.5 0 0 0 .5.5h6.6A5 5 0 0 1 16 9.416V3.499A.5.5 0 0 0 15.5 3h-13Zm3 15H11a5 5 0 1 0 6-8V3.499A1.5 1.5 0 0 0 15.5 2h-13A1.5 1.5 0 0 0 1 3.5v11A1.5 1.5 0 0 0 2.5 16h5v1h-2a.5.5 0 0 0 0 1Zm8.5-8a4 4 0 1 0 0 8 4 4 0 0 0 0-8Zm-.498 1.5a.5.5 0 0 1 .498-.502.5.5 0 0 1 .498.502v1.998H16.5a.5.5 0 0 1 .498.502.5.5 0 0 1-.498.502H14a.496.496 0 0 1-.498-.502v-2.5Z" clip-rule="evenodd"/>
</svg>
