<svg xmlns="http://www.w3.org/2000/svg" fill="currentColor" viewBox="0 0 20 20">
  <path fill-rule="evenodd" d="M2 2.5a.5.5 0 0 1 .5-.5h15a.5.5 0 0 1 .5.5v13a.5.5 0 0 1-.5.5h-15a.5.5 0 0 1-.5-.5v-13ZM2.5 1A1.5 1.5 0 0 0 1 2.5v13A1.5 1.5 0 0 0 2.5 17h6v1h-2a.5.5 0 0 0 0 1h7a.5.5 0 0 0 0-1h-2v-1h6a1.5 1.5 0 0 0 1.5-1.5v-13A1.5 1.5 0 0 0 17.5 1h-15Zm6.75 11.24a.75.75 0 0 0 1.5 0V5.75a.75.75 0 0 0-1.5 0v6.49Zm4 .76a.75.75 0 0 1-.75-.75v-4.5a.75.75 0 0 1 1.5 0v4.5a.75.75 0 0 1-.75.75ZM6 12.25a.75.75 0 0 0 1.5 0v-3.5a.75.75 0 0 0-1.5 0v3.5Z" clip-rule="evenodd"/>
</svg>
