<svg xmlns="http://www.w3.org/2000/svg" fill="currentColor" viewBox="0 0 20 20">
  <path fill-rule="evenodd" d="M1.01 2.796C1.004 2.863 1 2.93 1 3v9a2 2 0 0 0 2 2h5.513a.5.5 0 0 0 .493-.414.561.561 0 0 0 .014-.086c.2-2.523 1.925-4.279 4.48-4.48a.549.549 0 0 0 .441-.284A.495.495 0 0 0 14 8.5V2.998A1.999 1.999 0 0 0 12 1H3a2 2 0 0 0-1.99 1.796ZM10 7.5a2.5 2.5 0 1 1-5 0 2.5 2.5 0 0 1 5 0Zm7.5-4.75a.75.75 0 1 1-1.5 0 .75.75 0 0 1 1.5 0ZM14 17a3 3 0 1 0 0-6 3 3 0 0 0 0 6Zm0 1c.924 0 1.775-.314 2.453-.84l1.693 1.694a.5.5 0 0 0 .708-.708l-1.694-1.693A4 4 0 1 0 14 18Zm-7.25-.5a.75.75 0 1 0 0-1.5.75.75 0 0 0 0 1.5Zm10-10a.75.75 0 1 0 0-1.5.75.75 0 0 0 0 1.5ZM3.5 16.75a.75.75 0 1 1-1.5 0 .75.75 0 0 1 1.5 0Z" clip-rule="evenodd"/>
</svg>
