<svg xmlns="http://www.w3.org/2000/svg" fill="currentColor" viewBox="0 0 20 20">
  <path fill-rule="evenodd" d="M4.5 3a.5.5 0 0 0-.5.5v10.408l2.76-2.587a1.5 1.5 0 0 1 2.123.07l.977 1.047.036.037L13.26 9.32a1.5 1.5 0 0 1 2.123.07l.617.662V7h-2.5A1.5 1.5 0 0 1 12 5.5V3H4.5ZM16 11.493l-.354-.354-.006-.006-.006-.006-.982-1.053a.5.5 0 0 0-.708-.024l-3.531 3.31a.75.75 0 0 1-1.052-.006l-.215-.215-.006-.006-.006-.006-.982-1.053a.5.5 0 0 0-.708-.024L4 15.28v1.22a.5.5 0 0 0 .5.5h5.955L16 12.148v-.655Zm-13 3.57V16.5A1.5 1.5 0 0 0 4.5 18h4.812l-.141.124a.5.5 0 0 0 .658.752l8-7a.5.5 0 0 0-.658-.752l-.171.15v-4.36a1.5 1.5 0 0 0-.44-1.06l-1.206-1.208-2.208-2.207A1.5 1.5 0 0 0 12.086 2H4.5A1.5 1.5 0 0 0 3 3.5v11.563Zm11.646-9.71.647.647H13.5a.5.5 0 0 1-.5-.5V3.707l1.646 1.647ZM16.518 15a.5.5 0 0 1 .5.5l-.018 1a1.5 1.5 0 0 1-1.5 1.5h-2a.5.5 0 0 1 0-1h2a.5.5 0 0 0 .5-.5l.018-1a.5.5 0 0 1 .5-.5ZM7 6.5a.5.5 0 1 1 1 0 .5.5 0 0 1-1 0ZM7.5 5a1.5 1.5 0 1 0 0 3 1.5 1.5 0 0 0 0-3Z" clip-rule="evenodd"/>
</svg>
