<svg xmlns="http://www.w3.org/2000/svg" width="20" height="20" fill="currentColor" viewBox="0 0 20 20">
  <path d="M13.436 2.343a8 8 0 00-10.444 11.94.5.5 0 10.75-.66A7 7 0 1115.325 6H12.5a.5.5 0 000 1h4a.5.5 0 00.5-.5v-4a.5.5 0 00-1 0v2.627a8 8 0 00-2.564-2.784zM14 15a1 1 0 11-2 0 1 1 0 012 0z"/>
  <path fill-rule="evenodd" d="M18.959 15.494a.51.51 0 00.01-.378c-.3-.828-1.733-4.061-5.864-4.115a7.33 7.33 0 00-.203 0c-4.136.05-5.57 3.287-5.87 4.115a.51.51 0 00.01.378c.317.74 1.752 3.435 5.797 3.505a9.469 9.469 0 00.306 0c4.058-.063 5.495-2.763 5.814-3.505zM15 15a2 2 0 11-4 0 2 2 0 014 0z" clip-rule="evenodd"/>
</svg>
