<svg xmlns="http://www.w3.org/2000/svg" fill="currentColor" viewBox="0 0 20 20">
  <path fill-rule="evenodd" d="M14.375 3.168A1.857 1.857 0 0 1 16.83 5.63l-1.867 4.064c.184 1.63-.328 3.37-1.601 4.643-1.008 1.007-2.579 1.622-4.112 2.009-1.551.391-3.144.568-4.267.648a1.855 1.855 0 0 1-1.044-.228l5.801-5.8A1.001 1.001 0 1 0 10 8.998a1 1 0 0 0-.966 1.26l-5.8 5.8a1.866 1.866 0 0 1-.227-1.077c.1-1.137.296-2.755.683-4.307.381-1.53.968-3.09 1.905-4.026 1.279-1.277 3.047-1.798 4.702-1.614l4.078-1.867ZM11.838 5.43a5.048 5.048 0 0 1 1.633 1.084 5.12 5.12 0 0 1 1.096 1.645l1.354-2.947a.855.855 0 0 0-1.13-1.134L11.838 5.43Z" clip-rule="evenodd"/>
</svg>
