<svg xmlns="http://www.w3.org/2000/svg" fill="currentColor" viewBox="0 0 20 20">
  <path fill-rule="evenodd" d="M7 2a5 5 0 1 0 0 10h.083A6.002 6.002 0 0 1 19 13a6 6 0 0 1-12 0 6 6 0 1 1 4.628-9.818c.048.057.208.266.372.483V1.5a.5.5 0 0 1 1 0v3a.5.5 0 0 1-.5.5h-3a.5.5 0 1 1 0-1h1.498A4.989 4.989 0 0 0 7 2Zm11 11a5 5 0 1 1-10 0 5 5 0 0 1 10 0Zm-1.67.894a1 1 0 0 0 0-1.788l-4.383-2.191a1 1 0 0 0-1.447.894v4.382a1 1 0 0 0 1.447.894l4.382-2.19ZM11.5 10.81 15.882 13 11.5 15.191v-4.382Z" clip-rule="evenodd"/>
</svg>
