<svg xmlns="http://www.w3.org/2000/svg" fill="currentColor" viewBox="0 0 20 20">
  <path fill-rule="evenodd" d="M4.618 16.145c-.296.584-.537 1.022-.831 1.335-.306.326-.674.52-1.287.52a.5.5 0 1 0 0 1c.887 0 1.52-.307 2.015-.835.36-.383.643-.88.913-1.406a2.5 2.5 0 0 0 3.387-1.316l4.422-.947 2.367-.508a.5.5 0 0 0 .39-.406l2-12a.5.5 0 0 0-.794-.483L9.463 6.902 2.748 3.065a.5.5 0 0 0-.73.568l2.567 9.259A2.49 2.49 0 0 0 4 14.499c0 .63.233 1.206.618 1.646ZM6.5 13a1.5 1.5 0 1 0 0 3 1.5 1.5 0 0 0 0-3ZM3.306 4.536l2.135 7.698a2.5 2.5 0 0 1 3.557 2.147l4.03-.863 2.035-.436 1.739-10.434L9.8 7.899a.5.5 0 0 1-.548.034L3.306 4.536Z" clip-rule="evenodd"/>
</svg>
