<svg xmlns="http://www.w3.org/2000/svg" fill="currentColor" viewBox="0 0 20 20">
  <path fill-rule="evenodd" d="m3.306 4.537 2.135 7.698a2.5 2.5 0 0 1 3.557 2.147l4.03-.863 2.035-.437L16.802 2.65 9.8 7.9a.5.5 0 0 1-.548.034L3.306 4.537Z" clip-rule="evenodd"/>
  <path fill-rule="evenodd" d="M4.618 16.146c-.296.584-.537 1.021-.831 1.335-.306.325-.674.519-1.287.519a.5.5 0 1 0 0 1c.887 0 1.52-.306 2.015-.834.36-.384.643-.88.913-1.407a2.5 2.5 0 0 0 3.387-1.316c1.46-.311 3.113-.665 4.422-.946l2.367-.508a.501.501 0 0 0 .39-.407l2-12A.5.5 0 0 0 17.2 1.1L9.463 6.903 2.748 3.066a.5.5 0 0 0-.73.568l2.567 9.259A2.49 2.49 0 0 0 4 14.5c0 .63.233 1.206.618 1.646ZM6.5 13a1.5 1.5 0 1 0 0 3 1.5 1.5 0 0 0 0-3ZM3.306 4.537l2.135 7.698a2.5 2.5 0 0 1 3.557 2.148l4.03-.864 2.035-.437L16.802 2.65 9.8 7.9a.5.5 0 0 1-.548.034L3.306 4.537Z" clip-rule="evenodd"/>
</svg>
