<svg xmlns="http://www.w3.org/2000/svg" fill="currentColor" viewBox="0 0 20 20">
  <path fill-rule="evenodd" d="M4.618 16.146c-.296.584-.537 1.021-.831 1.335-.306.325-.674.52-1.287.519a.5.5 0 0 0 0 1c.887 0 1.52-.306 2.015-.834.36-.384.643-.88.913-1.407a2.5 2.5 0 0 0 3.387-1.315l4.422-.947 2.367-.508a.501.501 0 0 0 .39-.407l2-12A.5.5 0 0 0 17.2 1.1L9.463 6.903 2.748 3.066a.5.5 0 0 0-.73.568l2.567 9.259A2.49 2.49 0 0 0 4 14.5c0 .63.233 1.206.618 1.646ZM6.5 13a1.5 1.5 0 1 0 0 3 1.5 1.5 0 0 0 0-3Z" clip-rule="evenodd"/>
</svg>
