<svg xmlns="http://www.w3.org/2000/svg" fill="currentColor" viewBox="0 0 20 20">
  <path fill-rule="evenodd" d="m17.281 6.185-5.596 5.59-.004-.005-.806.805a1.5 1.5 0 0 1-.675.389l-1.816.481a1.5 1.5 0 0 1-1.834-1.833l.484-1.828a1.5 1.5 0 0 1 .39-.677l5.976-5.97.004.004.428-.427A2.442 2.442 0 0 1 18 4.448c0 .65-.258 1.277-.719 1.737Zm-2.743-2.764-.68.679 2.043 2.042.254-.254.005.004.415-.414c.272-.272.425-.644.425-1.03a1.443 1.443 0 0 0-2.462-1.027Zm.656 3.427L13.15 4.806 8.93 9.023l-.004-.004-.796.795a.5.5 0 0 0-.13.226l-.483 1.828a.5.5 0 0 0 .61.61l1.817-.48a.499.499 0 0 0 .225-.13l5.025-5.02ZM3.853 3.562A.5.5 0 0 0 3 3.916v3.082h.5a.5.5 0 0 1 0 1H3v2.499h.5a.5.5 0 0 1 0 1H3v2.5h.5a.5.5 0 0 1 0 .999H3V16.5a.5.5 0 0 0 .5.5h1.397v-.5a.5.5 0 1 1 1 0v.5h2.499v-.5a.5.5 0 1 1 1 0v.5h2.499v-.5a.5.5 0 1 1 1 0v.5h3.189a.5.5 0 0 0 .354-.853l-3.595-3.597a.5.5 0 0 1 .707-.707l3.595 3.598c.945.945.273 2.558-1.061 2.558H3.5A1.5 1.5 0 0 1 2 16.5V3.917C2 2.58 3.615 1.91 4.56 2.855l3.592 3.59a.5.5 0 0 1-.707.707l-3.592-3.59Z" clip-rule="evenodd"/>
</svg>
