<svg xmlns="http://www.w3.org/2000/svg" fill="currentColor" viewBox="0 0 20 20">
  <path fill-rule="evenodd" d="M12.961 12.16a.5.5 0 0 1 .793-.114l3.392 3.393c.945.945.276 2.561-1.06 2.561H13v-1.5a.5.5 0 0 0-1 0V18H9.5v-1.5a.5.5 0 0 0-1 0V18H6v-1.5a.5.5 0 0 0-1 0V18H3.5A1.5 1.5 0 0 1 2 16.5V15h1.5a.5.5 0 0 0 0-1H2v-2.5h1.5a.5.5 0 0 0 0-1H2V8h1.5a.5.5 0 0 0 0-1H2V3.914c0-1.336 1.616-2.005 2.56-1.06l3.394 3.392a.5.5 0 0 1-.114.793L6.135 8.743a2.5 2.5 0 0 0-.657 1.162l-.529 2.114c-.458 1.831 1.2 3.49 3.032 3.032l2.114-.529a2.5 2.5 0 0 0 1.162-.657l1.704-1.705Zm3.815-5.445-5.643 5.639-.004-.004-.815.813a1.5 1.5 0 0 1-.675.389l-1.847.49a1.5 1.5 0 0 1-1.835-1.833l.492-1.861a1.5 1.5 0 0 1 .39-.678l5.771-5.767.005.005.688-.689a2.459 2.459 0 0 1 1.738-.719c1.36 0 2.459 1.11 2.459 2.466 0 .654-.26 1.286-.724 1.75ZM14.01 3.927l-.688.688 2.07 2.07.677-.677c.276-.275.431-.652.431-1.042a1.459 1.459 0 0 0-2.49-1.04Z" clip-rule="evenodd"/>
</svg>
