<svg xmlns="http://www.w3.org/2000/svg" fill="currentColor" viewBox="0 0 20 20">
  <path fill-rule="evenodd" d="M3.5 1A2.5 2.5 0 0 0 1 3.5v9.002a2.5 2.5 0 0 0 2.5 2.5H5V19l4.765-3.682a1.5 1.5 0 0 1 .921-.316H16.5a2.5 2.5 0 0 0 2.5-2.5V3.5A2.5 2.5 0 0 0 16.5 1h-13ZM2 3.5A1.5 1.5 0 0 1 3.5 2h13A1.5 1.5 0 0 1 18 3.5v9.002a1.5 1.5 0 0 1-1.5 1.5h-5.814a2.5 2.5 0 0 0-1.535.527L6 17.003v-2.5a.5.5 0 0 0-.5-.5h-2A1.5 1.5 0 0 1 2 12.501V3.5Zm8.5 6.502a.5.5 0 0 0 0-1h-3a.5.5 0 0 0 0 1h3ZM13 6.5a.5.5 0 0 1-.5.5h-5a.5.5 0 0 1 0-1h5a.5.5 0 0 1 .5.5Z" clip-rule="evenodd"/>
</svg>
