<svg xmlns="http://www.w3.org/2000/svg" fill="currentColor" viewBox="0 0 20 20">
  <path fill-rule="evenodd" d="M5 1a1 1 0 0 1 1 1v2H5V2H4V1h1ZM2 1a1 1 0 0 0-1 1v2h1V2h1V1H2Zm0 4v3H1V5h1Zm3 3V5h1v3H5ZM2 9v2h1v1H1.958A1 1 0 0 1 1 11V9h1Zm3 1V9h1v2a1.002 1.002 0 0 1-1 1H4v-1h1v-1Zm3 5a1 1 0 0 1 1-1h9a1 1 0 0 1 1 1v3a1 1 0 0 1-1 1H9a1 1 0 0 1-1-1v-3Zm10 0H9v3h9v-3Zm-1.688-7.13L15 10.147A8 8 0 0 0 9.06 2.27a.5.5 0 1 0-.258.966 7 7 0 0 1 5.174 7.328L11.53 9.152a.5.5 0 0 0-.5.866l3.464 2a.5.5 0 0 0 .683-.183l2-3.464a.5.5 0 1 0-.866-.5Z" clip-rule="evenodd"/>
</svg>
