<svg xmlns="http://www.w3.org/2000/svg" fill="currentColor" viewBox="0 0 20 20">
  <path d="M6.564 2.343a8 8 0 0 1 10.444 11.94.5.5 0 1 1-.75-.661A7 7 0 1 0 4.674 6H7.5a.5.5 0 0 1 0 1h-4a.5.5 0 0 1-.5-.5v-4a.5.5 0 0 1 1 0v2.627a8 8 0 0 1 2.564-2.784ZM6 15a1 1 0 1 0 2 0 1 1 0 0 0-2 0Z"/>
  <path fill-rule="evenodd" d="M1.041 15.494a.51.51 0 0 1-.01-.378c.3-.828 1.733-4.061 5.864-4.115a9.172 9.172 0 0 1 .203 0c4.136.05 5.57 3.287 5.87 4.115a.51.51 0 0 1-.01.378c-.318.74-1.752 3.435-5.798 3.505a9.464 9.464 0 0 1-.305 0c-4.058-.063-5.495-2.763-5.814-3.505ZM5 15a2 2 0 1 0 4 0 2 2 0 0 0-4 0Z" clip-rule="evenodd"/>
</svg>
