<svg xmlns="http://www.w3.org/2000/svg" fill="currentColor" viewBox="0 0 20 20">
  <path fill-rule="evenodd" d="M15 6a4.99 4.99 0 0 1-.316 1.752.999.999 0 0 0-.824 1.426 5 5 0 0 1-8.544-4.932.999.999 0 0 0 .824-1.426A5 5 0 0 1 15 6ZM5.314 2.251A6 6 0 0 1 15.59 8.185a1 1 0 0 1-.904 1.562A6 6 0 0 1 4.411 3.814a1 1 0 0 1 .903-1.562ZM1 15.5A1.5 1.5 0 0 1 2.5 14h15a1.5 1.5 0 0 1 1.5 1.5v3a1.5 1.5 0 0 1-1.5 1.5h-15A1.5 1.5 0 0 1 1 18.5v-3Zm1.5-.5a.5.5 0 0 0-.5.5v3a.5.5 0 0 0 .5.5h15a.5.5 0 0 0 .5-.5v-3a.5.5 0 0 0-.5-.5H15v1.5a.5.5 0 0 1-1 0V15h-3.5v2.5a.5.5 0 0 1-1 0V15H6v1.5a.5.5 0 0 1-1 0V15H2.5Z" clip-rule="evenodd"/>
</svg>
