<svg xmlns="http://www.w3.org/2000/svg" fill="currentColor" viewBox="0 0 20 20">
  <path fill-rule="evenodd" d="M18 1a1 1 0 0 1 1 1v2h-1V2h-1V1h1Zm-3 3V2h1V1h-1a1 1 0 0 0-1 1v2h1Zm3 1v3h1V5h-1Zm-3 3V5h-1v3h1Zm3 1v2h-1v1h1.042A1 1 0 0 0 19 11V9h-1Zm-3 1V9h-1v2a1.002 1.002 0 0 0 1 1h1v-1h-1v-1Zm-3 5a1 1 0 0 0-1-1H2a1 1 0 0 0-1 1v3a1 1 0 0 0 1 1h9a1 1 0 0 0 1-1v-3ZM2 15h9v3H2v-3Zm1.688-7.13L5 10.147a8 8 0 0 1 5.94-7.877.5.5 0 1 1 .258.966 7 7 0 0 0-5.174 7.328L8.47 9.152a.5.5 0 1 1 .5.866l-3.464 2a.5.5 0 0 1-.683-.183l-2-3.464a.5.5 0 1 1 .866-.5Z" clip-rule="evenodd"/>
</svg>
