<svg xmlns="http://www.w3.org/2000/svg" fill="currentColor" viewBox="0 0 20 20">
  <path fill-rule="evenodd" d="M1.5 3a.5.5 0 0 0-.5.5v4a.5.5 0 0 0 1 0V6h16v1.5a.5.5 0 0 0 1 0v-4a.5.5 0 0 0-1 0V5H2V3.5a.5.5 0 0 0-.5-.5ZM1 12.5A1.5 1.5 0 0 1 2.5 11h15a1.5 1.5 0 0 1 1.5 1.5v3a1.5 1.5 0 0 1-1.5 1.5h-15A1.5 1.5 0 0 1 1 15.5v-3Zm13 1V12h-3.5v2.5a.5.5 0 0 1-1 0V12H6v1.5a.5.5 0 0 1-1 0V12H2.5a.5.5 0 0 0-.5.5v3a.5.5 0 0 0 .5.5h15a.5.5 0 0 0 .5-.5v-3a.5.5 0 0 0-.5-.5H15v1.5a.5.5 0 0 1-1 0Z" clip-rule="evenodd"/>
</svg>
