<svg xmlns="http://www.w3.org/2000/svg" fill="currentColor" viewBox="0 0 20 20">
  <path fill-rule="evenodd" d="M3 3.914a.5.5 0 0 1 .854-.353l3.392 3.393a.5.5 0 1 0 .708-.708L4.56 2.854C3.616 1.909 2 2.578 2 3.914V16.5A1.5 1.5 0 0 0 3.5 18h12.586c1.336 0 2.005-1.616 1.06-2.56l-3.392-3.394a.5.5 0 0 0-.708.708l3.393 3.392a.5.5 0 0 1-.353.854H13v-.5a.5.5 0 1 0-1 0v.5H9.5v-.5a.5.5 0 1 0-1 0v.5H6v-.5a.5.5 0 1 0-1 0v.5H3.5a.5.5 0 0 1-.5-.5V15h.5a.5.5 0 0 0 0-1H3v-2.5h.5a.5.5 0 0 0 0-1H3V8h.5a.5.5 0 0 0 0-1H3V3.914Zm9.868-.268L6.838 9.67a1.5 1.5 0 0 0-.389.678l-.492 1.86a1.5 1.5 0 0 0 1.835 1.834l1.847-.49a1.5 1.5 0 0 0 .675-.389l.815-.813.004.004 5.643-5.639a2.476 2.476 0 0 0 .724-1.75A2.465 2.465 0 0 0 15.041 2.5c-.652 0-1.277.259-1.738.72l-.431.43-.004-.004ZM8.349 9.575l.004.003 4.261-4.257 2.066 2.066-5.072 5.069a.5.5 0 0 1-.226.13l-1.847.49a.5.5 0 0 1-.612-.612l.493-1.86a.5.5 0 0 1 .13-.226l.803-.803Zm4.973-4.96.688-.688a1.459 1.459 0 0 1 1.031-.427c.803 0 1.459.658 1.459 1.466 0 .39-.155.767-.43 1.042l-.419.418-.004-.005-.26.26-2.065-2.066Z" clip-rule="evenodd"/>
</svg>
