<svg xmlns="http://www.w3.org/2000/svg" fill="currentColor" viewBox="0 0 20 20">
  <path fill-rule="evenodd" d="M1.041 15.494a.51.51 0 0 1-.01-.378C1.335 14.281 2.79 11 7 11s5.666 3.281 5.968 4.116a.51.51 0 0 1-.01.378C12.637 16.244 11.169 19 7 19c-4.169 0-5.636-2.756-5.959-3.506ZM7 17c-1.11 0-2.01-.895-2.01-2s.9-2 2.01-2c1.11 0 2.01.895 2.01 2s-.9 2-2.01 2Z" clip-rule="evenodd"/>
  <path d="M12.054 1.07A8 8 0 0 0 4 5.127V2.5a.5.5 0 0 0-1 0v4a.5.5 0 0 0 .5.5h4a.5.5 0 0 0 0-1H4.675a7 7 0 1 1 11.582 7.622.5.5 0 0 0 .751.66A8 8 0 0 0 12.054 1.07Z"/>
  <path fill-rule="evenodd" d="M5 15a2 2 0 1 0 4 0 2 2 0 0 0-4 0Zm1 0a1 1 0 1 0 2 0 1 1 0 0 0-2 0Z" clip-rule="evenodd"/>
  <path fill-rule="evenodd" d="M1.032 15.116a.51.51 0 0 0 .01.378C1.363 16.244 2.831 19 7 19c4.169 0 5.636-2.756 5.959-3.506a.51.51 0 0 0 .01-.378C12.665 14.281 11.21 11 7 11s-5.666 3.281-5.968 4.116ZM7 12c-3.296 0-4.578 2.357-4.953 3.276C2.425 16.041 3.704 18 7 18c3.296 0 4.575-1.959 4.953-2.724C11.578 14.357 10.296 12 7 12Z" clip-rule="evenodd"/>
</svg>
