<svg xmlns="http://www.w3.org/2000/svg" fill="currentColor" viewBox="0 0 20 20">
  <path d="M1.5 3.5a2 2 0 0 1 2-2h13a2 2 0 0 1 2 2v9a2 2 0 0 1-2 2h-5.814a2 2 0 0 0-1.228.421L5.5 18v-3.5h-2a2 2 0 0 1-2-2v-9Z"/>
  <path fill-rule="evenodd" d="M3.5 1A2.5 2.5 0 0 0 1 3.5v9A2.5 2.5 0 0 0 3.5 15H5v4l4.765-3.684a1.5 1.5 0 0 1 .921-.316H16.5a2.5 2.5 0 0 0 2.5-2.5v-9A2.5 2.5 0 0 0 16.5 1h-13ZM2 3.5A1.5 1.5 0 0 1 3.5 2h13A1.5 1.5 0 0 1 18 3.5v9a1.5 1.5 0 0 1-1.5 1.5h-5.814a2.5 2.5 0 0 0-1.535.527L6 17v-2.5a.5.5 0 0 0-.5-.5h-2A1.5 1.5 0 0 1 2 12.5v-9Zm8.5 6.5a.5.5 0 0 0 0-1h-3a.5.5 0 0 0 0 1h3ZM13 6.5a.5.5 0 0 1-.5.5h-5a.5.5 0 0 1 0-1h5a.5.5 0 0 1 .5.5Z" clip-rule="evenodd"/>
</svg>
