<svg xmlns="http://www.w3.org/2000/svg" fill="currentColor" viewBox="0 0 20 20">
  <path d="M5.5 18.5H3A1.5 1.5 0 0 1 1.5 17V3A1.5 1.5 0 0 1 3 1.5h9.661c.34 0 .671.116.937.329l4.339 3.47a1.5 1.5 0 0 1 .563 1.172V17a1.5 1.5 0 0 1-1.5 1.5h-2.5V15a1.5 1.5 0 0 0-1.5-1.5H7A1.5 1.5 0 0 0 5.5 15v3.5Z"/>
  <path fill-rule="evenodd" d="M2 3a1 1 0 0 1 1-1h9.661a1 1 0 0 1 .625.22l4.339 3.47a1 1 0 0 1 .375.78V17a1 1 0 0 1-1 1h-2v-3a2 2 0 0 0-2-2H7a2 2 0 0 0-2 2v3H3a1 1 0 0 1-1-1V3Zm4 15h8v-3a1 1 0 0 0-1-1H7a1 1 0 0 0-1 1v3Zm-1 1H3a2 2 0 0 1-2-2V3a2 2 0 0 1 2-2h9.661a2 2 0 0 1 1.25.438l4.338 3.471A2 2 0 0 1 19 6.471V17a2 2 0 0 1-2 2H5Z" clip-rule="evenodd"/>
</svg>
