<svg xmlns="http://www.w3.org/2000/svg" fill="currentColor" viewBox="0 0 20 20">
  <rect width="19" height="11" x=".5" y="4.5" rx="1"/>
  <path d="M3.5 12a.5.5 0 0 0 0 1h1a.5.5 0 0 0 0-1h-1ZM3 7.501a.5.5 0 0 1 .5-.5h1a.5.5 0 1 1 0 1h-1a.5.5 0 0 1-.5-.5ZM3.5 9.5a.5.5 0 0 0 0 1h1a.5.5 0 0 0 0-1h-1ZM7 10a.5.5 0 0 1 .5-.5h1a.5.5 0 0 1 0 1h-1A.5.5 0 0 1 7 10Zm8.5-.5a.5.5 0 0 0 0 1h1a.5.5 0 0 0 0-1h-1ZM11 10a.5.5 0 0 1 .5-.5h1a.5.5 0 0 1 0 1h-1a.5.5 0 0 1-.5-.5ZM7.5 7.001a.5.5 0 1 0 0 1h1a.5.5 0 0 0 0-1h-1Zm3.5.5a.5.5 0 0 1 .5-.5h1a.5.5 0 0 1 0 1h-1a.5.5 0 0 1-.5-.5Zm4.5-.5a.5.5 0 0 0 0 1h1a.5.5 0 0 0 0-1h-1ZM15 12.5a.5.5 0 0 1 .5-.5h1a.5.5 0 0 1 0 1h-1a.5.5 0 0 1-.5-.5ZM7.5 12a.5.5 0 0 0 0 1h5a.5.5 0 0 0 0-1h-5Z"/>
  <path fill-rule="evenodd" d="M1.5 4A1.5 1.5 0 0 0 0 5.5v9A1.5 1.5 0 0 0 1.5 16h17a1.5 1.5 0 0 0 1.5-1.5v-9A1.5 1.5 0 0 0 18.5 4h-17ZM1 5.5a.5.5 0 0 1 .5-.5h17a.5.5 0 0 1 .5.5v9a.5.5 0 0 1-.5.5h-17a.5.5 0 0 1-.5-.5v-9Z" clip-rule="evenodd"/>
</svg>
