<svg xmlns="http://www.w3.org/2000/svg" fill="currentColor" viewBox="0 0 20 20">
  <path fill-rule="evenodd" d="M3.08 10.228C3.498 9.238 5.222 6 10 6c4.766 0 6.528 3.222 6.964 4.224a.231.231 0 0 1-.004.204C16.516 11.285 14.75 14 10 14c-4.76 0-6.49-2.728-6.917-3.575a.227.227 0 0 1-.003-.197ZM10 5C4.636 5 2.647 8.685 2.159 9.839c-.14.33-.135.706.031 1.036C2.73 11.942 4.746 15 10 15c5.237 0 7.292-3.039 7.848-4.112a1.23 1.23 0 0 0 .033-1.063C17.375 8.662 15.347 5 10 5Zm-2 5a2 2 0 1 1 4 0 2 2 0 0 1-4 0Zm2-3a3 3 0 1 0 0 6 3 3 0 0 0 0-6Z" clip-rule="evenodd"/>
</svg>
