<svg xmlns="http://www.w3.org/2000/svg" fill="currentColor" viewBox="0 0 20 20">
  <path fill-rule="evenodd" d="M17.404 10.658a.73.73 0 0 0 .019-.634C16.952 8.942 15.057 5.5 10 5.5c-5.07 0-6.928 3.461-7.381 4.534-.085.2-.08.421.018.616.483.957 2.356 3.85 7.363 3.85 4.993 0 6.904-2.877 7.404-3.842ZM10 7a3 3 0 1 0 0 6 3 3 0 0 0 0-6Z" clip-rule="evenodd"/>
  <path fill-rule="evenodd" d="M10 7a3 3 0 1 0 0 6 3 3 0 0 0 0-6Zm-2 3a2 2 0 1 1 4 0 2 2 0 0 1-4 0Z" clip-rule="evenodd"/>
  <path fill-rule="evenodd" d="M9.977 5C4.59 5 2.59 8.685 2.1 9.839c-.14.33-.135.706.032 1.036C2.672 11.942 4.7 15 9.977 15c5.262 0 7.325-3.039 7.885-4.112.175-.337.18-.724.033-1.063C17.386 8.662 15.349 5 9.977 5Zm-6.952 5.228C3.445 9.238 5.178 6 9.977 6c4.789 0 6.559 3.222 6.997 4.224a.23.23 0 0 1-.004.204C16.523 11.285 14.748 14 9.977 14c-4.782 0-6.519-2.728-6.948-3.575a.227.227 0 0 1-.004-.197Z" clip-rule="evenodd"/>
</svg>
