<svg xmlns="http://www.w3.org/2000/svg" fill="currentColor" viewBox="0 0 20 20">
  <rect width="9" height="9" x="5.5" y="9.5" rx="1.5"/>
  <path fill-rule="evenodd" d="M16.5 1a.5.5 0 0 1 .5.5v4a.5.5 0 0 1-.5.5h-4a.5.5 0 0 1 0-1h2.697A5.998 5.998 0 0 0 10 2C6.84 2 4.234 4.442 3.999 7.538A.5.5 0 1 1 3 7.462C3.277 3.845 6.317 1 10 1a6.996 6.996 0 0 1 6 3.393V1.5a.5.5 0 0 1 .5-.5ZM5 11a2 2 0 0 1 2-2h6a2 2 0 0 1 2 2v6a2 2 0 0 1-2 2H7a2 2 0 0 1-2-2v-6Zm2-1a1 1 0 0 0-1 1v6a1 1 0 0 0 1 1h6a1 1 0 0 0 1-1v-6a1 1 0 0 0-1-1H7Z" clip-rule="evenodd"/>
</svg>
