<svg xmlns="http://www.w3.org/2000/svg" fill="currentColor" viewBox="0 0 20 20">
  <path fill-rule="evenodd" d="M9.998 2A8 8 0 0 0 2 10a8 8 0 1 0 15.46-2.886.533.533 0 0 1 .114-.57c.248-.248.666-.178.795.148A8.979 8.979 0 0 1 18.996 10 8.999 8.999 0 1 1 1 10a8.999 8.999 0 0 1 14.93-6.768.48.48 0 0 1 .013.7.525.525 0 0 1-.714.016A7.966 7.966 0 0 0 9.998 2Zm8.782 2.276a.75.75 0 0 0-1.06-1.06l-8.222 8.223-3.215-3.215a.75.75 0 1 0-1.06 1.06l3.745 3.746a.75.75 0 0 0 1.06 0l8.752-8.754Z" clip-rule="evenodd"/>
</svg>
