<svg xmlns="http://www.w3.org/2000/svg" fill="currentColor" viewBox="0 0 20 20">
  <path fill-rule="evenodd" d="M4.5 3A1.5 1.5 0 0 0 3 4.5v1.167a.5.5 0 0 0 1 0v-.99l6.489 5.926a1.5 1.5 0 0 0 2.023 0L19 4.677V15.5a.5.5 0 0 1-.5.5h-14a.5.5 0 0 1-.5-.5v-1.167a.5.5 0 0 0-1 0V15.5A1.5 1.5 0 0 0 4.5 17h14a1.5 1.5 0 0 0 1.5-1.5v-11A1.5 1.5 0 0 0 18.5 3h-14Zm13.76 1H4.74l6.422 5.865a.5.5 0 0 0 .674 0L18.26 4ZM1.5 9a.5.5 0 0 1 0-1h3a.5.5 0 0 1 0 1h-3Zm-1 3h5a.5.5 0 0 0 0-1h-5a.5.5 0 0 0 0 1Z" clip-rule="evenodd"/>
</svg>
