<svg xmlns="http://www.w3.org/2000/svg" fill="currentColor" viewBox="0 0 20 20">
  <path fill-rule="evenodd" d="M0 5.5A1.5 1.5 0 011.5 4h17A1.5 1.5 0 0120 5.5v9a1.5 1.5 0 01-1.5 1.5h-17A1.5 1.5 0 010 14.5v-9zm3.5 1.501a.5.5 0 100 1h1a.5.5 0 000-1h-1zM3.5 12a.5.5 0 000 1h1a.5.5 0 000-1h-1zM3 10a.5.5 0 01.5-.5h1a.5.5 0 010 1h-1A.5.5 0 013 10zm4.5-.5a.5.5 0 000 1h1a.5.5 0 000-1h-1zm7.5.5a.5.5 0 01.5-.5h1a.5.5 0 010 1h-1a.5.5 0 01-.5-.5zm-3.5-.5a.5.5 0 000 1h1a.5.5 0 000-1h-1zM7 7.501a.5.5 0 01.5-.5h1a.5.5 0 110 1h-1a.5.5 0 01-.5-.5zm4.5-.5a.5.5 0 000 1h1a.5.5 0 000-1h-1zm3.5.5a.5.5 0 01.5-.5h1a.5.5 0 010 1h-1a.5.5 0 01-.5-.5zM15.5 12a.5.5 0 000 1h1a.5.5 0 000-1h-1zm-8.5.5a.5.5 0 01.5-.5h5a.5.5 0 010 1h-5a.5.5 0 01-.5-.5z" clip-rule="evenodd"/>
</svg>
