<svg xmlns="http://www.w3.org/2000/svg" fill="currentColor" viewBox="0 0 20 20">
  <path fill-rule="evenodd" d="M9.054 2a.4.4 0 0 0-.392.318L8.257 4.25l-.264.094A5.993 5.993 0 0 0 6.09 5.449l-.214.184-1.904-.623a.406.406 0 0 0-.477.181l-.941 1.62a.394.394 0 0 0 .079.494l1.513 1.343-.05.277a6.038 6.038 0 0 0 0 2.15l.05.277-1.513 1.343a.394.394 0 0 0-.08.494l.942 1.62c.096.164.295.24.477.181l1.904-.623.214.184a5.985 5.985 0 0 0 1.903 1.105l.264.094.405 1.932a.4.4 0 0 0 .392.318h1.892a.4.4 0 0 0 .392-.318l.405-1.932.264-.094a5.994 5.994 0 0 0 1.903-1.105l.214-.184 1.904.623a.406.406 0 0 0 .477-.181l.941-1.62a.394.394 0 0 0-.079-.494l-1.513-1.343.05-.277a6.04 6.04 0 0 0 0-2.15l-.05-.277 1.513-1.343a.394.394 0 0 0 .08-.494l-.942-1.62a.406.406 0 0 0-.477-.181l-1.904.623-.214-.184a5.993 5.993 0 0 0-1.903-1.105l-.264-.094-.405-1.932A.4.4 0 0 0 10.946 2H9.054Zm-1.37.113A1.4 1.4 0 0 1 9.053 1h1.892a1.4 1.4 0 0 1 1.37 1.113l.292 1.39a6.994 6.994 0 0 1 1.734 1.006l1.375-.45c.63-.206 1.32.056 1.652.63l.942 1.62a1.394 1.394 0 0 1-.28 1.744l-1.098.975a7.058 7.058 0 0 1 0 1.944l1.098.975c.497.441.613 1.17.28 1.744l-.942 1.62a1.406 1.406 0 0 1-1.652.63l-1.375-.45a6.995 6.995 0 0 1-1.734 1.007l-.292 1.39A1.4 1.4 0 0 1 10.947 19H9.054a1.4 1.4 0 0 1-1.37-1.113l-.292-1.39a6.993 6.993 0 0 1-1.734-1.006l-1.375.45a1.406 1.406 0 0 1-1.652-.63l-.942-1.62a1.394 1.394 0 0 1 .28-1.744l1.098-.975a7.058 7.058 0 0 1 0-1.944L1.97 8.053a1.394 1.394 0 0 1-.28-1.744l.942-1.62a1.406 1.406 0 0 1 1.652-.63l1.375.45a6.993 6.993 0 0 1 1.734-1.007l.291-1.39ZM10 7a3 3 0 1 0 0 6 3 3 0 0 0 0-6Zm-4 3a4 4 0 1 1 8 0 4 4 0 0 1-8 0Z" clip-rule="evenodd"/>
</svg>
