<svg xmlns="http://www.w3.org/2000/svg" fill="currentColor" viewBox="0 0 20 20">
  <path fill-rule="evenodd" d="M2 2a1 1 0 0 1 1-1h14a1 1 0 0 1 1 1v2a1 1 0 0 1-1 1H3a1 1 0 0 1-1-1V2Zm1-2a2 2 0 0 0-2 2v2a2 2 0 0 0 2 2h14a2 2 0 0 0 2-2V2a2 2 0 0 0-2-2H3Zm14 3a1 1 0 1 1-2 0 1 1 0 0 1 2 0ZM3 8a1 1 0 0 0-1 1v2a1 1 0 0 0 1 1h14a1 1 0 0 0 1-1V9a1 1 0 0 0-1-1H3ZM1 9a2 2 0 0 1 2-2h14a2 2 0 0 1 2 2v2a2 2 0 0 1-2 2H3a2 2 0 0 1-2-2V9Zm1 7a1 1 0 0 1 1-1h14a1 1 0 0 1 1 1v2a1 1 0 0 1-1 1H3a1 1 0 0 1-1-1v-2Zm1-2a2 2 0 0 0-2 2v2a2 2 0 0 0 2 2h14a2 2 0 0 0 2-2v-2a2 2 0 0 0-2-2H3Zm13 4a1 1 0 1 0 0-2 1 1 0 0 0 0 2Zm0-7a1 1 0 1 0 0-2 1 1 0 0 0 0 2Z" clip-rule="evenodd"/>
</svg>
