<svg xmlns="http://www.w3.org/2000/svg" fill="currentColor" viewBox="0 0 20 20">
  <path fill-rule="evenodd" d="M0 5.5A1.5 1.5 0 0 1 1.5 4h17A1.5 1.5 0 0 1 20 5.5v9a1.5 1.5 0 0 1-1.5 1.5h-17A1.5 1.5 0 0 1 0 14.5v-9Zm3.5 1.501a.5.5 0 1 0 0 1h1a.5.5 0 0 0 0-1h-1ZM3.5 12a.5.5 0 0 0 0 1h1a.5.5 0 0 0 0-1h-1ZM3 10a.5.5 0 0 1 .5-.5h1a.5.5 0 0 1 0 1h-1A.5.5 0 0 1 3 10Zm4.5-.5a.5.5 0 0 0 0 1h1a.5.5 0 0 0 0-1h-1Zm7.5.5a.5.5 0 0 1 .5-.5h1a.5.5 0 0 1 0 1h-1a.5.5 0 0 1-.5-.5Zm-3.5-.5a.5.5 0 0 0 0 1h1a.5.5 0 0 0 0-1h-1ZM7 7.501a.5.5 0 0 1 .5-.5h1a.5.5 0 1 1 0 1h-1a.5.5 0 0 1-.5-.5Zm4.5-.5a.5.5 0 0 0 0 1h1a.5.5 0 0 0 0-1h-1Zm3.5.5a.5.5 0 0 1 .5-.5h1a.5.5 0 0 1 0 1h-1a.5.5 0 0 1-.5-.5ZM15.5 12a.5.5 0 0 0 0 1h1a.5.5 0 0 0 0-1h-1Zm-8.5.5a.5.5 0 0 1 .5-.5h5a.5.5 0 0 1 0 1h-5a.5.5 0 0 1-.5-.5Z" clip-rule="evenodd"/>
</svg>
