<svg xmlns="http://www.w3.org/2000/svg" fill="currentColor" viewBox="0 0 20 20">
  <path fill-rule="evenodd" d="M17.928 10.68c.09-.19.095-.4.018-.595C17.494 8.953 15.52 5 10 5s-7.494 3.953-7.946 5.085a.735.735 0 0 0 .018.595C2.557 11.698 4.55 15 10 15c5.45 0 7.443-3.302 7.928-4.32ZM12.966 10c0 1.657-1.352 3-3.02 3a3.01 3.01 0 0 1-3.02-3c0-1.657 1.351-3 3.02-3a3.01 3.01 0 0 1 3.02 3Zm-1.51 0c0 .828-.676 1.5-1.51 1.5s-1.51-.672-1.51-1.5.676-1.5 1.51-1.5 1.51.672 1.51 1.5Z" clip-rule="evenodd"/>
</svg>
