<svg xmlns="http://www.w3.org/2000/svg" fill="currentColor" viewBox="0 0 20 20">
  <path d="M1.938 16.5h11.018a1 1 0 0 0 .774-.367l4.502-5.5a1 1 0 0 0 0-1.266l-4.502-5.5a1 1 0 0 0-.774-.367H1.938a.5.5 0 0 0-.358.85L6.42 9.3a1 1 0 0 1 0 1.398L1.58 15.65a.5.5 0 0 0 .358.85Z"/>
  <path fill-rule="evenodd" d="M18.653 10.98a1.56 1.56 0 0 0 0-1.96l-4.514-5.5c-.27-.33-.664-.52-1.079-.52H1.952c-.854 0-1.274 1.093-.661 1.718L5.89 9.641a.512.512 0 0 1 .144.359c0 .13-.048.26-.144.359l-4.6 4.923C.679 15.907 1.099 17 1.953 17H13.06c.415 0 .808-.19 1.079-.52l4.514-5.5Zm-.768-1.307a.522.522 0 0 1 0 .654l-4.487 5.5a.462.462 0 0 1-.357.173H2l4.57-4.923A1.54 1.54 0 0 0 7 10a1.54 1.54 0 0 0-.43-1.077L2 4h11.04a.46.46 0 0 1 .358.173l4.487 5.5Z" clip-rule="evenodd"/>
</svg>
