<svg xmlns="http://www.w3.org/2000/svg" fill="currentColor" viewBox="0 0 20 20">
  <path fill-rule="evenodd" d="M18.653 10.98a1.56 1.56 0 000-1.96l-4.514-5.5c-.27-.33-.664-.52-1.079-.52H1.952c-.854 0-1.274 1.093-.661 1.718L5.89 9.641a.512.512 0 01.144.359c0 .13-.048.26-.144.359l-4.6 4.923C.679 15.907 1.099 17 1.953 17H13.06c.415 0 .808-.19 1.079-.52l4.514-5.5zm-.768-1.307a.522.522 0 010 .654l-4.487 5.5a.462.462 0 01-.357.173H2l4.57-4.923A1.54 1.54 0 007 10a1.54 1.54 0 00-.43-1.077L2 4h11.04c.138 0 .269.063.358.173l4.487 5.5z" clip-rule="evenodd"/>
</svg>
