<svg xmlns="http://www.w3.org/2000/svg" fill="currentColor" viewBox="0 0 20 20">
  <path fill-rule="evenodd" d="M14.5 18.5h-9a2 2 0 0 1-2-2v-13a2 2 0 0 1 2-2h5.172a2 2 0 0 1 1.286.469.3.3 0 0 0-.458.255V6.5h4.276a.3.3 0 0 0 .255-.458 2 2 0 0 1 .469 1.286V16.5a2 2 0 0 1-2 2Z" clip-rule="evenodd"/>
  <path fill-rule="evenodd" d="M5.5 2A1.5 1.5 0 0 0 4 3.5v13A1.5 1.5 0 0 0 5.5 18h9a1.5 1.5 0 0 0 1.5-1.5V7.328c0-.118-.014-.235-.041-.348a.834.834 0 0 1-.183.02H11V2.224c0-.064.007-.125.02-.183A1.5 1.5 0 0 0 10.672 2H5.5Zm9.793 4L12 2.707V6h3.293ZM17 7.328a2.5 2.5 0 0 0-.564-1.581.843.843 0 0 0-.095-.113L12.366 1.66a.841.841 0 0 0-.113-.095A2.5 2.5 0 0 0 10.672 1H5.5A2.5 2.5 0 0 0 3 3.5v13A2.5 2.5 0 0 0 5.5 19h9a2.5 2.5 0 0 0 2.5-2.5V7.328ZM10.5 15.5V9.83l2.624 3a.5.5 0 1 0 .752-.66l-3.5-4a.5.5 0 0 0-.752 0l-3.5 4a.5.5 0 0 0 .752.66l2.624-3v5.67a.5.5 0 0 0 1 0Z" clip-rule="evenodd"/>
</svg>
