<svg xmlns="http://www.w3.org/2000/svg" fill="currentColor" viewBox="0 0 20 20">
  <path fill-rule="evenodd" d="M7.045 3a2 2 0 1 0 0 4 2 2 0 0 0 0-4Zm-3 2a3 3 0 1 1 6 0 3 3 0 0 1-6 0Zm-.666 6.644c-.778.935-1.174 2.086-1.367 2.91-.049.208.103.446.41.446h6.123a.5.5 0 0 1 0 1H2.422c-.855 0-1.601-.748-1.384-1.674.211-.898.653-2.218 1.573-3.322C3.545 9.882 4.96 9 7.045 9c.587 0 1.128.07 1.624.198a.5.5 0 0 1-.249.968A5.49 5.49 0 0 0 7.045 10c-1.76 0-2.903.727-3.666 1.644ZM13.7 8.2a.95.95 0 0 0-.93.756l-.098.47a4.256 4.256 0 0 0-.729.385l-.416-.137a.95.95 0 0 0-1.12.427l-.634 1.098a.95.95 0 0 0 .19 1.184l.207.185a3.849 3.849 0 0 0 0 1.064l-.207.185A.95.95 0 0 0 9.772 15l.634 1.098a.95.95 0 0 0 1.12.427l.415-.137c.228.15.473.28.73.386l.098.469a.95.95 0 0 0 .93.756h1.268a.95.95 0 0 0 .93-.756l.097-.47c.258-.105.502-.234.73-.384l.415.136a.95.95 0 0 0 1.12-.427L18.893 15a.95.95 0 0 0-.19-1.184l-.207-.185a3.849 3.849 0 0 0 0-1.064l.207-.185a.95.95 0 0 0 .19-1.184l-.634-1.098a.95.95 0 0 0-1.12-.427l-.416.137a4.257 4.257 0 0 0-.729-.386l-.097-.469a.95.95 0 0 0-.93-.756h-1.269Zm-.164 1.981.204-.98h1.187l.204.98.273.091c.343.114.659.282.936.491l.21.158.864-.285.594 1.028-.604.54.063.285a2.83 2.83 0 0 1 0 1.222l-.063.286.604.54-.594 1.027-.865-.285-.209.158a3.26 3.26 0 0 1-.936.491l-.273.091-.204.981H13.74l-.204-.981-.273-.09a3.256 3.256 0 0 1-.936-.492l-.21-.158-.864.284-.594-1.027.604-.54-.063-.285a2.832 2.832 0 0 1 0-1.222l.063-.286-.604-.539.594-1.028.865.285.21-.158c.276-.21.592-.377.935-.49l.273-.092Zm-.202 2.92a1 1 0 1 1 2 0 1 1 0 0 1-2 0Zm-1 0a2 2 0 1 1 4-.001 2 2 0 0 1-4 0Z" clip-rule="evenodd"/>
</svg>
