<svg xmlns="http://www.w3.org/2000/svg" fill="currentColor" viewBox="0 0 20 20">
  <path fill-rule="evenodd" d="M4.5 1A1.5 1.5 0 0 0 3 2.5v14A1.5 1.5 0 0 0 4.5 18H10a.5.5 0 0 1 0 1H4.5A2.5 2.5 0 0 1 2 16.5v-14A2.5 2.5 0 0 1 4.5 0h6.172a2.5 2.5 0 0 1 1.581.564.84.84 0 0 1 .113.095l3.975 3.975a.843.843 0 0 1 .095.113A2.5 2.5 0 0 1 17 6.328V9.5a.5.5 0 0 1-1 0V6.328c0-.118-.014-.235-.041-.348a.834.834 0 0 1-.183.02H11V1.224c0-.064.007-.125.02-.183A1.5 1.5 0 0 0 10.672 1H4.5Zm10.793 4L12 1.707V5h3.293ZM11 15.5a4.5 4.5 0 1 1 9 0 4.5 4.5 0 0 1-9 0Zm4-.793-1.146 1.147a.5.5 0 0 1-.708-.708l2-2a.5.5 0 0 1 .708 0l2 2a.5.5 0 0 1-.708.708L16 14.707V17.5a.5.5 0 0 1-1 0v-2.793Z" clip-rule="evenodd"/>
</svg>
