<svg xmlns="http://www.w3.org/2000/svg" fill="currentColor" viewBox="0 0 20 20">
  <path fill-rule="evenodd" d="M5.5 2A1.5 1.5 0 0 0 4 3.5v13A1.5 1.5 0 0 0 5.5 18h9a1.5 1.5 0 0 0 1.5-1.5V7.328c0-.118-.014-.235-.041-.348a.834.834 0 0 1-.183.02H11V2.224c0-.064.007-.125.02-.183A1.499 1.499 0 0 0 10.672 2H5.5Zm6.5.707L15.293 6H12V2.707Zm5 4.621a2.5 2.5 0 0 0-.564-1.582.839.839 0 0 0-.095-.112l-.073-.073-3.829-3.829-.073-.073a.845.845 0 0 0-.112-.095A2.5 2.5 0 0 0 10.672 1H5.5A2.5 2.5 0 0 0 3 3.5v13A2.5 2.5 0 0 0 5.5 19h9a2.5 2.5 0 0 0 2.5-2.5V7.328ZM10.5 15.5V9.83l2.624 3a.5.5 0 1 0 .752-.66l-3.5-4a.5.5 0 0 0-.752 0l-3.5 4a.5.5 0 0 0 .752.66l2.624-3v5.67a.5.5 0 0 0 1 0Z" clip-rule="evenodd"/>
</svg>
