<svg xmlns="http://www.w3.org/2000/svg" fill="currentColor" viewBox="0 0 20 20">
  <path fill-rule="evenodd" d="M16.5 10h-.595-.405a5.5 5.5 0 00-5.047 7.688c.058.134.047.54.047.54v.272a.5.5 0 01-.5.5H4.5A2.5 2.5 0 012 16.5v-14A2.5 2.5 0 014.5 0h6.172a2.5 2.5 0 011.581.564.84.84 0 01.113.095l3.975 3.975a.843.843 0 01.095.113A2.5 2.5 0 0117 6.328V9.5a.5.5 0 01-.5.5zM12 1.707L15.293 5H12V1.707zM11 15.5a4.5 4.5 0 119 0 4.5 4.5 0 01-9 0zm4-.793l-1.146 1.147a.5.5 0 01-.708-.708l2-2a.5.5 0 01.708 0l2 2a.5.5 0 01-.708.708L16 14.707V17.5a.5.5 0 01-1 0v-2.793z" clip-rule="evenodd"/>
</svg>
