<svg xmlns="http://www.w3.org/2000/svg" fill="currentColor" viewBox="0 0 20 20">
  <path fill-rule="evenodd" d="M15.5 10h-1a5.5 5.5 0 0 0-5.047 7.688c.058.134.047.54.047.54v.272a.5.5 0 0 1-.5.5H3.5A2.5 2.5 0 0 1 1 16.5v-14A2.5 2.5 0 0 1 3.5 0h6.172a2.5 2.5 0 0 1 1.581.564.84.84 0 0 1 .113.095l3.975 3.975a.843.843 0 0 1 .095.113A2.5 2.5 0 0 1 16 6.328V9.5a.5.5 0 0 1-.5.5ZM11 1.707 14.293 5H11V1.707ZM10 15.5a4.5 4.5 0 1 1 9 0 4.5 4.5 0 0 1-9 0Zm4-.793-1.146 1.147a.5.5 0 0 1-.708-.708l2-2a.5.5 0 0 1 .708 0l2 2a.5.5 0 0 1-.708.708L15 14.707V17.5a.5.5 0 0 1-1 0v-2.793Z" clip-rule="evenodd"/>
</svg>
