<svg xmlns="http://www.w3.org/2000/svg" fill="currentColor" viewBox="0 0 20 20">
  <path fill-rule="evenodd" d="M3.5 2A1.5 1.5 0 0 0 2 3.5v4A1.5 1.5 0 0 0 3.5 9h4A1.5 1.5 0 0 0 9 7.5v-4A1.5 1.5 0 0 0 7.5 2h-4ZM3 3.5a.5.5 0 0 1 .5-.5h4a.5.5 0 0 1 .5.5v4a.5.5 0 0 1-.5.5h-4a.5.5 0 0 1-.5-.5v-4ZM12.5 2A1.5 1.5 0 0 0 11 3.5v4A1.5 1.5 0 0 0 12.5 9h4A1.5 1.5 0 0 0 18 7.5v-4A1.5 1.5 0 0 0 16.5 2h-4ZM12 3.5a.5.5 0 0 1 .5-.5h4a.5.5 0 0 1 .5.5v4a.5.5 0 0 1-.5.5h-4a.5.5 0 0 1-.5-.5v-4Zm-10 9A1.5 1.5 0 0 1 3.5 11h4A1.5 1.5 0 0 1 9 12.5v4A1.5 1.5 0 0 1 7.5 18h-4A1.5 1.5 0 0 1 2 16.5v-4Zm1.5-.5a.5.5 0 0 0-.5.5v4a.5.5 0 0 0 .5.5h4a.5.5 0 0 0 .5-.5v-4a.5.5 0 0 0-.5-.5h-4Zm9-1a1.5 1.5 0 0 0-1.5 1.5v4a1.5 1.5 0 0 0 1.5 1.5h4a1.5 1.5 0 0 0 1.5-1.5v-4a1.5 1.5 0 0 0-1.5-1.5h-4Zm-.5 1.5a.5.5 0 0 1 .5-.5h4a.5.5 0 0 1 .5.5v4a.5.5 0 0 1-.5.5h-4a.5.5 0 0 1-.5-.5v-4Z" clip-rule="evenodd"/>
</svg>
