<svg xmlns="http://www.w3.org/2000/svg" fill="currentColor" viewBox="0 0 20 20">
  <path fill-rule="evenodd" d="M4.5 3A1.5 1.5 0 003 4.5v3A1.5 1.5 0 004.5 9h3A1.5 1.5 0 009 7.5v-3A1.5 1.5 0 007.5 3h-3zm8 0A1.5 1.5 0 0011 4.5v3A1.5 1.5 0 0012.5 9h3A1.5 1.5 0 0017 7.5v-3A1.5 1.5 0 0015.5 3h-3zm0 8a1.5 1.5 0 00-1.5 1.5v3a1.5 1.5 0 001.5 1.5h3a1.5 1.5 0 001.5-1.5v-3a1.5 1.5 0 00-1.5-1.5h-3zm-8 0A1.5 1.5 0 003 12.5v3A1.5 1.5 0 004.5 17h3A1.5 1.5 0 009 15.5v-3A1.5 1.5 0 007.5 11h-3z" clip-rule="evenodd"/>
</svg>
