<svg xmlns="http://www.w3.org/2000/svg" fill="currentColor" viewBox="0 0 20 20">
  <path fill-rule="evenodd" d="M10.5 1.5a.5.5 0 0 0-1 0v2.52A6.001 6.001 0 0 0 4.02 9.5H1.5a.5.5 0 0 0 0 1h2.52a6.001 6.001 0 0 0 5.48 5.48v2.52a.5.5 0 0 0 1 0v-2.52a6.002 6.002 0 0 0 5.48-5.48h2.52a.5.5 0 0 0 0-1h-2.52a6.001 6.001 0 0 0-5.48-5.48V1.5Zm4.475 8A5.002 5.002 0 0 0 10.5 5.025V7.5a.5.5 0 0 1-1 0V5.025A5.002 5.002 0 0 0 5.025 9.5H7.5a.5.5 0 0 1 0 1H5.025A5.002 5.002 0 0 0 9.5 14.975V12.5a.5.5 0 0 1 1 0v2.475a5.002 5.002 0 0 0 4.475-4.475H12.5a.5.5 0 0 1 0-1h2.475Z" clip-rule="evenodd"/>
</svg>
