<svg xmlns="http://www.w3.org/2000/svg" fill="currentColor" viewBox="0 0 20 20">
  <rect width="18" height="18" x="1" y="1" rx="2.5"/>
  <path fill-rule="evenodd" d="M1 3.5A2.5 2.5 0 0 1 3.5 1h3a.5.5 0 0 1 0 1h-3A1.5 1.5 0 0 0 2 3.5v3a.5.5 0 0 1-1 0v-3Zm12-2a.5.5 0 0 1 .5-.5h3A2.5 2.5 0 0 1 19 3.5v3a.5.5 0 0 1-1 0v-3A1.5 1.5 0 0 0 16.5 2h-3a.5.5 0 0 1-.5-.5ZM1.5 13a.5.5 0 0 1 .5.5v3A1.5 1.5 0 0 0 3.5 18h3a.5.5 0 0 1 0 1h-3A2.5 2.5 0 0 1 1 16.5v-3a.5.5 0 0 1 .5-.5Zm17 0a.5.5 0 0 1 .5.5v3a2.5 2.5 0 0 1-2.5 2.5h-3a.5.5 0 0 1 0-1h3a1.5 1.5 0 0 0 1.5-1.5v-3a.5.5 0 0 1 .5-.5Z" clip-rule="evenodd"/>
</svg>
