<svg xmlns="http://www.w3.org/2000/svg" fill="currentColor" viewBox="0 0 20 20">
  <path d="M3.5 1A2.5 2.5 0 0 0 1 3.5v3a.5.5 0 0 0 1 0v-3A1.5 1.5 0 0 1 3.5 2h3a.5.5 0 0 0 0-1h-3Zm10 0a.5.5 0 0 0 0 1h3A1.5 1.5 0 0 1 18 3.5v3a.5.5 0 0 0 1 0v-3A2.5 2.5 0 0 0 16.5 1h-3ZM2 13.5a.5.5 0 0 0-1 0v3A2.5 2.5 0 0 0 3.5 19h3a.5.5 0 0 0 0-1h-3A1.5 1.5 0 0 1 2 16.5v-3Zm17 0a.5.5 0 0 0-1 0v3a1.5 1.5 0 0 1-1.5 1.5h-3a.5.5 0 0 0 0 1h3a2.5 2.5 0 0 0 2.5-2.5v-3Zm-9.5-6v-3a.5.5 0 0 1 1 0v3a.5.5 0 0 1-1 0Zm0 8v-3a.5.5 0 0 1 1 0v3a.5.5 0 0 1-1 0Zm-2-5a.5.5 0 0 0 0-1h-3a.5.5 0 0 0 0 1h3ZM16 10a.5.5 0 0 1-.5.5h-3a.5.5 0 0 1 0-1h3a.5.5 0 0 1 .5.5Z"/>
</svg>
