<svg xmlns="http://www.w3.org/2000/svg" fill="currentColor" viewBox="0 0 20 20">
  <path fill-rule="evenodd" d="M9.994 6a1.5 1.5 0 1 0 0 3 1.5 1.5 0 0 0 0-3Zm-2.5 1.5a2.5 2.5 0 1 1 5 0 2.5 2.5 0 0 1-5 0Zm-2 7.421L5.99 15a3.597 3.597 0 0 1 .128-.453 4.1 4.1 0 0 1 .557-1.053c.55-.745 1.533-1.512 3.326-1.512 1.793 0 2.776.768 3.326 1.512a4.099 4.099 0 0 1 .661 1.396c.01.036.017.072.024.109.001.005.369-.056.47-.073l.025-.004.014-.002c.081-.013.48-.074.48-.078a4.528 4.528 0 0 0-.17-.617 5.072 5.072 0 0 0-.693-1.305C13.42 11.949 12.15 11 10 11s-3.42.947-4.137 1.918a5.072 5.072 0 0 0-.823 1.74c-.015.06-.03.12-.04.182v.002l.494.078Z" clip-rule="evenodd"/>
</svg>
