<svg xmlns="http://www.w3.org/2000/svg" fill="currentColor" viewBox="0 0 20 20">
  <path fill-rule="evenodd" d="M6 4.5a1.5 1.5 0 1 1-3 0 1.5 1.5 0 0 1 3 0Zm5.5 0a1.5 1.5 0 1 1-3 0 1.5 1.5 0 0 1 3 0Zm4 1.5a1.5 1.5 0 1 0 0-3 1.5 1.5 0 0 0 0 3ZM6 10a1.5 1.5 0 1 1-3 0 1.5 1.5 0 0 1 3 0Zm4 1.5a1.5 1.5 0 1 0 0-3 1.5 1.5 0 0 0 0 3Zm7-1.5a1.5 1.5 0 1 1-3 0 1.5 1.5 0 0 1 3 0ZM4.5 17a1.5 1.5 0 1 0 0-3 1.5 1.5 0 0 0 0 3Zm7-1.5a1.5 1.5 0 1 1-3 0 1.5 1.5 0 0 1 3 0Zm4 1.5a1.5 1.5 0 1 0 0-3 1.5 1.5 0 0 0 0 3Z" clip-rule="evenodd"/>
</svg>
