<svg xmlns="http://www.w3.org/2000/svg" fill="currentColor" viewBox="0 0 20 20">
  <path fill-rule="evenodd" d="M9.835 17.87c.245-.214.324-.65.118-.934A5 5 0 0 1 13.5 9.024a.562.562 0 0 0 .44-.288.497.497 0 0 0 .06-.226V6.12a2 2 0 0 0-.586-1.414l-.073-.073L9.366.66 9.293.586A2 2 0 0 0 7.879 0H2a2 2 0 0 0-2 2v14a2 2 0 0 0 2 2h7.502a.486.486 0 0 0 .333-.13ZM8 1.008v.217c0-.075.01-.146.027-.213A1.004 1.004 0 0 0 8 1.007ZM12.78 6h.213a.838.838 0 0 0-.004-.027.826.826 0 0 1-.208.027ZM9 5V1.707L12.293 5H9Zm5 6a3 3 0 1 0 0 6 3 3 0 0 0 0-6Zm-4 3a4 4 0 1 1 7.16 2.453l2.694 2.693a.5.5 0 0 1-.708.708l-2.693-2.694A4 4 0 0 1 10 14Z" clip-rule="evenodd"/>
</svg>
