<svg xmlns="http://www.w3.org/2000/svg" fill="currentColor" viewBox="0 0 28 28">
  <path fill-rule="evenodd" d="M14 7.56a2.329 2.329 0 0 0-2.318 2.34A2.329 2.329 0 0 0 14 12.24a2.329 2.329 0 0 0 2.317-2.34A2.329 2.329 0 0 0 14 7.56ZM10.137 9.9c0-2.154 1.73-3.9 3.863-3.9s3.863 1.746 3.863 3.9-1.73 3.9-3.863 3.9-3.863-1.746-3.863-3.9ZM5.76 21.86l.76.14v-.002l.003-.012a5.58 5.58 0 0 1 .23-.734 6.656 6.656 0 0 1 1.021-1.758C8.789 18.24 10.631 16.92 14 16.92c3.37 0 5.211 1.321 6.226 2.574a6.654 6.654 0 0 1 1.022 1.758 5.6 5.6 0 0 1 .225.714l.004.018.003.014V22l.76-.14.76-.14v-.005l-.002-.006-.004-.02a4.895 4.895 0 0 0-.067-.28 7.162 7.162 0 0 0-.242-.729 8.217 8.217 0 0 0-1.263-2.174C20.119 16.898 17.84 15.36 14 15.36s-6.119 1.538-7.422 3.146a8.218 8.218 0 0 0-1.263 2.174 7.152 7.152 0 0 0-.296.945 3.14 3.14 0 0 0-.013.064l-.004.02-.001.006v.003L5 21.719l.76.14Z" clip-rule="evenodd"/>
</svg>
