<svg xmlns="http://www.w3.org/2000/svg" fill="currentColor" viewBox="0 0 28 28">
  <path fill-rule="evenodd" d="M28 14c0 7.732-6.268 14-14 14S0 21.732 0 14 6.268 0 14 0s14 6.268 14 14ZM14 7.25a2.25 2.25 0 1 0 0 4.5 2.25 2.25 0 0 0 0-4.5ZM10.25 9.5a3.75 3.75 0 1 1 7.5 0 3.75 3.75 0 0 1-7.5 0ZM6 21l.738.135v-.002l.003-.012a2.332 2.332 0 0 1 .04-.16c.034-.127.092-.316.182-.545a6.44 6.44 0 0 1 .992-1.691C8.941 17.52 10.73 16.25 14 16.25s5.06 1.271 6.044 2.475a6.4 6.4 0 0 1 .993 1.69 5.337 5.337 0 0 1 .218.687l.004.018.003.013v.002L22 21l.738-.135v-.004l-.002-.006-.004-.02a4.778 4.778 0 0 0-.065-.27 6.822 6.822 0 0 0-.235-.7 7.885 7.885 0 0 0-1.226-2.09C19.94 16.23 17.729 14.75 14 14.75c-3.729 0-5.94 1.479-7.205 3.025a7.884 7.884 0 0 0-1.227 2.09 6.827 6.827 0 0 0-.287.91l-.013.06-.004.02-.001.006v.003c0 .001 0 .002.737.136Z" clip-rule="evenodd"/>
</svg>
