<svg xmlns="http://www.w3.org/2000/svg" fill="currentColor" viewBox="0 0 20 20">
  <path fill-rule="evenodd" d="M2.979 5H1.5a.5.5 0 0 0 0 1H3l.42 9.604A2.5 2.5 0 0 0 5.919 18h8.164a2.5 2.5 0 0 0 2.497-2.396L17 6h1.5a.5.5 0 0 0 0-1H14v-.5A2.5 2.5 0 0 0 11.5 2h-3A2.5 2.5 0 0 0 6 4.5V5H2.979ZM7 5h6v-.5A1.5 1.5 0 0 0 11.5 3h-3A1.5 1.5 0 0 0 7 4.5V5Zm9 1H4l.42 9.562A1.5 1.5 0 0 0 5.918 17h8.164a1.5 1.5 0 0 0 1.498-1.438L16 6Zm-3.146 2.854a.5.5 0 0 0-.708-.708L10 10.293 7.854 8.146a.5.5 0 1 0-.708.708L9.293 11l-2.147 2.146a.5.5 0 0 0 .708.708L10 11.707l2.146 2.147a.5.5 0 0 0 .708-.708L10.707 11l2.147-2.146Z" clip-rule="evenodd"/>
</svg>
