<svg xmlns="http://www.w3.org/2000/svg" fill="currentColor" viewBox="0 0 20 20">
  <path fill-rule="evenodd" d="M7 4a3 3 0 0 1 6 0v9.372a.605.605 0 0 1-.093.323l-1.638 2.599a1.5 1.5 0 0 1-2.538 0l-1.638-2.6A.605.605 0 0 1 7 13.373V4Zm3-2a2 2 0 0 0-2 2v1.5h4V4a2 2 0 0 0-2-2ZM5.765 16.39c-.341-.352-.698-.72 1.312-.845l.808 1.282c.046.073.095.143.146.209-1.134-.073-1.921-.25-2.121-.49a2.557 2.557 0 0 0-.145-.156Zm6.773.479c-.163.02-.325.037-.486.054.021-.031.043-.063.063-.096l.716-1.137c2.35.3 2.187.88-.293 1.179ZM17.5 19a1.5 1.5 0 0 0 1.5-1.5v-3a1.5 1.5 0 0 0-1.5-1.5h-3.25v1h3.25a.5.5 0 0 1 .5.5v3a.5.5 0 0 1-.5.5h-15a.5.5 0 0 1-.5-.5v-3a.5.5 0 0 1 .5-.5h3.25v-1H2.5A1.5 1.5 0 0 0 1 14.5v3A1.5 1.5 0 0 0 2.5 19h15Z" clip-rule="evenodd"/>
</svg>
