<svg xmlns="http://www.w3.org/2000/svg" fill="currentColor" viewBox="0 0 20 20">
  <path fill-rule="evenodd" d="M7 4a3 3 0 0 1 6 0v9.372a.605.605 0 0 1-.093.323l-1.638 2.599a1.5 1.5 0 0 1-2.538 0l-1.638-2.6A.605.605 0 0 1 7 13.373V4Zm3-2a2 2 0 0 0-2 2v1.5h4V4a2 2 0 0 0-2-2ZM8 13.258V6.5h4v6.758l-1.577 2.503a.5.5 0 0 1-.846 0L8 13.258ZM5.999 13H6v.114c0 .304.056.604.162.886H2.498a.499.499 0 0 0-.498.5v3a.5.5 0 0 0 .5.5h15a.5.5 0 0 0 .5-.5v-3a.5.5 0 0 0-.499-.5h-3.663a2.5 2.5 0 0 0 .162-.886V13h3.501A1.5 1.5 0 0 1 19 14.5v3a1.5 1.5 0 0 1-1.5 1.5h-15A1.5 1.5 0 0 1 1 17.5v-3c0-.827.669-1.5 1.498-1.5H6Zm-.234 3.39c-.341-.352-.698-.72 1.312-.845l.808 1.282c.046.073.095.143.146.209-1.134-.073-1.921-.25-2.121-.49a2.557 2.557 0 0 0-.145-.156Zm6.773.479c-.163.02-.325.037-.486.054.021-.031.043-.063.063-.096l.716-1.137c2.35.3 2.187.88-.293 1.179Z" clip-rule="evenodd"/>
</svg>
