<svg xmlns="http://www.w3.org/2000/svg" fill="currentColor" viewBox="0 0 20 20">
  <path fill-rule="evenodd" d="M12.818 1.585a2 2 0 0 0-2.83 0L3.686 7.89a1.035 1.035 0 0 0-.01.01l-2.09 2.09a2 2 0 0 0 0 2.828l5.597 5.596a2 2 0 0 0 2.83 0l2.098-2.099 6.304-6.304a2 2 0 0 0 0-2.828l-5.596-5.597Zm-2.122.707a1 1 0 0 1 1.415 0l5.596 5.597a1 1 0 0 1 0 1.414l-6.304 6.304-7.01-7.011 6.303-6.304Zm-8.403 8.403 1.392-1.392 7.011 7.011-1.392 1.392a1 1 0 0 1-1.414 0L2.293 12.11a1 1 0 0 1 0-1.415Z" clip-rule="evenodd"/>
</svg>
