<svg xmlns="http://www.w3.org/2000/svg" fill="currentColor" viewBox="0 0 20 20">
  <path fill-rule="evenodd" d="M2.5 1A1.5 1.5 0 0 0 1 2.5v4a.5.5 0 0 0 1 0V2.707l3.646 3.647a.5.5 0 0 0 .708-.708L2.707 2H6.5a.5.5 0 0 0 0-1h-4Zm11 0a.5.5 0 0 0 0 1h3.793l-3.646 3.647a.5.5 0 0 0 .707.707L18 2.707V6.5a.5.5 0 0 0 1 0v-4A1.5 1.5 0 0 0 17.5 1h-4ZM2 13.5a.5.5 0 0 0-1 0v4A1.5 1.5 0 0 0 2.5 19h4a.5.5 0 0 0 0-1H2.707l3.647-3.646a.5.5 0 1 0-.708-.707L2 17.293V13.5Zm17 0a.5.5 0 0 0-1 0v3.793l-3.646-3.646a.5.5 0 0 0-.707.707L17.293 18H13.5a.5.5 0 0 0 0 1h4a1.5 1.5 0 0 0 1.5-1.5v-4Z" clip-rule="evenodd"/>
</svg>
