<svg xmlns="http://www.w3.org/2000/svg" fill="currentColor" viewBox="0 0 20 20">
  <path fill-rule="evenodd" d="M4 3.5A1.5 1.5 0 0 1 5.5 2h5.172a1.5 1.5 0 0 1 .348.041.835.835 0 0 0-.02.183V7h4.776a.834.834 0 0 0 .183-.02c.027.113.041.23.041.348V16.5a1.5 1.5 0 0 1-1.5 1.5h-9A1.5 1.5 0 0 1 4 16.5v-13Zm8-.793L15.293 6H12V2.707Zm4.436 3.04A2.5 2.5 0 0 1 17 7.328V16.5a2.5 2.5 0 0 1-2.5 2.5h-9A2.5 2.5 0 0 1 3 16.5v-13A2.5 2.5 0 0 1 5.5 1h5.172a2.5 2.5 0 0 1 1.581.564.841.841 0 0 1 .113.095l3.975 3.975a.843.843 0 0 1 .095.113Z" clip-rule="evenodd"/>
</svg>
