<svg xmlns="http://www.w3.org/2000/svg" fill="currentColor" viewBox="0 0 20 20">
  <path fill-rule="evenodd" d="m15.834 8.92-5.755-5.754a.509.509 0 0 0-.72 0L7.685 4.842l2.093 1.255a.501.501 0 0 1-.516.86L6.953 5.571l-3.46 3.46h12.425a.509.509 0 0 0-.084-.112Zm-9.78-3.888L1.447 9.64a1.526 1.526 0 0 0 0 2.158l5.755 5.754a1.526 1.526 0 0 0 2.158 0l7.193-7.193a1.526 1.526 0 0 0 0-2.158l-5.755-5.755a1.526 1.526 0 0 0-2.158 0L6.785 4.302l-2.018-1.21a.5.5 0 0 0-.515.859l1.802 1.081ZM2.166 10.36l.326-.325H15.44l-6.8 6.799a.509.509 0 0 1-.719 0l-5.755-5.755a.509.509 0 0 1 0-.72ZM17 17c.566 0 1-.45 1-.971 0-.096-.042-.28-.192-.557a4.997 4.997 0 0 0-.572-.81 8.322 8.322 0 0 0-.236-.266 8.163 8.163 0 0 0-.236.267 5.001 5.001 0 0 0-.572.81c-.15.278-.192.461-.192.556 0 .522.434.97 1 .97Zm0 1c1.105 0 2-.883 2-1.971 0-1.326-2-3.03-2-3.03s-2 1.707-2 3.03c0 1.088.895 1.97 2 1.97Z" clip-rule="evenodd"/>
</svg>
