<svg xmlns="http://www.w3.org/2000/svg" fill="currentColor" viewBox="0 0 20 20">
  <path fill-rule="evenodd" d="M10.812 2.282a1.31 1.31 0 0 0-1.624 0L2.57 7.512A1.5 1.5 0 0 0 2 8.687V17a1 1 0 0 0 1 1h3v-4.5a1.5 1.5 0 0 1 1.5-1.499h5a1.5 1.5 0 0 1 1.5 1.5V18h3a1 1 0 0 0 1-1V8.687a1.5 1.5 0 0 0-.57-1.177l-6.618-5.229Zm-2.244-.784a2.31 2.31 0 0 1 2.864 0l6.618 5.229a2.5 2.5 0 0 1 .95 1.96V17a2 2 0 0 1-2 2h-3a1 1 0 0 1-1-1v-4.5a.5.5 0 0 0-.5-.499h-5a.5.5 0 0 0-.5.5V18a1 1 0 0 1-1 1H3a2 2 0 0 1-2-2V8.688a2.5 2.5 0 0 1 .95-1.961l6.618-5.23Z" clip-rule="evenodd"/>
</svg>
