<svg xmlns="http://www.w3.org/2000/svg" fill="currentColor" viewBox="0 0 20 20">
  <path fill-rule="evenodd" d="M11 2c-2.125 0-4.629.918-6.353 2.635C2.508 6.764 1 9.812 1 12.954c0 1.584.464 2.958 1.36 3.88.908.935 2.204 1.345 3.722 1.093.523-.087 1.029-.173 1.517-.256 2.343-.4 4.29-.733 5.901-.733h.041c.974 0 2.299 0 3.384-.405.563-.21 1.09-.539 1.476-1.056.388-.522.599-1.192.599-2.026 0-1.282-.185-2.182-.423-2.86a.5.5 0 0 0-.715-.271c-.141.078-.248.293-.314.426-.02.04-.036.072-.048.092-.443.699-1.111 1.162-2 1.162A2.5 2.5 0 0 1 13 9.5a.5.5 0 0 0-.5-.5 2.5 2.5 0 0 1 0-5 .5.5 0 0 0 .5-.5s.007-.506 0-.803a.505.505 0 0 0-.417-.577A9.532 9.532 0 0 0 11 2Zm4.5 1a.5.5 0 0 0-.5.5V6h-2.5a.5.5 0 0 0 0 1H15v2.5a.5.5 0 0 0 1 0V7h2.5a.5.5 0 0 0 0-1H16V3.5a.5.5 0 0 0-.5-.5Z" clip-rule="evenodd"/>
</svg>
