<svg xmlns="http://www.w3.org/2000/svg" fill="currentColor" viewBox="0 0 20 20">
  <path fill-rule="evenodd" d="M14.375 3.168A1.857 1.857 0 0 1 16.83 5.63l-1.867 4.064c.184 1.63-.328 3.37-1.601 4.643-1.008 1.007-2.579 1.622-4.112 2.009-1.551.391-3.144.568-4.267.648a1.84 1.84 0 0 1-1.977-2.012c.1-1.137.296-2.755.683-4.307.381-1.53.968-3.09 1.905-4.026 1.279-1.277 3.047-1.798 4.702-1.614l4.078-1.867ZM11.838 5.43a5.048 5.048 0 0 1 1.633 1.084 5.12 5.12 0 0 1 1.096 1.645l1.354-2.947a.855.855 0 0 0-1.13-1.134L11.838 5.43ZM4.912 15.996a.903.903 0 0 1-.194-.007l5.023-5.024a1.001 1.001 0 1 0-.707-.707L4.01 15.281a.912.912 0 0 1-.006-.212c.097-1.112.288-2.672.657-4.152.374-1.503.91-2.83 1.642-3.56 1.82-1.819 4.839-1.754 6.459-.135 1.623 1.622 1.708 4.592-.108 6.407-.81.81-2.162 1.371-3.65 1.746-1.47.371-3 .543-4.093.62Z" clip-rule="evenodd"/>
</svg>
