<svg xmlns="http://www.w3.org/2000/svg" fill="currentColor" viewBox="0 0 20 20">
  <path fill-rule="evenodd" d="M5 3a2 2 0 0 1 2-2h5.879a2 2 0 0 1 1.414.586l4.121 4.121A2 2 0 0 1 19 7.121V11.5a.5.5 0 0 1-1 0V7.121a1 1 0 0 0-.293-.707l-4.121-4.121A1 1 0 0 0 12.879 2H7a1 1 0 0 0-1 1v.5a.5.5 0 0 1-1 0V3Zm.5 8a.5.5 0 0 1 .5.5V17a1 1 0 0 0 1 1h5.5a.5.5 0 0 1 0 1H7a2 2 0 0 1-2-2v-5.5a.5.5 0 0 1 .5-.5ZM16 17.293V13.5a.5.5 0 0 1 1 0v3.793l1.146-1.147a.5.5 0 0 1 .708.708l-2 2a.5.5 0 0 1-.708 0l-2-2a.5.5 0 0 1 .708-.708L16 17.293ZM1 5v5h1V8h1.104C4.354 8 5 7.494 5 6.5 5 5.511 4.364 5 3.128 5H1Zm1 2V6h.928C3.506 6 4 6 4 6.5s-.499.5-1.077.5H2Zm5.722-2H6v5h1.703C9.36 10 10 9.058 10 7.495 10 5.937 9.359 5 7.722 5ZM7 9V6h.66C8.5 6 9 6.382 9 7.495 9 8.615 8.5 9 7.656 9H7Zm7-1h-2v2h-1V5h3.5v1H12v1h2v1Z" clip-rule="evenodd"/>
</svg>
