<svg xmlns="http://www.w3.org/2000/svg" fill="currentColor" viewBox="0 0 20 20">
  <path fill-rule="evenodd" d="m11.685 11.774 5.596-5.589A2.46 2.46 0 0 0 18 4.448a2.442 2.442 0 0 0-4.168-1.734l-.428.427-.004-.004-5.976 5.97a1.5 1.5 0 0 0-.39.677l-.484 1.828a1.5 1.5 0 0 0 1.834 1.833l1.816-.482a1.5 1.5 0 0 0 .675-.388l.806-.805.004.004ZM13.86 4.1l.68-.68A1.442 1.442 0 0 1 17 4.449c0 .386-.153.758-.425 1.03l-.415.414-.005-.004-.254.254L13.86 4.1Zm-1.162 8.075a.498.498 0 0 1 .853-.332l3.595 3.598c.945.945.273 2.558-1.061 2.558h-3.19v-1.503a.5.5 0 1 0-1 0v1.503H9.396v-1.503a.5.5 0 1 0-1 0v1.503H5.898v-1.503a.5.5 0 1 0-1 0v1.503H3.5A1.5 1.5 0 0 1 2 16.5v-1.503h1.5a.5.5 0 1 0 0-1H2v-2.5h1.5a.5.5 0 0 0 0-.999H2v-2.5h1.5a.5.5 0 0 0 0-.999H2V3.916C2 2.58 3.615 1.91 4.56 2.855l3.592 3.59a.5.5 0 0 1-.327.852L6.718 8.405a2.5 2.5 0 0 0-.65 1.128l-.483 1.83c-.49 1.855 1.203 3.548 3.057 3.056l1.816-.482a2.5 2.5 0 0 0 1.126-.648l1.113-1.114Z" clip-rule="evenodd"/>
</svg>
