<svg xmlns="http://www.w3.org/2000/svg" fill="currentColor" viewBox="0 0 20 20">
  <path fill-rule="evenodd" d="M7 6a3 3 0 1 1 6 0 3 3 0 0 1-6 0Zm3-4a4 4 0 1 0 0 8 4 4 0 0 0 0-8ZM2.035 16.56a7.188 7.188 0 0 1 2.253-2.883C5.513 12.75 7.323 12 10 12c2.677 0 4.488.75 5.712 1.677a7.188 7.188 0 0 1 2.253 2.883.271.271 0 0 1-.027.287.418.418 0 0 1-.34.153H2.403a.418.418 0 0 1-.34-.153.271.271 0 0 1-.027-.287ZM10 11c-2.88 0-4.909.812-6.322 1.882a8.188 8.188 0 0 0-2.568 3.284c-.197.457-.118.93.146 1.28.258.344.68.554 1.146.554h15.197c.466 0 .887-.21 1.145-.554.264-.35.343-.823.146-1.28a8.19 8.19 0 0 0-2.569-3.284C14.91 11.812 12.882 11 10 11Z" clip-rule="evenodd"/>
</svg>
