<svg xmlns="http://www.w3.org/2000/svg" fill="currentColor" viewBox="0 0 20 20">
  <path fill-rule="evenodd" d="M2 3.5A1.5 1.5 0 0 1 3.5 2h4A1.5 1.5 0 0 1 9 3.5v4A1.5 1.5 0 0 1 7.5 9h-4A1.5 1.5 0 0 1 2 7.5v-4Zm9 0A1.5 1.5 0 0 1 12.5 2h4A1.5 1.5 0 0 1 18 3.5v4A1.5 1.5 0 0 1 16.5 9h-4A1.5 1.5 0 0 1 11 7.5v-4ZM3.5 11A1.5 1.5 0 0 0 2 12.5v4A1.5 1.5 0 0 0 3.5 18h4A1.5 1.5 0 0 0 9 16.5v-4A1.5 1.5 0 0 0 7.5 11h-4Zm7.5 1.5a1.5 1.5 0 0 1 1.5-1.5h4a1.5 1.5 0 0 1 1.5 1.5v4a1.5 1.5 0 0 1-1.5 1.5h-4a1.5 1.5 0 0 1-1.5-1.5v-4Z" clip-rule="evenodd"/>
</svg>
