<svg width="420" height="36" viewBox="0 0 420 36" fill="none" xmlns="http://www.w3.org/2000/svg">
<rect width="420" height="36" rx="8" fill="#4E4E50"/>
<path d="M16.916 22.0977L20.293 18.543C20.735 18.069 21.0723 17.6885 21.3047 17.4014C21.5417 17.1097 21.7217 16.8294 21.8447 16.5605C21.9678 16.2917 22.0293 16.0091 22.0293 15.7129C22.0293 15.3802 21.9427 15.0885 21.7695 14.8379C21.5964 14.5827 21.3594 14.3844 21.0586 14.2432C20.7624 14.1019 20.4297 14.0312 20.0605 14.0312C19.6732 14.0312 19.3337 14.111 19.042 14.2705C18.7503 14.4255 18.5247 14.6419 18.3652 14.9199C18.2103 15.1979 18.1328 15.5215 18.1328 15.8906H16.9707C16.9661 15.3164 17.0983 14.8083 17.3672 14.3662C17.6406 13.9242 18.0166 13.5801 18.4951 13.334C18.9736 13.0879 19.5091 12.9648 20.1016 12.9648C20.6895 12.9648 21.2158 13.0856 21.6807 13.3271C22.1501 13.5687 22.5169 13.8991 22.7812 14.3184C23.0456 14.7376 23.1777 15.2025 23.1777 15.7129C23.1732 16.0911 23.1025 16.4535 22.9658 16.7998C22.8337 17.1416 22.6058 17.5221 22.2822 17.9414C21.9587 18.3607 21.5007 18.8757 20.9082 19.4863L18.6387 21.8242V21.9062H23.3555V23H16.9297L16.916 22.0977ZM28.3867 23.1367C27.6576 23.1367 27.0332 22.9385 26.5137 22.542C25.9987 22.1455 25.6045 21.5667 25.3311 20.8057C25.0622 20.0446 24.9277 19.1263 24.9277 18.0508C24.9277 16.9889 25.0622 16.0775 25.3311 15.3164C25.6045 14.5508 26.001 13.9674 26.5205 13.5664C27.04 13.1654 27.6621 12.9648 28.3867 12.9648C29.1068 12.9648 29.7266 13.1654 30.2461 13.5664C30.7656 13.9674 31.1621 14.5508 31.4355 15.3164C31.709 16.0775 31.8457 16.9889 31.8457 18.0508C31.8457 19.1263 31.709 20.0446 31.4355 20.8057C31.1667 21.5667 30.7725 22.1455 30.2529 22.542C29.738 22.9385 29.1159 23.1367 28.3867 23.1367ZM26.1172 18.0508C26.1172 18.8984 26.2061 19.6208 26.3838 20.2178C26.5661 20.8148 26.8258 21.2682 27.1631 21.5781C27.5003 21.888 27.9082 22.043 28.3867 22.043C28.8607 22.043 29.2663 21.888 29.6035 21.5781C29.9453 21.2682 30.2028 20.8148 30.376 20.2178C30.5537 19.6208 30.6426 18.8984 30.6426 18.0508C30.6426 17.2031 30.5537 16.4785 30.376 15.877C30.1982 15.2754 29.9408 14.8174 29.6035 14.5029C29.2663 14.1885 28.8607 14.0312 28.3867 14.0312C27.9128 14.0312 27.5072 14.1885 27.1699 14.5029C26.8327 14.8174 26.5729 15.2754 26.3906 15.877C26.2083 16.4785 26.1172 17.2031 26.1172 18.0508ZM33.8828 17.9004C34.3249 17.39 34.8535 17.1302 35.4688 17.1211C35.7012 17.1257 35.9313 17.1621 36.1592 17.2305C36.387 17.2943 36.6628 17.3923 36.9863 17.5244C37.3236 17.6566 37.597 17.7546 37.8066 17.8184C38.0163 17.8822 38.2305 17.9141 38.4492 17.9141C39.0781 17.9049 39.5977 17.6178 40.0078 17.0527V18.1875C39.5521 18.707 39.0234 18.9668 38.4219 18.9668C38.1849 18.9668 37.9502 18.9326 37.7178 18.8643C37.4854 18.7959 37.2096 18.6956 36.8906 18.5635C36.5488 18.4313 36.2731 18.3333 36.0635 18.2695C35.8584 18.2057 35.6465 18.1738 35.4277 18.1738C34.8125 18.1829 34.2975 18.4701 33.8828 19.0352V17.9004ZM41.7988 22.0977L45.1758 18.543C45.6178 18.069 45.9551 17.6885 46.1875 17.4014C46.4245 17.1097 46.6045 16.8294 46.7275 16.5605C46.8506 16.2917 46.9121 16.0091 46.9121 15.7129C46.9121 15.3802 46.8255 15.0885 46.6523 14.8379C46.4792 14.5827 46.2422 14.3844 45.9414 14.2432C45.6452 14.1019 45.3125 14.0312 44.9434 14.0312C44.556 14.0312 44.2165 14.111 43.9248 14.2705C43.6331 14.4255 43.4076 14.6419 43.248 14.9199C43.0931 15.1979 43.0156 15.5215 43.0156 15.8906H41.8535C41.849 15.3164 41.9811 14.8083 42.25 14.3662C42.5234 13.9242 42.8994 13.5801 43.3779 13.334C43.8564 13.0879 44.3919 12.9648 44.9844 12.9648C45.5723 12.9648 46.0986 13.0856 46.5635 13.3271C47.0329 13.5687 47.3997 13.8991 47.6641 14.3184C47.9284 14.7376 48.0605 15.2025 48.0605 15.7129C48.056 16.0911 47.9854 16.4535 47.8486 16.7998C47.7165 17.1416 47.4886 17.5221 47.165 17.9414C46.8415 18.3607 46.3835 18.8757 45.791 19.4863L43.5215 21.8242V21.9062H48.2383V23H41.8125L41.7988 22.0977ZM53.2832 12.9648C53.9212 12.9648 54.5114 13.1107 55.0537 13.4023C55.6006 13.6895 56.0472 14.1816 56.3936 14.8789C56.7445 15.5762 56.9199 16.5013 56.9199 17.6543C56.9199 18.8118 56.7673 19.8031 56.4619 20.6279C56.1611 21.4482 55.7282 22.0726 55.1631 22.501C54.6025 22.9248 53.9349 23.1367 53.1602 23.1367C52.5859 23.1367 52.071 23.0273 51.6152 22.8086C51.1595 22.5853 50.7881 22.2754 50.501 21.8789C50.2139 21.4824 50.0293 21.0221 49.9473 20.498H51.1641C51.278 20.9629 51.5059 21.3366 51.8477 21.6191C52.194 21.9017 52.6315 22.043 53.1602 22.043C53.6979 22.043 54.1605 21.8949 54.5479 21.5986C54.9398 21.2979 55.2406 20.8626 55.4502 20.293C55.6598 19.7233 55.7669 19.0397 55.7715 18.2422H55.6348C55.3477 18.6569 54.9831 18.9805 54.541 19.2129C54.1035 19.4408 53.625 19.5547 53.1055 19.5547C52.5176 19.5547 51.9753 19.4157 51.4785 19.1377C50.9863 18.8551 50.5944 18.4655 50.3027 17.9688C50.0111 17.4674 49.8652 16.9069 49.8652 16.2871C49.8652 15.6764 50.0065 15.1182 50.2891 14.6123C50.5716 14.1064 50.9704 13.7054 51.4854 13.4092C52.0049 13.113 52.6042 12.9648 53.2832 12.9648ZM51.0684 16.2734C51.0684 16.679 51.1618 17.0505 51.3486 17.3877C51.54 17.7204 51.8044 17.9847 52.1416 18.1807C52.4788 18.3766 52.8594 18.4746 53.2832 18.4746C53.7025 18.4746 54.0876 18.3721 54.4385 18.167C54.7894 17.9574 55.0674 17.6816 55.2725 17.3398C55.4775 16.9935 55.5801 16.6289 55.5801 16.2461C55.5801 15.8678 55.4821 15.5101 55.2861 15.1729C55.0902 14.8356 54.819 14.5645 54.4727 14.3594C54.1309 14.1497 53.748 14.0449 53.3242 14.0449C52.9004 14.0449 52.5153 14.1452 52.1689 14.3457C51.8226 14.5462 51.5514 14.8174 51.3555 15.1592C51.1595 15.501 51.0638 15.8724 51.0684 16.2734Z" fill="#FAFAFB"/>
<path fill-rule="evenodd" clip-rule="evenodd" d="M390.171 15.6237C390.379 15.4419 390.694 15.4629 390.876 15.6708L394 19.2407L397.124 15.6708C397.306 15.4629 397.621 15.4419 397.829 15.6237C398.037 15.8056 398.058 16.1214 397.876 16.3293L394.376 20.3293C394.281 20.4378 394.144 20.5 394 20.5C393.856 20.5 393.719 20.4378 393.624 20.3293L390.124 16.3293C389.942 16.1214 389.963 15.8056 390.171 15.6237Z" fill="#FAFAFB"/>
</svg>
