<svg xmlns="http://www.w3.org/2000/svg" width="284" height="40" fill="currentColor" viewBox="0 0 284 40"><g clip-path="url(#a)"><path fill="#00C9EA" d="M20 0a20 20 0 1 0 0 40 20 20 0 0 0 0-40Zm6.01 18.662a7.39 7.39 0 0 0-7.3 7.299v.096a4.724 4.724 0 1 1-4.724-4.724 7.3 7.3 0 0 0 7.299-7.358v-.037a4.72 4.72 0 1 1 4.719 4.724h.005Z"/><path fill="#000" fill-rule="evenodd" d="M71.525 30.52H57.08a1.834 1.834 0 0 1-1.818-1.813V3.951a.405.405 0 0 0-.406-.405h-4.452A.405.405 0 0 0 50 3.95v26.2a5.23 5.23 0 0 0 5.225 5.22h16.3a.406.406 0 0 0 .405-.404v-4.042a.405.405 0 0 0-.405-.405ZM128.55 5.774h-4.09a.406.406 0 0 0-.405.406v4.09c0 .223.182.404.405.404h4.09a.405.405 0 0 0 .405-.405V6.18a.405.405 0 0 0-.405-.405Zm71.192 21.03h4.015a.535.535 0 0 1 .368.122.53.53 0 0 1 .117.405 9.108 9.108 0 0 1-5.492 7.209 13.417 13.417 0 0 1-5.444 1.066 12.261 12.261 0 0 1-6.254-1.546 10.372 10.372 0 0 1-4.095-4.41 14.748 14.748 0 0 1-1.434-6.696 14.431 14.431 0 0 1 1.471-6.697 10.55 10.55 0 0 1 4.159-4.41 12.552 12.552 0 0 1 6.329-1.546c1.824-.02 3.631.343 5.305 1.066a9.01 9.01 0 0 1 3.733 2.96 8.886 8.886 0 0 1 1.599 4.041.523.523 0 0 1-.291.531.495.495 0 0 1-.205.045h-4.052a.535.535 0 0 1-.496-.41 5.367 5.367 0 0 0-.885-2.101 4.74 4.74 0 0 0-1.951-1.6 6.632 6.632 0 0 0-2.746-.533 5.67 5.67 0 0 0-3.423 1.066 6.702 6.702 0 0 0-2.464 3.002 11.479 11.479 0 0 0-.863 4.634 11.65 11.65 0 0 0 .847 4.633 6.736 6.736 0 0 0 2.394 3.007 5.377 5.377 0 0 0 3.333 1.04 7.171 7.171 0 0 0 2.938-.57 4.971 4.971 0 0 0 2.058-1.659 5.455 5.455 0 0 0 .938-2.234.535.535 0 0 1 .491-.416Zm24.964-14.92a13.818 13.818 0 0 0-12.701 0 10.418 10.418 0 0 0-4.186 4.41 16.2 16.2 0 0 0 0 13.394 10.385 10.385 0 0 0 4.186 4.41 13.814 13.814 0 0 0 12.701 0 10.408 10.408 0 0 0 4.164-4.41 16.199 16.199 0 0 0 0-13.394 10.46 10.46 0 0 0-4.164-4.41Zm-2.954 18.742a5.573 5.573 0 0 1-3.391 1.067 5.722 5.722 0 0 1-3.44-1.067 6.82 6.82 0 0 1-2.479-3.001 11.296 11.296 0 0 1-.88-4.634 11.497 11.497 0 0 1 .864-4.633 6.711 6.711 0 0 1 2.479-3.002 5.867 5.867 0 0 1 3.493-1.067 5.489 5.489 0 0 1 3.37 1.067 6.851 6.851 0 0 1 2.463 3.002 12.572 12.572 0 0 1 0 9.267 6.78 6.78 0 0 1-2.479 3.001Zm49.394.747h-10.312a.588.588 0 0 1-.591-.592v-5.444a.591.591 0 0 1 .591-.592h9.657a.416.416 0 0 0 .415-.416v-3.14a.415.415 0 0 0-.415-.416h-9.657a.59.59 0 0 1-.591-.592v-4.975a.59.59 0 0 1 .171-.42.588.588 0 0 1 .42-.171h10.275a.41.41 0 0 0 .296-.124.419.419 0 0 0 .12-.297v-3.136a.416.416 0 0 0-.416-.416h-15.638a.413.413 0 0 0-.39.256.42.42 0 0 0-.032.16V34.93a.42.42 0 0 0 .124.296.416.416 0 0 0 .298.12h15.675a.414.414 0 0 0 .416-.416v-3.14a.414.414 0 0 0-.256-.384.42.42 0 0 0-.16-.032Zm-27.976-20.73a11.264 11.264 0 0 1 4.799.964 7.32 7.32 0 0 1 3.183 2.778 8.048 8.048 0 0 1 1.114 4.266 7.925 7.925 0 0 1-1.136 4.265 7.461 7.461 0 0 1-3.252 2.816 11.66 11.66 0 0 1-4.943.98h-3.679a.437.437 0 0 0-.437.438v7.78a.416.416 0 0 1-.416.415h-4.388a.417.417 0 0 1-.416-.416V11.06a.416.416 0 0 1 .416-.417h9.155Zm2.181 11.596a3.608 3.608 0 0 0 1.551-1.418l-.021.01c.391-.663.596-1.42.592-2.19a4.218 4.218 0 0 0-.533-2.133 3.565 3.565 0 0 0-1.472-1.387 4.905 4.905 0 0 0-2.271-.496h-3.765a.584.584 0 0 0-.592.592v6.932a.595.595 0 0 0 .592.597h3.525a5.332 5.332 0 0 0 2.394-.507Zm-66.59 3.253a6.446 6.446 0 0 0-1.787-2.069 10.59 10.59 0 0 0-2.511-1.402 18.004 18.004 0 0 0-2.879-.875l-2.453-.57a15.229 15.229 0 0 1-1.573-.432 7.132 7.132 0 0 1-1.397-.63 2.948 2.948 0 0 1-.959-.879 2.095 2.095 0 0 1-.342-1.21 2.43 2.43 0 0 1 .533-1.51 3.538 3.538 0 0 1 1.531-1.066 6.828 6.828 0 0 1 2.452-.4 5.947 5.947 0 0 1 3.301.832 3.038 3.038 0 0 1 1.365 2.01.531.531 0 0 0 .533.4h3.956a.532.532 0 0 0 .534-.352.392.392 0 0 0 0-.16 6.228 6.228 0 0 0-1.259-3.375 8.104 8.104 0 0 0-3.38-2.543 12.57 12.57 0 0 0-4.964-.917 13.096 13.096 0 0 0-4.996.912 8.461 8.461 0 0 0-3.509 2.575 6.152 6.152 0 0 0-1.295 3.87 5.396 5.396 0 0 0 1.935 4.325c1.521 1.184 3.294 2 5.183 2.383l2.975.715c.823.19 1.632.437 2.421.741a4.313 4.313 0 0 1 1.562.992c.355.394.546.91.533 1.44 0 .623-.223 1.226-.629 1.7a4.12 4.12 0 0 1-1.744 1.147 7.613 7.613 0 0 1-2.628.416 7.879 7.879 0 0 1-2.597-.4 4.302 4.302 0 0 1-1.845-1.195 3.301 3.301 0 0 1-.757-1.717.534.534 0 0 0-.533-.416h-4.036a.56.56 0 0 0-.395.16.466.466 0 0 0-.133.363 7.282 7.282 0 0 0 1.37 3.828 7.96 7.96 0 0 0 3.583 2.634 14.77 14.77 0 0 0 5.38.89 14.394 14.394 0 0 0 5.433-.922 7.914 7.914 0 0 0 3.477-2.596 6.442 6.442 0 0 0 1.21-3.86 5.867 5.867 0 0 0-.666-2.837Zm-87.96-11.954h4.083a.406.406 0 0 1 .384.432v21.023a.405.405 0 0 1-.405.405h-3.54a.405.405 0 0 1-.406-.405V32.44a10.36 10.36 0 0 1-3.199 2.528 9.374 9.374 0 0 1-4.345 1.023c-2.805 0-5.039-.826-6.623-2.458-1.583-1.631-2.388-3.796-2.388-6.462v-13.1a.405.405 0 0 1 .405-.406h4.09a.405.405 0 0 1 .405.406v12.466c0 1.743.442 3.06 1.311 3.913.87.853 2.15 1.285 3.802 1.285a6.02 6.02 0 0 0 3.44-1.066 9.452 9.452 0 0 0 1.993-1.802 2.58 2.58 0 0 0 .581-1.664v-13.16a.41.41 0 0 1 .411-.404Zm25.08.543a9.537 9.537 0 0 0-4.708-1.135 9.375 9.375 0 0 0-4.346 1.024 10.369 10.369 0 0 0-3.199 2.527v-2.554a.404.404 0 0 0-.405-.405h-3.588a.405.405 0 0 0-.406.405v21.024a.405.405 0 0 0 .406.405h4.089a.405.405 0 0 0 .406-.405V21.834a2.662 2.662 0 0 1 .666-1.765 10.224 10.224 0 0 1 1.957-1.727 6.018 6.018 0 0 1 3.439-1.04 5.109 5.109 0 0 1 3.663 1.333c.933.885 1.402 2.186 1.402 3.866v12.466a.405.405 0 0 0 .405.405h4.058a.407.407 0 0 0 .405-.405v-13.1a9.43 9.43 0 0 0-1.114-4.618 8.053 8.053 0 0 0-3.13-3.167Zm8.579-.543h4.09c.224 0 .405.181.405.405v21.024a.405.405 0 0 1-.405.405h-4.09a.406.406 0 0 1-.405-.405V13.943c0-.224.182-.405.405-.405Zm24.095 4.308h-6.931a.572.572 0 0 0-.56.565v9.41c0 1.392.267 2.192.912 2.768 0 .006.8.725 3.199.725h3.386a.405.405 0 0 1 .405.405v3.797a.405.405 0 0 1-.405.405h-4.836c-2.245 0-4.069-.624-5.444-1.776-1.376-1.151-2.069-3.001-2.069-5.417V18.374a.57.57 0 0 0-.443-.534h-3.06a.405.405 0 0 1-.405-.405v-3.497a.404.404 0 0 1 .405-.406h2.938a.57.57 0 0 0 .565-.533v-2.213a.407.407 0 0 1 .117-.288l4.037-4.057a.403.403 0 0 1 .623.058.409.409 0 0 1 .07.224v6.25a.567.567 0 0 0 .565.565h6.931a.405.405 0 0 1 .406.405v3.498a.405.405 0 0 1-.406.405Zm134.188-4.9a4.038 4.038 0 0 0-2.138-2.133 4.062 4.062 0 0 0-3.108 0 4.102 4.102 0 0 0-1.275.858 3.987 3.987 0 0 0-.858 1.275 4.077 4.077 0 0 0 0 3.114 4.017 4.017 0 0 0 2.133 2.132 4.061 4.061 0 0 0 3.108 0c.477-.2.91-.491 1.275-.858.366-.366.659-.799.863-1.274a4.068 4.068 0 0 0 0-3.114ZM281.624 16a2.988 2.988 0 0 1-1.067 1.066 2.873 2.873 0 0 1-1.493.4 2.91 2.91 0 0 1-1.519-.368 3.128 3.128 0 0 1-1.067-1.066 2.86 2.86 0 0 1-.4-1.493 2.92 2.92 0 0 1 .4-1.498 3.064 3.064 0 0 1 1.067-1.067 2.908 2.908 0 0 1 1.503-.4 2.875 2.875 0 0 1 1.493.4 2.975 2.975 0 0 1 1.067 4.063l.016-.037Zm-.952-2.173c0 .236-.064.467-.184.67a1.154 1.154 0 0 1-.416.378l.725 1.429h-1.002l-.592-1.242h-.682v1.242h-.907v-3.69h1.824c.205-.001.407.044.592.133.186.094.345.236.458.411.12.203.184.434.184.67Zm-1.495.568a.532.532 0 0 0 .527-.57.5.5 0 0 0-.165-.421.597.597 0 0 0-.346-.123h-.667v1.114h.651Z" clip-rule="evenodd"/></g><defs><clipPath id="a"><path fill="#fff" d="M0 0h284v40H0z"/></clipPath></defs></svg>