<svg xmlns="http://www.w3.org/2000/svg" width="505" height="40" fill="currentColor" viewBox="0 0 505 40"><g clip-path="url(#a)"><path fill="#00C9EA" d="M20 0a20 20 0 1 0 0 40 20 20 0 0 0 0-40Zm6.01 18.663a7.391 7.391 0 0 0-7.3 7.301v.093a4.72 4.72 0 1 1-4.72-4.72 7.303 7.303 0 0 0 7.3-7.358v-.036a4.72 4.72 0 1 1 4.72 4.72Z"/><path fill="#000" fill-rule="evenodd" d="M57.96 30.519H72.4a.406.406 0 0 1 .399.408v4.043a.409.409 0 0 1-.406.406H56.1a5.23 5.23 0 0 1-5.222-5.222v-26.2a.406.406 0 0 1 .406-.406h4.459a.406.406 0 0 1 .406.407v24.753a1.834 1.834 0 0 0 1.81 1.81Zm71.462-24.746h-4.087a.406.406 0 0 0-.406.406v4.086c0 .224.182.406.406.406h4.087a.406.406 0 0 0 .406-.406V6.18a.406.406 0 0 0-.406-.406Zm-33.661 7.766h-4.086a.406.406 0 0 0-.406.406v13.157c.006.607-.2 1.196-.585 1.666a9.604 9.604 0 0 1-1.994 1.81 6.034 6.034 0 0 1-3.44 1.035c-1.653 0-2.933-.432-3.802-1.294-.869-.86-1.311-2.17-1.311-3.913v-12.46a.4.4 0 0 0-.249-.376.402.402 0 0 0-.154-.03h-4.09a.406.406 0 0 0-.406.405v13.1c0 2.656.805 4.831 2.39 6.466 1.586 1.634 3.815 2.46 6.621 2.46a9.353 9.353 0 0 0 4.348-1.035 10.302 10.302 0 0 0 3.217-2.522v2.555a.409.409 0 0 0 .406.407h3.543a.406.406 0 0 0 .407-.407V13.945a.405.405 0 0 0-.409-.406Zm16.286-.592a9.503 9.503 0 0 1 4.71 1.138 8.01 8.01 0 0 1 3.153 3.166 9.474 9.474 0 0 1 1.117 4.616v13.1a.41.41 0 0 1-.406.406h-4.089a.41.41 0 0 1-.406-.406V22.501c0-1.679-.479-2.97-1.41-3.856-.931-.887-2.162-1.335-3.662-1.335a6.014 6.014 0 0 0-3.44 1.035 10.163 10.163 0 0 0-1.958 1.727 2.688 2.688 0 0 0-.667 1.764V34.97a.407.407 0 0 1-.406.406h-4.086a.405.405 0 0 1-.406-.406V13.943a.403.403 0 0 1 .4-.404h3.59a.404.404 0 0 1 .406.404v2.555a10.335 10.335 0 0 1 3.215-2.516 9.383 9.383 0 0 1 4.345-1.035Zm17.375.592h-4.087a.406.406 0 0 0-.406.406V34.97c0 .224.182.406.406.406h4.087a.406.406 0 0 0 .406-.406V13.946a.406.406 0 0 0-.406-.407Zm20.023 0h-6.939a.57.57 0 0 1-.566-.566V6.724a.399.399 0 0 0-.032-.156.395.395 0 0 0-.221-.22.402.402 0 0 0-.44.092l-4.04 4.06a.393.393 0 0 0-.119.287V13a.57.57 0 0 1-.564.538h-2.928a.406.406 0 0 0-.401.406v3.5a.41.41 0 0 0 .401.403h3.06a.563.563 0 0 1 .439.517v10.345c0 2.418.699 4.242 2.07 5.431 1.37 1.19 3.204 1.775 5.431 1.775h4.836a.41.41 0 0 0 .287-.12.395.395 0 0 0 .119-.286v-3.79a.396.396 0 0 0-.119-.287.398.398 0 0 0-.287-.119h-3.37c-2.4 0-3.191-.721-3.199-.729-.649-.571-.913-1.373-.913-2.767V18.41a.564.564 0 0 1 .556-.563h6.944a.41.41 0 0 0 .406-.407v-3.496a.398.398 0 0 0-.121-.287.409.409 0 0 0-.29-.116Zm61.306 8.507a10.62 10.62 0 0 1 2.512 1.404 6.474 6.474 0 0 1 1.774 2.059c.457.877.685 1.856.662 2.845a6.44 6.44 0 0 1-1.203 3.88 7.849 7.849 0 0 1-3.476 2.586c-1.492.612-3.32.923-5.431.923a14.745 14.745 0 0 1-5.367-.892 7.993 7.993 0 0 1-3.584-2.628 7.31 7.31 0 0 1-1.371-3.83.459.459 0 0 1 .137-.365.554.554 0 0 1 .391-.158h4.037a.516.516 0 0 1 .517.416c.081.633.345 1.23.758 1.715a4.279 4.279 0 0 0 1.841 1.198 7.931 7.931 0 0 0 2.587.4 7.636 7.636 0 0 0 2.633-.416 4.135 4.135 0 0 0 1.74-1.15 2.585 2.585 0 0 0 .631-1.697 2.069 2.069 0 0 0-.548-1.44 4.3 4.3 0 0 0-1.552-.992 17.201 17.201 0 0 0-2.423-.742l-2.972-.711c-2.165-.52-3.887-1.3-5.172-2.385-1.286-1.083-1.938-2.537-1.938-4.326a6.158 6.158 0 0 1 1.294-3.88 8.45 8.45 0 0 1 3.509-2.57 13.05 13.05 0 0 1 4.994-.914c1.7-.033 3.389.278 4.966.913a8.2 8.2 0 0 1 3.383 2.543 6.306 6.306 0 0 1 1.257 3.38.385.385 0 0 1-.021.158.534.534 0 0 1-.517.354h-3.955a.516.516 0 0 1-.517-.396 3.034 3.034 0 0 0-1.363-2.017c-.838-.548-1.95-.828-3.3-.828a6.777 6.777 0 0 0-2.454.404 3.551 3.551 0 0 0-1.531 1.06 2.433 2.433 0 0 0-.533 1.51c-.011.429.109.85.344 1.208.25.362.578.663.959.882.442.258.91.468 1.397.626.517.169 1.041.311 1.572.427l2.452.569a18.19 18.19 0 0 1 2.881.877Zm38.464.064h-9.518a.382.382 0 0 0-.357.242.38.38 0 0 0-.028.149v3.585a.387.387 0 0 0 .385.385h5.359a5.952 5.952 0 0 1-.703 2.265 5.152 5.152 0 0 1-2.142 2.07 7.02 7.02 0 0 1-3.295.732 6.69 6.69 0 0 1-3.675-1.02 6.768 6.768 0 0 1-2.472-2.982c-.59-1.293-.89-2.63-.89-4.51a10.101 10.101 0 0 1 .89-4.48 6.772 6.772 0 0 1 2.464-2.963 6.502 6.502 0 0 1 3.577-1.012 7.13 7.13 0 0 1 2.069.287 5.27 5.27 0 0 1 1.682.843c.492.376.919.83 1.264 1.345a6.65 6.65 0 0 1 .776 1.622.26.26 0 0 0 .259.189h4.234a.256.256 0 0 0 .209-.098.255.255 0 0 0 .055-.104.256.256 0 0 0 .005-.116 9.37 9.37 0 0 0-1.157-3.158 9.737 9.737 0 0 0-2.327-2.67 10.628 10.628 0 0 0-3.231-1.735 12.272 12.272 0 0 0-3.91-.61 11.811 11.811 0 0 0-4.588.884 10.558 10.558 0 0 0-3.681 2.566 11.883 11.883 0 0 0-2.436 4.092 14.385 14.385 0 0 0-.869 5.172c0 2.649.497 4.679 1.474 6.606a10.797 10.797 0 0 0 4.131 4.474c1.748 1.035 3.809 1.573 6.127 1.573a11.8 11.8 0 0 0 5.553-1.275 9.444 9.444 0 0 0 3.801-3.652c.919-1.573 1.384-3.463 1.384-5.615v-2.664a.418.418 0 0 0-.419-.417Zm-61.707-11.439h4.045a.405.405 0 0 1 .406.406V34.96a.404.404 0 0 1-.403.406h-4.089a.445.445 0 0 1-.381-.217L174.84 18.363v6.318h-.026V34.97a.405.405 0 0 1-.406.406h-4.019a.407.407 0 0 1-.406-.406V11.077a.407.407 0 0 1 .406-.406h4.397a.442.442 0 0 1 .378.217l11.938 16.685V11.077a.407.407 0 0 1 .406-.406Zm87.004 0h-4.032a.405.405 0 0 0-.406.406v8.67a.598.598 0 0 1-.593.592h-11.108a.586.586 0 0 1-.419-.174.595.595 0 0 1-.173-.418v-8.67a.407.407 0 0 0-.406-.406h-4.032a.398.398 0 0 0-.285.12.406.406 0 0 0-.116.286v23.89a.413.413 0 0 0 .117.287.41.41 0 0 0 .286.119h4.032a.406.406 0 0 0 .406-.406v-9.776a.587.587 0 0 1 .172-.419.59.59 0 0 1 .418-.174h11.121a.59.59 0 0 1 .593.593v9.776a.405.405 0 0 0 .406.406h4.032a.407.407 0 0 0 .406-.406v-23.89a.41.41 0 0 0-.124-.292.402.402 0 0 0-.295-.114Zm3.711.013h19.656a.404.404 0 0 1 .398.406v3.479a.377.377 0 0 1-.111.274.388.388 0 0 1-.274.114h-6.763a.592.592 0 0 0-.592.59l-.07 19.423a.419.419 0 0 1-.419.416h-4.004a.41.41 0 0 1-.408-.406V15.549a.593.593 0 0 0-.593-.592h-6.841a.387.387 0 0 1-.385-.388V11.09a.407.407 0 0 1 .406-.406Zm-113.037 0h-4.053a.406.406 0 0 0-.406.406v23.89c0 .224.182.406.406.406h4.053a.406.406 0 0 0 .406-.406V11.09a.406.406 0 0 0-.406-.406Zm54.232 0h4.053c.224 0 .406.182.406.406v23.89a.406.406 0 0 1-.406.406h-4.053a.406.406 0 0 1-.406-.406V11.09c0-.224.182-.406.406-.406Z" clip-rule="evenodd"/><path fill="#00C9EA" fill-rule="evenodd" d="M395.176 34.121c1.237 1.058 2.879 1.596 4.883 1.596l4.278-.002a.438.438 0 0 0 .44-.44v-3.362a.442.442 0 0 0-.44-.44h-3.005c-2.074 0-2.786-.628-2.786-.628-.548-.49-.775-1.185-.775-2.395v-8.367a.423.423 0 0 1 .408-.42h6.169a.438.438 0 0 0 .439-.439v-3.103a.438.438 0 0 0-.439-.44h-6.153a.426.426 0 0 1-.424-.422V9.712a.446.446 0 0 0-.129-.313.44.44 0 0 0-.624.002l-3.587 3.608a.436.436 0 0 0-.127.31v1.964a.42.42 0 0 1-.422.4h-2.607a.442.442 0 0 0-.439.44v3.104a.44.44 0 0 0 .439.44h2.706a.421.421 0 0 1 .328.382v9.197c0 2.173.631 3.817 1.867 4.875Zm-50.179 1.252a.488.488 0 0 1-.486-.486V23.313a4.592 4.592 0 0 0-.438-2.069 3.145 3.145 0 0 0-1.192-1.332 3.314 3.314 0 0 0-1.759-.465 4.61 4.61 0 0 0-2.229.556 5.738 5.738 0 0 0-1.896 1.774c-.443.643-.82 1.33-1.125 2.048v11.062a.487.487 0 0 1-.486.486h-3.88a.486.486 0 0 1-.486-.486V9.875a.483.483 0 0 1 .486-.487h3.575a.488.488 0 0 1 .486.487v8.449l.047-.122a7.969 7.969 0 0 1 3.026-2.136 8.363 8.363 0 0 1 3.064-.566 7.802 7.802 0 0 1 3.901.944 6.41 6.41 0 0 1 2.563 2.661 8.535 8.535 0 0 1 .884 3.968v11.814a.49.49 0 0 1-.486.486h-3.569Zm147.702-25.24h1.526c.137 0 .248.111.248.249v1.57a.248.248 0 0 1-.248.248h-1.526a.249.249 0 0 1-.249-.249v-1.57c0-.137.112-.248.249-.248Zm.005 2.907h1.521c.137 0 .248.111.248.248v8.388a.248.248 0 0 1-.248.248h-1.521a.248.248 0 0 1-.248-.248v-8.388c0-.137.111-.248.248-.248ZM328.349 26.875h-4.027a.502.502 0 0 0-.492.413 5.575 5.575 0 0 1-.941 2.243 5.062 5.062 0 0 1-2.069 1.66 7.19 7.19 0 0 1-2.946.574 5.403 5.403 0 0 1-3.342-1.034 6.761 6.761 0 0 1-2.4-3.013 11.705 11.705 0 0 1-.853-4.656c-.035-1.595.262-3.18.872-4.655a6.72 6.72 0 0 1 2.467-3.01 5.69 5.69 0 0 1 3.429-1.035 6.634 6.634 0 0 1 2.757.556 4.76 4.76 0 0 1 1.958 1.588 5.42 5.42 0 0 1 .887 2.108.517.517 0 0 0 .494.411h4.066a.505.505 0 0 0 .375-.17.53.53 0 0 0 .119-.407 8.902 8.902 0 0 0-1.591-4.053 9.107 9.107 0 0 0-3.742-2.966 13.038 13.038 0 0 0-5.323-1.034c-2.42 0-4.554.517-6.341 1.551a10.602 10.602 0 0 0-4.172 4.42c-.98 1.899-1.477 4.16-1.477 6.725 0 2.565.486 4.818 1.441 6.724a10.433 10.433 0 0 0 4.104 4.42c1.761 1.035 3.88 1.552 6.272 1.552a13.416 13.416 0 0 0 5.46-1.053 9.412 9.412 0 0 0 3.835-3.09 9.3 9.3 0 0 0 1.671-4.188.493.493 0 0 0-.282-.534.502.502 0 0 0-.209-.047Zm102.705 0h4.027l-.003.03a.503.503 0 0 1 .492.582 9.323 9.323 0 0 1-1.671 4.188 9.42 9.42 0 0 1-3.83 3.036 13.416 13.416 0 0 1-5.46 1.053c-2.392 0-4.511-.518-6.272-1.552a10.427 10.427 0 0 1-4.104-4.42c-.955-1.906-1.441-4.159-1.441-6.725 0-2.565.497-4.826 1.477-6.724a10.596 10.596 0 0 1 4.172-4.42c1.787-1.035 3.92-1.552 6.341-1.552a13.04 13.04 0 0 1 5.323 1.035 9.112 9.112 0 0 1 3.74 2.99 8.912 8.912 0 0 1 1.59 4.052.508.508 0 0 1-.494.577h-4.065a.519.519 0 0 1-.494-.411 5.436 5.436 0 0 0-.888-2.108 4.763 4.763 0 0 0-1.957-1.588 6.639 6.639 0 0 0-2.757-.556 5.691 5.691 0 0 0-3.43 1.034 6.72 6.72 0 0 0-2.467 3.01 11.519 11.519 0 0 0-.872 4.656 11.706 11.706 0 0 0 .854 4.656 6.747 6.747 0 0 0 2.4 3.013 5.4 5.4 0 0 0 3.341 1.034 7.184 7.184 0 0 0 2.946-.574 5.063 5.063 0 0 0 2.069-1.66c.475-.67.797-1.435.942-2.243a.502.502 0 0 1 .491-.414Zm-50.782 8.842a11.922 11.922 0 0 1-4.426-.747 6.748 6.748 0 0 1-2.899-2.124 6.208 6.208 0 0 1-1.117-2.426.535.535 0 0 1 .106-.458.544.544 0 0 1 .432-.209h3.879a.546.546 0 0 1 .518.372 2.59 2.59 0 0 0 1.034 1.369c.621.416 1.451.625 2.47.625a5.298 5.298 0 0 0 1.746-.258 2.745 2.745 0 0 0 1.202-.776c.291-.337.448-.768.44-1.213a1.714 1.714 0 0 0-.706-1.412c-.453-.35-1.133-.62-2.069-.828l-3.215-.649c-1.81-.365-3.196-1.035-4.109-1.96a4.807 4.807 0 0 1-1.353-3.535 5.31 5.31 0 0 1 .965-3.21 6.25 6.25 0 0 1 2.782-2.106 11.31 11.31 0 0 1 4.26-.74c1.427-.03 2.846.22 4.177.735a6.262 6.262 0 0 1 2.76 2.087 5.92 5.92 0 0 1 1.016 2.38.55.55 0 0 1-.307.597.549.549 0 0 1-.233.052h-3.582a.538.538 0 0 1-.518-.362 2.651 2.651 0 0 0-.967-1.293 3.769 3.769 0 0 0-2.268-.652 4.593 4.593 0 0 0-1.604.258 2.73 2.73 0 0 0-1.153.776 1.717 1.717 0 0 0-.43 1.172 1.675 1.675 0 0 0 .647 1.34c.419.36 1.068.633 1.984.843l3.507.73c1.839.387 3.222 1.034 4.115 1.877.892.843 1.329 1.976 1.337 3.362a5.621 5.621 0 0 1-1.05 3.318 6.802 6.802 0 0 1-2.941 2.248 11.38 11.38 0 0 1-4.43.817ZM351.116 25.63c0 5.949 4.138 10.087 10.063 10.087 3.233 0 5.923-1.15 7.964-3.442a.384.384 0 0 0 .054-.425.383.383 0 0 0-.093-.116l-2.245-1.94a.386.386 0 0 0-.517.01c-1.606 1.467-3.13 2.093-5.093 2.093-2.85 0-4.966-1.71-5.522-4.461a.169.169 0 0 1 .002-.074.153.153 0 0 1 .035-.066.169.169 0 0 1 .139-.067h13.912a.39.39 0 0 0 .388-.36c.028-.352.052-.667.052-.985 0-5.199-2.998-10.444-9.57-10.444-6.571 0-9.569 5.245-9.569 10.118v.072Zm4.658-1.867c.512-2.876 2.416-4.655 4.963-4.655 2.625 0 4.451 1.738 4.868 4.66a.165.165 0 0 1-.006.073.16.16 0 0 1-.036.064.176.176 0 0 1-.137.065h-9.474a.169.169 0 0 1-.077-.017.163.163 0 0 1-.062-.05.152.152 0 0 1-.036-.066.156.156 0 0 1-.003-.074Zm101.228-13.079h-19.656a.409.409 0 0 0-.406.406v3.479a.389.389 0 0 0 .386.388h6.838a.587.587 0 0 1 .592.592V34.98a.407.407 0 0 0 .406.406h4.007a.416.416 0 0 0 .416-.416l.072-19.424a.594.594 0 0 1 .593-.59h6.763a.387.387 0 0 0 .385-.387V11.09a.406.406 0 0 0-.396-.406Zm7.25 11.223c.024.01.051.015.078.015h4.531a5.336 5.336 0 0 0 2.105-.386 3.084 3.084 0 0 0 1.386-1.112 3.001 3.001 0 0 0 .484-1.694 2.842 2.842 0 0 0-.259-1.18 2.648 2.648 0 0 0-.719-.936 2.904 2.904 0 0 0-.82-.473.07.07 0 0 1-.035-.025.07.07 0 0 1-.014-.042.074.074 0 0 1 .011-.043.067.067 0 0 1 .033-.03c.241-.109.462-.256.657-.434a2.637 2.637 0 0 0 .349-3.484 3.079 3.079 0 0 0-1.37-1.016 5.693 5.693 0 0 0-2.09-.352h-4.249a.203.203 0 0 0-.189.124.208.208 0 0 0-.016.078V21.72a.208.208 0 0 0 .06.143.202.202 0 0 0 .067.044Zm1.987-4.767a.145.145 0 0 1 .103-.042h2.351a2.71 2.71 0 0 1 1.057.189c.274.112.51.3.681.543.164.241.249.528.243.82a1.418 1.418 0 0 1-.877 1.347 2.457 2.457 0 0 1-.993.19h-2.462a.146.146 0 0 1-.102-.042.146.146 0 0 1-.043-.101v-2.801c0-.038.015-.075.042-.102Zm0-4.655a.145.145 0 0 1 .103-.042l2.237.005a2.47 2.47 0 0 1 .98.18c.251.108.467.281.626.503.148.224.224.489.217.758a1.38 1.38 0 0 1-.217.775 1.43 1.43 0 0 1-.626.518 2.446 2.446 0 0 1-.98.18h-2.237a.146.146 0 0 1-.102-.04.146.146 0 0 1-.043-.102v-2.632c0-.039.015-.076.042-.103Zm34.009 9.597a4.782 4.782 0 0 1-2.346-.553 3.753 3.753 0 0 1-1.531-1.588 5.259 5.259 0 0 1-.517-2.424c-.02-.838.165-1.67.538-2.42a3.782 3.782 0 0 1 1.552-1.589 4.826 4.826 0 0 1 2.353-.553 4.941 4.941 0 0 1 2.028.396c.567.244 1.055.64 1.412 1.143.327.474.525 1.025.574 1.598a.18.18 0 0 1-.007.073.179.179 0 0 1-.171.124h-1.611a.18.18 0 0 1-.113-.04.18.18 0 0 1-.061-.103 2.136 2.136 0 0 0-.349-.791 1.827 1.827 0 0 0-.721-.582 2.617 2.617 0 0 0-2.328.155 2.37 2.37 0 0 0-.872 1.035 3.674 3.674 0 0 0-.313 1.567 3.829 3.829 0 0 0 .306 1.58c.18.42.476.778.853 1.035.393.249.851.375 1.317.365a2.225 2.225 0 0 0 1.74-.791 2.16 2.16 0 0 0 .406-.777.18.18 0 0 1 .168-.132h1.588a.18.18 0 0 1 .139.063.18.18 0 0 1 .04.147 3.545 3.545 0 0 1-.649 1.539 3.61 3.61 0 0 1-1.438 1.127 4.844 4.844 0 0 1-1.987.396Zm-14.897-.336c.636.236 1.311.35 1.989.336a5.085 5.085 0 0 0 1.992-.357 3.051 3.051 0 0 0 1.311-1.03c.311-.435.477-.958.473-1.494a2.022 2.022 0 0 0-.603-1.516 3.777 3.777 0 0 0-1.851-.845l-1.575-.329a2.071 2.071 0 0 1-.888-.377.756.756 0 0 1-.289-.598.774.774 0 0 1 .191-.517 1.23 1.23 0 0 1 .517-.347c.231-.081.475-.122.719-.119.361-.013.716.09 1.014.292.208.149.362.36.44.603a.206.206 0 0 0 .191.147h1.705a.213.213 0 0 0 .155-.072.177.177 0 0 0 .04-.074.184.184 0 0 0 .004-.084 2.694 2.694 0 0 0-.468-1.143 2.85 2.85 0 0 0-1.242-.939 4.913 4.913 0 0 0-1.88-.33 5.106 5.106 0 0 0-1.914.33 2.84 2.84 0 0 0-1.254.95 2.416 2.416 0 0 0-.435 1.448 2.19 2.19 0 0 0 .611 1.593 3.5 3.5 0 0 0 1.849.884l1.443.293c.333.055.651.181.931.37a.774.774 0 0 1 .313.63.799.799 0 0 1-.196.541c-.145.16-.33.28-.536.344-.25.081-.512.12-.776.117a1.958 1.958 0 0 1-1.104-.28 1.153 1.153 0 0 1-.46-.633.215.215 0 0 0-.073-.106.21.21 0 0 0-.121-.042h-1.852a.206.206 0 0 0-.195.15.188.188 0 0 0-.002.086c.082.422.259.82.517 1.163.342.431.795.76 1.309.955Zm-5.523-.695c.06-.059.118-.12.175-.182l.013-.029.007-.017v-.006l-.023.055a3.633 3.633 0 0 1-.172.179Zm2.257.65a.216.216 0 0 1-.215.215h-1.64a.217.217 0 0 1-.152-.062.215.215 0 0 1-.062-.152v-.83a3.752 3.752 0 0 1-2.933 1.244c-.28 0-.559-.027-.833-.08-1.482-.293-2.403-1.317-2.403-2.672 0-1.847 1.373-2.905 3.771-2.905a8.26 8.26 0 0 1 1.41.117c.287.049.951.17 1.013.183a3.45 3.45 0 0 0-.1-.822c-.259-.797-.988-1.218-2.134-1.218a5.913 5.913 0 0 0-.96.075 6.788 6.788 0 0 0 .003-.003 5.94 5.94 0 0 1 .831-.074 6.215 6.215 0 0 0-.834.072 6.77 6.77 0 0 0-1.443.403.209.209 0 0 1-.083.015h-.007a.24.24 0 0 0 .081-.009.213.213 0 0 1-.193-.027.213.213 0 0 1-.08-.103l-.424-1.229a.215.215 0 0 1 .064-.223.21.21 0 0 1 .058-.038 7.98 7.98 0 0 1 1.764-.528 8.419 8.419 0 0 1 1.491-.121h.015c1.32.002 2.358.345 3.006.99h.001c.407.388.688.894.843 1.51.092.358.141.752.144 1.185l.001.06v5.028Zm-6.69-6.503Zm2.634 2.585a3.39 3.39 0 0 0-1.079.156c-.662.222-1.034.676-1.034 1.3 0 .826.688 1.358 1.754 1.358 1.065 0 1.958-.473 2.276-1.236.075-.178.117-.368.124-.561v-.662l-.111-.044a6.08 6.08 0 0 0-1.93-.305v-.006Z" clip-rule="evenodd"/></g><defs><clipPath id="a"><path fill="#fff" d="M0 0h505v40H0z"/></clipPath></defs></svg>