<svg xmlns="http://www.w3.org/2000/svg" width="458" height="40" fill="currentColor" viewBox="0 0 458 40"><g clip-path="url(#a)"><path fill="#00C9EA" d="M20 0a20 20 0 1 0 0 40 20 20 0 0 0 0-40Zm6.01 18.663a7.391 7.391 0 0 0-7.3 7.301v.093a4.72 4.72 0 1 1-4.72-4.72 7.303 7.303 0 0 0 7.3-7.358v-.036a4.72 4.72 0 1 1 4.72 4.72Z"/><path fill="#00C9EA" fill-rule="evenodd" d="M395.176 34.121c1.237 1.058 2.879 1.596 4.883 1.596l4.278-.002a.439.439 0 0 0 .44-.44v-3.362a.438.438 0 0 0-.44-.44h-3.005c-2.074 0-2.786-.629-2.786-.629-.548-.488-.775-1.184-.775-2.395v-8.366a.423.423 0 0 1 .408-.42h6.169a.438.438 0 0 0 .439-.439V16.12a.438.438 0 0 0-.439-.44h-6.153a.426.426 0 0 1-.424-.421V9.712a.446.446 0 0 0-.129-.313.44.44 0 0 0-.314-.127.442.442 0 0 0-.31.13l-3.587 3.607a.435.435 0 0 0-.127.31v1.963a.419.419 0 0 1-.422.401h-2.607a.442.442 0 0 0-.439.44v3.104a.441.441 0 0 0 .439.44h2.706a.42.42 0 0 1 .328.382v9.197c0 2.173.631 3.817 1.867 4.875Zm-50.179 1.252a.488.488 0 0 1-.486-.486V23.313a4.592 4.592 0 0 0-.438-2.069 3.145 3.145 0 0 0-1.192-1.332 3.314 3.314 0 0 0-1.759-.465 4.61 4.61 0 0 0-2.229.556 5.739 5.739 0 0 0-1.896 1.774c-.443.643-.82 1.33-1.125 2.048v11.062a.486.486 0 0 1-.486.486h-3.88a.486.486 0 0 1-.486-.486V9.875a.483.483 0 0 1 .486-.487h3.575a.488.488 0 0 1 .486.487v8.45l.047-.122a7.969 7.969 0 0 1 3.026-2.136 8.363 8.363 0 0 1 3.064-.567 7.802 7.802 0 0 1 3.901.944 6.41 6.41 0 0 1 2.563 2.661 8.535 8.535 0 0 1 .884 3.968v11.814a.49.49 0 0 1-.486.486h-3.569Zm86.057-8.499h4.027l-.003.032a.504.504 0 0 1 .48.367c.019.07.023.143.012.214a9.323 9.323 0 0 1-1.671 4.188 9.42 9.42 0 0 1-3.83 3.036 13.418 13.418 0 0 1-5.46 1.053c-2.392 0-4.511-.518-6.272-1.552a10.427 10.427 0 0 1-4.104-4.42c-.955-1.906-1.441-4.159-1.441-6.725 0-2.565.497-4.826 1.477-6.724a10.596 10.596 0 0 1 4.172-4.42c1.787-1.035 3.92-1.552 6.341-1.552 1.827-.032 3.641.32 5.323 1.035a9.112 9.112 0 0 1 3.74 2.99 8.912 8.912 0 0 1 1.59 4.052.507.507 0 0 1-.494.577h-4.065a.518.518 0 0 1-.494-.411 5.436 5.436 0 0 0-.888-2.108 4.762 4.762 0 0 0-1.957-1.588 6.639 6.639 0 0 0-2.757-.556 5.691 5.691 0 0 0-3.43 1.034 6.72 6.72 0 0 0-2.467 3.01 11.519 11.519 0 0 0-.872 4.656 11.706 11.706 0 0 0 .854 4.656 6.747 6.747 0 0 0 2.4 3.013 5.4 5.4 0 0 0 3.341 1.034 7.184 7.184 0 0 0 2.946-.574 5.063 5.063 0 0 0 2.069-1.66c.475-.67.797-1.435.942-2.243a.502.502 0 0 1 .491-.414Zm-102.705 0h-4.027a.502.502 0 0 0-.492.414 5.575 5.575 0 0 1-.941 2.243 5.063 5.063 0 0 1-2.069 1.66 7.19 7.19 0 0 1-2.946.574 5.402 5.402 0 0 1-3.342-1.034 6.76 6.76 0 0 1-2.4-3.013 11.705 11.705 0 0 1-.853-4.656c-.035-1.595.262-3.18.872-4.655a6.72 6.72 0 0 1 2.467-3.01 5.69 5.69 0 0 1 3.429-1.035 6.635 6.635 0 0 1 2.757.556c.784.344 1.46.892 1.958 1.588a5.42 5.42 0 0 1 .887 2.108.517.517 0 0 0 .494.41h4.066a.503.503 0 0 0 .478-.36.524.524 0 0 0 .016-.216 8.902 8.902 0 0 0-1.591-4.053 9.107 9.107 0 0 0-3.742-2.966 13.04 13.04 0 0 0-5.323-1.035c-2.42 0-4.554.518-6.341 1.552a10.602 10.602 0 0 0-4.172 4.42c-.98 1.899-1.477 4.159-1.477 6.725 0 2.565.486 4.818 1.441 6.724a10.433 10.433 0 0 0 4.104 4.42c1.761 1.035 3.88 1.552 6.272 1.552a13.418 13.418 0 0 0 5.46-1.053 9.41 9.41 0 0 0 3.835-3.09 9.3 9.3 0 0 0 1.671-4.188.493.493 0 0 0-.282-.534.505.505 0 0 0-.209-.048Zm128.653-16.19h-19.656a.408.408 0 0 0-.406.406v3.479a.389.389 0 0 0 .386.388h6.841a.59.59 0 0 1 .592.592v19.43a.41.41 0 0 0 .406.407h4.006a.417.417 0 0 0 .419-.416l.07-19.424a.593.593 0 0 1 .592-.59h6.763a.387.387 0 0 0 .386-.387V11.09a.408.408 0 0 0-.399-.406Zm-76.73 25.033a11.922 11.922 0 0 1-4.426-.747 6.747 6.747 0 0 1-2.899-2.124 6.208 6.208 0 0 1-1.117-2.426.535.535 0 0 1 .106-.458.544.544 0 0 1 .432-.209h3.879a.546.546 0 0 1 .518.372 2.59 2.59 0 0 0 1.034 1.369c.621.416 1.451.626 2.47.626a5.3 5.3 0 0 0 1.746-.26 2.745 2.745 0 0 0 1.202-.775c.291-.337.448-.768.44-1.213a1.714 1.714 0 0 0-.706-1.412c-.453-.35-1.133-.62-2.069-.828l-3.215-.649c-1.81-.365-3.196-1.035-4.109-1.96a4.808 4.808 0 0 1-1.353-3.535 5.31 5.31 0 0 1 .965-3.21 6.251 6.251 0 0 1 2.782-2.106c1.36-.518 2.806-.77 4.26-.74 1.427-.03 2.846.22 4.177.735a6.26 6.26 0 0 1 2.76 2.087 5.92 5.92 0 0 1 1.016 2.38.55.55 0 0 1-.307.597.547.547 0 0 1-.233.052h-3.582a.537.537 0 0 1-.518-.362 2.65 2.65 0 0 0-.967-1.293 3.768 3.768 0 0 0-2.268-.652 4.597 4.597 0 0 0-1.604.258 2.73 2.73 0 0 0-1.153.776 1.717 1.717 0 0 0-.43 1.172 1.674 1.674 0 0 0 .647 1.34c.419.36 1.068.633 1.984.843l3.507.73c1.839.387 3.222 1.034 4.115 1.877.892.843 1.329 1.976 1.337 3.362a5.622 5.622 0 0 1-1.05 3.318 6.804 6.804 0 0 1-2.941 2.248 11.38 11.38 0 0 1-4.43.817ZM351.116 25.63c0 5.949 4.138 10.087 10.063 10.087 3.233 0 5.923-1.15 7.964-3.442a.384.384 0 0 0 .054-.425.383.383 0 0 0-.093-.116l-2.245-1.94a.386.386 0 0 0-.517.01c-1.606 1.467-3.13 2.093-5.093 2.093-2.85 0-4.966-1.71-5.522-4.461a.169.169 0 0 1 .002-.074.153.153 0 0 1 .035-.066.169.169 0 0 1 .139-.067h13.912a.39.39 0 0 0 .388-.36c.028-.352.052-.667.052-.985 0-5.199-2.998-10.444-9.57-10.444-6.571 0-9.569 5.245-9.569 10.118v.072Zm4.658-1.867c.512-2.876 2.416-4.655 4.963-4.655 2.625 0 4.451 1.738 4.868 4.66a.165.165 0 0 1-.006.073.16.16 0 0 1-.036.064.176.176 0 0 1-.137.065h-9.474a.169.169 0 0 1-.077-.017.163.163 0 0 1-.062-.05.152.152 0 0 1-.036-.066.156.156 0 0 1-.003-.074Z" clip-rule="evenodd"/><path fill="#fff" fill-rule="evenodd" d="M57.96 30.519H72.4a.406.406 0 0 1 .399.408v4.043a.409.409 0 0 1-.406.406H56.1a5.23 5.23 0 0 1-5.222-5.222v-26.2a.406.406 0 0 1 .406-.406h4.459a.406.406 0 0 1 .406.407v24.753a1.834 1.834 0 0 0 1.81 1.81Zm71.462-24.746h-4.087a.406.406 0 0 0-.406.406v4.086c0 .224.182.406.406.406h4.087a.406.406 0 0 0 .406-.406V6.18a.406.406 0 0 0-.406-.406Zm-33.661 7.766h-4.087a.406.406 0 0 0-.406.406v13.157c.007.607-.2 1.196-.584 1.666a9.602 9.602 0 0 1-1.994 1.81 6.034 6.034 0 0 1-3.44 1.035c-1.653 0-2.933-.432-3.802-1.294-.869-.86-1.311-2.17-1.311-3.913v-12.46a.405.405 0 0 0-.404-.407h-4.089a.406.406 0 0 0-.406.406v13.1c0 2.656.805 4.831 2.39 6.466 1.585 1.634 3.815 2.46 6.621 2.46a9.352 9.352 0 0 0 4.348-1.035 10.3 10.3 0 0 0 3.217-2.522v2.556a.409.409 0 0 0 .406.406h3.543a.406.406 0 0 0 .406-.406V13.946a.405.405 0 0 0-.408-.407Zm16.286-.592a9.506 9.506 0 0 1 4.71 1.138 8 8 0 0 1 3.152 3.166 9.463 9.463 0 0 1 1.118 4.616v13.1a.41.41 0 0 1-.406.406h-4.089a.41.41 0 0 1-.406-.406V22.501c0-1.678-.479-2.97-1.41-3.856-.931-.887-2.162-1.335-3.662-1.335a6.008 6.008 0 0 0-3.44 1.035 10.133 10.133 0 0 0-1.958 1.727 2.688 2.688 0 0 0-.667 1.764V34.97a.407.407 0 0 1-.406.406h-4.087a.407.407 0 0 1-.406-.406V13.943a.403.403 0 0 1 .401-.404h3.59a.406.406 0 0 1 .406.404v2.555a10.309 10.309 0 0 1 3.215-2.516 9.379 9.379 0 0 1 4.345-1.035Zm17.375.592h-4.087a.406.406 0 0 0-.406.406V34.97c0 .224.182.406.406.406h4.087a.406.406 0 0 0 .406-.406V13.946a.406.406 0 0 0-.406-.407Zm20.023 0h-6.939a.57.57 0 0 1-.567-.566V6.724a.398.398 0 0 0-.119-.288.403.403 0 0 0-.574.004l-4.04 4.06a.397.397 0 0 0-.119.287V13a.564.564 0 0 1-.563.538h-2.928a.406.406 0 0 0-.401.406v3.5a.407.407 0 0 0 .401.403h3.06a.563.563 0 0 1 .439.517v10.345c0 2.418.699 4.242 2.069 5.431 1.371 1.19 3.205 1.775 5.432 1.775h4.836a.403.403 0 0 0 .375-.251.396.396 0 0 0 .031-.155v-3.79a.395.395 0 0 0-.119-.287.402.402 0 0 0-.287-.118h-3.37c-2.4 0-3.192-.722-3.199-.73-.649-.571-.913-1.373-.913-2.767V18.41a.564.564 0 0 1 .556-.564h6.944a.406.406 0 0 0 .406-.406v-3.497a.397.397 0 0 0-.122-.287.4.4 0 0 0-.289-.117Zm61.306 8.507a10.6 10.6 0 0 1 2.511 1.404 6.464 6.464 0 0 1 1.775 2.059c.457.877.685 1.856.662 2.845a6.44 6.44 0 0 1-1.203 3.88 7.853 7.853 0 0 1-3.476 2.586c-1.492.613-3.321.923-5.431.923a14.745 14.745 0 0 1-5.367-.892 7.993 7.993 0 0 1-3.584-2.628 7.3 7.3 0 0 1-1.371-3.83.451.451 0 0 1 .137-.365.553.553 0 0 1 .39-.158h4.038a.518.518 0 0 1 .517.417c.081.633.344 1.228.758 1.714a4.279 4.279 0 0 0 1.841 1.198 7.931 7.931 0 0 0 2.587.4 7.629 7.629 0 0 0 2.632-.416 4.138 4.138 0 0 0 1.741-1.15 2.585 2.585 0 0 0 .631-1.697 2.069 2.069 0 0 0-.548-1.44 4.3 4.3 0 0 0-1.552-.991 17.201 17.201 0 0 0-2.423-.743l-2.972-.71c-2.165-.52-3.887-1.302-5.173-2.386-1.285-1.083-1.937-2.537-1.937-4.326a6.163 6.163 0 0 1 1.293-3.88 8.459 8.459 0 0 1 3.51-2.57 13.053 13.053 0 0 1 4.994-.914c1.7-.032 3.389.278 4.966.913a8.206 8.206 0 0 1 3.383 2.543 6.306 6.306 0 0 1 1.257 3.38.385.385 0 0 1-.021.158.534.534 0 0 1-.517.354h-3.955a.516.516 0 0 1-.517-.396 3.045 3.045 0 0 0-1.363-2.017c-.838-.548-1.95-.828-3.3-.828a6.786 6.786 0 0 0-2.455.404 3.556 3.556 0 0 0-1.531 1.06c-.342.43-.53.962-.532 1.51-.011.429.109.85.344 1.209.25.361.578.662.959.881.442.258.91.468 1.397.626a16.07 16.07 0 0 0 1.572.427l2.452.57a18.18 18.18 0 0 1 2.881.876Zm38.464.064h-9.518a.382.382 0 0 0-.357.242.381.381 0 0 0-.028.149v3.585a.384.384 0 0 0 .385.385h5.359a5.952 5.952 0 0 1-.703 2.266 5.153 5.153 0 0 1-2.142 2.069 7.02 7.02 0 0 1-3.295.732 6.69 6.69 0 0 1-3.675-1.02 6.777 6.777 0 0 1-2.473-2.981c-.589-1.294-.889-2.63-.889-4.511a10.114 10.114 0 0 1 .889-4.48 6.78 6.78 0 0 1 2.465-2.963 6.501 6.501 0 0 1 3.577-1.012 7.17 7.17 0 0 1 2.069.287 5.256 5.256 0 0 1 1.681.844c.493.375.92.83 1.265 1.345.33.503.591 1.048.776 1.621a.26.26 0 0 0 .259.189h4.233c.04 0 .08-.008.117-.024a.263.263 0 0 0 .093-.074.255.255 0 0 0 .059-.22 9.345 9.345 0 0 0-1.156-3.158 9.737 9.737 0 0 0-2.327-2.67 10.647 10.647 0 0 0-3.231-1.735 12.277 12.277 0 0 0-3.91-.61 11.811 11.811 0 0 0-4.588.885 10.56 10.56 0 0 0-3.681 2.565 11.868 11.868 0 0 0-2.436 4.092 14.385 14.385 0 0 0-.869 5.172c0 2.649.497 4.679 1.474 6.606a10.8 10.8 0 0 0 4.13 4.474c1.749 1.035 3.81 1.573 6.127 1.573a11.797 11.797 0 0 0 5.553-1.275 9.447 9.447 0 0 0 3.802-3.652c.918-1.573 1.384-3.463 1.384-5.615v-2.664a.418.418 0 0 0-.419-.417Zm-61.707-11.439h4.045a.405.405 0 0 1 .406.406V34.96a.409.409 0 0 1-.404.406h-4.089a.442.442 0 0 1-.38-.217L174.84 18.363v6.318h-.026V34.97a.407.407 0 0 1-.406.406h-4.019a.405.405 0 0 1-.406-.406V11.077a.407.407 0 0 1 .406-.406h4.397a.441.441 0 0 1 .377.217l11.939 16.685V11.077a.407.407 0 0 1 .406-.406Zm87.004 0h-4.033a.409.409 0 0 0-.406.406v8.67a.588.588 0 0 1-.365.547.595.595 0 0 1-.227.045h-11.108a.595.595 0 0 1-.547-.366.588.588 0 0 1-.045-.226v-8.67a.407.407 0 0 0-.406-.406h-4.032a.407.407 0 0 0-.372.252.39.39 0 0 0-.029.154v23.89a.393.393 0 0 0 .248.375c.049.02.102.031.155.031h4.032a.41.41 0 0 0 .287-.119.395.395 0 0 0 .119-.287v-9.776a.597.597 0 0 1 .364-.547.584.584 0 0 1 .226-.045h11.121a.589.589 0 0 1 .592.592v9.776a.407.407 0 0 0 .406.406h4.032a.41.41 0 0 0 .407-.406v-23.89a.404.404 0 0 0-.419-.406Zm3.711.013h19.656a.405.405 0 0 1 .398.406v3.479a.376.376 0 0 1-.112.274.384.384 0 0 1-.273.114h-6.763a.592.592 0 0 0-.593.59l-.069 19.423a.423.423 0 0 1-.419.416h-4.004a.408.408 0 0 1-.409-.406V15.549a.592.592 0 0 0-.592-.592h-6.841a.387.387 0 0 1-.385-.388V11.09a.407.407 0 0 1 .406-.406Zm-113.038 0h-4.052a.406.406 0 0 0-.406.406v23.89c0 .224.181.406.406.406h4.052a.406.406 0 0 0 .406-.406V11.09a.406.406 0 0 0-.406-.406Zm54.233 0h4.053c.224 0 .406.182.406.406v23.89a.406.406 0 0 1-.406.406h-4.053a.406.406 0 0 1-.406-.406V11.09c0-.224.182-.406.406-.406Z" clip-rule="evenodd"/></g><defs><clipPath id="a"><path fill="#fff" d="M0 0h458v40H0z"/></clipPath></defs></svg>