<svg xmlns="http://www.w3.org/2000/svg" width="852" height="42" fill="currentColor" viewBox="0 0 852 42"><g clip-path="url(#a)"><path fill="#00C9EA" d="M20 0C8.954 0 0 8.954 0 20s8.954 20 20 20 20-8.954 20-20S31.046 0 20 0Zm6.01 18.663a7.395 7.395 0 0 0-7.3 7.301h-.003v.093a4.72 4.72 0 1 1-4.72-4.72h.002a7.3 7.3 0 0 0 7.299-7.358v-.036a4.72 4.72 0 1 1 4.72 4.72h.003Z"/><path fill="#000" fill-rule="evenodd" d="M72.243 30.454H57.835a1.83 1.83 0 0 1-1.814-1.806V3.946a.404.404 0 0 0-.406-.405h-4.44a.404.404 0 0 0-.406.405v26.142a5.217 5.217 0 0 0 5.21 5.21h16.264c.224 0 .405-.18.405-.405v-4.034a.406.406 0 0 0-.405-.405ZM129.138 5.76h-4.077a.405.405 0 0 0-.405.405v4.078c0 .223.181.405.405.405h4.077a.405.405 0 0 0 .405-.405V6.165a.405.405 0 0 0-.405-.405Zm403.2 29.399a.46.46 0 0 1-.459-.46V20.782a.316.316 0 0 0-.315-.315h-2.684a.46.46 0 0 1-.459-.46V17.43a.46.46 0 0 1 .459-.46h2.684a.316.316 0 0 0 .315-.314v-1.652c0-1.298.235-2.426.699-3.352a5.171 5.171 0 0 1 2.052-2.191c.893-.524 1.971-.787 3.2-.787h4.245a.46.46 0 0 1 .459.459v2.578a.46.46 0 0 1-.459.46h-2.829c-.748 0-1.354.09-1.806.27-.444.178-.774.462-.983.85-.212.389-.32.941-.32 1.64v1.722c0 .173.142.315.315.315h3.027a.46.46 0 0 1 .459.46v2.577a.46.46 0 0 1-.459.46h-3.027a.316.316 0 0 0-.315.314v13.918a.46.46 0 0 1-.46.46h-3.339v.002ZM544.906 9.37h3.355c.302 0 .547.246.547.547v3.453a.547.547 0 0 1-.547.548h-3.355a.547.547 0 0 1-.547-.548V9.917c0-.301.245-.547.547-.547Zm187.329 25.448.028-23.719a.414.414 0 0 0-.41-.425h-5.577a.418.418 0 0 0-.392.276l-7.391 18.475a.153.153 0 0 1-.111.095.151.151 0 0 1-.111-.095L710.88 10.95a.418.418 0 0 0-.392-.276h-5.814a.413.413 0 0 0-.411.353l.005 23.788c0 .24.158.478.411.478h3.68c.211 0 .413-.173.413-.37l-.019-16.461c.019-.168.251-.196.31-.036l6.896 16.596a.413.413 0 0 0 .389.273h4.065c.175 0 .33-.108.39-.273l6.895-16.596c.057-.16.292-.132.31.036l-.018 16.462c0 .204.201.369.413.369h3.419c.253 0 .41-.206.41-.477l.003.002ZM548.266 15.763h-3.347a.547.547 0 0 0-.547.547v18.454c0 .302.245.547.547.547h3.347a.547.547 0 0 0 .547-.547V16.31a.547.547 0 0 0-.547-.547ZM645.05 9.37h3.355c.302 0 .547.246.547.547v3.453a.547.547 0 0 1-.547.548h-3.355a.547.547 0 0 1-.547-.548V9.917c0-.301.245-.547.547-.547Zm3.36 6.393h-3.347a.547.547 0 0 0-.547.547v18.454c0 .302.245.547.547.547h3.347a.547.547 0 0 0 .547-.547V16.31a.547.547 0 0 0-.547-.547ZM485.566 26.816l-4.018-.01a.502.502 0 0 0-.49.415 5.566 5.566 0 0 1-.937 2.237 5.029 5.029 0 0 1-2.059 1.657c-.849.38-1.84.573-2.939.573-1.412 0-2.31-.351-3.337-1.043-1.03-.694-1.835-1.703-2.395-3.004-.565-1.308-.852-2.867-.852-4.637 0-1.77.292-3.327.867-4.635.573-1.3 1.402-2.31 2.462-3.004 1.061-.694 1.988-1.045 3.425-1.045 1.009 0 1.935.186 2.748.555.811.366 1.469.9 1.954 1.584.431.61.73 1.317.885 2.104a.51.51 0 0 0 .493.413l4.057-.01a.492.492 0 0 0 .374-.171.516.516 0 0 0 .119-.405c-.212-1.52-.746-2.883-1.587-4.044-.924-1.275-2.181-2.271-3.735-2.96-1.548-.687-3.336-1.035-5.308-1.035-2.416 0-4.545.519-6.328 1.546-1.783 1.027-3.184 2.51-4.165 4.41-.975 1.894-1.471 4.15-1.471 6.702 0 2.552.483 4.808 1.438 6.7.954 1.899 2.332 3.383 4.095 4.41 1.757 1.024 3.863 1.545 6.258 1.545 2.044 0 3.876-.353 5.448-1.052 1.577-.702 2.862-1.722 3.819-3.03.872-1.192 1.435-2.596 1.67-4.178a.52.52 0 0 0-.116-.408.505.505 0 0 0-.375-.173v-.008ZM335.068 15.922a18.68 18.68 0 0 1 3.729-.349l-.005-.005c2.981 0 5.203.772 6.599 2.168 1.471 1.396 2.149 3.453 2.149 5.99v11.148c0 .237-.19.428-.428.428h-3.592a.428.428 0 0 1-.429-.428v-2.07c-.033.041-.069.08-.105.119-1.358 1.525-3.402 2.712-6.377 2.712a9.343 9.343 0 0 1-1.819-.178c-2.927-.575-5.231-2.565-5.231-5.811v-.073c0-4.188 3.354-6.248 8.216-6.248 1.18 0 2.176.096 3.084.253.728.127 1.402.297 2.06.493l.211.062v-.477l-.001-.039-.001-.039a4.995 4.995 0 0 0-.217-1.45c-.555-1.765-2.17-2.697-4.718-2.697-.761 0-1.45.06-2.108.163-1.117.175-2.129.483-3.169.885a.431.431 0 0 1-.563-.258l-.73-2.116-.199-.576a.43.43 0 0 1 .238-.534c1.086-.454 2.18-.826 3.406-1.073Zm8.14 12.33v-1.244h-.003v-.08a3.872 3.872 0 0 0-.19-.067l-.096-.034c-1.131-.39-2.571-.67-4.238-.67-2.939 0-4.673 1.212-4.673 3.233v.075c0 1.873 1.698 2.94 3.883 2.94 2.393 0 4.331-1.067 5.03-2.736.163-.385.256-.8.276-1.242a1.55 1.55 0 0 1 .005-.069v-.001a1.02 1.02 0 0 0 .006-.105Zm79.393-12.679a18.68 18.68 0 0 0-3.729.349c-1.226.247-2.32.619-3.406 1.073a.43.43 0 0 0-.238.534l.199.576.73 2.116a.43.43 0 0 0 .563.258c1.04-.402 2.052-.71 3.169-.885a13.452 13.452 0 0 1 2.108-.163c2.547 0 4.163.932 4.718 2.697.137.434.211.919.217 1.45v.026l.002.031v.498l-.112-.033-.099-.029a17.868 17.868 0 0 0-2.06-.493 17.784 17.784 0 0 0-3.084-.253c-4.862 0-8.216 2.06-8.216 6.248v.072c0 3.247 2.304 5.237 5.231 5.812a9.343 9.343 0 0 0 1.819.178c2.975 0 5.019-1.187 6.377-2.712l.019-.02.028-.031c.02-.022.04-.044.058-.068v2.07c0 .237.191.428.429.428h3.592a.427.427 0 0 0 .428-.428V23.727c0-2.537-.678-4.594-2.149-5.99-1.396-1.396-3.618-2.168-6.599-2.168l.005.005Zm4.411 11.435v1.244c0 .035-.003.07-.006.104v.003a1.55 1.55 0 0 0-.005.068c-.02.442-.113.857-.276 1.242-.699 1.67-2.637 2.735-5.03 2.735-2.185 0-3.883-1.066-3.883-2.94v-.074c0-2.02 1.734-3.233 4.673-3.233 1.667 0 3.107.28 4.238.67l.096.034c.064.021.128.043.19.067v.08h.003Zm194.593 8.077-.144.008v.01l.144-.018Zm-6.508.488c-.604 0-1.216-.06-1.82-.178-3.238-.637-5.251-2.875-5.251-5.84v-.072c0-3.987 3.001-6.276 8.232-6.276 1.094 0 2.101.082 3.074.253.671.116 1.321.273 2.054.492l.116.034v-.454a4.957 4.957 0 0 0-.217-1.42c-.542-1.718-2.137-2.627-4.614-2.627-.712 0-1.394.052-2.083.16-1.021.16-2.002.436-3.179.896a.448.448 0 0 1-.586-.269l-.957-2.768a.445.445 0 0 1 .248-.558c1.223-.516 2.314-.862 3.437-1.089 1.156-.235 2.372-.348 3.716-.348 2.898 0 5.179.75 6.601 2.173 1.43 1.357 2.155 3.375 2.155 6V34.73a.446.446 0 0 1-.446.447h-3.67a.446.446 0 0 1-.446-.447v-1.845c-1.605 1.786-3.747 2.692-6.364 2.692v-.003Zm2.059-9.414c-2.859 0-4.568 1.174-4.568 3.138v.072c0 1.703 1.52 2.847 3.784 2.847 2.263 0 4.235-1.025 4.926-2.671a3.575 3.575 0 0 0 .274-1.28l.002-.05.002-.016.001-.032v-1.262l-.235-.083c-1.259-.433-2.707-.663-4.183-.663h-.003Zm131.326 8.926-.144.008v.01l.144-.018Zm-6.51.488c-.604 0-1.216-.06-1.82-.178-3.238-.637-5.251-2.875-5.251-5.84v-.072c0-3.987 3.001-6.276 8.232-6.276 1.094 0 2.101.082 3.073.253a17.36 17.36 0 0 1 2.055.492l.116.034v-.454a4.992 4.992 0 0 0-.217-1.42c-.542-1.718-2.137-2.627-4.614-2.627-.712 0-1.394.052-2.083.16-1.022.16-2.002.436-3.179.896a.442.442 0 0 1-.586-.268l-.957-2.77a.445.445 0 0 1 .247-.557c1.224-.516 2.315-.862 3.438-1.089 1.156-.235 2.371-.348 3.716-.348 2.898 0 5.179.75 6.601 2.173 1.43 1.357 2.155 3.375 2.155 6V34.73a.447.447 0 0 1-.446.447h-3.67a.446.446 0 0 1-.446-.447v-1.845c-1.606 1.786-3.748 2.692-6.364 2.692v-.003Zm2.059-9.414c-2.859 0-4.568 1.174-4.568 3.138v.072c0 1.703 1.52 2.847 3.783 2.847 2.264 0 4.235-1.025 4.927-2.671.157-.377.248-.785.268-1.208l.001-.02.003-.04.001-.012.001-.021.002-.028.002-.03.001-.02v-1.261l-.235-.083c-1.26-.433-2.707-.663-4.183-.663h-.003Zm45.802 8.926-.145.008v.01l.145-.018Zm-6.512.488c-.603 0-1.215-.06-1.819-.178-3.239-.637-5.252-2.875-5.252-5.84v-.072c0-3.987 3.002-6.276 8.233-6.276 1.094 0 2.1.082 3.073.253a17.3 17.3 0 0 1 2.054.492l.117.034v-.454a4.992 4.992 0 0 0-.217-1.42c-.542-1.718-2.137-2.627-4.614-2.627-.713 0-1.394.052-2.083.16-1.022.16-2.002.436-3.179.896a.442.442 0 0 1-.586-.268l-.957-2.77a.444.444 0 0 1 .247-.557c1.223-.516 2.315-.862 3.438-1.089 1.156-.235 2.371-.348 3.716-.348 2.898 0 5.179.75 6.601 2.173 1.43 1.357 2.155 3.375 2.155 6V34.73a.447.447 0 0 1-.447.447h-3.669a.447.447 0 0 1-.447-.447v-1.845c-1.605 1.786-3.747 2.692-6.364 2.692v-.003Zm2.06-9.414c-2.86 0-4.568 1.174-4.568 3.138v.072c0 1.703 1.52 2.847 3.783 2.847 2.264 0 4.235-1.025 4.927-2.671.157-.377.248-.785.268-1.208 0-.023.003-.049.005-.072 0-.034.005-.065.005-.098v-1.262l-.234-.083c-1.26-.433-2.707-.663-4.184-.663h-.002Zm-420.896-.498c0 5.783 4.258 9.98 10.124 9.98l-.005-.003c3.174 0 5.804-1.115 7.814-3.319a.436.436 0 0 0 .114-.323.464.464 0 0 0-.155-.314l-2.093-1.812a.447.447 0 0 0-.591.013c-1.577 1.424-3.076 2.03-5.012 2.03-2.841 0-4.952-1.705-5.507-4.453a.21.21 0 0 1 .207-.245h13.711a.448.448 0 0 0 .443-.41c.024-.285.047-.587.047-.891 0-5.148-2.924-10.34-9.458-10.34-5.494 0-9.639 4.306-9.639 10.015v.072Zm4.648-1.724c.513-2.86 2.413-4.637 4.957-4.637l-.002-.003c2.58 0 4.441 1.78 4.859 4.645a.206.206 0 0 1-.049.163.202.202 0 0 1-.16.075h-9.399a.212.212 0 0 1-.162-.078.202.202 0 0 1-.044-.165ZM828.48 35.641c-5.866 0-10.124-4.196-10.124-9.979v-.072c0-5.709 4.145-10.016 9.639-10.016 6.534 0 9.458 5.193 9.458 10.34 0 .305-.023.607-.046.891a.45.45 0 0 1-.444.41h-13.711a.21.21 0 0 0-.207.245c.555 2.75 2.666 4.455 5.507 4.455 1.936 0 3.435-.607 5.012-2.031a.447.447 0 0 1 .591-.013l2.093 1.812c.09.08.147.193.155.314a.436.436 0 0 1-.114.323c-2.01 2.204-4.64 3.319-7.814 3.319l.005.002Zm-.519-16.34c-2.544 0-4.443 1.778-4.957 4.637a.2.2 0 0 0 .044.165c.041.05.1.078.162.078h9.399a.202.202 0 0 0 .16-.075.206.206 0 0 0 .049-.163c-.418-2.864-2.279-4.645-4.859-4.645l.002.003ZM687.094 34.699c0 .253.207.46.46.46l.002.002h3.34a.46.46 0 0 0 .459-.46V22.95c0-1.48-.294-2.795-.872-3.907a6.356 6.356 0 0 0-2.485-2.607c-1.069-.614-2.339-.926-3.773-.926a7.81 7.81 0 0 0-2.95.557c-.914.372-1.765.94-2.532 1.693-.222.217-.4.457-.575.704-.039.034-.062.034-.067.034-.021 0-.042-.054-.047-.088v-2.028a.46.46 0 0 0-.459-.46h-3.391a.46.46 0 0 0-.459.46v18.312c0 .253.206.46.459.46h3.375a.46.46 0 0 0 .46-.46V23.721c0-.046.01-.093.028-.134a12.25 12.25 0 0 1 1.118-2.036c.578-.828 1.233-1.443 1.945-1.827a4.897 4.897 0 0 1 2.336-.578c.72 0 1.36.165 1.899.49.54.328.965.8 1.27 1.407.304.609.459 1.331.459 2.147V34.7Zm83.112.46a.46.46 0 0 1-.459-.46V23.19c0-.815-.155-1.537-.459-2.146a3.387 3.387 0 0 0-1.27-1.407c-.539-.325-1.179-.49-1.899-.49-.836 0-1.624.196-2.336.578-.712.384-1.367.998-1.946 1.827a12.21 12.21 0 0 0-1.117 2.036.355.355 0 0 0-.028.134v10.973a.46.46 0 0 1-.46.46h-3.375a.46.46 0 0 1-.46-.46V16.382a.46.46 0 0 1 .46-.46h3.391a.46.46 0 0 1 .459.46v2.028c.005.034.026.088.047.088.005 0 .028 0 .067-.034.175-.247.353-.487.575-.704a7.816 7.816 0 0 1 2.532-1.693 7.805 7.805 0 0 1 2.949-.557c1.435 0 2.705.312 3.773.926a6.343 6.343 0 0 1 2.485 2.607c.579 1.112.873 2.428.873 3.907v11.752a.46.46 0 0 1-.46.46h-3.339l-.003-.003Zm-192.846-.511c1.068.614 2.338.926 3.773.926a7.81 7.81 0 0 0 2.95-.56 7.812 7.812 0 0 0 2.531-1.693c.222-.216.4-.456.576-.704l.013-.011a.187.187 0 0 1 .017-.011l.005-.003.008-.003.003-.002a.066.066 0 0 1 .018-.004h.003c.02 0 .041.054.046.088v2.028c0 .253.207.46.46.46h3.391a.46.46 0 0 0 .459-.46V16.382a.46.46 0 0 0-.459-.46h-3.376a.46.46 0 0 0-.459.46V27.36a.34.34 0 0 1-.029.134 12.14 12.14 0 0 1-1.117 2.036c-.578.829-1.234 1.443-1.946 1.827a4.89 4.89 0 0 1-2.335.579c-.72 0-1.36-.166-1.9-.49-.539-.326-.965-.8-1.269-1.407-.305-.61-.46-1.332-.46-2.147v-11.51a.46.46 0 0 0-.459-.46h-3.34a.46.46 0 0 0-.459.46v11.752c0 1.479.294 2.795.872 3.907a6.332 6.332 0 0 0 2.483 2.607Zm-16.392 7.047c-1.732 0-3.265-.245-4.558-.73-1.298-.488-2.327-1.21-3.058-2.15a5.566 5.566 0 0 1-1.145-2.92.464.464 0 0 1 .462-.498h3.517c.212 0 .392.146.449.368.173.684.612 1.244 1.308 1.665.803.487 1.892.733 3.231.733 1.611 0 2.88-.437 3.771-1.293.893-.86 1.344-2.062 1.344-3.58v-1.677c0-.083-.018-.1-.018-.1-.049 0-.085.043-.095.066l-.083.147-.015-.049a6.708 6.708 0 0 1-2.258 1.714 8.076 8.076 0 0 1-3.474.769c-1.711 0-3.231-.382-4.516-1.133-1.285-.754-2.289-1.84-2.986-3.228-.694-1.389-1.045-3.04-1.045-4.909 0-1.868.364-3.561 1.081-4.962.718-1.402 1.752-2.498 3.071-3.265 1.319-.764 2.88-1.15 4.638-1.15.436 0 .89.022 1.354.069.269.023 2.656.279 4.191 2.395.031.044.067.07.098.07a.054.054 0 0 0 .037-.016c.023-.026.033-.07.028-.127v-1.566a.458.458 0 0 1 .459-.444h3.376a.46.46 0 0 1 .459.46V32.81c0 1.825-.387 3.425-1.151 4.756-.764 1.332-1.886 2.364-3.334 3.074-1.445.704-3.172 1.063-5.133 1.063l-.005-.008Zm.31-22.861c-1.064 0-2 .247-2.78.732-.779.488-1.393 1.188-1.822 2.08-.431.898-.65 1.964-.65 3.17 0 1.205.219 2.306.65 3.202.429.893 1.043 1.595 1.822 2.08.78.485 1.716.733 2.78.733a5.049 5.049 0 0 0 3.904-1.773c.431-.5.772-1.089 1.017-1.75.059-.157.088-.335.088-.523v-3.897a1.57 1.57 0 0 0-.088-.527 5.764 5.764 0 0 0-1.017-1.75 5.08 5.08 0 0 0-1.739-1.313 5.183 5.183 0 0 0-2.165-.46v-.005Zm240.735 22.131c1.293.485 2.826.73 4.557.73l.006.008c1.961 0 3.687-.359 5.132-1.063 1.448-.71 2.571-1.742 3.335-3.074.764-1.331 1.151-2.931 1.151-4.756V16.353a.46.46 0 0 0-.46-.459h-3.375a.46.46 0 0 0-.46.444v1.566c.006.057-.005.101-.028.127a.05.05 0 0 1-.036.015c-.031 0-.067-.025-.098-.07-1.536-2.115-3.923-2.37-4.191-2.394-.465-.047-.919-.07-1.355-.07-1.757 0-3.319.387-4.637 1.151-1.319.767-2.354 1.863-3.071 3.265-.718 1.401-1.082 3.094-1.082 4.962 0 1.869.351 3.52 1.046 4.909.696 1.388 1.7 2.474 2.985 3.228 1.286.751 2.806 1.133 4.516 1.133a8.07 8.07 0 0 0 3.474-.77 6.698 6.698 0 0 0 2.258-1.713l.016.05.082-.148c.01-.023.047-.067.096-.067 0 0 .018.018.018.1v1.678c0 1.518-.452 2.72-1.345 3.58-.89.856-2.16 1.293-3.77 1.293-1.339 0-2.429-.246-3.231-.733-.697-.421-1.136-.981-1.309-1.665a.467.467 0 0 0-.449-.369h-3.517a.466.466 0 0 0-.462.498 5.576 5.576 0 0 0 1.146 2.921c.73.94 1.76 1.662 3.058 2.15Zm2.088-21.399c.779-.485 1.716-.732 2.779-.732v.005a5.18 5.18 0 0 1 2.165.459 5.084 5.084 0 0 1 1.74 1.314c.428.5.771 1.089 1.016 1.75.057.16.088.337.088.526v3.896c0 .189-.028.367-.088.524a5.7 5.7 0 0 1-1.016 1.75 5.053 5.053 0 0 1-3.905 1.773c-1.063 0-2-.248-2.779-.733-.78-.485-1.394-1.187-1.822-2.08-.431-.896-.651-1.997-.651-3.203 0-1.205.22-2.27.651-3.169.428-.893 1.042-1.592 1.822-2.08ZM358.653 35.16c-1.252 0-2.336-.266-3.218-.787a5.087 5.087 0 0 1-2.016-2.194c-.451-.926-.681-2.03-.681-3.283v-9.158a.316.316 0 0 0-.315-.315h-2.684a.46.46 0 0 1-.459-.46v-2.578a.46.46 0 0 1 .459-.459h2.684a.316.316 0 0 0 .315-.315v-1.576a.46.46 0 0 1 .256-.413l3.36-2.896a.468.468 0 0 1 .222-.06c.252 0 .459.207.459.463v4.482c0 .173.142.315.315.315h5.316a.46.46 0 0 1 .459.46v2.577a.46.46 0 0 1-.459.46h-5.316a.316.316 0 0 0-.315.315v9.158c0 .656.09 1.188.271 1.577.175.385.49.681.931.88.449.201 1.079.305 1.871.305h2.553a.46.46 0 0 1 .459.46v2.577a.46.46 0 0 1-.459.46h-4.005l-.003.005Zm275.156-.787c.883.52 1.967.787 3.218.787l.003-.005h4.005a.46.46 0 0 0 .459-.46v-2.578a.46.46 0 0 0-.459-.46h-2.552c-.793 0-1.422-.102-1.871-.304-.442-.198-.756-.495-.932-.88-.18-.39-.271-.921-.271-1.577v-9.158c0-.173.142-.315.315-.315h5.316a.46.46 0 0 0 .46-.46v-2.578a.46.46 0 0 0-.46-.459h-5.316a.316.316 0 0 1-.315-.315v-4.482a.46.46 0 0 0-.459-.462.47.47 0 0 0-.222.06l-3.36 2.895a.46.46 0 0 0-.256.412v1.577a.316.316 0 0 1-.314.315h-2.684a.46.46 0 0 0-.46.46v2.577c0 .253.207.46.46.46h2.684c.172 0 .314.142.314.315v9.158c0 1.252.23 2.357.682 3.283a5.078 5.078 0 0 0 2.015 2.194Zm-200.519 7.36a.46.46 0 0 1-.459-.46v-2.578a.46.46 0 0 1 .459-.46h2.656c.56 0 1.06-.123 1.486-.37.426-.248.808-.623 1.136-1.118.333-.503.673-1.164 1.014-1.959l.353-.854a.295.295 0 0 0 0-.24l-7.083-17.128a.458.458 0 0 1 .425-.635h3.484c.189 0 .354.111.426.284l4.89 11.827a.159.159 0 0 0 .148.098.156.156 0 0 0 .147-.098l4.89-11.827a.458.458 0 0 1 .426-.284h3.445a.462.462 0 0 1 .426.64l-8.387 20.042c-.532 1.292-1.131 2.317-1.776 3.045-.65.73-1.393 1.267-2.206 1.592-.813.325-1.789.49-2.898.49h-3.002v-.007Zm59.133-7.36c1.458.797 3.19 1.202 5.154 1.202s3.698-.405 5.153-1.202c1.459-.798 2.591-1.967 3.368-3.471.774-1.502 1.167-3.306 1.167-5.36 0-2.055-.393-3.858-1.167-5.36-.777-1.505-1.909-2.674-3.368-3.471-1.455-.798-3.192-1.203-5.153-1.203-1.961 0-3.696.405-5.154 1.203-1.458.797-2.591 1.966-3.367 3.47-.775 1.503-1.167 3.306-1.167 5.36 0 2.055.392 3.859 1.167 5.36a8.137 8.137 0 0 0 3.367 3.472Zm2.253-14.545c.815-.521 1.791-.784 2.9-.784s2.079.263 2.881.784c.802.519 1.427 1.277 1.858 2.25.431.978.65 2.145.65 3.464 0 1.318-.216 2.485-.65 3.463-.431.973-1.056 1.731-1.858 2.25-.803.521-1.773.785-2.883.785-1.109 0-2.087-.264-2.9-.785-.813-.519-1.445-1.277-1.874-2.25-.431-.976-.65-2.142-.65-3.463 0-1.322.219-2.486.653-3.464.428-.973 1.058-1.729 1.873-2.25Zm161.587 14.545c1.458.797 3.19 1.202 5.154 1.202s3.698-.405 5.153-1.202c1.458-.798 2.591-1.967 3.368-3.471.774-1.505 1.166-3.306 1.166-5.36 0-2.055-.392-3.856-1.166-5.36-.777-1.505-1.91-2.674-3.368-3.471-1.455-.798-3.192-1.203-5.153-1.203-1.962 0-3.696.405-5.154 1.203-1.458.797-2.591 1.966-3.368 3.47-.774 1.503-1.166 3.306-1.166 5.36 0 2.055.392 3.859 1.166 5.36a8.145 8.145 0 0 0 3.368 3.472Zm2.253-14.545c.815-.52 1.789-.784 2.898-.784 1.11 0 2.08.263 2.883.784.802.519 1.427 1.277 1.858 2.25.431.978.65 2.145.65 3.464 0 1.318-.217 2.485-.65 3.463-.431.973-1.056 1.731-1.858 2.25-.803.521-1.773.785-2.883.785-1.109 0-2.088-.264-2.9-.785-.813-.519-1.446-1.277-1.874-2.25-.431-.976-.65-2.142-.65-3.463 0-1.322.219-2.486.653-3.464.428-.973 1.058-1.729 1.873-2.25Zm-255.481 15.55a.673.673 0 0 1-.645-.485l-3.67-12.74-3.67 12.74a.673.673 0 0 1-.645.485h-3.822a.674.674 0 0 1-.645-.485l-5.203-18.065a.66.66 0 0 1 .109-.588.661.661 0 0 1 .537-.268h3.262c.299 0 .562.2.645.487l3.592 12.58 3.608-12.58a.67.67 0 0 1 .645-.485h3.28c.294 0 .56.199.642.48l3.727 12.622 3.577-12.614a.671.671 0 0 1 .645-.488h3.058a.666.666 0 0 1 .642.854l-5.171 18.065a.67.67 0 0 1-.645.485h-3.853Zm119.778-.679c0 .253.207.46.459.46v.002h3.34a.46.46 0 0 0 .459-.46V22.95c0-1.48-.294-2.795-.872-3.907a6.326 6.326 0 0 0-2.483-2.607c-1.068-.614-2.338-.926-3.773-.926-1.04 0-2.033.185-2.949.557-.914.372-1.765.94-2.532 1.693-.222.217-.4.457-.575.704-.042.034-.062.034-.067.034-.021 0-.042-.054-.047-.088v-2.028a.46.46 0 0 0-.459-.46h-3.391a.46.46 0 0 0-.46.46v18.312c0 .253.207.46.46.46h3.375a.46.46 0 0 0 .46-.46V23.721c0-.044.01-.093.028-.134.346-.785.723-1.47 1.117-2.036.578-.828 1.234-1.443 1.946-1.827a4.894 4.894 0 0 1 2.336-.578c.72 0 1.36.165 1.899.49.539.328.965.8 1.27 1.407.304.609.459 1.331.459 2.147V34.7Zm73.159.46a.447.447 0 0 1-.447-.447V16.31c0-.245.199-.447.447-.447h3.615c.245 0 .447.199.447.447v3.525c1.218-2.617 3.192-4.098 5.731-4.292.178-.013.359-.023.542-.025a.45.45 0 0 1 .457.446v4.01s.008.16-.098.25a.4.4 0 0 1-.227.08c-.24 0-.478.01-.705.029-3.329.284-5.409 2.64-5.703 6.462v7.92a.447.447 0 0 1-.447.446h-3.615l.003-.002Zm243.878-.447c0 .248.202.447.447.447l-.003.002h3.616a.447.447 0 0 0 .446-.446v-7.92c.294-3.822 2.374-6.178 5.703-6.462a8.97 8.97 0 0 1 .705-.028.4.4 0 0 0 .227-.08c.106-.09.098-.25.098-.25v-4.011a.45.45 0 0 0-.457-.447 9.238 9.238 0 0 0-.542.026c-2.539.194-4.513 1.675-5.731 4.292V16.31a.447.447 0 0 0-.447-.447h-3.615a.447.447 0 0 0-.447.447v18.402ZM91.47 13.51h4.076c.224 0 .405.183.405.405v20.98a.406.406 0 0 1-.405.406H92.01a.404.404 0 0 1-.405-.406v-2.55c-.839 1.007-1.917 1.854-3.21 2.522-1.309.679-2.77 1.022-4.336 1.022-2.8 0-5.024-.826-6.606-2.454-1.582-1.629-2.385-3.799-2.385-6.45v-13.07c0-.225.181-.405.406-.405h4.08c.224 0 .405.183.405.405v12.441c0 1.74.441 3.053 1.308 3.905.867.851 2.142 1.285 3.791 1.285 1.26 0 2.413-.351 3.432-1.04a9.531 9.531 0 0 0 1.993-1.799c.376-.449.583-1.04.583-1.662v-13.13c0-.225.183-.405.405-.405Zm25.031.544c-1.342-.753-2.924-1.135-4.7-1.135-1.566 0-3.024.343-4.335 1.022-1.293.668-2.372 1.517-3.21 2.52v-2.549a.406.406 0 0 0-.406-.405h-3.582a.404.404 0 0 0-.405.405V34.89c0 .222.181.405.405.405h4.08c.225 0 .406-.18.406-.405V21.786c0-.645.237-1.27.665-1.76a10.043 10.043 0 0 1 1.954-1.724 6.017 6.017 0 0 1 3.432-1.04c1.497 0 2.728.449 3.657 1.331.926.883 1.399 2.184 1.399 3.859V34.89c0 .222.18.405.405.405h4.08c.224 0 .405-.18.405-.405V21.82c0-1.717-.374-3.268-1.112-4.61a7.996 7.996 0 0 0-3.133-3.156h-.005Zm12.64-.544h-4.08v-.003a.404.404 0 0 0-.405.405v20.98c0 .225.18.406.405.406h4.08c.224 0 .405-.18.405-.405V13.915a.404.404 0 0 0-.405-.405Zm13.063 0h6.913l-.002-.008c.224 0 .405.183.405.405v3.49a.404.404 0 0 1-.405.404h-6.929a.566.566 0 0 0-.55.56v9.389c0 1.39.263 2.19.911 2.761.008.008.8.728 3.192.728h3.376c.224 0 .405.18.405.405v3.788a.404.404 0 0 1-.405.405h-4.826c-2.23 0-4.057-.593-5.427-1.77-1.37-1.174-2.067-2.993-2.067-5.406V18.328a.569.569 0 0 0-.442-.519h-3.05a.404.404 0 0 1-.405-.405v-3.49c0-.224.183-.404.405-.404h2.929c.3 0 .547-.238.563-.537v-2.207c0-.108.044-.209.118-.286l4.031-4.052a.407.407 0 0 1 .695.284v6.232c0 .313.255.566.565.566Zm70.591 9.889a10.72 10.72 0 0 0-2.506-1.402 17.892 17.892 0 0 0-2.875-.872l-2.446-.568a16.237 16.237 0 0 1-1.569-.43 7.173 7.173 0 0 1-1.394-.625 2.944 2.944 0 0 1-.96-.88c-.227-.335-.343-.74-.343-1.205a2.433 2.433 0 0 1 .532-1.507c.348-.442.862-.798 1.527-1.058.674-.264 1.5-.398 2.449-.398 1.35 0 2.457.279 3.293.829a3.032 3.032 0 0 1 1.36 2.007c.047.23.264.395.519.395l3.946-.008a.536.536 0 0 0 .511-.353.395.395 0 0 0 .018-.158 6.251 6.251 0 0 0-1.254-3.37c-.816-1.076-1.951-1.93-3.373-2.537-1.417-.604-3.084-.91-4.955-.91s-3.52.306-4.983.91c-1.469.607-2.648 1.471-3.502 2.566-.86 1.102-1.293 2.402-1.293 3.863 0 1.783.65 3.236 1.933 4.315 1.262 1.06 3.001 1.86 5.171 2.379l2.966.71c.918.219 1.731.467 2.418.74.668.266 1.192.599 1.558.989.354.376.537.859.547 1.434a2.595 2.595 0 0 1-.627 1.696c-.415.488-1.001.872-1.739 1.146-.748.276-1.631.418-2.625.418-.993 0-1.824-.134-2.591-.403-.753-.263-1.372-.663-1.837-1.195-.397-.451-.653-1.03-.756-1.71-.036-.238-.261-.416-.521-.416l-4.029.008a.542.542 0 0 0-.389.16.454.454 0 0 0-.137.364c.124 1.486.586 2.774 1.368 3.822.854 1.145 2.056 2.028 3.576 2.624 1.507.591 3.311.89 5.355.89 2.044 0 3.93-.31 5.422-.92 1.502-.615 2.668-1.487 3.468-2.59.8-1.104 1.208-2.4 1.208-3.852 0-1.074-.222-2.029-.658-2.831a6.447 6.447 0 0 0-1.778-2.062l-.005-.005Zm26.377-1.337h9.497v.005c.229 0 .415.186.415.416v2.655c0 2.147-.465 4.031-1.381 5.603a9.438 9.438 0 0 1-3.796 3.641c-1.602.846-3.466 1.275-5.54 1.275-2.313 0-4.369-.53-6.114-1.572s-3.125-2.544-4.101-4.47c-.975-1.922-1.471-3.948-1.471-6.59 0-2.024.292-3.564.867-5.157.576-1.594 1.394-2.967 2.431-4.082a10.51 10.51 0 0 1 3.673-2.563c1.398-.583 2.939-.88 4.58-.88 1.389 0 2.702.204 3.902.61 1.2.405 2.284.988 3.221 1.73a9.659 9.659 0 0 1 2.323 2.662 9.41 9.41 0 0 1 1.153 3.15.274.274 0 0 1-.059.22.274.274 0 0 1-.209.098h-4.225a.271.271 0 0 1-.258-.188 6.615 6.615 0 0 0-.784-1.621 5.636 5.636 0 0 0-1.262-1.34 5.265 5.265 0 0 0-1.678-.84 7.102 7.102 0 0 0-2.064-.287c-1.329 0-2.529.338-3.569 1.006-1.038.669-1.866 1.662-2.46 2.958-.593 1.298-.895 2.59-.895 4.47 0 1.878.299 3.2.89 4.5.589 1.298 1.417 2.297 2.465 2.97 1.047.674 2.281 1.015 3.669 1.015 1.26 0 2.364-.246 3.288-.728a5.143 5.143 0 0 0 2.139-2.065c.369-.658.604-1.42.7-2.258h-5.347a.386.386 0 0 1-.385-.384v-3.575c0-.211.173-.384.385-.384Zm87.762 0h-9.497a.385.385 0 0 0-.384.384v3.575c0 .211.173.384.384.384h5.347c-.095.839-.33 1.6-.699 2.258a5.143 5.143 0 0 1-2.139 2.065c-.924.482-2.029.727-3.288.727-1.388 0-2.622-.34-3.67-1.014-1.047-.673-1.876-1.672-2.464-2.97-.591-1.3-.891-2.622-.891-4.5 0-1.88.302-3.172.896-4.47.593-1.296 1.422-2.29 2.459-2.958 1.04-.668 2.24-1.006 3.569-1.006.741 0 1.438.095 2.065.286a5.25 5.25 0 0 1 1.677.842c.488.369.911.82 1.262 1.339a6.58 6.58 0 0 1 .785 1.62.271.271 0 0 0 .258.189h4.224a.273.273 0 0 0 .269-.317 9.411 9.411 0 0 0-1.154-3.151 9.672 9.672 0 0 0-2.322-2.661 10.634 10.634 0 0 0-3.221-1.732c-1.2-.405-2.514-.609-3.902-.609-1.641 0-3.182.297-4.581.88a10.515 10.515 0 0 0-3.672 2.563c-1.037 1.115-1.855 2.488-2.431 4.082-.575 1.593-.867 3.133-.867 5.157 0 2.642.496 4.668 1.471 6.59.975 1.926 2.356 3.428 4.101 4.47 1.744 1.043 3.801 1.572 6.113 1.572 2.075 0 3.938-.429 5.541-1.275a9.444 9.444 0 0 0 3.796-3.641c.916-1.572 1.381-3.456 1.381-5.603v-2.655a.415.415 0 0 0-.416-.416v-.005ZM187.092 10.648h4.041c.224 0 .405.18.405.405v23.835a.404.404 0 0 1-.405.405h-4.08a.447.447 0 0 1-.38-.214L174.454 18.33v6.295h-.028V34.89a.404.404 0 0 1-.405.405h-4.013a.404.404 0 0 1-.405-.405V11.053c0-.225.18-.405.405-.405h4.392c.155 0 .299.082.379.214l11.913 16.648v-4.54l-.006-2.451v-9.466c0-.225.181-.405.406-.405Zm86.815 0h-4.018a.404.404 0 0 0-.405.405v8.65a.59.59 0 0 1-.591.591h-11.087a.593.593 0 0 1-.591-.59v-8.651a.404.404 0 0 0-.405-.405h-4.023a.404.404 0 0 0-.405.405V34.89c0 .225.18.405.405.405h4.023c.225 0 .405-.18.405-.405v-9.757c0-.325.266-.591.591-.591h11.084a.59.59 0 0 1 .591.59v9.758c0 .225.181.405.405.405h4.021c.225 0 .405-.18.405-.405V11.053a.404.404 0 0 0-.405-.405Zm3.706.013h19.613l-.003.002c.225 0 .405.18.405.405v3.471a.385.385 0 0 1-.384.385h-6.748a.59.59 0 0 0-.591.588l-.07 19.38c0 .23-.186.416-.416.416h-3.997a.404.404 0 0 1-.405-.405l-.011-19.39a.59.59 0 0 0-.591-.592h-6.823a.385.385 0 0 1-.384-.384v-3.471c0-.225.18-.405.405-.405Zm-116.834 0h4.044c.225 0 .405.18.405.405v23.837c0 .225-.18.405-.405.405h-4.044a.404.404 0 0 1-.405-.405V11.066c0-.225.181-.405.405-.405Zm62.202 0h-4.044a.404.404 0 0 0-.405.405v23.837c0 .225.18.405.405.405h4.044c.224 0 .405-.18.405-.405V11.066a.404.404 0 0 0-.405-.405Z" clip-rule="evenodd"/></g><defs><clipPath id="a"><path fill="#fff" d="M0 0h852v42H0z"/></clipPath></defs></svg>