<svg xmlns="http://www.w3.org/2000/svg" width="398" height="40" fill="currentColor" viewBox="0 0 398 40"><g clip-path="url(#a)"><path fill="#00C9EA" d="M20 0a20 20 0 1 0 0 40 20 20 0 0 0 0-40Zm6.01 18.663a7.391 7.391 0 0 0-7.3 7.301v.093a4.72 4.72 0 1 1-4.72-4.72 7.303 7.303 0 0 0 7.3-7.358v-.036a4.72 4.72 0 1 1 4.72 4.72Z"/><path fill="#fff" fill-rule="evenodd" d="M57.96 30.519H72.4a.406.406 0 0 1 .399.408v4.043a.409.409 0 0 1-.406.406H56.1a5.23 5.23 0 0 1-5.222-5.222v-26.2a.406.406 0 0 1 .406-.406h4.459a.406.406 0 0 1 .406.407v24.753a1.834 1.834 0 0 0 1.81 1.81Zm71.462-24.746h-4.087a.406.406 0 0 0-.406.406v4.086c0 .224.182.406.406.406h4.087a.406.406 0 0 0 .406-.406V6.18a.406.406 0 0 0-.406-.406Zm-33.66 7.766h-4.087a.406.406 0 0 0-.406.406v13.157c.006.607-.2 1.196-.585 1.666a9.604 9.604 0 0 1-1.994 1.81 6.034 6.034 0 0 1-3.44 1.035c-1.652 0-2.933-.432-3.802-1.294-.868-.86-1.31-2.17-1.31-3.913v-12.46a.405.405 0 0 0-.404-.407h-4.09a.406.406 0 0 0-.405.406v13.1c0 2.656.804 4.831 2.39 6.466 1.585 1.634 3.814 2.46 6.62 2.46a9.352 9.352 0 0 0 4.348-1.035 10.303 10.303 0 0 0 3.218-2.522v2.556a.409.409 0 0 0 .406.406h3.543a.406.406 0 0 0 .406-.406V13.946a.405.405 0 0 0-.409-.407Zm16.285-.592a9.503 9.503 0 0 1 4.71 1.138 8.01 8.01 0 0 1 3.153 3.166 9.473 9.473 0 0 1 1.117 4.616v13.1a.41.41 0 0 1-.406.406h-4.089a.41.41 0 0 1-.406-.406V22.501c0-1.678-.479-2.97-1.41-3.856-.931-.887-2.162-1.335-3.662-1.335a6.013 6.013 0 0 0-3.44 1.035 10.163 10.163 0 0 0-1.958 1.727 2.688 2.688 0 0 0-.667 1.764V34.97a.407.407 0 0 1-.406.406h-4.086a.405.405 0 0 1-.406-.406V13.943a.404.404 0 0 1 .4-.404h3.59a.404.404 0 0 1 .406.404v2.555a10.332 10.332 0 0 1 3.215-2.516 9.382 9.382 0 0 1 4.345-1.035Zm17.375.592h-4.087a.406.406 0 0 0-.406.406V34.97c0 .224.182.406.406.406h4.087a.406.406 0 0 0 .406-.406V13.945a.406.406 0 0 0-.406-.406Zm20.023 0h-6.939a.57.57 0 0 1-.566-.566V6.724a.399.399 0 0 0-.032-.156.395.395 0 0 0-.221-.22.402.402 0 0 0-.44.092l-4.04 4.06a.392.392 0 0 0-.119.288v2.21a.57.57 0 0 1-.564.539h-2.928a.406.406 0 0 0-.401.406v3.5a.411.411 0 0 0 .401.403h3.06a.563.563 0 0 1 .439.517v10.345c0 2.418.699 4.242 2.07 5.431 1.37 1.19 3.204 1.775 5.431 1.775h4.836a.41.41 0 0 0 .287-.12.396.396 0 0 0 .119-.286v-3.79a.396.396 0 0 0-.119-.287.398.398 0 0 0-.287-.118h-3.37c-2.4 0-3.191-.722-3.199-.73-.649-.571-.913-1.373-.913-2.767v-9.407a.564.564 0 0 1 .556-.563h6.944a.41.41 0 0 0 .406-.406v-3.497a.397.397 0 0 0-.121-.287.407.407 0 0 0-.29-.116Zm61.306 8.507a10.62 10.62 0 0 1 2.512 1.404 6.474 6.474 0 0 1 1.774 2.059c.457.877.685 1.856.662 2.845a6.44 6.44 0 0 1-1.203 3.88 7.848 7.848 0 0 1-3.476 2.586c-1.492.613-3.32.923-5.431.923a14.745 14.745 0 0 1-5.367-.892 7.993 7.993 0 0 1-3.584-2.628 7.31 7.31 0 0 1-1.371-3.83.459.459 0 0 1 .137-.365.554.554 0 0 1 .391-.158h4.037a.516.516 0 0 1 .517.417c.081.633.345 1.228.758 1.714a4.279 4.279 0 0 0 1.841 1.198 7.931 7.931 0 0 0 2.587.4 7.638 7.638 0 0 0 2.633-.416 4.135 4.135 0 0 0 1.74-1.15 2.585 2.585 0 0 0 .631-1.697 2.069 2.069 0 0 0-.548-1.44 4.3 4.3 0 0 0-1.552-.991 17.201 17.201 0 0 0-2.423-.743l-2.972-.71c-2.165-.52-3.887-1.302-5.172-2.386-1.286-1.083-1.938-2.537-1.938-4.326a6.158 6.158 0 0 1 1.294-3.88 8.45 8.45 0 0 1 3.509-2.57 13.053 13.053 0 0 1 4.994-.914c1.7-.032 3.389.278 4.966.913a8.2 8.2 0 0 1 3.383 2.543 6.306 6.306 0 0 1 1.257 3.38.385.385 0 0 1-.021.158.534.534 0 0 1-.517.354h-3.955a.516.516 0 0 1-.517-.396 3.034 3.034 0 0 0-1.363-2.017c-.838-.548-1.95-.828-3.3-.828a6.777 6.777 0 0 0-2.454.404 3.55 3.55 0 0 0-1.531 1.06 2.433 2.433 0 0 0-.533 1.51c-.011.429.109.85.344 1.209.25.361.578.662.959.881.442.258.91.468 1.397.626.517.169 1.041.311 1.572.427l2.452.57a18.18 18.18 0 0 1 2.881.876Zm38.464.064h-9.518a.38.38 0 0 0-.274.115.383.383 0 0 0-.111.276v3.585a.387.387 0 0 0 .385.385h5.359a5.952 5.952 0 0 1-.703 2.266 5.172 5.172 0 0 1-2.142 2.069 7.02 7.02 0 0 1-3.295.732 6.69 6.69 0 0 1-3.675-1.02 6.769 6.769 0 0 1-2.472-2.981c-.59-1.294-.89-2.63-.89-4.511a10.1 10.1 0 0 1 .89-4.48 6.772 6.772 0 0 1 2.464-2.963 6.502 6.502 0 0 1 3.577-1.012 7.24 7.24 0 0 1 2.069.287 5.271 5.271 0 0 1 1.682.844c.492.375.919.83 1.264 1.344.331.504.592 1.05.776 1.622a.26.26 0 0 0 .259.189h4.234a.257.257 0 0 0 .209-.098.255.255 0 0 0 .055-.103.257.257 0 0 0 .005-.117 9.369 9.369 0 0 0-1.157-3.158 9.737 9.737 0 0 0-2.327-2.67 10.576 10.576 0 0 0-3.231-1.732 12.202 12.202 0 0 0-3.91-.613 11.811 11.811 0 0 0-4.588.885 10.558 10.558 0 0 0-3.681 2.565 11.883 11.883 0 0 0-2.436 4.092 14.385 14.385 0 0 0-.869 5.172c0 2.649.497 4.679 1.474 6.606a10.796 10.796 0 0 0 4.131 4.474c1.748 1.035 3.809 1.573 6.127 1.573a11.775 11.775 0 0 0 5.553-1.278 9.436 9.436 0 0 0 3.801-3.65c.919-1.572 1.384-3.462 1.384-5.614v-2.664a.418.418 0 0 0-.419-.417Zm-61.707-11.439h4.045a.405.405 0 0 1 .406.406V34.96a.404.404 0 0 1-.403.406h-4.089a.445.445 0 0 1-.381-.217L174.84 18.363v6.318h-.026V34.97a.403.403 0 0 1-.406.406h-4.019a.407.407 0 0 1-.406-.406V11.077a.407.407 0 0 1 .406-.406h4.397a.441.441 0 0 1 .378.217l11.938 16.685V11.077a.407.407 0 0 1 .406-.406Zm87.004 0h-4.032a.405.405 0 0 0-.406.406v8.67a.598.598 0 0 1-.593.592h-11.108a.584.584 0 0 1-.419-.174.595.595 0 0 1-.173-.418v-8.67a.407.407 0 0 0-.406-.406h-4.032a.398.398 0 0 0-.285.12.405.405 0 0 0-.116.286v23.89a.412.412 0 0 0 .117.287.41.41 0 0 0 .286.12h4.032a.406.406 0 0 0 .406-.407v-9.776a.587.587 0 0 1 .172-.419.591.591 0 0 1 .418-.173h11.121a.587.587 0 0 1 .548.365.59.59 0 0 1 .045.227v9.776a.403.403 0 0 0 .406.406h4.032a.407.407 0 0 0 .406-.406v-23.89a.41.41 0 0 0-.124-.292.401.401 0 0 0-.295-.114Zm3.711.013h19.656a.403.403 0 0 1 .398.406v3.479a.376.376 0 0 1-.111.274.388.388 0 0 1-.274.114h-6.763a.592.592 0 0 0-.592.59l-.07 19.423a.419.419 0 0 1-.419.416h-4.004a.41.41 0 0 1-.408-.406V15.549a.593.593 0 0 0-.593-.592h-6.841a.387.387 0 0 1-.385-.388V11.09a.407.407 0 0 1 .406-.406Zm-113.037 0h-4.053a.406.406 0 0 0-.406.406v23.89c0 .224.182.406.406.406h4.053a.406.406 0 0 0 .406-.406V11.09a.406.406 0 0 0-.406-.406Zm54.232 0h4.053c.224 0 .406.182.406.406v23.89a.406.406 0 0 1-.406.406h-4.053a.406.406 0 0 1-.406-.406V11.09c0-.224.182-.406.406-.406Z" clip-rule="evenodd"/><path fill="#00C9EA" fill-rule="evenodd" d="M324.324 26.856h4.027v-.005a.495.495 0 0 1 .38.178.507.507 0 0 1 .112.404 9.13 9.13 0 0 1-5.501 7.224 13.373 13.373 0 0 1-5.46 1.08c-2.393 0-4.511-.517-6.272-1.551a10.427 10.427 0 0 1-4.104-4.42c-.955-1.909-1.441-4.159-1.441-6.724 0-2.566.497-4.827 1.477-6.725a10.6 10.6 0 0 1 4.171-4.42c1.788-1.034 3.921-1.552 6.342-1.552 1.827-.03 3.64.322 5.323 1.035a9.11 9.11 0 0 1 3.737 2.99 8.939 8.939 0 0 1 1.591 4.052.53.53 0 0 1-.119.406.502.502 0 0 1-.375.171h-4.066a.515.515 0 0 1-.494-.414 5.44 5.44 0 0 0-.887-2.105 4.772 4.772 0 0 0-1.958-1.59 6.637 6.637 0 0 0-2.757-.557 5.674 5.674 0 0 0-3.43 1.048 6.721 6.721 0 0 0-2.469 3.01 11.517 11.517 0 0 0-.869 4.656 11.705 11.705 0 0 0 .853 4.655 6.752 6.752 0 0 0 2.4 3.01 5.4 5.4 0 0 0 3.342 1.035 7.183 7.183 0 0 0 2.945-.574 5.021 5.021 0 0 0 2.07-1.66 5.594 5.594 0 0 0 .941-2.24.5.5 0 0 1 .491-.417Zm44.038-2.157.706 1.125 5.687 8.789a.516.516 0 0 1-.127.682.488.488 0 0 1-.258.088h-4.32a.502.502 0 0 1-.419-.225l-6.108-9.52a.434.434 0 0 0-.368-.199h-3.295a.597.597 0 0 0-.592.592v8.936a.417.417 0 0 1-.416.416h-4.009a.42.42 0 0 1-.416-.416v-23.87a.415.415 0 0 1 .416-.415h9.771a10.742 10.742 0 0 1 4.48.879 6.67 6.67 0 0 1 4.057 6.38 6.465 6.465 0 0 1-1.189 3.743 8.294 8.294 0 0 1-3.316 2.736c-.109.052-.23.106-.365.163l.081.116Zm-8.93-9.873a.591.591 0 0 0-.174.418v5.643a.592.592 0 0 0 .592.592h4.107a5.66 5.66 0 0 0 2.299-.434 3.237 3.237 0 0 0 2.025-3.104 3.383 3.383 0 0 0-.442-1.764 2.886 2.886 0 0 0-1.275-1.127 4.654 4.654 0 0 0-1.984-.399h-4.73a.595.595 0 0 0-.418.175Zm-15.775 8.037a.311.311 0 0 1 0-.354l7.601-11.054a.462.462 0 0 0 .021-.518.517.517 0 0 0-.463-.258h-4.275a.534.534 0 0 0-.442.227l-3.451 5.282-1.924 2.865a.345.345 0 0 1-.305.168.351.351 0 0 1-.308-.173l-1.896-2.824-3.455-5.32a.523.523 0 0 0-.442-.228h-4.353a.517.517 0 0 0-.529.52.48.48 0 0 0 .087.256l7.648 11.15a.315.315 0 0 1 0 .352l-5.346 7.875-2.569 3.781a.47.47 0 0 0-.02.517.535.535 0 0 0 .463.259h4.246a.546.546 0 0 0 .443-.228l3.858-5.842 1.552-2.27.329-.554a.364.364 0 0 1 .484-.126.36.36 0 0 1 .131.126l1.878 2.83 3.856 5.852a.541.541 0 0 0 .442.222h4.289a.517.517 0 0 0 .529-.52.47.47 0 0 0-.087-.255l-7.992-11.758Zm37.352 8.866a7.319 7.319 0 0 0 3.142 2.969 10.582 10.582 0 0 0 4.686 1.017 11.394 11.394 0 0 0 4.777-.932 7.367 7.367 0 0 0 3.163-2.617 6.799 6.799 0 0 0 1.125-3.866 5.887 5.887 0 0 0-.651-2.74 5.78 5.78 0 0 0-1.811-2.09 6.458 6.458 0 0 0-2.126-.985.17.17 0 0 1-.085-.055.163.163 0 0 1-.037-.094.168.168 0 0 1 .099-.166 5.973 5.973 0 0 0 1.604-1.001 5.656 5.656 0 0 0 1.976-4.358 5.919 5.919 0 0 0-1.014-3.416 6.391 6.391 0 0 0-2.83-2.269 10.667 10.667 0 0 0-4.252-.776 10.115 10.115 0 0 0-4.396.947 7.67 7.67 0 0 0-3.179 2.793 8.121 8.121 0 0 0-1.244 3.94.406.406 0 0 0 .113.307.403.403 0 0 0 .301.13h3.698a.436.436 0 0 0 .445-.404c.044-.645.22-1.273.517-1.847a3.404 3.404 0 0 1 1.449-1.43 4.625 4.625 0 0 1 2.164-.484 3.995 3.995 0 0 1 1.782.368 2.775 2.775 0 0 1 1.617 2.63 3.19 3.19 0 0 1-.484 1.715 3.316 3.316 0 0 1-1.381 1.233 4.654 4.654 0 0 1-2.1.45h-.884a.415.415 0 0 0-.414.414v2.695a.417.417 0 0 0 .416.417h.867a7.278 7.278 0 0 1 2.661.45 4.339 4.339 0 0 1 1.857 1.293c.459.59.697 1.322.675 2.069a3.343 3.343 0 0 1-.554 1.903 3.68 3.68 0 0 1-1.551 1.293 5.347 5.347 0 0 1-2.287.469 4.95 4.95 0 0 1-2.441-.588 4.318 4.318 0 0 1-2.069-3.62.43.43 0 0 0-.411-.42h-3.647a.415.415 0 0 0-.414.414 8.088 8.088 0 0 0 1.128 4.242Z" clip-rule="evenodd"/></g><defs><clipPath id="a"><path fill="#fff" d="M0 0h398v40H0z"/></clipPath></defs></svg>