<svg xmlns="http://www.w3.org/2000/svg" width="373" height="40" fill="currentColor" viewBox="0 0 373 40"><g clip-path="url(#a)"><path fill="#00C9EA" d="M20 0a20 20 0 1 0 0 40 20 20 0 0 0 0-40Zm6.01 18.663a7.391 7.391 0 0 0-7.3 7.301v.093a4.72 4.72 0 1 1-4.72-4.72 7.303 7.303 0 0 0 7.3-7.358v-.036a4.72 4.72 0 1 1 4.72 4.72Z"/><path fill="#000" fill-rule="evenodd" d="M57.96 30.519H72.4a.406.406 0 0 1 .399.408v4.043a.409.409 0 0 1-.406.406H56.1a5.23 5.23 0 0 1-5.222-5.222v-26.2a.406.406 0 0 1 .406-.406h4.459a.406.406 0 0 1 .406.407v24.753a1.834 1.834 0 0 0 1.81 1.81Zm71.462-24.746h-4.087a.406.406 0 0 0-.406.406v4.086c0 .224.182.406.406.406h4.087a.406.406 0 0 0 .406-.406V6.18a.406.406 0 0 0-.406-.406Zm-33.661 7.766h-4.086a.406.406 0 0 0-.406.406v13.157c.006.607-.2 1.196-.585 1.666a9.604 9.604 0 0 1-1.994 1.81 6.034 6.034 0 0 1-3.44 1.035c-1.653 0-2.933-.432-3.802-1.294-.869-.86-1.311-2.17-1.311-3.913v-12.46a.4.4 0 0 0-.249-.376.402.402 0 0 0-.154-.03h-4.09a.406.406 0 0 0-.406.405v13.1c0 2.656.805 4.831 2.39 6.466 1.586 1.634 3.815 2.46 6.621 2.46a9.353 9.353 0 0 0 4.348-1.035 10.302 10.302 0 0 0 3.217-2.522v2.555a.409.409 0 0 0 .406.407h3.543a.406.406 0 0 0 .407-.407V13.945a.405.405 0 0 0-.409-.406Zm16.286-.592a9.503 9.503 0 0 1 4.71 1.138 8.01 8.01 0 0 1 3.153 3.166 9.474 9.474 0 0 1 1.117 4.616v13.1a.41.41 0 0 1-.406.406h-4.089a.41.41 0 0 1-.406-.406V22.501c0-1.679-.479-2.97-1.41-3.856-.931-.887-2.162-1.335-3.662-1.335a6.014 6.014 0 0 0-3.44 1.035 10.163 10.163 0 0 0-1.958 1.727 2.688 2.688 0 0 0-.667 1.764V34.97a.407.407 0 0 1-.406.406h-4.086a.405.405 0 0 1-.406-.406V13.943a.403.403 0 0 1 .4-.404h3.59a.404.404 0 0 1 .406.404v2.555a10.335 10.335 0 0 1 3.215-2.516 9.383 9.383 0 0 1 4.345-1.035Zm17.375.592h-4.087a.406.406 0 0 0-.406.406V34.97c0 .224.182.406.406.406h4.087a.406.406 0 0 0 .406-.406V13.946a.406.406 0 0 0-.406-.407Zm20.023 0h-6.939a.57.57 0 0 1-.566-.566V6.724a.399.399 0 0 0-.032-.156.395.395 0 0 0-.221-.22.402.402 0 0 0-.44.092l-4.04 4.06a.393.393 0 0 0-.119.287V13a.57.57 0 0 1-.564.538h-2.928a.406.406 0 0 0-.401.406v3.5a.41.41 0 0 0 .401.403h3.06a.563.563 0 0 1 .439.517v10.345c0 2.418.699 4.242 2.07 5.431 1.37 1.19 3.204 1.775 5.431 1.775h4.836a.41.41 0 0 0 .287-.12.395.395 0 0 0 .119-.286v-3.79a.396.396 0 0 0-.119-.287.398.398 0 0 0-.287-.119h-3.37c-2.4 0-3.191-.721-3.199-.729-.649-.571-.913-1.373-.913-2.767V18.41a.564.564 0 0 1 .556-.563h6.944a.41.41 0 0 0 .406-.407v-3.496a.398.398 0 0 0-.121-.287.409.409 0 0 0-.29-.116Zm61.306 8.507a10.62 10.62 0 0 1 2.512 1.404 6.474 6.474 0 0 1 1.774 2.059c.457.877.685 1.856.662 2.845a6.44 6.44 0 0 1-1.203 3.88 7.849 7.849 0 0 1-3.476 2.586c-1.492.612-3.32.923-5.431.923a14.745 14.745 0 0 1-5.367-.892 7.993 7.993 0 0 1-3.584-2.628 7.31 7.31 0 0 1-1.371-3.83.459.459 0 0 1 .137-.365.554.554 0 0 1 .391-.158h4.037a.516.516 0 0 1 .517.416c.081.633.345 1.23.758 1.715a4.279 4.279 0 0 0 1.841 1.198 7.931 7.931 0 0 0 2.587.4 7.636 7.636 0 0 0 2.633-.416 4.135 4.135 0 0 0 1.74-1.15 2.585 2.585 0 0 0 .631-1.697 2.069 2.069 0 0 0-.548-1.44 4.3 4.3 0 0 0-1.552-.992 17.201 17.201 0 0 0-2.423-.742l-2.972-.711c-2.165-.52-3.887-1.3-5.172-2.385-1.286-1.083-1.938-2.537-1.938-4.326a6.158 6.158 0 0 1 1.294-3.88 8.45 8.45 0 0 1 3.509-2.57 13.05 13.05 0 0 1 4.994-.914c1.7-.033 3.389.278 4.966.913a8.2 8.2 0 0 1 3.383 2.543 6.306 6.306 0 0 1 1.257 3.38.385.385 0 0 1-.021.158.534.534 0 0 1-.517.354h-3.955a.516.516 0 0 1-.517-.396 3.034 3.034 0 0 0-1.363-2.017c-.838-.548-1.95-.828-3.3-.828a6.777 6.777 0 0 0-2.454.404 3.551 3.551 0 0 0-1.531 1.06 2.433 2.433 0 0 0-.533 1.51c-.011.429.109.85.344 1.208.25.362.578.663.959.882.442.258.91.468 1.397.626.517.169 1.041.311 1.572.427l2.452.569a18.19 18.19 0 0 1 2.881.877Zm38.464.064h-9.518a.382.382 0 0 0-.357.242.38.38 0 0 0-.028.149v3.585a.387.387 0 0 0 .385.385h5.359a5.952 5.952 0 0 1-.703 2.265 5.172 5.172 0 0 1-2.142 2.07 7.02 7.02 0 0 1-3.295.732 6.69 6.69 0 0 1-3.675-1.02 6.768 6.768 0 0 1-2.472-2.982c-.59-1.293-.89-2.63-.89-4.51a10.101 10.101 0 0 1 .89-4.48 6.772 6.772 0 0 1 2.464-2.963 6.502 6.502 0 0 1 3.577-1.012 7.24 7.24 0 0 1 2.069.287 5.27 5.27 0 0 1 1.682.843c.492.376.919.83 1.264 1.345a6.65 6.65 0 0 1 .776 1.622.26.26 0 0 0 .259.189h4.234a.256.256 0 0 0 .209-.098.255.255 0 0 0 .055-.104.256.256 0 0 0 .005-.116 9.37 9.37 0 0 0-1.157-3.158 9.737 9.737 0 0 0-2.327-2.67 10.573 10.573 0 0 0-3.231-1.732 12.202 12.202 0 0 0-3.91-.613 11.811 11.811 0 0 0-4.588.884 10.558 10.558 0 0 0-3.681 2.566 11.883 11.883 0 0 0-2.436 4.092 14.385 14.385 0 0 0-.869 5.172c0 2.649.497 4.679 1.474 6.606a10.797 10.797 0 0 0 4.131 4.474c1.748 1.035 3.809 1.573 6.127 1.573a11.774 11.774 0 0 0 5.553-1.278 9.436 9.436 0 0 0 3.801-3.65c.919-1.572 1.384-3.462 1.384-5.614v-2.664a.418.418 0 0 0-.419-.417Zm-61.707-11.439h4.045a.405.405 0 0 1 .406.406V34.96a.404.404 0 0 1-.403.406h-4.089a.445.445 0 0 1-.381-.217L174.84 18.363v6.318h-.026V34.97a.405.405 0 0 1-.406.406h-4.019a.407.407 0 0 1-.406-.406V11.077a.407.407 0 0 1 .406-.406h4.397a.442.442 0 0 1 .378.217l11.938 16.685V11.077a.407.407 0 0 1 .406-.406Zm87.004 0h-4.032a.405.405 0 0 0-.406.406v8.67a.598.598 0 0 1-.593.592h-11.108a.586.586 0 0 1-.419-.174.595.595 0 0 1-.173-.418v-8.67a.407.407 0 0 0-.406-.406h-4.032a.398.398 0 0 0-.285.12.406.406 0 0 0-.116.286v23.89a.413.413 0 0 0 .117.287.41.41 0 0 0 .286.119h4.032a.406.406 0 0 0 .406-.406v-9.776a.587.587 0 0 1 .172-.419.59.59 0 0 1 .418-.174h11.121a.59.59 0 0 1 .593.593v9.776a.405.405 0 0 0 .406.406h4.032a.407.407 0 0 0 .406-.406v-23.89a.41.41 0 0 0-.124-.292.402.402 0 0 0-.295-.114Zm3.711.013h19.656a.404.404 0 0 1 .398.406v3.479a.377.377 0 0 1-.111.274.388.388 0 0 1-.274.114h-6.763a.592.592 0 0 0-.592.59l-.07 19.423a.419.419 0 0 1-.419.416h-4.004a.41.41 0 0 1-.408-.406V15.549a.593.593 0 0 0-.593-.592h-6.841a.387.387 0 0 1-.385-.388V11.09a.407.407 0 0 1 .406-.406Zm-113.037 0h-4.053a.406.406 0 0 0-.406.406v23.89c0 .224.182.406.406.406h4.053a.406.406 0 0 0 .406-.406V11.09a.406.406 0 0 0-.406-.406Zm54.232 0h4.053c.224 0 .406.182.406.406v23.89a.406.406 0 0 1-.406.406h-4.053a.406.406 0 0 1-.406-.406V11.09c0-.224.182-.406.406-.406Z" clip-rule="evenodd"/><path fill="#00C9EA" fill-rule="evenodd" d="M326.349 16.472a10.767 10.767 0 0 0-4.552-4.285c-1.957-.999-4.29-1.503-6.933-1.503h-8a.57.57 0 0 0-.572.572V34.79a.574.574 0 0 0 .572.57h8c2.643 0 4.976-.505 6.933-1.5a10.727 10.727 0 0 0 4.552-4.305c1.056-1.854 1.594-4.065 1.594-6.574 0-2.509-.538-4.666-1.594-6.51Zm-15.342 14.822v-16.53a.1.1 0 0 1 .096-.096h3.761a8.992 8.992 0 0 1 4.357 1.011 6.881 6.881 0 0 1 2.845 2.887 9.403 9.403 0 0 1 .994 4.427 9.61 9.61 0 0 1-.994 4.485 6.858 6.858 0 0 1-2.845 2.902 8.991 8.991 0 0 1-4.357 1.009h-3.761a.097.097 0 0 1-.067-.028.097.097 0 0 1-.029-.066ZM372 10.684h-19.635a.405.405 0 0 0-.406.406v3.476a.387.387 0 0 0 .385.385h6.831a.59.59 0 0 1 .582.593v19.41a.407.407 0 0 0 .406.406h4.001a.41.41 0 0 0 .294-.122.415.415 0 0 0 .122-.294l.07-19.398a.593.593 0 0 1 .592-.59H372a.387.387 0 0 0 .386-.385v-3.48a.406.406 0 0 0-.386-.407Zm-24.187 12.932a5.799 5.799 0 0 1 1.599 2.069 6.26 6.26 0 0 1 .556 2.62 6.657 6.657 0 0 1-1.074 3.755 6.845 6.845 0 0 1-3.072 2.467c-1.473.593-3.05.882-4.637.849h-9.852a.567.567 0 0 1-.528-.353.565.565 0 0 1-.043-.219V11.27a.572.572 0 0 1 .571-.572h9.257c1.568-.034 3.128.23 4.598.776a6.762 6.762 0 0 1 3.037 2.253 6.075 6.075 0 0 1 .594 5.832 5.681 5.681 0 0 1-2.777 2.847.09.09 0 0 0-.045.036.09.09 0 0 0-.015.055.098.098 0 0 0 .018.052.09.09 0 0 0 .044.033c.642.247 1.24.596 1.769 1.035Zm-3.799-4.246a2.86 2.86 0 0 0 .468-1.649h-.013a2.794 2.794 0 0 0-.452-1.603 3.106 3.106 0 0 0-1.33-1.063 5.233 5.233 0 0 0-2.102-.388h-5.015a.095.095 0 0 0-.096.096v5.987a.09.09 0 0 0 .028.067.095.095 0 0 0 .068.026h5.015a5.17 5.17 0 0 0 2.102-.388 2.86 2.86 0 0 0 1.327-1.085Zm-8.528 5.517a.094.094 0 0 0-.007.037l.003 6.355a.093.093 0 0 0 .006.037.097.097 0 0 0 .052.052.097.097 0 0 0 .037.007h5.507a5.24 5.24 0 0 0 2.133-.404 2.997 2.997 0 0 0 1.863-2.845 3.006 3.006 0 0 0-.518-1.743 3.289 3.289 0 0 0-1.451-1.148 5.788 5.788 0 0 0-2.276-.406h-5.26a.093.093 0 0 0-.089.058Z" clip-rule="evenodd"/></g><defs><clipPath id="a"><path fill="#fff" d="M0 0h373v40H0z"/></clipPath></defs></svg>