<svg xmlns="http://www.w3.org/2000/svg" width="375" height="40" fill="currentColor" viewBox="0 0 375 40"><g clip-path="url(#a)"><path fill="#00C9EA" d="M20 0a20 20 0 1 0 0 40 20 20 0 0 0 0-40Zm6.01 18.663a7.391 7.391 0 0 0-7.3 7.301v.093a4.72 4.72 0 1 1-4.72-4.72 7.303 7.303 0 0 0 7.3-7.358v-.036a4.72 4.72 0 1 1 4.72 4.72Z"/><path fill="#fff" fill-rule="evenodd" d="M57.96 30.519H72.4a.406.406 0 0 1 .399.408v4.043a.409.409 0 0 1-.406.406H56.1a5.23 5.23 0 0 1-5.222-5.222v-26.2a.406.406 0 0 1 .406-.406h4.459a.406.406 0 0 1 .406.406v24.754a1.834 1.834 0 0 0 1.81 1.81Zm71.462-24.746h-4.087a.406.406 0 0 0-.406.406v4.086c0 .224.182.406.406.406h4.087a.406.406 0 0 0 .406-.406V6.18a.406.406 0 0 0-.406-.406Zm-33.66 7.766h-4.087a.406.406 0 0 0-.406.406v13.157c.006.607-.2 1.196-.585 1.666a9.604 9.604 0 0 1-1.994 1.81 6.034 6.034 0 0 1-3.44 1.035c-1.652 0-2.933-.432-3.802-1.294-.868-.86-1.31-2.17-1.31-3.913v-12.46a.405.405 0 0 0-.404-.407h-4.09a.406.406 0 0 0-.405.406v13.1c0 2.656.804 4.831 2.39 6.466 1.585 1.634 3.814 2.46 6.62 2.46a9.352 9.352 0 0 0 4.348-1.035 10.302 10.302 0 0 0 3.218-2.522v2.556a.409.409 0 0 0 .406.406h3.543a.406.406 0 0 0 .406-.406V13.945a.406.406 0 0 0-.409-.406Zm16.285-.592a9.503 9.503 0 0 1 4.71 1.138 8.01 8.01 0 0 1 3.153 3.166 9.474 9.474 0 0 1 1.117 4.616v13.1a.41.41 0 0 1-.406.406h-4.089a.41.41 0 0 1-.406-.406V22.501c0-1.679-.479-2.97-1.41-3.856-.931-.887-2.162-1.335-3.662-1.335a6.014 6.014 0 0 0-3.44 1.035 10.163 10.163 0 0 0-1.958 1.727 2.688 2.688 0 0 0-.667 1.764V34.97a.407.407 0 0 1-.406.406h-4.086a.405.405 0 0 1-.406-.406V13.943a.403.403 0 0 1 .4-.404h3.59a.404.404 0 0 1 .406.404v2.555a10.335 10.335 0 0 1 3.215-2.516 9.383 9.383 0 0 1 4.345-1.035Zm17.375.592h-4.087a.406.406 0 0 0-.406.406V34.97c0 .224.182.406.406.406h4.087a.406.406 0 0 0 .406-.406V13.945a.406.406 0 0 0-.406-.406Zm20.023 0h-6.939a.57.57 0 0 1-.566-.566V6.724a.399.399 0 0 0-.032-.156.395.395 0 0 0-.221-.22.401.401 0 0 0-.44.092l-4.04 4.06a.392.392 0 0 0-.119.287V13a.57.57 0 0 1-.564.538h-2.928a.406.406 0 0 0-.401.406v3.5a.411.411 0 0 0 .401.403h3.06a.564.564 0 0 1 .439.517v10.345c0 2.418.699 4.242 2.07 5.431 1.37 1.19 3.204 1.775 5.431 1.775h4.836a.41.41 0 0 0 .287-.12.396.396 0 0 0 .119-.286v-3.79a.396.396 0 0 0-.119-.287.398.398 0 0 0-.287-.118h-3.37c-2.4 0-3.191-.722-3.199-.73-.649-.571-.913-1.373-.913-2.767V18.41a.564.564 0 0 1 .556-.563h6.944a.41.41 0 0 0 .406-.406v-3.497a.397.397 0 0 0-.121-.287.407.407 0 0 0-.29-.116Zm61.306 8.507c.897.352 1.742.824 2.512 1.404a6.473 6.473 0 0 1 1.774 2.059c.457.877.685 1.856.662 2.845a6.44 6.44 0 0 1-1.203 3.88 7.85 7.85 0 0 1-3.476 2.586c-1.492.613-3.32.923-5.431.923a14.742 14.742 0 0 1-5.367-.892 7.992 7.992 0 0 1-3.584-2.628 7.309 7.309 0 0 1-1.371-3.83.459.459 0 0 1 .137-.365.554.554 0 0 1 .391-.158h4.037a.516.516 0 0 1 .517.417c.081.633.345 1.228.758 1.714a4.28 4.28 0 0 0 1.841 1.198 7.931 7.931 0 0 0 2.587.4 7.633 7.633 0 0 0 2.633-.416 4.133 4.133 0 0 0 1.74-1.15 2.585 2.585 0 0 0 .631-1.697 2.07 2.07 0 0 0-.548-1.44 4.299 4.299 0 0 0-1.552-.991 17.175 17.175 0 0 0-2.423-.743l-2.972-.71c-2.165-.52-3.887-1.302-5.172-2.386-1.286-1.083-1.938-2.537-1.938-4.326a6.158 6.158 0 0 1 1.294-3.88 8.45 8.45 0 0 1 3.509-2.57 13.053 13.053 0 0 1 4.994-.914c1.7-.032 3.389.278 4.966.913a8.2 8.2 0 0 1 3.383 2.543 6.307 6.307 0 0 1 1.257 3.38.384.384 0 0 1-.021.158.533.533 0 0 1-.517.354h-3.955a.515.515 0 0 1-.517-.396 3.033 3.033 0 0 0-1.363-2.017c-.838-.548-1.95-.828-3.3-.828a6.773 6.773 0 0 0-2.454.404 3.55 3.55 0 0 0-1.531 1.06c-.343.43-.531.962-.533 1.51-.011.429.109.85.344 1.209.25.361.578.662.959.881.442.258.91.468 1.397.626.517.169 1.041.311 1.572.427l2.452.569a18.19 18.19 0 0 1 2.881.877Zm38.464.064h-9.518a.382.382 0 0 0-.357.242.381.381 0 0 0-.028.149v3.585a.387.387 0 0 0 .385.385h5.359a5.952 5.952 0 0 1-.703 2.266 5.152 5.152 0 0 1-2.142 2.069 7.02 7.02 0 0 1-3.295.732 6.69 6.69 0 0 1-3.675-1.02 6.769 6.769 0 0 1-2.472-2.982c-.59-1.293-.89-2.63-.89-4.51a10.1 10.1 0 0 1 .89-4.48 6.772 6.772 0 0 1 2.464-2.963 6.502 6.502 0 0 1 3.577-1.012c.7-.006 1.398.091 2.069.287a5.273 5.273 0 0 1 1.682.843c.492.376.919.83 1.264 1.345.331.504.592 1.05.776 1.622a.26.26 0 0 0 .259.189h4.234a.256.256 0 0 0 .209-.098.255.255 0 0 0 .055-.103.257.257 0 0 0 .005-.117 9.37 9.37 0 0 0-1.157-3.158 9.736 9.736 0 0 0-2.327-2.67 10.626 10.626 0 0 0-3.231-1.735 12.272 12.272 0 0 0-3.91-.61 11.81 11.81 0 0 0-4.588.885 10.558 10.558 0 0 0-3.681 2.565 11.883 11.883 0 0 0-2.436 4.092 14.385 14.385 0 0 0-.869 5.172c0 2.649.497 4.679 1.474 6.606a10.796 10.796 0 0 0 4.131 4.474c1.748 1.035 3.809 1.573 6.127 1.573a11.8 11.8 0 0 0 5.553-1.275 9.444 9.444 0 0 0 3.801-3.652c.919-1.573 1.384-3.463 1.384-5.615v-2.664a.418.418 0 0 0-.419-.417Zm-61.707-11.439h4.045a.405.405 0 0 1 .406.406V34.96a.404.404 0 0 1-.403.406h-4.089a.445.445 0 0 1-.381-.217L174.84 18.363v6.318h-.026V34.97a.405.405 0 0 1-.406.406h-4.019a.407.407 0 0 1-.406-.406V11.077a.407.407 0 0 1 .406-.406h4.397a.442.442 0 0 1 .378.217l11.938 16.685V11.077a.407.407 0 0 1 .406-.406Zm87.004 0h-4.032a.405.405 0 0 0-.406.406v8.67a.598.598 0 0 1-.593.592h-11.108a.584.584 0 0 1-.419-.174.595.595 0 0 1-.173-.418v-8.67a.407.407 0 0 0-.406-.406h-4.032a.4.4 0 0 0-.371.252.41.41 0 0 0-.03.154v23.89a.412.412 0 0 0 .117.287.41.41 0 0 0 .286.12h4.032a.406.406 0 0 0 .406-.407v-9.776a.587.587 0 0 1 .172-.419.591.591 0 0 1 .418-.173h11.121a.587.587 0 0 1 .548.365.59.59 0 0 1 .045.227v9.776a.405.405 0 0 0 .406.406h4.032a.407.407 0 0 0 .406-.406v-23.89a.41.41 0 0 0-.124-.292.401.401 0 0 0-.295-.114Zm3.711.013h19.656a.404.404 0 0 1 .398.406v3.479a.377.377 0 0 1-.111.274.388.388 0 0 1-.274.114h-6.763a.592.592 0 0 0-.592.59l-.07 19.423a.419.419 0 0 1-.419.416h-4.004a.41.41 0 0 1-.408-.406V15.549a.593.593 0 0 0-.593-.592h-6.841a.387.387 0 0 1-.385-.388V11.09a.407.407 0 0 1 .406-.406Zm-113.037 0h-4.053a.406.406 0 0 0-.406.406v23.89c0 .224.182.406.406.406h4.053a.406.406 0 0 0 .406-.406V11.09a.406.406 0 0 0-.406-.406Zm54.232 0h4.053c.224 0 .406.182.406.406v23.89a.406.406 0 0 1-.406.406h-4.053a.406.406 0 0 1-.406-.406V11.09c0-.224.182-.406.406-.406Z" clip-rule="evenodd"/><path fill="#00C9EA" fill-rule="evenodd" d="M328.351 26.856h-4.027a.503.503 0 0 0-.491.417 5.594 5.594 0 0 1-.941 2.24 5.021 5.021 0 0 1-2.07 1.66 7.183 7.183 0 0 1-2.945.574 5.4 5.4 0 0 1-3.342-1.035 6.741 6.741 0 0 1-2.4-3.012 11.687 11.687 0 0 1-.853-4.656c-.036-1.595.26-3.18.869-4.655a6.721 6.721 0 0 1 2.469-3.01 5.66 5.66 0 0 1 3.43-1.048 6.639 6.639 0 0 1 2.757.556c.784.345 1.46.894 1.958 1.59a5.44 5.44 0 0 1 .887 2.106.514.514 0 0 0 .494.414h4.066a.495.495 0 0 0 .375-.171.53.53 0 0 0 .119-.406 8.94 8.94 0 0 0-1.591-4.053 9.113 9.113 0 0 0-3.737-2.987 13.084 13.084 0 0 0-5.323-1.035c-2.421 0-4.554.518-6.342 1.552a10.6 10.6 0 0 0-4.171 4.42c-.98 1.898-1.477 4.159-1.477 6.724 0 2.566.486 4.816 1.441 6.725a10.427 10.427 0 0 0 4.104 4.42c1.761 1.035 3.879 1.552 6.272 1.552a13.373 13.373 0 0 0 5.46-1.081 9.126 9.126 0 0 0 5.501-7.224.516.516 0 0 0-.112-.404.502.502 0 0 0-.38-.178v.005Zm40.717-1.032-.706-1.125-.081-.116a8.94 8.94 0 0 0 .365-.163 8.293 8.293 0 0 0 3.316-2.736 6.465 6.465 0 0 0 1.189-3.743 6.67 6.67 0 0 0-4.057-6.38 10.74 10.74 0 0 0-4.48-.88h-9.771a.42.42 0 0 0-.416.417v23.869a.415.415 0 0 0 .416.416h4.009a.416.416 0 0 0 .416-.416v-8.936a.595.595 0 0 1 .592-.592h3.295a.434.434 0 0 1 .368.2l6.108 9.52a.503.503 0 0 0 .419.224h4.32a.488.488 0 0 0 .258-.088.516.516 0 0 0 .127-.682l-5.687-8.789Zm-9.81-10.58a.592.592 0 0 1 .592-.592h4.73a4.654 4.654 0 0 1 1.984.398c.529.24.973.632 1.275 1.127.306.537.458 1.147.442 1.764a3.235 3.235 0 0 1-2.025 3.104 5.657 5.657 0 0 1-2.299.434h-4.107a.593.593 0 0 1-.592-.592v-5.643Zm-15.656 7.442c0 .063.019.125.055.177l7.992 11.758a.47.47 0 0 1 .018.517.522.522 0 0 1-.46.258h-4.289a.538.538 0 0 1-.442-.222l-3.856-5.853-1.878-2.83a.364.364 0 0 0-.484-.125.364.364 0 0 0-.131.126l-.329.553-1.552 2.27-3.858 5.843a.55.55 0 0 1-.443.228h-4.246a.532.532 0 0 1-.463-.259.464.464 0 0 1 .02-.517l2.569-3.781 5.346-7.875a.315.315 0 0 0 0-.352l-7.648-11.15a.479.479 0 0 1-.021-.517.517.517 0 0 1 .463-.259h4.353a.515.515 0 0 1 .442.228l3.455 5.32 1.896 2.824a.357.357 0 0 0 .308.174.345.345 0 0 0 .305-.169l1.924-2.865 3.451-5.281a.53.53 0 0 1 .442-.228h4.275a.517.517 0 0 1 .531.52.462.462 0 0 1-.089.256l-7.601 11.054a.311.311 0 0 0-.055.177Z" clip-rule="evenodd"/></g><defs><clipPath id="a"><path fill="#fff" d="M0 0h375v40H0z"/></clipPath></defs></svg>