<svg xmlns="http://www.w3.org/2000/svg" width="370" height="40" fill="currentColor" viewBox="0 0 370 40"><g clip-path="url(#a)"><path fill="#00C9EA" d="M20 0a20 20 0 1 0 0 40 20 20 0 0 0 0-40Zm6.01 18.663a7.392 7.392 0 0 0-7.3 7.301v.093a4.723 4.723 0 1 1-4.72-4.72 7.303 7.303 0 0 0 7.3-7.394 4.72 4.72 0 1 1 4.72 4.72Z"/><path fill="#fff" fill-rule="evenodd" d="M72.404 30.47H57.962a1.834 1.834 0 0 1-1.81-1.81V3.906a.406.406 0 0 0-.407-.406h-4.459a.406.406 0 0 0-.406.406v26.2a5.229 5.229 0 0 0 5.222 5.221h16.294a.406.406 0 0 0 .403-.406V30.88a.403.403 0 0 0-.395-.409Zm57.02-24.746h-4.086a.406.406 0 0 0-.406.406v4.087c0 .224.182.406.406.406h4.086a.406.406 0 0 0 .406-.406V6.13a.406.406 0 0 0-.406-.406Zm50.211 19.718a6.484 6.484 0 0 0-1.782-2.069 10.613 10.613 0 0 0-2.498-1.399 18.254 18.254 0 0 0-2.881-.877l-2.452-.569a16.306 16.306 0 0 1-1.573-.432 7.031 7.031 0 0 1-1.396-.628 2.894 2.894 0 0 1-.96-.88 2.088 2.088 0 0 1-.344-1.207c.002-.55.19-1.082.533-1.51.407-.484.935-.85 1.531-1.061a6.722 6.722 0 0 1 2.454-.401c1.35 0 2.463.28 3.301.83a3.045 3.045 0 0 1 1.363 2.012.515.515 0 0 0 .517.399h3.954a.52.52 0 0 0 .518-.355.356.356 0 0 0 .02-.155 6.28 6.28 0 0 0-1.259-3.38 8.158 8.158 0 0 0-3.381-2.543 12.634 12.634 0 0 0-4.983-.92 13.052 13.052 0 0 0-4.995.913 8.435 8.435 0 0 0-3.509 2.57 6.15 6.15 0 0 0-1.293 3.88c0 1.79.651 3.243 1.937 4.324 1.285 1.081 3.008 1.868 5.172 2.385l2.972.711a17.56 17.56 0 0 1 2.426.735 4.3 4.3 0 0 1 1.552.99c.361.391.557.906.548 1.438a2.586 2.586 0 0 1-.631 1.7 4.14 4.14 0 0 1-1.728 1.148 7.57 7.57 0 0 1-2.63.414 7.855 7.855 0 0 1-2.586-.404 4.258 4.258 0 0 1-1.842-1.195 3.305 3.305 0 0 1-.758-1.714.514.514 0 0 0-.517-.42h-4.037a.558.558 0 0 0-.391.16.46.46 0 0 0-.137.366 7.309 7.309 0 0 0 1.371 3.827 8.003 8.003 0 0 0 3.585 2.63c1.714.631 3.53.938 5.356.906 2.11 0 3.939-.31 5.431-.924a7.85 7.85 0 0 0 3.476-2.586 6.44 6.44 0 0 0 1.211-3.861 5.876 5.876 0 0 0-.665-2.848Zm45.946-13.593c-1.792-1.035-3.926-1.552-6.342-1.552-2.415 0-4.554.517-6.359 1.552a10.383 10.383 0 0 0-4.182 4.396c-.965 1.894-1.454 4.139-1.454 6.696 0 2.558.489 4.806 1.454 6.699a10.37 10.37 0 0 0 4.182 4.397c1.81 1.034 3.944 1.552 6.359 1.552 2.416 0 4.55-.518 6.342-1.552a10.413 10.413 0 0 0 4.164-4.397c.965-1.893 1.454-4.138 1.454-6.699 0-2.56-.497-4.797-1.454-6.696a10.439 10.439 0 0 0-4.164-4.396Zm-2.954 18.743a5.564 5.564 0 0 1-3.388 1.034 5.714 5.714 0 0 1-3.439-1.034 6.809 6.809 0 0 1-2.481-3.003 11.337 11.337 0 0 1-.882-4.635 11.46 11.46 0 0 1 .867-4.64 6.67 6.67 0 0 1 2.477-3.002 5.86 5.86 0 0 1 3.492-1.035 5.497 5.497 0 0 1 3.362 1.035 6.89 6.89 0 0 1 2.473 3.002c.615 1.466.916 3.044.882 4.633a11.353 11.353 0 0 1-.882 4.634 6.81 6.81 0 0 1-2.481 3v.01Zm49.368.737h-10.288a.59.59 0 0 1-.59-.592v-5.44a.59.59 0 0 1 .59-.591h9.657a.416.416 0 0 0 .416-.417v-3.145a.416.416 0 0 0-.416-.416h-9.657a.59.59 0 0 1-.59-.603v-4.968a.588.588 0 0 1 .59-.59h10.278a.419.419 0 0 0 .416-.419v-3.134a.417.417 0 0 0-.416-.417h-15.642a.416.416 0 0 0-.417.417V34.88a.42.42 0 0 0 .417.42h15.652a.423.423 0 0 0 .419-.42v-3.135a.419.419 0 0 0-.419-.416ZM244.05 10.597a11.17 11.17 0 0 1 4.792.967 7.262 7.262 0 0 1 3.184 2.799 8.019 8.019 0 0 1 1.115 4.254 7.94 7.94 0 0 1-1.133 4.255 7.443 7.443 0 0 1-3.254 2.813 11.657 11.657 0 0 1-4.945.983h-3.677a.438.438 0 0 0-.44.44v7.772a.42.42 0 0 1-.416.419h-4.384a.42.42 0 0 1-.417-.42V11.014a.42.42 0 0 1 .417-.416h9.158Zm2.17 11.6a3.612 3.612 0 0 0 1.552-1.423c.373-.67.559-1.429.538-2.196a4.228 4.228 0 0 0-.518-2.128 3.513 3.513 0 0 0-1.469-1.384 4.911 4.911 0 0 0-2.273-.5h-3.766a.593.593 0 0 0-.592.59v6.95a.593.593 0 0 0 .592.59h3.541a5.411 5.411 0 0 0 2.395-.5Zm-45.602 4.562h4.016a.5.5 0 0 1 .375.163.52.52 0 0 1 .119.409 9.258 9.258 0 0 1-1.67 4.174 9.367 9.367 0 0 1-3.807 3.034 13.35 13.35 0 0 1-5.447 1.052c-2.393 0-4.498-.517-6.256-1.552a10.406 10.406 0 0 1-4.095-4.396c-.951-1.893-1.435-4.133-1.435-6.696 0-2.563.494-4.806 1.472-6.701a10.566 10.566 0 0 1 4.143-4.397c1.782-1.035 3.91-1.552 6.326-1.552 1.822-.03 3.63.323 5.307 1.035a9.078 9.078 0 0 1 3.737 2.969 8.91 8.91 0 0 1 1.586 4.04.524.524 0 0 1-.119.406.495.495 0 0 1-.375.17h-4.053a.516.516 0 0 1-.489-.398 5.413 5.413 0 0 0-.884-2.1 4.764 4.764 0 0 0-1.953-1.585 6.6 6.6 0 0 0-2.749-.556 5.663 5.663 0 0 0-3.422 1.034 6.721 6.721 0 0 0-2.462 3.003 11.509 11.509 0 0 0-.867 4.65 11.712 11.712 0 0 0 .851 4.635 6.743 6.743 0 0 0 2.393 3.002 5.38 5.38 0 0 0 3.333 1.035 7.17 7.17 0 0 0 2.941-.572 5.024 5.024 0 0 0 2.056-1.658 5.5 5.5 0 0 0 .939-2.234.506.506 0 0 1 .489-.414ZM91.677 13.491h4.086a.406.406 0 0 1 .409.406v21.024a.406.406 0 0 1-.406.407h-3.543a.409.409 0 0 1-.406-.407v-2.555a10.284 10.284 0 0 1-3.22 2.522 9.335 9.335 0 0 1-4.345 1.034c-2.807 0-5.036-.825-6.621-2.46-1.586-1.634-2.39-3.809-2.39-6.465v-13.1a.406.406 0 0 1 .406-.406h4.089a.403.403 0 0 1 .403.406v12.461c0 1.743.443 3.052 1.312 3.913.869.861 2.149 1.293 3.802 1.293a6.02 6.02 0 0 0 3.437-1.034 9.551 9.551 0 0 0 1.996-1.81c.384-.47.591-1.06.585-1.666V13.897a.406.406 0 0 1 .406-.406Zm25.082.546a9.503 9.503 0 0 0-4.71-1.138 9.383 9.383 0 0 0-4.345 1.035 10.32 10.32 0 0 0-3.214 2.516v-2.555a.408.408 0 0 0-.406-.404h-3.593a.404.404 0 0 0-.398.404v21.027a.404.404 0 0 0 .403.406h4.089a.405.405 0 0 0 .406-.407V21.789c.002-.65.239-1.276.668-1.764a10.127 10.127 0 0 1 1.957-1.727 6.014 6.014 0 0 1 3.44-1.035c1.5 0 2.731.448 3.663 1.335.931.887 1.409 2.177 1.409 3.856V34.92a.41.41 0 0 0 .406.406h4.089a.409.409 0 0 0 .404-.406v-13.1a9.462 9.462 0 0 0-1.115-4.616 8.018 8.018 0 0 0-3.153-3.166Zm8.579-.546h4.086c.225 0 .406.182.406.406v21.024a.406.406 0 0 1-.406.407h-4.086a.406.406 0 0 1-.406-.407V13.897c0-.224.182-.406.406-.406Zm24.115 4.306h-6.945a.56.56 0 0 0-.556.564v9.406c0 1.395.264 2.196.913 2.768.008.008.8.73 3.2.73h3.37a.404.404 0 0 1 .406.405v3.79a.413.413 0 0 1-.119.286.413.413 0 0 1-.287.12h-4.837c-2.224 0-4.06-.585-5.431-1.775-1.371-1.19-2.069-3.013-2.069-5.431V18.314a.565.565 0 0 0-.44-.517h-3.059a.41.41 0 0 1-.401-.403v-3.5a.406.406 0 0 1 .401-.406h2.927a.565.565 0 0 0 .564-.538v-2.21c0-.054.01-.107.03-.157a.409.409 0 0 1 .089-.131l4.037-4.06a.409.409 0 0 1 .627.058.406.406 0 0 1 .069.226v6.249a.57.57 0 0 0 .566.566h6.945a.406.406 0 0 1 .406.403v3.497a.41.41 0 0 1-.406.406Z" clip-rule="evenodd"/><path fill="#00C9EA" fill-rule="evenodd" d="M297.975 11.561a11.217 11.217 0 0 0-4.793-.964h-9.158a.416.416 0 0 0-.416.416v23.87a.415.415 0 0 0 .416.416h4.384a.42.42 0 0 0 .416-.417v-7.774a.442.442 0 0 1 .44-.44h3.675c1.701.037 3.39-.298 4.948-.983a7.44 7.44 0 0 0 3.253-2.814 7.931 7.931 0 0 0 1.131-4.254 8.019 8.019 0 0 0-1.113-4.255 7.266 7.266 0 0 0-3.183-2.8Zm-1.084 9.213a3.606 3.606 0 0 1-1.552 1.422 5.41 5.41 0 0 1-2.397.5h-3.531a.593.593 0 0 1-.592-.59v-6.95a.596.596 0 0 1 .592-.592h3.766a4.883 4.883 0 0 1 2.273.502 3.53 3.53 0 0 1 1.469 1.383 4.25 4.25 0 0 1 .518 2.13 4.269 4.269 0 0 1-.546 2.195Zm68.845 14.525a.543.543 0 0 1-.54-.543V16.972l-4.301 2.266a.548.548 0 0 1-.569.046.54.54 0 0 1-.295-.48v-4.038a.547.547 0 0 1 .222-.44l6.078-3.62a.55.55 0 0 1 .321-.104h2.677a.536.536 0 0 1 .501.333.53.53 0 0 1 .042.208V34.76a.547.547 0 0 1-.543.543l-3.593-.005Zm-51.967-24.692c2.646 0 4.979.505 6.937 1.5a10.771 10.771 0 0 1 4.554 4.291c1.058 1.844 1.593 4.02 1.593 6.526 0 2.506-.535 4.72-1.59 6.574a10.757 10.757 0 0 1-4.557 4.309c-1.958.985-4.291 1.502-6.937 1.502h-8.017a.575.575 0 0 1-.572-.571V11.179a.572.572 0 0 1 .572-.572h8.017Zm7.195 16.801a9.573 9.573 0 0 0 .996-4.485l-.002-.01a9.399 9.399 0 0 0-.994-4.433 6.882 6.882 0 0 0-2.845-2.886 8.985 8.985 0 0 0-4.36-1.011h-3.763a.096.096 0 0 0-.096.093v16.552a.1.1 0 0 0 .096.096h3.763a9.01 9.01 0 0 0 4.36-1.011 6.866 6.866 0 0 0 2.845-2.905Zm38.495 3.906h-10.808a.26.26 0 0 1-.259-.26V11.17a.572.572 0 0 0-.571-.572h-3.58a.574.574 0 0 0-.571.572v23.558a.571.571 0 0 0 .571.572h15.21a.574.574 0 0 0 .572-.572v-2.844a.571.571 0 0 0-.564-.57Zm-29.295-10.54h9.427c.283 0 .512.23.512.512v3.212a.512.512 0 0 1-.512.512h-9.427a.512.512 0 0 1-.512-.512v-3.212c0-.283.229-.512.512-.512Z" clip-rule="evenodd"/></g><defs><clipPath id="a"><path fill="#fff" d="M0 0h370v40H0z"/></clipPath></defs></svg>