<svg xmlns="http://www.w3.org/2000/svg" width="389" height="40" fill="currentColor" viewBox="0 0 389 40"><path fill="#00C9EA" d="M20 0C8.954 0 0 8.954 0 20s8.954 20 20 20 20-8.954 20-20S31.046 0 20 0Zm6.01 18.663a7.395 7.395 0 0 0-7.3 7.301h-.003v.093a4.72 4.72 0 1 1-4.72-4.72h.002a7.3 7.3 0 0 0 7.299-7.358v-.036a4.72 4.72 0 1 1 4.72 4.72h.003Z"/><path fill="#000" fill-rule="evenodd" d="M57.962 30.521h14.44c.224 0 .405.184.405.406v4.042a.405.405 0 0 1-.406.407H56.102a5.229 5.229 0 0 1-5.221-5.222v-26.2c0-.225.18-.406.406-.406h4.45c.226 0 .407.181.407.406v24.757a1.834 1.834 0 0 0 1.818 1.81Zm67.374-24.748h4.086c.224 0 .406.181.406.406v4.086a.406.406 0 0 1-.406.406h-4.086a.406.406 0 0 1-.407-.406V6.179c0-.225.182-.406.407-.406Zm188.377 29.313a.56.56 0 0 0 .53.375l-.003.005h5.276c.238 0 .45-.15.531-.375l8.426-23.722a.558.558 0 0 0-.07-.512.56.56 0 0 0-.46-.24h-3.732c-.238 0-.45.15-.531.375l-6.652 18.795c-.031.11-.082.16-.1.16-.013 0-.065-.041-.104-.173l-6.675-18.782a.565.565 0 0 0-.533-.378h-3.802a.562.562 0 0 0-.53.75l8.429 23.722Zm25.597-9.45c0 5.935 4.138 10.081 10.063 10.081l-.005-.003c3.243 0 5.925-1.153 7.968-3.424a.378.378 0 0 0 .099-.282.395.395 0 0 0-.135-.271l-2.245-1.94a.386.386 0 0 0-.517.01c-1.606 1.467-3.13 2.093-5.093 2.093-2.85 0-4.965-1.707-5.521-4.46a.164.164 0 0 1 .036-.142.172.172 0 0 1 .139-.067h13.912a.388.388 0 0 0 .388-.357c.031-.351.054-.667.054-.985 0-5.198-2.989-10.444-9.569-10.444-6.579 0-9.574 5.245-9.574 10.118v.073Zm4.655-1.886c.515-2.863 2.418-4.642 4.966-4.642 2.622 0 4.443 1.738 4.867 4.647a.18.18 0 0 1-.041.137.19.19 0 0 1-.14.062h-9.474a.178.178 0 0 1-.139-.064.17.17 0 0 1-.039-.14Zm34.509 12.04a.568.568 0 0 1-.543-.41l-3.83-13.29a.059.059 0 0 0-.06-.047.058.058 0 0 0-.059.047l-3.828 13.29a.568.568 0 0 1-.543.41h-3.929a.568.568 0 0 1-.543-.41l-5.346-18.556a.567.567 0 0 1 .543-.722h3.352c.251 0 .473.168.543.409l3.748 13.126c.01.04.044.046.059.046a.062.062 0 0 0 .062-.046l3.764-13.126a.567.567 0 0 1 .543-.409h3.37c.248 0 .47.168.54.406l3.887 13.165c.013.041.044.046.06.046.021 0 .049-.007.059-.046l3.732-13.16a.57.57 0 0 1 .544-.408h3.142a.56.56 0 0 1 .45.225.558.558 0 0 1 .093.497l-5.312 18.556a.563.563 0 0 1-.543.409h-3.963l.008-.003ZM95.756 13.54h-4.084a.407.407 0 0 0-.406.405v13.16c0 .623-.207 1.215-.585 1.665a9.552 9.552 0 0 1-1.996 1.803 6.03 6.03 0 0 1-3.44 1.042c-1.653 0-2.93-.434-3.8-1.288-.868-.853-1.31-2.17-1.31-3.913V13.945a.407.407 0 0 0-.407-.406H75.64a.405.405 0 0 0-.406.406v13.1c0 2.656.805 4.831 2.39 6.463 1.586 1.632 3.815 2.46 6.621 2.46 1.57 0 3.034-.344 4.345-1.024 1.296-.67 2.377-1.519 3.218-2.527v2.555c0 .225.18.406.406.406h3.543a.407.407 0 0 0 .406-.406V13.945a.407.407 0 0 0-.406-.406Zm16.291-.593c1.779 0 3.365.383 4.71 1.138h.005a8.016 8.016 0 0 1 3.14 3.163c.739 1.345 1.114 2.9 1.114 4.62v13.099a.405.405 0 0 1-.406.406h-4.089a.407.407 0 0 1-.406-.406V22.5c0-1.679-.473-2.982-1.401-3.867-.932-.884-2.165-1.334-3.665-1.334a6.032 6.032 0 0 0-3.44 1.042 10.043 10.043 0 0 0-1.958 1.728 2.684 2.684 0 0 0-.667 1.764v13.133a.405.405 0 0 1-.406.406h-4.089a.407.407 0 0 1-.406-.406V13.943c0-.225.181-.406.406-.406h3.59c.225 0 .406.183.406.406v2.555c.84-1.006 1.921-1.857 3.217-2.527 1.314-.68 2.775-1.024 4.345-1.024Zm13.289.592h4.089c.225 0 .406.181.406.406V34.97a.405.405 0 0 1-.406.407h-4.089a.406.406 0 0 1-.407-.407V13.943c0-.225.182-.406.407-.406v.002Zm24.109 0h-6.929a.568.568 0 0 1-.566-.566V6.727a.407.407 0 0 0-.696-.285l-4.039 4.06a.412.412 0 0 0-.119.288v2.211a.568.568 0 0 1-.564.538h-2.936a.407.407 0 0 0-.406.406v3.497c0 .225.181.406.406.406h3.057a.57.57 0 0 1 .443.52v10.356c0 2.418.698 4.241 2.071 5.418 1.374 1.18 3.205 1.774 5.439 1.774h4.837a.405.405 0 0 0 .406-.406v-3.797a.405.405 0 0 0-.406-.406h-3.383c-2.398 0-3.192-.721-3.2-.729-.649-.572-.913-1.373-.913-2.767V18.4a.568.568 0 0 1 .551-.56h6.945a.405.405 0 0 0 .406-.407v-3.496a.407.407 0 0 0-.406-.407l.002.008Zm61.306 8.507c.926.37 1.772.843 2.512 1.404l.005.005a6.46 6.46 0 0 1 1.782 2.067c.437.804.659 1.761.659 2.837 0 1.456-.408 2.754-1.21 3.861-.802 1.105-1.971 1.979-3.476 2.594-1.495.613-3.386.924-5.434.924s-3.856-.3-5.367-.893c-1.523-.597-2.728-1.481-3.584-2.63-.784-1.05-1.247-2.34-1.371-3.83a.459.459 0 0 1 .137-.365.546.546 0 0 1 .391-.16l4.037-.008c.261 0 .486.178.522.416.104.683.36 1.262.758 1.715.466.533 1.086.934 1.842 1.198.768.269 1.601.403 2.596.403.996 0 1.88-.142 2.631-.419.739-.274 1.326-.66 1.743-1.148a2.61 2.61 0 0 0 .628-1.7c-.01-.576-.194-1.06-.548-1.437-.367-.391-.892-.725-1.562-.991a17.8 17.8 0 0 0-2.424-.742l-2.971-.711c-2.175-.52-3.919-1.322-5.183-2.385-1.286-1.081-1.937-2.537-1.937-4.324 0-1.464.434-2.768 1.295-3.872.856-1.097 2.038-1.963 3.51-2.57 1.466-.606 3.119-.914 4.994-.914 1.875 0 3.546.308 4.966.913 1.425.608 2.563 1.464 3.38 2.542a6.26 6.26 0 0 1 1.257 3.378.38.38 0 0 1-.018.158.537.537 0 0 1-.512.354l-3.955.008c-.256 0-.473-.166-.519-.396a3.044 3.044 0 0 0-1.363-2.012c-.838-.55-1.948-.83-3.301-.83-.951 0-1.779.134-2.454.398-.667.261-1.182.618-1.531 1.06-.347.44-.525.947-.533 1.511 0 .466.117.872.344 1.208.233.346.556.641.962.882a7.29 7.29 0 0 0 1.397.626c.517.17 1.047.315 1.572.432l2.452.569c.991.212 1.961.506 2.881.874Zm38.464.064h-9.518a.386.386 0 0 0-.385.386v3.582c0 .212.173.385.385.385h5.359c-.095.84-.331 1.604-.701 2.263a5.148 5.148 0 0 1-2.144 2.07c-.926.483-2.032.729-3.295.729-1.391 0-2.627-.342-3.677-1.017-1.05-.675-1.881-1.676-2.47-2.977-.593-1.303-.893-2.627-.893-4.51s.303-3.179.898-4.48c.595-1.298 1.425-2.294 2.465-2.964 1.042-.67 2.245-1.008 3.577-1.008.742 0 1.44.095 2.069.287a5.28 5.28 0 0 1 1.681.843c.489.37.913.822 1.264 1.342.324.481.59 1.027.787 1.624a.271.271 0 0 0 .258.19h4.234a.275.275 0 0 0 .269-.318 9.426 9.426 0 0 0-1.156-3.159 9.677 9.677 0 0 0-2.328-2.666 10.655 10.655 0 0 0-3.227-1.736c-1.203-.406-2.52-.61-3.911-.61-1.645 0-3.189.297-4.591.882a10.536 10.536 0 0 0-3.68 2.568c-1.04 1.117-1.86 2.493-2.436 4.092-.577 1.595-.869 3.14-.869 5.167 0 2.649.496 4.679 1.474 6.605.978 1.93 2.361 3.435 4.11 4.48 1.748 1.045 3.809 1.575 6.127 1.575 2.079 0 3.946-.43 5.552-1.277a9.464 9.464 0 0 0 3.805-3.65c.918-1.575 1.384-3.463 1.384-5.615v-2.661a.417.417 0 0 0-.417-.416v-.006Zm-61.712-11.439h4.05c.225 0 .406.181.406.406v23.887a.405.405 0 0 1-.406.406h-4.089a.447.447 0 0 1-.38-.214L174.838 18.37v6.308h-.029v10.288a.405.405 0 0 1-.406.406h-4.022a.405.405 0 0 1-.406-.406v-23.89c0-.225.181-.406.406-.406h4.402c.155 0 .3.083.38.215l11.939 16.684v-4.55l-.005-2.456v-9.487c0-.225.181-.406.406-.406Zm87.006 0h-4.027a.405.405 0 0 0-.406.406v8.67a.592.592 0 0 1-.592.592h-11.111a.594.594 0 0 1-.592-.592v-8.67a.405.405 0 0 0-.406-.406h-4.032a.405.405 0 0 0-.406.406v23.89c0 .225.181.406.406.406h4.032a.405.405 0 0 0 .406-.406v-9.779c0-.326.266-.592.592-.592h11.108c.329 0 .593.266.593.592v9.779c0 .225.181.406.406.406h4.029a.405.405 0 0 0 .406-.406v-23.89a.405.405 0 0 0-.406-.406Zm3.714.013h19.656l-.002.003c.225 0 .406.18.406.406v3.478a.387.387 0 0 1-.386.386h-6.763a.591.591 0 0 0-.592.59l-.07 19.423c0 .23-.186.416-.416.416h-4.007a.405.405 0 0 1-.406-.406l-.01-19.434a.592.592 0 0 0-.592-.592h-6.839a.386.386 0 0 1-.385-.385V11.09c0-.225.181-.406.406-.406Zm-117.09 0h4.053c.225 0 .406.181.406.406v23.89a.405.405 0 0 1-.406.406h-4.053a.405.405 0 0 1-.406-.406V11.09c0-.225.181-.406.406-.406Zm62.338 0h-4.053a.405.405 0 0 0-.406.406v23.89c0 .225.181.406.406.406h4.053a.405.405 0 0 0 .406-.406V11.09a.405.405 0 0 0-.406-.406Zm108.612-1.293h3.362c.303 0 .549.246.549.548v3.46a.549.549 0 0 1-.549.549h-3.362a.549.549 0 0 1-.548-.548V9.94a.55.55 0 0 1 .548-.55Zm3.368 6.406h-3.355a.549.549 0 0 0-.548.549V34.84c0 .303.246.548.548.548h3.355a.549.549 0 0 0 .548-.548V16.345a.549.549 0 0 0-.548-.548Z" clip-rule="evenodd"/></svg>