<svg xmlns="http://www.w3.org/2000/svg" width="316" height="40" fill="currentColor" viewBox="0 0 316 40"><g clip-path="url(#a)"><path fill="#00C9EA" d="M20 0a20 20 0 1 0 0 40 20 20 0 0 0 0-40Zm6.01 18.663a7.392 7.392 0 0 0-7.3 7.301v.093a4.723 4.723 0 1 1-4.72-4.72 7.303 7.303 0 0 0 7.3-7.394 4.72 4.72 0 1 1 4.72 4.72Z"/><path fill="#000" fill-rule="evenodd" d="M72.404 30.47H57.962a1.834 1.834 0 0 1-1.81-1.81V3.906a.406.406 0 0 0-.407-.406h-4.459a.406.406 0 0 0-.406.406v26.2a5.229 5.229 0 0 0 5.222 5.221h16.294a.406.406 0 0 0 .403-.406V30.88a.403.403 0 0 0-.395-.409Zm57.02-24.746h-4.086a.406.406 0 0 0-.406.406v4.087c0 .224.182.406.406.406h4.086a.406.406 0 0 0 .406-.406V6.13a.406.406 0 0 0-.406-.406ZM271.995 31.33h-10.288a.593.593 0 0 1-.546-.366.606.606 0 0 1-.044-.226v-5.44a.595.595 0 0 1 .59-.592h9.657a.416.416 0 0 0 .416-.416v-3.13a.416.416 0 0 0-.416-.416h-9.657a.59.59 0 0 1-.59-.592V15.16a.59.59 0 0 1 .59-.592h10.278a.416.416 0 0 0 .416-.416v-3.137a.417.417 0 0 0-.416-.417h-15.642a.416.416 0 0 0-.417.417v23.869a.417.417 0 0 0 .417.416h15.652a.417.417 0 0 0 .419-.416v-3.138a.419.419 0 0 0-.419-.416Zm-52.756-21.032c2.416 0 4.55.517 6.342 1.552a10.439 10.439 0 0 1 4.164 4.396c.957 1.899 1.454 4.136 1.454 6.696 0 2.56-.489 4.806-1.454 6.699a10.413 10.413 0 0 1-4.164 4.397c-1.792 1.034-3.926 1.552-6.342 1.552-2.415 0-4.549-.518-6.359-1.552a10.37 10.37 0 0 1-4.182-4.397c-.965-1.893-1.454-4.14-1.454-6.699 0-2.557.489-4.802 1.454-6.696a10.383 10.383 0 0 1 4.182-4.396c1.805-1.035 3.944-1.552 6.359-1.552Zm0 21.33a5.564 5.564 0 0 0 3.388-1.035v-.01a6.81 6.81 0 0 0 2.481-3 11.36 11.36 0 0 0 .882-4.635 11.342 11.342 0 0 0-.882-4.633 6.89 6.89 0 0 0-2.473-3.002 5.497 5.497 0 0 0-3.362-1.035 5.86 5.86 0 0 0-3.492 1.035 6.67 6.67 0 0 0-2.477 3.002 11.46 11.46 0 0 0-.867 4.64c-.034 1.59.266 3.17.882 4.635a6.809 6.809 0 0 0 2.481 3.003 5.714 5.714 0 0 0 3.439 1.034Zm29.603-20.063a11.17 11.17 0 0 0-4.792-.967h-9.158a.42.42 0 0 0-.417.416V34.88a.42.42 0 0 0 .417.419h4.384a.419.419 0 0 0 .416-.42v-7.771a.437.437 0 0 1 .44-.44h3.677a11.657 11.657 0 0 0 4.945-.983 7.443 7.443 0 0 0 3.254-2.813 7.94 7.94 0 0 0 1.133-4.255 8.019 8.019 0 0 0-1.115-4.255 7.262 7.262 0 0 0-3.184-2.798Zm-1.07 9.21a3.612 3.612 0 0 1-1.552 1.422 5.411 5.411 0 0 1-2.395.5h-3.541a.593.593 0 0 1-.592-.59v-6.95a.593.593 0 0 1 .592-.59h3.766a4.911 4.911 0 0 1 2.273.5 3.513 3.513 0 0 1 1.469 1.384c.357.651.535 1.386.518 2.128a4.275 4.275 0 0 1-.538 2.196Zm-69.919 2.6a6.484 6.484 0 0 1 1.782 2.068c.458.878.687 1.858.665 2.848a6.44 6.44 0 0 1-1.211 3.861 7.85 7.85 0 0 1-3.476 2.586c-1.492.613-3.321.924-5.431.924a14.74 14.74 0 0 1-5.356-.905 8.003 8.003 0 0 1-3.585-2.63 7.309 7.309 0 0 1-1.371-3.828.446.446 0 0 1 .137-.365.558.558 0 0 1 .391-.16h4.037a.515.515 0 0 1 .517.419c.082.632.345 1.228.758 1.714a4.258 4.258 0 0 0 1.842 1.195 7.855 7.855 0 0 0 2.586.404 7.57 7.57 0 0 0 2.63-.414 4.14 4.14 0 0 0 1.728-1.149 2.586 2.586 0 0 0 .631-1.699 2.068 2.068 0 0 0-.548-1.438 4.3 4.3 0 0 0-1.552-.99 17.56 17.56 0 0 0-2.426-.735l-2.972-.711c-2.164-.517-3.887-1.304-5.172-2.385-1.286-1.08-1.937-2.534-1.937-4.324a6.15 6.15 0 0 1 1.293-3.88 8.435 8.435 0 0 1 3.509-2.57 13.052 13.052 0 0 1 4.995-.913c1.706-.033 3.401.28 4.983.92a8.158 8.158 0 0 1 3.381 2.543 6.28 6.28 0 0 1 1.259 3.38.356.356 0 0 1-.02.155.522.522 0 0 1-.518.355h-3.954a.52.52 0 0 1-.517-.399 3.045 3.045 0 0 0-1.363-2.012c-.838-.55-1.951-.83-3.301-.83a6.722 6.722 0 0 0-2.454.4 3.551 3.551 0 0 0-1.531 1.061 2.433 2.433 0 0 0-.533 1.51c-.012.429.108.85.344 1.209.249.362.577.662.96.879.441.26.909.47 1.396.628.517.17 1.042.315 1.573.432l2.452.57c.982.211 1.946.505 2.881.876.892.351 1.732.822 2.498 1.4Zm26.781 3.385h-4.016a.5.5 0 0 0-.489.414 5.505 5.505 0 0 1-.939 2.234 5.024 5.024 0 0 1-2.056 1.658 7.17 7.17 0 0 1-2.941.572 5.38 5.38 0 0 1-3.333-1.035 6.743 6.743 0 0 1-2.393-3.002 11.712 11.712 0 0 1-.851-4.635 11.509 11.509 0 0 1 .867-4.65 6.721 6.721 0 0 1 2.462-3.003 5.663 5.663 0 0 1 3.422-1.034 6.6 6.6 0 0 1 2.749.556 4.764 4.764 0 0 1 1.953 1.585c.44.63.742 1.345.884 2.1a.52.52 0 0 0 .489.398h4.053a.494.494 0 0 0 .478-.36.524.524 0 0 0 .016-.216 8.91 8.91 0 0 0-1.586-4.04 9.078 9.078 0 0 0-3.737-2.97 13.046 13.046 0 0 0-5.307-1.034c-2.416 0-4.544.517-6.326 1.552a10.566 10.566 0 0 0-4.143 4.397c-.978 1.895-1.472 4.138-1.472 6.7 0 2.564.484 4.804 1.435 6.697a10.406 10.406 0 0 0 4.095 4.396c1.758 1.035 3.863 1.552 6.256 1.552a13.35 13.35 0 0 0 5.447-1.052 9.367 9.367 0 0 0 3.807-3.034 9.258 9.258 0 0 0 1.67-4.174.514.514 0 0 0-.119-.409.496.496 0 0 0-.375-.163ZM91.677 13.491h4.086a.406.406 0 0 1 .409.406v21.024a.406.406 0 0 1-.406.407h-3.543a.409.409 0 0 1-.406-.407v-2.555a10.284 10.284 0 0 1-3.22 2.522 9.335 9.335 0 0 1-4.345 1.034c-2.807 0-5.036-.825-6.621-2.46-1.586-1.634-2.39-3.809-2.39-6.465v-13.1a.406.406 0 0 1 .406-.406h4.089a.403.403 0 0 1 .403.406v12.461c0 1.743.443 3.052 1.312 3.913.869.861 2.149 1.293 3.802 1.293a6.02 6.02 0 0 0 3.437-1.034 9.551 9.551 0 0 0 1.996-1.81c.384-.47.591-1.06.585-1.666V13.897a.406.406 0 0 1 .406-.406Zm25.082.546a9.503 9.503 0 0 0-4.71-1.138 9.383 9.383 0 0 0-4.345 1.035 10.32 10.32 0 0 0-3.214 2.516v-2.555a.408.408 0 0 0-.406-.404h-3.593a.404.404 0 0 0-.398.404v21.027a.404.404 0 0 0 .403.406h4.089a.405.405 0 0 0 .406-.407V21.789c.002-.65.239-1.276.668-1.764a10.127 10.127 0 0 1 1.957-1.727 6.014 6.014 0 0 1 3.44-1.035c1.5 0 2.731.448 3.663 1.335.931.887 1.409 2.177 1.409 3.856V34.92a.41.41 0 0 0 .406.406h4.089a.409.409 0 0 0 .404-.406v-13.1a9.462 9.462 0 0 0-1.115-4.616 8.018 8.018 0 0 0-3.153-3.166Zm8.579-.546h4.086c.225 0 .406.182.406.406v21.024a.406.406 0 0 1-.406.407h-4.086a.406.406 0 0 1-.406-.407V13.897c0-.224.182-.406.406-.406Zm24.115 4.306h-6.945a.56.56 0 0 0-.556.564v9.406c0 1.395.264 2.196.913 2.768.008.008.8.73 3.2.73h3.37a.404.404 0 0 1 .406.405v3.79a.413.413 0 0 1-.119.286.413.413 0 0 1-.287.12h-4.837c-2.224 0-4.06-.585-5.431-1.775-1.371-1.19-2.069-3.013-2.069-5.431V18.314a.565.565 0 0 0-.44-.517h-3.059a.41.41 0 0 1-.401-.403v-3.5a.406.406 0 0 1 .401-.406h2.927a.565.565 0 0 0 .564-.538v-2.21c0-.054.01-.107.03-.157a.409.409 0 0 1 .089-.131l4.037-4.06a.409.409 0 0 1 .627.058.406.406 0 0 1 .069.226v6.249a.57.57 0 0 0 .566.566h6.945a.406.406 0 0 1 .406.403v3.497a.41.41 0 0 1-.406.406Z" clip-rule="evenodd"/><path fill="#00C9EA" fill-rule="evenodd" d="M303.985 10.297c2.416 0 4.55.517 6.342 1.552a10.43 10.43 0 0 1 4.172 4.396c.957 1.899 1.445 4.136 1.445 6.696 0 2.56-.488 4.806-1.453 6.699a10.413 10.413 0 0 1-4.164 4.397c-1.792 1.034-3.926 1.552-6.342 1.552-2.415 0-4.549-.518-6.359-1.552a10.372 10.372 0 0 1-4.183-4.397c-.962-1.893-1.45-4.14-1.45-6.699 0-2.557.488-4.802 1.45-6.696a10.391 10.391 0 0 1 4.183-4.396c1.805-1.035 3.944-1.552 6.359-1.552Zm0 21.33a5.559 5.559 0 0 0 3.388-1.035v-.01a6.802 6.802 0 0 0 2.47-3c.618-1.466.92-3.046.885-4.635a11.292 11.292 0 0 0-.885-4.633 6.87 6.87 0 0 0-2.457-3.005 5.492 5.492 0 0 0-3.362-1.034 5.859 5.859 0 0 0-3.491 1.034 6.68 6.68 0 0 0-2.483 3.005 11.528 11.528 0 0 0-.867 4.64c-.035 1.59.266 3.17.885 4.635a6.804 6.804 0 0 0 2.478 3.003 5.719 5.719 0 0 0 3.439 1.034Zm-19.976-21.03h4.052c.225 0 .406.182.406.406v23.89a.406.406 0 0 1-.406.406h-4.052a.406.406 0 0 1-.406-.406v-23.89c0-.224.181-.406.406-.406Z" clip-rule="evenodd"/></g><defs><clipPath id="a"><path fill="#fff" d="M0 0h316v40H0z"/></clipPath></defs></svg>