<svg xmlns="http://www.w3.org/2000/svg" width="390" height="40" fill="currentColor" viewBox="0 0 390 40"><g clip-path="url(#a)"><path fill="#00C9EA" d="M20 0a20 20 0 1 0 0 40 20 20 0 0 0 0-40Zm6.01 18.663a7.391 7.391 0 0 0-7.3 7.301v.093a4.72 4.72 0 1 1-4.72-4.72 7.303 7.303 0 0 0 7.3-7.358v-.036a4.72 4.72 0 1 1 4.72 4.72Z"/><path fill="#fff" fill-rule="evenodd" d="M72.401 30.519H57.96a1.834 1.834 0 0 1-1.81-1.81V3.953a.406.406 0 0 0-.407-.406h-4.459a.406.406 0 0 0-.406.406v26.2a5.23 5.23 0 0 0 5.222 5.222h16.294a.409.409 0 0 0 .406-.406v-4.043a.406.406 0 0 0-.398-.408Zm57.021-24.746h-4.087a.406.406 0 0 0-.406.406v4.086c0 .224.182.406.406.406h4.087a.406.406 0 0 0 .406-.406V6.18a.406.406 0 0 0-.406-.406Zm220.308 4.36h-1.526a.248.248 0 0 0-.248.249v1.57c0 .136.111.248.248.248h1.526a.248.248 0 0 0 .248-.249v-1.57a.248.248 0 0 0-.248-.248Zm0 2.907h-1.521a.248.248 0 0 0-.248.249v8.387c0 .137.111.248.248.248h1.521a.248.248 0 0 0 .248-.248v-8.387a.248.248 0 0 0-.248-.249Zm34.772 8.9c.026.01.055.016.084.015h1.595a.218.218 0 0 0 .218-.217v-3.662c.131-1.762 1.06-2.845 2.547-2.977.104-.013.207-.013.316-.013a.188.188 0 0 0 .111-.041.153.153 0 0 0 .046-.124v-1.855a.22.22 0 0 0-.017-.084.227.227 0 0 0-.121-.117.218.218 0 0 0-.084-.016h-.241c-1.127.09-2.007.76-2.557 1.94v-1.552a.216.216 0 0 0-.218-.217h-1.595a.216.216 0 0 0-.156.062.242.242 0 0 0-.048.071.218.218 0 0 0-.016.084v8.501a.218.218 0 0 0 .064.154c.021.02.045.037.072.047Zm-28.529.243c-2.718 0-4.692-1.945-4.692-4.625 0-2.679 1.92-4.676 4.467-4.676 3.029 0 4.397 2.408 4.397 4.793 0 .135 0 .259-.021.411a.218.218 0 0 1-.217.202h-6.357a.08.08 0 0 0-.036.008.088.088 0 0 0-.046.056.092.092 0 0 0-.001.037 2.46 2.46 0 0 0 2.535 2.048 3.212 3.212 0 0 0 2.309-.936.22.22 0 0 1 .29 0l.967.838a.22.22 0 0 1 .021.31 4.708 4.708 0 0 1-3.616 1.534Zm-.209-7.5c-1.172 0-2.046.817-2.282 2.133l-.001.012c0 .008 0 .016.003.024a.076.076 0 0 0 .017.032c.008.01.018.017.03.022a.085.085 0 0 0 .037.009h4.345a.09.09 0 0 0 .064-.029.078.078 0 0 0 .017-.031.086.086 0 0 0 .002-.036c-.192-1.33-1.048-2.15-2.232-2.15v.013Zm18.223 2.875c0 2.68 1.973 4.625 4.691 4.625a4.706 4.706 0 0 0 3.634-1.539.195.195 0 0 0 .044-.073c.01-.027.013-.056.01-.085a.21.21 0 0 0-.075-.153l-.967-.837a.22.22 0 0 0-.289.005 3.218 3.218 0 0 1-2.31.936 2.463 2.463 0 0 1-2.535-2.048.092.092 0 0 1 .018-.07.158.158 0 0 1 .009-.01l.008-.006.013-.008a.092.092 0 0 1 .022-.006h.004l.003-.001a.09.09 0 0 1 .009 0h6.336a.22.22 0 0 0 .149-.058.214.214 0 0 0 .068-.144c.021-.152.021-.277.021-.411 0-2.385-1.368-4.793-4.397-4.793-2.545 0-4.466 1.997-4.466 4.676Zm2.17-.742c.235-1.316 1.109-2.133 2.278-2.133v-.013c1.206 0 2.041.799 2.235 2.149l.001.014a.057.057 0 0 1-.004.022.067.067 0 0 1-.018.031.086.086 0 0 1-.064.029h-4.345a.082.082 0 0 1-.037-.008.074.074 0 0 1-.028-.023.076.076 0 0 1-.017-.032l-.001-.005-.001-.006-.001-.01.001-.007.001-.008Zm-35.997 5.077a.223.223 0 0 1-.209-.147l-3.825-10.764a.231.231 0 0 1-.011-.105.23.23 0 0 1 .118-.167.215.215 0 0 1 .102-.026h1.725a.224.224 0 0 1 .212.15l3.029 8.535c.018.062.046.1.077.1.032 0 .063-.038.078-.098l3.018-8.534a.224.224 0 0 1 .21-.148h1.694a.224.224 0 0 1 .181.096.207.207 0 0 1 .028.202l-3.825 10.764a.216.216 0 0 1-.081.107.217.217 0 0 1-.128.04l-2.393-.005Zm28.838.017a.225.225 0 0 0 .134.045l1.824.01a.222.222 0 0 0 .214-.163l2.431-8.488a.236.236 0 0 0 .005-.102.217.217 0 0 0-.121-.16.224.224 0 0 0-.101-.022h-1.435a.225.225 0 0 0-.217.163l-1.707 6.018a.063.063 0 0 1-.06.044.063.063 0 0 1-.05-.024.066.066 0 0 1-.009-.02l-1.78-6.02a.223.223 0 0 0-.214-.16h-1.552a.228.228 0 0 0-.136.043.22.22 0 0 0-.081.116l-1.72 5.995a.067.067 0 0 1-.022.033.066.066 0 0 1-.006.003l-.007.004a.06.06 0 0 1-.025.004.06.06 0 0 1-.038-.011.069.069 0 0 1-.017-.017.082.082 0 0 1-.007-.016l-1.715-6.002a.225.225 0 0 0-.079-.118.226.226 0 0 0-.135-.045h-1.534a.228.228 0 0 0-.181.088.239.239 0 0 0-.041.095.242.242 0 0 0 .005.104l2.446 8.485a.228.228 0 0 0 .215.163h1.798a.226.226 0 0 0 .214-.163l1.751-6.078a.064.064 0 0 1 .022-.033.062.062 0 0 1 .076 0 .06.06 0 0 1 .024.034l1.751 6.077a.22.22 0 0 0 .08.117ZM91.675 13.54h4.086a.405.405 0 0 1 .409.405V34.97a.406.406 0 0 1-.407.406H92.22a.409.409 0 0 1-.406-.406v-2.556a10.3 10.3 0 0 1-3.217 2.522 9.352 9.352 0 0 1-4.348 1.035c-2.806 0-5.035-.825-6.62-2.46-1.586-1.635-2.39-3.81-2.39-6.466v-13.1a.406.406 0 0 1 .406-.406h4.089a.404.404 0 0 1 .403.406v12.461c0 1.744.442 3.052 1.311 3.913.87.862 2.15 1.294 3.802 1.294a6.034 6.034 0 0 0 3.44-1.035 9.601 9.601 0 0 0 1.994-1.81c.384-.47.591-1.06.585-1.666V13.945a.406.406 0 0 1 .406-.406Zm25.082.545a9.503 9.503 0 0 0-4.71-1.138 9.383 9.383 0 0 0-4.345 1.035 10.335 10.335 0 0 0-3.215 2.516v-2.555a.404.404 0 0 0-.406-.403h-3.59a.403.403 0 0 0-.4.403V34.97a.405.405 0 0 0 .406.406h4.086a.405.405 0 0 0 .406-.406V21.836a2.69 2.69 0 0 1 .667-1.764 10.163 10.163 0 0 1 1.958-1.727 6.014 6.014 0 0 1 3.44-1.035c1.5 0 2.731.448 3.662 1.335s1.41 2.177 1.41 3.856v12.466a.405.405 0 0 0 .406.406h4.089a.409.409 0 0 0 .406-.406v-13.1a9.474 9.474 0 0 0-1.117-4.616 8.01 8.01 0 0 0-3.153-3.166Zm8.578-.546h4.087c.224 0 .406.182.406.406V34.97a.406.406 0 0 1-.406.406h-4.087a.406.406 0 0 1-.406-.406V13.945c0-.224.182-.406.406-.406Zm17.171 0h6.939a.407.407 0 0 1 .411.404v3.497a.405.405 0 0 1-.406.406h-6.944a.564.564 0 0 0-.556.563v9.407c0 1.394.264 2.196.913 2.767.008.008.799.73 3.199.73h3.37a.41.41 0 0 1 .287.119.396.396 0 0 1 .119.287v3.789a.396.396 0 0 1-.119.287.398.398 0 0 1-.287.119h-4.836c-2.227 0-4.061-.585-5.431-1.775-1.371-1.19-2.07-3.013-2.07-5.43V18.362a.559.559 0 0 0-.439-.517h-3.06a.409.409 0 0 1-.401-.404v-3.5a.406.406 0 0 1 .401-.405h2.928a.566.566 0 0 0 .564-.538v-2.212a.392.392 0 0 1 .119-.287l4.04-4.06a.394.394 0 0 1 .44-.091.403.403 0 0 1 .253.375v6.249a.566.566 0 0 0 .566.566Zm70.757 9.911a10.617 10.617 0 0 0-2.512-1.404 18.19 18.19 0 0 0-2.881-.877l-2.452-.569a16.288 16.288 0 0 1-1.572-.427 7.18 7.18 0 0 1-1.397-.626 2.96 2.96 0 0 1-.959-.881 2.104 2.104 0 0 1-.344-1.208c.002-.55.19-1.082.533-1.51a3.55 3.55 0 0 1 1.531-1.061 6.773 6.773 0 0 1 2.454-.404c1.35 0 2.462.28 3.3.828a3.044 3.044 0 0 1 1.363 2.017.52.52 0 0 0 .517.396h3.955a.536.536 0 0 0 .517-.354.384.384 0 0 0 .021-.158 6.307 6.307 0 0 0-1.257-3.38 8.2 8.2 0 0 0-3.383-2.543 12.637 12.637 0 0 0-4.966-.913 13.053 13.053 0 0 0-4.994.913 8.45 8.45 0 0 0-3.509 2.571 6.158 6.158 0 0 0-1.294 3.88c0 1.79.652 3.243 1.938 4.327 1.285 1.083 3.007 1.864 5.172 2.384l2.972.711c.825.188 1.635.436 2.423.743a4.299 4.299 0 0 1 1.552.99c.361.392.558.908.548 1.44a2.585 2.585 0 0 1-.631 1.697 4.133 4.133 0 0 1-1.74 1.151 7.633 7.633 0 0 1-2.633.417 7.931 7.931 0 0 1-2.587-.401A4.28 4.28 0 0 1 201.107 30a3.296 3.296 0 0 1-.758-1.714.516.516 0 0 0-.517-.416h-4.037a.554.554 0 0 0-.391.157.465.465 0 0 0-.137.365 7.309 7.309 0 0 0 1.371 3.83 7.992 7.992 0 0 0 3.584 2.628c1.718.627 3.538.93 5.367.892 2.111 0 3.939-.31 5.431-.923a7.85 7.85 0 0 0 3.476-2.587 6.44 6.44 0 0 0 1.203-3.88 5.863 5.863 0 0 0-.662-2.844 6.473 6.473 0 0 0-1.774-2.059Zm26.434-1.34h9.518a.416.416 0 0 1 .419.417v2.664c0 2.152-.465 4.042-1.384 5.615a9.444 9.444 0 0 1-3.801 3.652 11.8 11.8 0 0 1-5.553 1.275c-2.318 0-4.379-.538-6.127-1.573a10.796 10.796 0 0 1-4.131-4.474c-.977-1.927-1.474-3.957-1.474-6.606a14.38 14.38 0 0 1 .869-5.172 11.883 11.883 0 0 1 2.436-4.092 10.558 10.558 0 0 1 3.681-2.566 11.81 11.81 0 0 1 4.588-.884c1.328-.01 2.649.197 3.91.61a10.63 10.63 0 0 1 3.231 1.736 9.736 9.736 0 0 1 2.327 2.669 9.37 9.37 0 0 1 1.157 3.158.257.257 0 0 1-.005.117.255.255 0 0 1-.055.103.262.262 0 0 1-.209.098h-4.234a.26.26 0 0 1-.259-.189 6.652 6.652 0 0 0-.776-1.622 5.656 5.656 0 0 0-1.264-1.345 5.273 5.273 0 0 0-1.682-.843 7.148 7.148 0 0 0-2.069-.287 6.502 6.502 0 0 0-3.577 1.012 6.772 6.772 0 0 0-2.464 2.964 10.1 10.1 0 0 0-.89 4.479c0 1.88.3 3.217.89 4.51a6.769 6.769 0 0 0 2.472 2.983 6.69 6.69 0 0 0 3.675 1.019 7.02 7.02 0 0 0 3.295-.732 5.152 5.152 0 0 0 2.142-2.07c.384-.7.623-1.47.703-2.265h-5.359a.384.384 0 0 1-.385-.385V22.5a.381.381 0 0 1 .111-.276.388.388 0 0 1 .274-.115Zm-48.144-11.439h-4.045a.405.405 0 0 0-.406.406v16.496l-11.938-16.685a.443.443 0 0 0-.378-.217h-4.397a.407.407 0 0 0-.406.406V34.97a.407.407 0 0 0 .406.406h4.019a.405.405 0 0 0 .406-.406V24.68h.026v-6.318l12.246 16.785a.45.45 0 0 0 .381.217h4.089a.405.405 0 0 0 .403-.406V11.077a.407.407 0 0 0-.406-.406Zm78.927 0h4.032a.404.404 0 0 1 .387.248.41.41 0 0 1 .032.158v23.89a.407.407 0 0 1-.406.406h-4.032a.405.405 0 0 1-.406-.406v-9.776a.59.59 0 0 0-.593-.592h-11.121a.592.592 0 0 0-.59.592v9.776a.413.413 0 0 1-.118.287.412.412 0 0 1-.288.12h-4.032a.403.403 0 0 1-.403-.407v-23.89a.41.41 0 0 1 .116-.286.402.402 0 0 1 .285-.12h4.032a.405.405 0 0 1 .406.406v8.67a.588.588 0 0 0 .366.547.58.58 0 0 0 .226.045h11.108a.593.593 0 0 0 .593-.592v-8.67a.405.405 0 0 1 .406-.406Zm27.399.013h-19.656a.405.405 0 0 0-.406.406v3.479a.389.389 0 0 0 .385.388h6.841a.593.593 0 0 1 .593.592V34.98a.407.407 0 0 0 .408.406h4.004a.419.419 0 0 0 .419-.416l.07-19.424a.589.589 0 0 1 .592-.59h6.763a.385.385 0 0 0 .385-.387V11.09a.404.404 0 0 0-.398-.406Zm-136.746 0h4.053c.224 0 .406.182.406.406v23.89a.406.406 0 0 1-.406.406h-4.053a.406.406 0 0 1-.406-.406V11.09c0-.224.182-.406.406-.406Zm62.338 0h-4.053a.406.406 0 0 0-.406.406v23.89c0 .224.182.406.406.406h4.053a.406.406 0 0 0 .406-.406V11.09a.406.406 0 0 0-.406-.406Zm82.552 11.151c.179.074.371.113.564.113h5.768a.21.21 0 0 0 .209-.21v-1.33a.21.21 0 0 0-.209-.209h-4.457a.692.692 0 0 1-.69-.693v-8.643a.21.21 0 0 0-.212-.213h-1.673a.213.213 0 0 0-.21.213v9.61a1.475 1.475 0 0 0 .91 1.362Zm11.318.374a4.913 4.913 0 0 1-2.395-.559 3.767 3.767 0 0 1-1.552-1.611 5.378 5.378 0 0 1-.543-2.493 5.38 5.38 0 0 1 .543-2.491 3.763 3.763 0 0 1 1.552-1.614 5.415 5.415 0 0 1 4.79 0c.669.368 1.211.93 1.552 1.614.377.775.563 1.629.543 2.49a5.417 5.417 0 0 1-.543 2.494 3.78 3.78 0 0 1-1.552 1.611 4.913 4.913 0 0 1-2.395.559Zm0-7.69a2.485 2.485 0 0 0-1.352.365c-.389.255-.693.62-.872 1.048a4.419 4.419 0 0 0 0 3.227c.182.424.485.784.872 1.035.406.25.875.377 1.352.365.474.012.941-.114 1.342-.365.384-.253.685-.613.867-1.035a4.46 4.46 0 0 0 0-3.227 2.375 2.375 0 0 0-.867-1.048 2.437 2.437 0 0 0-1.342-.364Zm12.565-1.484h1.533a.26.26 0 0 1 .238.162.258.258 0 0 1 .018.1v7.562a4.503 4.503 0 0 1-.535 2.245 3.536 3.536 0 0 1-1.552 1.432 5.41 5.41 0 0 1-2.379.492 6.034 6.034 0 0 1-2.113-.339 3.228 3.228 0 0 1-1.425-1.035 2.586 2.586 0 0 1-.533-1.344.273.273 0 0 1 .065-.207.255.255 0 0 1 .194-.086h1.603a.258.258 0 0 1 .259.194 1.184 1.184 0 0 0 .584.748c.451.24.958.356 1.469.333a2.381 2.381 0 0 0 1.71-.587 2.153 2.153 0 0 0 .605-1.619v-.745a3.107 3.107 0 0 1-1.084.825 3.718 3.718 0 0 1-1.614.36 4.108 4.108 0 0 1-2.1-.517 3.538 3.538 0 0 1-1.388-1.506 5.029 5.029 0 0 1-.487-2.276 5.02 5.02 0 0 1 .502-2.304 3.638 3.638 0 0 1 1.43-1.518 4.25 4.25 0 0 1 2.155-.535 3.514 3.514 0 0 1 1.57.367c.386.19.731.453 1.016.776v-.72a.257.257 0 0 1 .259-.259Zm-.262 5.196v-2.03a2.646 2.646 0 0 0-.499-.905 2.307 2.307 0 0 0-.789-.595 2.499 2.499 0 0 0-2.239.124c-.36.228-.647.554-.825.941a3.281 3.281 0 0 0-.295 1.44 3.335 3.335 0 0 0 .295 1.46c.178.386.465.713.825.94.379.229.816.344 1.259.332a2.303 2.303 0 0 0 1.769-.802c.224-.266.394-.573.499-.905Z" clip-rule="evenodd"/></g><defs><clipPath id="a"><path fill="#fff" d="M0 0h390v40H0z"/></clipPath></defs></svg>