<svg xmlns="http://www.w3.org/2000/svg" width="161" height="40" fill="currentColor" viewBox="0 0 161 40"><g clip-path="url(#a)"><path fill="#00C9EA" d="M20 0a20 20 0 1 0 0 40 20 20 0 0 0 0-40Zm6.01 18.663a7.391 7.391 0 0 0-7.3 7.301v.093a4.72 4.72 0 1 1-4.72-4.72 7.303 7.303 0 0 0 7.3-7.358v-.036a4.72 4.72 0 1 1 4.72 4.72Z"/><path fill="#fff" fill-rule="evenodd" d="M72.401 30.519H57.96a1.834 1.834 0 0 1-1.81-1.81V3.954a.406.406 0 0 0-.406-.407h-4.459a.406.406 0 0 0-.406.407v26.199a5.23 5.23 0 0 0 5.222 5.222h16.294a.409.409 0 0 0 .406-.406v-4.043a.406.406 0 0 0-.399-.408Zm52.934-24.746h4.087c.224 0 .406.181.406.406v4.086a.406.406 0 0 1-.406.406h-4.087a.406.406 0 0 1-.406-.406V6.18c0-.225.182-.406.406-.406Zm-33.66 7.766h4.086a.406.406 0 0 1 .408.406V34.97a.406.406 0 0 1-.406.406H92.22a.409.409 0 0 1-.406-.406v-2.556a10.3 10.3 0 0 1-3.217 2.522 9.352 9.352 0 0 1-4.348 1.035c-2.806 0-5.036-.825-6.621-2.46-1.585-1.635-2.39-3.81-2.39-6.466v-13.1a.406.406 0 0 1 .406-.406h4.09a.402.402 0 0 1 .403.406v12.461c0 1.744.442 3.052 1.311 3.913.869.862 2.15 1.294 3.802 1.294a6.034 6.034 0 0 0 3.44-1.035 9.602 9.602 0 0 0 1.994-1.81c.384-.47.59-1.06.584-1.666V13.945a.406.406 0 0 1 .406-.406Zm25.082.546a9.506 9.506 0 0 0-4.71-1.138 9.379 9.379 0 0 0-4.345 1.035 10.309 10.309 0 0 0-3.215 2.516v-2.555a.408.408 0 0 0-.406-.404h-3.59a.403.403 0 0 0-.401.404V34.97a.407.407 0 0 0 .406.406h4.087a.407.407 0 0 0 .406-.406V21.836a2.69 2.69 0 0 1 .667-1.764 10.133 10.133 0 0 1 1.958-1.727 6.008 6.008 0 0 1 3.44-1.035c1.5 0 2.731.448 3.662 1.335s1.41 2.178 1.41 3.856v12.466a.405.405 0 0 0 .406.406h4.089a.409.409 0 0 0 .406-.406v-13.1a9.463 9.463 0 0 0-1.118-4.616 8 8 0 0 0-3.152-3.166Zm8.578-.546h4.087c.224 0 .406.182.406.406V34.97a.406.406 0 0 1-.406.406h-4.087a.406.406 0 0 1-.406-.406V13.946c0-.225.182-.407.406-.407Zm17.171 0h6.939a.402.402 0 0 1 .289.117.397.397 0 0 1 .122.287v3.497a.41.41 0 0 1-.406.406h-6.944a.565.565 0 0 0-.556.564v9.406c0 1.394.264 2.196.913 2.767.007.008.799.73 3.199.73h3.37a.404.404 0 0 1 .406.406v3.789a.396.396 0 0 1-.119.287.402.402 0 0 1-.287.119h-4.836c-2.227 0-4.061-.585-5.432-1.775-1.37-1.19-2.069-3.013-2.069-5.43V18.362a.564.564 0 0 0-.439-.517h-3.06a.409.409 0 0 1-.401-.404v-3.5a.406.406 0 0 1 .401-.405h2.928a.566.566 0 0 0 .563-.538v-2.211a.397.397 0 0 1 .119-.287l4.04-4.061a.398.398 0 0 1 .441-.091.403.403 0 0 1 .252.375v6.249a.571.571 0 0 0 .567.566Zm18.104-4.67a4.215 4.215 0 0 0-2.235-2.235 4.253 4.253 0 0 0-3.253 0 4.215 4.215 0 0 0-2.235 2.235 4.231 4.231 0 0 0 0 3.256 4.215 4.215 0 0 0 2.235 2.234 4.254 4.254 0 0 0 3.253 0 4.223 4.223 0 0 0 1.33-.91c.382-.38.689-.83.905-1.324a4.262 4.262 0 0 0 0-3.256Zm-1.228 3.16a3.091 3.091 0 0 1-1.1 1.102 3.05 3.05 0 0 1-3.064 0 3.117 3.117 0 0 1-1.102-1.102 3.06 3.06 0 0 1 0-3.062 3.08 3.08 0 0 1 1.102-1.102 3.056 3.056 0 0 1 4.169 1.102 3.064 3.064 0 0 1 0 3.065l-.005-.003Zm-.911-2.154c.007.242-.059.482-.188.688-.108.163-.253.3-.422.398l.737 1.453h-1.019l-.603-1.275h-.69v1.275h-.929V8.59h1.86c.21 0 .417.048.605.14.191.093.353.237.468.416.125.223.188.475.181.73Zm-1.422.512a.498.498 0 0 0 .336-.135h-.005a.51.51 0 0 0 .145-.396.453.453 0 0 0-.153-.393.538.538 0 0 0-.323-.11h-.776v1.034h.776Z" clip-rule="evenodd"/></g><defs><clipPath id="a"><path fill="#fff" d="M0 0h161v40H0z"/></clipPath></defs></svg>