<svg xmlns="http://www.w3.org/2000/svg" width="486" height="40" fill="currentColor" viewBox="0 0 486 40"><g clip-path="url(#a)"><path fill="#00C9EA" d="M20 0a20 20 0 1 0 0 40 20 20 0 0 0 0-40Zm6.01 18.663a7.391 7.391 0 0 0-7.3 7.301v.093a4.72 4.72 0 1 1-4.72-4.72 7.303 7.303 0 0 0 7.3-7.358v-.036a4.72 4.72 0 1 1 4.72 4.72Z"/><path fill="#fff" fill-rule="evenodd" d="M57.96 30.518H72.4a.406.406 0 0 1 .399.41v4.042a.409.409 0 0 1-.406.406H56.1a5.229 5.229 0 0 1-5.222-5.222v-26.2a.406.406 0 0 1 .406-.406h4.459a.406.406 0 0 1 .406.406v24.754a1.834 1.834 0 0 0 1.81 1.81Zm71.462-24.745h-4.087a.406.406 0 0 0-.406.406v4.086c0 .224.182.406.406.406h4.087a.406.406 0 0 0 .406-.406V6.18a.406.406 0 0 0-.406-.406Zm-33.66 7.766h-4.087a.406.406 0 0 0-.406.406v13.157c.006.607-.2 1.196-.585 1.666a9.604 9.604 0 0 1-1.994 1.81 6.034 6.034 0 0 1-3.44 1.035c-1.652 0-2.933-.432-3.802-1.294-.868-.86-1.31-2.17-1.31-3.913v-12.46a.405.405 0 0 0-.404-.407h-4.09a.406.406 0 0 0-.405.406v13.1c0 2.656.804 4.831 2.39 6.466 1.585 1.634 3.814 2.46 6.62 2.46a9.352 9.352 0 0 0 4.348-1.035 10.302 10.302 0 0 0 3.218-2.522v2.556a.409.409 0 0 0 .406.406h3.543a.406.406 0 0 0 .406-.406V13.945a.406.406 0 0 0-.409-.406Zm16.285-.592a9.503 9.503 0 0 1 4.71 1.138 8.01 8.01 0 0 1 3.153 3.166 9.474 9.474 0 0 1 1.117 4.616v13.1a.41.41 0 0 1-.406.406h-4.089a.41.41 0 0 1-.406-.406V22.501c0-1.679-.479-2.97-1.41-3.856-.931-.887-2.162-1.335-3.662-1.335a6.014 6.014 0 0 0-3.44 1.035 10.163 10.163 0 0 0-1.958 1.727 2.688 2.688 0 0 0-.667 1.764V34.97a.407.407 0 0 1-.406.406h-4.086a.405.405 0 0 1-.406-.406V13.943a.403.403 0 0 1 .4-.404h3.59a.404.404 0 0 1 .406.404v2.555a10.335 10.335 0 0 1 3.215-2.516 9.383 9.383 0 0 1 4.345-1.035Zm17.375.592h-4.087a.406.406 0 0 0-.406.406V34.97c0 .224.182.406.406.406h4.087a.406.406 0 0 0 .406-.406V13.945a.406.406 0 0 0-.406-.406Zm20.023 0h-6.939a.57.57 0 0 1-.566-.566V6.724a.399.399 0 0 0-.032-.156.395.395 0 0 0-.221-.22.402.402 0 0 0-.44.092l-4.04 4.06a.393.393 0 0 0-.119.287V13a.57.57 0 0 1-.564.538h-2.928a.406.406 0 0 0-.401.406v3.5a.41.41 0 0 0 .401.403h3.06a.563.563 0 0 1 .439.517v10.345c0 2.418.699 4.242 2.07 5.431 1.37 1.19 3.204 1.775 5.431 1.775h4.836a.41.41 0 0 0 .287-.12.395.395 0 0 0 .119-.286v-3.79a.396.396 0 0 0-.119-.287.398.398 0 0 0-.287-.119h-3.37c-2.4 0-3.191-.721-3.199-.729-.649-.571-.913-1.373-.913-2.767V18.41a.564.564 0 0 1 .556-.563h6.944a.41.41 0 0 0 .406-.407v-3.496a.398.398 0 0 0-.121-.287.409.409 0 0 0-.29-.116Zm61.306 8.507c.897.352 1.742.824 2.512 1.404a6.473 6.473 0 0 1 1.774 2.059c.457.877.685 1.856.662 2.845a6.44 6.44 0 0 1-1.203 3.88 7.85 7.85 0 0 1-3.476 2.586c-1.492.613-3.32.923-5.431.923a14.742 14.742 0 0 1-5.367-.892 7.992 7.992 0 0 1-3.584-2.628 7.309 7.309 0 0 1-1.371-3.83.459.459 0 0 1 .137-.365.554.554 0 0 1 .391-.158h4.037a.516.516 0 0 1 .517.417c.081.633.345 1.228.758 1.714a4.28 4.28 0 0 0 1.841 1.198 7.931 7.931 0 0 0 2.587.4 7.633 7.633 0 0 0 2.633-.416 4.133 4.133 0 0 0 1.74-1.15 2.585 2.585 0 0 0 .631-1.697 2.07 2.07 0 0 0-.548-1.44 4.299 4.299 0 0 0-1.552-.991 17.175 17.175 0 0 0-2.423-.743l-2.972-.71c-2.165-.52-3.887-1.302-5.172-2.386-1.286-1.083-1.938-2.537-1.938-4.326a6.158 6.158 0 0 1 1.294-3.88 8.45 8.45 0 0 1 3.509-2.57 13.053 13.053 0 0 1 4.994-.914c1.7-.032 3.389.278 4.966.913a8.2 8.2 0 0 1 3.383 2.543 6.307 6.307 0 0 1 1.257 3.38.384.384 0 0 1-.021.158.533.533 0 0 1-.517.354h-3.955a.515.515 0 0 1-.517-.396 3.033 3.033 0 0 0-1.363-2.017c-.838-.548-1.95-.828-3.3-.828a6.773 6.773 0 0 0-2.454.404 3.55 3.55 0 0 0-1.531 1.06c-.343.43-.531.962-.533 1.51-.011.429.109.85.344 1.209.25.361.578.662.959.881.442.258.91.468 1.397.626.517.169 1.041.311 1.572.427l2.452.569a18.19 18.19 0 0 1 2.881.877Zm38.464.064h-9.518a.38.38 0 0 0-.274.115.383.383 0 0 0-.111.276v3.585a.387.387 0 0 0 .385.385h5.359a5.952 5.952 0 0 1-.703 2.266 5.172 5.172 0 0 1-2.142 2.069 7.02 7.02 0 0 1-3.295.732 6.69 6.69 0 0 1-3.675-1.02 6.769 6.769 0 0 1-2.472-2.981c-.59-1.294-.89-2.63-.89-4.511a10.1 10.1 0 0 1 .89-4.48 6.772 6.772 0 0 1 2.464-2.963 6.502 6.502 0 0 1 3.577-1.012 7.24 7.24 0 0 1 2.069.287 5.271 5.271 0 0 1 1.682.844c.492.375.919.83 1.264 1.344.331.504.592 1.05.776 1.622a.26.26 0 0 0 .259.189h4.234a.257.257 0 0 0 .209-.098.255.255 0 0 0 .055-.103.257.257 0 0 0 .005-.117 9.369 9.369 0 0 0-1.157-3.158 9.737 9.737 0 0 0-2.327-2.67 10.576 10.576 0 0 0-3.231-1.732 12.202 12.202 0 0 0-3.91-.613 11.811 11.811 0 0 0-4.588.885 10.558 10.558 0 0 0-3.681 2.565 11.883 11.883 0 0 0-2.436 4.092 14.385 14.385 0 0 0-.869 5.172c0 2.649.497 4.679 1.474 6.606a10.796 10.796 0 0 0 4.131 4.474c1.748 1.035 3.809 1.573 6.127 1.573a11.775 11.775 0 0 0 5.553-1.278 9.436 9.436 0 0 0 3.801-3.65c.919-1.572 1.384-3.462 1.384-5.614v-2.664a.418.418 0 0 0-.419-.417Zm-61.707-11.439h4.045a.405.405 0 0 1 .406.406V34.96a.404.404 0 0 1-.403.406h-4.089a.445.445 0 0 1-.381-.217L174.84 18.363v6.318h-.026V34.97a.405.405 0 0 1-.406.406h-4.019a.407.407 0 0 1-.406-.406V11.077a.407.407 0 0 1 .406-.406h4.397a.442.442 0 0 1 .378.217l11.938 16.685V11.077a.407.407 0 0 1 .406-.406Zm87.004 0h-4.032a.405.405 0 0 0-.406.406v8.67a.598.598 0 0 1-.593.592h-11.108a.584.584 0 0 1-.419-.174.595.595 0 0 1-.173-.418v-8.67a.407.407 0 0 0-.406-.406h-4.032a.398.398 0 0 0-.285.12.405.405 0 0 0-.116.286v23.89a.412.412 0 0 0 .117.287.41.41 0 0 0 .286.12h4.032a.406.406 0 0 0 .406-.407v-9.776a.587.587 0 0 1 .172-.419.591.591 0 0 1 .418-.173h11.121a.587.587 0 0 1 .548.365.59.59 0 0 1 .045.227v9.776a.403.403 0 0 0 .406.406h4.032a.407.407 0 0 0 .406-.406v-23.89a.41.41 0 0 0-.124-.292.401.401 0 0 0-.295-.114Zm3.711.013h19.656a.404.404 0 0 1 .398.406v3.479a.377.377 0 0 1-.111.274.388.388 0 0 1-.274.114h-6.763a.592.592 0 0 0-.592.59l-.07 19.423a.419.419 0 0 1-.419.416h-4.004a.41.41 0 0 1-.408-.406V15.549a.593.593 0 0 0-.593-.592h-6.841a.387.387 0 0 1-.385-.388V11.09a.407.407 0 0 1 .406-.406Zm-113.037 0h-4.053a.406.406 0 0 0-.406.406v23.89c0 .224.182.406.406.406h4.053a.406.406 0 0 0 .406-.406V11.09a.406.406 0 0 0-.406-.406Zm54.232 0h4.053c.224 0 .406.182.406.406v23.89a.406.406 0 0 1-.406.406h-4.053a.406.406 0 0 1-.406-.406V11.09c0-.224.182-.406.406-.406Z" clip-rule="evenodd"/><path fill="#00C9EA" fill-rule="evenodd" d="M328.351 26.856h-4.027a.503.503 0 0 0-.491.417 5.594 5.594 0 0 1-.941 2.24 5.021 5.021 0 0 1-2.07 1.66 7.183 7.183 0 0 1-2.945.574 5.4 5.4 0 0 1-3.342-1.035 6.741 6.741 0 0 1-2.4-3.012 11.687 11.687 0 0 1-.853-4.656c-.036-1.595.26-3.18.869-4.655a6.721 6.721 0 0 1 2.469-3.01 5.66 5.66 0 0 1 3.43-1.048 6.639 6.639 0 0 1 2.757.556c.783.345 1.46.894 1.958 1.59a5.44 5.44 0 0 1 .887 2.106.514.514 0 0 0 .494.414h4.066a.495.495 0 0 0 .375-.171.53.53 0 0 0 .119-.406 8.94 8.94 0 0 0-1.591-4.053 9.113 9.113 0 0 0-3.737-2.987 13.084 13.084 0 0 0-5.323-1.035c-2.421 0-4.554.518-6.342 1.552a10.6 10.6 0 0 0-4.171 4.42c-.98 1.898-1.477 4.159-1.477 6.724 0 2.566.486 4.816 1.441 6.725a10.427 10.427 0 0 0 4.104 4.42c1.761 1.035 3.879 1.552 6.272 1.552a13.373 13.373 0 0 0 5.46-1.081 9.126 9.126 0 0 0 5.501-7.224.516.516 0 0 0-.112-.404.502.502 0 0 0-.38-.178v.005Zm40.717-1.032-.706-1.125-.081-.116c.135-.057.256-.111.365-.163a8.294 8.294 0 0 0 3.316-2.736 6.465 6.465 0 0 0 1.189-3.743 6.67 6.67 0 0 0-4.057-6.38 10.742 10.742 0 0 0-4.48-.88h-9.771a.42.42 0 0 0-.416.417v23.869a.415.415 0 0 0 .416.416h4.009a.416.416 0 0 0 .416-.416v-8.936a.596.596 0 0 1 .592-.592h3.295a.433.433 0 0 1 .368.2l6.108 9.52a.504.504 0 0 0 .419.224h4.32a.488.488 0 0 0 .258-.088.516.516 0 0 0 .127-.682l-5.687-8.789Zm-9.81-10.58a.591.591 0 0 1 .592-.592h4.73a4.654 4.654 0 0 1 1.984.398c.529.24.973.632 1.275 1.127.306.537.458 1.147.442 1.764a3.235 3.235 0 0 1-2.025 3.104 5.66 5.66 0 0 1-2.299.434h-4.107a.593.593 0 0 1-.592-.592v-5.643Zm-15.656 7.442a.31.31 0 0 0 .055.177l7.992 11.757a.47.47 0 0 1 .018.518.522.522 0 0 1-.46.258h-4.289a.537.537 0 0 1-.442-.222l-3.856-5.853-1.878-2.83a.363.363 0 0 0-.484-.125.363.363 0 0 0-.131.126l-.329.553-1.552 2.27-3.858 5.843a.55.55 0 0 1-.443.228h-4.246a.533.533 0 0 1-.463-.259.464.464 0 0 1 .02-.517l2.569-3.781 5.346-7.875a.315.315 0 0 0 0-.352l-7.648-11.15a.479.479 0 0 1-.021-.517.517.517 0 0 1 .463-.259h4.353a.515.515 0 0 1 .442.228l3.455 5.32 1.896 2.824a.357.357 0 0 0 .308.174.345.345 0 0 0 .305-.169l1.924-2.865 3.451-5.281a.528.528 0 0 1 .442-.228h4.275a.516.516 0 0 1 .463.258.464.464 0 0 1-.021.518l-7.601 11.054a.311.311 0 0 0-.055.177Zm43.611-2.562h-4.681a.259.259 0 0 1-.259-.258v-2.488a.261.261 0 0 1 .259-.26h4.397a.187.187 0 0 0 .188-.188v-1.44a.186.186 0 0 0-.055-.134.187.187 0 0 0-.133-.055h-4.397a.26.26 0 0 1-.259-.259v-2.276a.261.261 0 0 1 .259-.259h4.676c.05 0 .098-.02.133-.055a.187.187 0 0 0 .056-.133V10.88a.19.19 0 0 0-.056-.134.187.187 0 0 0-.133-.055h-7.118a.187.187 0 0 0-.188.189v10.862c0 .025.004.05.014.072a.176.176 0 0 0 .041.062.19.19 0 0 0 .133.055h7.123a.187.187 0 0 0 .134-.055.208.208 0 0 0 .041-.062.198.198 0 0 0 .014-.072v-1.43a.19.19 0 0 0-.055-.134.191.191 0 0 0-.134-.055Zm27.982.135a2.52 2.52 0 0 0 1.551-.474h-.01a3.099 3.099 0 0 0 1.13-1.368 5.133 5.133 0 0 0 .401-2.108 5.167 5.167 0 0 0-.401-2.108 3.136 3.136 0 0 0-1.122-1.365 2.492 2.492 0 0 0-1.534-.476 2.67 2.67 0 0 0-1.588.476 3.049 3.049 0 0 0-1.127 1.365 5.25 5.25 0 0 0-.394 2.108 5.15 5.15 0 0 0 .401 2.108 3.105 3.105 0 0 0 1.128 1.368 2.604 2.604 0 0 0 1.565.474Zm-.003-9.71a6.3 6.3 0 0 1 2.889.702 4.743 4.743 0 0 1 1.893 2.007c.459.948.686 1.993.662 3.046a6.685 6.685 0 0 1-.659 3.05 4.754 4.754 0 0 1-1.896 2.004 6.287 6.287 0 0 1-5.778 0 4.72 4.72 0 0 1-1.903-2.005 6.659 6.659 0 0 1-.662-3.049 6.648 6.648 0 0 1 .662-3.046 4.74 4.74 0 0 1 1.903-2.007 6.302 6.302 0 0 1 2.889-.701Zm-8.788 4.772a1.67 1.67 0 0 1-.706.647 2.435 2.435 0 0 1-1.092.227h-1.603a.257.257 0 0 1-.259-.258v-3.17a.257.257 0 0 1 .259-.26h1.714a2.25 2.25 0 0 1 1.035.228c.278.142.51.36.667.631a2.12 2.12 0 0 1-.015 1.966v-.01Zm.494-4.18a5.105 5.105 0 0 0-2.181-.439h-4.166a.192.192 0 0 0-.192.189v10.862a.192.192 0 0 0 .192.189h1.994c.05 0 .098-.02.133-.055a.187.187 0 0 0 .056-.134v-3.55a.199.199 0 0 1 .199-.2h1.673a5.329 5.329 0 0 0 2.25-.447 3.393 3.393 0 0 0 1.482-1.28 3.618 3.618 0 0 0 .517-1.937 3.638 3.638 0 0 0-.517-1.935 3.316 3.316 0 0 0-1.448-1.272l.008.01Zm17.378 1.442a.257.257 0 0 0-.076.183l.011 2.589a.26.26 0 0 0 .075.183.26.26 0 0 0 .183.076h1.87c.355.005.707-.062 1.035-.197.278-.115.515-.31.682-.561.162-.253.245-.548.241-.848a1.552 1.552 0 0 0-.202-.802 1.324 1.324 0 0 0-.582-.518 2.127 2.127 0 0 0-.902-.18h-2.152a.257.257 0 0 0-.183.075Zm4.067 4.487.321.517 2.563 4.001a.232.232 0 0 1-.057.31.22.22 0 0 1-.124.042h-1.963a.225.225 0 0 1-.108-.028.226.226 0 0 1-.083-.076l-2.778-4.33a.2.2 0 0 0-.168-.09h-1.5a.259.259 0 0 0-.259.259v4.068a.19.19 0 0 1-.188.189h-1.811a.187.187 0 0 1-.174-.117.18.18 0 0 1-.015-.072V10.881a.2.2 0 0 1 .014-.073.175.175 0 0 1 .041-.062.179.179 0 0 1 .134-.054h4.449a4.89 4.89 0 0 1 2.038.398 3.028 3.028 0 0 1 1.846 2.902 2.947 2.947 0 0 1-.54 1.704 3.77 3.77 0 0 1-1.508 1.244l-.168.075.038.055Zm-33.125-.838a.15.15 0 0 1 0-.16l3.461-5.028a.222.222 0 0 0 .033-.118.222.222 0 0 0-.033-.118.243.243 0 0 0-.213-.116h-1.944a.24.24 0 0 0-.202.103l-1.56 2.395-.877 1.293a.148.148 0 0 1-.057.058.168.168 0 0 1-.222-.06l-.861-1.293-1.573-2.419a.234.234 0 0 0-.201-.103h-1.987a.243.243 0 0 0-.209.116.223.223 0 0 0 0 .236l3.479 5.072a.143.143 0 0 1 0 .16l-2.429 3.58-1.169 1.72a.21.21 0 0 0 0 .232.238.238 0 0 0 .209.116h1.93a.26.26 0 0 0 .202-.103l1.756-2.659.708-1.034.15-.259a.165.165 0 0 1 .219-.055.165.165 0 0 1 .061.058l.853 1.293 1.748 2.656a.262.262 0 0 0 .202.1h1.95a.238.238 0 0 0 .245-.232.218.218 0 0 0-.035-.116l-3.634-5.315Zm45.601-5.54h.011l-.019-.001a.193.193 0 0 0-.022-.002l.022.002h.008Zm0 0h-8.951a.175.175 0 0 0-.175.173v1.593a.175.175 0 0 0 .175.176h3.104a.259.259 0 0 1 .259.259v8.837a.188.188 0 0 0 .189.189h1.81c.05 0 .098-.02.133-.055a.187.187 0 0 0 .056-.134l.033-8.837a.261.261 0 0 1 .259-.259h3.078a.174.174 0 0 0 .162-.108.173.173 0 0 0 .014-.068v-1.595a.177.177 0 0 0-.146-.171Zm10.457 9.093a2.52 2.52 0 0 1-1.552.474 2.603 2.603 0 0 1-1.564-.474 3.105 3.105 0 0 1-1.128-1.368 5.137 5.137 0 0 1-.401-2.105 5.245 5.245 0 0 1 .393-2.11 3.051 3.051 0 0 1 1.128-1.366 2.667 2.667 0 0 1 1.588-.476 2.502 2.502 0 0 1 1.534.476c.498.338.887.813 1.12 1.368a5.1 5.1 0 0 1 .403 2.108 5.104 5.104 0 0 1-.403 2.105 3.105 3.105 0 0 1-1.128 1.368h.01Zm1.335-8.534a6.312 6.312 0 0 0-5.781 0 4.735 4.735 0 0 0-1.901 2.007 6.659 6.659 0 0 0-.662 3.049 6.66 6.66 0 0 0 .662 3.046 4.735 4.735 0 0 0 1.901 2.007 6.304 6.304 0 0 0 5.781 0 4.754 4.754 0 0 0 1.896-2.004 6.7 6.7 0 0 0 .659-3.047 6.659 6.659 0 0 0-.662-3.049 4.75 4.75 0 0 0-1.893-2.007v-.002Zm18.839 8.868h4.797c.039 0 .075.015.103.042a.145.145 0 0 1 .042.103v1.52a.145.145 0 0 1-.145.145h-5.728a1.958 1.958 0 0 1-1.807-1.207 1.96 1.96 0 0 1-.149-.748v-9.137c0-.038.015-.075.042-.102a.144.144 0 0 1 .1-.043h1.909a.15.15 0 0 1 .103.042.146.146 0 0 1 .042.103v8.594a.693.693 0 0 0 .691.688Zm-4.971-9.427h-1.86a.175.175 0 0 0-.176.173v7.516l-5.431-7.594a.203.203 0 0 0-.173-.095h-2.012a.175.175 0 0 0-.174.173v10.888c0 .023.004.046.013.068a.166.166 0 0 0 .094.095.172.172 0 0 0 .067.013h1.81a.204.204 0 0 0 .189-.124.207.207 0 0 0 .015-.077v-7.534l5.571 7.637a.199.199 0 0 0 .174.098h1.867a.172.172 0 0 0 .163-.108.175.175 0 0 0 .013-.068v-10.89a.18.18 0 0 0-.052-.123.17.17 0 0 0-.124-.05l.026.002Zm16.878 0h1.86a.192.192 0 0 1 .164.095.197.197 0 0 1 .025.095.207.207 0 0 1-.026.094l-3.833 6.761v4.004c0 .05-.02.098-.056.133a.187.187 0 0 1-.133.055h-1.831a.192.192 0 0 1-.192-.188v-4.004l-3.833-6.76a.187.187 0 0 1 0-.191.19.19 0 0 1 .166-.094h1.857a.192.192 0 0 1 .168.095l2.692 4.783h.112l2.695-4.783a.183.183 0 0 1 .069-.07.194.194 0 0 1 .096-.025Z" clip-rule="evenodd"/></g><defs><clipPath id="a"><path fill="#fff" d="M0 0h486v40H0z"/></clipPath></defs></svg>