<svg xmlns="http://www.w3.org/2000/svg" width="420" height="40" fill="currentColor" viewBox="0 0 420 40"><g clip-path="url(#a)"><path fill="#00C9EA" d="M20 0a20 20 0 1 0 0 40 20 20 0 0 0 0-40Zm6.01 18.663a7.391 7.391 0 0 0-7.3 7.301v.093a4.72 4.72 0 1 1-4.72-4.72 7.303 7.303 0 0 0 7.3-7.358v-.036a4.72 4.72 0 1 1 4.72 4.72Z"/><path fill="#fff" fill-rule="evenodd" d="M57.96 30.519H72.4a.406.406 0 0 1 .399.408v4.043a.409.409 0 0 1-.406.406H56.1a5.23 5.23 0 0 1-5.222-5.222v-26.2a.406.406 0 0 1 .406-.406h4.459a.406.406 0 0 1 .406.407v24.753a1.834 1.834 0 0 0 1.81 1.81Zm71.462-24.746h-4.087a.406.406 0 0 0-.406.406v4.086c0 .224.182.406.406.406h4.087a.406.406 0 0 0 .406-.406V6.18a.406.406 0 0 0-.406-.406Zm-33.661 7.766h-4.086a.406.406 0 0 0-.406.406v13.157c.006.607-.2 1.196-.585 1.666a9.601 9.601 0 0 1-1.994 1.81 6.034 6.034 0 0 1-3.44 1.035c-1.653 0-2.933-.432-3.802-1.294-.869-.86-1.311-2.17-1.311-3.913v-12.46a.4.4 0 0 0-.249-.376.402.402 0 0 0-.154-.03h-4.09a.406.406 0 0 0-.406.405v13.1c0 2.656.805 4.831 2.39 6.466 1.586 1.634 3.815 2.46 6.621 2.46a9.352 9.352 0 0 0 4.348-1.035 10.302 10.302 0 0 0 3.217-2.522v2.556a.409.409 0 0 0 .406.406h3.543a.406.406 0 0 0 .407-.406V13.946a.405.405 0 0 0-.409-.407Zm16.286-.592a9.503 9.503 0 0 1 4.71 1.138 8.01 8.01 0 0 1 3.153 3.166 9.473 9.473 0 0 1 1.117 4.616v13.1a.41.41 0 0 1-.406.406h-4.089a.41.41 0 0 1-.406-.406V22.501c0-1.678-.479-2.97-1.41-3.856-.931-.887-2.162-1.335-3.662-1.335a6.013 6.013 0 0 0-3.44 1.035 10.163 10.163 0 0 0-1.958 1.727 2.688 2.688 0 0 0-.667 1.764V34.97a.407.407 0 0 1-.406.406h-4.086a.405.405 0 0 1-.406-.406V13.943a.404.404 0 0 1 .4-.404h3.59a.404.404 0 0 1 .406.404v2.555a10.332 10.332 0 0 1 3.215-2.516 9.382 9.382 0 0 1 4.345-1.035Zm17.375.592h-4.087a.406.406 0 0 0-.406.406V34.97c0 .224.182.406.406.406h4.087a.406.406 0 0 0 .406-.406V13.945a.406.406 0 0 0-.406-.406Zm20.023 0h-6.939a.57.57 0 0 1-.566-.566V6.724a.399.399 0 0 0-.032-.156.395.395 0 0 0-.221-.22.402.402 0 0 0-.44.092l-4.04 4.06a.392.392 0 0 0-.119.288v2.21a.57.57 0 0 1-.564.539h-2.928a.406.406 0 0 0-.401.406v3.5a.411.411 0 0 0 .401.403h3.06a.563.563 0 0 1 .439.517v10.345c0 2.418.699 4.242 2.07 5.431 1.37 1.19 3.204 1.775 5.431 1.775h4.836a.41.41 0 0 0 .287-.12.396.396 0 0 0 .119-.286v-3.79a.396.396 0 0 0-.119-.287.398.398 0 0 0-.287-.118h-3.37c-2.4 0-3.191-.722-3.199-.73-.649-.571-.913-1.373-.913-2.767v-9.407a.564.564 0 0 1 .556-.563h6.944a.41.41 0 0 0 .406-.406v-3.497a.397.397 0 0 0-.121-.287.407.407 0 0 0-.29-.116Zm61.306 8.507a10.62 10.62 0 0 1 2.512 1.404 6.474 6.474 0 0 1 1.774 2.059c.457.877.685 1.856.662 2.845a6.44 6.44 0 0 1-1.203 3.88 7.848 7.848 0 0 1-3.476 2.586c-1.492.613-3.32.923-5.431.923a14.745 14.745 0 0 1-5.367-.892 7.993 7.993 0 0 1-3.584-2.628 7.31 7.31 0 0 1-1.371-3.83.459.459 0 0 1 .137-.365.554.554 0 0 1 .391-.158h4.037a.516.516 0 0 1 .517.417c.081.633.345 1.228.758 1.714a4.279 4.279 0 0 0 1.841 1.198 7.931 7.931 0 0 0 2.587.4 7.638 7.638 0 0 0 2.633-.416 4.135 4.135 0 0 0 1.74-1.15 2.585 2.585 0 0 0 .631-1.697 2.069 2.069 0 0 0-.548-1.44 4.3 4.3 0 0 0-1.552-.991 17.201 17.201 0 0 0-2.423-.743l-2.972-.71c-2.165-.52-3.887-1.302-5.172-2.386-1.286-1.083-1.938-2.537-1.938-4.326a6.158 6.158 0 0 1 1.294-3.88 8.45 8.45 0 0 1 3.509-2.57 13.053 13.053 0 0 1 4.994-.914c1.7-.032 3.389.278 4.966.913a8.2 8.2 0 0 1 3.383 2.543 6.306 6.306 0 0 1 1.257 3.38.385.385 0 0 1-.021.158.534.534 0 0 1-.517.354h-3.955a.516.516 0 0 1-.517-.396 3.034 3.034 0 0 0-1.363-2.017c-.838-.548-1.95-.828-3.3-.828a6.777 6.777 0 0 0-2.454.404 3.55 3.55 0 0 0-1.531 1.06 2.433 2.433 0 0 0-.533 1.51c-.011.429.109.85.344 1.209.25.361.578.662.959.881.442.258.91.468 1.397.626.517.169 1.041.311 1.572.427l2.452.57a18.18 18.18 0 0 1 2.881.876Zm38.464.064h-9.518a.38.38 0 0 0-.274.115.383.383 0 0 0-.111.276v3.585a.387.387 0 0 0 .385.385h5.359a5.952 5.952 0 0 1-.703 2.266 5.172 5.172 0 0 1-2.142 2.069 7.02 7.02 0 0 1-3.295.732 6.69 6.69 0 0 1-3.675-1.02 6.769 6.769 0 0 1-2.472-2.981c-.59-1.294-.89-2.63-.89-4.511a10.1 10.1 0 0 1 .89-4.48 6.772 6.772 0 0 1 2.464-2.963 6.502 6.502 0 0 1 3.577-1.012 7.24 7.24 0 0 1 2.069.287 5.271 5.271 0 0 1 1.682.844c.492.375.919.83 1.264 1.344.331.504.592 1.05.776 1.622a.26.26 0 0 0 .259.189h4.234a.257.257 0 0 0 .209-.098.255.255 0 0 0 .055-.103.257.257 0 0 0 .005-.117 9.369 9.369 0 0 0-1.157-3.158 9.737 9.737 0 0 0-2.327-2.67 10.576 10.576 0 0 0-3.231-1.732 12.202 12.202 0 0 0-3.91-.613 11.811 11.811 0 0 0-4.588.885 10.558 10.558 0 0 0-3.681 2.565 11.883 11.883 0 0 0-2.436 4.092 14.385 14.385 0 0 0-.869 5.172c0 2.649.497 4.679 1.474 6.606a10.796 10.796 0 0 0 4.131 4.474c1.748 1.035 3.809 1.573 6.127 1.573a11.775 11.775 0 0 0 5.553-1.278 9.436 9.436 0 0 0 3.801-3.65c.919-1.572 1.384-3.462 1.384-5.614v-2.664a.418.418 0 0 0-.419-.417Zm-61.707-11.439h4.045a.405.405 0 0 1 .406.406V34.96a.404.404 0 0 1-.403.406h-4.089a.445.445 0 0 1-.381-.217L174.84 18.363v6.318h-.026V34.97a.403.403 0 0 1-.406.406h-4.019a.407.407 0 0 1-.406-.406V11.077a.407.407 0 0 1 .406-.406h4.397a.441.441 0 0 1 .378.217l11.938 16.685V11.077a.407.407 0 0 1 .406-.406Zm87.004 0h-4.032a.405.405 0 0 0-.406.406v8.67a.598.598 0 0 1-.593.592h-11.108a.584.584 0 0 1-.419-.174.595.595 0 0 1-.173-.418v-8.67a.407.407 0 0 0-.406-.406h-4.032a.398.398 0 0 0-.285.12.405.405 0 0 0-.116.286v23.89a.412.412 0 0 0 .117.287.41.41 0 0 0 .286.12h4.032a.406.406 0 0 0 .406-.407v-9.776a.587.587 0 0 1 .172-.419.591.591 0 0 1 .418-.173h11.121a.587.587 0 0 1 .548.365.59.59 0 0 1 .045.227v9.776a.403.403 0 0 0 .406.406h4.032a.407.407 0 0 0 .406-.406v-23.89a.41.41 0 0 0-.124-.292.401.401 0 0 0-.295-.114Zm3.711.013h19.656a.403.403 0 0 1 .398.406v3.479a.376.376 0 0 1-.111.274.388.388 0 0 1-.274.114h-6.763a.592.592 0 0 0-.592.59l-.07 19.423a.419.419 0 0 1-.419.416h-4.004a.41.41 0 0 1-.408-.406V15.549a.593.593 0 0 0-.593-.592h-6.841a.387.387 0 0 1-.385-.388V11.09a.407.407 0 0 1 .406-.406Zm-113.037 0h-4.053a.406.406 0 0 0-.406.406v23.89c0 .224.182.406.406.406h4.053a.406.406 0 0 0 .406-.406V11.09a.406.406 0 0 0-.406-.406Zm54.232 0h4.053c.224 0 .406.182.406.406v23.89a.406.406 0 0 1-.406.406h-4.053a.406.406 0 0 1-.406-.406V11.09c0-.224.182-.406.406-.406Z" clip-rule="evenodd"/><path fill="#00C9EA" fill-rule="evenodd" d="M407.72 10.133h1.526c.137 0 .248.111.248.249v1.57a.248.248 0 0 1-.248.248h-1.526a.248.248 0 0 1-.248-.249v-1.57c0-.137.111-.248.248-.248Zm.005 2.907h1.521c.137 0 .248.111.248.249v8.387a.248.248 0 0 1-.248.248h-1.521a.248.248 0 0 1-.248-.248v-8.387c0-.138.111-.249.248-.249Zm-35.704-2.356h-19.656a.405.405 0 0 0-.406.406v3.479a.386.386 0 0 0 .385.388h6.839a.59.59 0 0 1 .594.592v19.43a.407.407 0 0 0 .406.407h4.007a.416.416 0 0 0 .416-.416l.073-19.424a.589.589 0 0 1 .592-.59h6.763a.388.388 0 0 0 .385-.388V11.09a.404.404 0 0 0-.398-.406Zm7.192 11.177a.204.204 0 0 0 .135.06h4.542a5.333 5.333 0 0 0 2.103-.385 3.102 3.102 0 0 0 1.388-1.112 3.001 3.001 0 0 0 .484-1.694 2.842 2.842 0 0 0-.259-1.18 2.615 2.615 0 0 0-.719-.936 2.884 2.884 0 0 0-.819-.473.07.07 0 0 1-.05-.067c0-.015.004-.03.012-.044a.08.08 0 0 1 .035-.029c.24-.11.462-.256.657-.434a2.648 2.648 0 0 0 .346-3.484 3.08 3.08 0 0 0-1.37-1.016 5.694 5.694 0 0 0-2.087-.352h-4.252a.204.204 0 0 0-.205.202v10.808c.002.051.023.1.059.136Zm2.047-4.72a.142.142 0 0 1 .1-.043h2.351c.362-.008.722.056 1.058.189.275.112.512.3.683.543.163.242.247.528.241.82a1.417 1.417 0 0 1-.875 1.347 2.496 2.496 0 0 1-.995.19h-2.463a.143.143 0 0 1-.142-.143v-2.801c0-.038.015-.074.042-.102Zm0-4.655a.142.142 0 0 1 .1-.043l2.24.005c.335-.007.668.054.978.181.251.106.468.28.626.502.148.224.223.489.217.758.006.274-.07.544-.217.775-.154.23-.372.41-.626.518-.31.127-.643.188-.978.18h-2.24a.143.143 0 0 1-.142-.142v-2.632c0-.038.015-.075.042-.102Zm34.007 9.596a4.796 4.796 0 0 1-2.346-.553 3.764 3.764 0 0 1-1.531-1.588 5.24 5.24 0 0 1-.53-2.424c-.02-.838.165-1.67.538-2.42a3.786 3.786 0 0 1 1.552-1.589 4.824 4.824 0 0 1 2.351-.553 4.94 4.94 0 0 1 2.027.396 3.261 3.261 0 0 1 1.989 2.741.183.183 0 0 1-.046.137.189.189 0 0 1-.135.06h-1.588a.18.18 0 0 1-.173-.142 2.136 2.136 0 0 0-.349-.792 1.83 1.83 0 0 0-.722-.582 2.389 2.389 0 0 0-1.003-.202 2.42 2.42 0 0 0-1.322.357 2.391 2.391 0 0 0-.872 1.035 3.674 3.674 0 0 0-.313 1.567 3.829 3.829 0 0 0 .306 1.58c.18.42.477.779.856 1.035.392.249.849.376 1.314.364a2.225 2.225 0 0 0 1.74-.791 2.16 2.16 0 0 0 .406-.776.176.176 0 0 1 .171-.132h1.585a.191.191 0 0 1 .14.065c.016.02.028.043.035.068a.197.197 0 0 1 .004.077 3.545 3.545 0 0 1-.649 1.539 3.58 3.58 0 0 1-1.436 1.127 4.859 4.859 0 0 1-1.999.396Zm-14.897-.336a5.37 5.37 0 0 0 1.989.336 5.102 5.102 0 0 0 1.983-.365c.526-.21.985-.56 1.324-1.014.311-.436.476-.959.471-1.494a2.03 2.03 0 0 0-.602-1.516 3.769 3.769 0 0 0-1.852-.846l-1.573-.328a2.065 2.065 0 0 1-.889-.378.784.784 0 0 1-.288-.54.775.775 0 0 1 .192-.58c.139-.158.318-.278.517-.346.231-.082.474-.122.719-.12.361-.013.716.09 1.014.293.207.149.362.36.44.603a.207.207 0 0 0 .194.148h1.701a.213.213 0 0 0 .158-.073.206.206 0 0 0 .039-.075.196.196 0 0 0 .003-.083 2.696 2.696 0 0 0-.469-1.143 2.819 2.819 0 0 0-1.241-.94 4.915 4.915 0 0 0-1.88-.33 5.104 5.104 0 0 0-1.914.33 2.82 2.82 0 0 0-1.252.95 2.4 2.4 0 0 0-.434 1.448 2.17 2.17 0 0 0 .607 1.594 3.51 3.51 0 0 0 1.868.884l1.443.292c.333.055.651.18.931.37a.757.757 0 0 1 .316.631.817.817 0 0 1-.197.54c-.146.161-.331.28-.538.345-.251.08-.513.12-.776.116a1.955 1.955 0 0 1-1.104-.28 1.153 1.153 0 0 1-.468-.635.209.209 0 0 0-.194-.148h-1.85a.203.203 0 0 0-.199.236c.082.422.259.82.518 1.163a3 3 0 0 0 1.293.955Zm-5.339-.9.011-.023v-.006l-.011.028Zm1.837-5.716a3.549 3.549 0 0 0-.056-.153c.195.483.294 1.047.294 1.697v5.028a.216.216 0 0 1-.215.214h-1.637a.217.217 0 0 1-.152-.062.215.215 0 0 1-.062-.152v-.864l-.016.034a3.746 3.746 0 0 1-2.92 1.244c-.28 0-.56-.027-.835-.08-1.482-.293-2.403-1.317-2.403-2.672 0-1.847 1.376-2.905 3.771-2.905a8.24 8.24 0 0 1 1.409.117c.287.049.952.17 1.014.183a3.5 3.5 0 0 0-.098-.822c-.259-.797-.991-1.218-2.136-1.218-.284 0-.568.018-.849.056a6.223 6.223 0 0 0-.111.013 6.8 6.8 0 0 0-1.443.404.198.198 0 0 1-.077.015h.005a.261.261 0 0 0 .064-.008.209.209 0 0 1-.157-.008.213.213 0 0 1-.114-.123l-.425-1.229a.215.215 0 0 1 .025-.177.214.214 0 0 1 .094-.084c.5-.215 1.02-.379 1.552-.489a8.431 8.431 0 0 1 1.707-.16c1.327 0 2.372.344 3.021.993l.003.003.002.002.057.059-.004-.004c.305.321.537.703.692 1.148Zm-6.256-.007a6.366 6.366 0 0 0-.184.072l-.013.004.01-.004c.062-.025.124-.049.187-.072Zm0 0Zm6.2-.146a2.927 2.927 0 0 0-.632-.992c.268.284.479.613.632.992Zm-3.761 2.806c-.333 0-.631.035-.893.1-.779.197-1.223.675-1.223 1.357 0 .825.688 1.357 1.754 1.357 1.065 0 1.957-.473 2.278-1.236.073-.178.115-.368.124-.561v-.662l-.111-.044a6.1 6.1 0 0 0-1.929-.305v-.006Zm-66.702-1.31a10.767 10.767 0 0 0-4.552-4.286c-1.957-.999-4.29-1.503-6.933-1.503h-8a.57.57 0 0 0-.572.572V34.79a.574.574 0 0 0 .572.57h8c2.643 0 4.976-.505 6.933-1.5a10.728 10.728 0 0 0 4.552-4.305c1.056-1.854 1.594-4.065 1.594-6.574 0-2.509-.538-4.666-1.594-6.51Zm-15.342 14.821V14.763a.1.1 0 0 1 .096-.096h3.761a8.992 8.992 0 0 1 4.357 1.011 6.881 6.881 0 0 1 2.845 2.887 9.403 9.403 0 0 1 .994 4.427 9.611 9.611 0 0 1-.994 4.485 6.858 6.858 0 0 1-2.845 2.902 8.991 8.991 0 0 1-4.357 1.008h-3.761a.096.096 0 0 1-.096-.093Zm36.806-7.678a5.8 5.8 0 0 1 1.599 2.069 6.26 6.26 0 0 1 .556 2.62 6.657 6.657 0 0 1-1.074 3.755 6.844 6.844 0 0 1-3.072 2.467c-1.473.593-3.05.882-4.637.849h-9.852a.567.567 0 0 1-.528-.353.566.566 0 0 1-.043-.219V11.27a.572.572 0 0 1 .571-.572h9.257c1.568-.034 3.128.23 4.598.776a6.762 6.762 0 0 1 3.037 2.253 6.074 6.074 0 0 1 .594 5.832 5.68 5.68 0 0 1-2.777 2.847.09.09 0 0 0-.06.09.098.098 0 0 0 .018.053.091.091 0 0 0 .044.033c.642.247 1.24.596 1.769 1.035Zm-3.799-4.246a2.86 2.86 0 0 0 .468-1.649h-.013a2.794 2.794 0 0 0-.452-1.603 3.106 3.106 0 0 0-1.33-1.063 5.232 5.232 0 0 0-2.102-.388h-5.015a.096.096 0 0 0-.096.096v5.987a.09.09 0 0 0 .028.067c.009.008.02.015.031.02a.097.097 0 0 0 .037.006h5.015a5.17 5.17 0 0 0 2.102-.388 2.86 2.86 0 0 0 1.327-1.085Zm-8.528 5.517a.094.094 0 0 0-.007.037l.003 6.355a.093.093 0 0 0 .006.037.099.099 0 0 0 .021.031.1.1 0 0 0 .031.021.097.097 0 0 0 .037.007h5.507a5.24 5.24 0 0 0 2.133-.404 2.996 2.996 0 0 0 1.863-2.845 3.006 3.006 0 0 0-.518-1.743 3.289 3.289 0 0 0-1.451-1.148 5.79 5.79 0 0 0-2.276-.406h-5.26a.093.093 0 0 0-.089.058Z" clip-rule="evenodd"/></g><defs><clipPath id="a"><path fill="#fff" d="M0 0h420v40H0z"/></clipPath></defs></svg>