<svg xmlns="http://www.w3.org/2000/svg" width="485" height="43" fill="currentColor" viewBox="0 0 485 43"><path fill="#00C9EA" d="M20 0a20 20 0 1 0 0 40 20 20 0 0 0 0-40Zm6.01 18.663a7.391 7.391 0 0 0-7.3 7.3v.094a4.72 4.72 0 1 1-4.72-4.72 7.303 7.303 0 0 0 7.3-7.358v-.036a4.72 4.72 0 1 1 4.72 4.72Z"/><path fill="#fff" fill-rule="evenodd" d="M57.96 30.518H72.4a.407.407 0 0 1 .398.41v4.041a.409.409 0 0 1-.406.407H56.1a5.23 5.23 0 0 1-5.222-5.222v-26.2a.406.406 0 0 1 .406-.406h4.459a.406.406 0 0 1 .406.407v24.753a1.834 1.834 0 0 0 1.81 1.81Zm71.46-24.745h-4.086a.406.406 0 0 0-.406.406v4.086c0 .224.181.406.406.406h4.086a.406.406 0 0 0 .406-.406V6.179a.406.406 0 0 0-.406-.406ZM95.76 13.54h-4.087a.406.406 0 0 0-.406.406v13.156c.007.607-.2 1.197-.584 1.666a9.604 9.604 0 0 1-1.994 1.81 6.034 6.034 0 0 1-3.44 1.035c-1.653 0-2.933-.432-3.802-1.293-.869-.861-1.311-2.17-1.311-3.913V13.946a.403.403 0 0 0-.404-.406h-4.089a.406.406 0 0 0-.406.406v13.1c0 2.656.805 4.83 2.39 6.465 1.585 1.635 3.815 2.46 6.621 2.46a9.352 9.352 0 0 0 4.348-1.035 10.3 10.3 0 0 0 3.217-2.521v2.555a.409.409 0 0 0 .406.406h3.543a.406.406 0 0 0 .406-.406V13.946a.407.407 0 0 0-.408-.406Zm16.285-.593a9.503 9.503 0 0 1 4.71 1.138 8.004 8.004 0 0 1 3.153 3.165 9.462 9.462 0 0 1 1.117 4.617v13.1a.41.41 0 0 1-.406.406h-4.089a.407.407 0 0 1-.406-.406V22.5c0-1.679-.479-2.97-1.41-3.857-.931-.887-2.162-1.334-3.662-1.334a6.014 6.014 0 0 0-3.44 1.034 10.127 10.127 0 0 0-1.957 1.728 2.684 2.684 0 0 0-.668 1.764v13.133a.405.405 0 0 1-.406.406h-4.086a.405.405 0 0 1-.406-.406V13.943a.404.404 0 0 1 .401-.404h3.59a.406.406 0 0 1 .406.404v2.555a10.318 10.318 0 0 1 3.214-2.517 9.382 9.382 0 0 1 4.345-1.034Zm17.375.593h-4.086a.406.406 0 0 0-.406.406V34.97c0 .224.181.406.406.406h4.086a.406.406 0 0 0 .406-.406V13.946a.406.406 0 0 0-.406-.406Zm20.023 0h-6.939a.567.567 0 0 1-.566-.567V6.724a.417.417 0 0 0-.12-.288.403.403 0 0 0-.573.004l-4.04 4.06a.396.396 0 0 0-.119.287V13a.565.565 0 0 1-.564.538h-2.928a.406.406 0 0 0-.4.406v3.5a.406.406 0 0 0 .4.402h3.06a.56.56 0 0 1 .306.186.56.56 0 0 1 .134.332v10.345c0 2.418.698 4.242 2.069 5.431 1.371 1.19 3.204 1.774 5.431 1.774h4.836a.41.41 0 0 0 .376-.25c.02-.05.03-.102.03-.156v-3.789a.413.413 0 0 0-.03-.155.414.414 0 0 0-.376-.25h-3.37c-2.4 0-3.191-.722-3.199-.73-.649-.571-.913-1.373-.913-2.767V18.41a.565.565 0 0 1 .556-.563h6.944a.41.41 0 0 0 .407-.407v-3.496a.417.417 0 0 0-.122-.287.41.41 0 0 0-.29-.117Zm61.306 8.506a10.6 10.6 0 0 1 2.511 1.404 6.465 6.465 0 0 1 1.775 2.059c.457.877.684 1.856.662 2.845a6.44 6.44 0 0 1-1.203 3.88 7.855 7.855 0 0 1-3.476 2.585c-1.492.613-3.321.924-5.431.924a14.744 14.744 0 0 1-5.367-.892 7.993 7.993 0 0 1-3.584-2.628 7.3 7.3 0 0 1-1.371-3.83.452.452 0 0 1 .137-.365.553.553 0 0 1 .39-.158h4.038a.518.518 0 0 1 .517.416c.081.633.344 1.23.758 1.715a4.279 4.279 0 0 0 1.841 1.198 7.932 7.932 0 0 0 2.586.4 7.63 7.63 0 0 0 2.633-.416 4.138 4.138 0 0 0 1.741-1.15 2.585 2.585 0 0 0 .631-1.697 2.07 2.07 0 0 0-.548-1.44 4.3 4.3 0 0 0-1.552-.992 17.268 17.268 0 0 0-2.423-.742l-2.972-.711c-2.165-.52-3.887-1.3-5.173-2.384-1.285-1.084-1.937-2.538-1.937-4.327a6.163 6.163 0 0 1 1.293-3.88 8.46 8.46 0 0 1 3.51-2.57 13.05 13.05 0 0 1 4.994-.914c1.7-.032 3.389.278 4.966.913a8.207 8.207 0 0 1 3.383 2.543 6.306 6.306 0 0 1 1.257 3.38.384.384 0 0 1-.021.158.54.54 0 0 1-.517.354h-3.955a.52.52 0 0 1-.517-.396 3.036 3.036 0 0 0-1.363-2.017c-.838-.548-1.95-.828-3.3-.828a6.786 6.786 0 0 0-2.455.404 3.556 3.556 0 0 0-1.531 1.06c-.342.43-.53.962-.532 1.51-.011.429.109.85.344 1.209.25.361.578.662.959.881.442.258.91.468 1.397.626a16.07 16.07 0 0 0 1.572.427l2.452.569a18.19 18.19 0 0 1 2.881.877Zm38.464.065h-9.518a.387.387 0 0 0-.385.39v3.585a.386.386 0 0 0 .385.385h5.359a5.954 5.954 0 0 1-.704 2.266 5.17 5.17 0 0 1-2.141 2.069 7.023 7.023 0 0 1-3.295.732 6.69 6.69 0 0 1-3.675-1.02 6.77 6.77 0 0 1-2.473-2.981c-.589-1.293-.889-2.63-.889-4.51a10.1 10.1 0 0 1 .889-4.48 6.774 6.774 0 0 1 2.465-2.964 6.5 6.5 0 0 1 3.577-1.011 7.24 7.24 0 0 1 2.069.287 5.268 5.268 0 0 1 1.681.843c.492.376.92.83 1.265 1.345.33.503.591 1.048.776 1.621a.259.259 0 0 0 .258.189h4.234a.257.257 0 0 0 .209-.098.27.27 0 0 0 .056-.103.27.27 0 0 0 .004-.117 9.389 9.389 0 0 0-1.156-3.158 9.724 9.724 0 0 0-2.328-2.67 10.57 10.57 0 0 0-3.23-1.732 12.208 12.208 0 0 0-3.911-.613 11.813 11.813 0 0 0-4.588.885 10.564 10.564 0 0 0-3.68 2.565 11.868 11.868 0 0 0-2.436 4.092 14.363 14.363 0 0 0-.869 5.172c0 2.649.496 4.679 1.474 6.606a10.8 10.8 0 0 0 4.13 4.474c1.749 1.035 3.81 1.573 6.127 1.573a11.77 11.77 0 0 0 5.553-1.278 9.438 9.438 0 0 0 3.802-3.65c.918-1.572 1.384-3.462 1.384-5.614v-2.664a.418.418 0 0 0-.419-.416Zm-61.707-11.44h4.045a.407.407 0 0 1 .406.406V34.96a.409.409 0 0 1-.404.406h-4.089a.442.442 0 0 1-.38-.217l-12.246-16.785v6.318h-.026V34.97a.407.407 0 0 1-.406.406h-4.019a.405.405 0 0 1-.406-.406V11.077a.407.407 0 0 1 .406-.406h4.397a.435.435 0 0 1 .377.218L187.1 27.573V11.077a.405.405 0 0 1 .406-.406Zm87.003 0h-4.032a.405.405 0 0 0-.406.406v8.67a.587.587 0 0 1-.366.547.586.586 0 0 1-.226.045h-11.108a.595.595 0 0 1-.593-.593v-8.669a.405.405 0 0 0-.406-.406h-4.032a.406.406 0 0 0-.401.406v23.89a.413.413 0 0 0 .118.287.399.399 0 0 0 .286.119h4.032a.404.404 0 0 0 .406-.406V25.19a.595.595 0 0 1 .59-.592h11.121a.587.587 0 0 1 .592.591v9.777a.407.407 0 0 0 .406.406h4.032a.405.405 0 0 0 .406-.406v-23.89a.41.41 0 0 0-.259-.379.407.407 0 0 0-.16-.027Zm3.711.013h19.656a.405.405 0 0 1 .399.406v3.479a.396.396 0 0 1-.112.274.388.388 0 0 1-.274.114h-6.763a.592.592 0 0 0-.592.59l-.07 19.422a.419.419 0 0 1-.419.417h-4.004a.41.41 0 0 1-.408-.406V15.549a.593.593 0 0 0-.592-.592H278.2a.388.388 0 0 1-.386-.388V11.09a.407.407 0 0 1 .406-.406Zm-113.036 0h-4.053a.406.406 0 0 0-.406.406v23.89c0 .224.182.406.406.406h4.053a.406.406 0 0 0 .406-.406V11.09a.406.406 0 0 0-.406-.406Zm54.232 0h4.053c.224 0 .406.182.406.406v23.89a.406.406 0 0 1-.406.406h-4.053a.406.406 0 0 1-.406-.406V11.09c0-.224.182-.406.406-.406Z" clip-rule="evenodd"/><path fill="#00C9EA" fill-rule="evenodd" d="M416.695 9.388h3.362c.303 0 .548.246.548.549v3.458a.548.548 0 0 1-.548.548h-3.362a.549.549 0 0 1-.549-.548V9.937a.55.55 0 0 1 .549-.549Zm-92.373 17.468h4.027v-.005a.498.498 0 0 1 .48.368c.019.07.023.142.012.214a9.129 9.129 0 0 1-5.502 7.223 13.364 13.364 0 0 1-5.459 1.081c-2.393 0-4.511-.517-6.272-1.551a10.427 10.427 0 0 1-4.104-4.42c-.955-1.909-1.441-4.16-1.441-6.725 0-2.565.497-4.826 1.477-6.724a10.6 10.6 0 0 1 4.171-4.42c1.788-1.035 3.921-1.552 6.342-1.552 1.827-.03 3.64.322 5.323 1.035a9.12 9.12 0 0 1 3.737 2.987 8.926 8.926 0 0 1 1.59 4.052.508.508 0 0 1-.494.577h-4.065a.515.515 0 0 1-.494-.413 5.439 5.439 0 0 0-.887-2.106 4.772 4.772 0 0 0-1.958-1.59 6.637 6.637 0 0 0-2.757-.556 5.675 5.675 0 0 0-3.43 1.047 6.722 6.722 0 0 0-2.469 3.01 11.517 11.517 0 0 0-.869 4.656 11.687 11.687 0 0 0 .853 4.655 6.741 6.741 0 0 0 2.4 3.013 5.4 5.4 0 0 0 3.342 1.035 7.185 7.185 0 0 0 2.945-.574 5.012 5.012 0 0 0 2.069-1.66 5.582 5.582 0 0 0 .942-2.24.5.5 0 0 1 .491-.417Zm88.749-10.803V20a.26.26 0 0 1-.046.191.326.326 0 0 1-.179.062c-.238 0-.468.01-.698.029-3.161.269-5.377 2.395-5.69 6.421v8.313a.377.377 0 0 1-.027.14.38.38 0 0 1-.199.2.367.367 0 0 1-.141.027h-3.556a.36.36 0 0 1-.261-.107.38.38 0 0 1-.08-.12.377.377 0 0 1-.027-.14V16.395a.367.367 0 0 1 .368-.368h3.558a.371.371 0 0 1 .368.367V20.2c1.06-2.501 2.943-4.275 5.715-4.487.161-.026.336-.026.517-.026a.374.374 0 0 1 .266.104.368.368 0 0 1 .112.263Zm-44.006 9.771-.706-1.125-.08-.116c.135-.057.256-.111.365-.163a8.291 8.291 0 0 0 3.315-2.737 6.466 6.466 0 0 0 1.19-3.742 6.668 6.668 0 0 0-4.058-6.38 10.738 10.738 0 0 0-4.479-.88h-9.771a.418.418 0 0 0-.417.417v23.869a.42.42 0 0 0 .417.416h4.008a.416.416 0 0 0 .417-.416V26.03a.596.596 0 0 1 .592-.592h3.295a.434.434 0 0 1 .367.199l6.109 9.52a.504.504 0 0 0 .419.225h4.319a.489.489 0 0 0 .259-.088.52.52 0 0 0 .127-.683l-5.688-8.788Zm-9.809-10.58a.591.591 0 0 1 .592-.593h4.73a4.656 4.656 0 0 1 1.984.399 2.89 2.89 0 0 1 1.275 1.127c.305.537.458 1.147.442 1.764a3.235 3.235 0 0 1-2.025 3.104 5.664 5.664 0 0 1-2.299.434h-4.107a.593.593 0 0 1-.592-.592v-5.643Zm-15.657 7.442c0 .063.02.125.056.177l7.991 11.757a.463.463 0 0 1 .087.256.463.463 0 0 1-.068.262.524.524 0 0 1-.461.258h-4.288a.538.538 0 0 1-.442-.222l-3.856-5.853-1.878-2.83a.359.359 0 0 0-.308-.17.365.365 0 0 0-.308.17l-.328.554-1.552 2.27-3.859 5.843a.54.54 0 0 1-.442.228h-4.246a.53.53 0 0 1-.463-.259.464.464 0 0 1 .02-.517l2.568-3.781 5.346-7.875a.307.307 0 0 0 .054-.176.307.307 0 0 0-.054-.176l-7.647-11.15a.47.47 0 0 1-.021-.517.517.517 0 0 1 .463-.259h4.353a.515.515 0 0 1 .442.228l3.455 5.32 1.896 2.824a.351.351 0 0 0 .308.173.347.347 0 0 0 .305-.168l1.924-2.865 3.45-5.281a.537.537 0 0 1 .443-.228h4.275a.519.519 0 0 1 .531.52.47.47 0 0 1-.089.256l-7.601 11.054a.312.312 0 0 0-.056.177Zm57.226-12.004h-19.656a.409.409 0 0 0-.406.406v3.48a.388.388 0 0 0 .388.386h6.838a.593.593 0 0 1 .593.592v19.431a.408.408 0 0 0 .408.406h4.004a.418.418 0 0 0 .419-.416l.07-19.423a.589.589 0 0 1 .592-.59h6.763a.386.386 0 0 0 .385-.385v-3.481a.404.404 0 0 0-.398-.406Zm58.43 5.23h3.378a.572.572 0 0 1 .579.571v16.726c0 1.864-.404 3.582-1.18 4.945a7.791 7.791 0 0 1-3.413 3.147 11.9 11.9 0 0 1-5.24 1.086 13.306 13.306 0 0 1-4.656-.747 7.125 7.125 0 0 1-3.137-2.286 5.766 5.766 0 0 1-1.174-2.964.6.6 0 0 1 .147-.453.584.584 0 0 1 .425-.189h3.527a.565.565 0 0 1 .551.427 2.67 2.67 0 0 0 1.293 1.648c.802.483 1.888.729 3.231.729 1.608 0 2.878-.442 3.763-1.293.884-.851 1.334-2.051 1.334-3.564v-1.637a6.896 6.896 0 0 1-2.382 1.81 8.244 8.244 0 0 1-3.556.776 9.009 9.009 0 0 1-4.619-1.161 7.8 7.8 0 0 1-3.06-3.308 11.127 11.127 0 0 1-1.068-5.012 11.034 11.034 0 0 1 1.105-5.067 7.981 7.981 0 0 1 3.144-3.341 9.314 9.314 0 0 1 4.741-1.18 7.713 7.713 0 0 1 3.453.807 7.29 7.29 0 0 1 2.24 1.686v-1.585a.57.57 0 0 1 .574-.572Zm-.574 11.433v-4.471a5.806 5.806 0 0 0-1.092-1.979 5.06 5.06 0 0 0-1.733-1.308 5.493 5.493 0 0 0-4.932.258 4.885 4.885 0 0 0-1.81 2.07 7.274 7.274 0 0 0-.649 3.173 7.348 7.348 0 0 0 .641 3.227 4.846 4.846 0 0 0 1.811 2.07 5.488 5.488 0 0 0 4.932.258 5.066 5.066 0 0 0 1.732-1.309 5.743 5.743 0 0 0 1.1-1.989Zm-26.282-11.77a18.737 18.737 0 0 0-3.737.35 17.944 17.944 0 0 0-3.414 1.078.428.428 0 0 0-.236.535l.199.577.732 2.12a.446.446 0 0 0 .228.25.426.426 0 0 0 .336.01 15.006 15.006 0 0 1 3.176-.888c.699-.11 1.406-.164 2.113-.163 2.55 0 4.169.934 4.728 2.703.144.47.217.96.217 1.453v.558l-.209-.064a18.41 18.41 0 0 0-2.069-.494 17.824 17.824 0 0 0-3.088-.258c-4.876 0-8.238 2.069-8.238 6.261v.075c0 3.254 2.31 5.248 5.243 5.824.6.119 1.211.179 1.823.179 2.982 0 5.03-1.19 6.391-2.718l.108-.117v2.103a.432.432 0 0 0 .43.43h3.597a.431.431 0 0 0 .43-.43V23.753c0-2.543-.681-4.604-2.152-6.006-1.405-1.399-3.624-2.172-6.608-2.172Zm4.428 11.462v1.423c-.017.428-.11.849-.275 1.244-.703 1.673-2.643 2.741-5.04 2.741-2.194 0-3.893-1.068-3.893-2.945v-.075c0-2.026 1.738-3.241 4.684-3.241a13.13 13.13 0 0 1 4.249.672l.285.101-.01.08Zm-16.765-11.242h-3.355a.549.549 0 0 0-.548.548v18.492c0 .303.246.548.548.548h3.355a.548.548 0 0 0 .548-.548V16.343a.548.548 0 0 0-.548-.548Zm45.713 9.835c0 5.948 4.138 10.086 10.063 10.086 3.243 0 5.923-1.153 7.961-3.421a.375.375 0 0 0 .098-.284.384.384 0 0 0-.134-.27l-2.245-1.94a.395.395 0 0 0-.518 0c-1.606 1.47-3.129 2.095-5.095 2.095-2.847 0-4.965-1.71-5.521-4.461a.168.168 0 0 1 .001-.074.185.185 0 0 1 .177-.133h13.909a.39.39 0 0 0 .388-.36c.031-.351.055-.667.055-.985 0-5.198-2.995-10.443-9.57-10.443-6.574 0-9.569 5.245-9.569 10.117v.073Zm4.655-1.868c.515-2.876 2.418-4.655 4.966-4.655 2.622 0 4.443 1.738 4.867 4.66a.18.18 0 0 1-.181.202h-9.473a.18.18 0 0 1-.175-.132.17.17 0 0 1-.004-.075Z" clip-rule="evenodd"/></svg>