<svg xmlns="http://www.w3.org/2000/svg" width="372" height="41" fill="currentColor" viewBox="0 0 372 41"><g clip-path="url(#a)"><path fill="#00C9EA" d="M20 .375a20 20 0 1 0 0 40 20 20 0 0 0 0-40Zm6.01 18.663a7.392 7.392 0 0 0-7.3 7.301v.093a4.723 4.723 0 1 1-4.72-4.72 7.303 7.303 0 0 0 7.3-7.394 4.72 4.72 0 1 1 4.72 4.72Z"/><path fill="#00C9EA" fill-rule="evenodd" d="m342.689 24.99.712 1.123 5.669 8.79a.516.516 0 0 1-.124.68.49.49 0 0 1-.259.091h-4.316a.492.492 0 0 1-.419-.227l-6.112-9.52a.434.434 0 0 0-.367-.197h-3.293a.593.593 0 0 0-.592.59v8.938a.417.417 0 0 1-.416.416h-4.009a.416.416 0 0 1-.416-.416v-23.87a.416.416 0 0 1 .416-.416h9.779a10.686 10.686 0 0 1 4.479.88 6.665 6.665 0 0 1 4.058 6.377 6.49 6.49 0 0 1-1.187 3.743 8.298 8.298 0 0 1-3.318 2.736 5.414 5.414 0 0 1-.324.148l-.041.018.08.116Zm-9.054-9.683a.571.571 0 0 0-.044.227l.002 5.644a.595.595 0 0 0 .593.59h4.104a5.66 5.66 0 0 0 2.299-.435 3.237 3.237 0 0 0 2.025-3.104 3.353 3.353 0 0 0-.442-1.764 2.885 2.885 0 0 0-1.277-1.124 4.607 4.607 0 0 0-1.984-.399h-4.728a.589.589 0 0 0-.548.365Zm33.72 3.121c-.002 1.023-.359 2.126-1.073 3.31-.714 1.185-11.008 9.518-11.734 10.067a.417.417 0 0 0-.168.334v3.121a.412.412 0 0 0 .413.414h16.677a.415.415 0 0 0 .414-.414v-2.992a.411.411 0 0 0-.414-.414h-9.807a.258.258 0 0 1-.29-.18.26.26 0 0 1 .012-.183.264.264 0 0 1 .13-.128s7.925-6.345 9.233-8.657a9.215 9.215 0 0 0 1.102-4.435 7.034 7.034 0 0 0-1.034-3.836 6.695 6.695 0 0 0-2.923-2.509 10.372 10.372 0 0 0-4.397-.954 10.217 10.217 0 0 0-4.676 1.091 7.587 7.587 0 0 0-3.129 2.905 9.053 9.053 0 0 0-1.213 4.03.423.423 0 0 0 .249.408.417.417 0 0 0 .165.034h3.602a.425.425 0 0 0 .414-.404c.031-.75.222-1.486.561-2.157a3.918 3.918 0 0 1 1.625-1.673 4.288 4.288 0 0 1 2.247-.574 4.786 4.786 0 0 1 2.129.452 3.188 3.188 0 0 1 1.401 1.324 4.11 4.11 0 0 1 .484 2.02Zm-62.167-7.456h-4.03a.406.406 0 0 0-.406.406v8.667a.592.592 0 0 1-.592.592h-11.121a.593.593 0 0 1-.592-.592v-8.667a.407.407 0 0 0-.407-.406h-4.029a.405.405 0 0 0-.406.406v23.89a.407.407 0 0 0 .406.406h4.029a.41.41 0 0 0 .407-.406v-9.779a.592.592 0 0 1 .592-.592h11.121a.595.595 0 0 1 .592.592v9.779a.407.407 0 0 0 .406.406h4.03a.407.407 0 0 0 .406-.406v-23.89a.407.407 0 0 0-.406-.406Zm9.419 20.732h10.288a.417.417 0 0 1 .417.416v3.138a.417.417 0 0 1-.417.416h-15.652a.416.416 0 0 1-.416-.416v-23.87a.417.417 0 0 1 .416-.416h15.642a.418.418 0 0 1 .417.417v3.134a.42.42 0 0 1-.417.42h-10.278a.593.593 0 0 0-.592.591v4.976a.588.588 0 0 0 .365.548.59.59 0 0 0 .227.045h9.657a.416.416 0 0 1 .417.416v3.145a.417.417 0 0 1-.417.416h-9.657a.594.594 0 0 0-.592.593v5.439a.596.596 0 0 0 .592.592Z" clip-rule="evenodd"/><path fill="#000" fill-rule="evenodd" d="M72.404 30.845H57.962a1.834 1.834 0 0 1-1.81-1.81V4.28a.406.406 0 0 0-.407-.406h-4.459a.406.406 0 0 0-.406.406v26.2a5.229 5.229 0 0 0 5.222 5.221h16.294a.406.406 0 0 0 .403-.406v-4.042a.403.403 0 0 0-.395-.409ZM129.424 6.1h-4.086a.406.406 0 0 0-.406.406v4.087c0 .224.182.406.406.406h4.086a.406.406 0 0 0 .406-.406V6.505a.406.406 0 0 0-.406-.406Zm50.211 19.718a6.484 6.484 0 0 0-1.782-2.069 10.613 10.613 0 0 0-2.498-1.399 18.254 18.254 0 0 0-2.881-.877l-2.452-.569a16.306 16.306 0 0 1-1.573-.432 7.031 7.031 0 0 1-1.396-.628 2.894 2.894 0 0 1-.96-.88 2.088 2.088 0 0 1-.344-1.207c.002-.55.19-1.082.533-1.51.407-.484.935-.85 1.531-1.061a6.722 6.722 0 0 1 2.454-.401c1.35 0 2.463.28 3.301.83a3.045 3.045 0 0 1 1.363 2.012.515.515 0 0 0 .517.399h3.954a.52.52 0 0 0 .518-.355.356.356 0 0 0 .02-.155 6.28 6.28 0 0 0-1.259-3.38 8.158 8.158 0 0 0-3.381-2.543 12.634 12.634 0 0 0-4.983-.92 13.052 13.052 0 0 0-4.995.913 8.435 8.435 0 0 0-3.509 2.57 6.15 6.15 0 0 0-1.293 3.88c0 1.79.651 3.243 1.937 4.324 1.285 1.081 3.008 1.868 5.172 2.385l2.972.711a17.56 17.56 0 0 1 2.426.735 4.3 4.3 0 0 1 1.552.99c.361.391.557.906.548 1.438a2.586 2.586 0 0 1-.631 1.7 4.14 4.14 0 0 1-1.728 1.148 7.57 7.57 0 0 1-2.63.414 7.855 7.855 0 0 1-2.586-.404 4.258 4.258 0 0 1-1.842-1.195 3.305 3.305 0 0 1-.758-1.714.514.514 0 0 0-.517-.42h-4.037a.558.558 0 0 0-.391.16.46.46 0 0 0-.137.366 7.309 7.309 0 0 0 1.371 3.827 8.003 8.003 0 0 0 3.585 2.63c1.714.631 3.53.938 5.356.906 2.11 0 3.939-.31 5.431-.924a7.85 7.85 0 0 0 3.476-2.586 6.44 6.44 0 0 0 1.211-3.861 5.876 5.876 0 0 0-.665-2.848Zm45.946-13.593c-1.792-1.035-3.926-1.552-6.342-1.552-2.415 0-4.554.517-6.359 1.552a10.383 10.383 0 0 0-4.182 4.396c-.965 1.894-1.454 4.139-1.454 6.696 0 2.558.489 4.806 1.454 6.699a10.37 10.37 0 0 0 4.182 4.397c1.81 1.034 3.944 1.552 6.359 1.552 2.416 0 4.55-.518 6.342-1.552a10.413 10.413 0 0 0 4.164-4.397c.965-1.893 1.454-4.138 1.454-6.699 0-2.56-.497-4.797-1.454-6.696a10.439 10.439 0 0 0-4.164-4.396Zm-2.954 18.743A5.564 5.564 0 0 1 219.239 32a5.714 5.714 0 0 1-3.439-1.034 6.809 6.809 0 0 1-2.481-3.003 11.337 11.337 0 0 1-.882-4.635 11.46 11.46 0 0 1 .867-4.64 6.67 6.67 0 0 1 2.477-3.002 5.86 5.86 0 0 1 3.492-1.035 5.497 5.497 0 0 1 3.362 1.035 6.89 6.89 0 0 1 2.473 3.002c.615 1.466.916 3.044.882 4.633a11.353 11.353 0 0 1-.882 4.634 6.81 6.81 0 0 1-2.481 3v.01Zm49.368.737h-10.288a.59.59 0 0 1-.59-.592v-5.44a.59.59 0 0 1 .59-.591h9.657a.416.416 0 0 0 .416-.417V21.52a.416.416 0 0 0-.416-.416h-9.657a.59.59 0 0 1-.59-.603v-4.966a.595.595 0 0 1 .59-.592h10.278a.419.419 0 0 0 .416-.419V11.39a.417.417 0 0 0-.416-.417h-15.642a.416.416 0 0 0-.417.417v23.869a.417.417 0 0 0 .417.416h15.652a.417.417 0 0 0 .419-.416V32.12a.419.419 0 0 0-.419-.416ZM244.05 10.972a11.17 11.17 0 0 1 4.792.967 7.262 7.262 0 0 1 3.184 2.799 8.019 8.019 0 0 1 1.115 4.254 7.94 7.94 0 0 1-1.133 4.255 7.443 7.443 0 0 1-3.254 2.813 11.657 11.657 0 0 1-4.945.983h-3.677a.438.438 0 0 0-.44.44v7.772a.42.42 0 0 1-.416.419h-4.384a.42.42 0 0 1-.417-.42V11.389a.42.42 0 0 1 .417-.416h9.158Zm2.17 11.6a3.612 3.612 0 0 0 1.552-1.423c.373-.67.559-1.429.538-2.196a4.228 4.228 0 0 0-.518-2.128 3.513 3.513 0 0 0-1.469-1.384 4.911 4.911 0 0 0-2.273-.5h-3.766a.593.593 0 0 0-.592.59v6.95a.593.593 0 0 0 .592.59h3.541a5.411 5.411 0 0 0 2.395-.5Zm-45.602 4.562h4.016a.5.5 0 0 1 .375.163.52.52 0 0 1 .119.409 9.258 9.258 0 0 1-1.67 4.174 9.367 9.367 0 0 1-3.807 3.034 13.35 13.35 0 0 1-5.447 1.052c-2.393 0-4.498-.517-6.256-1.552a10.406 10.406 0 0 1-4.095-4.396c-.951-1.893-1.435-4.133-1.435-6.696 0-2.563.494-4.806 1.472-6.701a10.566 10.566 0 0 1 4.143-4.397c1.782-1.035 3.91-1.552 6.326-1.552 1.822-.03 3.63.323 5.307 1.035a9.078 9.078 0 0 1 3.737 2.969 8.91 8.91 0 0 1 1.586 4.04.524.524 0 0 1-.119.406.495.495 0 0 1-.375.17h-4.053a.516.516 0 0 1-.489-.398 5.413 5.413 0 0 0-.884-2.1 4.764 4.764 0 0 0-1.953-1.585 6.6 6.6 0 0 0-2.749-.556 5.663 5.663 0 0 0-3.422 1.034 6.721 6.721 0 0 0-2.462 3.003 11.509 11.509 0 0 0-.867 4.65 11.712 11.712 0 0 0 .851 4.635 6.743 6.743 0 0 0 2.393 3.002 5.38 5.38 0 0 0 3.333 1.035 7.17 7.17 0 0 0 2.941-.572 5.024 5.024 0 0 0 2.056-1.658 5.5 5.5 0 0 0 .939-2.234.506.506 0 0 1 .489-.414ZM91.677 13.866h4.086a.406.406 0 0 1 .409.406v21.024a.406.406 0 0 1-.406.407h-3.543a.409.409 0 0 1-.406-.407v-2.555a10.284 10.284 0 0 1-3.22 2.522 9.335 9.335 0 0 1-4.345 1.034c-2.807 0-5.036-.825-6.621-2.46-1.586-1.634-2.39-3.809-2.39-6.465v-13.1a.406.406 0 0 1 .406-.406h4.089a.403.403 0 0 1 .403.406v12.461c0 1.743.443 3.052 1.312 3.913.869.861 2.149 1.293 3.802 1.293a6.02 6.02 0 0 0 3.437-1.034 9.551 9.551 0 0 0 1.996-1.81c.384-.47.591-1.06.585-1.666V14.272a.406.406 0 0 1 .406-.406Zm25.082.546a9.503 9.503 0 0 0-4.71-1.138 9.383 9.383 0 0 0-4.345 1.035 10.32 10.32 0 0 0-3.214 2.516V14.27a.408.408 0 0 0-.406-.404h-3.593a.404.404 0 0 0-.398.404v21.027a.404.404 0 0 0 .403.406h4.089a.405.405 0 0 0 .406-.407V22.164c.002-.65.239-1.276.668-1.764a10.127 10.127 0 0 1 1.957-1.727 6.014 6.014 0 0 1 3.44-1.035c1.5 0 2.731.448 3.663 1.335.931.887 1.409 2.177 1.409 3.856v12.466a.41.41 0 0 0 .406.406h4.089a.409.409 0 0 0 .404-.406v-13.1a9.462 9.462 0 0 0-1.115-4.616 8.018 8.018 0 0 0-3.153-3.166Zm8.579-.546h4.086c.225 0 .406.182.406.406v21.024a.406.406 0 0 1-.406.407h-4.086a.406.406 0 0 1-.406-.407V14.272c0-.224.182-.406.406-.406Zm24.115 4.306h-6.945a.56.56 0 0 0-.556.564v9.406c0 1.395.264 2.196.913 2.768.008.008.8.73 3.2.73h3.37a.404.404 0 0 1 .406.405v3.79a.413.413 0 0 1-.119.286.413.413 0 0 1-.287.12h-4.837c-2.224 0-4.06-.585-5.431-1.775-1.371-1.19-2.069-3.013-2.069-5.431V18.689a.565.565 0 0 0-.44-.517h-3.059a.41.41 0 0 1-.401-.403v-3.5a.406.406 0 0 1 .401-.406h2.927a.565.565 0 0 0 .564-.538v-2.21c0-.054.01-.107.03-.157a.409.409 0 0 1 .089-.131l4.037-4.06a.409.409 0 0 1 .627.058.406.406 0 0 1 .069.226V13.3a.57.57 0 0 0 .566.566h6.945a.406.406 0 0 1 .406.403v3.497a.41.41 0 0 1-.406.406Z" clip-rule="evenodd"/></g><defs><clipPath id="a"><path fill="#fff" d="M0 0h372v40H0z" transform="translate(0 .375)"/></clipPath></defs></svg>