<svg xmlns="http://www.w3.org/2000/svg" width="468" height="40" fill="currentColor" viewBox="0 0 468 40"><g clip-path="url(#a)"><path fill="#00C9EA" d="M20 0a20 20 0 1 0 0 40 20 20 0 0 0 0-40Zm6.01 18.663a7.392 7.392 0 0 0-7.3 7.301v.093a4.723 4.723 0 1 1-4.72-4.72 7.303 7.303 0 0 0 7.3-7.394 4.72 4.72 0 1 1 4.72 4.72Z"/><path fill="#000" fill-rule="evenodd" d="M72.404 30.47H57.962a1.834 1.834 0 0 1-1.81-1.81V3.906a.406.406 0 0 0-.407-.406h-4.459a.406.406 0 0 0-.406.406v26.2a5.229 5.229 0 0 0 5.222 5.221h16.294a.406.406 0 0 0 .403-.406V30.88a.403.403 0 0 0-.395-.409Zm57.02-24.746h-4.086a.406.406 0 0 0-.406.406v4.087c0 .224.182.406.406.406h4.086a.406.406 0 0 0 .406-.406V6.13a.406.406 0 0 0-.406-.406Zm50.211 19.718a6.484 6.484 0 0 0-1.782-2.069 10.613 10.613 0 0 0-2.498-1.399 18.254 18.254 0 0 0-2.881-.877l-2.452-.569a16.306 16.306 0 0 1-1.573-.432 7.031 7.031 0 0 1-1.396-.628 2.894 2.894 0 0 1-.96-.88 2.088 2.088 0 0 1-.344-1.207c.002-.55.19-1.082.533-1.51.407-.484.935-.85 1.531-1.061a6.722 6.722 0 0 1 2.454-.401c1.35 0 2.463.28 3.301.83a3.045 3.045 0 0 1 1.363 2.012.515.515 0 0 0 .517.399h3.954a.52.52 0 0 0 .518-.355.356.356 0 0 0 .02-.155 6.28 6.28 0 0 0-1.259-3.38 8.158 8.158 0 0 0-3.381-2.543 12.634 12.634 0 0 0-4.983-.92 13.052 13.052 0 0 0-4.995.913 8.435 8.435 0 0 0-3.509 2.57 6.15 6.15 0 0 0-1.293 3.88c0 1.79.651 3.243 1.937 4.324 1.285 1.081 3.008 1.868 5.172 2.385l2.972.711a17.56 17.56 0 0 1 2.426.735 4.3 4.3 0 0 1 1.552.99c.361.391.557.906.548 1.438a2.586 2.586 0 0 1-.631 1.7 4.14 4.14 0 0 1-1.728 1.148 7.57 7.57 0 0 1-2.63.414 7.855 7.855 0 0 1-2.586-.404 4.258 4.258 0 0 1-1.842-1.195 3.305 3.305 0 0 1-.758-1.714.514.514 0 0 0-.517-.42h-4.037a.558.558 0 0 0-.391.16.46.46 0 0 0-.137.366 7.309 7.309 0 0 0 1.371 3.827 8.003 8.003 0 0 0 3.585 2.63c1.714.631 3.53.938 5.356.906 2.11 0 3.939-.31 5.431-.924a7.85 7.85 0 0 0 3.476-2.586 6.44 6.44 0 0 0 1.211-3.861 5.876 5.876 0 0 0-.665-2.848Zm45.946-13.593c-1.792-1.035-3.926-1.552-6.342-1.552-2.415 0-4.554.517-6.359 1.552a10.383 10.383 0 0 0-4.182 4.396c-.965 1.894-1.454 4.139-1.454 6.696 0 2.558.489 4.806 1.454 6.699a10.37 10.37 0 0 0 4.182 4.397c1.81 1.034 3.944 1.552 6.359 1.552 2.416 0 4.55-.518 6.342-1.552a10.413 10.413 0 0 0 4.164-4.397c.965-1.893 1.454-4.138 1.454-6.699 0-2.56-.497-4.797-1.454-6.696a10.439 10.439 0 0 0-4.164-4.396Zm-2.954 18.743a5.564 5.564 0 0 1-3.388 1.034 5.714 5.714 0 0 1-3.439-1.034 6.809 6.809 0 0 1-2.481-3.003 11.337 11.337 0 0 1-.882-4.635 11.46 11.46 0 0 1 .867-4.64 6.67 6.67 0 0 1 2.477-3.002 5.86 5.86 0 0 1 3.492-1.035 5.497 5.497 0 0 1 3.362 1.035 6.89 6.89 0 0 1 2.473 3.002c.615 1.466.916 3.044.882 4.633a11.353 11.353 0 0 1-.882 4.634 6.81 6.81 0 0 1-2.481 3v.01Zm49.368.737h-10.288a.59.59 0 0 1-.59-.592v-5.44a.59.59 0 0 1 .59-.591h9.657a.416.416 0 0 0 .416-.417v-3.145a.416.416 0 0 0-.416-.416h-9.657a.59.59 0 0 1-.59-.603v-4.968a.59.59 0 0 1 .59-.592h10.278a.416.416 0 0 0 .416-.417v-3.134a.417.417 0 0 0-.416-.417h-15.642a.416.416 0 0 0-.417.417v23.869a.417.417 0 0 0 .417.416h15.652a.417.417 0 0 0 .419-.416v-3.138a.419.419 0 0 0-.419-.416ZM244.05 10.597a11.17 11.17 0 0 1 4.792.967 7.262 7.262 0 0 1 3.184 2.799 8.019 8.019 0 0 1 1.115 4.254 7.94 7.94 0 0 1-1.133 4.255 7.443 7.443 0 0 1-3.254 2.813 11.657 11.657 0 0 1-4.945.983h-3.677a.438.438 0 0 0-.44.44v7.772a.42.42 0 0 1-.416.419h-4.384a.42.42 0 0 1-.417-.42V11.014a.42.42 0 0 1 .417-.416h9.158Zm2.17 11.6a3.612 3.612 0 0 0 1.552-1.423c.373-.67.559-1.429.538-2.196a4.228 4.228 0 0 0-.518-2.128 3.513 3.513 0 0 0-1.469-1.384 4.911 4.911 0 0 0-2.273-.5h-3.766a.593.593 0 0 0-.592.59v6.95a.593.593 0 0 0 .592.59h3.541a5.411 5.411 0 0 0 2.395-.5Zm-45.602 4.562h4.016a.5.5 0 0 1 .375.163.52.52 0 0 1 .119.409 9.258 9.258 0 0 1-1.67 4.174 9.367 9.367 0 0 1-3.807 3.034 13.35 13.35 0 0 1-5.447 1.052c-2.393 0-4.498-.517-6.256-1.552a10.406 10.406 0 0 1-4.095-4.396c-.951-1.893-1.435-4.133-1.435-6.696 0-2.563.494-4.806 1.472-6.701a10.566 10.566 0 0 1 4.143-4.397c1.782-1.035 3.91-1.552 6.326-1.552 1.822-.03 3.63.323 5.307 1.035a9.078 9.078 0 0 1 3.737 2.969 8.91 8.91 0 0 1 1.586 4.04.524.524 0 0 1-.119.406.495.495 0 0 1-.375.17h-4.053a.516.516 0 0 1-.489-.398 5.413 5.413 0 0 0-.884-2.1 4.764 4.764 0 0 0-1.953-1.585 6.6 6.6 0 0 0-2.749-.556 5.663 5.663 0 0 0-3.422 1.034 6.721 6.721 0 0 0-2.462 3.003 11.509 11.509 0 0 0-.867 4.65 11.712 11.712 0 0 0 .851 4.635 6.743 6.743 0 0 0 2.393 3.002 5.38 5.38 0 0 0 3.333 1.035 7.17 7.17 0 0 0 2.941-.572 5.024 5.024 0 0 0 2.056-1.658 5.5 5.5 0 0 0 .939-2.234.506.506 0 0 1 .489-.414ZM91.677 13.491h4.086a.406.406 0 0 1 .409.406v21.024a.406.406 0 0 1-.406.407h-3.543a.409.409 0 0 1-.406-.407v-2.555a10.284 10.284 0 0 1-3.22 2.522 9.335 9.335 0 0 1-4.345 1.034c-2.807 0-5.036-.825-6.621-2.46-1.586-1.634-2.39-3.809-2.39-6.465v-13.1a.406.406 0 0 1 .406-.406h4.089a.403.403 0 0 1 .403.406v12.461c0 1.743.443 3.052 1.312 3.913.869.861 2.149 1.293 3.802 1.293a6.02 6.02 0 0 0 3.437-1.034 9.551 9.551 0 0 0 1.996-1.81c.384-.47.591-1.06.585-1.666V13.897a.406.406 0 0 1 .406-.406Zm25.082.546a9.503 9.503 0 0 0-4.71-1.138 9.383 9.383 0 0 0-4.345 1.035 10.32 10.32 0 0 0-3.214 2.516v-2.555a.408.408 0 0 0-.406-.404h-3.593a.404.404 0 0 0-.398.404v21.027a.404.404 0 0 0 .403.406h4.089a.405.405 0 0 0 .406-.407V21.789c.002-.65.239-1.276.668-1.764a10.127 10.127 0 0 1 1.957-1.727 6.014 6.014 0 0 1 3.44-1.035c1.5 0 2.731.448 3.663 1.335.931.887 1.409 2.177 1.409 3.856V34.92a.41.41 0 0 0 .406.406h4.089a.409.409 0 0 0 .404-.406v-13.1a9.462 9.462 0 0 0-1.115-4.616 8.018 8.018 0 0 0-3.153-3.166Zm8.579-.546h4.086c.225 0 .406.182.406.406v21.024a.406.406 0 0 1-.406.407h-4.086a.406.406 0 0 1-.406-.407V13.897c0-.224.182-.406.406-.406Zm24.115 4.306h-6.945a.56.56 0 0 0-.556.564v9.406c0 1.395.264 2.196.913 2.768.008.008.8.73 3.2.73h3.37a.404.404 0 0 1 .406.405v3.79a.413.413 0 0 1-.119.286.413.413 0 0 1-.287.12h-4.837c-2.224 0-4.06-.585-5.431-1.775-1.371-1.19-2.069-3.013-2.069-5.431V18.314a.565.565 0 0 0-.44-.517h-3.059a.41.41 0 0 1-.401-.403v-3.5a.406.406 0 0 1 .401-.406h2.927a.565.565 0 0 0 .564-.538v-2.21c0-.054.01-.107.03-.157a.409.409 0 0 1 .089-.131l4.037-4.06a.409.409 0 0 1 .627.058.406.406 0 0 1 .069.226v6.249a.57.57 0 0 0 .566.566h6.945a.406.406 0 0 1 .406.403v3.497a.41.41 0 0 1-.406.406Z" clip-rule="evenodd"/><path fill="#00C9EA" fill-rule="evenodd" d="M421.984 9.301h3.362c.303 0 .548.246.548.549v3.457a.548.548 0 0 1-.548.549h-3.362a.549.549 0 0 1-.549-.549V9.85a.55.55 0 0 1 .549-.549Zm-12.601 24.852c1.236 1.058 2.879 1.596 4.883 1.596l4.283-.013a.442.442 0 0 0 .44-.44v-3.362a.442.442 0 0 0-.44-.44h-3.005c-2.075 0-2.786-.628-2.786-.628-.551-.491-.776-1.184-.776-2.395v-8.356a.42.42 0 0 1 .406-.419h6.169a.44.44 0 0 0 .439-.44v-3.104a.44.44 0 0 0-.439-.44h-6.153a.426.426 0 0 1-.424-.422V9.745a.45.45 0 0 0-.128-.315.448.448 0 0 0-.315-.128.445.445 0 0 0-.31.132l-3.59 3.606a.446.446 0 0 0-.127.313v1.96a.422.422 0 0 1-.421.4h-2.602a.436.436 0 0 0-.406.272.442.442 0 0 0-.034.168v3.104a.442.442 0 0 0 .44.44h2.7a.427.427 0 0 1 .329.385v9.197c0 2.173.631 3.817 1.867 4.875Zm-35.906 0c1.236 1.058 2.879 1.596 4.883 1.596l4.288-.003a.436.436 0 0 0 .406-.271.424.424 0 0 0 .034-.168v-3.363a.435.435 0 0 0-.44-.44h-3.005c-2.074 0-2.788-.628-2.788-.628-.548-.491-.776-1.184-.776-2.395v-8.356a.425.425 0 0 1 .406-.43h6.168a.445.445 0 0 0 .407-.27.441.441 0 0 0 .033-.17v-3.103a.438.438 0 0 0-.44-.44h-6.152a.43.43 0 0 1-.425-.42v-5.55a.437.437 0 0 0-.527-.432.44.44 0 0 0-.225.122l-3.587 3.605a.442.442 0 0 0-.127.313v1.96a.42.42 0 0 1-.422.4h-2.607a.44.44 0 0 0-.439.441v3.104a.44.44 0 0 0 .439.44h2.698a.43.43 0 0 1 .331.385v9.197c0 2.172.631 3.817 1.867 4.875Zm93.615-15.174a6.488 6.488 0 0 0-2.53-2.653 7.595 7.595 0 0 0-3.83-.942 7.72 7.72 0 0 0-5.569 2.286c-.2.206-.383.428-.545.665v-2.09a.548.548 0 0 0-.549-.548h-3.408a.548.548 0 0 0-.546.548V34.74a.545.545 0 0 0 .546.548h3.39a.548.548 0 0 0 .549-.548V23.725c0-.035.007-.069.02-.1.306-.713.679-1.393 1.115-2.034a5.725 5.725 0 0 1 1.927-1.81 4.81 4.81 0 0 1 2.304-.572 3.568 3.568 0 0 1 1.865.481c.537.332.969.81 1.244 1.379.313.661.467 1.387.45 2.118v11.564a.54.54 0 0 0 .161.387.544.544 0 0 0 .387.16h3.363a.541.541 0 0 0 .387-.16.54.54 0 0 0 .161-.387V22.944a8.54 8.54 0 0 0-.892-3.965Zm-124.586-2.653a6.479 6.479 0 0 1 2.529 2.653c.616 1.23.926 2.59.903 3.965V34.75a.546.546 0 0 1-.546.548h-3.362a.541.541 0 0 1-.505-.339.558.558 0 0 1-.041-.21V23.188a4.684 4.684 0 0 0-.452-2.118 3.324 3.324 0 0 0-1.244-1.379 3.568 3.568 0 0 0-1.865-.48 4.81 4.81 0 0 0-2.304.57 5.755 5.755 0 0 0-1.927 1.811c-.436.64-.809 1.321-1.115 2.033a.29.29 0 0 0-.021.101V34.74a.547.547 0 0 1-.548.548h-3.391a.551.551 0 0 1-.545-.548V16.245a.549.549 0 0 1 .545-.548h3.409a.548.548 0 0 1 .549.548v2.09c.162-.237.344-.46.545-.665a7.717 7.717 0 0 1 5.556-2.286 7.597 7.597 0 0 1 3.83.942Zm-18.179 2.653a6.487 6.487 0 0 0-2.53-2.653 7.596 7.596 0 0 0-3.833-.942 7.706 7.706 0 0 0-5.565 2.286 4.905 4.905 0 0 0-.546.665v-2.09a.548.548 0 0 0-.548-.548h-3.409a.55.55 0 0 0-.505.339.557.557 0 0 0-.041.21V34.74a.558.558 0 0 0 .159.388.553.553 0 0 0 .387.16h3.39a.546.546 0 0 0 .549-.548V23.725c0-.035.007-.069.02-.1.306-.712.679-1.393 1.115-2.034a5.733 5.733 0 0 1 1.927-1.81 4.812 4.812 0 0 1 2.304-.572 3.568 3.568 0 0 1 1.865.481c.537.332.969.81 1.244 1.379.313.661.467 1.387.45 2.118v11.564a.54.54 0 0 0 .161.387.546.546 0 0 0 .387.16h3.363a.543.543 0 0 0 .506-.338.54.54 0 0 0 .042-.21V22.945a8.54 8.54 0 0 0-.892-3.965Zm33.575-3.713c1.811 0 3.596.416 5.22 1.218a8.276 8.276 0 0 1 3.416 3.525c.784 1.528 1.182 3.346 1.182 5.431s-.406 3.908-1.182 5.431a8.243 8.243 0 0 1-3.416 3.523 11.794 11.794 0 0 1-10.439 0 8.256 8.256 0 0 1-3.416-3.523c-.784-1.528-1.182-3.344-1.182-5.43 0-2.088.406-3.911 1.182-5.432a8.246 8.246 0 0 1 3.416-3.525 11.79 11.79 0 0 1 5.219-1.218Zm.006 16.611a5.134 5.134 0 0 0 2.844-.775h-.012a4.99 4.99 0 0 0 1.849-2.222 8.547 8.547 0 0 0 .646-3.445 8.546 8.546 0 0 0-.646-3.445 4.998 4.998 0 0 0-1.837-2.227 5.168 5.168 0 0 0-2.844-.776 5.233 5.233 0 0 0-2.869.776 4.916 4.916 0 0 0-1.851 2.224 8.495 8.495 0 0 0-.647 3.445 8.495 8.495 0 0 0 .647 3.445 4.93 4.93 0 0 0 1.851 2.225 5.256 5.256 0 0 0 2.869.775Zm85.089-15.393a11.79 11.79 0 0 0-10.438 0 8.254 8.254 0 0 0-3.417 3.525c-.775 1.52-1.182 3.344-1.182 5.431s.399 3.903 1.182 5.431a8.258 8.258 0 0 0 3.417 3.523 11.79 11.79 0 0 0 10.438 0 8.245 8.245 0 0 0 3.417-3.523c.776-1.523 1.182-3.346 1.182-5.43 0-2.085-.398-3.904-1.182-5.432a8.278 8.278 0 0 0-3.417-3.525ZM440.628 31.1a5.129 5.129 0 0 1-2.845.776 5.24 5.24 0 0 1-2.868-.775 4.931 4.931 0 0 1-1.852-2.225 8.511 8.511 0 0 1-.646-3.445 8.494 8.494 0 0 1 .646-3.445 4.918 4.918 0 0 1 1.852-2.224 5.23 5.23 0 0 1 2.868-.776 5.172 5.172 0 0 1 2.845.776 4.998 4.998 0 0 1 1.837 2.227 8.562 8.562 0 0 1 .644 3.445 8.563 8.563 0 0 1-.644 3.445 4.99 4.99 0 0 1-1.837 2.222Zm-46.569-15.388c-1.24-.01-2.478.106-3.696.344-1.153.242-2.28.599-3.362 1.066a.424.424 0 0 0-.235.517l.199.571.724 2.095a.435.435 0 0 0 .223.247.426.426 0 0 0 .333.012c1.011-.407 2.064-.7 3.14-.877.691-.11 1.39-.164 2.09-.163 2.521 0 4.122.924 4.673 2.674a4.867 4.867 0 0 1 .215 1.516v.473a3.38 3.38 0 0 0-.14-.042l-.07-.02a16.873 16.873 0 0 0-5.095-.74c-4.821 0-8.144 2.039-8.144 6.192v.073c0 3.214 2.284 5.188 5.172 5.757a9.19 9.19 0 0 0 1.811.178c2.948 0 4.973-1.177 6.318-2.687l.106-.116v2.069c0 .055.011.11.033.162a.424.424 0 0 0 .391.262h3.559a.424.424 0 0 0 .393-.262.412.412 0 0 0 .031-.162V23.798c0-2.514-.672-4.552-2.128-5.949-1.386-1.373-3.598-2.136-6.541-2.136Zm4.368 11.33v1.408a3.533 3.533 0 0 1-.258 1.23c-.693 1.653-2.612 2.711-4.984 2.711-2.167 0-3.849-1.055-3.849-2.915v-.072c0-2.002 1.72-3.205 4.633-3.205 1.427-.01 2.846.214 4.2.665l.282.101-.024.078Zm26.924-11.335h-3.354a.549.549 0 0 0-.549.548v18.492c0 .303.246.548.549.548h3.354a.548.548 0 0 0 .548-.548V16.256a.548.548 0 0 0-.548-.549Zm-128.595-5.009a.58.58 0 0 1 .21.273l8.594 23.559a.57.57 0 0 1-.535.763h-3.766a.57.57 0 0 1-.538-.38l-2.019-5.603a.262.262 0 0 0-.238-.168h-9.425a.258.258 0 0 0-.24.168l-2.007 5.602a.572.572 0 0 1-.538.38h-3.621a.576.576 0 0 1-.565-.496.59.59 0 0 1 .029-.266l8.571-23.56a.58.58 0 0 1 .538-.377h5.222a.579.579 0 0 1 .328.105Zm.375 14.454a.101.101 0 0 0 .034-.029h.005a.09.09 0 0 0 .01-.043.09.09 0 0 0-.01-.042l-3.282-9.919a.084.084 0 0 0-.034-.048.09.09 0 0 0-.056-.016.09.09 0 0 0-.056.016.09.09 0 0 0-.035.048l-3.362 9.916a.086.086 0 0 0 0 .088.1.1 0 0 0 .034.029.1.1 0 0 0 .044.01h6.665c.015 0 .03-.004.043-.01Z" clip-rule="evenodd"/></g><defs><clipPath id="a"><path fill="#fff" d="M0 0h468v40H0z"/></clipPath></defs></svg>