<svg xmlns="http://www.w3.org/2000/svg" width="501" height="44" fill="currentColor" viewBox="0 0 501 44"><path fill="#00C9EA" d="M20.002 0a20.002 20.002 0 1 0 0 40.003 20.002 20.002 0 0 0 0-40.003Zm6.011 18.665a7.392 7.392 0 0 0-7.302 7.302v.093a4.723 4.723 0 1 1-4.72-4.72 7.305 7.305 0 0 0 7.302-7.396 4.72 4.72 0 1 1 4.72 4.72Z"/><path fill="#fff" fill-rule="evenodd" d="M72.405 30.473H57.962a1.833 1.833 0 0 1-1.81-1.81V3.905a.406.406 0 0 0-.407-.406h-4.459a.406.406 0 0 0-.406.406v26.202a5.23 5.23 0 0 0 5.222 5.222h16.295a.406.406 0 0 0 .404-.406V30.88a.403.403 0 0 0-.396-.408Zm57.026-24.749h-4.086a.406.406 0 0 0-.407.406v4.087c0 .224.182.406.407.406h4.086a.406.406 0 0 0 .406-.406V6.13a.406.406 0 0 0-.406-.406Zm50.216 19.72a6.496 6.496 0 0 0-1.782-2.069 10.62 10.62 0 0 0-2.499-1.4 18.222 18.222 0 0 0-2.881-.876l-2.452-.57a16.255 16.255 0 0 1-1.573-.431 7.066 7.066 0 0 1-1.397-.628 2.901 2.901 0 0 1-.959-.88 2.088 2.088 0 0 1-.344-1.208c.002-.55.19-1.081.532-1.51.407-.484.936-.85 1.532-1.06a6.722 6.722 0 0 1 2.454-.402c1.35 0 2.463.28 3.301.83a3.04 3.04 0 0 1 1.363 2.012.512.512 0 0 0 .517.4h3.955a.516.516 0 0 0 .517-.355.372.372 0 0 0 .021-.155 6.274 6.274 0 0 0-1.26-3.381 8.15 8.15 0 0 0-3.38-2.543 12.642 12.642 0 0 0-4.985-.92 13.05 13.05 0 0 0-4.994.913 8.431 8.431 0 0 0-3.51 2.57 6.159 6.159 0 0 0-1.294 3.88c0 1.79.652 3.244 1.938 4.325 1.285 1.081 3.008 1.868 5.173 2.385l2.972.711c.825.186 1.636.432 2.426.735a4.3 4.3 0 0 1 1.552.99c.361.392.557.907.548 1.439a2.581 2.581 0 0 1-.631 1.699 4.133 4.133 0 0 1-1.728 1.148 7.566 7.566 0 0 1-2.63.414 7.865 7.865 0 0 1-2.587-.403 4.26 4.26 0 0 1-1.841-1.195 3.305 3.305 0 0 1-.758-1.715.52.52 0 0 0-.517-.42h-4.038a.557.557 0 0 0-.391.161.448.448 0 0 0-.137.365 7.3 7.3 0 0 0 1.371 3.828 8.008 8.008 0 0 0 3.585 2.63c1.714.632 3.531.939 5.357.906 2.111 0 3.939-.31 5.432-.924a7.854 7.854 0 0 0 3.476-2.586 6.447 6.447 0 0 0 1.211-3.862 5.887 5.887 0 0 0-.665-2.848Zm45.95-13.594c-1.792-1.035-3.926-1.552-6.342-1.552-2.416 0-4.555.517-6.36 1.552a10.393 10.393 0 0 0-4.183 4.397c-.965 1.893-1.454 4.138-1.454 6.696s.489 4.806 1.454 6.7a10.373 10.373 0 0 0 4.183 4.397c1.81 1.034 3.944 1.552 6.36 1.552 2.416 0 4.55-.518 6.342-1.552a10.417 10.417 0 0 0 4.165-4.398c.964-1.893 1.453-4.138 1.453-6.699 0-2.56-.496-4.798-1.453-6.696a10.448 10.448 0 0 0-4.165-4.397Zm-2.954 18.744a5.564 5.564 0 0 1-3.388 1.035 5.72 5.72 0 0 1-3.44-1.035 6.81 6.81 0 0 1-2.481-3.003 11.322 11.322 0 0 1-.882-4.635 11.46 11.46 0 0 1 .867-4.64 6.664 6.664 0 0 1 2.478-3.003 5.854 5.854 0 0 1 3.492-1.035 5.499 5.499 0 0 1 3.362 1.035 6.89 6.89 0 0 1 2.473 3.003c.615 1.465.916 3.044.882 4.633a11.34 11.34 0 0 1-.882 4.635 6.81 6.81 0 0 1-2.481 3v.01Zm49.373.737h-10.29a.593.593 0 0 1-.589-.592v-5.44a.594.594 0 0 1 .589-.592h9.659a.416.416 0 0 0 .416-.416v-3.146a.417.417 0 0 0-.416-.416h-9.659a.586.586 0 0 1-.548-.373.582.582 0 0 1-.041-.23V15.16a.592.592 0 0 1 .589-.592h10.279a.42.42 0 0 0 .417-.42v-3.134a.417.417 0 0 0-.417-.417h-15.643a.416.416 0 0 0-.417.417v23.871a.417.417 0 0 0 .417.417h15.654a.419.419 0 0 0 .419-.417v-3.137a.419.419 0 0 0-.419-.417Zm-27.948-20.733a11.176 11.176 0 0 1 4.793.967 7.269 7.269 0 0 1 3.184 2.799 8.02 8.02 0 0 1 1.115 4.254 7.942 7.942 0 0 1-1.133 4.255 7.443 7.443 0 0 1-3.254 2.814 11.66 11.66 0 0 1-4.946.983h-3.678a.442.442 0 0 0-.44.44v7.773a.418.418 0 0 1-.416.419h-4.384a.419.419 0 0 1-.417-.42V11.015a.42.42 0 0 1 .417-.416h9.159Zm2.17 11.6a3.606 3.606 0 0 0 1.552-1.422c.374-.67.559-1.43.538-2.196a4.228 4.228 0 0 0-.517-2.13 3.521 3.521 0 0 0-1.47-1.383 4.913 4.913 0 0 0-2.273-.5h-3.766a.592.592 0 0 0-.593.59v6.95a.594.594 0 0 0 .593.59h3.541a5.41 5.41 0 0 0 2.395-.499Zm-45.606 4.563h4.017a.5.5 0 0 1 .385.168.52.52 0 0 1 .119.409 9.126 9.126 0 0 1-5.489 7.204 13.349 13.349 0 0 1-5.447 1.052c-2.393 0-4.498-.517-6.257-1.552a10.411 10.411 0 0 1-4.094-4.397c-.952-1.893-1.436-4.133-1.436-6.697 0-2.563.494-4.806 1.472-6.701a10.573 10.573 0 0 1 4.143-4.398c1.783-1.034 3.911-1.552 6.327-1.552a13.04 13.04 0 0 1 5.308 1.035 9.047 9.047 0 0 1 3.737 2.97 8.898 8.898 0 0 1 1.586 4.04.524.524 0 0 1-.119.406.486.486 0 0 1-.372.17h-4.056a.515.515 0 0 1-.489-.398 5.415 5.415 0 0 0-.885-2.1 4.76 4.76 0 0 0-1.952-1.586 6.605 6.605 0 0 0-2.75-.556 5.665 5.665 0 0 0-3.422 1.035 6.722 6.722 0 0 0-2.462 3.003 11.511 11.511 0 0 0-.867 4.65 11.696 11.696 0 0 0 .851 4.636 6.744 6.744 0 0 0 2.393 3.003 5.38 5.38 0 0 0 3.334 1.034 7.175 7.175 0 0 0 2.941-.572 5.032 5.032 0 0 0 2.056-1.657 5.51 5.51 0 0 0 .939-2.235.502.502 0 0 1 .489-.414ZM91.68 13.49h4.087a.406.406 0 0 1 .409.407v21.026a.406.406 0 0 1-.406.406h-3.544a.409.409 0 0 1-.406-.406v-2.556a10.285 10.285 0 0 1-3.22 2.522 9.335 9.335 0 0 1-4.346 1.035c-2.806 0-5.035-.825-6.621-2.46-1.586-1.635-2.39-3.81-2.39-6.466v-13.1a.406.406 0 0 1 .406-.406h4.09a.402.402 0 0 1 .403.406V26.36c0 1.743.442 3.052 1.311 3.913.87.862 2.15 1.294 3.802 1.294a6.021 6.021 0 0 0 3.438-1.035 9.553 9.553 0 0 0 1.997-1.81c.384-.47.591-1.06.584-1.666V13.898a.406.406 0 0 1 .406-.406Zm25.085.547a9.502 9.502 0 0 0-4.71-1.139 9.383 9.383 0 0 0-4.346 1.035 10.334 10.334 0 0 0-3.215 2.517v-2.556a.404.404 0 0 0-.406-.403h-3.593a.405.405 0 0 0-.398.403v21.03a.404.404 0 0 0 .404.405h4.089a.405.405 0 0 0 .406-.406V21.79c.002-.65.239-1.276.667-1.764a10.16 10.16 0 0 1 1.958-1.728 6.013 6.013 0 0 1 3.44-1.035c1.501 0 2.732.447 3.663 1.335.931.887 1.41 2.178 1.41 3.856v12.468a.405.405 0 0 0 .406.406h4.089a.409.409 0 0 0 .404-.407v-13.1a9.464 9.464 0 0 0-1.115-4.618 8.018 8.018 0 0 0-3.153-3.165Zm8.58-.546h4.086c.225 0 .406.181.406.406v21.026a.406.406 0 0 1-.406.406h-4.086a.406.406 0 0 1-.407-.406V13.898c0-.224.182-.406.407-.406Zm24.117 4.307h-6.945a.56.56 0 0 0-.556.564v9.407c0 1.394.263 2.196.913 2.767.007.008.799.73 3.199.73h3.371a.404.404 0 0 1 .406.406v3.79a.413.413 0 0 1-.119.286.413.413 0 0 1-.287.12h-4.837c-2.225 0-4.061-.585-5.432-1.775-1.371-1.19-2.069-3.013-2.069-5.432V18.316a.566.566 0 0 0-.44-.517h-3.06a.409.409 0 0 1-.401-.404v-3.5a.406.406 0 0 1 .401-.406h2.928a.566.566 0 0 0 .564-.538V10.74a.396.396 0 0 1 .119-.287l4.037-4.061a.409.409 0 0 1 .627.058.406.406 0 0 1 .069.226v6.25a.571.571 0 0 0 .567.566h6.945a.405.405 0 0 1 .406.403v3.497a.41.41 0 0 1-.406.407Z" clip-rule="evenodd"/><path fill="#00C9EA" fill-rule="evenodd" d="M456.616 9.302h3.363c.303 0 .548.245.548.548v3.458a.548.548 0 0 1-.548.549h-3.363a.548.548 0 0 1-.548-.549V9.85c0-.303.245-.548.548-.548Zm16.702 26.45c-2.005 0-3.648-.538-4.884-1.596-1.236-1.058-1.867-2.703-1.867-4.876v-9.197a.426.426 0 0 0-.329-.386h-2.7a.438.438 0 0 1-.44-.44v-3.103a.442.442 0 0 1 .271-.407.445.445 0 0 1 .169-.033h2.607a.422.422 0 0 0 .422-.401v-1.96a.45.45 0 0 1 .126-.314l3.588-3.605a.445.445 0 0 1 .48-.1.439.439 0 0 1 .273.41v5.548a.425.425 0 0 0 .424.422h6.153a.438.438 0 0 1 .44.44v3.104a.434.434 0 0 1-.44.44h-6.169a.42.42 0 0 0-.406.418v8.357c0 1.21.225 1.904.776 2.396 0 0 .711.628 2.786.628h3.005a.438.438 0 0 1 .44.44v3.362a.438.438 0 0 1-.44.44l-4.285.013Zm-84.234-15.934v-3.944a.37.37 0 0 0-.378-.367c-.181 0-.357 0-.517.023-2.773.215-4.656 1.986-5.717 4.488V16.09a.37.37 0 0 0-.367-.367h-3.743a.367.367 0 0 0-.367.367v18.843a.367.367 0 0 0 .367.368h3.743a.37.37 0 0 0 .367-.368v-8.409c.311-4.027 2.527-6.156 5.678-6.422.227-.02.46-.031.696-.031a.315.315 0 0 0 .181-.062.268.268 0 0 0 .057-.191Zm-70.94-4.089h3.655a.572.572 0 0 1 .564.577v18.416a.575.575 0 0 1-.574.577h-3.324a.576.576 0 0 1-.574-.577v-2.038a7.554 7.554 0 0 1-.582.634 8.115 8.115 0 0 1-2.641 1.74 8.277 8.277 0 0 1-3.075.575 7.866 7.866 0 0 1-3.937-.955 6.54 6.54 0 0 1-2.587-2.682 8.5 8.5 0 0 1-.913-4.012V16.306a.578.578 0 0 1 .577-.577h3.324a.572.572 0 0 1 .564.567v11.122a4.77 4.77 0 0 0 .455 2.144 3.31 3.31 0 0 0 1.247 1.394 3.515 3.515 0 0 0 1.867.486 4.746 4.746 0 0 0 2.31-.579 5.742 5.742 0 0 0 1.932-1.831c.448-.661.829-1.365 1.138-2.1V16.306a.58.58 0 0 1 .574-.577Zm135.231 4.09v-3.945a.35.35 0 0 0-.028-.143.37.37 0 0 0-.347-.224c-.181 0-.357 0-.517.023-2.773.215-4.656 1.986-5.719 4.488V16.09a.367.367 0 0 0-.367-.367h-3.74a.367.367 0 0 0-.368.367v18.843a.367.367 0 0 0 .368.368h3.74a.367.367 0 0 0 .367-.367v-8.41c.31-4.027 2.53-6.156 5.691-6.422.227-.02.46-.031.698-.031a.302.302 0 0 0 .178-.062.256.256 0 0 0 .044-.192Zm-18.445-4.09h3.642a.575.575 0 0 1 .567.577v18.406a.577.577 0 0 1-.577.577h-3.324a.578.578 0 0 1-.574-.577v-2.038a8.143 8.143 0 0 1-3.22 2.374 8.296 8.296 0 0 1-3.078.575 7.866 7.866 0 0 1-3.937-.955 6.554 6.554 0 0 1-2.587-2.682 8.499 8.499 0 0 1-.91-4.012V16.296a.575.575 0 0 1 .574-.577h3.324a.577.577 0 0 1 .577.577v11.122a4.82 4.82 0 0 0 .452 2.144 3.345 3.345 0 0 0 1.247 1.394 3.54 3.54 0 0 0 1.87.487 4.754 4.754 0 0 0 2.31-.58 5.725 5.725 0 0 0 1.929-1.831c.448-.66.829-1.364 1.139-2.1V16.306a.573.573 0 0 1 .576-.577Zm-63.409.83a11.789 11.789 0 0 0-10.437 0 8.24 8.24 0 0 0-3.42 3.526c-.775 1.52-1.182 3.344-1.182 5.432 0 2.087.399 3.903 1.182 5.431a8.255 8.255 0 0 0 3.417 3.508 11.787 11.787 0 0 0 10.437 0 8.246 8.246 0 0 0 3.417-3.523c.776-1.524 1.182-3.347 1.182-5.432 0-2.085-.398-3.903-1.182-5.432a8.253 8.253 0 0 0-3.414-3.51Zm-2.37 14.62a5.135 5.135 0 0 1-2.845.776 5.248 5.248 0 0 1-2.868-.776 4.932 4.932 0 0 1-1.852-2.225 8.497 8.497 0 0 1-.647-3.445 8.509 8.509 0 0 1 .647-3.448 4.907 4.907 0 0 1 1.852-2.222c.861-.53 1.857-.8 2.868-.776a5.154 5.154 0 0 1 2.845.776 4.99 4.99 0 0 1 1.837 2.225 8.544 8.544 0 0 1 .647 3.447 8.53 8.53 0 0 1-.647 3.446 4.965 4.965 0 0 1-1.837 2.222Zm90.833-15.47h-3.355a.548.548 0 0 0-.548.548V34.75c0 .302.245.548.548.548h3.355a.548.548 0 0 0 .548-.548V16.257a.548.548 0 0 0-.548-.549Zm-121.856 5.38v13.475l-.013.19a.54.54 0 0 0 .161.387.546.546 0 0 0 .388.16h3.825a.55.55 0 0 0 .505-.338.557.557 0 0 0 .041-.21V21.111c.427-.526.948-.97 1.536-1.308a4.815 4.815 0 0 1 2.305-.57 3.549 3.549 0 0 1 1.86.48c.538.329.97.807 1.244 1.375a4.69 4.69 0 0 1 .45 2.116v11.55a.54.54 0 0 0 .161.387.542.542 0 0 0 .387.16h3.363a.55.55 0 0 0 .548-.548V22.961a8.456 8.456 0 0 0-.887-3.957 6.427 6.427 0 0 0-2.524-2.649 7.58 7.58 0 0 0-3.826-.939 7.688 7.688 0 0 0-5.561 2.282 4.511 4.511 0 0 0-.435.517 6.398 6.398 0 0 0-2.941-2.284 8.018 8.018 0 0 0-2.928-.517 7.674 7.674 0 0 0-5.558 2.28 5.067 5.067 0 0 0-.548.666v-2.088a.55.55 0 0 0-.546-.548h-3.554a.548.548 0 0 0-.549.548v18.484a.548.548 0 0 0 .549.548h3.536a.546.546 0 0 0 .548-.548V23.745a.22.22 0 0 1 .021-.101 11.99 11.99 0 0 1 1.112-2.03 5.744 5.744 0 0 1 1.924-1.811c.708-.38 1.5-.575 2.302-.57a3.558 3.558 0 0 1 1.863.48c.537.33.968.807 1.241 1.375Zm4.781.184a9.168 9.168 0 0 0-.042.056l.01.06.032-.116Zm-39.601-10.676H283.65a.405.405 0 0 0-.406.406v3.48a.392.392 0 0 0 .113.272.384.384 0 0 0 .272.113h6.839a.587.587 0 0 1 .548.365.59.59 0 0 1 .045.227v19.435a.406.406 0 0 0 .406.407h4.006a.42.42 0 0 0 .417-.42l.069-19.424a.596.596 0 0 1 .595-.59h6.764a.388.388 0 0 0 .386-.386v-3.479a.407.407 0 0 0-.396-.406Zm106.693 0a11.213 11.213 0 0 1 4.791.965 7.276 7.276 0 0 1 3.194 2.799 8.015 8.015 0 0 1 1.104 4.257 7.922 7.922 0 0 1-1.13 4.255 7.45 7.45 0 0 1-3.254 2.814 11.674 11.674 0 0 1-4.948.983h-3.675a.445.445 0 0 0-.407.272.442.442 0 0 0-.033.168v7.775a.42.42 0 0 1-.417.417h-3.939a.42.42 0 0 1-.416-.417V11.014a.416.416 0 0 1 .416-.416h8.714Zm2.157 11.601a3.627 3.627 0 0 0 1.552-1.422 4.252 4.252 0 0 0 .551-2.197 4.228 4.228 0 0 0-.517-2.128 3.519 3.519 0 0 0-1.469-1.384 4.87 4.87 0 0 0-2.271-.502h-3.766a.593.593 0 0 0-.593.593v6.95a.587.587 0 0 0 .174.418.587.587 0 0 0 .419.171h3.523a5.428 5.428 0 0 0 2.397-.499Zm68.699 21.251a.873.873 0 0 1-.871-.874v-2.693a.876.876 0 0 1 .871-.874h2.773c.473.011.94-.104 1.353-.334a3.225 3.225 0 0 0 1.053-1.034c.401-.63.747-1.294 1.034-1.984l.368-.887-7.393-17.824a.883.883 0 0 1 .073-.82.875.875 0 0 1 .721-.396h3.637a.876.876 0 0 1 .807.54l4.896 11.84 4.886-11.84a.873.873 0 0 1 .807-.54h3.598a.876.876 0 0 1 .805 1.21l-8.753 20.916a11.65 11.65 0 0 1-1.922 3.29 6.546 6.546 0 0 1-2.449 1.764 8.543 8.543 0 0 1-3.172.54h-3.122Z" clip-rule="evenodd"/></svg>