<svg xmlns="http://www.w3.org/2000/svg" width="402" height="40" fill="currentColor" viewBox="0 0 402 40"><g clip-path="url(#a)"><path fill="#00C9EA" d="M20 0a20 20 0 1 0 0 40 20 20 0 0 0 0-40Zm6.01 18.663a7.391 7.391 0 0 0-7.3 7.301v.093a4.72 4.72 0 1 1-4.72-4.72 7.303 7.303 0 0 0 7.3-7.358v-.036a4.72 4.72 0 1 1 4.72 4.72Z"/><path fill="#fff" fill-rule="evenodd" d="M57.96 30.519H72.4a.406.406 0 0 1 .399.408v4.043a.409.409 0 0 1-.406.406H56.1a5.23 5.23 0 0 1-5.222-5.222v-26.2a.406.406 0 0 1 .406-.406h4.459a.406.406 0 0 1 .406.407v24.753a1.834 1.834 0 0 0 1.81 1.81Zm67.375-24.746h4.087c.224 0 .406.182.406.406v4.086a.406.406 0 0 1-.406.406h-4.087a.406.406 0 0 1-.406-.406V6.18c0-.224.182-.406.406-.406Zm272.081 3.354h3.324a.577.577 0 0 1 .582.577V34.76a.574.574 0 0 1-.577.574h-3.324a.573.573 0 0 1-.574-.574v-1.552a7.363 7.363 0 0 1-2.327 1.723 8.462 8.462 0 0 1-8.14-.554 9.02 9.02 0 0 1-3.126-3.675 12.05 12.05 0 0 1-1.118-5.245 12.01 12.01 0 0 1 1.118-5.242 9.03 9.03 0 0 1 3.126-3.678 8.112 8.112 0 0 1 4.578-1.34 8.502 8.502 0 0 1 2.421.34 7.801 7.801 0 0 1 2.103.984c.499.334.956.727 1.36 1.172v-7.99a.575.575 0 0 1 .574-.576Zm-.574 19.216v-5.508l-.023-.125a6.08 6.08 0 0 0-1.097-1.864 5.135 5.135 0 0 0-1.704-1.278 4.958 4.958 0 0 0-2.111-.46 4.792 4.792 0 0 0-2.772.833 5.63 5.63 0 0 0-1.896 2.307 8.45 8.45 0 0 0 0 6.68 5.594 5.594 0 0 0 1.896 2.307 4.771 4.771 0 0 0 2.772.833 4.9 4.9 0 0 0 3.014-.986 5.69 5.69 0 0 0 1.898-2.617l.023-.122Zm-54.414-11.736a11.79 11.79 0 0 0-10.438 0 8.246 8.246 0 0 0-3.416 3.525c-.776 1.52-1.182 3.344-1.182 5.431s.398 3.903 1.182 5.431a8.256 8.256 0 0 0 3.416 3.523 11.79 11.79 0 0 0 10.438 0 8.239 8.239 0 0 0 3.417-3.523c.776-1.523 1.182-3.346 1.182-5.43 0-2.085-.398-3.904-1.182-5.432a8.272 8.272 0 0 0-3.417-3.525Zm-2.369 14.618c-.852.53-1.841.8-2.845.776a5.253 5.253 0 0 1-2.868-.776A4.932 4.932 0 0 1 332.494 29a8.51 8.51 0 0 1-.646-3.445 8.523 8.523 0 0 1 .646-3.447 4.92 4.92 0 0 1 1.852-2.222 5.23 5.23 0 0 1 2.868-.776 5.172 5.172 0 0 1 2.845.776 5.002 5.002 0 0 1 1.837 2.224 8.559 8.559 0 0 1 .646 3.448 8.546 8.546 0 0 1-.646 3.445 4.987 4.987 0 0 1-1.85 2.222h.013Zm14.132-15.267a18.75 18.75 0 0 1 3.737-.35c2.985 0 5.214.774 6.603 2.18 1.472 1.4 2.152 3.464 2.152 6.006v11.158a.427.427 0 0 1-.429.429h-3.598a.427.427 0 0 1-.429-.43v-2.069l-.109.12c-1.36 1.528-3.409 2.718-6.391 2.718a9.632 9.632 0 0 1-1.81-.179c-2.933-.576-5.242-2.573-5.242-5.824v-.075c0-4.193 3.362-6.262 8.237-6.262a17.116 17.116 0 0 1 5.149.748l.21.062v-.556c0-.493-.073-.983-.217-1.454-.559-1.771-2.176-2.705-4.728-2.705a13.44 13.44 0 0 0-2.113.163 15.21 15.21 0 0 0-3.176.887.432.432 0 0 1-.564-.259l-.732-2.118-.199-.58a.428.428 0 0 1 .235-.535c1.1-.471 2.243-.831 3.414-1.075Zm8.152 12.357v-1.247l.024-.077a3.766 3.766 0 0 0-.196-.07l-.089-.031a13.116 13.116 0 0 0-4.249-.672c-2.946 0-4.684 1.215-4.684 3.24v.073c0 1.88 1.686 2.948 3.879 2.948 2.398 0 4.338-1.07 5.041-2.741.165-.396.257-.819.274-1.247v-.176Zm18.785-12.262V20a.267.267 0 0 1-.057.191.336.336 0 0 1-.181.063c-.236 0-.469.01-.696.028-3.163.269-5.38 2.395-5.69 6.422v8.32a.367.367 0 0 1-.367.367h-3.559a.369.369 0 0 1-.367-.367V16.402a.371.371 0 0 1 .367-.367h3.559a.37.37 0 0 1 .367.36v3.804c1.06-2.5 2.943-4.275 5.716-4.487.173-.026.349-.026.53-.026a.364.364 0 0 1 .266.105.368.368 0 0 1 .112.262Zm-56.193 9.632a5.799 5.799 0 0 0-1.599-2.07 6.465 6.465 0 0 0-1.769-1.034.085.085 0 0 1-.044-.031.088.088 0 0 1-.018-.052.094.094 0 0 1 .015-.056.088.088 0 0 1 .045-.037c.516-.24.992-.558 1.412-.944a5.722 5.722 0 0 0 1.365-1.9 6.07 6.07 0 0 0-.594-5.83 6.79 6.79 0 0 0-3.045-2.26 12.41 12.41 0 0 0-4.595-.777h-9.257a.574.574 0 0 0-.571.572v23.535a.571.571 0 0 0 .571.572h9.849a11.756 11.756 0 0 0 4.635-.85 6.805 6.805 0 0 0 3.069-2.466 6.623 6.623 0 0 0 1.074-3.752 6.286 6.286 0 0 0-.543-2.62Zm-4.914-7.96a2.859 2.859 0 0 1-1.793 2.734 5.146 5.146 0 0 1-2.097.387h-5.018a.095.095 0 0 1-.036-.008.088.088 0 0 1-.03-.02.081.081 0 0 1-.02-.032.091.091 0 0 1-.007-.036v-5.982c0-.025.01-.049.027-.067a.097.097 0 0 1 .066-.029h5.018a5.23 5.23 0 0 1 2.1.388c.534.222.994.59 1.327 1.063a2.77 2.77 0 0 1 .45 1.601h.013Zm-9.001 7.2c0-.026.01-.05.027-.067a.097.097 0 0 1 .066-.03h5.261a5.794 5.794 0 0 1 2.276.407 3.294 3.294 0 0 1 1.451 1.148c.347.513.528 1.121.517 1.74a3.106 3.106 0 0 1-.481 1.713c-.335.51-.815.909-1.378 1.146a5.247 5.247 0 0 1-2.134.403h-5.506a.092.092 0 0 1-.066-.027.091.091 0 0 1-.028-.066l-.005-6.368ZM95.761 13.538h-4.086a.406.406 0 0 0-.406.406v13.157c.006.607-.2 1.196-.585 1.666a9.601 9.601 0 0 1-1.994 1.81 6.034 6.034 0 0 1-3.44 1.035c-1.653 0-2.933-.432-3.802-1.294-.869-.86-1.311-2.17-1.311-3.913v-12.46a.4.4 0 0 0-.249-.376.402.402 0 0 0-.154-.03h-4.09a.406.406 0 0 0-.406.405v13.1c0 2.656.805 4.831 2.39 6.466 1.586 1.634 3.815 2.46 6.621 2.46a9.352 9.352 0 0 0 4.348-1.035 10.302 10.302 0 0 0 3.217-2.522v2.556a.409.409 0 0 0 .406.406h3.543a.406.406 0 0 0 .407-.406V13.946a.405.405 0 0 0-.409-.407Zm16.286-.592a9.503 9.503 0 0 1 4.71 1.138 8.01 8.01 0 0 1 3.153 3.166 9.473 9.473 0 0 1 1.117 4.616v13.1a.41.41 0 0 1-.406.406h-4.089a.41.41 0 0 1-.406-.406V22.501c0-1.678-.479-2.97-1.41-3.856-.931-.887-2.162-1.335-3.662-1.335a6.013 6.013 0 0 0-3.44 1.035 10.163 10.163 0 0 0-1.958 1.727 2.688 2.688 0 0 0-.667 1.764V34.97a.407.407 0 0 1-.406.406h-4.086a.405.405 0 0 1-.406-.406V13.943a.404.404 0 0 1 .4-.404h3.59a.404.404 0 0 1 .406.404v2.555a10.332 10.332 0 0 1 3.215-2.516 9.382 9.382 0 0 1 4.345-1.035Zm17.375.592h-4.087a.406.406 0 0 0-.406.406V34.97c0 .224.182.406.406.406h4.087a.406.406 0 0 0 .406-.406V13.945a.406.406 0 0 0-.406-.406Zm20.023 0h-6.939a.57.57 0 0 1-.566-.566V6.724a.399.399 0 0 0-.032-.156.395.395 0 0 0-.221-.22.402.402 0 0 0-.44.092l-4.04 4.06a.392.392 0 0 0-.119.288v2.21a.57.57 0 0 1-.564.539h-2.928a.406.406 0 0 0-.401.406v3.5a.411.411 0 0 0 .401.403h3.06a.563.563 0 0 1 .439.517v10.345c0 2.418.699 4.242 2.07 5.431 1.37 1.19 3.204 1.775 5.431 1.775h4.836a.41.41 0 0 0 .287-.12.396.396 0 0 0 .119-.286v-3.79a.396.396 0 0 0-.119-.287.398.398 0 0 0-.287-.118h-3.37c-2.4 0-3.191-.722-3.199-.73-.649-.571-.913-1.373-.913-2.767v-9.407a.564.564 0 0 1 .556-.563h6.944a.41.41 0 0 0 .406-.406v-3.497a.397.397 0 0 0-.121-.287.407.407 0 0 0-.29-.116Zm61.306 8.507a10.62 10.62 0 0 1 2.512 1.404 6.474 6.474 0 0 1 1.774 2.059c.457.877.685 1.856.662 2.845a6.44 6.44 0 0 1-1.203 3.88 7.848 7.848 0 0 1-3.476 2.586c-1.492.613-3.32.923-5.431.923a14.745 14.745 0 0 1-5.367-.892 7.993 7.993 0 0 1-3.584-2.628 7.31 7.31 0 0 1-1.371-3.83.459.459 0 0 1 .137-.365.554.554 0 0 1 .391-.158h4.037a.516.516 0 0 1 .517.417c.081.633.345 1.228.758 1.714a4.279 4.279 0 0 0 1.841 1.198 7.931 7.931 0 0 0 2.587.4 7.638 7.638 0 0 0 2.633-.416 4.135 4.135 0 0 0 1.74-1.15 2.585 2.585 0 0 0 .631-1.697 2.069 2.069 0 0 0-.548-1.44 4.3 4.3 0 0 0-1.552-.991 17.201 17.201 0 0 0-2.423-.743l-2.972-.71c-2.165-.52-3.887-1.302-5.172-2.386-1.286-1.083-1.938-2.537-1.938-4.326a6.158 6.158 0 0 1 1.294-3.88 8.45 8.45 0 0 1 3.509-2.57 13.053 13.053 0 0 1 4.994-.914c1.7-.032 3.389.278 4.966.913a8.2 8.2 0 0 1 3.383 2.543 6.306 6.306 0 0 1 1.257 3.38.385.385 0 0 1-.021.158.534.534 0 0 1-.517.354h-3.955a.516.516 0 0 1-.517-.396 3.034 3.034 0 0 0-1.363-2.017c-.838-.548-1.95-.828-3.3-.828a6.777 6.777 0 0 0-2.454.404 3.55 3.55 0 0 0-1.531 1.06 2.433 2.433 0 0 0-.533 1.51c-.011.429.109.85.344 1.209.25.361.578.662.959.881.442.258.91.468 1.397.626.517.169 1.041.311 1.572.427l2.452.57a18.18 18.18 0 0 1 2.881.876Zm38.464.064h-9.518a.38.38 0 0 0-.274.115.383.383 0 0 0-.111.276v3.585a.387.387 0 0 0 .385.385h5.359a5.952 5.952 0 0 1-.703 2.266 5.153 5.153 0 0 1-2.142 2.069 7.02 7.02 0 0 1-3.295.732 6.69 6.69 0 0 1-3.675-1.02 6.769 6.769 0 0 1-2.472-2.981c-.59-1.294-.89-2.63-.89-4.511a10.1 10.1 0 0 1 .89-4.48 6.772 6.772 0 0 1 2.464-2.963 6.502 6.502 0 0 1 3.577-1.012c.7-.006 1.398.091 2.069.287a5.271 5.271 0 0 1 1.682.844c.492.375.919.83 1.264 1.344.331.504.592 1.05.776 1.622a.26.26 0 0 0 .259.189h4.234a.257.257 0 0 0 .209-.098.255.255 0 0 0 .055-.103.257.257 0 0 0 .005-.117 9.369 9.369 0 0 0-1.157-3.158 9.737 9.737 0 0 0-2.327-2.67 10.624 10.624 0 0 0-3.231-1.735 12.272 12.272 0 0 0-3.91-.61 11.811 11.811 0 0 0-4.588.885 10.558 10.558 0 0 0-3.681 2.565 11.883 11.883 0 0 0-2.436 4.092 14.385 14.385 0 0 0-.869 5.172c0 2.649.497 4.679 1.474 6.606a10.796 10.796 0 0 0 4.131 4.474c1.748 1.035 3.809 1.573 6.127 1.573a11.8 11.8 0 0 0 5.553-1.275 9.444 9.444 0 0 0 3.801-3.652c.919-1.573 1.384-3.463 1.384-5.615v-2.664a.418.418 0 0 0-.419-.417ZM187.508 10.67h4.045a.405.405 0 0 1 .406.406V34.96a.404.404 0 0 1-.403.406h-4.089a.445.445 0 0 1-.381-.217L174.84 18.363v6.318h-.026V34.97a.403.403 0 0 1-.406.406h-4.019a.407.407 0 0 1-.406-.406V11.077a.407.407 0 0 1 .406-.406h4.397a.441.441 0 0 1 .378.217l11.938 16.685V11.077a.407.407 0 0 1 .406-.406Zm87.004 0h-4.032a.405.405 0 0 0-.406.406v8.67a.598.598 0 0 1-.593.592h-11.108a.584.584 0 0 1-.419-.174.595.595 0 0 1-.173-.418v-8.67a.407.407 0 0 0-.406-.406h-4.032a.398.398 0 0 0-.285.12.405.405 0 0 0-.116.286v23.89a.412.412 0 0 0 .117.287.41.41 0 0 0 .286.12h4.032a.406.406 0 0 0 .406-.407V25.19a.587.587 0 0 1 .172-.419.591.591 0 0 1 .418-.173h11.121a.587.587 0 0 1 .548.365.59.59 0 0 1 .045.227v9.776a.403.403 0 0 0 .406.406h4.032a.407.407 0 0 0 .406-.406v-23.89a.41.41 0 0 0-.124-.292.401.401 0 0 0-.295-.114Zm3.711.013h19.656a.403.403 0 0 1 .398.406v3.479a.376.376 0 0 1-.111.274.388.388 0 0 1-.274.114h-6.763a.592.592 0 0 0-.592.59l-.07 19.423a.419.419 0 0 1-.419.416h-4.004a.41.41 0 0 1-.408-.406v-19.43a.593.593 0 0 0-.593-.592h-6.841a.387.387 0 0 1-.385-.388V11.09a.407.407 0 0 1 .406-.406Zm-113.037 0h-4.053a.406.406 0 0 0-.406.406v23.89c0 .224.182.406.406.406h4.053a.406.406 0 0 0 .406-.406V11.09a.406.406 0 0 0-.406-.406Zm54.232 0h4.053c.224 0 .406.182.406.406v23.89a.406.406 0 0 1-.406.406h-4.053a.406.406 0 0 1-.406-.406V11.09c0-.224.182-.406.406-.406Z" clip-rule="evenodd"/></g><defs><clipPath id="a"><path fill="#fff" d="M0 0h402v40H0z"/></clipPath></defs></svg>