<svg xmlns="http://www.w3.org/2000/svg" width="309" height="40" fill="currentColor" viewBox="0 0 309 40"><g clip-path="url(#a)"><path fill="#00C9EA" d="M20 0a20 20 0 1 0 0 40 20 20 0 0 0 0-40Zm6.01 18.662a7.39 7.39 0 0 0-7.3 7.3v.095a4.724 4.724 0 1 1-4.724-4.724 7.3 7.3 0 0 0 7.299-7.358v-.037a4.724 4.724 0 1 1 4.719 4.724h.005Z"/><path fill="#000" fill-rule="evenodd" d="M57.08 30.541h14.445a.405.405 0 0 1 .405.384v4.042a.405.405 0 0 1-.405.405h-16.3A5.23 5.23 0 0 1 50 30.152V3.95a.405.405 0 0 1 .405-.405h4.452a.405.405 0 0 1 .406.405v24.777a1.834 1.834 0 0 0 1.818 1.813Zm71.47-24.767h-4.09a.405.405 0 0 0-.405.406v4.09c0 .223.181.404.405.404h4.09a.405.405 0 0 0 .405-.405V6.18a.405.405 0 0 0-.405-.405Zm-33.666 7.764H90.8a.41.41 0 0 0-.41.405v13.159a2.581 2.581 0 0 1-.582 1.664 9.454 9.454 0 0 1-1.994 1.802 6.02 6.02 0 0 1-3.44 1.04c-1.652 0-2.932-.432-3.8-1.285-.87-.854-1.313-2.176-1.313-3.914V13.943a.405.405 0 0 0-.405-.405h-4.09a.405.405 0 0 0-.404.405v13.1c0 2.666.805 4.831 2.388 6.463 1.584 1.631 3.818 2.458 6.622 2.458a9.387 9.387 0 0 0 4.346-1.024 10.359 10.359 0 0 0 3.199-2.527v2.554a.405.405 0 0 0 .405.405h3.54a.405.405 0 0 0 .406-.405V13.943a.405.405 0 0 0-.384-.405Zm16.305-.592a9.541 9.541 0 0 1 4.692 1.136 8.052 8.052 0 0 1 3.13 3.167 9.43 9.43 0 0 1 1.114 4.617v13.1a.405.405 0 0 1-.405.406h-4.058a.405.405 0 0 1-.405-.405V22.5c0-1.68-.469-2.98-1.402-3.866a5.108 5.108 0 0 0-3.663-1.333 6.018 6.018 0 0 0-3.439 1.04c-.724.49-1.381 1.07-1.957 1.727a2.662 2.662 0 0 0-.666 1.765v13.133a.406.406 0 0 1-.406.405h-4.073a.405.405 0 0 1-.405-.405V13.943a.405.405 0 0 1 .405-.405h3.588a.405.405 0 0 1 .405.405v2.554a10.367 10.367 0 0 1 3.199-2.527 9.375 9.375 0 0 1 4.346-1.024Zm17.361.592h-4.09a.405.405 0 0 0-.405.405v21.024c0 .223.181.405.405.405h4.09a.405.405 0 0 0 .405-.405V13.943a.405.405 0 0 0-.405-.405Zm20.021 0h-6.931a.572.572 0 0 1-.566-.566V6.724a.4.4 0 0 0-.252-.372.405.405 0 0 0-.441.09l-4.036 4.058a.394.394 0 0 0-.117.287V13a.573.573 0 0 1-.566.533h-2.937a.405.405 0 0 0-.406.406v3.497a.405.405 0 0 0 .406.405h3.06a.572.572 0 0 1 .443.534v10.354c0 2.416.693 4.266 2.068 5.417 1.376 1.152 3.2 1.776 5.444 1.776h4.836a.405.405 0 0 0 .406-.405v-3.802a.406.406 0 0 0-.406-.405h-3.385c-2.4 0-3.2-.72-3.2-.725-.645-.576-.911-1.376-.911-2.767v-9.411a.567.567 0 0 1 .533-.56h6.931a.405.405 0 0 0 .406-.405v-3.498a.404.404 0 0 0-.379-.405Zm61.306 8.499a10.71 10.71 0 0 1 2.512 1.402 6.494 6.494 0 0 1 1.781 2.074 5.83 5.83 0 0 1 .661 2.837 6.437 6.437 0 0 1-1.211 3.865 7.812 7.812 0 0 1-3.471 2.592 14.393 14.393 0 0 1-5.454.911 14.738 14.738 0 0 1-5.364-.89 8.033 8.033 0 0 1-3.589-2.629 7.34 7.34 0 0 1-1.37-3.828.468.468 0 0 1 .139-.368.525.525 0 0 1 .389-.16h3.994a.536.536 0 0 1 .533.416 3.3 3.3 0 0 0 .762 1.717 4.206 4.206 0 0 0 1.84 1.194 7.922 7.922 0 0 0 2.596.405 7.626 7.626 0 0 0 2.634-.42 4.143 4.143 0 0 0 1.739-1.147 2.61 2.61 0 0 0 .634-1.701 2.076 2.076 0 0 0-.533-1.44 4.352 4.352 0 0 0-1.562-.986c-.789-.308-1.6-.558-2.426-.747l-2.97-.709a12.487 12.487 0 0 1-5.183-2.388 5.376 5.376 0 0 1-1.935-4.325 6.133 6.133 0 0 1 1.295-3.87 8.411 8.411 0 0 1 3.509-2.57 12.98 12.98 0 0 1 4.996-.912 12.589 12.589 0 0 1 4.964.912 8.18 8.18 0 0 1 3.38 2.543 6.273 6.273 0 0 1 1.258 3.38.271.271 0 0 1 0 .155.528.528 0 0 1-.506.357h-3.956a.534.534 0 0 1-.534-.394 3.048 3.048 0 0 0-1.364-2.016 5.964 5.964 0 0 0-3.301-.826 6.744 6.744 0 0 0-2.458.4 3.571 3.571 0 0 0-1.53 1.066c-.342.429-.53.96-.533 1.509-.011.427.11.848.346 1.205.249.364.577.667.96.885.442.256.911.465 1.397.624.533.17 1.066.314 1.599.432l2.453.57c.982.211 1.946.504 2.879.875Zm38.465.07h-9.518a.384.384 0 0 0-.384.383v3.583a.385.385 0 0 0 .384.384h5.332a5.938 5.938 0 0 1-.704 2.266 5.177 5.177 0 0 1-2.132 2.069 7.01 7.01 0 0 1-3.29.73 6.4 6.4 0 0 1-6.148-3.993 10.252 10.252 0 0 1-.89-4.511 10.058 10.058 0 0 1 .896-4.479 6.788 6.788 0 0 1 2.463-2.965 6.479 6.479 0 0 1 3.578-1.013 7.292 7.292 0 0 1 2.068.288c.607.18 1.177.466 1.685.843.49.378.917.831 1.264 1.343.335.504.599 1.051.784 1.627a.277.277 0 0 0 .261.186h4.228a.281.281 0 0 0 .208-.096.264.264 0 0 0 .059-.224 9.454 9.454 0 0 0-1.157-3.156 9.663 9.663 0 0 0-2.325-2.666 10.674 10.674 0 0 0-3.231-1.738 12.262 12.262 0 0 0-3.908-.608 11.812 11.812 0 0 0-4.575.88 10.528 10.528 0 0 0-3.679 2.57 11.837 11.837 0 0 0-2.437 4.09 14.397 14.397 0 0 0-.869 5.166 13.92 13.92 0 0 0 1.472 6.606 10.796 10.796 0 0 0 4.111 4.479 12.72 12.72 0 0 0 11.676.298 9.434 9.434 0 0 0 3.807-3.652 10.99 10.99 0 0 0 1.381-5.588v-2.666a.404.404 0 0 0-.11-.307.412.412 0 0 0-.3-.13Zm-61.717-11.438h4.047a.407.407 0 0 1 .389.405v23.882a.406.406 0 0 1-.405.405h-4.084a.434.434 0 0 1-.379-.213l-12.263-16.78v16.588a.406.406 0 0 1-.406.405h-4.02a.405.405 0 0 1-.405-.405V11.074a.406.406 0 0 1 .405-.405h4.404a.447.447 0 0 1 .379.213l11.933 16.684V11.074a.405.405 0 0 1 .405-.405Zm87.011 0h-4.031a.405.405 0 0 0-.405.405v8.665a.592.592 0 0 1-.592.591h-11.106a.59.59 0 0 1-.592-.591v-8.665a.405.405 0 0 0-.405-.405h-4.02a.405.405 0 0 0-.406.405v23.882a.406.406 0 0 0 .406.405h4.031a.405.405 0 0 0 .405-.405v-9.747a.591.591 0 0 1 .592-.592h11.106a.593.593 0 0 1 .592.592v9.774a.405.405 0 0 0 .405.405h4.031a.405.405 0 0 0 .405-.405V11.074a.407.407 0 0 0-.416-.405Zm3.727.021h19.632a.406.406 0 0 1 .395.406v3.476a.383.383 0 0 1-.384.384h-6.755a.593.593 0 0 0-.592.592l-.07 19.403a.42.42 0 0 1-.26.385.417.417 0 0 1-.161.03h-3.999a.405.405 0 0 1-.405-.405V15.548a.591.591 0 0 0-.592-.592h-6.83a.383.383 0 0 1-.384-.384v-3.476a.406.406 0 0 1 .405-.406Zm-113.052 0h-4.047a.405.405 0 0 0-.405.406v23.86c0 .224.181.405.405.405h4.047a.405.405 0 0 0 .405-.405v-23.86a.405.405 0 0 0-.405-.406Zm54.236 0h4.047c.224 0 .405.182.405.406v23.86a.405.405 0 0 1-.405.405h-4.047a.405.405 0 0 1-.405-.405v-23.86c0-.224.181-.406.405-.406Zm89.539 2.304a4.036 4.036 0 0 0-2.138-2.133 4.065 4.065 0 0 0-3.109 0 4.05 4.05 0 0 0-2.133 2.133 4.077 4.077 0 0 0 0 3.114c.205.475.498.908.864 1.274s.798.657 1.275.858a4.061 4.061 0 0 0 3.108 0 4.061 4.061 0 0 0 2.138-2.133 4.068 4.068 0 0 0 0-3.113h-.005Zm-1.12 3.055c-.26.44-.626.807-1.066 1.066a3.01 3.01 0 0 1-2.997 0 3.086 3.086 0 0 1-1.066-1.066 2.86 2.86 0 0 1-.4-1.493 2.89 2.89 0 0 1 .4-1.498c.26-.44.626-.807 1.066-1.067a3.01 3.01 0 0 1 2.997 0c.44.26.806.627 1.066 1.067a3.007 3.007 0 0 1 0 2.996v-.005Zm-.954-2.18c.008.238-.055.474-.182.676-.104.159-.245.29-.41.384l.725 1.43h-1.002l-.598-1.243h-.677v1.242h-.911v-3.69h1.828c.205 0 .407.046.592.134a1.137 1.137 0 0 1 .635 1.066Zm-1.493.575a.532.532 0 0 0 .522-.576.47.47 0 0 0-.165-.416.57.57 0 0 0-.341-.122h-.667v1.114h.651Z" clip-rule="evenodd"/></g><defs><clipPath id="a"><path fill="#fff" d="M0 0h309v40H0z"/></clipPath></defs></svg>