<svg width="434" height="40" viewBox="0 0 434 40" fill="none" xmlns="http://www.w3.org/2000/svg">
<g clip-path="url(#clip0_12877_12743)">
<path d="M319.973 33.4022L320 10.648C320 10.3955 319.802 10.2395 319.606 10.2395H314.256C314.088 10.2395 313.937 10.346 313.88 10.5044L306.79 28.228C306.77 28.28 306.73 28.3072 306.683 28.3196C306.639 28.3072 306.597 28.2825 306.577 28.228L299.486 10.5044C299.429 10.346 299.278 10.2395 299.11 10.2395H293.532C293.334 10.2395 293.166 10.3831 293.139 10.5787L293.144 33.3997C293.144 33.63 293.295 33.8577 293.537 33.8577H297.068C297.271 33.8577 297.464 33.6919 297.464 33.5037L297.446 17.7112C297.464 17.5503 297.687 17.523 297.743 17.6765L304.359 33.5978C304.416 33.7562 304.567 33.8602 304.732 33.8602H308.632C308.8 33.8602 308.949 33.7562 309.005 33.5978L315.621 17.6765C315.675 17.523 315.9 17.5503 315.918 17.7112L315.9 33.5037C315.9 33.6993 316.093 33.8577 316.296 33.8577H319.577C319.819 33.8577 319.97 33.6597 319.97 33.3997L319.973 33.4022Z" fill="black"/>
<path d="M335.421 33.6671L335.56 33.6597L335.421 33.677V33.6671Z" fill="black"/>
<path d="M329.316 34.1277C328.737 34.1277 328.15 34.0707 327.571 33.9568C324.464 33.3453 322.533 31.1989 322.533 28.3543V28.285C322.533 24.46 325.412 22.2641 330.43 22.2641C331.48 22.2641 332.445 22.3433 333.379 22.5067C334.022 22.6181 334.646 22.7691 335.349 22.9795L335.461 23.0117V22.576C335.451 22.0809 335.384 21.6229 335.253 21.2144C334.733 19.5655 333.203 18.6941 330.826 18.6941C330.143 18.6941 329.489 18.7436 328.828 18.8476C327.848 19.0011 326.907 19.266 325.778 19.7067C325.729 19.7265 325.674 19.7364 325.62 19.7364C325.437 19.7364 325.276 19.6225 325.216 19.4492L324.298 16.7928C324.224 16.5798 324.328 16.3446 324.536 16.258C325.709 15.7629 326.756 15.4311 327.833 15.2132C328.942 14.988 330.108 14.879 331.398 14.879C334.178 14.879 336.367 15.5995 337.731 16.9636C339.103 18.2658 339.798 20.2018 339.798 22.7196V33.3181C339.798 33.5533 339.608 33.7464 339.37 33.7464H335.85C335.614 33.7464 335.421 33.5558 335.421 33.3181V31.548C333.881 33.2612 331.826 34.1301 329.316 34.1301V34.1277ZM331.292 25.0963C328.549 25.0963 326.91 26.2227 326.91 28.1067V28.1761C326.91 29.81 328.368 30.9068 330.539 30.9068C332.71 30.9068 334.602 29.9239 335.265 28.3444C335.416 27.9829 335.503 27.5918 335.523 27.1858C335.523 27.1635 335.525 27.1387 335.528 27.1164C335.528 27.0843 335.533 27.0546 335.533 27.0224V25.8118C335.483 25.7944 335.307 25.7325 335.307 25.7325C334.099 25.3166 332.71 25.0963 331.294 25.0963H331.292Z" fill="black"/>
<path d="M375.089 33.6671L375.228 33.6597L375.089 33.677V33.6671Z" fill="black"/>
<path d="M368.982 34.1277C368.403 34.1277 367.816 34.0707 367.237 33.9568C364.13 33.3453 362.198 31.1989 362.198 28.3543V28.285C362.198 24.46 365.078 22.2641 370.096 22.2641C371.146 22.2641 372.111 22.3433 373.045 22.5067C373.688 22.6181 374.312 22.7691 375.015 22.9795L375.127 23.0117V22.576C375.117 22.0809 375.05 21.6229 374.919 21.2144C374.399 19.5655 372.869 18.6941 370.492 18.6941C369.809 18.6941 369.155 18.7436 368.494 18.8476C367.514 19.0011 366.573 19.266 365.444 19.7067C365.395 19.7265 365.34 19.7364 365.286 19.7364C365.102 19.7364 364.942 19.6225 364.882 19.4492L363.964 16.7928C363.889 16.5798 363.993 16.3446 364.201 16.258C365.375 15.7629 366.422 15.4311 367.499 15.2132C368.608 14.988 369.774 14.879 371.064 14.879C373.844 14.879 376.033 15.5995 377.397 16.9636C378.768 18.2658 379.464 20.2018 379.464 22.7196V33.3181C379.464 33.5533 379.273 33.7464 379.036 33.7464H375.515C375.28 33.7464 375.087 33.5558 375.087 33.3181V31.548C373.547 33.2612 371.492 34.1301 368.982 34.1301V34.1277ZM370.958 25.0963C368.214 25.0963 366.576 26.2227 366.576 28.1067V28.1761C366.576 29.81 368.034 30.9068 370.205 30.9068C372.376 30.9068 374.268 29.9239 374.931 28.3444C375.082 27.9829 375.169 27.5918 375.189 27.1858C375.189 27.1635 375.191 27.1387 375.193 27.1164C375.193 27.0843 375.198 27.0546 375.198 27.0224V25.8118C375.149 25.7944 374.973 25.7325 374.973 25.7325C373.765 25.3166 372.376 25.0963 370.96 25.0963H370.958Z" fill="black"/>
<path d="M412.304 34.192C406.677 34.192 402.592 30.1665 402.592 24.6185V24.5491C402.592 19.0729 406.568 14.9409 411.839 14.9409C418.107 14.9409 420.912 19.922 420.912 24.8611C420.912 25.1532 420.89 25.4429 420.868 25.7152C420.85 25.9355 420.662 26.1088 420.442 26.1088H407.288C407.227 26.1088 407.17 26.1361 407.132 26.1831C407.095 26.2301 407.08 26.2871 407.09 26.344C407.623 28.9807 409.648 30.6171 412.374 30.6171C414.23 30.6171 415.669 30.0353 417.181 28.6687C417.263 28.5969 417.365 28.5548 417.474 28.5548C417.575 28.5548 417.672 28.592 417.748 28.6563L419.756 30.3943C419.843 30.471 419.897 30.58 419.905 30.6963C419.912 30.8127 419.872 30.9216 419.796 31.0058C417.867 33.12 415.344 34.1895 412.299 34.1895L412.304 34.192ZM411.807 18.5158C409.366 18.5158 407.543 20.2216 407.051 22.9647C407.041 23.0216 407.056 23.0786 407.093 23.1231C407.132 23.1702 407.189 23.1974 407.249 23.1974H416.265C416.325 23.1974 416.382 23.1726 416.419 23.1256C416.456 23.081 416.473 23.0266 416.466 22.9696C416.065 20.2216 414.28 18.5134 411.804 18.5134L411.807 18.5158Z" fill="black"/>
<path d="M356.4 33.7291C356.158 33.7291 355.96 33.531 355.96 33.2884V22.2467C355.96 21.4644 355.811 20.7712 355.519 20.1869C355.227 19.6052 354.818 19.1521 354.301 18.8377C353.784 18.5257 353.17 18.3673 352.479 18.3673C351.677 18.3673 350.922 18.5555 350.238 18.9219C349.555 19.2907 348.926 19.88 348.372 20.6747C347.993 21.2168 347.634 21.8729 347.3 22.628C347.282 22.6676 347.272 22.7122 347.272 22.7567V33.2834C347.272 33.5261 347.074 33.7241 346.832 33.7241H343.594C343.351 33.7241 343.153 33.5261 343.153 33.2834V15.7158C343.153 15.4732 343.351 15.2751 343.594 15.2751H346.847C347.089 15.2751 347.287 15.4732 347.287 15.7158V17.6617C347.292 17.6939 347.312 17.7459 347.332 17.7459C347.337 17.7459 347.359 17.7459 347.396 17.7137C347.565 17.476 347.735 17.2458 347.948 17.0378C348.684 16.3149 349.501 15.7703 350.377 15.4138C351.256 15.0573 352.209 14.879 353.207 14.879C354.583 14.879 355.801 15.1786 356.826 15.7678C357.851 16.3595 358.653 17.2012 359.21 18.2683C359.765 19.3353 360.047 20.5979 360.047 22.0165V33.2909C360.047 33.5335 359.849 33.7315 359.606 33.7315H356.403L356.4 33.7291Z" fill="black"/>
<path d="M391.285 40C389.624 40 388.154 39.7648 386.913 39.2994C385.668 38.8315 384.68 38.1383 383.98 37.2371C383.356 36.435 382.984 35.4917 382.88 34.4346C382.868 34.3133 382.908 34.1969 382.992 34.1053C383.076 34.0113 383.197 33.9568 383.324 33.9568H386.698C386.901 33.9568 387.074 34.0979 387.129 34.3108C387.295 34.9669 387.715 35.5041 388.384 35.9076C389.154 36.3756 390.199 36.6108 391.484 36.6108C393.028 36.6108 394.246 36.1924 395.101 35.3704C395.957 34.546 396.39 33.3923 396.39 31.9366V30.3274C396.39 30.2482 396.373 30.2309 396.373 30.2309C396.326 30.2309 396.291 30.2729 396.281 30.2952L396.202 30.4363L396.187 30.3893C395.598 31.08 394.87 31.6321 394.021 32.0332C392.989 32.5209 391.867 32.7709 390.689 32.7709C389.047 32.7709 387.589 32.4045 386.356 31.6841C385.123 30.9612 384.16 29.9189 383.492 28.587C382.826 27.2551 382.489 25.6706 382.489 23.8782C382.489 22.0858 382.838 20.4617 383.527 19.1174C384.215 17.7731 385.208 16.7209 386.473 15.9856C387.738 15.2528 389.236 14.8815 390.922 14.8815C391.34 14.8815 391.776 14.9038 392.221 14.9483C392.479 14.9706 394.769 15.2157 396.242 17.2458C396.272 17.2879 396.306 17.3126 396.336 17.3126C396.348 17.3126 396.361 17.3077 396.371 17.2978C396.393 17.273 396.403 17.2309 396.398 17.1764V15.6737C396.408 15.4336 396.601 15.2479 396.838 15.2479H400.077C400.319 15.2479 400.517 15.4459 400.517 15.6885V31.4761C400.517 33.2265 400.146 34.7614 399.413 36.0389C398.68 37.3163 397.603 38.3066 396.215 38.9874C394.828 39.6633 393.172 40.0074 391.29 40.0074L391.285 40ZM391.583 18.0677C390.563 18.0677 389.664 18.3054 388.916 18.7708C388.169 19.2387 387.579 19.9096 387.168 20.7662C386.755 21.6278 386.544 22.6502 386.544 23.8064C386.544 24.9625 386.755 26.0197 387.168 26.8787C387.579 27.7353 388.169 28.4087 388.916 28.8742C389.664 29.3396 390.563 29.5773 391.583 29.5773C392.32 29.5773 393.021 29.4287 393.66 29.1366C394.298 28.8445 394.86 28.4211 395.328 27.8765C395.742 27.3962 396.069 26.8317 396.304 26.1979C396.361 26.0469 396.388 25.8761 396.388 25.6954V21.957C396.388 21.7763 396.358 21.6055 396.304 21.452C396.069 20.8182 395.739 20.2538 395.328 19.7735C394.86 19.2313 394.298 18.8055 393.66 18.5133C393.018 18.2212 392.32 18.0727 391.583 18.0727V18.0677Z" fill="black"/>
<path d="M423.64 33.7291C423.405 33.7291 423.212 33.5384 423.212 33.3008V15.6465C423.212 15.4113 423.403 15.2182 423.64 15.2182H427.109C427.344 15.2182 427.537 15.4088 427.537 15.6465V19.0283C428.706 16.518 430.6 15.0969 433.036 14.9112C433.207 14.8989 433.38 14.889 433.556 14.8865C433.801 14.8865 433.994 15.0796 433.994 15.3148V19.162C433.994 19.162 434.001 19.3155 433.9 19.4022C433.813 19.474 433.694 19.4789 433.682 19.4789C433.452 19.4789 433.224 19.4888 433.006 19.5061C429.812 19.7785 427.817 22.0388 427.535 25.7053V33.3033C427.535 33.5385 427.344 33.7316 427.106 33.7316H423.638L423.64 33.7291Z" fill="black"/>
<path d="M19.1446 0C8.5709 0 0 8.5709 0 19.1446C0 29.7184 8.5709 38.2893 19.1446 38.2893C29.7184 38.2893 38.2893 29.7184 38.2893 19.1446C38.2893 8.5709 29.7184 0 19.1446 0ZM24.8982 17.8647C21.0559 17.9142 17.9563 21.0163 17.9093 24.8536H17.9068C17.9068 24.8833 17.9068 24.913 17.9068 24.9427C17.9068 27.4383 15.8841 29.4609 13.3886 29.4609C10.8931 29.4609 8.87046 27.4383 8.87046 24.9427C8.87046 22.4472 10.8931 20.4246 13.3886 20.4246H13.3911C15.2528 20.4246 17.0378 19.6794 18.3499 18.3574C19.6621 17.0353 20.3924 15.2429 20.3775 13.3812C20.3775 13.3688 20.3775 13.3589 20.3775 13.3465C20.3775 10.851 22.4002 8.82837 24.8957 8.82837C27.3912 8.82837 29.4139 10.851 29.4139 13.3465C29.4139 15.842 27.3912 17.8647 24.8957 17.8647H24.8982Z" fill="#00C9EA"/>
<path d="M123.887 5.52576H119.975C119.76 5.52576 119.586 5.69978 119.586 5.91444V9.82606C119.586 10.0407 119.76 10.2147 119.975 10.2147H123.887C124.101 10.2147 124.275 10.0407 124.275 9.82606V5.91444C124.275 5.69978 124.101 5.52576 123.887 5.52576Z" fill="black"/>
<path d="M91.6656 12.9603H87.7515C87.5386 12.9603 87.3628 13.1336 87.3628 13.349V25.9454C87.3628 26.5421 87.1647 27.109 86.8033 27.5398C86.2561 28.1983 85.6124 28.7776 84.892 29.2653C83.9141 29.9263 82.8075 30.263 81.5993 30.263C80.0174 30.263 78.7944 29.8471 77.9625 29.0301C77.1307 28.2132 76.7073 26.953 76.7073 25.2844V13.349C76.7073 13.1361 76.534 12.9603 76.3186 12.9603H72.4045C72.1892 12.9603 72.0159 13.1336 72.0159 13.349V25.8885C72.0159 28.431 72.7858 30.5131 74.3034 32.0753C75.821 33.6374 77.9551 34.4297 80.6412 34.4297C82.144 34.4297 83.5452 34.1004 84.8004 33.4493C86.0407 32.8081 87.0756 31.996 87.8802 31.0305V33.4765C87.8802 33.6919 88.0535 33.8652 88.2689 33.8652H91.6606C91.8735 33.8652 92.0493 33.6919 92.0493 33.4765V13.349C92.0493 13.1361 91.876 12.9603 91.6606 12.9603H91.6656Z" fill="black"/>
<path d="M111.763 13.4827C110.476 12.7598 108.958 12.3934 107.255 12.3934C105.752 12.3934 104.354 12.7227 103.096 13.3738C101.856 14.015 100.821 14.8295 100.016 15.7926V13.3466C100.016 13.1337 99.8428 12.9579 99.6275 12.9579H96.1912C95.9758 12.9579 95.8025 13.1312 95.8025 13.3466V33.4716C95.8025 33.6845 95.9758 33.8603 96.1912 33.8603H100.105C100.321 33.8603 100.494 33.687 100.494 33.4716V20.9C100.494 20.281 100.722 19.6819 101.133 19.2115C101.682 18.5827 102.311 18.0257 103.007 17.5578C103.985 16.8967 105.091 16.56 106.299 16.56C107.735 16.56 108.916 16.9908 109.808 17.8375C110.696 18.6842 111.149 19.932 111.149 21.5387V33.4716C111.149 33.6845 111.323 33.8603 111.538 33.8603H115.452C115.668 33.8603 115.841 33.687 115.841 33.4716V20.9321C115.841 19.2858 115.482 17.7979 114.774 16.5105C114.066 15.2232 113.053 14.2056 111.768 13.4827H111.763Z" fill="black"/>
<path d="M119.975 12.9603H123.889C124.105 12.9603 124.278 13.1336 124.278 13.349V33.474C124.278 33.6894 124.105 33.8627 123.889 33.8627H119.975C119.76 33.8627 119.586 33.6894 119.586 33.474V13.349C119.586 13.1336 119.76 12.9603 119.975 12.9603Z" fill="black"/>
<path d="M69.305 29.2159H55.4831C54.5324 29.2109 53.7501 28.4336 53.7427 27.4829V3.78541C53.7427 3.57003 53.5694 3.39673 53.354 3.39673H49.0933C48.8779 3.39673 48.7046 3.57003 48.7046 3.78541V28.8643C48.7046 31.6198 50.9476 33.8628 53.703 33.8628H69.305C69.5203 33.8628 69.6936 33.6895 69.6936 33.4741V29.6046C69.6936 29.3917 69.5203 29.2159 69.305 29.2159Z" fill="black"/>
<path d="M143.054 12.9604H136.421C136.124 12.9604 135.879 12.7177 135.879 12.4182V6.43935C135.877 6.19673 135.679 6.05066 135.485 6.05066C135.384 6.05066 135.287 6.09275 135.213 6.16702L131.346 10.0539C131.274 10.1281 131.232 10.2247 131.232 10.3287V12.4454C131.217 12.7326 130.98 12.9604 130.693 12.9604H127.883C127.67 12.9604 127.494 13.1337 127.494 13.349V16.6962C127.494 16.9116 127.667 17.0849 127.883 17.0849H130.809C131.044 17.1369 131.217 17.3424 131.232 17.5825V27.4952C131.232 29.81 131.901 31.5554 133.215 32.6818C134.53 33.8108 136.283 34.3802 138.422 34.3802H143.051C143.267 34.3802 143.44 34.2069 143.44 33.9915V30.3572C143.44 30.1418 143.267 29.9685 143.051 29.9685H139.813C137.518 29.9685 136.758 29.2777 136.751 29.2703C136.129 28.7232 135.877 27.9557 135.877 26.6213V17.6147C135.879 17.3226 136.112 17.0874 136.404 17.0775H143.051C143.267 17.0775 143.44 16.9042 143.44 16.6888V13.3416C143.44 13.1287 143.267 12.9529 143.051 12.9529L143.054 12.9604Z" fill="black"/>
<path d="M204.142 22.4473C203.434 21.91 202.624 21.457 201.738 21.103C200.857 20.7514 199.928 20.4692 198.98 20.2662L196.633 19.7215C196.13 19.6101 195.623 19.4715 195.128 19.3081C194.64 19.1471 194.19 18.9441 193.791 18.7089C193.402 18.4787 193.093 18.1965 192.87 17.8647C192.652 17.5429 192.541 17.1542 192.541 16.7086C192.548 16.1689 192.719 15.6836 193.051 15.2628C193.385 14.8394 193.878 14.4978 194.516 14.2477C195.162 13.9952 195.955 13.8665 196.866 13.8665C198.161 13.8665 199.223 14.1338 200.025 14.6612C200.728 15.1216 201.166 15.7703 201.329 16.5873C201.374 16.8076 201.582 16.966 201.827 16.966L205.612 16.9586C205.838 16.9586 206.023 16.8274 206.103 16.6194C206.117 16.5749 206.125 16.5254 206.12 16.4684C206.031 15.2578 205.625 14.171 204.917 13.2352C204.134 12.2028 203.045 11.3833 201.681 10.8015C200.322 10.2222 198.723 9.92761 196.928 9.92761C195.133 9.92761 193.551 10.2222 192.147 10.8015C190.738 11.3833 189.607 12.2127 188.788 13.2624C187.963 14.3195 187.547 15.5673 187.547 16.9685C187.547 18.6792 188.171 20.0731 189.402 21.1079C190.612 22.1254 192.281 22.8929 194.363 23.3905L197.207 24.0713C198.089 24.2818 198.869 24.5194 199.527 24.7819C200.168 25.0369 200.671 25.3562 201.022 25.7301C201.362 26.0915 201.537 26.5545 201.547 27.1065C201.54 27.7255 201.337 28.2726 200.946 28.7331C200.547 29.201 199.985 29.5699 199.277 29.8323C198.559 30.0972 197.712 30.2334 196.759 30.2334C195.806 30.2334 195.009 30.1046 194.274 29.8472C193.551 29.5946 192.957 29.2109 192.511 28.7009C192.13 28.2677 191.885 27.7131 191.786 27.0595C191.751 26.8317 191.536 26.6609 191.286 26.6609L187.421 26.6683C187.28 26.6683 187.144 26.7228 187.047 26.8218C186.951 26.9184 186.906 27.0422 186.916 27.1709C187.035 28.5969 187.478 29.8323 188.228 30.8374C189.047 31.9366 190.201 32.7833 191.659 33.3552C193.105 33.9222 194.836 34.2093 196.796 34.2093C198.757 34.2093 200.567 33.9123 201.998 33.3255C203.439 32.7363 204.558 31.8995 205.325 30.8424C206.093 29.7828 206.484 28.54 206.484 27.1462C206.484 26.1163 206.271 25.2002 205.853 24.4303C205.434 23.6604 204.86 22.9944 204.147 22.4522L204.142 22.4473Z" fill="black"/>
<path d="M238.557 21.1648H229.446C229.243 21.1648 229.077 21.3307 229.077 21.5337V24.9625C229.077 25.1655 229.243 25.3314 229.446 25.3314H234.576C234.484 26.136 234.259 26.8663 233.905 27.4977C233.427 28.3493 232.736 29.0153 231.852 29.4782C230.966 29.9412 229.907 30.1764 228.698 30.1764C227.366 30.1764 226.183 29.8496 225.178 29.2034C224.173 28.5573 223.378 27.5992 222.814 26.3539C222.247 25.1061 221.96 23.8386 221.96 22.0362C221.96 20.2339 222.249 18.9936 222.819 17.7483C223.388 16.5055 224.183 15.5524 225.178 14.9112C226.176 14.2699 227.327 13.9456 228.602 13.9456C229.312 13.9456 229.981 14.0372 230.582 14.2204C231.184 14.4012 231.726 14.6735 232.192 15.0275C232.66 15.3815 233.066 15.8148 233.402 16.3124C233.712 16.7729 233.967 17.2953 234.155 17.8672C234.189 17.9761 234.291 18.0479 234.402 18.0479H238.455C238.532 18.0479 238.606 18.0132 238.656 17.9538C238.705 17.8944 238.725 17.8176 238.713 17.7434C238.519 16.6516 238.146 15.6365 237.606 14.7205C237.027 13.7401 236.277 12.8811 235.378 12.1681C234.479 11.4551 233.439 10.8956 232.288 10.5069C231.137 10.1182 229.877 9.92261 228.545 9.92261C226.97 9.92261 225.492 10.2073 224.151 10.7668C222.809 11.3263 221.625 12.1532 220.628 13.2252C219.632 14.2947 218.848 15.6118 218.295 17.1418C217.743 18.6693 217.464 20.1473 217.464 22.0882C217.464 24.6234 217.939 26.5668 218.875 28.4112C219.811 30.2581 221.135 31.6989 222.809 32.6991C224.482 33.6993 226.455 34.2068 228.674 34.2068C230.664 34.2068 232.452 33.7958 233.989 32.9838C235.526 32.1718 236.752 30.9958 237.631 29.4906C238.51 27.9829 238.955 26.1756 238.955 24.1158V21.5683C238.955 21.348 238.777 21.1697 238.557 21.1697V21.1648Z" fill="black"/>
<path d="M183.361 10.2147H179.484C179.269 10.2147 179.095 10.388 179.095 10.6034V19.6843L179.1 22.0362V26.391L167.672 10.4202C167.596 10.2939 167.457 10.2147 167.308 10.2147H163.095C162.879 10.2147 162.706 10.388 162.706 10.6034V33.4715C162.706 33.6869 162.879 33.8602 163.095 33.8602H166.944C167.16 33.8602 167.333 33.6869 167.333 33.4715V23.6232H167.36V17.5849L179.083 33.6522C179.16 33.7785 179.298 33.8577 179.447 33.8577H183.361C183.576 33.8577 183.75 33.6844 183.75 33.469V10.6034C183.75 10.388 183.576 10.2147 183.361 10.2147Z" fill="black"/>
<path d="M262.771 10.2147H258.914C258.699 10.2147 258.526 10.388 258.526 10.6034V18.902C258.526 19.2139 258.273 19.4689 257.959 19.4689H247.323C247.011 19.4689 246.756 19.2139 246.756 18.902V10.6034C246.756 10.388 246.583 10.2147 246.367 10.2147H242.508C242.292 10.2147 242.119 10.388 242.119 10.6034V33.4715C242.119 33.6869 242.292 33.8602 242.508 33.8602H246.367C246.583 33.8602 246.756 33.6869 246.756 33.4715V24.1109C246.756 23.7989 247.011 23.5439 247.323 23.5439H257.956C258.271 23.5439 258.523 23.7989 258.523 24.1109V33.4715C258.523 33.6869 258.696 33.8602 258.912 33.8602H262.769C262.984 33.8602 263.158 33.6869 263.158 33.4715V10.6034C263.158 10.388 262.984 10.2147 262.769 10.2147H262.771Z" fill="black"/>
<path d="M285.14 10.2272H266.324C266.109 10.2272 265.936 10.4005 265.936 10.6159V13.9457C265.936 14.1487 266.101 14.3146 266.304 14.3146H272.85C273.165 14.3146 273.417 14.5696 273.417 14.8815L273.427 33.484C273.427 33.6994 273.6 33.8727 273.816 33.8727H277.651C277.871 33.8727 278.049 33.6944 278.049 33.4741L278.116 14.8815C278.116 14.5696 278.371 14.317 278.683 14.317H285.157C285.36 14.317 285.526 14.1512 285.526 13.9482V10.6183C285.526 10.4029 285.353 10.2296 285.137 10.2296L285.14 10.2272Z" fill="black"/>
<path d="M154.241 10.2272H158.121C158.336 10.2272 158.51 10.4005 158.51 10.6159V33.484C158.51 33.6994 158.336 33.8727 158.121 33.8727H154.241C154.026 33.8727 153.853 33.6994 153.853 33.484V10.6159C153.853 10.4005 154.026 10.2272 154.241 10.2272Z" fill="black"/>
<path d="M210.034 10.2272H213.913C214.129 10.2272 214.302 10.4005 214.302 10.6159V33.484C214.302 33.6994 214.129 33.8727 213.913 33.8727H210.034C209.819 33.8727 209.645 33.6994 209.645 33.484V10.6159C209.645 10.4005 209.819 10.2272 210.034 10.2272Z" fill="black"/>
</g>
<defs>
<clipPath id="clip0_12877_12743">
<rect width="433.996" height="40" fill="white"/>
</clipPath>
</defs>
</svg>
