<svg width="419" height="44" viewBox="0 0 419 44" fill="none" xmlns="http://www.w3.org/2000/svg">
<g clip-path="url(#clip0_13065_12742)">
<path d="M20.0022 0C16.0462 0 12.1789 1.17311 8.88959 3.37098C5.60024 5.56886 3.03651 8.69278 1.52259 12.3477C0.00866666 16.0026 -0.387444 20.0244 0.384346 23.9045C1.15614 27.7845 3.06116 31.3486 5.85853 34.1459C8.65589 36.9433 12.2199 38.8483 16.1 39.6201C19.98 40.3919 24.0018 39.9958 27.6568 38.4819C31.3117 36.968 34.4356 34.4042 36.6335 31.1149C38.8314 27.8255 40.0045 23.9583 40.0045 20.0022C40.0045 14.6973 37.8971 9.60966 34.1459 5.85852C30.3948 2.10737 25.3072 0 20.0022 0ZM26.0135 18.665C24.0842 18.6884 22.2405 19.4653 20.8762 20.8296C19.5119 22.194 18.735 24.0376 18.7115 25.9669C18.7115 25.998 18.7115 26.029 18.7115 26.0601C18.7115 26.9937 18.4347 27.9064 17.916 28.6827C17.3973 29.459 16.66 30.064 15.7974 30.4213C14.9349 30.7786 13.9857 30.8721 13.07 30.6899C12.1543 30.5078 11.3132 30.0582 10.653 29.398C9.99284 28.7378 9.54325 27.8967 9.36111 26.981C9.17897 26.0653 9.27245 25.1161 9.62974 24.2536C9.98703 23.391 10.5921 22.6538 11.3684 22.1351C12.1447 21.6164 13.0573 21.3395 13.991 21.3395C14.9546 21.3392 15.9086 21.1482 16.7981 20.7776C17.6876 20.4069 18.495 19.864 19.1737 19.18C19.8524 18.4959 20.3891 17.6844 20.7528 16.792C21.1166 15.8997 21.3001 14.9442 21.293 13.9806V13.9444C21.293 13.0108 21.5698 12.0981 22.0885 11.3218C22.6072 10.5455 23.3445 9.94046 24.207 9.58317C25.0696 9.22588 26.0187 9.1324 26.9344 9.31454C27.8501 9.49669 28.6913 9.94628 29.3514 10.6065C30.0116 11.2666 30.4612 12.1078 30.6434 13.0235C30.8255 13.9392 30.732 14.8883 30.3747 15.7509C30.0174 16.6134 29.4124 17.3507 28.6361 17.8694C27.8598 18.3881 26.9471 18.665 26.0135 18.665Z" fill="#00C9EA"/>
<path fill-rule="evenodd" clip-rule="evenodd" d="M72.4094 30.522H57.9658C57.4875 30.5159 57.0304 30.3232 56.6922 29.985C56.3539 29.6467 56.1612 29.1897 56.1552 28.7113V3.95493C56.1552 3.84722 56.1124 3.74393 56.0362 3.66777C55.9601 3.59161 55.8568 3.54883 55.7491 3.54883H51.2898C51.1821 3.54883 51.0788 3.59161 51.0026 3.66777C50.9265 3.74393 50.8837 3.84722 50.8837 3.95493V30.1572C50.8857 31.5417 51.4366 32.8688 52.4155 33.8477C53.3945 34.8267 54.7216 35.3776 56.106 35.3796H72.4016C72.5091 35.3789 72.612 35.3359 72.6881 35.2599C72.7641 35.1839 72.8071 35.081 72.8077 34.9735V30.9306C72.8084 30.8238 72.767 30.721 72.6925 30.6445C72.6179 30.568 72.5162 30.524 72.4094 30.522ZM129.436 5.77332H125.35C125.125 5.77332 124.943 5.95513 124.943 6.17941V10.2663C124.943 10.4905 125.125 10.6723 125.35 10.6723H129.436C129.661 10.6723 129.843 10.4905 129.843 10.2663V6.17941C129.843 5.95513 129.661 5.77332 129.436 5.77332ZM316.583 35.902C314.578 35.902 312.938 35.3666 311.702 34.3061C310.465 33.2456 309.834 31.6057 309.834 29.4355V20.5893C309.828 20.5015 309.794 20.418 309.737 20.3513C309.679 20.2846 309.602 20.2383 309.516 20.2194H306.826C306.706 20.2188 306.592 20.1708 306.507 20.086C306.423 20.0011 306.376 19.8864 306.376 19.7668V16.6629C306.376 16.5433 306.423 16.4285 306.507 16.3437C306.592 16.2589 306.706 16.2109 306.826 16.2102H309.412C309.517 16.2097 309.618 16.1693 309.694 16.0972C309.77 16.0251 309.815 15.9268 309.821 15.8222V13.8771C309.821 13.8176 309.832 13.7586 309.855 13.7035C309.878 13.6484 309.911 13.5984 309.953 13.5563L313.53 9.95837C313.593 9.89406 313.674 9.85 313.762 9.83183C313.85 9.81365 313.942 9.82219 314.025 9.85635C314.109 9.8905 314.18 9.94872 314.23 10.0236C314.28 10.0984 314.307 10.1865 314.306 10.2765V15.8119C314.307 15.9198 314.35 16.0231 314.427 16.0992C314.504 16.1753 314.607 16.218 314.715 16.218H320.853C320.973 16.218 321.088 16.2657 321.173 16.3505C321.258 16.4354 321.306 16.5506 321.306 16.6706V19.7745C321.306 19.8946 321.258 20.0097 321.173 20.0946C321.088 20.1795 320.973 20.2272 320.853 20.2272H314.712C314.607 20.2305 314.508 20.2745 314.435 20.3497C314.361 20.4249 314.32 20.5257 314.319 20.6307V28.6492C314.319 29.8546 314.544 30.5426 315.095 31.0315C315.126 31.0573 315.871 31.6522 317.866 31.6522H320.863C320.983 31.6522 321.099 31.6999 321.183 31.7848C321.268 31.8697 321.316 31.9848 321.316 32.1049V35.4675C321.316 35.5875 321.268 35.7027 321.183 35.7876C321.099 35.8725 320.983 35.9201 320.863 35.9201L316.583 35.902ZM161.852 35.3149C161.7 35.3149 161.555 35.2547 161.447 35.1475C161.34 35.0403 161.28 34.8949 161.28 34.7433V11.2052C161.28 11.0536 161.34 10.9082 161.447 10.801C161.555 10.6938 161.7 10.6335 161.852 10.6335H169.852C172.496 10.6335 174.829 11.1509 176.787 12.1364C178.695 13.0834 180.279 14.575 181.339 16.4224C182.395 18.2666 182.93 20.4601 182.93 22.9432C182.93 25.4263 182.395 27.6638 181.339 29.5184C180.283 31.3733 178.698 32.8717 176.787 33.8225C174.829 34.8183 172.496 35.3253 169.852 35.3253L161.852 35.3149ZM166.091 14.6066C166.066 14.6072 166.042 14.6175 166.024 14.6353C166.006 14.6531 165.996 14.6771 165.995 14.7023V31.2359C165.996 31.2608 166.006 31.2845 166.024 31.3019C166.042 31.3193 166.066 31.329 166.091 31.329H169.852C171.367 31.3651 172.866 31.0181 174.21 30.3202C175.429 29.6614 176.421 28.6499 177.056 27.418C177.744 26.0252 178.085 24.4862 178.049 22.9329C178.084 21.3979 177.743 19.8776 177.056 18.5046C176.418 17.2793 175.426 16.2737 174.21 15.6179C172.866 14.9195 171.367 14.5716 169.852 14.6066H166.091ZM332.589 35.902C330.758 35.9425 328.948 35.5199 327.325 34.6734C325.839 33.8632 324.634 32.6201 323.872 31.1091C323.08 29.5778 322.679 27.7465 322.679 25.6461C322.679 23.5458 323.08 21.7119 323.872 20.1806C324.633 18.6697 325.838 17.4272 327.325 16.6189C328.961 15.809 330.762 15.3877 332.587 15.3877C334.413 15.3877 336.214 15.809 337.85 16.6189C339.336 17.4258 340.542 18.6664 341.305 20.1755C342.097 21.7093 342.498 23.5381 342.498 25.641C342.498 27.7439 342.097 29.57 341.305 31.1065C340.541 32.6164 339.336 33.8585 337.85 34.6682C336.228 35.5169 334.418 35.9414 332.589 35.902ZM332.589 19.2909C331.595 19.2669 330.616 19.531 329.769 20.0513C328.961 20.5821 328.331 21.3424 327.958 22.2344C327.511 23.3151 327.294 24.4769 327.32 25.6461C327.294 26.8145 327.511 27.9755 327.958 29.0553C328.331 29.9473 328.961 30.7076 329.769 31.2384C330.616 31.7591 331.595 32.0233 332.589 31.9988C333.577 32.0247 334.55 31.7603 335.39 31.2384C336.197 30.7068 336.827 29.9467 337.2 29.0553C337.648 27.9757 337.867 26.8147 337.842 25.6461C337.862 24.4798 337.641 23.3219 337.193 22.2448C336.818 21.3544 336.188 20.5949 335.382 20.0617C334.546 19.5378 333.575 19.2699 332.589 19.2909ZM345.173 35.1945C345.247 35.2676 345.345 35.3098 345.449 35.3124L348.993 35.3253C349.1 35.3253 349.204 35.2825 349.28 35.2064C349.356 35.1302 349.399 35.0269 349.399 34.9192V26.5955C349.691 22.8165 351.747 20.4885 355.043 20.2066C355.268 20.1781 355.501 20.1781 355.736 20.1781C355.81 20.1762 355.881 20.1518 355.94 20.1083C355.989 20.0633 356.019 20.0013 356.023 19.935V15.9413C356.022 15.832 355.977 15.7276 355.899 15.6511C355.821 15.5745 355.716 15.5319 355.607 15.5326C355.53 15.5338 355.451 15.5394 355.37 15.5451C355.277 15.5518 355.182 15.5585 355.089 15.5585C352.653 15.755 350.731 17.1544 349.536 19.635V19.6531L349.422 19.6272V16.2957C349.422 16.1879 349.379 16.0847 349.303 16.0085C349.227 15.9323 349.124 15.8896 349.016 15.8896H345.459C345.352 15.8896 345.248 15.9323 345.172 16.0085C345.096 16.0847 345.053 16.1879 345.053 16.2957V34.9192C345.057 35.0229 345.099 35.1214 345.173 35.1945ZM362.107 35.721C362.709 35.84 363.322 35.9006 363.936 35.902C366.54 35.902 368.674 35.0097 370.286 33.2508L370.397 33.1292V35.1002C370.397 35.2244 370.446 35.3434 370.534 35.4312C370.622 35.519 370.741 35.5684 370.865 35.5684H374.466C374.59 35.5684 374.709 35.519 374.797 35.4312C374.884 35.3434 374.934 35.2244 374.934 35.1002V23.9261C374.934 21.2903 374.204 19.2598 372.769 17.8941C371.341 16.4663 369.044 15.711 366.129 15.711C364.872 15.7014 363.617 15.8184 362.384 16.0602C361.212 16.302 360.067 16.6598 358.967 17.1285C358.858 17.1755 358.771 17.2617 358.723 17.3701C358.675 17.4785 358.67 17.6009 358.708 17.713L359.639 20.4109C359.671 20.5033 359.731 20.5835 359.811 20.6401C359.891 20.6967 359.986 20.7269 360.084 20.7264C360.143 20.7255 360.2 20.7141 360.255 20.6928C361.278 20.2849 362.343 19.9917 363.431 19.8185C364.129 19.7095 364.833 19.655 365.539 19.6556C368.056 19.6556 369.678 20.5816 370.231 22.3327C370.374 22.8006 370.446 23.287 370.446 23.776V23.8536V24.2804L370.283 24.2339C368.608 23.7185 366.863 23.4654 365.11 23.4837C359.849 23.4837 356.833 25.7807 356.833 29.7847V29.8571C356.833 32.8343 358.853 35.0821 362.107 35.721ZM361.349 29.6011C361.349 27.5939 363.095 26.3988 366.005 26.3988H366.02C367.449 26.3941 368.869 26.6221 370.224 27.074L370.482 27.1645V28.4578V28.5638V28.6337C370.464 29.0571 370.371 29.4739 370.208 29.8649C369.505 31.5488 367.588 32.5834 365.203 32.5834C362.901 32.5834 361.349 31.4143 361.349 29.6735V29.6011ZM399.778 25.7807C399.778 31.7402 403.932 35.9021 409.881 35.9021C413.135 35.9021 415.828 34.7459 417.869 32.4878C417.906 32.4456 417.935 32.3964 417.953 32.3432C417.971 32.2899 417.979 32.2335 417.975 32.1774C417.971 32.1201 417.957 32.0641 417.931 32.0126C417.906 31.9611 417.871 31.9151 417.827 31.8773L415.582 29.9374C415.503 29.8689 415.402 29.8313 415.298 29.8313C415.193 29.8313 415.092 29.8689 415.013 29.9374C413.415 31.3859 411.899 32.0066 409.946 32.0066C407.116 32.0066 405.013 30.3098 404.46 27.5784C404.456 27.5593 404.457 27.5396 404.462 27.5208C404.467 27.502 404.476 27.4845 404.488 27.4697C404.502 27.4536 404.519 27.4407 404.538 27.4318C404.558 27.4228 404.578 27.4181 404.6 27.418H418.513C418.622 27.4198 418.728 27.3802 418.809 27.3073C418.89 27.2343 418.94 27.1335 418.95 27.0248L418.951 27.0084C418.977 26.6804 419.002 26.3573 419.002 26.0342C419.002 20.817 415.999 15.5507 409.393 15.5507C402.786 15.5507 399.778 20.8144 399.778 25.7083V25.7807ZM404.525 23.9028C405.024 21.0575 406.912 19.2909 409.439 19.2909C412.046 19.2909 413.857 21.0162 414.279 23.908C414.28 23.9159 414.28 23.9238 414.28 23.9318C414.28 23.9362 414.279 23.9407 414.279 23.9452C414.278 23.9512 414.276 23.9573 414.275 23.9632C414.269 23.9811 414.26 23.9976 414.248 24.0114C414.234 24.0275 414.218 24.0404 414.199 24.0494C414.18 24.0583 414.16 24.063 414.139 24.0632H404.664C404.643 24.0629 404.622 24.0581 404.603 24.0492C404.584 24.0403 404.567 24.0274 404.553 24.0114C404.541 23.9965 404.532 23.9791 404.527 23.9603C404.522 23.9415 404.521 23.9219 404.525 23.9028ZM289.801 35.0174C291.507 35.641 293.315 35.9419 295.132 35.9046C297.237 35.9046 299.053 35.5942 300.525 34.989C301.886 34.475 303.076 33.5885 303.957 32.4308C304.752 31.324 305.168 29.9906 305.145 28.6285C305.166 27.6595 304.944 26.7007 304.498 25.8401C304.065 25.0451 303.467 24.3518 302.744 23.8071C301.982 23.2327 301.144 22.7646 300.256 22.4155C299.326 22.0475 298.367 21.7568 297.39 21.5464L294.938 20.9747C294.404 20.8574 293.876 20.7124 293.357 20.5402C292.863 20.3805 292.388 20.1671 291.94 19.9039C291.544 19.6783 291.204 19.3672 290.944 18.9934C290.699 18.6168 290.574 18.175 290.585 17.726C290.587 17.1544 290.782 16.6002 291.138 16.1533C291.557 15.6557 292.101 15.2782 292.713 15.0592C293.512 14.7711 294.358 14.6334 295.207 14.6531C296.583 14.6531 297.713 14.9376 298.569 15.4989C298.933 15.7291 299.246 16.0315 299.488 16.3874C299.73 16.7434 299.896 17.1453 299.977 17.5682C300 17.6606 300.054 17.7422 300.13 17.7992C300.207 17.8563 300.3 17.8852 300.396 17.8812H304.35C304.441 17.8826 304.529 17.8557 304.604 17.8042C304.678 17.7527 304.734 17.6792 304.764 17.594C304.773 17.5566 304.773 17.5177 304.764 17.4802C304.688 16.2754 304.259 15.1196 303.53 14.1564C302.656 13.0413 301.505 12.1752 300.191 11.6448C298.63 11.0166 296.959 10.7087 295.277 10.7395C293.581 10.7139 291.897 11.0215 290.321 11.6448C288.963 12.1744 287.768 13.0501 286.855 14.1849C286 15.275 285.545 16.6254 285.566 18.0105C285.566 19.7668 286.205 21.2024 287.468 22.2551C288.73 23.3079 290.45 24.1019 292.61 24.6193L295.579 25.3306C296.409 25.5199 297.225 25.7697 298.018 26.0781C298.618 26.2981 299.163 26.6448 299.617 27.0947C299.995 27.5059 300.202 28.0465 300.194 28.6052C300.193 29.2532 299.961 29.8796 299.539 30.3719C299.054 30.9103 298.438 31.3155 297.752 31.5488C296.895 31.8473 295.992 31.9917 295.085 31.9756C294.192 31.9866 293.303 31.8485 292.455 31.5669C291.73 31.3286 291.081 30.9061 290.569 30.3408C290.146 29.8376 289.877 29.2235 289.793 28.5716C289.773 28.4763 289.72 28.3911 289.643 28.331C289.567 28.2709 289.471 28.2398 289.374 28.2431H285.336C285.277 28.2424 285.219 28.2534 285.164 28.2756C285.11 28.2978 285.06 28.3308 285.018 28.3724C284.98 28.4085 284.951 28.4525 284.932 28.5012C284.913 28.55 284.906 28.6023 284.91 28.6544C284.995 30.0152 285.463 31.3242 286.26 32.4308C287.173 33.609 288.401 34.5056 289.801 35.0174ZM382.704 41.6729C384.199 42.1968 385.776 42.4499 387.36 42.4204C389.17 42.4564 390.965 42.0805 392.608 41.3211C394.047 40.64 395.244 39.5365 396.04 38.1577C396.814 36.8152 397.223 35.0925 397.223 33.194V16.4871C397.223 16.3245 397.158 16.1686 397.043 16.0536C396.928 15.9386 396.772 15.874 396.61 15.874H393.247C393.084 15.874 392.928 15.9386 392.814 16.0536C392.699 16.1686 392.634 16.3245 392.634 16.4871V17.9588L392.523 17.8424C391.925 17.2258 391.225 16.7174 390.453 16.3396C389.375 15.8041 388.186 15.5269 386.982 15.53C385.319 15.4951 383.676 15.9031 382.223 16.7121C380.862 17.4994 379.762 18.6686 379.059 20.0747C378.292 21.6578 377.912 23.401 377.952 25.16C377.914 26.8974 378.28 28.6199 379.023 30.1909C379.699 31.5772 380.769 32.7334 382.099 33.5147C383.512 34.3122 385.114 34.7151 386.736 34.6813C387.972 34.6871 389.193 34.4167 390.311 33.8898C391.149 33.5017 391.902 32.9513 392.525 32.2705L392.639 32.149V33.6751C392.639 35.1779 392.205 36.3651 391.315 37.2135C390.425 38.0619 389.178 38.4913 387.58 38.4913C386.242 38.4913 385.164 38.2456 384.37 37.7645C384.061 37.5963 383.788 37.3677 383.569 37.0922C383.35 36.8167 383.189 36.4999 383.095 36.1608C383.062 36.0296 382.986 35.9132 382.879 35.8306C382.772 35.7479 382.64 35.7039 382.505 35.7055H378.979C378.893 35.7053 378.809 35.7231 378.73 35.7579C378.652 35.7927 378.581 35.8436 378.524 35.9073C378.466 35.9724 378.423 36.0488 378.396 36.1316C378.369 36.2144 378.36 36.3018 378.369 36.3884C378.473 37.4742 378.883 38.5081 379.551 39.3708C380.369 40.4146 381.461 41.2114 382.704 41.6729ZM384.923 19.8936C385.754 19.3986 386.708 19.1485 387.675 19.172V19.1616C388.416 19.1575 389.149 19.3146 389.822 19.622C390.483 19.922 391.071 20.3635 391.542 20.9153C392.032 21.4918 392.402 22.1589 392.634 22.8786V27.356C392.402 28.08 392.03 28.7515 391.54 29.3322C391.067 29.8825 390.48 30.3237 389.82 30.6255C389.04 30.9676 388.191 31.1225 387.341 31.0776C386.49 31.0326 385.663 30.7892 384.923 30.3668C384.132 29.8672 383.503 29.1482 383.113 28.2975C382.66 27.2955 382.439 26.2046 382.466 25.1056C382.442 24.0185 382.663 22.94 383.113 21.95C383.506 21.1045 384.134 20.3905 384.923 19.8936ZM91.6848 13.5409H95.7717C95.8252 13.5406 95.8783 13.5508 95.9279 13.5711C95.9774 13.5913 96.0225 13.6212 96.0605 13.6589C96.0985 13.6967 96.1286 13.7416 96.1492 13.791C96.1698 13.8404 96.1804 13.8935 96.1804 13.947V34.9735C96.1804 35.0812 96.1376 35.1845 96.0614 35.2607C95.9853 35.3368 95.882 35.3796 95.7743 35.3796H92.2306C92.1231 35.3789 92.0202 35.3359 91.9442 35.2599C91.8682 35.1839 91.8252 35.081 91.8245 34.9735V32.418C90.9312 33.4651 89.8371 34.3226 88.6068 34.9399C87.2623 35.6311 85.7704 35.9861 84.2587 35.9745C81.4522 35.9745 79.2226 35.1494 77.637 33.5147C76.0514 31.8799 75.2469 29.7046 75.2469 27.0482V13.947C75.2469 13.8393 75.2897 13.736 75.3659 13.6598C75.442 13.5837 75.5453 13.5409 75.653 13.5409H79.7425C79.7957 13.5409 79.8484 13.5514 79.8975 13.5719C79.9466 13.5923 79.9912 13.6223 80.0287 13.66C80.0662 13.6977 80.0959 13.7425 80.116 13.7918C80.1361 13.841 80.1463 13.8938 80.146 13.947V26.4093C80.146 28.1526 80.5883 29.4615 81.4574 30.3228C82.3265 31.1841 83.6069 31.6161 85.2597 31.6161C86.4849 31.6285 87.6848 31.2676 88.6999 30.5815C89.4464 30.0746 90.1178 29.4651 90.6942 28.7708C91.0783 28.3013 91.2853 27.7117 91.2787 27.1051V13.947C91.2787 13.8393 91.3215 13.736 91.3977 13.6598C91.4738 13.5837 91.5771 13.5409 91.6848 13.5409ZM116.77 14.0867C115.324 13.3067 113.702 12.9145 112.06 12.9486C110.549 12.9385 109.058 13.2935 107.714 13.9832C106.485 14.5997 105.392 15.4553 104.499 16.5V13.9444C104.498 13.8372 104.455 13.7345 104.379 13.6589C104.303 13.5833 104.2 13.5409 104.093 13.5409H100.503C100.396 13.5416 100.294 13.5844 100.219 13.66C100.144 13.7356 100.102 13.8378 100.102 13.9444V34.9735C100.102 35.0812 100.144 35.1845 100.221 35.2607C100.297 35.3368 100.4 35.3796 100.508 35.3796H104.595C104.702 35.3796 104.806 35.3368 104.882 35.2607C104.958 35.1845 105.001 35.0812 105.001 34.9735V21.8387C105.003 21.1894 105.24 20.5628 105.668 20.0747C106.243 19.4167 106.902 18.8359 107.626 18.3468C108.641 17.6593 109.841 17.2983 111.066 17.3122C112.567 17.3122 113.798 17.7597 114.729 18.6469C115.66 19.5341 116.139 20.8248 116.139 22.5035V34.9709C116.139 35.0784 116.182 35.1813 116.258 35.2573C116.334 35.3334 116.437 35.3764 116.545 35.377H120.634C120.742 35.3764 120.845 35.3334 120.921 35.2573C120.997 35.1813 121.04 35.0784 121.04 34.9709V21.8698C121.066 20.2608 120.682 18.6717 119.923 17.2527C119.194 15.9194 118.1 14.8213 116.77 14.0867ZM125.35 13.5409H129.436C129.661 13.5409 129.843 13.7227 129.843 13.947V34.9735C129.843 35.1978 129.661 35.3796 129.436 35.3796H125.35C125.125 35.3796 124.943 35.1978 124.943 34.9735V13.947C124.943 13.7227 125.125 13.5409 125.35 13.5409ZM142.522 13.5822H149.462C149.516 13.5819 149.569 13.5921 149.618 13.6124C149.668 13.6326 149.713 13.6624 149.752 13.7001C149.79 13.7378 149.82 13.7827 149.841 13.8321C149.862 13.8816 149.873 13.9347 149.873 13.9883V17.488C149.872 17.5953 149.829 17.6979 149.753 17.7735C149.677 17.8491 149.574 17.8915 149.467 17.8915H142.522C142.374 17.8942 142.234 17.9544 142.13 18.0592C142.026 18.164 141.967 18.3053 141.966 18.4528V27.8629C141.966 29.2571 142.23 30.0589 142.879 30.6306C142.887 30.6383 143.678 31.36 146.079 31.36H149.454C149.562 31.36 149.665 31.4028 149.741 31.4789C149.817 31.5551 149.86 31.6584 149.86 31.7661V35.5555C149.86 35.6632 149.817 35.7665 149.741 35.8426C149.665 35.9188 149.562 35.9616 149.454 35.9616H144.617C142.39 35.9616 140.556 35.377 139.185 34.1871C137.814 32.9973 137.116 31.1737 137.116 28.7553V18.4088C137.108 18.2868 137.061 18.1706 136.982 18.0774C136.903 17.9842 136.795 17.9191 136.676 17.8915H133.616C133.509 17.8915 133.406 17.8491 133.33 17.7735C133.254 17.6979 133.211 17.5953 133.21 17.488V13.9883C133.211 13.8817 133.253 13.7796 133.328 13.7037C133.403 13.6279 133.505 13.5843 133.611 13.5822H136.547C136.692 13.5824 136.831 13.5269 136.936 13.4273C137.041 13.3276 137.104 13.1914 137.111 13.0468V10.8327C137.111 10.7797 137.121 10.7272 137.141 10.6783C137.162 10.6295 137.192 10.5852 137.23 10.5482L141.262 6.48459C141.299 6.44673 141.344 6.41668 141.393 6.39624C141.441 6.37581 141.494 6.36539 141.547 6.36561C141.6 6.36527 141.653 6.37552 141.703 6.39578C141.753 6.41603 141.798 6.44589 141.836 6.48363C141.874 6.52138 141.904 6.56626 141.924 6.6157C141.945 6.66514 141.956 6.71816 141.956 6.77171V13.0184C141.956 13.1681 142.016 13.3116 142.122 13.4172C142.229 13.5229 142.372 13.5822 142.522 13.5822ZM237.81 11.8725C236.018 10.8379 233.884 10.3206 231.468 10.3206C229.052 10.3206 226.913 10.8379 225.107 11.8725C223.304 12.8972 221.848 14.4375 220.927 16.2956C219.962 18.189 219.474 20.4342 219.474 22.9923C219.474 25.5505 219.962 27.7983 220.927 29.6917C221.852 31.5408 223.307 33.0719 225.107 34.0889C226.918 35.1235 229.052 35.6408 231.468 35.6408C233.884 35.6408 236.02 35.1235 237.81 34.0889C239.603 33.0675 241.054 31.5372 241.977 29.6917C242.939 27.7983 243.428 25.5531 243.428 22.9923C243.428 20.4316 242.939 18.1761 241.975 16.2956C241.056 14.4406 239.607 12.9008 237.81 11.8725ZM234.864 30.6177C233.876 31.3224 232.686 31.6857 231.473 31.6523C230.245 31.6855 229.039 31.3228 228.033 30.6177C226.931 29.8797 226.069 28.8359 225.552 27.6146C224.934 26.1492 224.632 24.5696 224.668 22.9794C224.634 21.392 224.929 19.8147 225.534 18.3468C226.045 17.1219 226.908 16.0765 228.015 15.3437C229.039 14.6362 230.262 14.2737 231.507 14.3091C232.711 14.2759 233.892 14.6394 234.869 15.3437C235.962 16.0872 236.817 17.1299 237.332 18.3468C237.953 19.8107 238.258 21.3894 238.227 22.9794C238.261 24.5695 237.96 26.1491 237.342 27.6146C236.826 28.8356 235.965 29.8793 234.864 30.6177ZM212.847 26.7947H216.864C216.935 26.7969 217.005 26.8139 217.07 26.8446C217.134 26.8753 217.192 26.9191 217.239 26.9731C217.286 27.0291 217.321 27.0945 217.341 27.165C217.361 27.2354 217.366 27.3094 217.355 27.3818C217.149 28.889 216.576 30.3226 215.687 31.5566C214.701 32.8805 213.383 33.9208 211.866 34.5726C210.145 35.3012 208.29 35.6598 206.422 35.6253C204.026 35.6253 201.921 35.108 200.165 34.0734C198.397 33.0426 196.972 31.513 196.07 29.6762C195.116 27.7828 194.634 25.5428 194.634 22.9794C194.634 20.4161 195.128 18.1735 196.104 16.2775C197.034 14.4373 198.481 12.9089 200.268 11.8803C202.05 10.8457 204.179 10.3283 206.595 10.3283C208.417 10.2991 210.225 10.6516 211.903 11.363C213.388 12.0001 214.677 13.0226 215.635 14.3246C216.49 15.5196 217.036 16.9077 217.223 18.3649C217.237 18.4399 217.235 18.517 217.215 18.5908C217.196 18.6645 217.161 18.7332 217.112 18.7917C217.066 18.8454 217.009 18.8885 216.945 18.918C216.88 18.9474 216.81 18.9626 216.74 18.9624H212.684C212.568 18.9591 212.456 18.9167 212.367 18.8421C212.278 18.7674 212.216 18.665 212.192 18.5512C212.049 17.7966 211.747 17.0808 211.308 16.4508C210.809 15.7573 210.134 15.2099 209.352 14.8652C208.487 14.4853 207.55 14.2957 206.605 14.3091C205.382 14.2769 204.181 14.6397 203.181 15.3438C202.083 16.0812 201.228 17.1258 200.721 18.3468C200.105 19.8159 199.802 21.3971 199.831 22.9898C199.797 24.5766 200.087 26.1536 200.682 27.625C201.173 28.8369 202.005 29.8802 203.077 30.628C204.043 31.333 205.216 31.697 206.411 31.6627C207.419 31.6846 208.421 31.4934 209.35 31.1014C210.175 30.7435 210.89 30.171 211.419 29.4434C211.892 28.7767 212.212 28.0135 212.355 27.2085C212.379 27.0942 212.44 26.9912 212.529 26.9161C212.618 26.8409 212.73 26.7982 212.847 26.7947ZM190.871 10.631H186.818C186.593 10.631 186.411 10.8128 186.411 11.0371V34.9296C186.411 35.1538 186.593 35.3357 186.818 35.3357H190.871C191.095 35.3357 191.277 35.1538 191.277 34.9296V11.0371C191.277 10.8128 191.095 10.631 190.871 10.631ZM262.895 35.3072H260.875H260.87H258.816C258.73 35.307 258.647 35.2807 258.577 35.2316C258.508 35.1826 258.454 35.1132 258.425 35.033L251.514 18.3986C251.502 18.3644 251.478 18.3354 251.447 18.3163C251.417 18.2972 251.38 18.2891 251.344 18.2933C251.308 18.2975 251.275 18.3137 251.249 18.3394C251.224 18.3651 251.207 18.3987 251.203 18.4348L251.222 34.9373C251.211 35.0395 251.163 35.1342 251.086 35.2026C251.01 35.2711 250.91 35.3084 250.808 35.3072H247.119C247.061 35.303 247.004 35.2872 246.951 35.2608C246.899 35.2344 246.852 35.1979 246.814 35.1535C246.776 35.109 246.747 35.0574 246.729 35.0017C246.71 34.9459 246.703 34.8871 246.708 34.8287V10.9854C246.722 10.8866 246.772 10.7964 246.847 10.7313C246.923 10.6662 247.019 10.6306 247.119 10.631H252.947C253.033 10.6312 253.117 10.6579 253.187 10.7074C253.257 10.7569 253.311 10.8268 253.34 10.9078L260.745 29.4253C260.752 29.4505 260.766 29.473 260.786 29.4898C260.806 29.5065 260.831 29.5165 260.857 29.5184C260.882 29.5156 260.906 29.5052 260.925 29.4886C260.945 29.472 260.959 29.4499 260.965 29.4253L268.373 10.9078C268.403 10.8268 268.456 10.7569 268.526 10.7074C268.597 10.6579 268.68 10.6312 268.766 10.631H274.594C274.694 10.6306 274.79 10.6662 274.866 10.7313C274.942 10.7964 274.991 10.8866 275.005 10.9854V34.8287C275.01 34.8873 275.003 34.9463 274.984 35.0022C274.966 35.0581 274.937 35.1098 274.898 35.1543C274.86 35.1988 274.813 35.2353 274.76 35.2615C274.708 35.2878 274.65 35.3033 274.592 35.3072H270.903C270.8 35.3084 270.701 35.2711 270.624 35.2026C270.548 35.1342 270.5 35.0395 270.489 34.9373L270.507 18.4348C270.503 18.3987 270.487 18.3651 270.462 18.3394C270.436 18.3137 270.402 18.2975 270.366 18.2933C270.33 18.2891 270.294 18.2972 270.263 18.3163C270.233 18.3354 270.209 18.3644 270.197 18.3986L263.285 35.033C263.257 35.1135 263.204 35.183 263.134 35.2321C263.064 35.2812 262.98 35.3074 262.895 35.3072Z" fill="black"/>
</g>
<defs>
<clipPath id="clip0_13065_12742">
<rect width="419" height="44" fill="white"/>
</clipPath>
</defs>
</svg>
