<svg width="389" height="40" viewBox="0 0 389 40" fill="none" xmlns="http://www.w3.org/2000/svg">
<g clip-path="url(#clip0_9065_87451)">
<path d="M20 0C8.95383 0 0 8.95383 0 20C0 31.0462 8.95383 40 20 40C31.0462 40 40 31.0462 40 20C40 8.95383 31.0462 0 20 0ZM26.0106 18.6629C21.9966 18.7146 18.7586 21.9553 18.7094 25.964H18.7068C18.7068 25.9951 18.7068 26.0261 18.7068 26.0572C18.7068 28.6642 16.5938 30.7772 13.9868 30.7772C11.3798 30.7772 9.26678 28.6642 9.26678 26.0572C9.26678 23.4501 11.3798 21.3371 13.9868 21.3371H13.9894C15.9343 21.3371 17.799 20.5586 19.1698 19.1775C20.5405 17.7965 21.3035 15.924 21.288 13.979C21.288 13.9661 21.288 13.9558 21.288 13.9428C21.288 11.3358 23.401 9.22281 26.008 9.22281C28.615 9.22281 30.728 11.3358 30.728 13.9428C30.728 16.5499 28.615 18.6629 26.008 18.6629H26.0106Z" fill="#00C9EA"/>
<path fill-rule="evenodd" clip-rule="evenodd" d="M57.962 30.5211H72.4014C72.6264 30.5211 72.8074 30.7047 72.8074 30.9272V34.9696C72.8074 35.1946 72.6264 35.3756 72.4014 35.3756H56.1024C53.2238 35.3756 50.8806 33.0324 50.8806 30.1539V3.95445C50.8806 3.72944 51.0617 3.5484 51.2867 3.5484H55.7377C55.9627 3.5484 56.1438 3.72944 56.1438 3.95445V28.7107C56.1515 29.7038 56.9688 30.5159 57.962 30.5211ZM125.336 5.77263H129.422C129.646 5.77263 129.828 5.95443 129.828 6.17869V10.2651C129.828 10.4893 129.646 10.6711 129.422 10.6711H125.336C125.111 10.6711 124.929 10.4893 124.929 10.2651V6.17869C124.929 5.95443 125.111 5.77263 125.336 5.77263ZM313.713 35.086C313.79 35.311 314.005 35.461 314.243 35.461L314.24 35.4662H319.516C319.754 35.4662 319.966 35.3162 320.047 35.0912L328.473 11.3695C328.535 11.1962 328.509 11.01 328.403 10.8574C328.3 10.7074 328.126 10.6168 327.943 10.6168H324.211C323.973 10.6168 323.761 10.7669 323.68 10.9919L317.028 29.7866C316.997 29.8978 316.946 29.947 316.928 29.947C316.915 29.947 316.863 29.9056 316.824 29.7737L310.149 10.9919C310.069 10.7643 309.854 10.6143 309.616 10.6143H305.814C305.631 10.6143 305.46 10.7022 305.354 10.8522C305.248 11.0022 305.222 11.1884 305.284 11.3643L313.713 35.086ZM339.31 25.6356C339.31 31.5712 343.448 35.7171 349.373 35.7171L349.368 35.7145C352.611 35.7145 355.293 34.561 357.336 32.2902C357.406 32.2126 357.442 32.1143 357.435 32.0083C357.427 31.9022 357.38 31.8065 357.3 31.7367L355.055 29.797C354.985 29.7375 354.897 29.7039 354.804 29.7039C354.706 29.7039 354.61 29.7401 354.538 29.8073C352.932 31.2738 351.408 31.8997 349.445 31.8997C346.595 31.8997 344.48 30.1927 343.924 27.4408C343.913 27.3891 343.926 27.34 343.96 27.2986C343.993 27.2546 344.045 27.2313 344.099 27.2313H358.011C358.213 27.2313 358.384 27.0762 358.399 26.8744C358.43 26.5227 358.453 26.2072 358.453 25.889C358.453 20.6905 355.464 15.4455 348.884 15.4455C342.305 15.4455 339.31 20.6905 339.31 25.5632V25.6356ZM343.965 23.7502C344.48 20.8871 346.383 19.1077 348.931 19.1077C351.553 19.1077 353.374 20.8457 353.798 23.7553C353.803 23.8045 353.79 23.8536 353.757 23.8924C353.721 23.9312 353.671 23.9545 353.617 23.9545H344.143C344.089 23.9545 344.037 23.9312 344.004 23.8898C343.97 23.851 343.957 23.7993 343.965 23.7502ZM378.474 35.7895C378.223 35.7895 378.001 35.6214 377.931 35.3808L374.101 22.0897C374.09 22.0484 374.057 22.0432 374.041 22.0432C374.026 22.0432 373.992 22.0484 373.982 22.0897L370.154 35.3808C370.084 35.6214 369.862 35.7895 369.611 35.7895H365.682C365.431 35.7895 365.209 35.6214 365.139 35.3808L359.793 16.824C359.744 16.6507 359.778 16.4697 359.884 16.3274C359.992 16.1852 360.155 16.1024 360.336 16.1024H363.688C363.939 16.1024 364.161 16.2705 364.231 16.5111L367.979 29.6366C367.989 29.678 368.023 29.6832 368.038 29.6832C368.054 29.6832 368.087 29.678 368.1 29.6366L371.864 16.5111C371.933 16.2705 372.156 16.1024 372.407 16.1024H375.777C376.025 16.1024 376.247 16.2705 376.317 16.5085L380.204 29.6728C380.217 29.7142 380.248 29.7194 380.264 29.7194C380.285 29.7194 380.313 29.7116 380.323 29.6728L384.055 16.5136C384.125 16.2731 384.348 16.105 384.599 16.105H387.741C387.919 16.105 388.085 16.1878 388.191 16.33C388.3 16.4723 388.333 16.6533 388.284 16.8266L382.972 35.3834C382.905 35.6239 382.682 35.7921 382.429 35.7921H378.466L378.474 35.7895ZM95.7558 13.5393H91.672C91.4496 13.5393 91.266 13.7204 91.266 13.9454V27.1046C91.266 27.7279 91.0591 28.3202 90.6815 28.7702C90.1099 29.4581 89.4374 30.0633 88.6848 30.5728C87.6632 31.2634 86.5072 31.6151 85.245 31.6151C83.5924 31.6151 82.3147 31.1806 81.4457 30.3271C80.5767 29.4737 80.1345 28.1572 80.1345 26.414V13.9454C80.1345 13.723 79.9534 13.5393 79.7284 13.5393H75.6394C75.4144 13.5393 75.2334 13.7204 75.2334 13.9454V27.0451C75.2334 29.7013 76.0377 31.8763 77.6231 33.5083C79.2086 35.1403 81.438 35.9679 84.2441 35.9679C85.814 35.9679 87.2779 35.6239 88.5891 34.9437C89.8849 34.2739 90.966 33.4255 91.8065 32.4169V34.9722C91.8065 35.1972 91.9876 35.3782 92.2126 35.3782H95.7558C95.9782 35.3782 96.1619 35.1972 96.1619 34.9722V13.9454C96.1619 13.723 95.9808 13.5393 95.7558 13.5393ZM112.047 12.9471C113.826 12.9471 115.412 13.3299 116.757 14.0851H116.762C118.104 14.8403 119.162 15.9032 119.902 17.2481C120.641 18.593 121.016 20.1474 121.016 21.8673V34.967C121.016 35.192 120.835 35.373 120.61 35.373H116.521C116.296 35.373 116.115 35.1894 116.115 34.967V22.5009C116.115 20.8224 115.642 19.5189 114.714 18.6344C113.782 17.7499 112.549 17.2999 111.049 17.2999C109.787 17.2999 108.631 17.6516 107.609 18.3421C106.882 18.831 106.225 19.4129 105.651 20.0698C105.222 20.5612 104.984 21.1871 104.984 21.8337V34.967C104.984 35.192 104.803 35.373 104.578 35.373H100.489C100.264 35.373 100.083 35.1894 100.083 34.967V13.9428C100.083 13.7178 100.264 13.5368 100.489 13.5368H104.079C104.304 13.5368 104.485 13.7204 104.485 13.9428V16.4981C105.325 15.492 106.406 14.6411 107.702 13.9713C109.016 13.2911 110.477 12.9471 112.047 12.9471ZM125.336 13.5393H129.425C129.65 13.5393 129.831 13.7204 129.831 13.9454V34.9696C129.831 35.1946 129.65 35.3756 129.425 35.3756H125.336C125.111 35.3756 124.929 35.1946 124.929 34.9696V13.9428C124.929 13.7178 125.111 13.5368 125.336 13.5368V13.5393ZM149.445 13.5393H142.516C142.206 13.5393 141.95 13.2859 141.95 12.9729V6.72699C141.947 6.47353 141.741 6.32093 141.539 6.32093C141.433 6.32093 141.332 6.3649 141.254 6.44249L137.215 10.503C137.14 10.5806 137.096 10.6815 137.096 10.7901V13.0014C137.08 13.3014 136.832 13.5393 136.532 13.5393H133.596C133.374 13.5393 133.19 13.7204 133.19 13.9454V17.4421C133.19 17.6671 133.371 17.8482 133.596 17.8482H136.653C136.899 17.9025 137.08 18.1171 137.096 18.368V28.7236C137.096 31.1418 137.794 32.9652 139.167 34.142C140.541 35.3213 142.372 35.9162 144.606 35.9162H149.443C149.668 35.9162 149.849 35.7351 149.849 35.5101V31.7134C149.849 31.4884 149.668 31.3074 149.443 31.3074H146.06C143.662 31.3074 142.868 30.5858 142.86 30.578C142.211 30.0064 141.947 29.2047 141.947 27.8107V18.4016C141.95 18.0964 142.193 17.8507 142.498 17.8404H149.443C149.668 17.8404 149.849 17.6594 149.849 17.4343V13.9376C149.849 13.7152 149.668 13.5316 149.443 13.5316L149.445 13.5393ZM210.751 22.0458C211.677 22.4156 212.523 22.8889 213.263 23.4502L213.268 23.4553C214.013 24.0217 214.613 24.7175 215.05 25.5218C215.487 26.3262 215.709 27.2831 215.709 28.359C215.709 29.8151 215.301 31.1134 214.499 32.2204C213.697 33.3247 212.528 34.1989 211.023 34.8144C209.528 35.4274 207.637 35.7378 205.589 35.7378C203.541 35.7378 201.733 35.4377 200.222 34.8455C198.699 34.248 197.494 33.3635 196.638 32.2152C195.854 31.1652 195.391 29.8746 195.267 28.3849C195.257 28.2504 195.303 28.1211 195.404 28.0202C195.505 27.9167 195.647 27.8598 195.795 27.8598L199.832 27.8521C200.093 27.8521 200.318 28.0305 200.354 28.2685C200.458 28.9513 200.714 29.5306 201.112 29.9832C201.578 30.516 202.198 30.9169 202.954 31.1807C203.722 31.4496 204.555 31.5841 205.55 31.5841C206.546 31.5841 207.43 31.4419 208.181 31.1652C208.92 30.891 209.507 30.5056 209.924 30.0168C210.332 29.5358 210.544 28.9642 210.552 28.3176C210.542 27.7409 210.358 27.2572 210.004 26.8796C209.637 26.4891 209.112 26.1555 208.442 25.8891C207.754 25.6149 206.939 25.3666 206.018 25.1468L203.047 24.4356C200.872 23.9157 199.128 23.1139 197.864 22.051C196.578 20.9699 195.927 19.5138 195.927 17.7266C195.927 16.2628 196.361 14.9593 197.222 13.8549C198.078 12.7583 199.26 11.8919 200.732 11.2841C202.198 10.6789 203.851 10.3712 205.726 10.3712C207.601 10.3712 209.272 10.6789 210.692 11.2841C212.117 11.8919 213.255 12.748 214.072 13.8265C214.812 14.8041 215.236 15.9395 215.329 17.2042C215.334 17.2637 215.327 17.3154 215.311 17.362C215.228 17.5792 215.034 17.7163 214.799 17.7163L210.844 17.7241C210.588 17.7241 210.371 17.5585 210.325 17.3284C210.154 16.4749 209.696 15.7973 208.962 15.3162C208.124 14.7653 207.014 14.486 205.661 14.486C204.71 14.486 203.882 14.6205 203.207 14.8843C202.54 15.1455 202.025 15.5024 201.676 15.9447C201.329 16.3843 201.151 16.8913 201.143 17.4551C201.143 17.9206 201.26 18.3267 201.487 18.6629C201.72 19.0095 202.043 19.3043 202.449 19.5448C202.866 19.7905 203.336 20.0026 203.846 20.1707C204.363 20.3414 204.893 20.4862 205.418 20.6026L207.87 21.1716C208.861 21.3837 209.831 21.6785 210.751 22.0458ZM249.215 22.1104H239.697C239.485 22.1104 239.312 22.2837 239.312 22.4958V26.0779C239.312 26.2899 239.485 26.4632 239.697 26.4632H245.056C244.961 27.3038 244.725 28.0667 244.355 28.7262C243.856 29.6159 243.135 30.3117 242.211 30.7953C241.285 31.2789 240.179 31.5246 238.916 31.5246C237.525 31.5246 236.289 31.1832 235.239 30.5082C234.189 29.8332 233.358 28.8323 232.769 27.5314C232.176 26.2279 231.876 24.9037 231.876 23.0208C231.876 21.138 232.179 19.8422 232.774 18.5413C233.369 17.243 234.199 16.2473 235.239 15.5774C236.281 14.9075 237.484 14.5687 238.816 14.5687C239.558 14.5687 240.256 14.6644 240.885 14.8558C241.513 15.0446 242.079 15.3291 242.566 15.699C243.055 16.0688 243.479 16.5214 243.83 17.0413C244.154 17.5223 244.42 18.068 244.617 18.6655C244.653 18.7793 244.759 18.8543 244.875 18.8543H249.109C249.189 18.8543 249.267 18.8181 249.319 18.756C249.37 18.6939 249.391 18.6137 249.378 18.5361C249.176 17.3956 248.786 16.3352 248.222 15.3783C247.617 14.3541 246.833 13.4566 245.894 12.7118C244.955 11.9669 243.869 11.3824 242.667 10.9763C241.464 10.5703 240.147 10.366 238.756 10.366C237.111 10.366 235.567 10.6634 234.165 11.2479C232.764 11.8324 231.527 12.6962 230.485 13.8161C229.445 14.9334 228.625 16.3093 228.049 17.9077C227.472 19.5034 227.18 21.0475 227.18 23.0751C227.18 25.7235 227.676 27.7538 228.654 29.6806C229.632 31.61 231.015 33.1152 232.764 34.1601C234.512 35.205 236.573 35.7352 238.891 35.7352C240.97 35.7352 242.837 35.3058 244.443 34.4575C246.049 33.6092 247.33 32.3807 248.248 30.8082C249.166 29.2332 249.632 27.3451 249.632 25.1933V22.532C249.632 22.3018 249.445 22.1156 249.215 22.1156V22.1104ZM187.503 10.6711H191.553C191.778 10.6711 191.959 10.8522 191.959 11.0772V34.9644C191.959 35.1894 191.778 35.3705 191.553 35.3705H187.464C187.309 35.3705 187.164 35.2877 187.084 35.1558L174.838 18.3706V24.6786H174.809V34.967C174.809 35.192 174.628 35.3731 174.403 35.3731H170.381C170.156 35.3731 169.975 35.192 169.975 34.967V11.0772C169.975 10.8522 170.156 10.6711 170.381 10.6711H174.783C174.938 10.6711 175.083 10.7539 175.163 10.8858L187.102 27.5701V23.0208L187.097 20.5638V11.0772C187.097 10.8522 187.278 10.6711 187.503 10.6711ZM274.509 10.6711H270.482C270.257 10.6711 270.076 10.8522 270.076 11.0772V19.7465C270.076 20.0724 269.812 20.3388 269.484 20.3388H258.373C258.047 20.3388 257.781 20.0724 257.781 19.7465V11.0772C257.781 10.8522 257.6 10.6711 257.375 10.6711H253.343C253.118 10.6711 252.937 10.8522 252.937 11.0772V34.967C252.937 35.192 253.118 35.3731 253.343 35.3731H257.375C257.6 35.3731 257.781 35.192 257.781 34.967V25.1881C257.781 24.8623 258.047 24.5959 258.373 24.5959H269.481C269.81 24.5959 270.074 24.8623 270.074 25.1881V34.967C270.074 35.192 270.255 35.3731 270.48 35.3731H274.509C274.734 35.3731 274.915 35.192 274.915 34.967V11.0772C274.915 10.8522 274.734 10.6711 274.509 10.6711ZM278.223 10.6841H297.879L297.877 10.6867C298.102 10.6867 298.283 10.8677 298.283 11.0927V14.5713C298.283 14.7834 298.109 14.9567 297.897 14.9567H291.134C290.808 14.9567 290.542 15.2205 290.542 15.5464L290.472 34.9696C290.472 35.1998 290.286 35.386 290.056 35.386H286.049C285.824 35.386 285.643 35.205 285.643 34.98L285.633 15.5464C285.633 15.2205 285.369 14.9541 285.041 14.9541H278.202C277.99 14.9541 277.817 14.7808 277.817 14.5687V11.0901C277.817 10.8651 277.998 10.6841 278.223 10.6841ZM161.133 10.6841H165.186C165.411 10.6841 165.592 10.8651 165.592 11.0901V34.98C165.592 35.205 165.411 35.386 165.186 35.386H161.133C160.908 35.386 160.727 35.205 160.727 34.98V11.0901C160.727 10.8651 160.908 10.6841 161.133 10.6841ZM223.471 10.6841H219.418C219.193 10.6841 219.012 10.8651 219.012 11.0901V34.98C219.012 35.205 219.193 35.386 219.418 35.386H223.471C223.696 35.386 223.877 35.205 223.877 34.98V11.0901C223.877 10.8651 223.696 10.6841 223.471 10.6841ZM332.083 9.39093H335.445C335.748 9.39093 335.994 9.63663 335.994 9.93923V13.3997C335.994 13.7023 335.748 13.948 335.445 13.948H332.083C331.781 13.948 331.535 13.7023 331.535 13.3997V9.93923C331.535 9.63663 331.781 9.39093 332.083 9.39093ZM335.451 15.7972H332.096C331.794 15.7972 331.548 16.0429 331.548 16.3455V34.8403C331.548 35.1429 331.794 35.3886 332.096 35.3886H335.451C335.753 35.3886 335.999 35.1429 335.999 34.8403V16.3455C335.999 16.0429 335.753 15.7972 335.451 15.7972Z" fill="white"/>
</g>
<defs>
<clipPath id="clip0_9065_87451">
<rect width="389" height="40" fill="white"/>
</clipPath>
</defs>
</svg>
