<svg width="266" height="40" viewBox="0 0 266 40" fill="none" xmlns="http://www.w3.org/2000/svg">
<g clip-path="url(#clip0_9162_122392)">
<path d="M20 0C16.0444 0 12.1776 1.17298 8.8886 3.37061C5.59962 5.56824 3.03617 8.69181 1.52242 12.3463C0.0086657 16.0009 -0.387401 20.0222 0.384303 23.9018C1.15601 27.7814 3.06082 31.3451 5.85787 34.1421C8.65492 36.9392 12.2186 38.844 16.0982 39.6157C19.9778 40.3874 23.9992 39.9913 27.6537 38.4776C31.3082 36.9638 34.4318 34.4004 36.6294 31.1114C38.827 27.8224 40 23.9556 40 20C40 14.6957 37.8929 9.60859 34.1421 5.85786C30.3914 2.10714 25.3043 0 20 0ZM26.0106 18.6629C24.0815 18.6864 22.238 19.4631 20.8739 20.8273C19.5097 22.1915 18.7329 24.035 18.7094 25.964C18.7094 25.9951 18.7094 26.0261 18.7094 26.0572C18.7099 26.9914 18.4333 27.9048 17.9146 28.6819C17.3959 29.4589 16.6583 30.0646 15.7953 30.4224C14.9322 30.7801 13.9825 30.8739 13.0661 30.6917C12.1498 30.5096 11.308 30.0598 10.6474 29.3991C9.9868 28.7385 9.53696 27.8968 9.35482 26.9804C9.17268 26.0641 9.26642 25.1143 9.62418 24.2513C9.98195 23.3882 10.5877 22.6507 11.3647 22.132C12.1417 21.6132 13.0551 21.3366 13.9894 21.3371C14.9529 21.3368 15.9068 21.1459 16.7962 20.7753C17.6856 20.4047 18.4929 19.8618 19.1716 19.1778C19.8502 18.4939 20.3869 17.6824 20.7505 16.7902C21.1142 15.8979 21.2977 14.9425 21.2906 13.979C21.292 13.967 21.292 13.9549 21.2906 13.9428C21.2906 13.0093 21.5674 12.0967 22.0861 11.3205C22.6047 10.5443 23.3419 9.93935 24.2043 9.5821C25.0668 9.22485 26.0159 9.13138 26.9314 9.31351C27.847 9.49563 28.6881 9.94517 29.3482 10.6053C30.0083 11.2654 30.4578 12.1064 30.6399 13.022C30.8221 13.9376 30.7286 14.8866 30.3714 15.7491C30.0141 16.6116 29.4091 17.3488 28.6329 17.8674C27.8567 18.386 26.9441 18.6629 26.0106 18.6629Z" fill="#00C9EA"/>
<path fill-rule="evenodd" clip-rule="evenodd" d="M72.4014 30.5186H57.9594C57.4811 30.5126 57.0241 30.3199 56.6859 29.9817C56.3477 29.6434 56.155 29.1864 56.149 28.7082V3.95451C56.149 3.84682 56.1062 3.74354 56.03 3.66739C55.9539 3.59124 55.8506 3.54846 55.7429 3.54846H51.2841C51.1764 3.54846 51.0731 3.59124 50.997 3.66739C50.9208 3.74354 50.8781 3.84682 50.8781 3.95451V30.1539C50.8801 31.5382 51.4309 32.8652 52.4097 33.844C53.3886 34.8228 54.7156 35.3736 56.0998 35.3757H72.3936C72.5009 35.375 72.6035 35.3319 72.6791 35.2559C72.7547 35.1798 72.7971 35.0769 72.7971 34.9696V30.9272C72.7985 30.8207 72.7577 30.7179 72.6835 30.6413C72.6094 30.5647 72.5079 30.5206 72.4014 30.5186ZM125.336 5.77271H129.422C129.646 5.77271 129.828 5.9545 129.828 6.17876V10.2651C129.828 10.4894 129.646 10.6712 129.422 10.6712H125.336C125.111 10.6712 124.93 10.4894 124.93 10.2651V6.17876C124.93 5.9545 125.111 5.77271 125.336 5.77271ZM91.6746 13.5393H95.761C95.8145 13.539 95.8676 13.5492 95.9171 13.5695C95.9667 13.5897 96.0118 13.6196 96.0498 13.6573C96.0877 13.6951 96.1179 13.7399 96.1384 13.7894C96.159 13.8388 96.1696 13.8918 96.1696 13.9454V34.9696C96.1696 35.0772 96.1268 35.1805 96.0507 35.2567C95.9745 35.3328 95.8712 35.3756 95.7635 35.3756H92.2203C92.1128 35.3749 92.0099 35.3319 91.9339 35.2559C91.8579 35.1799 91.8149 35.077 91.8142 34.9696V32.4143C90.9206 33.4619 89.8256 34.3195 88.5943 34.9359C87.251 35.6273 85.76 35.9823 84.2493 35.9705C81.4431 35.9705 79.2137 35.1454 77.6283 33.5109C76.0429 31.8763 75.2385 29.7012 75.2385 27.0451V13.9454C75.2385 13.8377 75.2813 13.7344 75.3575 13.6582C75.4336 13.5821 75.5369 13.5393 75.6446 13.5393H79.7336C79.7868 13.5393 79.8394 13.5498 79.8885 13.5703C79.9377 13.5907 79.9823 13.6207 80.0198 13.6584C80.0573 13.6961 80.0869 13.7409 80.107 13.7902C80.1272 13.8394 80.1374 13.8922 80.137 13.9454V26.4062C80.137 28.1494 80.5793 29.4581 81.4483 30.3194C82.3173 31.1806 83.5975 31.6125 85.2502 31.6125C86.4744 31.6252 87.6735 31.2643 88.6874 30.578C89.4352 30.0719 90.1074 29.4624 90.684 28.7676C91.0681 28.2981 91.275 27.7085 91.2685 27.102V13.9454C91.2685 13.8377 91.3113 13.7344 91.3875 13.6582C91.4636 13.5821 91.5669 13.5393 91.6746 13.5393ZM116.757 14.0851C115.312 13.3052 113.689 12.9131 112.047 12.9471C110.537 12.9371 109.046 13.292 107.702 13.9816C106.474 14.598 105.381 15.4536 104.487 16.4981V13.9428C104.487 13.8356 104.444 13.733 104.367 13.6574C104.291 13.5818 104.189 13.5394 104.081 13.5394H100.489C100.383 13.5407 100.281 13.5838 100.207 13.6594C100.132 13.7349 100.091 13.8367 100.091 13.9428V34.9696C100.091 35.0769 100.133 35.1797 100.209 35.2558C100.284 35.3319 100.387 35.375 100.494 35.3757H104.583C104.691 35.3757 104.794 35.3329 104.87 35.2567C104.946 35.1806 104.989 35.0773 104.989 34.9696V21.8363C104.991 21.187 105.228 20.5605 105.656 20.0724C106.232 19.4145 106.89 18.8338 107.614 18.3448C108.629 17.6574 109.829 17.2964 111.054 17.3102C112.554 17.3102 113.785 17.7577 114.716 18.6448C115.647 19.5319 116.126 20.8224 116.126 22.501V34.967C116.126 35.0745 116.169 35.1774 116.245 35.2534C116.321 35.3294 116.424 35.3724 116.532 35.3731H120.621C120.728 35.3724 120.831 35.3293 120.906 35.2532C120.982 35.1772 121.024 35.0743 121.024 34.967V21.8673C121.051 20.2587 120.668 18.6697 119.91 17.2507C119.18 15.9181 118.086 14.8203 116.757 14.0851ZM125.336 13.5394H129.422C129.646 13.5394 129.828 13.7212 129.828 13.9455V34.9697C129.828 35.1939 129.646 35.3757 129.422 35.3757H125.336C125.111 35.3757 124.93 35.1939 124.93 34.9697V13.9455C124.93 13.7212 125.111 13.5394 125.336 13.5394ZM149.45 17.8456H142.506C142.358 17.847 142.216 17.9071 142.112 18.0128C142.008 18.1184 141.949 18.2611 141.95 18.4095V27.8159C141.95 29.2099 142.214 30.0117 142.863 30.5833C142.871 30.591 143.662 31.3126 146.062 31.3126H149.432C149.486 31.3126 149.538 31.3231 149.588 31.3435C149.637 31.3639 149.682 31.3938 149.719 31.4315C149.757 31.4692 149.787 31.514 149.807 31.5633C149.828 31.6125 149.838 31.6653 149.838 31.7187V35.5076C149.838 35.5609 149.828 35.6137 149.807 35.663C149.787 35.7123 149.757 35.757 149.719 35.7947C149.682 35.8324 149.637 35.8624 149.588 35.8828C149.538 35.9032 149.486 35.9137 149.432 35.9137H144.596C142.372 35.9137 140.535 35.3292 139.165 34.1395C137.794 32.9497 137.096 31.1264 137.096 28.7082V18.3629C137.088 18.2406 137.042 18.124 136.962 18.0307C136.883 17.9374 136.775 17.8724 136.656 17.8456H133.596C133.49 17.8436 133.389 17.8004 133.314 17.7251C133.239 17.6498 133.197 17.5483 133.195 17.4422V13.9429C133.195 13.8361 133.238 13.7336 133.313 13.6576C133.388 13.5816 133.49 13.5382 133.596 13.5368H136.524C136.669 13.5364 136.808 13.4803 136.913 13.3802C137.018 13.2802 137.081 13.1437 137.088 12.9989V10.7876C137.087 10.7342 137.098 10.6812 137.118 10.6319C137.138 10.5825 137.169 10.5378 137.207 10.5005L141.244 6.43998C141.301 6.38247 141.373 6.34308 141.452 6.32682C141.531 6.31057 141.613 6.31818 141.687 6.34869C141.762 6.3792 141.826 6.43123 141.871 6.49816C141.916 6.56508 141.94 6.64386 141.94 6.72447V12.973C141.94 13.123 142 13.2667 142.106 13.3728C142.212 13.4788 142.356 13.5387 142.506 13.5394H149.45C149.558 13.5394 149.661 13.5818 149.737 13.6574C149.813 13.733 149.856 13.8356 149.856 13.9429V17.4396C149.856 17.5471 149.813 17.65 149.737 17.726C149.661 17.802 149.558 17.845 149.45 17.8456ZM248.7 31.4082H238.412C238.255 31.4082 238.104 31.3458 237.993 31.2347C237.882 31.1237 237.82 30.973 237.82 30.8159V25.3717C237.82 25.294 237.835 25.2169 237.865 25.1451C237.895 25.0732 237.938 25.0079 237.993 24.9529C238.048 24.8979 238.114 24.8543 238.185 24.8245C238.257 24.7948 238.334 24.7795 238.412 24.7795H248.069C248.18 24.7795 248.286 24.7356 248.364 24.6575C248.442 24.5794 248.486 24.4735 248.486 24.3631V21.2259C248.486 21.1154 248.442 21.0095 248.364 20.9314C248.286 20.8533 248.18 20.8095 248.069 20.8095H238.412C238.255 20.8088 238.105 20.7462 237.994 20.6352C237.883 20.5243 237.82 20.3741 237.82 20.2172V15.2385C237.82 15.0817 237.883 14.9314 237.994 14.8205C238.105 14.7096 238.255 14.6469 238.412 14.6463H248.69C248.745 14.6463 248.8 14.6353 248.851 14.6141C248.901 14.5928 248.948 14.5617 248.986 14.5225C249.025 14.4833 249.056 14.4368 249.076 14.3856C249.097 14.3345 249.107 14.2798 249.106 14.2247V11.0927C249.106 10.9822 249.063 10.8763 248.984 10.7982C248.906 10.7201 248.8 10.6763 248.69 10.6763H233.048C232.938 10.6763 232.832 10.7201 232.754 10.7982C232.675 10.8763 232.632 10.9822 232.632 11.0927V34.9618C232.632 35.0722 232.675 35.1781 232.754 35.2562C232.832 35.3343 232.938 35.3782 233.048 35.3782H248.7C248.811 35.3782 248.917 35.3343 248.995 35.2562C249.073 35.1781 249.117 35.0722 249.117 34.9618V31.8246C249.117 31.7142 249.073 31.6082 248.995 31.5302C248.917 31.4521 248.811 31.4082 248.7 31.4082ZM197.925 10.8043C198.037 10.8824 198.122 10.993 198.169 11.1212L206.732 34.6981C206.764 34.7816 206.772 34.8723 206.756 34.9602C206.74 35.0482 206.701 35.1301 206.642 35.1972C206.59 35.2538 206.527 35.2985 206.456 35.3284C206.386 35.3583 206.31 35.3727 206.233 35.3705H202.372C202.269 35.3703 202.168 35.3384 202.084 35.2792C202 35.2199 201.936 35.1362 201.901 35.0394L199.904 29.6702C199.873 29.5855 199.817 29.5123 199.743 29.4605C199.669 29.4087 199.581 29.3808 199.491 29.3806H190.438C190.348 29.3805 190.26 29.4082 190.186 29.4601C190.112 29.5119 190.055 29.5853 190.025 29.6702L188.075 35.1015C188.045 35.1824 187.992 35.2524 187.922 35.3019C187.851 35.3514 187.767 35.378 187.681 35.3783H183.898C183.821 35.3804 183.745 35.3661 183.674 35.3362C183.604 35.3063 183.541 35.2615 183.489 35.205C183.43 35.1378 183.39 35.056 183.374 34.9682C183.357 34.8803 183.365 34.7897 183.396 34.7058L191.871 11.1212C191.919 10.993 192.005 10.8826 192.117 10.8045C192.229 10.7264 192.363 10.6844 192.5 10.6841H197.543C197.68 10.6842 197.813 10.7261 197.925 10.8043ZM195.179 16.6768C195.114 16.6303 195.036 16.6057 194.957 16.6068C194.878 16.607 194.801 16.6324 194.737 16.6794C194.673 16.7264 194.626 16.7924 194.602 16.868L191.757 24.8364C191.725 24.9302 191.725 25.032 191.758 25.1257C191.79 25.2194 191.853 25.2997 191.936 25.3537C192.004 25.3976 192.083 25.4202 192.163 25.4183H197.75C197.85 25.4204 197.947 25.3864 198.024 25.3226C198.095 25.2647 198.147 25.1861 198.171 25.0975C198.196 25.009 198.192 24.915 198.161 24.8287L195.316 16.8654C195.292 16.7895 195.244 16.7234 195.179 16.6768ZM224.024 25.8192L223.318 24.6941L223.235 24.5778C223.373 24.5209 223.494 24.4665 223.603 24.4148C224.929 23.8101 226.073 22.8662 226.918 21.6785C227.696 20.5844 228.113 19.2756 228.113 17.9335C228.163 16.5845 227.801 15.2523 227.076 14.1133C226.352 12.9744 225.298 12.0825 224.055 11.5556C222.643 10.9448 221.117 10.6449 219.578 10.6763H209.789C209.679 10.6763 209.573 10.7202 209.495 10.7983C209.417 10.8763 209.373 10.9823 209.373 11.0927V34.9618C209.373 35.0723 209.417 35.1782 209.495 35.2563C209.573 35.3344 209.679 35.3782 209.789 35.3782H213.798C213.853 35.3782 213.907 35.3675 213.957 35.3465C214.008 35.3256 214.054 35.2949 214.092 35.2563C214.131 35.2176 214.162 35.1717 214.183 35.1212C214.204 35.0707 214.214 35.0165 214.214 34.9618V26.0261C214.215 25.8692 214.278 25.719 214.389 25.6081C214.5 25.4971 214.65 25.4345 214.807 25.4338H218.102C218.175 25.434 218.246 25.4522 218.31 25.487C218.375 25.5218 218.429 25.5719 218.469 25.633L224.578 35.1506C224.623 35.2205 224.685 35.2779 224.758 35.3177C224.832 35.3574 224.913 35.3783 224.997 35.3782H229.313C229.403 35.3764 229.49 35.3504 229.566 35.303C229.641 35.2555 229.703 35.1884 229.744 35.1088C229.784 35.0291 229.802 34.94 229.796 34.8508C229.79 34.7616 229.76 34.6757 229.709 34.6023L224.024 25.8192ZM214.214 15.2386C214.215 15.0817 214.278 14.9314 214.389 14.8205C214.5 14.7096 214.65 14.647 214.807 14.6463H219.534C220.218 14.6316 220.896 14.7676 221.521 15.0446C222.049 15.2839 222.494 15.6768 222.796 16.1722C223.101 16.7081 223.254 17.3171 223.238 17.9335C223.253 18.5916 223.073 19.2394 222.721 19.7957C222.352 20.3446 221.831 20.7734 221.221 21.0293C220.49 21.3334 219.705 21.4823 218.914 21.4664H214.807C214.65 21.4657 214.5 21.4031 214.389 21.2922C214.278 21.1813 214.215 21.031 214.214 20.8742V15.2386ZM178.091 26.8409H182.108C182.178 26.8411 182.247 26.8562 182.311 26.8851C182.375 26.9141 182.432 26.9563 182.478 27.009C182.525 27.0647 182.559 27.1296 182.579 27.1996C182.599 27.2696 182.604 27.343 182.594 27.415C182.388 28.9933 181.771 30.4898 180.806 31.7554C179.84 33.021 178.56 34.0116 177.093 34.6283C175.376 35.355 173.526 35.7136 171.662 35.6809C169.267 35.6809 167.162 35.1636 165.403 34.1291C163.636 33.0976 162.213 31.5683 161.311 29.7324C160.357 27.8392 159.873 25.5943 159.873 23.0338C159.873 20.4734 160.37 18.2284 161.345 16.3352C162.274 14.4947 163.722 12.9663 165.509 11.9385C167.291 10.904 169.419 10.3867 171.835 10.3867C173.657 10.3562 175.465 10.7087 177.142 11.4212C178.628 12.0567 179.917 13.0783 180.874 14.38C181.729 15.5758 182.275 16.9645 182.462 18.4224C182.47 18.4932 182.464 18.565 182.443 18.6332C182.422 18.7014 182.388 18.7646 182.341 18.8188C182.295 18.8729 182.238 18.9169 182.174 18.9479C182.109 18.979 182.039 18.9964 181.968 18.9991H177.913C177.797 18.9958 177.685 18.9534 177.596 18.8788C177.507 18.8042 177.445 18.7017 177.421 18.5879C177.275 17.8326 176.972 17.1162 176.532 16.4853C176.034 15.7919 175.358 15.2452 174.577 14.9024C173.715 14.524 172.782 14.3344 171.84 14.3464C170.617 14.3141 169.416 14.6769 168.416 15.3809C167.319 16.1183 166.463 17.1627 165.956 18.3836C165.349 19.8518 165.053 21.4299 165.087 23.0183C165.05 24.6119 165.34 26.1962 165.938 27.6737C166.424 28.8881 167.252 29.935 168.323 30.6867C169.289 31.3916 170.461 31.7556 171.657 31.7213C172.665 31.7388 173.667 31.5432 174.595 31.1471C175.42 30.7902 176.134 30.2186 176.664 29.4918C177.136 28.825 177.456 28.062 177.6 27.2573C177.623 27.1425 177.684 27.0389 177.773 26.9633C177.862 26.8876 177.974 26.8445 178.091 26.8409ZM256.017 16.3843H255.115C255.072 16.3843 255.031 16.3675 255 16.3375C254.97 16.3075 254.952 16.2667 254.952 16.224V11.8428C254.952 11.8263 254.945 11.8105 254.933 11.7989C254.922 11.7872 254.906 11.7807 254.889 11.7807H253.338C253.296 11.7807 253.256 11.7641 253.226 11.7345C253.197 11.7049 253.18 11.6648 253.18 11.6229V10.847C253.18 10.8256 253.184 10.8044 253.192 10.7847C253.201 10.7649 253.213 10.7469 253.228 10.7318C253.243 10.7167 253.261 10.7047 253.281 10.6965C253.3 10.6883 253.321 10.6841 253.343 10.6841H257.773C257.816 10.6848 257.857 10.7022 257.887 10.7327C257.917 10.7632 257.934 10.8042 257.934 10.847V11.6229C257.934 11.6648 257.917 11.7049 257.887 11.7345C257.858 11.7641 257.818 11.7807 257.776 11.7807H256.252C256.236 11.7807 256.22 11.7872 256.209 11.7989C256.197 11.8105 256.19 11.8263 256.19 11.8428L256.172 16.2214C256.172 16.2633 256.156 16.3036 256.127 16.3339C256.098 16.3643 256.059 16.3823 256.017 16.3843ZM264.094 16.3791H264.87C264.893 16.3796 264.916 16.3752 264.937 16.3662C264.959 16.3572 264.978 16.3439 264.994 16.3271C265.009 16.3103 265.022 16.2904 265.029 16.2686C265.037 16.2468 265.04 16.2237 265.038 16.2007V10.8444C265.039 10.8224 265.035 10.8004 265.027 10.7799C265.019 10.7593 265.007 10.7406 264.991 10.7249C264.976 10.7092 264.957 10.6968 264.937 10.6884C264.917 10.6801 264.895 10.6759 264.873 10.6763H263.613C263.58 10.6763 263.547 10.6865 263.52 10.7054C263.493 10.7244 263.472 10.7512 263.46 10.7823L261.831 14.8558L260.204 10.7849C260.192 10.7533 260.171 10.726 260.143 10.7067C260.116 10.6873 260.083 10.6767 260.049 10.6763H258.735C258.694 10.6768 258.655 10.6923 258.625 10.72C258.595 10.7477 258.576 10.7856 258.572 10.8263V16.2007C258.571 16.2231 258.575 16.2455 258.582 16.2666C258.59 16.2877 258.602 16.3071 258.617 16.3237C258.632 16.3403 258.65 16.3537 258.671 16.3632C258.691 16.3727 258.713 16.3781 258.735 16.3791H259.568C259.61 16.3792 259.65 16.3631 259.681 16.3342C259.711 16.3053 259.729 16.2658 259.731 16.2239V12.6729L261.213 16.2705C261.225 16.3023 261.246 16.3298 261.273 16.3492C261.301 16.3686 261.334 16.3791 261.368 16.3791H262.284C262.317 16.3793 262.35 16.3692 262.378 16.3503C262.405 16.3313 262.427 16.3044 262.439 16.2731L263.931 12.6833V16.2239C263.933 16.266 263.95 16.3059 263.981 16.3349C264.011 16.3639 264.052 16.3798 264.094 16.3791Z" fill="black"/>
</g>
<defs>
<clipPath id="clip0_9162_122392">
<rect width="266" height="40" fill="white"/>
</clipPath>
</defs>
</svg>
