<svg width="458" height="40" viewBox="0 0 458 40" fill="none" xmlns="http://www.w3.org/2000/svg">
<g clip-path="url(#clip0_9065_85520)">
<path d="M20 0C16.0444 0 12.1776 1.17298 8.8886 3.37061C5.59962 5.56824 3.03617 8.69181 1.52242 12.3463C0.0086657 16.0009 -0.387401 20.0222 0.384303 23.9018C1.15601 27.7814 3.06082 31.3451 5.85787 34.1421C8.65492 36.9392 12.2186 38.844 16.0982 39.6157C19.9778 40.3874 23.9992 39.9913 27.6537 38.4776C31.3082 36.9638 34.4318 34.4004 36.6294 31.1114C38.827 27.8224 40 23.9556 40 20C40 14.6957 37.8929 9.60859 34.1421 5.85786C30.3914 2.10714 25.3043 0 20 0ZM26.0106 18.6629C24.0815 18.6864 22.238 19.4631 20.8739 20.8273C19.5097 22.1915 18.7329 24.035 18.7094 25.964C18.7094 25.9951 18.7094 26.0261 18.7094 26.0572C18.7094 26.9907 18.4326 27.9033 17.914 28.6795C17.3953 29.4557 16.6582 30.0606 15.7957 30.4179C14.9332 30.7751 13.9842 30.8686 13.0686 30.6865C12.153 30.5044 11.3119 30.0548 10.6518 29.3947C9.99173 28.7346 9.54219 27.8936 9.36007 26.978C9.17794 26.0624 9.27142 25.1134 9.62866 24.2509C9.98591 23.3884 10.5909 22.6512 11.3671 22.1326C12.1433 21.6139 13.0559 21.3371 13.9894 21.3371C14.9529 21.3368 15.9068 21.1459 16.7962 20.7753C17.6856 20.4047 18.4929 19.8618 19.1716 19.1778C19.8502 18.4939 20.3869 17.6824 20.7505 16.7902C21.1142 15.8979 21.2977 14.9425 21.2906 13.979V13.9428C21.2906 13.0093 21.5674 12.0967 22.0861 11.3205C22.6047 10.5443 23.3419 9.93935 24.2043 9.5821C25.0668 9.22485 26.0159 9.13138 26.9314 9.31351C27.847 9.49563 28.6881 9.94517 29.3482 10.6053C30.0083 11.2654 30.4578 12.1064 30.6399 13.022C30.8221 13.9376 30.7286 14.8866 30.3714 15.7491C30.0141 16.6116 29.4091 17.3488 28.6329 17.8674C27.8567 18.386 26.9441 18.6629 26.0106 18.6629Z" fill="#00C9EA"/>
<path fill-rule="evenodd" clip-rule="evenodd" d="M395.176 34.1213C396.413 35.1791 398.055 35.717 400.059 35.717L404.337 35.7145C404.454 35.7145 404.566 35.6681 404.648 35.5857C404.731 35.5032 404.777 35.3914 404.777 35.2748V31.9126C404.777 31.796 404.731 31.6841 404.648 31.6017C404.566 31.5192 404.454 31.4729 404.337 31.4729H401.332C399.258 31.4729 398.546 30.8444 398.546 30.8444C397.998 30.3556 397.771 29.6599 397.771 28.4495V20.0828C397.772 19.9738 397.815 19.8695 397.891 19.7915C397.967 19.7135 398.07 19.6677 398.179 19.6638H404.348C404.464 19.6638 404.576 19.6174 404.658 19.535C404.741 19.4525 404.787 19.3407 404.787 19.2241V16.1205C404.787 16.0039 404.741 15.8921 404.658 15.8096C404.576 15.7272 404.464 15.6808 404.348 15.6808H398.195C398.083 15.6802 397.976 15.6356 397.896 15.5568C397.817 15.4779 397.772 15.3711 397.771 15.2593V9.71162C397.771 9.65356 397.76 9.59602 397.738 9.54235C397.715 9.48868 397.683 9.43996 397.642 9.39903C397.6 9.3581 397.551 9.32578 397.498 9.30396C397.444 9.28214 397.386 9.27125 397.328 9.27194C397.212 9.27251 397.1 9.31898 397.018 9.40126L393.431 13.0092C393.39 13.05 393.358 13.0985 393.336 13.1517C393.315 13.205 393.304 13.262 393.304 13.3195V15.2825C393.299 15.3907 393.252 15.4927 393.173 15.5674C393.095 15.642 392.991 15.6836 392.882 15.6834H390.275C390.159 15.6834 390.047 15.7297 389.964 15.8122C389.882 15.8947 389.836 16.0065 389.836 16.1231V19.2267C389.836 19.3433 389.882 19.4551 389.964 19.5376C390.047 19.62 390.159 19.6664 390.275 19.6664H392.981C393.069 19.6862 393.149 19.7342 393.208 19.8032C393.268 19.8722 393.303 19.9584 393.309 20.0491V29.2461C393.309 31.4186 393.94 33.0635 395.176 34.1213ZM344.997 35.3731C344.868 35.3724 344.745 35.3209 344.654 35.2299C344.563 35.1389 344.511 35.0156 344.511 34.8868V23.3131C344.528 22.5987 344.378 21.8902 344.073 21.244C343.813 20.6942 343.399 20.2316 342.881 19.912C342.35 19.5959 341.741 19.4347 341.122 19.4465C340.344 19.4408 339.577 19.6321 338.893 20.0026C338.134 20.4413 337.485 21.0483 336.997 21.7768C336.554 22.42 336.177 23.1063 335.872 23.8252V34.8868C335.872 35.0158 335.821 35.1395 335.73 35.2306C335.639 35.3218 335.515 35.3731 335.386 35.3731H331.506C331.378 35.3731 331.254 35.3218 331.163 35.2306C331.071 35.1395 331.02 35.0158 331.02 34.8868V9.87455C331.02 9.74559 331.071 9.62192 331.163 9.53073C331.254 9.43955 331.378 9.38832 331.506 9.38832H335.081C335.21 9.38832 335.333 9.43955 335.425 9.53073C335.516 9.62192 335.567 9.74559 335.567 9.87455V18.3241L335.614 18.2025C335.743 18.0525 335.872 17.9154 336.004 17.7887C336.759 17.0452 337.655 16.4596 338.64 16.0662C339.617 15.6871 340.656 15.495 341.704 15.4998C343.064 15.4688 344.409 15.7943 345.605 16.4438C346.702 17.0598 347.593 17.9855 348.168 19.1051C348.778 20.3371 349.081 21.6981 349.052 23.0725V34.8868C349.051 35.0156 349 35.1389 348.909 35.2299C348.818 35.3209 348.695 35.3724 348.566 35.3731H344.997ZM431.054 26.8744H435.081L435.078 26.9055C435.151 26.906 435.222 26.9222 435.288 26.9529C435.353 26.9837 435.411 27.0282 435.458 27.0835C435.504 27.1387 435.539 27.2035 435.558 27.2732C435.577 27.3429 435.581 27.416 435.57 27.4874C435.364 28.9989 434.79 30.4368 433.899 31.6746C432.912 33.0062 431.59 34.0536 430.069 34.711C428.342 35.4394 426.482 35.7979 424.609 35.7636C422.217 35.7636 420.098 35.2463 418.337 34.2118C416.563 33.1748 415.136 31.6372 414.233 29.7918C413.278 27.8857 412.792 25.633 412.792 23.0674C412.792 20.5017 413.289 18.2413 414.269 16.3429C415.198 14.4941 416.648 12.9576 418.441 11.9229C420.228 10.8884 422.361 10.3711 424.782 10.3711C426.609 10.3391 428.423 10.6916 430.105 11.4057C431.596 12.051 432.887 13.0833 433.845 14.3954C434.702 15.594 435.248 16.9865 435.435 18.4482C435.445 18.5204 435.44 18.594 435.419 18.6639C435.399 18.7339 435.364 18.7988 435.316 18.8542C435.269 18.9076 435.212 18.9504 435.147 18.9799C435.082 19.0093 435.012 19.0247 434.941 19.0249H430.876C430.759 19.0222 430.647 18.98 430.557 18.9054C430.467 18.8307 430.405 18.7279 430.382 18.6137C430.239 17.8561 429.936 17.1376 429.494 16.5059C428.996 15.8103 428.32 15.2618 427.537 14.9179C426.668 14.5377 425.728 14.3481 424.78 14.3618C423.555 14.3284 422.352 14.6913 421.35 15.3963C420.249 16.1346 419.39 17.182 418.883 18.4068C418.273 19.8816 417.976 21.4668 418.011 23.0622C417.976 24.6559 418.266 26.2401 418.865 27.7176C419.355 28.9336 420.189 29.9805 421.265 30.7306C422.233 31.4366 423.409 31.8006 424.606 31.7651C425.618 31.7832 426.622 31.5875 427.552 31.191C428.377 30.8313 429.091 30.2582 429.621 29.5306C430.096 28.8615 430.418 28.0958 430.563 27.2882C430.583 27.1727 430.644 27.068 430.733 26.9924C430.823 26.9168 430.937 26.875 431.054 26.8744ZM328.349 26.8744H324.322C324.204 26.875 324.091 26.9168 324.001 26.9924C323.911 27.068 323.851 27.1727 323.83 27.2882C323.685 28.0958 323.364 28.8615 322.889 29.5306C322.359 30.2582 321.645 30.8313 320.82 31.191C319.889 31.5875 318.885 31.7832 317.874 31.7651C316.676 31.8006 315.501 31.4366 314.532 30.7306C313.457 29.9805 312.623 28.9336 312.132 27.7176C311.534 26.2401 311.243 24.6559 311.279 23.0622C311.244 21.4668 311.541 19.8816 312.151 18.4068C312.658 17.182 313.517 16.1346 314.618 15.3963C315.62 14.6913 316.823 14.3284 318.047 14.3618C318.995 14.3481 319.936 14.5377 320.804 14.9179C321.588 15.2618 322.264 15.8103 322.762 16.5059C323.204 17.1376 323.507 17.8561 323.649 18.6137C323.673 18.7279 323.735 18.8307 323.825 18.9054C323.914 18.98 324.027 19.0222 324.143 19.0249H328.209C328.28 19.0247 328.35 19.0093 328.415 18.9799C328.479 18.9504 328.537 18.9076 328.584 18.8542C328.631 18.7988 328.666 18.7339 328.687 18.6639C328.707 18.594 328.713 18.5204 328.703 18.4482C328.516 16.9865 327.97 15.594 327.112 14.3954C326.151 13.0915 324.859 12.0674 323.37 11.4289C321.688 10.7149 319.874 10.3624 318.047 10.3944C315.627 10.3944 313.493 10.9117 311.706 11.9462C309.914 12.9809 308.463 14.5174 307.534 16.3662C306.554 18.2646 306.057 20.525 306.057 23.0906C306.057 25.6563 306.543 27.9089 307.498 29.8151C308.401 31.6605 309.829 33.1981 311.602 34.2351C313.363 35.2696 315.482 35.7869 317.874 35.7869C319.747 35.8212 321.607 35.4626 323.334 34.7342C324.864 34.0626 326.188 32.9959 327.169 31.6436C328.061 30.4058 328.635 28.9679 328.84 27.4563C328.852 27.3849 328.848 27.3118 328.828 27.2421C328.809 27.1724 328.775 27.1077 328.728 27.0524C328.681 26.9972 328.623 26.9526 328.558 26.9219C328.492 26.8912 328.421 26.875 328.349 26.8744ZM457.002 10.6841H437.346C437.239 10.6841 437.136 10.7268 437.059 10.803C436.983 10.8791 436.94 10.9824 436.94 11.0901V14.5687C436.94 14.6712 436.981 14.7694 437.053 14.8421C437.125 14.9148 437.223 14.956 437.326 14.9567H444.167C444.324 14.9567 444.474 15.0191 444.585 15.1301C444.696 15.2412 444.759 15.3919 444.759 15.5489V34.9799C444.76 35.0874 444.803 35.1903 444.879 35.2663C444.955 35.3423 445.057 35.3853 445.165 35.386H449.171C449.282 35.386 449.388 35.3422 449.466 35.2642C449.545 35.1862 449.589 35.0803 449.59 34.9696L449.66 15.5463C449.661 15.3897 449.723 15.2397 449.834 15.1292C449.945 15.0187 450.096 14.9567 450.252 14.9567H457.015C457.118 14.956 457.216 14.9148 457.288 14.8421C457.36 14.7694 457.401 14.6712 457.401 14.5687V11.0901C457.401 10.9838 457.359 10.8816 457.285 10.8057C457.21 10.7298 457.109 10.6861 457.002 10.6841ZM380.272 35.717C378.763 35.7504 377.261 35.4968 375.846 34.9696C374.706 34.5372 373.704 33.8034 372.947 32.8462C372.403 32.1282 372.022 31.3004 371.83 30.4203C371.812 30.3409 371.812 30.2585 371.831 30.1792C371.849 30.1 371.885 30.0259 371.936 29.9625C371.987 29.8972 372.053 29.8445 372.128 29.8082C372.203 29.7719 372.285 29.7531 372.368 29.753H376.247C376.362 29.753 376.473 29.789 376.566 29.8558C376.659 29.9227 376.728 30.017 376.765 30.1254C376.944 30.6859 377.309 31.1685 377.799 31.4936C378.42 31.91 379.25 32.1195 380.269 32.1195C380.861 32.1315 381.451 32.0441 382.015 31.8608C382.477 31.713 382.892 31.4453 383.217 31.0849C383.508 30.7483 383.665 30.3166 383.657 29.872C383.661 29.5972 383.599 29.3256 383.476 29.0798C383.353 28.834 383.173 28.6214 382.951 28.4598C382.498 28.1107 381.818 27.8391 380.882 27.6322L377.667 26.983C375.857 26.6184 374.471 25.9485 373.558 25.0226C373.105 24.5551 372.752 24.0009 372.52 23.3933C372.287 22.7856 372.18 22.1372 372.205 21.4871C372.172 20.3412 372.51 19.2152 373.17 18.2775C373.879 17.3257 374.844 16.5955 375.952 16.1722C377.312 15.6539 378.758 15.4028 380.212 15.4325C381.639 15.4023 383.058 15.6518 384.389 16.1671C385.487 16.5896 386.443 17.313 387.149 18.2542C387.659 18.9628 388.006 19.7753 388.165 20.6336C388.18 20.7129 388.177 20.7945 388.157 20.8726C388.136 20.9507 388.099 21.0233 388.048 21.0853C387.996 21.1474 387.931 21.1972 387.858 21.2313C387.785 21.2655 387.705 21.283 387.625 21.2828H384.043C383.929 21.2843 383.818 21.2501 383.726 21.1851C383.633 21.1202 383.563 21.0277 383.525 20.9207C383.345 20.3996 383.007 19.9476 382.558 19.6276C381.891 19.173 381.096 18.9446 380.29 18.9758C379.744 18.9661 379.201 19.0537 378.686 19.2344C378.241 19.3893 377.844 19.6566 377.533 20.0103C377.248 20.3331 377.094 20.7513 377.103 21.1819C377.101 21.44 377.157 21.6952 377.27 21.9276C377.382 22.16 377.546 22.3633 377.75 22.5216C378.169 22.8811 378.818 23.1553 379.734 23.3648L383.241 24.0941C385.08 24.4821 386.463 25.1287 387.356 25.9718C388.248 26.8149 388.685 27.9477 388.693 29.334C388.703 30.5234 388.335 31.6852 387.643 32.6523C386.889 33.659 385.871 34.437 384.702 34.8998C383.294 35.4647 381.788 35.7426 380.272 35.717ZM351.116 25.6304C351.116 31.5789 355.254 35.717 361.179 35.717C364.412 35.717 367.102 34.5661 369.143 32.2747C369.176 32.2363 369.202 32.1916 369.219 32.1432C369.235 32.0949 369.242 32.0437 369.238 31.9927C369.234 31.9429 369.22 31.8943 369.197 31.8499C369.174 31.8055 369.142 31.7662 369.104 31.7341L366.859 29.7944C366.787 29.7326 366.695 29.6995 366.6 29.7013C366.504 29.7028 366.412 29.7396 366.342 29.8047C364.736 31.2712 363.212 31.8971 361.249 31.8971C358.399 31.8971 356.283 30.1875 355.727 27.4357C355.722 27.4112 355.723 27.3858 355.729 27.3616C355.735 27.3374 355.747 27.3149 355.764 27.296C355.78 27.2747 355.801 27.2576 355.825 27.2459C355.85 27.2342 355.876 27.2283 355.903 27.2287H369.815C369.913 27.2284 370.007 27.1913 370.079 27.1247C370.151 27.0581 370.195 26.9669 370.203 26.8692C370.231 26.5175 370.255 26.202 370.255 25.8839C370.255 20.6854 367.257 15.4403 360.685 15.4403C354.114 15.4403 351.116 20.6854 351.116 25.558V25.6304ZM355.774 23.7631C356.286 20.8871 358.19 19.1077 360.737 19.1077C363.362 19.1077 365.188 20.8457 365.605 23.7683C365.608 23.7927 365.607 23.8178 365.599 23.8415C365.592 23.8652 365.58 23.887 365.563 23.9053C365.546 23.9255 365.526 23.9418 365.502 23.9529C365.478 23.9641 365.452 23.9699 365.426 23.97H355.952C355.925 23.9704 355.899 23.9645 355.875 23.9528C355.85 23.9412 355.829 23.924 355.813 23.9027C355.796 23.8841 355.783 23.8618 355.777 23.8375C355.77 23.8133 355.769 23.7878 355.774 23.7631Z" fill="#00C9EA"/>
<path fill-rule="evenodd" clip-rule="evenodd" d="M57.9593 30.5186H72.4013C72.5081 30.5206 72.6097 30.5647 72.6843 30.6411C72.7589 30.7176 72.8003 30.8204 72.7996 30.9272V34.9696C72.7989 35.0771 72.7559 35.18 72.6799 35.256C72.6039 35.332 72.501 35.375 72.3935 35.3757H56.0997C54.7154 35.3736 53.3884 34.8228 52.4096 33.844C51.4308 32.8652 50.88 31.5382 50.8779 30.1539V3.95451C50.8779 3.84682 50.9207 3.74354 50.9969 3.66739C51.073 3.59124 51.1763 3.54846 51.284 3.54846H55.7428C55.8505 3.54846 55.9538 3.59124 56.0299 3.66739C56.1061 3.74354 56.1488 3.84682 56.1488 3.95451V28.7082C56.1549 29.1864 56.3476 29.6434 56.6858 29.9817C57.024 30.3199 57.481 30.5126 57.9593 30.5186ZM129.422 5.77269H125.335C125.111 5.77269 124.929 5.95449 124.929 6.17874V10.2651C124.929 10.4894 125.111 10.6712 125.335 10.6712H129.422C129.646 10.6712 129.828 10.4894 129.828 10.2651V6.17874C129.828 5.95449 129.646 5.77269 129.422 5.77269ZM95.7607 13.5394H91.6743C91.5666 13.5394 91.4634 13.5822 91.3872 13.6583C91.3111 13.7345 91.2683 13.8378 91.2683 13.9455V27.1021C91.2748 27.7086 91.0679 28.2982 90.6838 28.7676C90.1074 29.4618 89.4362 30.0713 88.6897 30.5781C87.6747 31.2641 86.475 31.625 85.2499 31.6126C83.5973 31.6126 82.317 31.1807 81.448 30.3194C80.579 29.4582 80.1368 28.1495 80.1368 26.4063V13.9455C80.1371 13.8923 80.1269 13.8395 80.1068 13.7903C80.0867 13.741 80.057 13.6962 80.0195 13.6585C79.982 13.6208 79.9374 13.5908 79.8883 13.5704C79.8392 13.5499 79.7865 13.5394 79.7333 13.5394H75.6443C75.5366 13.5394 75.4334 13.5822 75.3572 13.6583C75.2811 13.7345 75.2383 13.8378 75.2383 13.9455V27.0452C75.2383 29.7013 76.0426 31.8764 77.628 33.511C79.2134 35.1455 81.4429 35.9705 84.249 35.9705C85.7605 35.9821 87.2523 35.6271 88.5966 34.936C89.8268 34.3188 90.9208 33.4614 91.814 32.4144V34.9696C91.8147 35.0771 91.8577 35.18 91.9337 35.256C92.0097 35.332 92.1126 35.375 92.22 35.3757H95.7633C95.871 35.3757 95.9743 35.3329 96.0504 35.2568C96.1266 35.1806 96.1694 35.0773 96.1694 34.9696V13.9455C96.1694 13.8919 96.1588 13.8389 96.1382 13.7895C96.1176 13.74 96.0875 13.6952 96.0495 13.6574C96.0115 13.6197 95.9665 13.5898 95.9169 13.5696C95.8673 13.5493 95.8143 13.5391 95.7607 13.5394ZM112.047 12.9471C113.689 12.9131 115.311 13.3052 116.757 14.0851C118.087 14.8196 119.18 15.9176 119.909 17.2508C120.668 18.6696 121.053 20.2585 121.027 21.8674V34.9671C121.026 35.0745 120.983 35.1774 120.907 35.2534C120.831 35.3294 120.728 35.3724 120.621 35.3731H116.532C116.424 35.3724 116.321 35.3294 116.245 35.2534C116.169 35.1774 116.126 35.0745 116.126 34.9671V22.501C116.126 20.8225 115.647 19.5319 114.716 18.6448C113.785 17.7577 112.554 17.3103 111.054 17.3103C109.828 17.2964 108.628 17.6574 107.614 18.3448C106.89 18.8338 106.231 19.4145 105.656 20.0724C105.228 20.5605 104.991 21.1871 104.989 21.8363V34.9696C104.989 35.0773 104.946 35.1806 104.87 35.2568C104.794 35.3329 104.69 35.3757 104.583 35.3757H100.496C100.389 35.3757 100.285 35.3329 100.209 35.2568C100.133 35.1806 100.09 35.0773 100.09 34.9696V13.9429C100.09 13.8363 100.132 13.7341 100.208 13.6585C100.283 13.5829 100.385 13.5401 100.491 13.5394H104.081C104.188 13.5394 104.291 13.5818 104.367 13.6574C104.443 13.733 104.486 13.8356 104.487 13.9429V16.4982C105.38 15.4536 106.473 14.598 107.702 13.9817C109.046 13.292 110.536 12.9371 112.047 12.9471ZM129.422 13.5394H125.335C125.111 13.5394 124.929 13.7212 124.929 13.9455V34.9697C124.929 35.1939 125.111 35.3757 125.335 35.3757H129.422C129.646 35.3757 129.828 35.1939 129.828 34.9697V13.9455C129.828 13.7212 129.646 13.5394 129.422 13.5394ZM149.445 13.5394H142.506C142.356 13.5387 142.212 13.4788 142.106 13.3728C142 13.2667 141.94 13.123 141.939 12.973V6.72447C141.939 6.67092 141.929 6.61791 141.908 6.56848C141.888 6.51904 141.858 6.47416 141.82 6.43642C141.782 6.39869 141.737 6.36883 141.687 6.34858C141.637 6.32832 141.584 6.31807 141.531 6.31841C141.478 6.31868 141.425 6.32956 141.376 6.35044C141.327 6.37132 141.283 6.40176 141.246 6.43997L137.206 10.5005C137.168 10.5378 137.138 10.5825 137.118 10.6319C137.097 10.6812 137.087 10.7342 137.087 10.7876V12.9989C137.08 13.1437 137.018 13.2801 136.913 13.3802C136.808 13.4803 136.669 13.5363 136.524 13.5368H133.596C133.489 13.5382 133.387 13.5816 133.312 13.6576C133.237 13.7336 133.195 13.8361 133.195 13.9429V17.4422C133.196 17.5483 133.239 17.6498 133.314 17.7251C133.389 17.8004 133.49 17.8436 133.596 17.8456H136.656C136.775 17.8724 136.883 17.9373 136.962 18.0307C137.041 18.124 137.088 18.2406 137.095 18.3629V28.7082C137.095 31.1264 137.794 32.9497 139.164 34.1394C140.535 35.3291 142.369 35.9137 144.596 35.9137H149.432C149.485 35.9137 149.538 35.9032 149.587 35.8827C149.637 35.8623 149.681 35.8324 149.719 35.7947C149.757 35.757 149.787 35.7123 149.807 35.663C149.828 35.6137 149.838 35.5609 149.838 35.5076V31.7186C149.838 31.6653 149.828 31.6125 149.807 31.5633C149.787 31.514 149.757 31.4692 149.719 31.4315C149.681 31.3938 149.637 31.3639 149.587 31.3435C149.538 31.3231 149.485 31.3126 149.432 31.3126H146.062C143.662 31.3126 142.87 30.591 142.863 30.5833C142.214 30.0117 141.95 29.2099 141.95 27.8159V18.4095C141.95 18.2613 142.008 18.119 142.112 18.0135C142.216 17.908 142.358 17.8477 142.506 17.8456H149.45C149.558 17.845 149.66 17.802 149.736 17.726C149.812 17.65 149.855 17.5471 149.856 17.4396V13.9429C149.856 13.8893 149.845 13.8364 149.824 13.7871C149.803 13.7378 149.773 13.6931 149.734 13.6556C149.696 13.6181 149.651 13.5885 149.601 13.5686C149.552 13.5486 149.498 13.5387 149.445 13.5394ZM210.751 22.0458C211.648 22.3977 212.493 22.8701 213.262 23.4502C213.993 24.003 214.598 24.7047 215.037 25.5089C215.494 26.3862 215.722 27.3649 215.699 28.3538C215.727 29.7429 215.305 31.1037 214.496 32.2333C213.603 33.4043 212.398 34.3005 211.02 34.8196C209.528 35.4326 207.699 35.743 205.589 35.743C203.76 35.781 201.94 35.4785 200.222 34.8507C198.803 34.3311 197.56 33.42 196.638 32.223C195.827 31.1017 195.352 29.7734 195.267 28.3926C195.261 28.3255 195.271 28.258 195.295 28.195C195.318 28.132 195.356 28.0749 195.404 28.028C195.508 27.926 195.649 27.8693 195.794 27.8702H199.832C199.953 27.8679 200.071 27.9083 200.166 27.9844C200.261 28.0606 200.325 28.1675 200.349 28.2866C200.43 28.9195 200.693 29.5153 201.107 30.0013C201.606 30.554 202.241 30.9667 202.948 31.1988C203.782 31.4748 204.656 31.6102 205.535 31.5997C206.43 31.6164 207.321 31.4754 208.167 31.1833C208.836 30.9546 209.436 30.5584 209.908 30.0324C210.316 29.5613 210.54 28.9588 210.539 28.3357C210.549 27.8029 210.352 27.2868 209.991 26.8952C209.551 26.4568 209.022 26.1188 208.439 25.9046C207.651 25.598 206.841 25.3499 206.016 25.1623L203.044 24.4511C200.879 23.9312 199.157 23.1502 197.871 22.0665C196.586 20.9828 195.934 19.5293 195.934 17.7396C195.911 16.3369 196.367 14.9682 197.227 13.8601C198.153 12.7117 199.363 11.8254 200.737 11.2893C202.326 10.661 204.023 10.3508 205.731 10.3763C207.431 10.3435 209.12 10.6541 210.697 11.2893C212.027 11.8262 213.194 12.7029 214.08 13.8317C214.819 14.8119 215.256 15.9868 215.337 17.212C215.341 17.2654 215.334 17.3192 215.316 17.3698C215.278 17.4757 215.208 17.5669 215.115 17.6306C215.022 17.6942 214.911 17.7269 214.799 17.7241H210.844C210.726 17.7274 210.61 17.6899 210.516 17.6178C210.421 17.5458 210.355 17.4436 210.327 17.3284C210.251 16.9163 210.091 16.5243 209.857 16.1771C209.622 15.8299 209.318 15.5351 208.964 15.311C208.126 14.7627 207.014 14.4834 205.664 14.4834C204.828 14.4654 203.996 14.6022 203.209 14.8869C202.614 15.0979 202.085 15.464 201.678 15.9473C201.336 16.3763 201.148 16.9086 201.146 17.4577C201.135 17.8858 201.255 18.3071 201.49 18.6655C201.74 19.0271 202.068 19.3284 202.449 19.5474C202.891 19.8052 203.359 20.015 203.846 20.1733C204.362 20.3417 204.887 20.4841 205.418 20.6001L207.87 21.1691C208.853 21.3812 209.817 21.6745 210.751 22.0458ZM249.215 22.1105H239.697C239.646 22.1105 239.596 22.1206 239.549 22.1403C239.501 22.16 239.459 22.1888 239.423 22.2252C239.387 22.2615 239.359 22.3046 239.34 22.3519C239.321 22.3993 239.311 22.45 239.312 22.501V26.0856C239.312 26.1878 239.352 26.2859 239.425 26.3581C239.497 26.4304 239.595 26.471 239.697 26.471H245.056C244.976 27.2658 244.737 28.0363 244.353 28.7366C243.858 29.6222 243.113 30.3421 242.211 30.8057C241.189 31.3139 240.058 31.5652 238.916 31.5376C237.618 31.5617 236.341 31.2076 235.241 30.5186C234.144 29.7866 233.285 28.7502 232.768 27.5366C232.179 26.2434 231.879 24.9063 231.879 23.026C231.83 21.4845 232.134 19.9522 232.768 18.5465C233.286 17.3406 234.142 16.3109 235.233 15.5826C236.302 14.9045 237.545 14.553 238.81 14.5714C239.51 14.5653 240.207 14.662 240.879 14.8584C241.486 15.0363 242.055 15.3219 242.56 15.7016C243.053 16.0774 243.48 16.5318 243.825 17.0465C244.155 17.5496 244.416 18.0951 244.601 18.6681C244.617 18.724 244.651 18.7731 244.697 18.8073C244.744 18.8416 244.801 18.859 244.86 18.8569H249.093C249.133 18.8579 249.173 18.8495 249.21 18.8325C249.246 18.8154 249.278 18.7901 249.303 18.7586C249.329 18.7289 249.348 18.6937 249.358 18.6556C249.368 18.6175 249.37 18.5775 249.362 18.5388C249.171 17.425 248.779 16.3552 248.206 15.3809C247.6 14.3563 246.811 13.4516 245.879 12.7118C244.91 11.9506 243.817 11.3634 242.648 10.9764C241.386 10.5628 240.066 10.3567 238.738 10.366C237.165 10.3524 235.605 10.6531 234.15 11.2505C232.753 11.8323 231.498 12.7072 230.469 13.8161C229.389 15.0015 228.56 16.3934 228.033 17.9077C227.429 19.5641 227.134 21.3174 227.164 23.0803C227.164 25.7287 227.661 27.759 228.638 29.6858C229.557 31.5426 230.991 33.0958 232.768 34.1601C234.517 35.1947 236.578 35.7326 238.895 35.7326C240.823 35.7676 242.729 35.3298 244.448 34.4576C246.036 33.6258 247.355 32.3591 248.25 30.8057C249.168 29.2332 249.634 27.3426 249.634 25.1908V22.5269C249.634 22.472 249.623 22.4176 249.602 22.3669C249.581 22.3162 249.55 22.2702 249.511 22.2315C249.472 22.1928 249.426 22.1622 249.375 22.1414C249.324 22.1206 249.27 22.1101 249.215 22.1105ZM187.508 10.6712H191.553C191.661 10.6712 191.764 10.714 191.84 10.7901C191.916 10.8663 191.959 10.9695 191.959 11.0772V34.9593C191.959 35.0665 191.916 35.1694 191.841 35.2455C191.765 35.3216 191.663 35.3647 191.555 35.3653H187.466C187.39 35.365 187.314 35.3448 187.248 35.3067C187.181 35.2687 187.125 35.214 187.086 35.1481L174.84 18.3629V24.6813H174.814V34.9696C174.814 35.0773 174.771 35.1806 174.695 35.2568C174.619 35.3329 174.516 35.3757 174.408 35.3757H170.389C170.281 35.3757 170.178 35.3329 170.102 35.2568C170.026 35.1806 169.983 35.0773 169.983 34.9696V11.0772C169.983 10.9695 170.026 10.8663 170.102 10.7901C170.178 10.714 170.281 10.6712 170.389 10.6712H174.786C174.862 10.6712 174.937 10.6913 175.004 10.7294C175.07 10.7675 175.125 10.8224 175.163 10.8884L187.102 27.5728V23.0234V20.5664V11.0772C187.102 10.9695 187.145 10.8663 187.221 10.7901C187.297 10.714 187.4 10.6712 187.508 10.6712ZM274.512 10.6712H270.479C270.372 10.6712 270.269 10.714 270.192 10.7901C270.116 10.8663 270.073 10.9695 270.073 11.0772V19.7466C270.073 19.8243 270.058 19.9014 270.028 19.9732C269.999 20.0451 269.955 20.1104 269.9 20.1654C269.845 20.2204 269.78 20.264 269.708 20.2938C269.636 20.3235 269.559 20.3388 269.481 20.3388H258.373C258.295 20.3388 258.218 20.3235 258.146 20.2938C258.074 20.264 258.009 20.2204 257.954 20.1654C257.899 20.1104 257.856 20.0451 257.826 19.9732C257.796 19.9014 257.781 19.8243 257.781 19.7466V11.0772C257.781 10.9695 257.738 10.8663 257.662 10.7901C257.586 10.714 257.482 10.6712 257.375 10.6712H253.343C253.29 10.6715 253.237 10.6823 253.188 10.7029C253.14 10.7235 253.095 10.7535 253.058 10.7912C253.021 10.8289 252.991 10.8736 252.971 10.9226C252.951 10.9717 252.941 11.0242 252.942 11.0772V34.9671C252.941 35.0203 252.951 35.073 252.972 35.1223C252.992 35.1715 253.021 35.2163 253.059 35.254C253.096 35.2918 253.141 35.3217 253.19 35.3421C253.239 35.3626 253.292 35.3731 253.345 35.3731H257.377C257.431 35.3731 257.483 35.3626 257.533 35.3422C257.582 35.3218 257.627 35.2919 257.664 35.2542C257.702 35.2165 257.732 35.1717 257.752 35.1224C257.773 35.0732 257.783 35.0204 257.783 34.9671V25.1908C257.783 25.1131 257.798 25.0362 257.827 24.9643C257.857 24.8925 257.9 24.8272 257.955 24.7721C258.01 24.7171 258.075 24.6734 258.147 24.6436C258.218 24.6138 258.295 24.5985 258.373 24.5985H269.494C269.572 24.5982 269.649 24.6132 269.721 24.6429C269.793 24.6725 269.859 24.7161 269.914 24.7712C269.969 24.8263 270.012 24.8917 270.042 24.9637C270.072 25.0357 270.087 25.1129 270.086 25.1908V34.9671C270.086 35.0747 270.129 35.178 270.205 35.2542C270.281 35.3303 270.385 35.3731 270.492 35.3731H274.524C274.632 35.3731 274.735 35.3303 274.812 35.2542C274.888 35.178 274.931 35.0747 274.931 34.9671V11.0772C274.931 11.0228 274.92 10.9689 274.898 10.9188C274.877 10.8687 274.846 10.8233 274.807 10.7854C274.768 10.7476 274.722 10.7179 274.671 10.6983C274.62 10.6787 274.566 10.6694 274.512 10.6712ZM278.223 10.6841H297.879C297.985 10.6861 298.087 10.7298 298.161 10.8058C298.236 10.8817 298.277 10.9838 298.277 11.0902V14.5688C298.278 14.6196 298.268 14.67 298.249 14.717C298.229 14.7641 298.201 14.8069 298.165 14.8429C298.129 14.879 298.087 14.9076 298.04 14.9271C297.993 14.9467 297.943 14.9567 297.892 14.9567H291.129C290.972 14.9567 290.822 15.0188 290.711 15.1293C290.6 15.2398 290.537 15.3898 290.536 15.5464L290.467 34.9696C290.466 35.0803 290.421 35.1862 290.343 35.2642C290.264 35.3423 290.158 35.386 290.048 35.386H286.044C285.936 35.386 285.832 35.3433 285.756 35.2673C285.679 35.1912 285.636 35.0879 285.635 34.98V15.549C285.635 15.3919 285.573 15.2413 285.462 15.1302C285.351 15.0191 285.2 14.9567 285.043 14.9567H278.202C278.1 14.956 278.002 14.9149 277.93 14.8422C277.857 14.7695 277.817 14.6712 277.817 14.5688V11.0902C277.817 10.9825 277.86 10.8792 277.936 10.803C278.012 10.7269 278.115 10.6841 278.223 10.6841ZM165.185 10.6841H161.133C160.908 10.6841 160.727 10.8659 160.727 11.0902V34.98C160.727 35.2042 160.908 35.386 161.133 35.386H165.185C165.41 35.386 165.591 35.2042 165.591 34.98V11.0902C165.591 10.8659 165.41 10.6841 165.185 10.6841ZM219.418 10.6841H223.471C223.695 10.6841 223.877 10.8659 223.877 11.0902V34.98C223.877 35.2042 223.695 35.386 223.471 35.386H219.418C219.194 35.386 219.012 35.2042 219.012 34.98V11.0902C219.012 10.8659 219.194 10.6841 219.418 10.6841Z" fill="white"/>
</g>
<defs>
<clipPath id="clip0_9065_85520">
<rect width="458" height="40" fill="white"/>
</clipPath>
</defs>
</svg>
