<svg width="386" height="40" viewBox="0 0 386 40" fill="none" xmlns="http://www.w3.org/2000/svg">
<g clip-path="url(#clip0_9078_100893)">
<path d="M20 0C16.0444 0 12.1776 1.17298 8.8886 3.37061C5.59962 5.56824 3.03617 8.69181 1.52242 12.3463C0.0086657 16.0009 -0.387401 20.0222 0.384303 23.9018C1.15601 27.7814 3.06082 31.3451 5.85787 34.1421C8.65492 36.9392 12.2186 38.844 16.0982 39.6157C19.9778 40.3874 23.9992 39.9913 27.6537 38.4776C31.3082 36.9638 34.4318 34.4004 36.6294 31.1114C38.827 27.8224 40 23.9556 40 20C40 14.6957 37.8929 9.60859 34.1421 5.85786C30.3914 2.10714 25.3043 0 20 0ZM26.0106 18.6629C24.0815 18.6864 22.238 19.4631 20.8739 20.8273C19.5097 22.1915 18.7329 24.035 18.7094 25.964C18.7094 25.9951 18.7094 26.0261 18.7094 26.0572C18.7099 26.9914 18.4333 27.9048 17.9146 28.6819C17.3959 29.4589 16.6583 30.0646 15.7953 30.4224C14.9322 30.7801 13.9825 30.8739 13.0661 30.6917C12.1498 30.5096 11.308 30.0598 10.6474 29.3991C9.9868 28.7385 9.53696 27.8968 9.35482 26.9804C9.17268 26.0641 9.26642 25.1143 9.62418 24.2513C9.98195 23.3882 10.5877 22.6507 11.3647 22.132C12.1417 21.6132 13.0551 21.3366 13.9894 21.3371C14.9529 21.3368 15.9068 21.1459 16.7962 20.7753C17.6856 20.4047 18.4929 19.8618 19.1716 19.1778C19.8502 18.4939 20.3869 17.6824 20.7505 16.7902C21.1142 15.8979 21.2977 14.9425 21.2906 13.979C21.292 13.967 21.292 13.9549 21.2906 13.9428C21.2906 13.0093 21.5674 12.0967 22.0861 11.3205C22.6047 10.5443 23.3419 9.93935 24.2043 9.5821C25.0668 9.22485 26.0159 9.13138 26.9314 9.31351C27.847 9.49563 28.6881 9.94517 29.3482 10.6053C30.0083 11.2654 30.4578 12.1064 30.6399 13.022C30.8221 13.9376 30.7286 14.8866 30.3714 15.7491C30.0141 16.6116 29.4091 17.3488 28.6329 17.8674C27.8567 18.386 26.9441 18.6629 26.0106 18.6629Z" fill="#00C9EA"/>
<path fill-rule="evenodd" clip-rule="evenodd" d="M274.142 10.6981C274.237 10.7651 274.31 10.8597 274.351 10.9693L282.963 34.5151C282.997 34.6018 283.009 34.6954 282.998 34.7878C282.988 34.8802 282.954 34.9686 282.902 35.0452C282.849 35.1217 282.778 35.1842 282.695 35.2271C282.613 35.2699 282.521 35.2919 282.428 35.291H278.649C278.532 35.2911 278.417 35.2548 278.321 35.1872C278.224 35.1197 278.151 35.024 278.111 34.9134L276.094 29.3114C276.076 29.2623 276.043 29.22 276 29.19C275.957 29.1599 275.906 29.1437 275.853 29.1433H266.426C266.374 29.1437 266.323 29.1599 266.28 29.19C266.237 29.22 266.204 29.2623 266.186 29.3114L264.179 34.9134C264.139 35.0242 264.066 35.1201 263.97 35.1877C263.874 35.2553 263.759 35.2914 263.641 35.291H260.02C259.928 35.291 259.838 35.269 259.756 35.2267C259.675 35.1843 259.605 35.123 259.552 35.0479C259.501 34.9731 259.468 34.8874 259.455 34.7976C259.443 34.7077 259.452 34.6163 259.482 34.5306L268.056 10.9718C268.096 10.8616 268.169 10.7664 268.266 10.6989C268.362 10.6314 268.476 10.5949 268.594 10.5942H273.815C273.932 10.5949 274.046 10.6311 274.142 10.6981ZM274.518 25.1526C274.532 25.1459 274.543 25.1361 274.553 25.1242C274.561 25.1118 274.566 25.0977 274.569 25.083C274.571 25.0682 274.57 25.0531 274.565 25.0388L271.26 15.1203C271.254 15.101 271.242 15.0841 271.226 15.0724C271.21 15.0607 271.19 15.0548 271.17 15.0556C271.15 15.0546 271.13 15.0602 271.114 15.0714C271.098 15.0826 271.085 15.0989 271.079 15.1177L267.717 25.0362C267.712 25.0511 267.711 25.0668 267.714 25.0821C267.717 25.0974 267.723 25.1118 267.732 25.1242C267.741 25.1361 267.752 25.1458 267.765 25.1526C267.778 25.1593 267.793 25.1629 267.807 25.163H274.475C274.49 25.1629 274.505 25.1593 274.518 25.1526ZM352.026 25.5565C352.026 31.505 356.164 35.6431 362.086 35.6431C365.324 35.6431 368.007 34.4767 370.05 32.2136C370.084 32.175 370.111 32.1298 370.128 32.0807C370.145 32.0317 370.152 31.9798 370.148 31.928C370.145 31.8762 370.131 31.8257 370.108 31.7792C370.085 31.7328 370.053 31.6914 370.013 31.6576L367.769 29.7204C367.697 29.6582 367.605 29.625 367.51 29.6273C367.414 29.6286 367.322 29.6644 367.251 29.7282C365.645 31.1946 364.122 31.8205 362.156 31.8205C359.306 31.8205 357.191 30.111 356.634 27.3617C356.629 27.3368 356.63 27.3111 356.636 27.2864C356.642 27.2618 356.654 27.2389 356.671 27.2195C356.688 27.1989 356.709 27.1822 356.733 27.1706C356.757 27.159 356.784 27.1527 356.81 27.1522H370.722C370.82 27.1525 370.914 27.1159 370.986 27.0498C371.058 26.9836 371.102 26.8927 371.11 26.7953C371.141 26.4436 371.164 26.128 371.164 25.8099C371.164 20.6114 368.169 15.3638 361.595 15.3638C355.021 15.3638 352.026 20.6088 352.026 25.4814V25.5565ZM356.681 23.6891C357.196 20.8131 359.097 19.0338 361.647 19.0338L361.642 19.0208C364.264 19.0208 366.082 20.7588 366.512 23.6943C366.516 23.7186 366.514 23.7435 366.508 23.7672C366.501 23.7909 366.489 23.8129 366.473 23.8314C366.455 23.8513 366.434 23.8671 366.41 23.8779C366.386 23.8886 366.36 23.8939 366.333 23.8934H356.859C356.833 23.8934 356.807 23.8876 356.783 23.8765C356.758 23.8653 356.737 23.849 356.72 23.8288C356.704 23.8096 356.692 23.7872 356.685 23.7631C356.679 23.7391 356.677 23.7138 356.681 23.6891ZM385.022 15.8728V19.8169C385.033 19.884 385.017 19.9528 384.978 20.0083C384.926 20.0459 384.864 20.0675 384.799 20.0704C384.561 20.0704 384.329 20.0807 384.101 20.0989C380.938 20.3678 378.722 22.4964 378.411 26.5233V34.9288C378.411 34.977 378.402 35.0248 378.383 35.0693C378.365 35.1139 378.338 35.1544 378.304 35.1885C378.27 35.2226 378.229 35.2496 378.185 35.2681C378.14 35.2866 378.092 35.2961 378.044 35.2961H374.302C374.204 35.2961 374.111 35.2574 374.042 35.1885C373.973 35.1196 373.934 35.0262 373.934 34.9288V16.0901C373.935 15.9929 373.974 15.8998 374.043 15.8311C374.111 15.7624 374.204 15.7235 374.302 15.7228H378.044C378.141 15.7235 378.234 15.7624 378.303 15.8311C378.372 15.8998 378.411 15.9929 378.411 16.0901V20.0161C379.472 17.5151 381.354 15.7409 384.127 15.5288C384.287 15.503 384.466 15.503 384.644 15.503C384.693 15.5023 384.742 15.5113 384.788 15.5296C384.833 15.5478 384.875 15.5749 384.91 15.6093C384.945 15.6437 384.973 15.6847 384.992 15.7299C385.011 15.7751 385.022 15.8237 385.022 15.8728ZM301.717 18.9791C301.148 17.8694 300.27 16.9479 299.19 16.3255C298.018 15.68 296.697 15.3553 295.36 15.3841C294.326 15.3723 293.3 15.5687 292.344 15.9615C291.388 16.3542 290.521 16.9354 289.794 17.6704C289.593 17.8762 289.409 18.0985 289.245 18.3351V16.2453C289.245 16.1004 289.188 15.9613 289.086 15.8585C288.984 15.7558 288.845 15.6977 288.7 15.697H285.291C285.146 15.697 285.006 15.7548 284.903 15.8576C284.8 15.9605 284.743 16.0999 284.743 16.2453V34.7401C284.743 34.8851 284.801 35.0239 284.904 35.1261C285.007 35.2284 285.146 35.2858 285.291 35.2858H288.682C288.827 35.2858 288.966 35.2284 289.068 35.1261C289.171 35.0239 289.229 34.8851 289.23 34.7401V23.725C289.23 23.6903 289.237 23.656 289.251 23.6241C289.556 22.9124 289.93 22.2317 290.365 21.5913C290.858 20.8466 291.516 20.2268 292.29 19.7808C292.999 19.4009 293.792 19.2044 294.597 19.2093C295.251 19.1956 295.896 19.362 296.461 19.6903C296.999 20.021 297.43 20.4996 297.703 21.0688C298.018 21.7295 298.173 22.4552 298.155 23.187V34.7504C298.156 34.8954 298.214 35.0342 298.317 35.1365C298.42 35.2387 298.559 35.2962 298.704 35.2962H302.066C302.211 35.2962 302.35 35.2387 302.453 35.1365C302.555 35.0342 302.613 34.8954 302.614 34.7504V22.9439C302.64 21.5691 302.332 20.2086 301.717 18.9791ZM341.334 35.2962C341.198 35.2958 341.065 35.2515 340.956 35.17C340.847 35.0885 340.768 34.9741 340.729 34.8436L336.906 21.5706L333.083 34.8436C333.045 34.9739 332.966 35.0882 332.857 35.1698C332.749 35.2513 332.617 35.2957 332.481 35.2962H328.557C328.421 35.2965 328.289 35.2525 328.18 35.1708C328.072 35.0891 327.992 34.9743 327.955 34.8436L322.617 16.3101C322.59 16.2166 322.585 16.1183 322.603 16.0227C322.62 15.9271 322.66 15.8369 322.718 15.7592C322.777 15.6815 322.852 15.6184 322.939 15.5749C323.026 15.5313 323.122 15.5085 323.219 15.5083H326.566C326.703 15.5085 326.835 15.553 326.944 15.635C327.054 15.7171 327.133 15.8324 327.171 15.9635L330.914 29.071L334.671 15.9635C334.709 15.8324 334.788 15.7169 334.896 15.6348C335.005 15.5526 335.138 15.5082 335.274 15.5083H338.636C338.772 15.5083 338.904 15.5521 339.012 15.6332C339.121 15.7143 339.2 15.8284 339.239 15.9583L343.118 29.1046L346.845 15.9635C346.882 15.8324 346.961 15.7169 347.07 15.6348C347.179 15.5526 347.312 15.5082 347.448 15.5083H350.585C350.683 15.5076 350.779 15.5297 350.867 15.5729C350.954 15.6161 351.03 15.6792 351.089 15.7571C351.148 15.835 351.188 15.9256 351.205 16.0216C351.223 16.1176 351.218 16.2164 351.19 16.3101L345.886 34.841C345.848 34.9722 345.768 35.0874 345.659 35.1695C345.55 35.2516 345.417 35.2961 345.281 35.2962H341.334ZM308.907 34.8902C310.329 35.4203 311.84 35.6757 313.358 35.6428C314.882 35.6718 316.398 35.3957 317.814 34.8307C318.992 34.3617 320.017 33.5769 320.778 32.5625C321.477 31.582 321.848 30.4048 321.836 29.2003C321.825 27.8037 321.378 26.6657 320.486 25.8071C319.593 24.9484 318.199 24.3044 316.348 23.9139L312.828 23.1794C311.915 22.9725 311.265 22.6957 310.846 22.3362C310.644 22.1794 310.481 21.9776 310.37 21.7469C310.259 21.5162 310.204 21.2628 310.208 21.0069C310.197 20.5801 310.349 20.1652 310.632 19.8456C310.941 19.4916 311.336 19.2241 311.78 19.0697C312.295 18.8885 312.838 18.8009 313.384 18.8111C314.188 18.7797 314.98 19.0082 315.644 19.4628C316.085 19.7786 316.418 20.2218 316.598 20.7327C316.647 20.8504 316.728 20.9514 316.833 21.0235C316.938 21.0956 317.061 21.1357 317.188 21.1388H320.752C320.835 21.1382 320.917 21.1194 320.993 21.0838C321.068 21.0481 321.135 20.9965 321.188 20.9324C321.241 20.8684 321.28 20.7935 321.301 20.713C321.322 20.6325 321.325 20.5483 321.311 20.4663C321.148 19.5963 320.795 18.7731 320.276 18.0559C319.564 17.1087 318.601 16.3795 317.496 15.9506C316.157 15.4324 314.729 15.1811 313.293 15.2109C311.83 15.1807 310.374 15.4345 309.008 15.9584C307.89 16.3844 306.917 17.1211 306.204 18.0817C305.54 19.0285 305.199 20.164 305.232 21.3198C305.207 21.9764 305.316 22.6312 305.55 23.2449C305.785 23.8586 306.141 24.4187 306.597 24.8915C307.52 25.8329 308.925 26.5002 310.735 26.8675L313.963 27.5218C314.899 27.7287 315.579 27.9977 316.032 28.3468C316.252 28.5076 316.43 28.7189 316.552 28.9628C316.673 29.2067 316.734 29.4761 316.73 29.7486C316.739 30.1907 316.583 30.6202 316.293 30.9538C315.972 31.3148 315.559 31.5827 315.098 31.7297C314.535 31.913 313.945 32.0004 313.353 31.9884C312.336 31.9884 311.506 31.7789 310.885 31.3625C310.41 31.0451 310.054 30.5795 309.871 30.0383C309.83 29.9152 309.752 29.8079 309.647 29.7314C309.543 29.6549 309.417 29.613 309.287 29.6115H305.407C305.322 29.6111 305.239 29.6298 305.162 29.6662C305.085 29.7026 305.017 29.7558 304.964 29.8219C304.911 29.8879 304.873 29.9652 304.853 30.0479C304.834 30.1305 304.833 30.2165 304.851 30.2995C305.045 31.1897 305.43 32.0272 305.979 32.7539C306.743 33.7183 307.755 34.4567 308.907 34.8902Z" fill="#00C9EA"/>
<path fill-rule="evenodd" clip-rule="evenodd" d="M72.4033 30.4701H57.9613C57.4831 30.4641 57.0261 30.2714 56.6879 29.9332C56.3496 29.595 56.157 29.138 56.1509 28.6597V3.90605C56.1509 3.79836 56.1081 3.69508 56.032 3.61893C55.9558 3.54278 55.8526 3.5 55.7449 3.5H51.2861C51.1784 3.5 51.0751 3.54278 50.9989 3.61893C50.9228 3.69508 50.88 3.79836 50.88 3.90605V30.1055C50.8821 31.4897 51.4329 32.8167 52.4117 33.7955C53.3905 34.7744 54.7175 35.3252 56.1018 35.3272H72.3956C72.5028 35.3265 72.6054 35.2835 72.681 35.2074C72.7566 35.1313 72.7991 35.0284 72.7991 34.9212V30.8788C72.8004 30.7722 72.7596 30.6694 72.6855 30.5928C72.6113 30.5163 72.5099 30.4722 72.4033 30.4701ZM238.393 31.3265H248.682C248.792 31.3272 248.898 31.3716 248.976 31.4501C249.054 31.5286 249.098 31.6348 249.098 31.7455V34.8801C249.098 34.9348 249.087 34.9889 249.066 35.0395C249.045 35.09 249.015 35.1359 248.976 35.1746C248.937 35.2132 248.891 35.2439 248.841 35.2648C248.79 35.2857 248.736 35.2965 248.682 35.2965H233.029C232.975 35.2965 232.92 35.2857 232.87 35.2648C232.819 35.2439 232.773 35.2132 232.735 35.1746C232.696 35.1359 232.665 35.09 232.644 35.0395C232.624 34.9889 232.613 34.9348 232.613 34.8801V11.0136C232.613 10.9031 232.657 10.7972 232.735 10.7191C232.813 10.641 232.919 10.5972 233.029 10.5972H248.669C248.779 10.5972 248.886 10.641 248.964 10.719C249.043 10.797 249.087 10.9029 249.088 11.0136V14.1482C249.087 14.2589 249.043 14.3648 248.964 14.4428C248.886 14.5208 248.779 14.5646 248.669 14.5646H238.393C238.236 14.5646 238.085 14.627 237.974 14.7381C237.863 14.8491 237.801 14.9998 237.801 15.1568V20.1252C237.8 20.2038 237.814 20.2819 237.843 20.355C237.872 20.428 237.916 20.4946 237.971 20.5507C238.026 20.6068 238.092 20.6513 238.164 20.6817C238.237 20.7121 238.315 20.7278 238.393 20.7278H248.051C248.161 20.7278 248.267 20.7716 248.345 20.8497C248.423 20.9278 248.467 21.0337 248.467 21.1442V24.2891C248.467 24.3996 248.423 24.5055 248.345 24.5836C248.267 24.6617 248.161 24.7055 248.051 24.7055H238.393C238.236 24.7055 238.085 24.7679 237.974 24.879C237.863 24.9901 237.801 25.1407 237.801 25.2978V30.7368C237.801 30.8145 237.816 30.8914 237.846 30.9631C237.876 31.0348 237.92 31.0999 237.975 31.1547C238.03 31.2095 238.095 31.2529 238.167 31.2824C238.239 31.3119 238.316 31.3269 238.393 31.3265ZM91.6765 13.4912H95.7629C95.8165 13.4909 95.8695 13.5011 95.9191 13.5214C95.9687 13.5416 96.0137 13.5715 96.0517 13.6092C96.0897 13.647 96.1198 13.6918 96.1404 13.7413C96.161 13.7907 96.1716 13.8437 96.1716 13.8973V34.9215C96.1716 35.0291 96.1288 35.1324 96.0526 35.2086C95.9765 35.2847 95.8732 35.3275 95.7655 35.3275H92.2222C92.1148 35.3268 92.0119 35.2838 91.9359 35.2078C91.8599 35.1318 91.8169 35.0289 91.8162 34.9215V32.3662C90.9225 33.4138 89.8276 34.2714 88.5962 34.8878C87.2529 35.5792 85.7619 35.9342 84.2512 35.9224C81.4451 35.9224 79.2156 35.0973 77.6302 33.4628C76.0448 31.8282 75.2405 29.6531 75.2405 26.997V13.8973C75.2405 13.7896 75.2833 13.6863 75.3594 13.6101C75.4356 13.534 75.5388 13.4912 75.6465 13.4912H79.7355C79.7887 13.4912 79.8414 13.5017 79.8905 13.5222C79.9396 13.5426 79.9842 13.5726 80.0217 13.6103C80.0592 13.648 80.0889 13.6928 80.109 13.7421C80.1291 13.7913 80.1393 13.8441 80.139 13.8973V26.3582C80.139 28.1013 80.5812 29.41 81.4502 30.2713C82.3192 31.1325 83.5995 31.5644 85.2521 31.5644C86.4764 31.5771 87.6754 31.2162 88.6893 30.5299C89.4371 30.0238 90.1093 29.4143 90.686 28.7195C91.0701 28.25 91.277 27.6604 91.2705 27.0539V13.8973C91.2705 13.7896 91.3133 13.6863 91.3894 13.6101C91.4656 13.534 91.5688 13.4912 91.6765 13.4912ZM116.759 14.037C115.314 13.2571 113.691 12.865 112.049 12.899C110.539 12.889 109.048 13.2439 107.704 13.9335C106.476 14.5499 105.383 15.4055 104.489 16.45V13.8947C104.489 13.7875 104.446 13.6849 104.369 13.6093C104.293 13.5337 104.19 13.4913 104.083 13.4913H100.491C100.385 13.4926 100.283 13.5357 100.209 13.6113C100.134 13.6868 100.093 13.7886 100.093 13.8947V34.9215C100.093 35.0288 100.135 35.1316 100.211 35.2077C100.286 35.2838 100.389 35.3269 100.496 35.3276H104.585C104.693 35.3276 104.796 35.2848 104.872 35.2086C104.948 35.1325 104.991 35.0292 104.991 34.9215V21.7882C104.993 21.1389 105.23 20.5124 105.658 20.0243C106.234 19.3664 106.892 18.7857 107.616 18.2967C108.63 17.6093 109.831 17.2483 111.056 17.2621C112.556 17.2621 113.787 17.7096 114.718 18.5967C115.649 19.4838 116.128 20.7744 116.128 22.4529V34.9189C116.128 35.0264 116.171 35.1293 116.247 35.2053C116.323 35.2813 116.426 35.3243 116.534 35.325H120.623C120.73 35.3243 120.833 35.2812 120.908 35.2051C120.984 35.1291 121.026 35.0262 121.026 34.9189V21.8192C121.053 20.2106 120.67 18.6217 119.911 17.2026C119.182 15.87 118.088 14.7722 116.759 14.037ZM125.338 13.4912H129.424C129.648 13.4912 129.83 13.673 129.83 13.8973V34.9214C129.83 35.1457 129.648 35.3275 129.424 35.3275H125.338C125.113 35.3275 124.932 35.1457 124.932 34.9214V13.8973C124.932 13.673 125.113 13.4912 125.338 13.4912ZM149.452 17.7972H142.508C142.36 17.7985 142.218 17.8586 142.114 17.9643C142.01 18.07 141.951 18.2126 141.952 18.361V27.7674C141.952 29.1615 142.216 29.9632 142.865 30.5348C142.873 30.5426 143.664 31.2641 146.064 31.2641H149.434C149.488 31.2641 149.54 31.2746 149.59 31.295C149.639 31.3155 149.684 31.3454 149.721 31.3831C149.759 31.4208 149.789 31.4655 149.809 31.5148C149.83 31.5641 149.84 31.6169 149.84 31.6702V35.4591C149.84 35.5125 149.83 35.5653 149.809 35.6145C149.789 35.6638 149.759 35.7086 149.721 35.7463C149.684 35.784 149.639 35.8139 149.59 35.8343C149.54 35.8547 149.488 35.8652 149.434 35.8652H144.598C142.374 35.8652 140.537 35.2807 139.167 34.091C137.796 32.9013 137.098 31.0779 137.098 28.6597V18.3144C137.09 18.1922 137.044 18.0755 136.964 17.9822C136.885 17.8889 136.777 17.8239 136.658 17.7972H133.598C133.492 17.7952 133.391 17.7519 133.316 17.6766C133.241 17.6013 133.199 17.4999 133.197 17.3937V13.8944C133.197 13.7876 133.239 13.6851 133.314 13.6091C133.39 13.5331 133.491 13.4897 133.598 13.4884H136.526C136.671 13.4879 136.81 13.4318 136.915 13.3318C137.02 13.2317 137.083 13.0952 137.09 12.9504V10.7391C137.089 10.6857 137.099 10.6327 137.12 10.5834C137.14 10.5341 137.171 10.4894 137.209 10.452L141.246 6.39152C141.302 6.33401 141.375 6.29462 141.454 6.27836C141.533 6.26211 141.615 6.26972 141.689 6.30023C141.764 6.33074 141.828 6.38277 141.873 6.44969C141.918 6.51662 141.942 6.5954 141.942 6.67601V12.9246C141.942 13.0746 142.002 13.2182 142.108 13.3243C142.214 13.4304 142.358 13.4903 142.508 13.491H149.452C149.56 13.491 149.663 13.5334 149.739 13.609C149.815 13.6846 149.858 13.7872 149.858 13.8944V17.3911C149.858 17.4986 149.815 17.6015 149.739 17.6775C149.663 17.7535 149.56 17.7965 149.452 17.7972ZM198.171 11.0728C198.124 10.9447 198.038 10.8341 197.926 10.7559C197.815 10.6778 197.681 10.6358 197.545 10.6357H192.502C192.365 10.636 192.231 10.678 192.119 10.7561C192.007 10.8342 191.921 10.9447 191.873 11.0728L183.398 34.6575C183.367 34.7413 183.359 34.832 183.376 34.9198C183.392 35.0077 183.432 35.0895 183.491 35.1566C183.542 35.2132 183.606 35.2579 183.676 35.2878C183.747 35.3178 183.823 35.3321 183.899 35.3299H187.683C187.769 35.3297 187.853 35.303 187.923 35.2535C187.994 35.204 188.047 35.1341 188.076 35.0532L190.026 29.6219C190.057 29.5369 190.114 29.4635 190.188 29.4117C190.262 29.3599 190.35 29.3321 190.44 29.3322H199.492C199.583 29.3325 199.671 29.3604 199.745 29.4122C199.819 29.464 199.875 29.5372 199.906 29.6219L201.903 34.9911C201.938 35.0879 202.002 35.1716 202.086 35.2308C202.17 35.29 202.271 35.3219 202.373 35.3221H206.235C206.311 35.3243 206.388 35.31 206.458 35.2801C206.529 35.2502 206.592 35.2054 206.644 35.1489C206.703 35.0818 206.742 34.9998 206.758 34.9119C206.774 34.8239 206.766 34.7333 206.734 34.6497L198.171 11.0728ZM194.959 16.5584C195.038 16.5574 195.116 16.5819 195.181 16.6285C195.246 16.675 195.294 16.7411 195.318 16.817L198.163 24.7803C198.194 24.8667 198.198 24.9607 198.173 25.0492C198.149 25.1377 198.097 25.2164 198.026 25.2743C197.949 25.3381 197.852 25.372 197.752 25.37H192.165C192.085 25.3718 192.005 25.3493 191.938 25.3053C191.855 25.2513 191.792 25.1711 191.76 25.0774C191.727 24.9837 191.727 24.8819 191.759 24.7881L194.604 16.8196C194.628 16.7441 194.675 16.678 194.739 16.6311C194.802 16.5841 194.879 16.5586 194.959 16.5584ZM223.32 24.646L224.026 25.7711L229.711 34.5542C229.762 34.6276 229.792 34.7135 229.798 34.8027C229.804 34.8919 229.786 34.981 229.745 35.0607C229.705 35.1403 229.643 35.2074 229.568 35.2549C229.492 35.3023 229.405 35.3283 229.315 35.3301H224.999C224.915 35.3302 224.833 35.3093 224.76 35.2696C224.687 35.2298 224.625 35.1724 224.58 35.1025L218.471 25.5849C218.431 25.5238 218.376 25.4737 218.312 25.4389C218.248 25.4041 218.177 25.3859 218.104 25.3857H214.809C214.652 25.3864 214.501 25.449 214.391 25.56C214.28 25.6709 214.217 25.8211 214.216 25.978V34.9137C214.216 34.9684 214.206 35.0226 214.185 35.0731C214.164 35.1236 214.133 35.1695 214.094 35.2082C214.056 35.2468 214.01 35.2775 213.959 35.2984C213.909 35.3194 213.855 35.3301 213.8 35.3301H209.791C209.681 35.3301 209.575 35.2863 209.497 35.2082C209.419 35.1301 209.375 35.0242 209.375 34.9137V11.0446C209.375 10.9342 209.419 10.8283 209.497 10.7502C209.575 10.6721 209.681 10.6282 209.791 10.6282H219.58C221.118 10.5969 222.645 10.8968 224.057 11.5076C225.3 12.0344 226.354 12.9263 227.078 14.0652C227.803 15.2042 228.165 16.5364 228.115 17.8854C228.115 19.2275 227.698 20.5363 226.92 21.6304C226.075 22.8181 224.931 23.762 223.605 24.3667C223.496 24.4185 223.375 24.4728 223.237 24.5297L223.32 24.646ZM214.391 14.7724C214.28 14.8834 214.217 15.0336 214.216 15.1905V20.8261C214.217 20.9829 214.28 21.1332 214.391 21.2441C214.501 21.355 214.652 21.4176 214.809 21.4183H218.916C219.707 21.4342 220.492 21.2853 221.223 20.9812C221.832 20.7253 222.354 20.2965 222.723 19.7476C223.075 19.1913 223.255 18.5435 223.24 17.8854C223.256 17.269 223.103 16.66 222.798 16.1241C222.496 15.6287 222.051 15.2358 221.523 14.9965C220.898 14.7195 220.22 14.5836 219.536 14.5982H214.809C214.652 14.5989 214.501 14.6615 214.391 14.7724ZM182.11 26.7924H178.093C177.976 26.796 177.864 26.8392 177.775 26.9148C177.686 26.9904 177.625 27.0941 177.602 27.2088C177.458 28.0135 177.138 28.7766 176.666 29.4434C176.136 30.1701 175.422 30.7417 174.597 31.0986C173.669 31.4947 172.667 31.6904 171.659 31.6728C170.463 31.7071 169.291 31.3432 168.325 30.6383C167.254 29.8866 166.426 28.8397 165.94 27.6252C165.342 26.1477 165.052 24.5634 165.089 22.9698C165.055 21.3815 165.351 19.8033 165.958 18.3351C166.465 17.1142 167.321 16.0698 168.418 15.3324C169.418 14.6284 170.619 14.2656 171.842 14.2979C172.783 14.2859 173.716 14.4755 174.578 14.854C175.36 15.1967 176.036 15.7434 176.534 16.4368C176.974 17.0678 177.277 17.7841 177.423 18.5395C177.447 18.6533 177.509 18.7557 177.598 18.8303C177.687 18.9049 177.799 18.9473 177.915 18.9507H181.97C182.041 18.948 182.111 18.9305 182.176 18.8995C182.24 18.8684 182.297 18.8245 182.343 18.7703C182.39 18.7161 182.424 18.653 182.445 18.5848C182.466 18.5165 182.472 18.4448 182.464 18.3739C182.276 16.9161 181.731 15.5273 180.876 14.3315C179.919 13.0298 178.63 12.0082 177.144 11.3728C175.467 10.6602 173.659 10.3077 171.837 10.3382C169.421 10.3382 167.293 10.8555 165.511 11.89C163.723 12.9178 162.276 14.4462 161.347 16.2868C160.372 18.18 159.875 20.4249 159.875 22.9853C159.875 25.5458 160.359 27.7907 161.313 29.6839C162.215 31.5198 163.638 33.0491 165.405 34.0807C167.163 35.1152 169.269 35.6324 171.664 35.6324C173.528 35.6651 175.378 35.3065 177.095 34.5798C178.562 33.9631 179.842 32.9726 180.808 31.7069C181.773 30.4413 182.389 28.9448 182.596 27.3666C182.606 27.2945 182.601 27.2211 182.581 27.1511C182.561 27.0812 182.527 27.0162 182.48 26.9605C182.433 26.9079 182.377 26.8657 182.313 26.8367C182.249 26.8077 182.18 26.7926 182.11 26.7924ZM129.424 5.72412H125.338C125.113 5.72412 124.932 5.90592 124.932 6.13017V10.2166C124.932 10.4408 125.113 10.6226 125.338 10.6226H129.424C129.648 10.6226 129.83 10.4408 129.83 10.2166V6.13017C129.83 5.90592 129.648 5.72412 129.424 5.72412Z" fill="black"/>
</g>
<defs>
<clipPath id="clip0_9078_100893">
<rect width="386" height="40" fill="white"/>
</clipPath>
</defs>
</svg>
