<svg width="372" height="40" viewBox="0 0 372 40" fill="none" xmlns="http://www.w3.org/2000/svg">
<g clip-path="url(#clip0_9078_100871)">
<path d="M20.0003 0.375C16.0446 0.375 12.1778 1.54798 8.88885 3.74561C5.59986 5.94324 3.03642 9.06681 1.52266 12.7213C0.00890982 16.3759 -0.387157 20.3972 0.384548 24.2768C1.15625 28.1564 3.06107 31.7201 5.85812 34.5171C8.65517 37.3142 12.2188 39.219 16.0984 39.9907C19.9781 40.7624 23.9994 40.3663 27.6539 38.8526C31.3084 37.3388 34.432 34.7754 36.6296 31.4864C38.8273 28.1974 40.0003 24.3306 40.0003 20.375C40.0003 15.0707 37.8931 9.98359 34.1424 6.23286C30.3917 2.48214 25.3046 0.375 20.0003 0.375ZM26.0109 19.0379C24.0818 19.0614 22.2383 19.8381 20.8741 21.2023C19.5099 22.5665 18.7332 24.41 18.7097 26.339C18.7097 26.3701 18.7097 26.4011 18.7097 26.4322C18.7102 27.3664 18.4336 28.2798 17.9149 29.0569C17.3961 29.8339 16.6586 30.4396 15.7955 30.7974C14.9325 31.1551 13.9827 31.2489 13.0664 31.0667C12.15 30.8846 11.3083 30.4348 10.6477 29.7741C9.98704 29.1135 9.5372 28.2718 9.35506 27.3554C9.17292 26.4391 9.26666 25.4893 9.62443 24.6263C9.98219 23.7632 10.5879 23.0257 11.3649 22.507C12.142 21.9882 13.0554 21.7116 13.9896 21.7121C14.9532 21.7118 15.9071 21.5209 16.7965 21.1503C17.6859 20.7797 18.4932 20.2368 19.1718 19.5528C19.8505 18.8689 20.3871 18.0574 20.7508 17.1652C21.1145 16.2729 21.298 15.3175 21.2908 14.354C21.2922 14.342 21.2922 14.3299 21.2908 14.3178C21.2908 13.3843 21.5677 12.4717 22.0863 11.6955C22.6049 10.9193 23.3421 10.3144 24.2046 9.9571C25.0671 9.59985 26.0161 9.50638 26.9317 9.68851C27.8473 9.87063 28.6883 10.3202 29.3484 10.9803C30.0085 11.6404 30.4581 12.4814 30.6402 13.397C30.8223 14.3126 30.7288 15.2616 30.3716 16.1241C30.0143 16.9866 29.4094 17.7238 28.6332 18.2424C27.857 18.761 26.9444 19.0379 26.0109 19.0379Z" fill="#00C9EA"/>
<path fill-rule="evenodd" clip-rule="evenodd" d="M342.689 24.99L343.401 26.1125L349.07 34.9034C349.137 35.0121 349.161 35.1417 349.138 35.2673C349.115 35.3928 349.047 35.5055 348.946 35.5836C348.87 35.6379 348.78 35.6693 348.687 35.6741H344.371C344.287 35.6746 344.205 35.654 344.132 35.6142C344.059 35.5744 343.997 35.5167 343.952 35.4465L337.84 25.9263C337.8 25.8652 337.746 25.8151 337.682 25.7808C337.618 25.7464 337.546 25.7288 337.473 25.7297H334.18C334.103 25.7294 334.026 25.7444 333.954 25.7738C333.882 25.8033 333.817 25.8467 333.762 25.9015C333.707 25.9563 333.663 26.0214 333.633 26.0931C333.604 26.1648 333.588 26.2417 333.588 26.3194V35.2577C333.588 35.3681 333.544 35.474 333.466 35.5521C333.388 35.6302 333.282 35.6741 333.172 35.6741H329.163C329.053 35.6741 328.947 35.6302 328.869 35.5521C328.79 35.474 328.747 35.3681 328.747 35.2577V11.3886C328.747 11.2781 328.79 11.1722 328.869 11.0941C328.947 11.016 329.053 10.9722 329.163 10.9722H338.942C340.481 10.9393 342.009 11.2393 343.421 11.8515C344.664 12.3792 345.717 13.2714 346.441 14.4101C347.166 15.5488 347.528 16.8806 347.479 18.2294C347.479 19.5695 347.065 20.8767 346.292 21.9718C345.446 23.1596 344.301 24.1034 342.974 24.7081C342.879 24.757 342.771 24.8037 342.65 24.8559L342.609 24.8736L342.689 24.99ZM333.635 15.3074C333.605 15.3794 333.59 15.4566 333.591 15.5344L333.593 21.1778C333.593 21.2554 333.609 21.3323 333.638 21.404C333.668 21.4757 333.712 21.5409 333.767 21.5957C333.822 21.6504 333.887 21.6938 333.959 21.7233C334.031 21.7528 334.108 21.7678 334.186 21.7675H338.29C339.078 21.7843 339.862 21.6363 340.589 21.333C341.204 21.085 341.728 20.6545 342.09 20.0995C342.452 19.5445 342.635 18.8918 342.614 18.2294C342.632 17.612 342.479 17.0017 342.172 16.4655C341.869 15.9705 341.424 15.5784 340.895 15.3405C340.271 15.0622 339.593 14.9262 338.911 14.9422H334.183C334.105 14.9418 334.028 14.9569 333.956 14.9865C333.884 15.0162 333.819 15.0598 333.763 15.1149C333.708 15.1699 333.665 15.2354 333.635 15.3074ZM367.355 18.4284C367.353 19.4508 366.996 20.5543 366.282 21.7388C365.568 22.9234 355.274 31.2565 354.548 31.8048C354.496 31.8436 354.454 31.8939 354.424 31.9518C354.395 32.0097 354.38 32.0736 354.38 32.1384V35.2601C354.38 35.3699 354.423 35.4751 354.501 35.5527C354.578 35.6303 354.684 35.6739 354.793 35.6739H371.47C371.58 35.6739 371.685 35.6303 371.763 35.5527C371.84 35.4751 371.884 35.3699 371.884 35.2601V32.2677C371.884 32.2133 371.874 32.1593 371.853 32.109C371.832 32.0586 371.802 32.0129 371.763 31.9744C371.725 31.9359 371.679 31.9054 371.629 31.8847C371.578 31.8641 371.524 31.8536 371.47 31.8539H361.663C361.601 31.8642 361.537 31.8515 361.484 31.8182C361.43 31.7849 361.391 31.7333 361.373 31.6731C361.355 31.6128 361.359 31.5481 361.385 31.4909C361.412 31.4338 361.458 31.3881 361.515 31.3625C361.515 31.3625 369.44 25.0183 370.748 22.7061C371.482 21.3434 371.861 19.8181 371.85 18.2706C371.881 16.9192 371.522 15.5876 370.816 14.4351C370.108 13.3304 369.092 12.4579 367.893 11.9264C366.515 11.2904 365.014 10.9646 363.496 10.972C361.873 10.9591 360.27 11.3333 358.82 12.0634C357.521 12.7121 356.434 13.7202 355.691 14.9679C354.976 16.1971 354.56 17.5775 354.478 18.9973C354.474 19.0539 354.482 19.1107 354.502 19.164C354.521 19.2174 354.551 19.2663 354.589 19.3077C354.628 19.3491 354.675 19.3822 354.727 19.4049C354.779 19.4275 354.835 19.4394 354.892 19.4396H358.494C358.602 19.4371 358.704 19.3941 358.781 19.3193C358.857 19.2444 358.903 19.1432 358.908 19.0361C358.939 18.2853 359.13 17.5497 359.469 16.8792C359.828 16.1695 360.395 15.5858 361.094 15.2058C361.776 14.8117 362.553 14.613 363.341 14.6316C364.076 14.6169 364.804 14.7718 365.47 15.0842C366.062 15.3703 366.552 15.8329 366.871 16.4084C367.203 17.0293 367.369 17.7248 367.355 18.4284ZM305.188 10.9722H301.158C301.051 10.9722 300.947 11.0149 300.871 11.0911C300.795 11.1672 300.752 11.2705 300.752 11.3782V20.045C300.752 20.2021 300.69 20.3527 300.579 20.4638C300.468 20.5748 300.317 20.6372 300.16 20.6372H289.039C288.882 20.6372 288.731 20.5748 288.62 20.4638C288.509 20.3527 288.447 20.2021 288.447 20.045V11.3782C288.447 11.2705 288.404 11.1672 288.328 11.0911C288.251 11.0149 288.148 10.9722 288.04 10.9722H284.011C283.903 10.9722 283.8 11.0149 283.724 11.0911C283.648 11.1672 283.605 11.2705 283.605 11.3782V35.268C283.605 35.3757 283.648 35.479 283.724 35.5552C283.8 35.6313 283.903 35.6741 284.011 35.6741H288.04C288.148 35.6741 288.251 35.6313 288.328 35.5552C288.404 35.479 288.447 35.3757 288.447 35.268V25.4892C288.447 25.3323 288.51 25.1821 288.621 25.0711C288.732 24.9602 288.882 24.8976 289.039 24.8969H300.16C300.317 24.8976 300.467 24.9602 300.578 25.0711C300.689 25.1821 300.752 25.3323 300.752 25.4892V35.268C300.752 35.3757 300.795 35.479 300.871 35.5552C300.947 35.6313 301.051 35.6741 301.158 35.6741H305.188C305.295 35.6741 305.399 35.6313 305.475 35.5552C305.551 35.479 305.594 35.3757 305.594 35.268V11.3782C305.594 11.2705 305.551 11.1672 305.475 11.0911C305.399 11.0149 305.295 10.9722 305.188 10.9722ZM314.607 31.7041H324.895C325.006 31.7041 325.112 31.748 325.19 31.8261C325.268 31.9041 325.312 32.0101 325.312 32.1205V35.2577C325.312 35.3681 325.268 35.474 325.19 35.5521C325.112 35.6302 325.006 35.6741 324.895 35.6741H309.243C309.133 35.6741 309.027 35.6302 308.949 35.5521C308.871 35.474 308.827 35.3681 308.827 35.2577V11.3886C308.827 11.2781 308.871 11.1722 308.949 11.0941C309.027 11.016 309.133 10.9722 309.243 10.9722H324.885C324.996 10.9722 325.101 11.016 325.18 11.0941C325.258 11.1722 325.302 11.2781 325.302 11.3886V14.5232C325.302 14.6339 325.258 14.74 325.18 14.8185C325.102 14.897 324.996 14.9415 324.885 14.9422H314.607C314.45 14.9422 314.299 15.0046 314.188 15.1156C314.077 15.2267 314.015 15.3774 314.015 15.5344V20.5105C314.015 20.5883 314.03 20.6653 314.06 20.7372C314.09 20.809 314.133 20.8743 314.188 20.9293C314.243 20.9843 314.309 21.0279 314.38 21.0577C314.452 21.0875 314.529 21.1028 314.607 21.1028H324.264C324.375 21.1028 324.481 21.1466 324.559 21.2247C324.637 21.3028 324.681 21.4087 324.681 21.5192V24.6641C324.681 24.7746 324.637 24.8805 324.559 24.9586C324.481 25.0367 324.375 25.0805 324.264 25.0805H314.607C314.45 25.0812 314.3 25.1438 314.189 25.2548C314.078 25.3657 314.016 25.5159 314.015 25.6728V31.1118C314.016 31.2687 314.078 31.4189 314.189 31.5299C314.3 31.6408 314.45 31.7034 314.607 31.7041Z" fill="#00C9EA"/>
<path fill-rule="evenodd" clip-rule="evenodd" d="M72.4037 30.8451H57.9617C57.4834 30.8391 57.0264 30.6464 56.6882 30.3082C56.35 29.97 56.1573 29.513 56.1513 29.0347V4.28105C56.1513 4.17336 56.1085 4.07008 56.0324 3.99393C55.9562 3.91778 55.8529 3.875 55.7452 3.875H51.2864C51.1787 3.875 51.0754 3.91778 50.9993 3.99393C50.9232 4.07008 50.8804 4.17336 50.8804 4.28105V30.4805C50.8824 31.8647 51.4332 33.1917 52.4121 34.1705C53.3909 35.1494 54.7179 35.7002 56.1021 35.7022H72.396C72.5032 35.7015 72.6058 35.6585 72.6814 35.5824C72.757 35.5063 72.7994 35.4034 72.7994 35.2962V31.2538C72.8008 31.1472 72.76 31.0444 72.6858 30.9678C72.6117 30.8913 72.5103 30.8472 72.4037 30.8451ZM129.424 6.09912H125.338C125.114 6.09912 124.932 6.28092 124.932 6.50517V10.5916C124.932 10.8158 125.114 10.9976 125.338 10.9976H129.424C129.649 10.9976 129.83 10.8158 129.83 10.5916V6.50517C129.83 6.28092 129.649 6.09912 129.424 6.09912ZM179.635 25.8172C179.195 25.009 178.587 24.3037 177.853 23.7482C177.087 23.171 176.247 22.7003 175.355 22.349C174.42 21.9777 173.456 21.6844 172.474 21.4722L170.022 20.9032C169.491 20.7856 168.966 20.6415 168.449 20.4713C167.962 20.3132 167.494 20.1025 167.053 19.8429C166.67 19.6262 166.342 19.3256 166.093 18.9635C165.857 18.6056 165.737 18.184 165.749 17.7557C165.751 17.2066 165.939 16.6743 166.282 16.2453C166.689 15.762 167.217 15.396 167.813 15.1849C168.599 14.8998 169.431 14.7639 170.267 14.784C171.617 14.784 172.73 15.0633 173.568 15.6142C173.921 15.8374 174.225 16.1314 174.46 16.4777C174.694 16.824 174.854 17.2151 174.931 17.6264C174.958 17.7421 175.024 17.8449 175.118 17.9174C175.213 17.99 175.329 18.0278 175.448 18.0247H179.402C179.515 18.0304 179.627 17.9988 179.721 17.9348C179.814 17.8708 179.884 17.7779 179.92 17.6703C179.938 17.6207 179.945 17.5678 179.94 17.5152C179.86 16.2894 179.422 15.114 178.681 14.1348C177.797 13.0048 176.631 12.1279 175.3 11.5925C173.718 10.9522 172.023 10.639 170.317 10.6718C168.608 10.6462 166.911 10.9564 165.322 11.5847C163.948 12.1199 162.738 13.0063 161.813 14.1555C160.952 15.2636 160.496 16.6323 160.52 18.035C160.52 19.8247 161.171 21.2783 162.457 22.3593C163.742 23.4404 165.465 24.2267 167.629 24.7439L170.601 25.4552C171.426 25.6412 172.237 25.8867 173.027 26.1897C173.61 26.4039 174.139 26.7419 174.579 27.1802C174.94 27.5712 175.136 28.0862 175.127 28.6182C175.129 29.2422 174.904 29.8457 174.496 30.3174C174.027 30.8407 173.432 31.2359 172.768 31.4658C171.923 31.758 171.032 31.8981 170.138 31.8796C169.259 31.8906 168.385 31.7542 167.552 31.4761C166.844 31.2456 166.209 30.8337 165.71 30.2812C165.297 29.7948 165.034 29.1993 164.952 28.5665C164.929 28.447 164.865 28.3394 164.77 28.2628C164.676 28.1861 164.557 28.1453 164.435 28.1475H160.398C160.252 28.1476 160.111 28.2052 160.007 28.3079C159.959 28.3544 159.921 28.4114 159.897 28.4745C159.873 28.5377 159.864 28.6054 159.87 28.6725C159.956 30.0525 160.431 31.38 161.241 32.5003C162.164 33.6981 163.406 34.61 164.826 35.1306C166.54 35.7615 168.356 36.0685 170.182 36.0358C172.292 36.0358 174.121 35.7254 175.613 35.1125C176.992 34.5933 178.196 33.6971 179.089 32.5262C179.897 31.4025 180.322 30.0485 180.3 28.6648C180.322 27.6748 180.093 26.6953 179.635 25.8172ZM225.581 12.2237C223.789 11.1891 221.655 10.6719 219.239 10.6719C216.824 10.6719 214.685 11.1891 212.88 12.2237C211.079 13.2404 209.623 14.7713 208.698 16.6204C207.733 18.5136 207.244 20.7585 207.244 23.3164C207.244 25.8743 207.733 28.1218 208.698 30.0149C209.622 31.8646 211.079 33.3957 212.88 34.4117C214.69 35.4462 216.824 35.9635 219.239 35.9635C221.655 35.9635 223.789 35.4462 225.581 34.4117C227.374 33.391 228.823 31.8607 229.745 30.0149C230.71 28.1218 231.199 25.8768 231.199 23.3164C231.199 20.7559 230.702 18.5188 229.745 16.6204C228.822 14.7757 227.373 13.2457 225.581 12.2237ZM222.627 30.9667C221.641 31.6714 220.451 32.0346 219.239 32.0012C218.011 32.0348 216.805 31.6721 215.8 30.9667C214.698 30.2286 213.836 29.185 213.319 27.964C212.703 26.4982 212.403 24.919 212.437 23.3293C212.401 21.7394 212.696 20.1593 213.304 18.6895C213.813 17.4644 214.675 16.4189 215.781 15.6867C216.806 14.9796 218.029 14.6172 219.273 14.6522C220.477 14.6196 221.658 14.983 222.635 15.6867C223.731 16.4294 224.589 17.4719 225.108 18.6895C225.723 20.1546 226.024 21.7328 225.99 23.3216C226.024 24.9112 225.723 26.4903 225.108 27.9562C224.59 29.1763 223.729 30.219 222.627 30.9564V30.9667ZM271.995 31.7041H261.707C261.55 31.7034 261.4 31.6407 261.29 31.5297C261.179 31.4187 261.117 31.2685 261.117 31.1118V25.6728C261.117 25.5162 261.179 25.3659 261.29 25.2549C261.4 25.1439 261.55 25.0812 261.707 25.0805H271.364C271.474 25.0805 271.58 25.0367 271.658 24.9586C271.737 24.8805 271.78 24.7746 271.78 24.6641V21.5192C271.78 21.4087 271.737 21.3028 271.658 21.2247C271.58 21.1466 271.474 21.1028 271.364 21.1028H261.707C261.628 21.1028 261.55 21.0871 261.478 21.0567C261.406 21.0262 261.34 20.9816 261.285 20.9255C261.23 20.8694 261.187 20.8028 261.158 20.7298C261.129 20.6568 261.115 20.5787 261.117 20.5002V15.5344C261.117 15.4568 261.132 15.3798 261.161 15.308C261.191 15.2361 261.234 15.1708 261.289 15.1158C261.344 15.0608 261.409 15.0171 261.48 14.9873C261.552 14.9575 261.629 14.9422 261.707 14.9422H271.985C272.095 14.9415 272.201 14.897 272.279 14.8185C272.357 14.74 272.401 14.6339 272.401 14.5232V11.3886C272.401 11.2781 272.357 11.1722 272.279 11.0941C272.201 11.016 272.095 10.9722 271.985 10.9722H256.343C256.232 10.9722 256.126 11.016 256.048 11.0941C255.97 11.1722 255.926 11.2781 255.926 11.3886V35.2577C255.926 35.3681 255.97 35.474 256.048 35.5521C256.126 35.6302 256.232 35.6741 256.343 35.6741H271.995C272.106 35.6741 272.212 35.6303 272.29 35.5523C272.369 35.4743 272.413 35.3684 272.414 35.2577V32.1205C272.413 32.0098 272.369 31.9039 272.29 31.8259C272.212 31.7479 272.106 31.7041 271.995 31.7041ZM244.05 10.9718C245.699 10.9365 247.336 11.2668 248.842 11.9391C250.158 12.5347 251.267 13.5089 252.026 14.7375C252.787 16.024 253.173 17.4976 253.141 18.992C253.172 20.4886 252.779 21.9636 252.008 23.2465C251.224 24.4843 250.092 25.4632 248.754 26.0604C247.197 26.7447 245.51 27.0802 243.809 27.0432H240.132C240.015 27.0432 239.903 27.0895 239.821 27.172C239.738 27.2544 239.692 27.3662 239.692 27.4829V35.2547C239.692 35.3654 239.648 35.4716 239.57 35.5501C239.492 35.6286 239.386 35.673 239.276 35.6737H234.892C234.781 35.673 234.675 35.6286 234.597 35.5501C234.519 35.4716 234.475 35.3654 234.475 35.2547V11.3882C234.476 11.278 234.52 11.1725 234.598 11.0945C234.676 11.0166 234.782 10.9725 234.892 10.9718H244.05ZM246.22 22.5714C246.867 22.2622 247.407 21.7669 247.772 21.149C248.145 20.4788 248.331 19.7202 248.31 18.9532C248.327 18.2105 248.149 17.4763 247.792 16.8246C247.448 16.2298 246.938 15.7488 246.323 15.441C245.616 15.0949 244.837 14.9237 244.05 14.9418H240.284C240.128 14.9418 239.977 15.0038 239.866 15.1144C239.755 15.2249 239.693 15.3749 239.692 15.5315V22.4809C239.693 22.6375 239.755 22.7875 239.866 22.898C239.977 23.0086 240.128 23.0706 240.284 23.0706H243.825C244.651 23.0892 245.47 22.9185 246.22 22.5714ZM200.618 27.134H204.634C204.705 27.133 204.775 27.147 204.84 27.1751C204.904 27.2032 204.962 27.2448 205.009 27.297C205.057 27.3528 205.092 27.418 205.113 27.4885C205.133 27.5589 205.139 27.633 205.128 27.7056C204.923 29.2131 204.349 30.6468 203.458 31.8799C202.478 33.2093 201.165 34.2559 199.651 34.9137C197.929 35.6421 196.073 36.0008 194.204 35.9663C191.811 35.9663 189.706 35.4491 187.948 34.4145C186.18 33.3832 184.756 31.8539 183.853 30.0178C182.902 28.1246 182.418 25.8848 182.418 23.3218C182.418 20.7588 182.912 18.5164 183.89 16.6207C184.814 14.7832 186.253 13.2552 188.033 12.2239C189.815 11.1894 191.943 10.6721 194.359 10.6721C196.181 10.6426 197.989 10.995 199.666 11.7066C201.154 12.3454 202.445 13.3705 203.403 14.6757C204.257 15.871 204.801 17.2588 204.989 18.7156C204.999 18.7878 204.993 18.8613 204.973 18.9313C204.952 19.0013 204.917 19.0661 204.87 19.1216C204.823 19.1754 204.766 19.2185 204.701 19.2479C204.636 19.2774 204.566 19.2925 204.495 19.2923H200.442C200.328 19.2891 200.218 19.2483 200.13 19.1763C200.042 19.1042 199.979 19.005 199.953 18.894C199.811 18.1392 199.509 17.4233 199.069 16.7939C198.572 16.1 197.897 15.5524 197.116 15.2085C196.25 14.8283 195.312 14.6387 194.367 14.6525C193.144 14.6189 191.944 14.9818 190.945 15.687C189.847 16.424 188.99 17.4685 188.483 18.6897C187.875 20.1631 187.58 21.7466 187.616 23.3399C187.583 24.9265 187.872 26.5034 188.467 27.9746C188.957 29.1862 189.788 30.2294 190.86 30.9773C191.825 31.6829 192.998 32.0469 194.193 32.0118C195.203 32.0305 196.205 31.8357 197.134 31.4403C197.955 31.0808 198.665 30.5084 199.19 29.7824C199.665 29.1166 199.986 28.3532 200.129 27.5478C200.15 27.4327 200.21 27.3284 200.299 27.2528C200.388 27.1772 200.501 27.1352 200.618 27.134ZM91.6769 13.8662H95.7633C95.8168 13.8659 95.8699 13.8761 95.9195 13.8964C95.969 13.9166 96.0141 13.9465 96.0521 13.9842C96.0901 14.022 96.1202 14.0668 96.1408 14.1163C96.1613 14.1657 96.1719 14.2187 96.1719 14.2723V35.2965C96.1719 35.4041 96.1291 35.5074 96.053 35.5836C95.9768 35.6597 95.8736 35.7025 95.7659 35.7025H92.2226C92.1151 35.7018 92.0122 35.6588 91.9362 35.5828C91.8602 35.5068 91.8172 35.4039 91.8166 35.2965V32.7412C90.9229 33.7888 89.8279 34.6464 88.5966 35.2628C87.2533 35.9542 85.7623 36.3092 84.2516 36.2974C81.4454 36.2974 79.216 35.4723 77.6306 33.8378C76.0452 32.2032 75.2408 30.0281 75.2408 27.372V14.2723C75.2408 14.1646 75.2836 14.0613 75.3598 13.9851C75.4359 13.909 75.5392 13.8662 75.6469 13.8662H79.7359C79.7891 13.8662 79.8417 13.8767 79.8909 13.8972C79.94 13.9176 79.9846 13.9476 80.0221 13.9853C80.0596 14.023 80.0892 14.0678 80.1094 14.1171C80.1295 14.1663 80.1397 14.2191 80.1393 14.2723V26.7332C80.1393 28.4763 80.5816 29.785 81.4506 30.6463C82.3196 31.5075 83.5998 31.9394 85.2525 31.9394C86.4768 31.9521 87.6758 31.5912 88.6897 30.9049C89.4375 30.3988 90.1097 29.7893 90.6863 29.0945C91.0705 28.625 91.2774 28.0354 91.2708 27.4289V14.2723C91.2708 14.1646 91.3136 14.0613 91.3898 13.9851C91.4659 13.909 91.5692 13.8662 91.6769 13.8662ZM116.759 14.412C115.314 13.6321 113.691 13.24 112.049 13.274C110.539 13.264 109.048 13.6189 107.704 14.3085C106.476 14.9249 105.383 15.7805 104.49 16.825V14.2697C104.489 14.1625 104.446 14.0599 104.37 13.9843C104.294 13.9087 104.191 13.8663 104.084 13.8663H100.491C100.385 13.8676 100.284 13.9107 100.209 13.9863C100.135 14.0618 100.093 14.1636 100.093 14.2697V35.2965C100.093 35.4038 100.135 35.5066 100.211 35.5827C100.286 35.6588 100.389 35.7019 100.496 35.7026H104.585C104.693 35.7026 104.796 35.6598 104.872 35.5836C104.949 35.5075 104.991 35.4042 104.991 35.2965V22.1632C104.993 21.5139 105.23 20.8874 105.659 20.3993C106.234 19.7414 106.892 19.1607 107.616 18.6717C108.631 17.9843 109.831 17.6233 111.056 17.6371C112.556 17.6371 113.787 18.0846 114.719 18.9717C115.65 19.8588 116.128 21.1494 116.128 22.8279V35.2939C116.129 35.4014 116.172 35.5043 116.248 35.5803C116.324 35.6563 116.427 35.6993 116.534 35.7H120.623C120.73 35.6993 120.833 35.6562 120.909 35.5801C120.984 35.5041 121.027 35.4012 121.027 35.2939V22.1942C121.054 20.5856 120.67 18.9967 119.912 17.5776C119.182 16.245 118.089 15.1472 116.759 14.412ZM125.338 13.8662H129.424C129.649 13.8662 129.83 14.048 129.83 14.2723V35.2964C129.83 35.5207 129.649 35.7025 129.424 35.7025H125.338C125.114 35.7025 124.932 35.5207 124.932 35.2964V14.2723C124.932 14.048 125.114 13.8662 125.338 13.8662ZM149.453 18.1722H142.508C142.36 18.1735 142.218 18.2336 142.114 18.3393C142.01 18.445 141.952 18.5876 141.952 18.736V28.1424C141.952 29.5365 142.216 30.3382 142.865 30.9098C142.873 30.9176 143.665 31.6391 146.065 31.6391H149.435C149.488 31.6391 149.541 31.6496 149.59 31.67C149.639 31.6905 149.684 31.7204 149.722 31.7581C149.759 31.7958 149.789 31.8405 149.81 31.8898C149.83 31.9391 149.841 31.9919 149.841 32.0452V35.8341C149.841 35.8875 149.83 35.9403 149.81 35.9895C149.789 36.0388 149.759 36.0836 149.722 36.1213C149.684 36.159 149.639 36.1889 149.59 36.2093C149.541 36.2297 149.488 36.2402 149.435 36.2402H144.598C142.374 36.2402 140.538 35.6557 139.167 34.466C137.796 33.2763 137.098 31.4529 137.098 29.0347V18.6894C137.091 18.5672 137.044 18.4505 136.965 18.3572C136.885 18.2639 136.778 18.1989 136.658 18.1722H133.599C133.492 18.1702 133.391 18.1269 133.316 18.0516C133.242 17.9763 133.199 17.8749 133.198 17.7687V14.2694C133.198 14.1626 133.24 14.0601 133.315 13.9841C133.39 13.9081 133.492 13.8647 133.599 13.8634H136.526C136.671 13.8629 136.811 13.8068 136.915 13.7068C137.02 13.6067 137.083 13.4702 137.09 13.3254V11.1141C137.09 11.0607 137.1 11.0077 137.12 10.9584C137.141 10.9091 137.171 10.8644 137.209 10.827L141.246 6.76652C141.303 6.70901 141.375 6.66962 141.454 6.65336C141.533 6.63711 141.615 6.64472 141.69 6.67523C141.764 6.70574 141.828 6.75777 141.873 6.82469C141.918 6.89162 141.942 6.9704 141.942 7.05101V13.2996C141.943 13.4496 142.003 13.5932 142.109 13.6993C142.215 13.8054 142.358 13.8653 142.508 13.866H149.453C149.56 13.866 149.663 13.9084 149.739 13.984C149.815 14.0596 149.858 14.1622 149.859 14.2694V17.7661C149.858 17.8736 149.815 17.9765 149.739 18.0525C149.663 18.1285 149.56 18.1715 149.453 18.1722Z" fill="black"/>
</g>
<defs>
<clipPath id="clip0_9078_100871">
<rect width="372" height="40" fill="white"/>
</clipPath>
</defs>
</svg>
