<svg width="501" height="44" viewBox="0 0 501 44" fill="none" xmlns="http://www.w3.org/2000/svg">
<g clip-path="url(#clip0_9078_100876)">
<path d="M20.0019 0C16.0459 0 12.1787 1.17309 8.88945 3.37093C5.60015 5.56877 3.03646 8.69264 1.52256 12.3475C0.00866652 16.0024 -0.387438 20.0241 0.38434 23.9041C1.15612 27.7841 3.06111 31.3481 5.85843 34.1454C8.65575 36.9427 12.2197 38.8477 16.0997 39.6195C19.9797 40.3913 24.0014 39.9951 27.6563 38.4812C31.3112 36.9674 34.435 34.4037 36.6329 31.1144C38.8307 27.8251 40.0038 23.9579 40.0038 20.0019C40.0038 14.6971 37.8965 9.6095 34.1454 5.85842C30.3943 2.10734 25.3067 0 20.0019 0ZM26.0131 18.6646C24.0838 18.6881 22.2402 19.465 20.8759 20.8293C19.5115 22.1936 18.7347 24.0372 18.7112 25.9665C18.7112 25.9976 18.7112 26.0286 18.7112 26.0596C18.7117 26.994 18.4351 27.9075 17.9163 28.6846C17.3975 29.4617 16.6599 30.0675 15.7968 30.4253C14.9336 30.7831 13.9838 30.8768 13.0674 30.6947C12.1509 30.5125 11.3091 30.0626 10.6484 29.4019C9.98775 28.7412 9.53787 27.8994 9.35571 26.983C9.17355 26.0666 9.2673 25.1167 9.6251 24.2536C9.9829 23.3905 10.5887 22.6528 11.3658 22.1341C12.1429 21.6153 13.0564 21.3386 13.9907 21.3392C14.9543 21.3388 15.9084 21.1479 16.7978 20.7772C17.6873 20.4066 18.4947 19.8637 19.1734 19.1796C19.8521 18.4956 20.3888 17.6841 20.7525 16.7918C21.1162 15.8994 21.2998 14.944 21.2926 13.9804C21.294 13.9683 21.294 13.9562 21.2926 13.9442C21.2926 13.0105 21.5695 12.0979 22.0882 11.3216C22.6068 10.5453 23.3441 9.94029 24.2066 9.58301C25.0692 9.22573 26.0183 9.13225 26.934 9.31439C27.8497 9.49653 28.6908 9.94611 29.351 10.6063C30.0111 11.2665 30.4607 12.1076 30.6429 13.0232C30.825 13.9389 30.7315 14.8881 30.3742 15.7506C30.017 16.6132 29.4119 17.3504 28.6356 17.8691C27.8594 18.3878 26.9467 18.6646 26.0131 18.6646Z" fill="#00C9EA"/>
<path fill-rule="evenodd" clip-rule="evenodd" d="M72.4053 30.4727H57.9619C57.4836 30.4667 57.0265 30.274 56.6883 29.9357C56.35 29.5975 56.1573 29.1404 56.1513 28.6621V3.90609C56.1513 3.79839 56.1085 3.6951 56.0324 3.61894C55.9562 3.54278 55.8529 3.5 55.7452 3.5H51.286C51.1783 3.5 51.075 3.54278 50.9988 3.61894C50.9227 3.6951 50.8799 3.79839 50.8799 3.90609V30.108C50.8819 31.4924 51.4328 32.8195 52.4117 33.7984C53.3906 34.7773 54.7178 35.3282 56.1022 35.3303H72.3975C72.5048 35.3296 72.6074 35.2865 72.683 35.2104C72.7586 35.1343 72.801 35.0314 72.801 34.9242V30.8814C72.8024 30.7748 72.7616 30.672 72.6874 30.5954C72.6133 30.5189 72.5118 30.4747 72.4053 30.4727ZM129.431 5.72437H125.345C125.12 5.72437 124.938 5.90618 124.938 6.13046V10.2172C124.938 10.4415 125.12 10.6233 125.345 10.6233H129.431C129.656 10.6233 129.837 10.4415 129.837 10.2172V6.13046C129.837 5.90618 129.656 5.72437 129.431 5.72437ZM179.647 25.4444C179.206 24.6361 178.599 23.9307 177.865 23.3752C177.099 22.7979 176.258 22.3272 175.366 21.9758C174.431 21.6045 173.468 21.3112 172.485 21.099L170.033 20.5299C169.501 20.4123 168.977 20.2681 168.46 20.098C167.973 19.9399 167.505 19.7291 167.063 19.4695C166.681 19.2528 166.353 18.9521 166.104 18.59C165.868 18.2321 165.748 17.8105 165.76 17.3821C165.762 16.8329 165.95 16.3006 166.292 15.8715C166.699 15.3882 167.228 15.0221 167.824 14.8111C168.61 14.526 169.442 14.39 170.278 14.4101C171.628 14.4101 172.741 14.6895 173.579 15.2404C173.932 15.4637 174.236 15.7577 174.471 16.104C174.705 16.4503 174.866 16.8414 174.942 17.2528C174.969 17.3685 175.035 17.4713 175.13 17.5439C175.224 17.6164 175.34 17.6543 175.459 17.6511H179.414C179.527 17.6568 179.639 17.6252 179.732 17.5612C179.826 17.4972 179.896 17.4043 179.931 17.2967C179.949 17.2471 179.956 17.1942 179.952 17.1415C179.872 15.9157 179.434 14.7402 178.692 13.7609C177.809 12.6308 176.643 11.7538 175.312 11.2183C173.729 10.5779 172.034 10.2647 170.327 10.2975C168.619 10.272 166.922 10.5822 165.333 11.2106C163.958 11.7458 162.748 12.6323 161.823 13.7816C160.962 14.8898 160.506 16.2586 160.529 17.6614C160.529 19.4514 161.181 20.905 162.467 21.9862C163.752 23.0674 165.475 23.8537 167.64 24.371L170.612 25.0823C171.437 25.2683 172.248 25.5138 173.038 25.8169C173.621 26.0311 174.15 26.3691 174.59 26.8075C174.951 27.1986 175.147 27.7136 175.138 28.2457C175.14 28.8697 174.916 29.4733 174.507 29.945C174.038 30.4683 173.444 30.8636 172.779 31.0935C171.934 31.3858 171.043 31.5259 170.149 31.5073C169.27 31.5183 168.396 31.3819 167.562 31.1038C166.855 30.8733 166.22 30.4613 165.721 29.9088C165.308 29.4224 165.045 28.8268 164.963 28.1939C164.94 28.0744 164.875 27.9668 164.781 27.8902C164.686 27.8135 164.567 27.7727 164.446 27.7749H160.408C160.262 27.7749 160.121 27.8326 160.017 27.9353C159.968 27.9818 159.931 28.0388 159.907 28.1019C159.883 28.1651 159.874 28.2328 159.88 28.3C159.965 29.6801 160.441 31.0077 161.251 32.1281C162.174 33.326 163.417 34.238 164.836 34.7586C166.55 35.3896 168.367 35.6966 170.193 35.6639C172.304 35.6639 174.132 35.3535 175.625 34.7405C177.003 34.2213 178.208 33.325 179.101 32.154C179.909 31.0302 180.333 29.6761 180.312 28.2922C180.333 27.3021 180.105 26.3225 179.647 25.4444ZM225.597 11.8495C223.805 10.8149 221.671 10.2976 219.255 10.2976C216.839 10.2976 214.7 10.8149 212.895 11.8495C211.094 12.8664 209.638 14.3974 208.712 16.2467C207.747 18.1401 207.258 20.3852 207.258 22.9433C207.258 25.5014 207.747 27.7492 208.712 29.6425C209.637 31.4923 211.093 33.0236 212.895 34.0397C214.705 35.0743 216.839 35.5916 219.255 35.5916C221.671 35.5916 223.805 35.0743 225.597 34.0397C227.39 33.0189 228.84 31.4884 229.762 29.6425C230.726 27.7492 231.215 25.504 231.215 22.9433C231.215 20.3826 230.719 18.1452 229.762 16.2467C228.838 14.4018 227.389 12.8717 225.597 11.8495ZM222.643 30.5944C221.657 31.2991 220.467 31.6624 219.255 31.629C218.027 31.6626 216.821 31.2998 215.815 30.5944C214.713 29.8562 213.851 28.8125 213.334 27.5914C212.718 26.1254 212.417 24.5461 212.452 22.9563C212.416 21.3661 212.711 19.7859 213.319 18.316C213.828 17.0907 214.69 16.0452 215.797 15.313C216.821 14.6057 218.044 14.2433 219.289 14.2783C220.492 14.2457 221.674 14.6092 222.651 15.313C223.747 16.0557 224.605 17.0982 225.124 18.316C225.739 19.7812 226.04 21.3596 226.006 22.9485C226.04 24.5383 225.74 26.1175 225.124 27.5836C224.607 28.8038 223.744 29.8465 222.643 30.584V30.5944ZM272.016 31.3312H261.726C261.57 31.3306 261.42 31.2679 261.309 31.1568C261.199 31.0458 261.137 30.8956 261.137 30.7389V25.2994C261.137 25.1427 261.199 24.9925 261.309 24.8815C261.42 24.7705 261.57 24.7077 261.726 24.7071H271.385C271.495 24.7071 271.601 24.6632 271.679 24.5851C271.757 24.507 271.801 24.4011 271.801 24.2906V21.1454C271.801 21.0349 271.757 20.929 271.679 20.8509C271.601 20.7728 271.495 20.7289 271.385 20.7289H261.726C261.648 20.7289 261.57 20.7133 261.498 20.6828C261.425 20.6524 261.36 20.6078 261.305 20.5516C261.25 20.4955 261.207 20.429 261.178 20.3559C261.149 20.2829 261.135 20.2048 261.137 20.1263V15.1601C261.136 15.0824 261.151 15.0054 261.181 14.9336C261.21 14.8617 261.254 14.7964 261.308 14.7414C261.363 14.6863 261.428 14.6427 261.5 14.6129C261.572 14.5831 261.649 14.5677 261.726 14.5677H272.005C272.116 14.567 272.222 14.5226 272.3 14.4441C272.378 14.3656 272.422 14.2594 272.422 14.1487V11.0138C272.422 10.9033 272.378 10.7974 272.3 10.7193C272.222 10.6412 272.116 10.5974 272.005 10.5974H256.362C256.251 10.5974 256.145 10.6412 256.067 10.7193C255.989 10.7974 255.945 10.9033 255.945 11.0138V34.8852C255.945 34.9956 255.989 35.1016 256.067 35.1797C256.145 35.2577 256.251 35.3016 256.362 35.3016H272.016C272.126 35.3016 272.233 35.2578 272.311 35.1798C272.39 35.1018 272.434 34.9959 272.435 34.8852V31.7477C272.434 31.637 272.39 31.5311 272.311 31.4531C272.233 31.375 272.126 31.3312 272.016 31.3312ZM244.068 10.5975C245.717 10.5621 247.354 10.8925 248.861 11.5648C250.177 12.1605 251.285 13.1349 252.045 14.3635C252.806 15.6502 253.192 17.1239 253.16 18.6184C253.191 20.1152 252.798 21.5903 252.027 22.8733C251.243 24.1113 250.111 25.0902 248.773 25.6875C247.216 26.3719 245.528 26.7074 243.827 26.6704H240.149C240.033 26.6704 239.921 26.7167 239.838 26.7992C239.756 26.8816 239.709 26.9935 239.709 27.1101V34.8827C239.709 34.9934 239.666 35.0996 239.588 35.1781C239.51 35.2566 239.404 35.3011 239.293 35.3017H234.909C234.798 35.3011 234.692 35.2566 234.614 35.1781C234.536 35.0996 234.492 34.9934 234.492 34.8827V11.0139C234.493 10.9037 234.537 10.7981 234.615 10.7202C234.693 10.6422 234.799 10.5982 234.909 10.5975H244.068ZM246.238 22.1982C246.885 21.889 247.426 21.3936 247.79 20.7756C248.164 20.1054 248.349 19.3467 248.328 18.5796C248.346 17.8369 248.167 17.1026 247.811 16.4509C247.466 15.856 246.956 15.3749 246.341 15.0671C245.634 14.721 244.855 14.5498 244.068 14.5678H240.302C240.145 14.5678 239.995 14.6299 239.884 14.7404C239.773 14.8509 239.71 15.0009 239.709 15.1576V22.1077C239.71 22.2643 239.773 22.4143 239.884 22.5248C239.995 22.6354 240.145 22.6974 240.302 22.6974H243.843C244.669 22.7161 245.488 22.5453 246.238 22.1982ZM200.632 26.7608H204.649C204.721 26.759 204.793 26.7731 204.86 26.8021C204.927 26.8312 204.986 26.8745 205.034 26.929C205.082 26.9848 205.117 27.05 205.138 27.1205C205.158 27.191 205.163 27.265 205.153 27.3376C204.944 28.9123 204.328 30.4052 203.366 31.6686C202.403 32.932 201.127 33.9222 199.664 34.5412C197.942 35.2698 196.086 35.6284 194.217 35.594C191.824 35.594 189.719 35.0767 187.96 34.042C186.193 33.0106 184.769 31.4811 183.866 29.6449C182.914 27.7515 182.43 25.5115 182.43 22.9483C182.43 20.385 182.924 18.1424 183.902 16.2465C184.826 14.4088 186.266 12.8807 188.045 11.8493C189.828 10.8147 191.956 10.2974 194.372 10.2974C196.194 10.2679 198.002 10.6203 199.68 11.332C201.169 11.9696 202.46 12.995 203.417 14.3014C204.271 15.4965 204.816 16.8846 205.003 18.3416C205.013 18.4138 205.007 18.4874 204.987 18.5573C204.966 18.6273 204.931 18.6922 204.884 18.7477C204.838 18.8012 204.781 18.8442 204.716 18.8737C204.652 18.9032 204.582 18.9184 204.512 18.9184H200.456C200.342 18.9152 200.232 18.8744 200.144 18.8023C200.055 18.7303 199.993 18.631 199.967 18.5201C199.824 17.7651 199.523 17.0492 199.082 16.4198C198.585 15.7258 197.911 15.1781 197.13 14.8342C196.263 14.454 195.326 14.2643 194.38 14.2781C193.158 14.2445 191.957 14.6075 190.958 15.3127C189.86 16.0498 189.003 17.0943 188.496 18.3157C187.888 19.7893 187.593 21.3729 187.629 22.9664C187.595 24.5531 187.885 26.1301 188.48 27.6015C188.97 28.8132 189.801 29.8565 190.873 30.6045C191.838 31.3102 193.011 31.6742 194.207 31.6391C195.216 31.6578 196.218 31.463 197.148 31.0675C197.969 30.7079 198.678 30.1355 199.204 29.4095C199.679 28.7436 200 27.9802 200.143 27.1747C200.163 27.0596 200.223 26.9552 200.313 26.8796C200.402 26.8041 200.515 26.7621 200.632 26.7608ZM91.6805 13.4917H95.7673C95.8209 13.4914 95.8739 13.5016 95.9235 13.5219C95.9731 13.5421 96.0181 13.572 96.0561 13.6097C96.0941 13.6475 96.1243 13.6924 96.1448 13.7418C96.1654 13.7912 96.176 13.8443 96.176 13.8978V34.924C96.176 35.0317 96.1332 35.135 96.057 35.2111C95.9809 35.2873 95.8776 35.3301 95.7699 35.3301H92.2263C92.1188 35.3294 92.0159 35.2864 91.9399 35.2104C91.8639 35.1344 91.8209 35.0315 91.8202 34.924V32.3685C90.9265 33.4162 89.8314 34.2738 88.5999 34.8904C87.2565 35.5818 85.7654 35.9369 84.2545 35.925C81.4481 35.925 79.2185 35.0999 77.6329 33.4652C76.0473 31.8304 75.2429 29.6551 75.2429 26.9987V13.8978C75.2429 13.7901 75.2857 13.6868 75.3619 13.6106C75.438 13.5345 75.5413 13.4917 75.649 13.4917H79.7384C79.7916 13.4917 79.8443 13.5022 79.8934 13.5227C79.9425 13.5431 79.9871 13.5731 80.0246 13.6108C80.0621 13.6485 80.0918 13.6933 80.1119 13.7426C80.132 13.7918 80.1422 13.8446 80.1419 13.8978V26.3599C80.1419 28.1032 80.5842 29.412 81.4533 30.2733C82.3223 31.1347 83.6027 31.5666 85.2555 31.5666C86.4799 31.5793 87.6791 31.2184 88.6931 30.532C89.4409 30.0259 90.1132 29.4163 90.6899 28.7214C91.0741 28.2519 91.281 27.6623 91.2744 27.0557V13.8978C91.2744 13.7901 91.3172 13.6868 91.3934 13.6106C91.4695 13.5345 91.5728 13.4917 91.6805 13.4917ZM116.765 14.0376C115.32 13.2576 113.697 12.8655 112.055 12.8995C110.544 12.8895 109.053 13.2444 107.709 13.9341C106.481 14.5506 105.388 15.4062 104.494 16.4509V13.8953C104.494 13.7881 104.45 13.6854 104.374 13.6098C104.298 13.5343 104.195 13.4918 104.088 13.4918H100.495C100.389 13.4932 100.288 13.5363 100.213 13.6118C100.139 13.6873 100.097 13.7892 100.097 13.8953V34.9241C100.097 35.0313 100.139 35.1342 100.215 35.2103C100.291 35.2864 100.393 35.3295 100.501 35.3302H104.59C104.698 35.3302 104.801 35.2874 104.877 35.2112C104.953 35.1351 104.996 35.0318 104.996 34.9241V21.7895C104.998 21.1402 105.235 20.5136 105.663 20.0255C106.239 19.3675 106.897 18.7867 107.621 18.2977C108.636 17.6102 109.836 17.2492 111.061 17.263C112.562 17.263 113.793 17.7105 114.724 18.5977C115.655 19.4849 116.134 20.7756 116.134 22.4543V34.9215C116.134 35.029 116.177 35.1319 116.253 35.2079C116.329 35.2839 116.432 35.3269 116.54 35.3276H120.629C120.736 35.3269 120.839 35.2838 120.915 35.2077C120.99 35.1317 121.033 35.0288 121.033 34.9215V21.8206C121.06 20.2118 120.676 18.6227 119.918 17.2035C119.188 15.8708 118.095 14.7728 116.765 14.0376ZM125.345 13.4917H129.431C129.656 13.4917 129.837 13.6735 129.837 13.8978V34.924C129.837 35.1482 129.656 35.3301 129.431 35.3301H125.345C125.12 35.3301 124.938 35.1482 124.938 34.924V13.8978C124.938 13.6735 125.12 13.4917 125.345 13.4917ZM149.462 17.7986H142.517C142.368 17.7999 142.226 17.86 142.122 17.9657C142.018 18.0714 141.96 18.214 141.961 18.3625V27.7698C141.961 29.1639 142.224 29.9658 142.874 30.5374C142.881 30.5452 143.673 31.2668 146.073 31.2668H149.444C149.497 31.2668 149.55 31.2773 149.599 31.2977C149.648 31.3181 149.693 31.348 149.731 31.3858C149.768 31.4235 149.798 31.4682 149.819 31.5175C149.839 31.5668 149.85 31.6196 149.85 31.6729V35.4622C149.85 35.5156 149.839 35.5684 149.819 35.6176C149.798 35.6669 149.768 35.7117 149.731 35.7494C149.693 35.7871 149.648 35.817 149.599 35.8374C149.55 35.8578 149.497 35.8683 149.444 35.8683H144.607C142.382 35.8683 140.546 35.2838 139.175 34.0939C137.804 32.9041 137.106 31.0806 137.106 28.6621V18.3159C137.098 18.1936 137.052 18.077 136.972 17.9836C136.893 17.8903 136.785 17.8253 136.666 17.7986H133.606C133.5 17.7966 133.399 17.7533 133.324 17.678C133.249 17.6027 133.206 17.5012 133.205 17.3951V13.8955C133.205 13.7886 133.247 13.6861 133.322 13.6101C133.397 13.5341 133.499 13.4907 133.606 13.4894H136.534C136.679 13.4889 136.818 13.4328 136.923 13.3327C137.028 13.2327 137.091 13.0962 137.098 12.9514V10.7398C137.097 10.6864 137.108 10.6335 137.128 10.5841C137.148 10.5348 137.179 10.4901 137.217 10.4527L141.254 6.39183C141.311 6.33432 141.383 6.29493 141.462 6.27867C141.541 6.26241 141.623 6.27002 141.698 6.30054C141.772 6.33105 141.836 6.38309 141.881 6.45002C141.926 6.51694 141.95 6.59574 141.95 6.67636V12.9255C141.951 13.0755 142.011 13.2192 142.117 13.3253C142.223 13.4314 142.367 13.4913 142.517 13.492H149.462C149.569 13.4919 149.672 13.5344 149.748 13.61C149.824 13.6856 149.867 13.7882 149.868 13.8955V17.3925C149.867 17.5 149.824 17.6029 149.748 17.6789C149.672 17.7549 149.569 17.7979 149.462 17.7986Z" fill="black"/>
<path fill-rule="evenodd" clip-rule="evenodd" d="M456.616 9.30176H459.979C460.282 9.30176 460.527 9.54726 460.527 9.85011V13.3083C460.527 13.6112 460.282 13.8567 459.979 13.8567H456.616C456.313 13.8567 456.068 13.6112 456.068 13.3083V9.85011C456.068 9.54726 456.313 9.30176 456.616 9.30176ZM473.318 35.752C471.313 35.752 469.67 35.214 468.434 34.1561C467.198 33.0982 466.567 31.4531 466.567 29.2804V20.0826C466.561 19.9916 466.525 19.9049 466.466 19.8355C466.407 19.7661 466.327 19.7176 466.238 19.6972H463.538C463.421 19.6972 463.309 19.6509 463.227 19.5684C463.144 19.4859 463.098 19.3741 463.098 19.2575V16.1536C463.098 16.0959 463.109 16.0387 463.131 15.9853C463.154 15.932 463.186 15.8835 463.227 15.8427C463.268 15.8018 463.316 15.7695 463.369 15.7474C463.423 15.7253 463.48 15.7139 463.538 15.7139H466.145C466.253 15.714 466.358 15.6724 466.436 15.5978C466.515 15.5232 466.561 15.4212 466.567 15.313V13.3523C466.567 13.2356 466.612 13.1234 466.693 13.0394L470.281 9.4337C470.363 9.3507 470.475 9.30332 470.591 9.30179C470.65 9.3011 470.707 9.31206 470.761 9.33404C470.815 9.35603 470.864 9.38858 470.906 9.42979C470.947 9.471 470.979 9.52004 471.001 9.57401C471.023 9.62799 471.034 9.68582 471.034 9.74409V15.2923C471.035 15.4041 471.08 15.511 471.16 15.5898C471.239 15.6687 471.346 15.7132 471.458 15.7139H477.611C477.728 15.7139 477.84 15.7602 477.922 15.8427C478.005 15.9251 478.051 16.037 478.051 16.1536V19.2575C478.051 19.3152 478.04 19.3724 478.017 19.4257C477.995 19.4791 477.963 19.5276 477.922 19.5684C477.881 19.6092 477.833 19.6416 477.779 19.6637C477.726 19.6858 477.669 19.6972 477.611 19.6972H471.442C471.333 19.7006 471.23 19.7462 471.154 19.8244C471.078 19.9026 471.036 20.0073 471.036 20.1162V28.4734C471.036 29.6839 471.261 30.3771 471.812 30.8686C471.812 30.8686 472.523 31.4971 474.598 31.4971H477.603C477.72 31.4971 477.832 31.5434 477.914 31.6259C477.997 31.7083 478.043 31.8202 478.043 31.9368V35.2993C478.043 35.416 477.997 35.5278 477.914 35.6103C477.832 35.6927 477.72 35.7391 477.603 35.7391L473.318 35.752ZM389.084 19.8185V15.874C389.084 15.8249 389.074 15.7762 389.055 15.731C389.036 15.6857 389.008 15.6448 388.972 15.6105C388.937 15.5763 388.895 15.5494 388.85 15.5316C388.804 15.5138 388.755 15.5053 388.706 15.5067C388.525 15.5067 388.349 15.5067 388.189 15.53C385.416 15.7446 383.533 17.5164 382.472 20.0176V16.0912C382.472 15.994 382.433 15.901 382.364 15.8323C382.295 15.7635 382.202 15.7246 382.105 15.7239H378.362C378.265 15.7239 378.171 15.7626 378.103 15.8315C378.034 15.9004 377.995 15.9938 377.995 16.0912V34.9344C377.995 35.0318 378.034 35.1252 378.103 35.1941C378.171 35.263 378.265 35.3016 378.362 35.3016H382.105C382.202 35.301 382.295 35.2621 382.364 35.1933C382.433 35.1246 382.472 35.0316 382.472 34.9344V26.5254C382.783 22.4982 384.999 20.3694 388.15 20.103C388.377 20.0823 388.61 20.072 388.846 20.072C388.911 20.0707 388.974 20.049 389.027 20.0099C389.048 19.9833 389.065 19.9528 389.074 19.9199C389.084 19.887 389.087 19.8526 389.084 19.8185ZM318.144 15.7291H321.799C321.95 15.7318 322.094 15.7938 322.199 15.9018C322.305 16.0097 322.364 16.1549 322.363 16.3059V34.7222C322.363 34.7978 322.349 34.8728 322.32 34.9427C322.291 35.0127 322.249 35.0763 322.196 35.1299C322.142 35.1835 322.079 35.226 322.009 35.2551C321.939 35.2841 321.864 35.299 321.789 35.299H318.465C318.39 35.299 318.315 35.2841 318.245 35.2551C318.175 35.226 318.112 35.1835 318.058 35.1299C318.005 35.0763 317.963 35.0127 317.934 34.9427C317.905 34.8728 317.891 34.7978 317.891 34.7222V32.684C317.709 32.9062 317.515 33.1177 317.309 33.3177C316.551 34.0657 315.654 34.6572 314.668 35.0585C313.689 35.4436 312.645 35.6385 311.593 35.6327C310.22 35.6637 308.862 35.3346 307.656 34.6782C306.552 34.054 305.653 33.1221 305.069 31.996C304.441 30.7538 304.127 29.3761 304.156 27.9842V16.3059C304.156 16.1529 304.217 16.0062 304.325 15.898C304.433 15.7898 304.58 15.7291 304.733 15.7291H308.057C308.206 15.7317 308.348 15.7924 308.453 15.8981C308.559 16.0038 308.619 16.1464 308.621 16.2955V27.4177C308.604 28.1581 308.76 28.8922 309.076 29.562C309.349 30.137 309.782 30.621 310.323 30.9562C310.888 31.2892 311.534 31.4576 312.19 31.4424C312.997 31.4487 313.792 31.2493 314.5 30.8631C315.279 30.4124 315.94 29.7851 316.432 29.0318C316.88 28.3709 317.261 27.6674 317.57 26.9315V16.3059C317.57 16.1533 317.631 16.007 317.738 15.8989C317.846 15.7908 317.992 15.7297 318.144 15.7291ZM453.375 19.8185V15.874C453.376 15.825 453.366 15.7764 453.347 15.7312C453.329 15.6859 453.301 15.645 453.266 15.6107C453.231 15.5764 453.189 15.5495 453.144 15.5316C453.098 15.5138 453.049 15.5053 453 15.5067C452.819 15.5067 452.643 15.5067 452.483 15.53C449.71 15.7446 447.827 17.5164 446.764 20.0176V16.0912C446.764 15.9938 446.725 15.9004 446.656 15.8315C446.588 15.7626 446.494 15.7239 446.397 15.7239H442.657C442.559 15.7239 442.466 15.7626 442.397 15.8315C442.328 15.9004 442.289 15.9938 442.289 16.0912V34.9344C442.289 35.0318 442.328 35.1252 442.397 35.1941C442.466 35.263 442.559 35.3017 442.657 35.3017H446.397C446.494 35.3017 446.588 35.263 446.656 35.1941C446.725 35.1252 446.764 35.0318 446.764 34.9344V26.5254C447.074 22.4982 449.294 20.3694 452.455 20.103C452.682 20.0823 452.915 20.072 453.153 20.072C453.217 20.0709 453.28 20.0491 453.331 20.0099C453.371 19.9543 453.386 19.8856 453.375 19.8185ZM434.93 15.7293H438.572C438.723 15.732 438.868 15.794 438.973 15.9018C439.079 16.0097 439.139 16.1549 439.139 16.3061V34.7121C439.139 34.865 439.078 35.0118 438.97 35.1199C438.862 35.2281 438.715 35.2889 438.562 35.2889H435.238C435.086 35.2882 434.94 35.2271 434.832 35.119C434.724 35.0109 434.664 34.8646 434.664 34.7121V32.6739C434.484 32.8966 434.29 33.1082 434.085 33.3076C433.327 34.055 432.429 34.6465 431.444 35.0483C430.463 35.4334 429.419 35.6283 428.366 35.6225C426.993 35.6535 425.635 35.3245 424.429 34.6681C423.325 34.0432 422.427 33.1114 421.842 31.9858C421.215 30.7434 420.902 29.3657 420.932 27.9741V16.2957C420.932 16.1432 420.992 15.9969 421.1 15.8888C421.208 15.7807 421.354 15.7196 421.506 15.7189H424.83C424.983 15.7189 425.13 15.7797 425.238 15.8879C425.346 15.996 425.407 16.1428 425.407 16.2957V27.418C425.391 28.158 425.546 28.8918 425.859 29.5622C426.134 30.1361 426.566 30.6198 427.106 30.9564C427.672 31.289 428.32 31.4573 428.976 31.4427C429.783 31.4486 430.578 31.2492 431.286 30.8633C432.064 30.4125 432.725 29.7852 433.215 29.032C433.663 28.3712 434.044 27.6676 434.354 26.9317V16.3061C434.354 16.1531 434.414 16.0064 434.523 15.8982C434.631 15.7901 434.777 15.7293 434.93 15.7293ZM371.521 16.5593C369.898 15.7579 368.112 15.3409 366.302 15.3409C364.492 15.3409 362.707 15.7579 361.084 16.5593C359.612 17.3596 358.419 18.5894 357.664 20.0848C356.889 21.6057 356.482 23.4293 356.482 25.5166C356.482 27.604 356.881 29.4197 357.664 30.9484C358.422 32.4364 359.614 33.6594 361.081 34.4558C362.704 35.2573 364.49 35.6742 366.3 35.6742C368.11 35.6742 369.895 35.2573 371.518 34.4558C372.988 33.6556 374.18 32.4268 374.935 30.9329C375.711 29.4094 376.117 27.5859 376.117 25.5011C376.117 23.4163 375.719 21.598 374.935 20.0693C374.178 18.5808 372.988 17.3569 371.521 16.5593ZM369.151 31.1786C368.299 31.7098 367.31 31.9796 366.306 31.9546C365.295 31.9775 364.299 31.7081 363.438 31.1786C362.612 30.639 361.967 29.8642 361.586 28.9542C361.133 27.8631 360.913 26.6897 360.939 25.5089C360.913 24.3271 361.133 23.1529 361.586 22.061C361.966 21.1513 362.611 20.3772 363.438 19.8391C364.299 19.3085 365.295 19.039 366.306 19.0631C367.31 19.0393 368.299 19.309 369.151 19.8391C369.969 20.3834 370.608 21.1573 370.988 22.0635C371.44 23.1557 371.66 24.3298 371.635 25.5114C371.66 26.6923 371.44 27.8656 370.988 28.9567C370.609 29.8625 369.97 30.6356 369.151 31.1786ZM459.984 15.7083H456.629C456.326 15.7083 456.081 15.9538 456.081 16.2567V34.7506C456.081 35.0534 456.326 35.299 456.629 35.299H459.984C460.287 35.299 460.532 35.0534 460.532 34.7506V16.2567C460.532 15.9538 460.287 15.7083 459.984 15.7083ZM338.128 21.0884V34.5644L338.115 34.7533C338.115 34.8253 338.129 34.8966 338.157 34.9631C338.185 35.0296 338.225 35.0901 338.276 35.141C338.327 35.1919 338.387 35.2323 338.454 35.2599C338.52 35.2874 338.592 35.3016 338.664 35.3016H342.463C342.466 35.3016 342.47 35.3016 342.473 35.3015H342.489C342.561 35.3015 342.632 35.2873 342.699 35.2597C342.765 35.2321 342.825 35.1917 342.876 35.1408C342.927 35.0898 342.967 35.0293 342.994 34.9628C343.021 34.8963 343.035 34.8251 343.035 34.7532V21.111C343.462 20.585 343.983 20.1414 344.571 19.8029C345.28 19.4238 346.072 19.2282 346.876 19.2339C347.528 19.2194 348.172 19.385 348.736 19.7124C349.274 20.042 349.706 20.5197 349.98 21.0884C350.293 21.7491 350.447 22.4736 350.43 23.2042V34.7533C350.43 34.8253 350.444 34.8966 350.472 34.9631C350.499 35.0296 350.54 35.0901 350.591 35.141C350.641 35.1919 350.702 35.2323 350.768 35.2599C350.835 35.2874 350.906 35.3016 350.978 35.3016H354.341C354.486 35.3016 354.626 35.2438 354.729 35.141C354.831 35.0382 354.889 34.8987 354.889 34.7533V22.9611C354.919 21.5895 354.614 20.2314 354.002 19.0037C353.435 17.8948 352.558 16.9746 351.478 16.355C350.307 15.7102 348.988 15.3863 347.652 15.4161C346.619 15.4033 345.595 15.5987 344.639 15.9907C343.684 16.3827 342.817 16.9631 342.091 17.6975C341.933 17.8589 341.788 18.0318 341.656 18.2148C341.119 17.4535 340.421 16.8188 339.613 16.355C339.325 16.1914 339.025 16.0496 338.715 15.9308C337.78 15.5774 336.787 15.4019 335.787 15.4135C334.755 15.4005 333.731 15.5958 332.776 15.9878C331.821 16.3798 330.954 16.9604 330.229 17.6949C330.028 17.9007 329.844 18.123 329.681 18.3596V16.2723C329.681 16.1273 329.623 15.9882 329.521 15.8854C329.419 15.7827 329.28 15.7246 329.135 15.7239H325.581C325.435 15.7239 325.296 15.7817 325.193 15.8845C325.09 15.9873 325.032 16.1268 325.032 16.2723V34.7558C325.032 34.9013 325.09 35.0407 325.193 35.1436C325.296 35.2464 325.435 35.3042 325.581 35.3042H329.117C329.262 35.3042 329.402 35.2464 329.504 35.1436C329.607 35.0407 329.665 34.9013 329.665 34.7558V23.7448C329.664 23.7101 329.671 23.6756 329.686 23.644C329.99 22.9329 330.363 22.2529 330.798 21.6135C331.29 20.8685 331.949 20.2486 332.722 19.8029C333.43 19.4238 334.222 19.2282 335.024 19.2339C335.677 19.2194 336.322 19.3849 336.887 19.7124C337.424 20.0428 337.855 20.5204 338.128 21.0884ZM342.909 21.2727C342.895 21.2913 342.881 21.3101 342.867 21.329C342.87 21.3491 342.874 21.3692 342.877 21.3893L342.909 21.2727ZM303.308 10.5974H283.65C283.542 10.5974 283.439 10.6401 283.363 10.7163C283.287 10.7924 283.244 10.8957 283.244 11.0034V14.4824C283.244 14.533 283.254 14.5831 283.273 14.6299C283.293 14.6766 283.321 14.7191 283.357 14.7549C283.393 14.7907 283.435 14.8191 283.482 14.8384C283.529 14.8578 283.579 14.8678 283.629 14.8678H290.468C290.546 14.8674 290.623 14.8825 290.695 14.9122C290.767 14.9418 290.833 14.9854 290.888 15.0405C290.943 15.0956 290.986 15.161 291.016 15.233C291.046 15.305 291.061 15.3822 291.061 15.4601V34.8955C291.061 35.0032 291.103 35.1065 291.179 35.1827C291.256 35.2588 291.359 35.3016 291.467 35.3016H295.473C295.584 35.3009 295.69 35.2565 295.768 35.178C295.846 35.0995 295.89 34.9933 295.89 34.8826L295.959 15.4575C295.961 15.3006 296.024 15.1506 296.136 15.0402C296.247 14.9297 296.397 14.8678 296.554 14.8678H303.318C303.42 14.8678 303.518 14.8272 303.591 14.7549C303.663 14.6826 303.704 14.5846 303.704 14.4824V11.0034C303.704 10.8975 303.662 10.7958 303.588 10.7199C303.514 10.644 303.414 10.6001 303.308 10.5974ZM410.001 10.5974C411.649 10.5627 413.285 10.8922 414.792 11.5622C416.111 12.1564 417.223 13.1308 417.986 14.3608C418.744 15.6493 419.126 17.124 419.09 18.6183C419.123 20.1149 418.731 21.59 417.96 22.8732C417.176 24.1107 416.044 25.0895 414.706 25.6874C413.148 26.3718 411.459 26.7072 409.758 26.6703H406.083C406.025 26.6703 405.968 26.6817 405.914 26.7038C405.861 26.7259 405.812 26.7583 405.772 26.7991C405.731 26.8399 405.698 26.8884 405.676 26.9417C405.654 26.9951 405.643 27.0523 405.643 27.11V34.8852C405.642 34.9955 405.598 35.101 405.52 35.1789C405.442 35.2569 405.337 35.301 405.226 35.3017H401.287C401.177 35.301 401.071 35.2569 400.993 35.1789C400.915 35.101 400.871 34.9955 400.871 34.8852V11.0138C400.871 10.9034 400.914 10.7975 400.993 10.7194C401.071 10.6413 401.177 10.5974 401.287 10.5974H410.001ZM412.158 22.1981C412.805 21.8874 413.345 21.3925 413.71 20.7755C414.089 20.1066 414.279 19.3478 414.261 18.5795C414.279 17.8368 414.1 17.1026 413.744 16.4508C413.4 15.8559 412.889 15.3748 412.275 15.067C411.569 14.7187 410.79 14.5465 410.004 14.5652H406.238C406.081 14.5652 405.93 14.6276 405.819 14.7387C405.708 14.8497 405.645 15.0004 405.645 15.1575V22.1076C405.645 22.1853 405.661 22.2622 405.691 22.3339C405.72 22.4056 405.764 22.4707 405.819 22.5255C405.874 22.5803 405.939 22.6237 406.011 22.6532C406.083 22.6827 406.16 22.6977 406.238 22.6973H409.761C410.587 22.7156 411.408 22.5449 412.158 22.1981ZM480.857 43.4493C480.626 43.4486 480.404 43.3562 480.241 43.1923C480.078 43.0284 479.986 42.8064 479.986 42.575V39.8824C479.986 39.651 480.078 39.429 480.241 39.2651C480.404 39.1012 480.626 39.0088 480.857 39.0081H483.63C484.103 39.0193 484.57 38.9041 484.983 38.6745C485.409 38.4156 485.77 38.0615 486.036 37.6398C486.437 37.0096 486.783 36.3458 487.07 35.656L487.438 34.7688L480.045 16.9447C479.989 16.8126 479.967 16.6688 479.979 16.5258C479.992 16.3829 480.04 16.2453 480.118 16.1252C480.197 16.005 480.303 15.906 480.429 15.837C480.555 15.7679 480.696 15.7308 480.839 15.7291H484.476C484.649 15.7293 484.818 15.7807 484.962 15.877C485.105 15.9732 485.217 16.1098 485.283 16.2697L490.179 28.1084L495.065 16.2697C495.131 16.1096 495.243 15.9728 495.387 15.8765C495.53 15.7803 495.699 15.7289 495.872 15.7291H499.47C499.614 15.7295 499.755 15.7653 499.882 15.8334C500.009 15.9015 500.116 15.9998 500.196 16.1194C500.275 16.2391 500.324 16.3766 500.338 16.5196C500.352 16.6627 500.33 16.8069 500.275 16.9396L491.522 37.8545C491.066 39.0494 490.417 40.1609 489.6 41.1446C488.932 41.9156 488.093 42.5198 487.151 42.9087C486.137 43.2882 485.061 43.4717 483.979 43.4493H480.857Z" fill="#00C9EA"/>
</g>
<defs>
<clipPath id="clip0_9078_100876">
<rect width="501" height="44" fill="white"/>
</clipPath>
</defs>
</svg>
