<svg width="402" height="40" viewBox="0 0 402 40" fill="none" xmlns="http://www.w3.org/2000/svg">
<g clip-path="url(#clip0_9065_87452)">
<path d="M20 0C16.0444 0 12.1776 1.17298 8.8886 3.37061C5.59962 5.56824 3.03617 8.69181 1.52242 12.3463C0.0086657 16.0009 -0.387401 20.0222 0.384303 23.9018C1.15601 27.7814 3.06082 31.3451 5.85787 34.1421C8.65492 36.9392 12.2186 38.844 16.0982 39.6157C19.9778 40.3874 23.9992 39.9913 27.6537 38.4776C31.3082 36.9638 34.4318 34.4004 36.6294 31.1114C38.827 27.8224 40 23.9556 40 20C40 14.6957 37.8929 9.60859 34.1421 5.85786C30.3914 2.10714 25.3043 0 20 0ZM26.0106 18.6629C24.0815 18.6864 22.238 19.4631 20.8739 20.8273C19.5097 22.1915 18.7329 24.035 18.7094 25.964C18.7094 25.9951 18.7094 26.0261 18.7094 26.0572C18.7094 26.9907 18.4326 27.9033 17.914 28.6795C17.3953 29.4557 16.6582 30.0606 15.7957 30.4179C14.9332 30.7751 13.9842 30.8686 13.0686 30.6865C12.153 30.5044 11.3119 30.0548 10.6518 29.3947C9.99173 28.7346 9.54219 27.8936 9.36007 26.978C9.17794 26.0624 9.27142 25.1134 9.62866 24.2509C9.98591 23.3884 10.5909 22.6512 11.3671 22.1326C12.1433 21.6139 13.0559 21.3371 13.9894 21.3371C14.9529 21.3368 15.9068 21.1459 16.7962 20.7753C17.6856 20.4047 18.4929 19.8618 19.1716 19.1778C19.8502 18.4939 20.3869 17.6824 20.7505 16.7902C21.1142 15.8979 21.2977 14.9425 21.2906 13.979V13.9428C21.2906 13.0093 21.5674 12.0967 22.0861 11.3205C22.6047 10.5443 23.3419 9.93935 24.2043 9.5821C25.0668 9.22485 26.0159 9.13138 26.9314 9.31351C27.847 9.49563 28.6881 9.94517 29.3482 10.6053C30.0083 11.2654 30.4578 12.1064 30.6399 13.022C30.8221 13.9376 30.7286 14.8866 30.3714 15.7491C30.0141 16.6116 29.4091 17.3488 28.6329 17.8674C27.8567 18.386 26.9441 18.6629 26.0106 18.6629Z" fill="#00C9EA"/>
<path fill-rule="evenodd" clip-rule="evenodd" d="M57.9593 30.5186H72.4013C72.5081 30.5206 72.6097 30.5647 72.6843 30.6411C72.7589 30.7176 72.8003 30.8204 72.7996 30.9272V34.9696C72.7989 35.0771 72.7559 35.18 72.6799 35.256C72.6039 35.332 72.501 35.375 72.3935 35.3757H56.0997C54.7154 35.3736 53.3884 34.8228 52.4096 33.844C51.4308 32.8652 50.88 31.5382 50.8779 30.1539V3.95451C50.8779 3.84682 50.9207 3.74354 50.9969 3.66739C51.073 3.59124 51.1763 3.54846 51.284 3.54846H55.7428C55.8505 3.54846 55.9538 3.59124 56.0299 3.66739C56.1061 3.74354 56.1488 3.84682 56.1488 3.95451V28.7082C56.1549 29.1864 56.3476 29.6434 56.6858 29.9817C57.024 30.3199 57.481 30.5126 57.9593 30.5186ZM125.335 5.77271H129.422C129.646 5.77271 129.828 5.9545 129.828 6.17876V10.2651C129.828 10.4894 129.646 10.6712 129.422 10.6712H125.335C125.111 10.6712 124.929 10.4894 124.929 10.2651V6.17876C124.929 5.9545 125.111 5.77271 125.335 5.77271ZM397.416 9.12716H400.74C400.816 9.12648 400.891 9.14089 400.962 9.16957C401.033 9.19825 401.097 9.24062 401.151 9.29425C401.205 9.34787 401.248 9.41168 401.277 9.48199C401.307 9.55231 401.322 9.62773 401.322 9.70391V34.7602C401.322 34.8358 401.307 34.9107 401.278 34.9805C401.249 35.0503 401.206 35.1137 401.153 35.1671C401.099 35.2204 401.035 35.2627 400.965 35.2914C400.895 35.3201 400.82 35.3347 400.745 35.3343H397.421C397.346 35.3347 397.271 35.32 397.201 35.2913C397.132 35.2626 397.068 35.2203 397.015 35.1669C396.961 35.1135 396.919 35.0501 396.89 34.9803C396.862 34.9105 396.847 34.8357 396.847 34.7602V33.2084C396.193 33.9309 395.402 34.5164 394.52 34.9309C393.226 35.5324 391.802 35.7971 390.379 35.7004C388.956 35.6036 387.58 35.1485 386.38 34.3774C385.024 33.4592 383.943 32.1886 383.254 30.7022C382.492 29.0601 382.11 27.2673 382.136 25.4572C382.109 23.6479 382.491 21.8558 383.254 20.2147C383.943 18.7276 385.024 17.4562 386.38 16.537C387.738 15.6415 389.333 15.1747 390.958 15.1972C391.777 15.193 392.593 15.3071 393.379 15.5361C394.125 15.7577 394.834 16.0898 395.482 16.5214C395.981 16.8549 396.438 17.2484 396.842 17.693V9.70391C396.842 9.62829 396.856 9.55335 396.885 9.48339C396.914 9.41343 396.956 9.34983 397.009 9.29624C397.063 9.24265 397.126 9.20013 397.196 9.17111C397.266 9.14209 397.341 9.12716 397.416 9.12716ZM396.842 28.3435V22.8346L396.819 22.7105C396.568 22.0284 396.196 21.3968 395.722 20.8458C395.25 20.3056 394.669 19.8704 394.018 19.5681C393.357 19.2614 392.636 19.1042 391.907 19.1078C390.92 19.0929 389.951 19.3838 389.135 19.9406C388.307 20.5247 387.652 21.3218 387.239 22.2476C386.785 23.3026 386.551 24.4392 386.551 25.5878C386.551 26.7364 386.785 27.8729 387.239 28.928C387.65 29.8546 388.306 30.6521 389.135 31.235C389.951 31.793 390.919 32.084 391.907 32.0678C392.993 32.0826 394.053 31.7359 394.921 31.0824C395.793 30.4119 396.453 29.5027 396.819 28.4651L396.842 28.3435ZM342.428 16.6068C340.805 15.8055 339.019 15.3888 337.209 15.3888C335.399 15.3888 333.613 15.8055 331.99 16.6068C330.52 17.408 329.328 18.6374 328.574 20.1319C327.798 21.6527 327.392 23.476 327.392 25.5632C327.392 27.6504 327.79 29.466 328.574 30.9945C329.329 32.4877 330.521 33.7162 331.99 34.517C333.613 35.3183 335.399 35.7351 337.209 35.7351C339.019 35.7351 340.805 35.3183 342.428 34.517C343.899 33.717 345.09 32.4883 345.845 30.9945C346.621 29.4711 347.027 27.6478 347.027 25.5632C347.027 23.4786 346.629 21.6605 345.845 20.1319C345.089 18.6384 343.898 17.4093 342.428 16.6068ZM340.059 31.2247C339.207 31.7558 338.218 32.0256 337.214 32.0006C336.204 32.0235 335.208 31.7541 334.346 31.2247C333.52 30.6851 332.875 29.9103 332.494 29.0004C332.042 27.9095 331.822 26.7362 331.848 25.5555C331.822 24.3738 332.042 23.1997 332.494 22.1079C332.875 21.1983 333.52 20.4243 334.346 19.8862C335.207 19.3557 336.203 19.0862 337.214 19.1103C338.218 19.0875 339.206 19.357 340.059 19.8862C340.877 20.4313 341.515 21.2048 341.896 22.1105C342.347 23.2028 342.567 24.3766 342.542 25.558C342.567 26.7387 342.347 27.9116 341.896 29.003C341.512 29.9099 340.869 30.6829 340.046 31.2247H340.059ZM354.191 15.9576C355.422 15.7165 356.674 15.5995 357.928 15.6084C360.913 15.6084 363.142 16.3818 364.531 17.7887C366.003 19.1879 366.683 21.2518 366.683 23.7941V34.9515C366.683 35.0654 366.638 35.1746 366.557 35.2551C366.477 35.3356 366.368 35.3809 366.254 35.3809H362.656C362.542 35.3809 362.433 35.3356 362.353 35.2551C362.272 35.1746 362.227 35.0654 362.227 34.9515V32.8825L362.118 33.0014C360.758 34.53 358.709 35.7197 355.727 35.7197C355.12 35.7175 354.514 35.6577 353.917 35.5412C350.984 34.9645 348.675 32.9678 348.675 29.7168V29.6418C348.675 25.4494 352.037 23.3803 356.912 23.3803C358.656 23.3656 360.393 23.6177 362.061 24.1278L362.271 24.1899V23.7114V23.6338C362.271 23.1412 362.198 22.6513 362.054 22.1803C361.495 20.4087 359.878 19.475 357.326 19.475C356.618 19.4736 355.912 19.5281 355.213 19.6379C354.125 19.8171 353.06 20.1146 352.037 20.525C351.983 20.5464 351.925 20.5566 351.867 20.5551C351.809 20.5535 351.752 20.5403 351.7 20.5161C351.647 20.492 351.6 20.4574 351.561 20.4145C351.522 20.3715 351.492 20.3212 351.473 20.2664L350.741 18.1482L350.542 17.5689C350.506 17.4664 350.51 17.354 350.553 17.2545C350.597 17.1551 350.677 17.076 350.777 17.0335C351.877 16.562 353.02 16.2016 354.191 15.9576ZM362.343 28.315V27.0684L362.367 26.9908C362.304 26.9657 362.237 26.9431 362.171 26.9204C362.141 26.9104 362.111 26.9003 362.082 26.89C360.712 26.4335 359.277 26.2063 357.833 26.2175C354.887 26.2175 353.149 27.4331 353.149 29.4582V29.5306C353.149 31.4109 354.835 32.479 357.028 32.479C359.426 32.479 361.366 31.4083 362.069 29.7375C362.234 29.3415 362.326 28.9194 362.343 28.4909V28.315ZM381.128 16.0533V20C381.131 20.0341 381.128 20.0686 381.118 20.1014C381.109 20.1343 381.092 20.1649 381.071 20.1914C381.018 20.2292 380.955 20.2508 380.89 20.2535C380.654 20.2535 380.421 20.2638 380.194 20.2819C377.031 20.5509 374.814 22.6769 374.504 26.7038V35.024C374.504 35.1214 374.465 35.2148 374.396 35.2836C374.328 35.3525 374.234 35.3912 374.137 35.3912H370.578C370.481 35.3912 370.387 35.3525 370.318 35.2836C370.249 35.2148 370.211 35.1214 370.211 35.024V16.4025C370.211 16.3053 370.25 16.2123 370.319 16.1435C370.388 16.0748 370.481 16.0359 370.578 16.0352H374.137C374.233 16.0358 374.324 16.0737 374.393 16.1407C374.461 16.2078 374.501 16.2989 374.504 16.3947V20.1992C375.564 17.6982 377.447 15.924 380.22 15.7119C380.393 15.6861 380.569 15.6861 380.75 15.6861C380.799 15.685 380.848 15.6937 380.893 15.7117C380.939 15.7297 380.98 15.7565 381.016 15.7907C381.051 15.8249 381.079 15.8657 381.098 15.9108C381.117 15.9558 381.127 16.0043 381.128 16.0533ZM324.935 25.6848C324.566 24.8823 324.02 24.1746 323.336 23.6157C322.805 23.179 322.208 22.8298 321.567 22.5812C321.549 22.5757 321.534 22.5648 321.523 22.5499C321.512 22.535 321.505 22.517 321.505 22.4984C321.504 22.4786 321.509 22.4588 321.52 22.4421C321.53 22.4253 321.546 22.4124 321.565 22.4053C322.081 22.165 322.557 21.8466 322.977 21.4613C323.558 20.9284 324.023 20.2813 324.342 19.5604C324.743 18.6174 324.899 17.5884 324.795 16.5691C324.691 15.5498 324.33 14.5734 323.748 13.7308C322.968 12.7032 321.912 11.9191 320.703 11.4703C319.234 10.9239 317.675 10.6606 316.108 10.6945H306.851C306.7 10.6951 306.555 10.7556 306.448 10.8626C306.341 10.9697 306.28 11.1146 306.28 11.266V34.8015C306.28 34.9529 306.341 35.0979 306.448 35.2049C306.555 35.312 306.7 35.3724 306.851 35.3731H316.7C318.286 35.4053 319.863 35.1158 321.335 34.5222C322.578 34.0211 323.646 33.1636 324.404 32.0574C325.131 30.9428 325.505 29.635 325.478 28.3047C325.487 27.4025 325.302 26.5089 324.935 25.6848ZM320.021 17.7241C320.037 18.3083 319.874 18.8837 319.554 19.3725C319.233 19.8613 318.771 20.2401 318.228 20.4578C317.564 20.7322 316.849 20.8643 316.131 20.8458H311.113C311.101 20.8458 311.089 20.8433 311.077 20.8384C311.066 20.8336 311.055 20.8265 311.047 20.8176C311.038 20.8087 311.031 20.7981 311.027 20.7865C311.022 20.7749 311.02 20.7625 311.02 20.7501V14.7679C311.02 14.743 311.03 14.719 311.047 14.7011C311.065 14.6833 311.088 14.6729 311.113 14.6722H316.131C316.85 14.6557 317.565 14.7878 318.231 15.0602C318.765 15.2823 319.225 15.6508 319.558 16.1231C319.868 16.598 320.026 17.1569 320.008 17.7241H320.021ZM311.02 24.9244C311.02 24.8994 311.03 24.8755 311.047 24.8576C311.065 24.8397 311.088 24.8294 311.113 24.8287H316.374C317.152 24.8097 317.926 24.9478 318.65 25.2347C319.233 25.4708 319.737 25.8694 320.101 26.3831C320.448 26.8963 320.629 27.5041 320.618 28.1237C320.628 28.7291 320.461 29.3242 320.137 29.8358C319.802 30.3461 319.322 30.745 318.759 30.9815C318.083 31.2635 317.356 31.4009 316.625 31.385H311.119C311.094 31.385 311.07 31.3752 311.053 31.3577C311.035 31.3403 311.025 31.3166 311.025 31.2919L311.02 24.9244ZM95.761 13.5394H91.6746C91.5669 13.5394 91.4636 13.5822 91.3875 13.6583C91.3113 13.7345 91.2685 13.8378 91.2685 13.9455V27.1021C91.275 27.7086 91.0681 28.2982 90.684 28.7676C90.1077 29.4618 89.4364 30.0713 88.69 30.5781C87.675 31.2641 86.4752 31.625 85.2502 31.6126C83.5975 31.6126 82.3173 31.1807 81.4483 30.3194C80.5793 29.4582 80.137 28.1495 80.137 26.4063V13.9455C80.1374 13.8923 80.1272 13.8395 80.107 13.7903C80.0869 13.741 80.0573 13.6962 80.0198 13.6585C79.9823 13.6208 79.9377 13.5908 79.8885 13.5704C79.8394 13.5499 79.7868 13.5394 79.7335 13.5394H75.6446C75.5369 13.5394 75.4336 13.5822 75.3575 13.6583C75.2813 13.7345 75.2385 13.8378 75.2385 13.9455V27.0452C75.2385 29.7013 76.0429 31.8764 77.6283 33.511C79.2137 35.1455 81.4431 35.9705 84.2493 35.9705C85.7608 35.9821 87.2526 35.6271 88.5969 34.936C89.827 34.3188 90.921 33.4614 91.8142 32.4144V34.9696C91.8149 35.0771 91.8579 35.18 91.9339 35.256C92.0099 35.332 92.1128 35.375 92.2203 35.3757H95.7635C95.8712 35.3757 95.9745 35.3329 96.0507 35.2568C96.1268 35.1806 96.1696 35.0773 96.1696 34.9696V13.9455C96.1696 13.8919 96.159 13.8389 96.1384 13.7895C96.1179 13.74 96.0877 13.6952 96.0498 13.6574C96.0118 13.6197 95.9667 13.5898 95.9171 13.5696C95.8676 13.5493 95.8145 13.5391 95.761 13.5394ZM112.047 12.9471C113.689 12.9131 115.312 13.3052 116.757 14.0851C118.087 14.8196 119.18 15.9176 119.91 17.2508C120.668 18.6696 121.053 20.2585 121.027 21.8674V34.9671C121.026 35.0745 120.983 35.1774 120.907 35.2534C120.831 35.3294 120.728 35.3724 120.621 35.3731H116.532C116.424 35.3724 116.321 35.3294 116.245 35.2534C116.169 35.1774 116.126 35.0745 116.126 34.9671V22.501C116.126 20.8225 115.647 19.5319 114.716 18.6448C113.785 17.7577 112.554 17.3103 111.054 17.3103C109.829 17.2964 108.629 17.6574 107.614 18.3448C106.89 18.8338 106.232 19.4145 105.656 20.0724C105.228 20.5605 104.991 21.1871 104.989 21.8363V34.9696C104.989 35.0773 104.946 35.1806 104.87 35.2568C104.794 35.3329 104.691 35.3757 104.583 35.3757H100.497C100.389 35.3757 100.286 35.3329 100.21 35.2568C100.133 35.1806 100.091 35.0773 100.091 34.9696V13.9429C100.091 13.8363 100.133 13.7341 100.208 13.6585C100.283 13.5829 100.385 13.5401 100.491 13.5394H104.081C104.189 13.5394 104.291 13.5818 104.367 13.6574C104.444 13.733 104.487 13.8356 104.487 13.9429V16.4982C105.381 15.4536 106.474 14.598 107.702 13.9817C109.046 13.292 110.537 12.9371 112.047 12.9471ZM129.422 13.5394H125.335C125.111 13.5394 124.929 13.7212 124.929 13.9454V34.9696C124.929 35.1939 125.111 35.3757 125.335 35.3757H129.422C129.646 35.3757 129.828 35.1939 129.828 34.9696V13.9454C129.828 13.7212 129.646 13.5394 129.422 13.5394ZM149.445 13.5394H142.506C142.356 13.5387 142.212 13.4788 142.106 13.3728C142 13.2667 141.94 13.123 141.94 12.973V6.72445C141.94 6.67091 141.929 6.61789 141.908 6.56846C141.888 6.51903 141.858 6.47415 141.82 6.43641C141.782 6.39867 141.737 6.36881 141.687 6.34856C141.638 6.32831 141.585 6.31806 141.531 6.3184C141.478 6.31866 141.425 6.32955 141.376 6.35043C141.328 6.3713 141.283 6.40174 141.247 6.43995L137.207 10.5005C137.169 10.5378 137.138 10.5825 137.118 10.6318C137.097 10.6812 137.087 10.7342 137.088 10.7876V12.9989C137.08 13.1436 137.018 13.2801 136.913 13.3802C136.808 13.4803 136.669 13.5363 136.524 13.5368H133.596C133.489 13.5382 133.387 13.5816 133.312 13.6576C133.237 13.7336 133.195 13.8361 133.195 13.9429V17.4422C133.197 17.5483 133.239 17.6498 133.314 17.7251C133.389 17.8004 133.49 17.8436 133.596 17.8456H136.656C136.775 17.8724 136.883 17.9373 136.962 18.0307C137.042 18.124 137.088 18.2406 137.095 18.3629V28.7082C137.095 31.1264 137.794 32.9497 139.165 34.1394C140.535 35.3291 142.369 35.9136 144.596 35.9136H149.432C149.486 35.9136 149.538 35.9031 149.588 35.8827C149.637 35.8623 149.682 35.8324 149.719 35.7947C149.757 35.757 149.787 35.7122 149.807 35.663C149.828 35.6137 149.838 35.5609 149.838 35.5076V31.7186C149.838 31.6653 149.828 31.6125 149.807 31.5632C149.787 31.514 149.757 31.4692 149.719 31.4315C149.682 31.3938 149.637 31.3639 149.588 31.3435C149.538 31.3231 149.486 31.3126 149.432 31.3126H146.062C143.662 31.3126 142.871 30.591 142.863 30.5832C142.214 30.0117 141.95 29.2099 141.95 27.8159V18.4094C141.95 18.2612 142.008 18.119 142.112 18.0135C142.216 17.908 142.358 17.8477 142.506 17.8456H149.45C149.558 17.8449 149.661 17.8019 149.737 17.7259C149.813 17.6499 149.856 17.547 149.856 17.4396V13.9429C149.856 13.8893 149.845 13.8364 149.824 13.7871C149.803 13.7378 149.773 13.6931 149.735 13.6556C149.696 13.6181 149.651 13.5885 149.602 13.5686C149.552 13.5486 149.499 13.5387 149.445 13.5394ZM210.751 22.0458C211.648 22.3977 212.493 22.8701 213.263 23.4502C213.993 24.003 214.598 24.7047 215.037 25.5089C215.494 26.3862 215.722 27.3649 215.699 28.3538C215.727 29.7429 215.305 31.1037 214.496 32.2333C213.603 33.4043 212.399 34.3005 211.02 34.8196C209.528 35.4326 207.7 35.743 205.589 35.743C203.76 35.781 201.94 35.4785 200.222 34.8507C198.803 34.3311 197.56 33.42 196.638 32.223C195.828 31.1017 195.352 29.7734 195.267 28.3926C195.262 28.3255 195.271 28.258 195.295 28.195C195.319 28.132 195.356 28.0749 195.404 28.028C195.508 27.926 195.649 27.8693 195.795 27.8702H199.832C199.953 27.8679 200.072 27.9083 200.166 27.9844C200.261 28.0606 200.326 28.1675 200.349 28.2866C200.43 28.9195 200.694 29.5153 201.107 30.0013C201.606 30.554 202.241 30.9667 202.948 31.1988C203.782 31.4748 204.656 31.6102 205.535 31.5997C206.43 31.6164 207.321 31.4754 208.168 31.1833C208.837 30.9546 209.436 30.5584 209.908 30.0324C210.316 29.5613 210.54 28.9588 210.539 28.3357C210.549 27.8029 210.352 27.2868 209.991 26.8952C209.551 26.4568 209.022 26.1188 208.439 25.9046C207.651 25.598 206.841 25.3499 206.016 25.1623L203.044 24.4511C200.879 23.9312 199.157 23.1502 197.872 22.0665C196.586 20.9828 195.934 19.5293 195.934 17.7396C195.911 16.3369 196.367 14.9682 197.228 13.8601C198.153 12.7117 199.363 11.8254 200.737 11.2893C202.326 10.661 204.023 10.3508 205.731 10.3763C207.431 10.3435 209.12 10.6541 210.697 11.2893C212.028 11.8262 213.194 12.7029 214.08 13.8317C214.819 14.8119 215.256 15.9868 215.337 17.212C215.341 17.2654 215.334 17.3192 215.316 17.3698C215.278 17.4757 215.208 17.5669 215.115 17.6306C215.022 17.6942 214.911 17.7269 214.799 17.7241H210.844C210.726 17.7274 210.61 17.6899 210.516 17.6178C210.422 17.5458 210.355 17.4436 210.327 17.3284C210.252 16.9163 210.091 16.5243 209.857 16.1771C209.622 15.8299 209.318 15.5351 208.964 15.311C208.126 14.7627 207.014 14.4834 205.664 14.4834C204.828 14.4654 203.996 14.6022 203.21 14.8869C202.614 15.0979 202.086 15.464 201.679 15.9473C201.336 16.3763 201.148 16.9086 201.146 17.4577C201.135 17.8858 201.255 18.3071 201.49 18.6655C201.74 19.0271 202.068 19.3284 202.449 19.5474C202.891 19.8052 203.359 20.015 203.846 20.1733C204.363 20.3417 204.887 20.4841 205.418 20.6001L207.87 21.1691C208.853 21.3812 209.817 21.6745 210.751 22.0458ZM249.215 22.1105H239.697C239.646 22.1104 239.596 22.1206 239.549 22.1403C239.502 22.16 239.459 22.1888 239.423 22.2251C239.387 22.2615 239.359 22.3046 239.34 22.3519C239.321 22.3993 239.311 22.4499 239.312 22.501V26.0856C239.312 26.1878 239.353 26.2858 239.425 26.3581C239.497 26.4304 239.595 26.471 239.697 26.471H245.056C244.976 27.2658 244.737 28.0363 244.353 28.7366C243.858 29.6222 243.113 30.342 242.211 30.8057C241.189 31.3139 240.058 31.5651 238.916 31.5376C237.618 31.5616 236.341 31.2076 235.241 30.5186C234.144 29.7866 233.285 28.7501 232.769 27.5366C232.179 26.2434 231.879 24.9063 231.879 23.026C231.83 21.4845 232.134 19.9522 232.769 18.5465C233.286 17.3406 234.142 16.3109 235.233 15.5826C236.302 14.9045 237.545 14.553 238.81 14.5713C239.51 14.5652 240.208 14.662 240.879 14.8584C241.486 15.0363 242.055 15.3219 242.561 15.7016C243.053 16.0774 243.48 16.5318 243.825 17.0464C244.156 17.5496 244.417 18.0951 244.601 18.6681C244.617 18.724 244.651 18.7731 244.698 18.8073C244.745 18.8416 244.802 18.859 244.86 18.8569H249.094C249.134 18.8579 249.174 18.8495 249.21 18.8325C249.246 18.8154 249.278 18.7901 249.303 18.7586C249.329 18.7289 249.348 18.6937 249.358 18.6556C249.369 18.6175 249.37 18.5775 249.363 18.5387C249.171 17.425 248.779 16.3552 248.206 15.3809C247.6 14.3563 246.811 13.4516 245.879 12.7118C244.911 11.9506 243.818 11.3634 242.648 10.9764C241.387 10.5628 240.066 10.3567 238.738 10.366C237.165 10.3524 235.605 10.6531 234.15 11.2505C232.753 11.8322 231.498 12.7072 230.469 13.8161C229.389 15.0015 228.561 16.3933 228.033 17.9077C227.429 19.564 227.134 21.3174 227.164 23.0803C227.164 25.7287 227.661 27.759 228.638 29.6858C229.557 31.5426 230.991 33.0958 232.769 34.1601C234.517 35.1946 236.578 35.7326 238.896 35.7326C240.823 35.7676 242.73 35.3298 244.449 34.4575C246.037 33.6257 247.355 32.3591 248.25 30.8057C249.169 29.2332 249.634 27.3426 249.634 25.1908V22.5268C249.634 22.472 249.623 22.4176 249.602 22.3669C249.581 22.3162 249.55 22.2702 249.511 22.2315C249.472 22.1928 249.426 22.1622 249.375 22.1414C249.324 22.1206 249.27 22.1101 249.215 22.1105ZM187.508 10.6712H191.553C191.661 10.6712 191.764 10.714 191.84 10.7901C191.916 10.8663 191.959 10.9695 191.959 11.0772V34.9593C191.959 35.0665 191.917 35.1694 191.841 35.2455C191.766 35.3216 191.663 35.3647 191.556 35.3653H187.467C187.39 35.365 187.315 35.3448 187.248 35.3067C187.181 35.2687 187.126 35.214 187.086 35.1481L174.84 18.3629V24.6813H174.814V34.9696C174.814 35.0773 174.772 35.1806 174.695 35.2568C174.619 35.3329 174.516 35.3757 174.408 35.3757H170.389C170.282 35.3757 170.178 35.3329 170.102 35.2568C170.026 35.1806 169.983 35.0773 169.983 34.9696V11.0772C169.983 10.9695 170.026 10.8663 170.102 10.7901C170.178 10.714 170.282 10.6712 170.389 10.6712H174.786C174.862 10.6712 174.937 10.6913 175.004 10.7294C175.07 10.7675 175.125 10.8224 175.164 10.8884L187.102 27.5728V23.0234V20.5664V11.0772C187.102 10.9695 187.145 10.8663 187.221 10.7901C187.297 10.714 187.4 10.6712 187.508 10.6712ZM274.512 10.6712H270.48C270.372 10.6712 270.269 10.7139 270.193 10.7901C270.116 10.8662 270.074 10.9695 270.074 11.0772V19.7466C270.074 19.8243 270.058 19.9014 270.029 19.9732C269.999 20.0451 269.955 20.1104 269.9 20.1654C269.845 20.2204 269.78 20.264 269.708 20.2937C269.636 20.3235 269.559 20.3388 269.481 20.3388H258.373C258.295 20.3388 258.218 20.3235 258.147 20.2937C258.075 20.264 258.009 20.2204 257.954 20.1654C257.899 20.1104 257.856 20.0451 257.826 19.9732C257.796 19.9014 257.781 19.8243 257.781 19.7466V11.0772C257.781 10.9695 257.738 10.8662 257.662 10.7901C257.586 10.7139 257.483 10.6712 257.375 10.6712H253.343C253.29 10.6715 253.237 10.6823 253.189 10.7029C253.14 10.7235 253.095 10.7535 253.058 10.7912C253.021 10.8289 252.992 10.8735 252.972 10.9226C252.952 10.9717 252.942 11.0242 252.942 11.0772V34.967C252.942 35.0202 252.952 35.073 252.972 35.1222C252.992 35.1715 253.022 35.2163 253.059 35.254C253.097 35.2917 253.141 35.3217 253.19 35.3421C253.239 35.3626 253.292 35.3731 253.345 35.3731H257.377C257.431 35.3731 257.484 35.3626 257.533 35.3422C257.582 35.3218 257.627 35.2919 257.665 35.2542C257.702 35.2165 257.732 35.1717 257.753 35.1224C257.773 35.0732 257.783 35.0204 257.783 34.967V25.1908C257.783 25.1131 257.798 25.0361 257.828 24.9643C257.857 24.8925 257.9 24.8271 257.955 24.7721C258.01 24.7171 258.075 24.6734 258.147 24.6436C258.219 24.6138 258.296 24.5985 258.373 24.5985H269.494C269.572 24.5981 269.649 24.6132 269.721 24.6429C269.793 24.6725 269.859 24.7161 269.914 24.7712C269.969 24.8263 270.013 24.8917 270.042 24.9637C270.072 25.0357 270.087 25.1129 270.087 25.1908V34.967C270.087 35.0747 270.129 35.178 270.206 35.2542C270.282 35.3303 270.385 35.3731 270.493 35.3731H274.525C274.632 35.3731 274.736 35.3303 274.812 35.2542C274.888 35.178 274.931 35.0747 274.931 34.967V11.0772C274.931 11.0228 274.92 10.9689 274.899 10.9188C274.877 10.8687 274.846 10.8233 274.807 10.7854C274.768 10.7475 274.722 10.7179 274.671 10.6983C274.62 10.6787 274.566 10.6694 274.512 10.6712ZM278.223 10.6841H297.879C297.986 10.6861 298.087 10.7298 298.161 10.8058C298.236 10.8817 298.278 10.9838 298.277 11.0902V14.5688C298.278 14.6196 298.268 14.67 298.249 14.717C298.23 14.7641 298.201 14.8069 298.166 14.8429C298.13 14.879 298.087 14.9076 298.04 14.9271C297.993 14.9467 297.943 14.9567 297.892 14.9567H291.129C290.972 14.9567 290.822 15.0188 290.711 15.1293C290.6 15.2398 290.537 15.3898 290.537 15.5464L290.467 34.9696C290.466 35.0803 290.422 35.1862 290.343 35.2642C290.265 35.3423 290.158 35.386 290.048 35.386H286.044C285.936 35.386 285.833 35.3433 285.756 35.2673C285.68 35.1912 285.636 35.0879 285.636 34.98V15.549C285.636 15.3919 285.573 15.2413 285.462 15.1302C285.351 15.0191 285.2 14.9567 285.043 14.9567H278.202C278.1 14.956 278.002 14.9149 277.93 14.8422C277.858 14.7695 277.817 14.6712 277.817 14.5688V11.0902C277.817 10.9825 277.86 10.8792 277.936 10.803C278.012 10.7269 278.115 10.6841 278.223 10.6841ZM165.186 10.6841H161.133C160.909 10.6841 160.727 10.8659 160.727 11.0902V34.98C160.727 35.2042 160.909 35.386 161.133 35.386H165.186C165.41 35.386 165.592 35.2042 165.592 34.98V11.0902C165.592 10.8659 165.41 10.6841 165.186 10.6841ZM219.418 10.6841H223.471C223.695 10.6841 223.877 10.8659 223.877 11.0902V34.98C223.877 35.2042 223.695 35.386 223.471 35.386H219.418C219.194 35.386 219.012 35.2042 219.012 34.98V11.0902C219.012 10.8659 219.194 10.6841 219.418 10.6841Z" fill="white"/>
</g>
<defs>
<clipPath id="clip0_9065_87452">
<rect width="402" height="40" fill="white"/>
</clipPath>
</defs>
</svg>
