<svg width="284" height="40" viewBox="0 0 284 40" fill="none" xmlns="http://www.w3.org/2000/svg">
<g clip-path="url(#clip0_9162_122356)">
<path d="M20 0C16.0444 0 12.1776 1.17296 8.8886 3.37059C5.59962 5.56821 3.03617 8.69179 1.52242 12.3463C0.00866659 16.0008 -0.387401 20.0221 0.384303 23.9018C1.15601 27.7814 3.06083 31.3451 5.85788 34.1421C8.65493 36.9392 12.2186 38.844 16.0982 39.6157C19.9778 40.3874 23.9992 39.9913 27.6537 38.4776C31.3082 36.9638 34.4318 34.4003 36.6294 31.1114C38.827 27.8224 40 23.9556 40 19.9999C40 17.3735 39.4827 14.7728 38.4776 12.3463C37.4725 9.91981 35.9993 7.71498 34.1421 5.85781C32.285 4.00064 30.0802 2.52747 27.6537 1.52238C25.2272 0.517286 22.6264 0 20 0ZM26.0091 18.6617C24.0805 18.6852 22.2375 19.4618 20.8736 20.8256C19.5098 22.1895 18.7332 24.0324 18.7097 25.961C18.7097 25.993 18.7097 26.0251 18.7097 26.057C18.7097 26.9914 18.4326 27.9047 17.9135 28.6816C17.3945 29.4585 16.6567 30.064 15.7934 30.4215C14.9302 30.7791 13.9804 30.8726 13.064 30.6903C12.1476 30.508 11.3059 30.0581 10.6452 29.3974C9.98452 28.7368 9.53459 27.895 9.35231 26.9786C9.17003 26.0622 9.26358 25.1124 9.62114 24.2492C9.97869 23.386 10.5842 22.6482 11.3611 22.1291C12.1379 21.61 13.0513 21.3329 13.9856 21.3329C14.9491 21.3329 15.9031 21.1422 16.7926 20.7717C17.682 20.4012 18.4893 19.8583 19.1679 19.1743C19.8465 18.4903 20.3829 17.6787 20.7463 16.7863C21.1097 15.8939 21.2927 14.9384 21.285 13.9749V13.9376C21.2861 13.0045 21.5637 12.0927 22.0828 11.3174C22.602 10.5421 23.3393 9.93815 24.2016 9.58182C25.064 9.22549 26.0126 9.13281 26.9276 9.31549C27.8426 9.49816 28.6829 9.94803 29.3423 10.6082C30.0017 11.2683 30.4506 12.1091 30.6322 13.0243C30.8138 13.9395 30.7201 14.888 30.3628 15.7499C30.0055 16.6118 29.4007 17.3485 28.6248 17.8668C27.8489 18.3851 26.9368 18.6617 26.0037 18.6617H26.0091Z" fill="#00C9EA"/>
<path fill-rule="evenodd" clip-rule="evenodd" d="M71.5249 30.5198H57.0808C56.6008 30.5157 56.1415 30.3235 55.8016 29.9846C55.4617 29.6456 55.2682 29.187 55.2626 28.707V3.95088C55.2626 3.84341 55.2199 3.74037 55.1439 3.66437C55.0679 3.58838 54.9649 3.54565 54.8574 3.54565H50.4052C50.2978 3.54565 50.1947 3.58838 50.1187 3.66437C50.0427 3.74037 50 3.84341 50 3.95088V30.1519C50.0028 31.5364 50.5544 32.8633 51.5339 33.8417C52.5134 34.8202 53.8408 35.3705 55.2253 35.3719H71.5249C71.6324 35.3719 71.7355 35.3291 71.8115 35.2532C71.8875 35.1772 71.9301 35.0741 71.9301 34.9666V30.9251C71.9301 30.8176 71.8875 30.7145 71.8115 30.6385C71.7355 30.5625 71.6324 30.5198 71.5249 30.5198ZM128.55 5.77441H124.46C124.237 5.77441 124.055 5.95584 124.055 6.17964V10.2692C124.055 10.493 124.237 10.6744 124.46 10.6744H128.55C128.774 10.6744 128.955 10.493 128.955 10.2692V6.17964C128.955 5.95584 128.774 5.77441 128.55 5.77441ZM199.742 26.8034H203.757C203.89 26.7966 204.022 26.8405 204.125 26.9261C204.171 26.9821 204.205 27.0469 204.225 27.1166C204.245 27.1863 204.251 27.2593 204.242 27.3312C204.036 28.9078 203.42 30.403 202.457 31.6678C201.493 32.9326 200.215 33.9228 198.75 34.54C197.029 35.2709 195.175 35.6341 193.306 35.6064C191.121 35.6576 188.961 35.1238 187.052 34.0602C185.281 33.0271 183.856 31.4927 182.957 29.6507C181.96 27.5618 181.469 25.2677 181.523 22.9538C181.468 20.6357 181.973 18.3386 182.994 16.2569C183.919 14.412 185.365 12.8789 187.153 11.8474C189.09 10.7839 191.273 10.2505 193.482 10.3012C195.306 10.2808 197.113 10.6442 198.787 11.3675C200.274 12.0011 201.564 13.0233 202.52 14.3268C203.379 15.5207 203.929 16.9095 204.119 18.3683C204.128 18.4407 204.121 18.5139 204.1 18.5836C204.079 18.6533 204.044 18.718 203.997 18.7736C203.95 18.827 203.893 18.8699 203.828 18.8993C203.764 18.9287 203.694 18.944 203.623 18.9442H199.571C199.455 18.9391 199.344 18.8963 199.254 18.8222C199.165 18.7481 199.102 18.6467 199.075 18.5336C198.934 17.7781 198.632 17.0618 198.19 16.4328C197.696 15.7331 197.022 15.1804 196.239 14.8333C195.372 14.4624 194.436 14.2806 193.493 14.3001C192.266 14.2762 191.065 14.6503 190.07 15.3665C188.97 16.1023 188.113 17.1467 187.606 18.3683C187.001 19.8366 186.707 21.4142 186.743 23.0017C186.707 24.5878 186.995 26.1646 187.59 27.6352C188.079 28.8489 188.911 29.8939 189.984 30.6424C190.949 31.3501 192.121 31.716 193.317 31.6821C194.325 31.7008 195.326 31.5064 196.255 31.1116C197.078 30.7548 197.789 30.1818 198.313 29.4534C198.789 28.7884 199.11 28.0249 199.251 27.2193C199.277 27.106 199.338 27.0041 199.427 26.9291C199.515 26.854 199.626 26.8099 199.742 26.8034ZM224.706 11.8848C222.743 10.8689 220.565 10.3387 218.355 10.3387C216.145 10.3387 213.968 10.8689 212.005 11.8848C210.202 12.9058 208.745 14.441 207.819 16.2943C206.864 18.3975 206.369 20.681 206.369 22.9912C206.369 25.3014 206.864 27.5848 207.819 29.688C208.743 31.5424 210.201 33.0781 212.005 34.0975C213.968 35.1134 216.145 35.6435 218.355 35.6435C220.565 35.6435 222.743 35.1134 224.706 34.0975C226.501 33.0739 227.95 31.5388 228.87 29.688C229.825 27.5848 230.32 25.3014 230.32 22.9912C230.32 20.681 229.825 18.3975 228.87 16.2943C227.948 14.4455 226.499 12.9111 224.706 11.8848ZM221.752 30.6264C220.768 31.3426 219.577 31.7171 218.361 31.6928C217.129 31.7168 215.923 31.3428 214.921 30.6264C213.821 29.8882 212.959 28.845 212.442 27.6246C211.826 26.1594 211.526 24.5804 211.562 22.9912C211.527 21.4036 211.821 19.8259 212.426 18.3577C212.938 17.134 213.8 16.0893 214.905 15.3558C215.926 14.6378 217.15 14.2642 218.398 14.2894C219.608 14.2635 220.793 14.6384 221.768 15.3558C222.861 16.098 223.717 17.1405 224.231 18.3577C225.411 21.334 225.411 24.6483 224.231 27.6246C223.716 28.846 222.854 29.8896 221.752 30.6264ZM271.146 31.3729H260.834C260.757 31.3736 260.679 31.3588 260.607 31.3293C260.535 31.2998 260.469 31.2562 260.414 31.2011C260.359 31.146 260.316 31.0805 260.286 31.0084C260.257 30.9362 260.242 30.859 260.243 30.7811V25.3371C260.243 25.1802 260.305 25.0297 260.416 24.9187C260.527 24.8077 260.677 24.7453 260.834 24.7453H270.491C270.601 24.7453 270.707 24.7015 270.785 24.6235C270.863 24.5455 270.906 24.4398 270.906 24.3295V21.189C270.906 21.0787 270.863 20.9728 270.785 20.8948C270.707 20.8168 270.601 20.7731 270.491 20.7731H260.834C260.677 20.7731 260.527 20.7107 260.416 20.5997C260.305 20.4887 260.243 20.3382 260.243 20.1812V15.2065C260.242 15.1286 260.257 15.0514 260.286 14.9792C260.316 14.9071 260.359 14.8415 260.414 14.7864C260.469 14.7313 260.535 14.6878 260.607 14.6583C260.679 14.6288 260.757 14.614 260.834 14.6147H271.109C271.164 14.6147 271.219 14.6038 271.269 14.5825C271.32 14.5613 271.366 14.5302 271.405 14.491C271.444 14.4518 271.474 14.4053 271.495 14.3543C271.515 14.3032 271.526 14.2486 271.525 14.1935V11.0583C271.525 10.948 271.481 10.8422 271.403 10.7642C271.325 10.6862 271.219 10.6424 271.109 10.6424H255.471C255.415 10.6417 255.361 10.652 255.31 10.6726C255.259 10.6931 255.212 10.7236 255.173 10.7623C255.134 10.801 255.103 10.8471 255.081 10.8979C255.06 10.9487 255.049 11.0033 255.049 11.0583V34.9293C255.049 34.9843 255.06 35.0389 255.081 35.0897C255.103 35.1405 255.134 35.1866 255.173 35.2253C255.212 35.264 255.259 35.2945 255.31 35.3151C255.361 35.3357 255.415 35.3459 255.471 35.3452H271.146C271.257 35.3452 271.362 35.3014 271.44 35.2234C271.518 35.1454 271.562 35.0396 271.562 34.9293V31.7888C271.562 31.7342 271.551 31.6801 271.531 31.6296C271.51 31.5792 271.479 31.5333 271.44 31.4947C271.402 31.4561 271.356 31.4254 271.306 31.4045C271.255 31.3836 271.201 31.3729 271.146 31.3729ZM243.17 10.6424C244.821 10.6084 246.459 10.9378 247.969 11.6075C249.28 12.2005 250.387 13.1667 251.152 14.3854C251.913 15.6758 252.299 17.1531 252.266 18.651C252.299 20.1516 251.905 21.6308 251.13 22.9165C250.346 24.1537 249.215 25.1327 247.878 25.7317C246.322 26.415 244.635 26.7499 242.935 26.7128H239.256C239.14 26.7128 239.029 26.7588 238.947 26.8408C238.865 26.9228 238.819 27.034 238.819 27.15V34.9292C238.819 35.0395 238.775 35.1454 238.697 35.2234C238.619 35.3013 238.513 35.3451 238.403 35.3451H234.015C233.905 35.3451 233.799 35.3013 233.721 35.2234C233.643 35.1454 233.599 35.0395 233.599 34.9292V11.0583C233.599 10.948 233.643 10.8422 233.721 10.7642C233.799 10.6862 233.905 10.6424 234.015 10.6424H243.17ZM245.351 22.2393C245.997 21.9312 246.537 21.4374 246.902 20.821L246.881 20.8317C247.272 20.1681 247.477 19.4108 247.473 18.6403C247.487 17.8947 247.303 17.1588 246.94 16.5075C246.593 15.9128 246.082 15.4312 245.468 15.1212C244.762 14.7763 243.982 14.6062 243.197 14.6253H239.432C239.354 14.6246 239.277 14.6394 239.205 14.6689C239.133 14.6984 239.067 14.742 239.012 14.7971C238.957 14.8522 238.913 14.9178 238.884 14.9899C238.854 15.062 238.84 15.1392 238.84 15.2172V22.1487C238.84 22.2268 238.854 22.3044 238.884 22.3768C238.913 22.4492 238.957 22.5151 239.012 22.5706C239.067 22.6261 239.132 22.6702 239.204 22.7003C239.277 22.7303 239.354 22.7458 239.432 22.7458H242.957C243.783 22.7649 244.603 22.5915 245.351 22.2393ZM178.761 25.4918C178.32 24.6825 177.711 23.977 176.974 23.423C176.205 22.8437 175.36 22.3719 174.463 22.0207C173.529 21.6493 172.566 21.3568 171.584 21.1463L169.131 20.5758C168.598 20.4585 168.065 20.3145 167.558 20.1439C167.071 19.985 166.603 19.7741 166.161 19.5148C165.78 19.2967 165.452 18.9961 165.202 18.635C164.967 18.276 164.847 17.8535 164.86 17.4246C164.862 16.8757 165.05 16.3437 165.393 15.9157C165.799 15.4297 166.327 15.0614 166.924 14.8493C167.71 14.5672 168.541 14.4316 169.376 14.4494C170.534 14.3991 171.681 14.6882 172.677 15.2812C173.031 15.5041 173.335 15.7977 173.569 16.1436C173.804 16.4896 173.965 16.8803 174.042 17.2913C174.072 17.4086 174.141 17.5122 174.238 17.5849C174.335 17.6576 174.454 17.695 174.575 17.6912H178.531C178.646 17.698 178.76 17.6674 178.856 17.6039C178.953 17.5405 179.026 17.4477 179.065 17.3393C179.076 17.2866 179.076 17.2321 179.065 17.1794C178.987 15.9549 178.549 14.7806 177.806 13.8042C176.924 12.6721 175.758 11.7945 174.426 11.261C172.85 10.6227 171.161 10.3106 169.462 10.3438C167.753 10.3188 166.056 10.6286 164.466 11.2556C163.092 11.7933 161.882 12.6811 160.957 13.8309C160.098 14.9362 159.64 16.3017 159.662 17.7019C159.634 18.5224 159.794 19.3384 160.129 20.0878C160.465 20.8371 160.967 21.5 161.597 22.0261C163.118 23.2099 164.891 24.0257 166.78 24.4094L169.755 25.1239C170.578 25.3132 171.387 25.5609 172.176 25.865C172.762 26.0785 173.295 26.417 173.738 26.8568C174.093 27.2511 174.284 27.7661 174.271 28.2964C174.271 28.9202 174.048 29.5234 173.642 29.9972C173.169 30.5226 172.568 30.9174 171.898 31.1436C171.053 31.4354 170.164 31.5762 169.27 31.5595C168.388 31.5725 167.51 31.4373 166.673 31.1596C165.965 30.9279 165.329 30.5164 164.828 29.9653C164.415 29.4785 164.152 28.882 164.071 28.2484C164.044 28.1282 163.976 28.021 163.879 27.9451C163.782 27.8693 163.661 27.8295 163.538 27.8325H159.502C159.354 27.8318 159.212 27.8893 159.107 27.9925C159.06 28.04 159.024 28.0969 159.001 28.1594C158.978 28.2219 158.969 28.2886 158.974 28.355C159.058 29.7354 159.533 31.0634 160.344 32.1834C161.264 33.3841 162.507 34.2978 163.927 34.8173C165.65 35.4455 167.474 35.7475 169.307 35.7078C171.161 35.753 173.006 35.4398 174.74 34.7854C176.118 34.2607 177.323 33.3613 178.217 32.1887C179.024 31.0653 179.449 29.7118 179.427 28.3284C179.447 27.3419 179.218 26.3662 178.761 25.4918ZM90.8001 13.5377H94.8844C94.9381 13.5404 94.9907 13.5538 95.0392 13.577C95.0877 13.6003 95.1311 13.633 95.1668 13.6732C95.2025 13.7134 95.2299 13.7603 95.2473 13.8112C95.2647 13.862 95.2719 13.9159 95.2683 13.9696V34.9933C95.2683 35.1008 95.2255 35.2039 95.1496 35.2798C95.0736 35.3558 94.9705 35.3985 94.863 35.3985H91.3226C91.2152 35.3985 91.1121 35.3558 91.0361 35.2798C90.9601 35.2039 90.9174 35.1008 90.9174 34.9933V32.4393C90.029 33.4854 88.9415 34.3444 87.7183 34.9667C86.3734 35.6529 84.8826 36.0041 83.3727 35.9904C80.5682 35.9904 78.3341 35.1639 76.7505 33.5323C75.1669 31.9008 74.3618 29.736 74.3618 27.0701V13.9696C74.3618 13.8621 74.4045 13.7591 74.4805 13.6831C74.5565 13.6071 74.6596 13.5643 74.767 13.5643H78.8566C78.9641 13.5643 79.0672 13.6071 79.1432 13.6831C79.2192 13.7591 79.2618 13.8621 79.2618 13.9696V26.4356C79.2618 28.1791 79.7044 29.4961 80.5735 30.3492C81.4426 31.2023 82.7223 31.6342 84.3751 31.6342C85.6035 31.6379 86.8035 31.2658 87.8142 30.5678C88.5614 30.0651 89.2329 29.4583 89.8084 28.7656C90.1913 28.2965 90.397 27.7076 90.3895 27.1021V13.9429C90.3909 13.8349 90.4348 13.7319 90.5117 13.6561C90.5885 13.5802 90.6921 13.5376 90.8001 13.5377ZM115.881 14.0815C114.436 13.3042 112.814 12.913 111.173 12.9458C109.663 12.9321 108.172 13.2833 106.827 13.9696C105.604 14.5918 104.517 15.4509 103.628 16.4969V13.9429C103.628 13.8354 103.586 13.7324 103.51 13.6564C103.434 13.5804 103.331 13.5376 103.223 13.5376H99.6347C99.5272 13.5376 99.4242 13.5804 99.3482 13.6564C99.2722 13.7324 99.2295 13.8354 99.2295 13.9429V34.9666C99.2295 35.0741 99.2722 35.1772 99.3482 35.2531C99.4242 35.3291 99.5272 35.3719 99.6347 35.3719H103.724C103.832 35.3719 103.935 35.3291 104.011 35.2531C104.087 35.1772 104.13 35.0741 104.13 34.9666V21.8341C104.129 21.1843 104.366 20.5566 104.796 20.0692C105.372 19.4123 106.029 18.8317 106.753 18.3417C107.767 17.6531 108.966 17.2904 110.192 17.302C111.541 17.2447 112.858 17.7239 113.855 18.635C114.788 19.5201 115.257 20.8211 115.257 22.5006V34.9666C115.257 35.0741 115.3 35.1772 115.376 35.2531C115.452 35.3291 115.555 35.3719 115.662 35.3719H119.72C119.827 35.3719 119.931 35.3291 120.007 35.2531C120.083 35.1772 120.125 35.0741 120.125 34.9666V21.8661C120.154 20.2571 119.77 18.6677 119.011 17.2487C118.286 15.9196 117.201 14.8218 115.881 14.0815ZM124.46 13.5377H128.55C128.774 13.5377 128.955 13.7191 128.955 13.9429V34.9666C128.955 35.1904 128.774 35.3718 128.55 35.3718H124.46C124.237 35.3718 124.055 35.1904 124.055 34.9666V13.9429C124.055 13.7191 124.237 13.5377 124.46 13.5377ZM148.555 17.8458H141.624C141.475 17.8486 141.334 17.9092 141.229 18.0147C141.125 18.1203 141.065 18.2624 141.064 18.411V27.8218C141.064 29.2135 141.331 30.0133 141.976 30.5891C141.976 30.5945 142.776 31.3143 145.175 31.3143H148.561C148.668 31.3143 148.771 31.3569 148.847 31.4329C148.923 31.5089 148.966 31.612 148.966 31.7195V35.5158C148.966 35.6233 148.923 35.7263 148.847 35.8023C148.771 35.8783 148.668 35.921 148.561 35.921H143.725C141.48 35.921 139.656 35.2972 138.281 34.1455C136.905 32.9938 136.212 31.1437 136.212 28.7283V18.3737C136.207 18.2486 136.161 18.1286 136.081 18.0322C136.001 17.9358 135.892 17.8685 135.769 17.8405H132.709C132.601 17.8405 132.498 17.7978 132.422 17.7218C132.346 17.6458 132.304 17.5428 132.304 17.4353V13.9375C132.304 13.83 132.346 13.727 132.422 13.651C132.498 13.575 132.601 13.5324 132.709 13.5324H135.647C135.791 13.5313 135.929 13.4757 136.034 13.3768C136.139 13.2779 136.203 13.143 136.212 12.9992V10.7864C136.211 10.733 136.221 10.68 136.242 10.6306C136.262 10.5811 136.292 10.5362 136.329 10.4985L140.366 6.44088C140.422 6.38397 140.494 6.34504 140.572 6.329C140.651 6.31296 140.732 6.32057 140.806 6.3508C140.881 6.38104 140.944 6.43254 140.989 6.49888C141.034 6.56521 141.058 6.6434 141.059 6.72349V12.9725C141.06 13.1219 141.12 13.2649 141.226 13.3705C141.331 13.4762 141.474 13.5362 141.624 13.5376H148.555C148.663 13.5376 148.766 13.5803 148.842 13.6563C148.918 13.7323 148.961 13.8354 148.961 13.9429V17.4406C148.961 17.5481 148.918 17.6511 148.842 17.7271C148.766 17.8031 148.663 17.8458 148.555 17.8458ZM282.743 12.9458C282.539 12.4701 282.246 12.0376 281.88 11.6714C281.514 11.3063 281.081 11.0149 280.605 10.813C279.61 10.401 278.492 10.401 277.497 10.813C277.022 11.0162 276.589 11.3074 276.222 11.6714C275.856 12.0364 275.565 12.4692 275.364 12.9458C274.952 13.9428 274.952 15.0627 275.364 16.0597C275.771 17.0207 276.536 17.7857 277.497 18.1924C278.492 18.6045 279.61 18.6045 280.605 18.1924C281.082 17.9924 281.515 17.7007 281.88 17.3339C282.246 16.9677 282.539 16.5353 282.743 16.0597C283.156 15.0627 283.156 13.9428 282.743 12.9458ZM281.624 16.0009C281.365 16.4419 280.998 16.8092 280.557 17.0673C280.105 17.3345 279.589 17.4728 279.064 17.4672C278.534 17.4854 278.008 17.3583 277.545 17.0994C277.108 16.8363 276.741 16.4702 276.478 16.033C276.21 15.5815 276.072 15.0649 276.078 14.54C276.074 14.0136 276.212 13.4958 276.478 13.0418C276.739 12.6031 277.106 12.2365 277.545 11.9754C278 11.7082 278.52 11.5699 279.048 11.5755C279.573 11.57 280.089 11.7083 280.541 11.9754C280.982 12.2336 281.349 12.6008 281.608 13.0418C281.873 13.4964 282.013 14.0135 282.013 14.54C282.013 15.0666 281.873 15.5837 281.608 16.0383L281.624 16.0009ZM280.672 13.8282C280.672 14.0637 280.608 14.2949 280.488 14.4974C280.383 14.6557 280.24 14.7857 280.072 14.8759L280.797 16.3049H279.795L279.203 15.0626H278.521V16.3049H277.614V12.6152H279.438C279.643 12.6136 279.845 12.6592 280.03 12.7485C280.216 12.8421 280.375 12.9839 280.488 13.1591C280.608 13.3616 280.672 13.5928 280.672 13.8282ZM279.177 14.3961C279.311 14.3957 279.441 14.3442 279.539 14.2522C279.597 14.1978 279.641 14.1313 279.67 14.0575C279.698 13.9837 279.71 13.9045 279.704 13.8256C279.712 13.7473 279.701 13.6683 279.673 13.595C279.644 13.5218 279.598 13.4564 279.539 13.4043C279.439 13.328 279.318 13.2851 279.193 13.2817H278.526V14.3961H279.177Z" fill="black"/>
</g>
<defs>
<clipPath id="clip0_9162_122356">
<rect width="284" height="40" fill="white"/>
</clipPath>
</defs>
</svg>
