<svg width="419" height="44" viewBox="0 0 419 44" fill="none" xmlns="http://www.w3.org/2000/svg">
<path d="M20.001 0C16.0452 0 12.1782 1.17303 8.88904 3.37077C5.5999 5.56851 3.03632 8.69224 1.52249 12.3469C0.00866612 16.0016 -0.38742 20.0232 0.384322 23.903C1.15606 27.7828 3.06097 31.3466 5.85816 34.1438C8.65535 36.941 12.2192 38.8459 16.099 39.6177C19.9788 40.3894 24.0003 39.9933 27.655 38.4795C31.3097 36.9657 34.4335 34.4021 36.6312 31.1129C38.8289 27.8238 40.002 23.9568 40.002 20.001C40.002 14.6964 37.8947 9.60906 34.1438 5.85815C30.3929 2.10724 25.3056 0 20.001 0ZM26.0119 18.6638C24.0827 18.6873 22.2391 19.4641 20.8749 20.8283C19.5106 22.1926 18.7338 24.0361 18.7104 25.9653C18.7104 25.9964 18.7104 26.0274 18.7104 26.0584C18.7104 26.992 18.4335 27.9046 17.9148 28.6809C17.3962 29.4571 16.659 30.0621 15.7965 30.4194C14.9339 30.7767 13.9849 30.8701 13.0692 30.688C12.1536 30.5059 11.3125 30.0563 10.6524 29.3962C9.99222 28.736 9.54266 27.895 9.36053 26.9793C9.1784 26.0637 9.27187 25.1146 9.62914 24.2521C9.9864 23.3896 10.5914 22.6524 11.3677 22.1337C12.1439 21.615 13.0565 21.3382 13.9901 21.3382C14.9534 21.3375 15.9071 21.1463 16.7963 20.7755C17.6854 20.4048 18.4924 19.8618 19.1708 19.1778C19.8493 18.4939 20.3857 17.6825 20.7492 16.7904C21.1127 15.8983 21.2962 14.9431 21.289 13.9797V13.9435C21.289 13.01 21.5659 12.0973 22.0846 11.3211C22.6032 10.5448 23.3404 9.93984 24.2029 9.58257C25.0655 9.22531 26.0145 9.13183 26.9302 9.31396C27.8458 9.49609 28.6869 9.94565 29.347 10.6058C30.0072 11.2659 30.4567 12.107 30.6389 13.0227C30.821 13.9383 30.7275 14.8874 30.3703 15.7499C30.013 16.6124 29.408 17.3496 28.6317 17.8683C27.8555 18.387 26.9429 18.6638 26.0093 18.6638H26.0119Z" fill="#00C9EA"/>
<path fill-rule="evenodd" clip-rule="evenodd" d="M72.4049 30.5226H57.9622C57.4839 30.5166 57.0269 30.3239 56.6886 29.9857C56.3504 29.6474 56.1577 29.1904 56.1517 28.7121V3.95464C56.1531 3.89979 56.1434 3.84523 56.1231 3.79424C56.1028 3.74325 56.0724 3.6969 56.0338 3.65798C55.9951 3.61906 55.9489 3.58838 55.8981 3.5678C55.8472 3.54722 55.7927 3.53716 55.7378 3.53822H51.2866C51.1789 3.53822 51.0756 3.58101 50.9994 3.65716C50.9233 3.73331 50.8805 3.8366 50.8805 3.9443V30.145C50.8825 31.5293 51.4334 32.8564 52.4123 33.8353C53.3911 34.8141 54.7182 35.365 56.1025 35.367H72.3971C72.5046 35.3663 72.6075 35.3233 72.6835 35.2473C72.7595 35.1713 72.8025 35.0684 72.8032 34.961V30.9287C72.8032 30.8223 72.7615 30.7202 72.687 30.6443C72.6125 30.5683 72.5112 30.5246 72.4049 30.5226ZM129.428 5.77295H125.342C125.117 5.77295 124.936 5.95475 124.936 6.17902V10.2656C124.936 10.4899 125.117 10.6717 125.342 10.6717H129.428C129.653 10.6717 129.834 10.4899 129.834 10.2656V6.17902C129.834 5.95475 129.653 5.77295 129.428 5.77295ZM316.563 35.8999C314.558 35.8999 312.918 35.3645 311.682 34.304C310.446 33.2436 309.815 31.6038 309.815 29.4338V20.5881C309.809 20.5003 309.775 20.4168 309.717 20.3501C309.66 20.2834 309.582 20.2371 309.497 20.2182H306.807C306.687 20.2176 306.573 20.1696 306.488 20.0848C306.404 19.9999 306.357 19.8852 306.357 19.7656V16.6619C306.357 16.5423 306.404 16.4275 306.488 16.3427C306.573 16.2579 306.687 16.2099 306.807 16.2092H309.393C309.498 16.2088 309.598 16.1684 309.674 16.0963C309.75 16.0242 309.796 15.9258 309.802 15.8213V13.884C309.801 13.8245 309.813 13.7655 309.836 13.7105C309.858 13.6554 309.892 13.6054 309.934 13.5633L313.511 9.96557C313.574 9.90127 313.654 9.8572 313.743 9.83903C313.831 9.82086 313.922 9.82939 314.006 9.86355C314.089 9.8977 314.16 9.95592 314.21 10.0308C314.26 10.1056 314.287 10.1937 314.287 10.2837V15.8187C314.287 15.8722 314.297 15.9253 314.318 15.9747C314.338 16.0241 314.368 16.069 314.406 16.1068C314.444 16.1445 314.49 16.1744 314.539 16.1946C314.589 16.2149 314.642 16.2251 314.695 16.2248H320.833C320.953 16.2248 321.068 16.2725 321.153 16.3573C321.238 16.4422 321.286 16.5574 321.286 16.6774V19.7811C321.286 19.9012 321.238 20.0163 321.153 20.1012C321.068 20.1861 320.953 20.2338 320.833 20.2338H314.693C314.588 20.2371 314.488 20.281 314.415 20.3562C314.341 20.4315 314.3 20.5322 314.3 20.6372V28.6268C314.3 29.8321 314.525 30.5201 315.076 31.0089C315.107 31.0348 315.851 31.6296 317.846 31.6296H320.843C320.963 31.6296 321.078 31.6773 321.163 31.7622C321.248 31.8471 321.296 31.9622 321.296 32.0823V35.4446C321.296 35.5647 321.248 35.6798 321.163 35.7647C321.078 35.8496 320.963 35.8973 320.843 35.8973L316.563 35.8999ZM161.842 35.3127C161.69 35.3127 161.545 35.2525 161.437 35.1453C161.33 35.0381 161.27 34.8927 161.27 34.7411V11.2045C161.27 11.0529 161.33 10.9075 161.437 10.8003C161.545 10.6931 161.69 10.6329 161.842 10.6329H169.841C172.485 10.6329 174.818 11.1502 176.776 12.1356C178.684 13.0826 180.268 14.5741 181.328 16.4213C182.383 18.2655 182.919 20.4588 182.919 22.9444C182.919 25.4299 182.383 27.662 181.328 29.5165C180.268 31.3637 178.684 32.8545 176.776 33.7997C174.818 34.7955 172.485 35.3024 169.841 35.3024L161.842 35.3127ZM166.081 14.6082C166.056 14.6082 166.032 14.618 166.014 14.6354C165.996 14.6527 165.986 14.6764 165.985 14.7014V31.2339C165.986 31.2588 165.996 31.2825 166.014 31.2999C166.032 31.3173 166.056 31.327 166.081 31.327H169.841C171.356 31.3631 172.855 31.0162 174.2 30.3183C175.419 29.6595 176.41 28.6481 177.045 27.4163C177.729 26.0243 178.066 24.4873 178.028 22.9366C178.063 21.4008 177.722 19.8797 177.034 18.506C176.396 17.2808 175.405 16.2752 174.189 15.6195C172.845 14.922 171.346 14.5751 169.831 14.6108L166.081 14.6082ZM332.568 35.8999C330.738 35.9403 328.927 35.5177 327.304 34.6713C325.818 33.8612 324.614 32.6181 323.851 31.1072C323.06 29.576 322.659 27.7448 322.659 25.6446C322.659 23.5444 323.06 21.7106 323.851 20.1795C324.613 18.6686 325.818 17.4262 327.304 16.6179C328.94 15.8081 330.741 15.3868 332.567 15.3868C334.392 15.3868 336.193 15.8081 337.829 16.6179C339.316 17.4261 340.521 18.6685 341.284 20.1795C342.076 21.7132 342.476 23.5418 342.476 25.6446C342.476 27.7474 342.076 29.5734 341.284 31.1098C340.52 32.6196 339.315 33.8617 337.829 34.6713C336.207 35.5182 334.397 35.9408 332.568 35.8999ZM332.568 19.2897C331.574 19.2657 330.595 19.5298 329.749 20.0501C328.941 20.5809 328.31 21.3411 327.938 22.2331C327.086 24.4268 327.086 26.8598 327.938 29.0536C328.31 29.9455 328.941 30.7058 329.749 31.2365C330.595 31.7572 331.574 32.0214 332.568 31.9969C333.556 32.0228 334.53 31.7584 335.369 31.2365C336.176 30.7049 336.806 29.945 337.179 29.0536C338.033 26.8602 338.033 24.4265 337.179 22.2331C336.804 21.3428 336.174 20.5834 335.369 20.0501C334.53 19.5285 333.556 19.2642 332.568 19.2897ZM345.14 35.1912C345.217 35.2674 345.32 35.3102 345.428 35.3102H348.961C349.068 35.3102 349.172 35.2674 349.248 35.1912C349.324 35.1151 349.367 35.0118 349.367 34.9041V26.5938C349.659 22.815 351.715 20.4872 355.01 20.2053C355.235 20.1769 355.468 20.1768 355.704 20.1768C355.777 20.1749 355.848 20.1505 355.908 20.107C355.957 20.062 355.986 20 355.991 19.9337V15.9403C355.989 15.831 355.945 15.7266 355.867 15.6501C355.789 15.5735 355.684 15.5309 355.574 15.5316C355.409 15.5342 355.23 15.5445 355.057 15.5575C352.62 15.754 350.699 17.1533 349.504 19.6337V19.6518L349.39 19.6259V16.2817C349.39 16.174 349.347 16.0707 349.271 15.9945C349.195 15.9184 349.092 15.8756 348.984 15.8756H345.428C345.32 15.8756 345.217 15.9184 345.14 15.9945C345.064 16.0707 345.021 16.174 345.021 16.2817V34.9041C345.021 35.0118 345.064 35.1151 345.14 35.1912ZM362.084 35.7188C362.686 35.8391 363.299 35.8997 363.913 35.8999C366.518 35.8999 368.651 35.0075 370.268 33.2488L370.379 33.1272V35.0929C370.379 35.1553 370.392 35.217 370.416 35.2745C370.44 35.332 370.475 35.384 370.52 35.4276C370.564 35.4713 370.617 35.5055 370.675 35.5284C370.733 35.5513 370.795 35.5624 370.858 35.5611H374.458C374.582 35.5611 374.701 35.5117 374.789 35.4239C374.877 35.3361 374.926 35.2171 374.926 35.0929V23.9246C374.926 21.289 374.197 19.2587 372.761 17.893C371.333 16.4653 369.037 15.7101 366.122 15.7101C364.865 15.7005 363.61 15.8175 362.377 16.0592C361.203 16.304 360.057 16.6653 358.955 17.1378C358.846 17.1848 358.759 17.2711 358.711 17.3794C358.663 17.4878 358.658 17.6102 358.696 17.7223L359.627 20.42C359.659 20.5125 359.719 20.5926 359.799 20.6492C359.879 20.7058 359.974 20.736 360.072 20.7355C360.131 20.7346 360.188 20.7232 360.243 20.7019C361.263 20.2924 362.324 19.9958 363.409 19.8174C364.106 19.7083 364.811 19.6539 365.517 19.6544C368.033 19.6544 369.655 20.5804 370.208 22.3314C370.351 22.7993 370.423 23.2856 370.423 23.7746V23.8522V24.279L370.26 24.2324C368.585 23.7171 366.84 23.464 365.087 23.4823C359.826 23.4823 356.811 25.7791 356.811 29.7829V29.8554C356.811 32.8324 358.831 35.08 362.084 35.7188ZM361.327 29.5993C361.327 27.5922 363.072 26.3973 365.982 26.3973H365.998C367.425 26.3892 368.845 26.6137 370.201 27.062L370.459 27.1525V28.4457V28.5518V28.6216C370.441 29.045 370.348 29.4618 370.185 29.8528C369.482 31.5365 367.565 32.5711 365.18 32.5711C362.878 32.5711 361.327 31.402 361.327 29.6614V29.5993ZM399.753 25.7791C399.753 31.7383 403.907 35.8999 409.856 35.8999C413.11 35.8999 415.802 34.7437 417.853 32.4728C417.891 32.4306 417.919 32.3815 417.937 32.3282C417.955 32.275 417.963 32.2186 417.959 32.1625C417.956 32.1052 417.941 32.0492 417.916 31.9977C417.89 31.9462 417.855 31.9002 417.812 31.8624L415.567 29.9226C415.488 29.8542 415.387 29.8165 415.282 29.8165C415.178 29.8165 415.077 29.8542 414.998 29.9226C413.399 31.3839 411.884 32.0047 409.931 32.0047C407.101 32.0047 404.999 30.308 404.445 27.5767C404.441 27.5576 404.442 27.5379 404.447 27.5191C404.449 27.5115 404.452 27.5041 404.455 27.497C404.46 27.4866 404.466 27.4769 404.474 27.4681C404.477 27.4643 404.48 27.4608 404.484 27.4574C404.487 27.4546 404.49 27.4519 404.493 27.4494C404.497 27.4462 404.501 27.4433 404.505 27.4406C404.511 27.4366 404.517 27.4331 404.524 27.4301C404.543 27.4212 404.564 27.4165 404.585 27.4163H418.497C418.605 27.4155 418.708 27.3748 418.786 27.3021C418.865 27.2294 418.914 27.13 418.924 27.0232L418.925 27.0068C418.951 26.6788 418.976 26.3557 418.976 26.0326C418.976 20.8157 415.973 15.5497 409.367 15.5497C402.761 15.5497 399.753 20.8131 399.753 25.7067V25.7791ZM404.499 23.9013C404.999 21.0563 406.887 19.2897 409.414 19.2897C412.021 19.2897 413.831 21.0149 414.253 23.9065C414.255 23.9254 414.254 23.9445 414.249 23.9628C414.243 23.9811 414.234 23.998 414.222 24.0126C414.208 24.0279 414.191 24.0401 414.173 24.0486C414.154 24.0571 414.134 24.0615 414.113 24.0617H404.639C404.618 24.0614 404.597 24.0566 404.578 24.0477C404.559 24.0388 404.542 24.0259 404.528 24.01C404.522 24.0032 404.517 23.9959 404.513 23.9881C404.508 23.9789 404.504 23.9691 404.502 23.9588C404.497 23.9401 404.496 23.9204 404.499 23.9013ZM289.783 35.0153C291.489 35.6389 293.297 35.9397 295.113 35.9025C297.219 35.9025 299.034 35.5921 300.493 35.0024C301.854 34.4884 303.044 33.602 303.925 32.4444C304.72 31.3376 305.136 30.0043 305.113 28.6423C305.134 27.6734 304.912 26.7146 304.466 25.8541C304.033 25.0591 303.435 24.3659 302.712 23.8212C301.95 23.2469 301.113 22.7787 300.224 22.4297C299.294 22.0617 298.336 21.771 297.358 21.5606L294.906 20.989C294.372 20.8717 293.845 20.7267 293.326 20.5545C292.832 20.3948 292.357 20.1814 291.909 19.9182C291.513 19.6926 291.173 19.3816 290.913 19.0078C290.668 18.6312 290.543 18.1894 290.553 17.7404C290.556 17.1689 290.751 16.6147 291.107 16.1679C291.526 15.6703 292.069 15.2928 292.682 15.0738C293.481 14.7857 294.326 14.648 295.175 14.6677C296.551 14.6677 297.682 14.9522 298.538 15.5135C298.901 15.7436 299.214 16.0461 299.456 16.402C299.698 16.7579 299.865 17.1598 299.945 17.5826C299.968 17.6751 300.022 17.7567 300.099 17.8137C300.175 17.8707 300.269 17.8997 300.364 17.8956H304.318C304.409 17.8971 304.497 17.8701 304.572 17.8186C304.646 17.7671 304.702 17.6936 304.732 17.6085C304.741 17.571 304.741 17.5322 304.732 17.4947C304.656 16.2899 304.227 15.1342 303.499 14.1711C302.625 13.0561 301.473 12.19 300.159 11.6597C298.599 11.0314 296.927 10.7236 295.245 10.7544C293.55 10.7288 291.866 11.0364 290.29 11.6597C288.932 12.1892 287.737 13.0649 286.824 14.1996C285.977 15.2872 285.527 16.6313 285.549 18.0094C285.549 19.7656 286.188 21.2011 287.45 22.2538C288.712 23.3064 290.432 24.1005 292.592 24.6178L295.561 25.3291C296.391 25.5183 297.206 25.7682 298 26.0765C298.599 26.2965 299.145 26.6432 299.598 27.093C299.977 27.5043 300.183 28.0448 300.175 28.6035C300.174 29.2514 299.942 29.8778 299.521 30.37C299.036 30.9092 298.42 31.3145 297.733 31.5469C296.877 31.8453 295.974 31.9898 295.067 31.9736C294.173 31.9846 293.284 31.8465 292.436 31.565C291.712 31.3267 291.062 30.9042 290.551 30.339C290.128 29.8358 289.859 29.2217 289.775 28.5699C289.755 28.4746 289.702 28.3894 289.625 28.3293C289.549 28.2692 289.453 28.2381 289.356 28.2414H285.318C285.259 28.2407 285.201 28.2517 285.146 28.2739C285.092 28.2961 285.042 28.329 285 28.3707C284.963 28.4068 284.933 28.4508 284.914 28.4995C284.896 28.5483 284.888 28.6005 284.892 28.6526C284.976 30.0136 285.444 31.3228 286.242 32.4289C287.154 33.6078 288.382 34.5045 289.783 35.0153ZM382.68 41.6599C384.175 42.1837 385.752 42.4369 387.336 42.4073C389.144 42.4454 390.938 42.0722 392.581 41.3159C394.02 40.6348 395.217 39.5314 396.013 38.1526C396.787 36.8103 397.195 35.0877 397.195 33.1893V16.4834C397.195 16.3208 397.131 16.1649 397.016 16.0499C396.901 15.935 396.745 15.8704 396.582 15.8704H393.22C393.057 15.8704 392.901 15.935 392.786 16.0499C392.671 16.1649 392.607 16.3208 392.607 16.4834V17.9654L392.496 17.849C391.898 17.2324 391.198 16.724 390.427 16.3463C389.348 15.8108 388.16 15.5336 386.956 15.5368C385.292 15.5019 383.65 15.9098 382.196 16.7188C380.836 17.5061 379.736 18.6751 379.033 20.0811C378.31 21.6681 377.932 23.3909 377.926 25.135C377.92 26.8791 378.285 28.6046 378.997 30.1967C379.673 31.583 380.743 32.7391 382.072 33.5203C383.486 34.3178 385.087 34.7207 386.71 34.6868C387.945 34.6927 389.167 34.4223 390.284 33.8954C391.122 33.5073 391.875 32.957 392.498 32.2762L392.612 32.1547V33.6833C392.612 35.1834 392.178 36.3706 391.288 37.2189C390.398 38.0673 389.151 38.4966 387.553 38.4966C386.216 38.4966 385.137 38.2509 384.343 37.7699C384.033 37.5994 383.76 37.3678 383.541 37.0891C383.322 36.8104 383.162 36.4903 383.071 36.1481C383.038 36.0169 382.962 35.9006 382.855 35.8179C382.748 35.7353 382.616 35.6913 382.481 35.6929H378.956C378.87 35.6927 378.785 35.7105 378.707 35.7453C378.628 35.78 378.558 35.831 378.5 35.8947C378.443 35.9598 378.399 36.0361 378.372 36.1189C378.346 36.2017 378.336 36.2892 378.345 36.3758C378.45 37.4615 378.86 38.4954 379.527 39.3579C380.345 40.4017 381.437 41.1985 382.68 41.6599ZM384.899 19.882C385.73 19.387 386.684 19.1369 387.651 19.1604C388.396 19.1544 389.133 19.3115 389.811 19.6208C390.472 19.9207 391.059 20.3622 391.531 20.914C392.02 21.4904 392.391 22.1574 392.622 22.8771V27.3335C392.387 28.0576 392.01 28.7282 391.515 29.307C391.042 29.8573 390.455 30.2985 389.795 30.6002C389.016 30.9424 388.167 31.0972 387.317 31.0523C386.466 31.0074 385.639 30.764 384.899 30.3416C384.11 29.8454 383.481 29.1313 383.089 28.2854C382.637 27.2834 382.416 26.1926 382.442 25.0937C382.418 24.0067 382.639 22.9282 383.089 21.9382C383.482 21.0928 384.11 20.3788 384.899 19.882ZM91.679 13.54H95.7656C95.8192 13.5397 95.8723 13.55 95.9218 13.5702C95.9714 13.5905 96.0165 13.6203 96.0544 13.6581C96.0924 13.6958 96.1226 13.7407 96.1431 13.7901C96.1637 13.8396 96.1743 13.8926 96.1743 13.9461V34.9713C96.1743 35.079 96.1315 35.1823 96.0554 35.2585C95.9792 35.3346 95.8759 35.3774 95.7682 35.3774H92.2248C92.1173 35.3767 92.0144 35.3337 91.9384 35.2577C91.8624 35.1817 91.8194 35.0788 91.8187 34.9713V32.4159C90.9254 33.463 89.8314 34.3205 88.6012 34.9377C87.2568 35.6289 85.7649 35.9839 84.2534 35.9723C81.4471 35.9723 79.2176 35.1472 77.6321 33.5126C76.0466 31.878 75.2422 29.7027 75.2422 27.0465V13.9461C75.2422 13.8384 75.285 13.7351 75.3611 13.659C75.4373 13.5828 75.5406 13.54 75.6483 13.54H79.7374C79.7906 13.54 79.8433 13.5506 79.8924 13.571C79.9416 13.5914 79.9862 13.6214 80.0237 13.6591C80.0612 13.6969 80.0908 13.7417 80.1109 13.7909C80.1311 13.8402 80.1413 13.8929 80.1409 13.9461V26.4076C80.1409 28.1509 80.5832 29.4596 81.4522 30.3209C82.3213 31.1822 83.6016 31.6141 85.2543 31.6141C86.4794 31.6265 87.6793 31.2656 88.6943 30.5795C89.4408 30.0727 90.1121 29.4632 90.6884 28.769C91.0726 28.2995 91.2795 27.71 91.273 27.1034V13.9461C91.273 13.8384 91.3158 13.7351 91.3919 13.659C91.4681 13.5828 91.5714 13.54 91.679 13.54ZM116.762 14.0858C115.317 13.3058 113.694 12.9137 112.053 12.9477C110.542 12.9377 109.051 13.2926 107.707 13.9823C106.479 14.5987 105.386 15.4543 104.492 16.4989V13.9435C104.492 13.8363 104.449 13.7337 104.372 13.6581C104.296 13.5825 104.194 13.54 104.086 13.54H100.496C100.443 13.5397 100.39 13.5499 100.341 13.57C100.292 13.5901 100.247 13.6198 100.209 13.6573C100.172 13.6948 100.142 13.7394 100.121 13.7885C100.101 13.8376 100.09 13.8903 100.09 13.9435V34.9713C100.09 35.079 100.133 35.1823 100.209 35.2585C100.285 35.3346 100.389 35.3774 100.496 35.3774H104.583C104.691 35.3774 104.794 35.3346 104.87 35.2585C104.946 35.1823 104.989 35.079 104.989 34.9713V21.8374C104.991 21.1881 105.228 20.5615 105.656 20.0734C106.232 19.4154 106.89 18.8347 107.614 18.3457C108.629 17.6582 109.829 17.2972 111.054 17.3111C112.554 17.3111 113.785 17.7585 114.717 18.6457C115.648 19.5328 116.118 20.8312 116.118 22.5124V34.9791C116.119 35.0866 116.162 35.1895 116.238 35.2655C116.314 35.3415 116.417 35.3845 116.524 35.3852H120.614C120.721 35.3845 120.824 35.3415 120.9 35.2655C120.976 35.1895 121.019 35.0866 121.02 34.9791V21.871C121.047 20.2595 120.663 18.6676 119.902 17.2464C119.176 15.9169 118.087 14.8209 116.762 14.0858ZM125.342 13.54H129.428C129.653 13.54 129.834 13.7218 129.834 13.9461V34.9713C129.834 35.1956 129.653 35.3774 129.428 35.3774H125.342C125.117 35.3774 124.936 35.1956 124.936 34.9713V13.9461C124.936 13.7218 125.117 13.54 125.342 13.54ZM142.513 13.5814H149.452C149.56 13.5821 149.663 13.6251 149.739 13.7011C149.815 13.7771 149.858 13.88 149.858 13.9875V17.487C149.858 17.5942 149.815 17.6968 149.739 17.7724C149.663 17.848 149.56 17.8904 149.452 17.8904H142.508C142.361 17.8945 142.222 17.9552 142.119 18.0599C142.016 18.1646 141.958 18.305 141.957 18.4517V27.8612C141.957 29.2553 142.221 30.0571 142.87 30.6287C142.878 30.6365 143.669 31.3581 146.069 31.3581H149.445C149.552 31.3581 149.656 31.4009 149.732 31.477C149.808 31.5532 149.851 31.6565 149.851 31.7641V35.5533C149.851 35.661 149.808 35.7643 149.732 35.8404C149.656 35.9166 149.552 35.9594 149.445 35.9594H144.608C142.381 35.9594 140.547 35.3748 139.176 34.1851C137.806 32.9953 137.107 31.1718 137.107 28.7535V18.4077C137.099 18.2857 137.052 18.1695 136.973 18.0763C136.894 17.9832 136.787 17.918 136.668 17.8904H133.608C133.501 17.8904 133.398 17.848 133.322 17.7724C133.246 17.6968 133.202 17.5942 133.202 17.487V13.9875C133.202 13.8809 133.245 13.7788 133.32 13.7029C133.395 13.627 133.496 13.5834 133.603 13.5814H136.538C136.683 13.5816 136.822 13.5261 136.927 13.4265C137.032 13.3268 137.095 13.1906 137.102 13.046V10.832C137.102 10.7791 137.112 10.7266 137.133 10.6777C137.153 10.6288 137.183 10.5846 137.221 10.5475L141.253 6.48422C141.29 6.44636 141.335 6.41631 141.384 6.39588C141.432 6.37544 141.485 6.36502 141.538 6.36524C141.591 6.3649 141.645 6.37516 141.694 6.39541C141.744 6.41566 141.789 6.44552 141.827 6.48326C141.865 6.521 141.895 6.56589 141.915 6.61532C141.936 6.66476 141.947 6.71777 141.947 6.77132V13.0176C141.947 13.1674 142.007 13.3108 142.113 13.4164C142.22 13.5221 142.363 13.5814 142.513 13.5814ZM237.795 11.8718C236.003 10.8372 233.869 10.3199 231.453 10.3199C229.038 10.3199 226.899 10.8372 225.093 11.8718C223.294 12.8895 221.839 14.4203 220.914 16.2687C219.949 18.162 219.46 20.4071 219.46 22.965C219.46 25.523 219.949 27.7707 220.914 29.6639C221.836 31.5177 223.292 33.0534 225.093 34.0738C226.904 35.1084 229.038 35.6257 231.453 35.6257C233.869 35.6257 236.005 35.1084 237.795 34.0738C239.59 33.0491 241.041 31.5142 241.962 29.6639C242.924 27.7707 243.413 25.5256 243.413 22.965C243.413 20.4045 242.924 18.1646 241.959 16.2687C241.037 14.4234 239.588 12.8932 237.795 11.8718ZM234.849 30.6158C233.862 31.3205 232.671 31.6837 231.458 31.6503C230.231 31.6835 229.024 31.3208 228.019 30.6158C226.917 29.8778 226.055 28.8341 225.538 27.6129C224.92 26.1476 224.618 24.568 224.654 22.978C224.62 21.3906 224.915 19.8135 225.52 18.3457C226.031 17.1208 226.894 16.0755 228 15.3428C229.025 14.6353 230.248 14.2728 231.492 14.3082C232.696 14.275 233.877 14.6385 234.854 15.3428C235.947 16.0862 236.802 17.1288 237.317 18.3457C238.496 21.3221 238.496 24.6364 237.317 27.6129C236.804 28.8324 235.946 29.876 234.849 30.6158ZM212.833 26.793H216.85C216.921 26.7943 216.991 26.81 217.055 26.8394C217.12 26.8688 217.178 26.9111 217.225 26.9637C217.272 27.0197 217.307 27.0851 217.327 27.1556C217.347 27.226 217.352 27.2999 217.342 27.3724C217.136 28.8795 216.563 30.3129 215.673 31.5469C214.689 32.8754 213.371 33.9202 211.853 34.5756C210.137 35.3125 208.286 35.6808 206.419 35.6568C204.024 35.6568 201.919 35.1395 200.162 34.1049C198.393 33.0708 196.968 31.5365 196.068 29.695C195.114 27.8017 194.633 25.5619 194.633 22.9987C194.633 20.4355 195.127 18.1931 196.102 16.2972C197.032 14.4571 198.479 12.9288 200.266 11.9003C202.048 10.8657 204.177 10.3484 206.592 10.3484C208.414 10.3192 210.222 10.6716 211.9 11.383C213.385 12.02 214.674 13.0424 215.632 14.3444C216.486 15.5396 217.032 16.9275 217.22 18.3845C217.23 18.4569 217.224 18.5305 217.203 18.6005C217.182 18.6705 217.146 18.7353 217.098 18.7906C217.052 18.8443 216.995 18.8873 216.931 18.9168C216.867 18.9463 216.797 18.9614 216.726 18.9613H212.67C212.554 18.9579 212.443 18.9155 212.353 18.8409C212.264 18.7663 212.203 18.6638 212.179 18.55C212.035 17.7955 211.734 17.0798 211.294 16.4498C210.796 15.7564 210.121 15.2089 209.339 14.8643C208.474 14.4844 207.537 14.2948 206.592 14.3082C205.369 14.276 204.168 14.6388 203.168 15.3428C202.071 16.0802 201.215 17.1247 200.708 18.3457C200.092 19.8147 199.789 21.3958 199.818 22.9884C199.785 24.575 200.074 26.152 200.669 27.6233C201.16 28.8351 201.992 29.8783 203.064 30.6261C204.03 31.3321 205.203 31.6962 206.398 31.6607C207.406 31.6827 208.408 31.4914 209.337 31.0994C210.162 30.7416 210.876 30.1691 211.406 29.4415C211.879 28.7749 212.199 28.0118 212.342 27.2069C212.365 27.0926 212.426 26.9895 212.516 26.9144C212.605 26.8393 212.717 26.7965 212.833 26.793ZM190.859 10.6303H186.806C186.582 10.6303 186.4 10.8121 186.4 11.0364V34.9274C186.4 35.1516 186.582 35.3334 186.806 35.3334H190.859C191.083 35.3334 191.265 35.1516 191.265 34.9274V11.0364C191.265 10.8121 191.083 10.6303 190.859 10.6303ZM262.879 35.305H260.858H260.853H258.8C258.714 35.3048 258.631 35.2784 258.561 35.2294C258.491 35.1803 258.438 35.111 258.409 35.0308L251.498 18.3974C251.486 18.3632 251.463 18.3342 251.432 18.3151C251.401 18.296 251.365 18.2879 251.329 18.2921C251.293 18.2963 251.259 18.3126 251.233 18.3383C251.208 18.364 251.192 18.3976 251.188 18.4336L251.206 34.9351C251.196 35.0373 251.147 35.1319 251.071 35.2004C250.994 35.2688 250.895 35.3061 250.792 35.305H247.104C247.045 35.3007 246.988 35.285 246.936 35.2586C246.884 35.2322 246.837 35.1957 246.799 35.1512C246.76 35.1068 246.731 35.0552 246.713 34.9995C246.695 34.9437 246.688 34.8849 246.693 34.8265V10.9846C246.707 10.8859 246.756 10.7957 246.832 10.7306C246.908 10.6655 247.004 10.6299 247.104 10.6303H252.928C253.014 10.6305 253.098 10.6571 253.169 10.7067C253.239 10.7562 253.292 10.8261 253.322 10.907L260.729 29.4234C260.736 29.4486 260.75 29.4712 260.77 29.4879C260.79 29.5046 260.814 29.5146 260.84 29.5165C260.866 29.5137 260.89 29.5034 260.909 29.4867C260.928 29.4701 260.942 29.448 260.949 29.4234L268.357 10.907C268.386 10.8261 268.439 10.7562 268.51 10.7067C268.58 10.6571 268.664 10.6305 268.75 10.6303H274.577C274.677 10.6299 274.773 10.6655 274.849 10.7306C274.924 10.7957 274.974 10.8859 274.988 10.9846V34.8265C274.993 34.8851 274.986 34.9441 274.967 35C274.949 35.0559 274.92 35.1076 274.881 35.1521C274.843 35.1966 274.796 35.233 274.743 35.2593C274.69 35.2855 274.633 35.301 274.574 35.305H270.886C270.783 35.3061 270.684 35.2688 270.607 35.2004C270.531 35.1319 270.483 35.0373 270.472 34.9351L270.49 18.4336C270.486 18.3976 270.47 18.364 270.445 18.3383C270.419 18.3126 270.386 18.2963 270.35 18.2921C270.314 18.2879 270.277 18.296 270.246 18.3151C270.216 18.3342 270.192 18.3632 270.18 18.3974L263.269 35.0308C263.24 35.1112 263.187 35.1808 263.117 35.2299C263.047 35.2789 262.964 35.3052 262.879 35.305Z" fill="white"/>
</svg>
