<svg width="398" height="40" viewBox="0 0 398 40" fill="none" xmlns="http://www.w3.org/2000/svg">
<g clip-path="url(#clip0_9065_96254)">
<path d="M20 0.375C16.0444 0.375 12.1776 1.54798 8.8886 3.74561C5.59962 5.94324 3.03617 9.06681 1.52242 12.7213C0.0086657 16.3759 -0.387401 20.3972 0.384303 24.2768C1.15601 28.1564 3.06082 31.7201 5.85787 34.5171C8.65492 37.3142 12.2186 39.219 16.0982 39.9907C19.9778 40.7624 23.9992 40.3663 27.6537 38.8526C31.3082 37.3388 34.4318 34.7754 36.6294 31.4864C38.827 28.1974 40 24.3306 40 20.375C40 15.0707 37.8929 9.98359 34.1421 6.23286C30.3914 2.48214 25.3043 0.375 20 0.375ZM26.0106 19.0379C24.0815 19.0614 22.238 19.8381 20.8739 21.2023C19.5097 22.5665 18.7329 24.41 18.7094 26.339C18.7094 26.3701 18.7094 26.4011 18.7094 26.4322C18.7094 27.3657 18.4326 28.2783 17.914 29.0545C17.3953 29.8307 16.6582 30.4356 15.7957 30.7929C14.9332 31.1501 13.9842 31.2436 13.0686 31.0615C12.153 30.8794 11.3119 30.4298 10.6518 29.7697C9.99173 29.1096 9.54219 28.2686 9.36007 27.353C9.17794 26.4374 9.27142 25.4884 9.62866 24.6259C9.98591 23.7634 10.5909 23.0262 11.3671 22.5076C12.1433 21.9889 13.0559 21.7121 13.9894 21.7121C14.9529 21.7118 15.9068 21.5209 16.7962 21.1503C17.6856 20.7797 18.4929 20.2368 19.1716 19.5528C19.8502 18.8689 20.3869 18.0574 20.7505 17.1652C21.1142 16.2729 21.2977 15.3175 21.2906 14.354V14.3178C21.2906 13.3843 21.5674 12.4717 22.0861 11.6955C22.6047 10.9193 23.3419 10.3144 24.2043 9.9571C25.0668 9.59985 26.0159 9.50638 26.9314 9.68851C27.847 9.87063 28.6881 10.3202 29.3482 10.9803C30.0083 11.6404 30.4578 12.4814 30.6399 13.397C30.8221 14.3126 30.7286 15.2616 30.3714 16.1241C30.0141 16.9866 29.4091 17.7238 28.6329 18.2424C27.8567 18.761 26.9441 19.0379 26.0106 19.0379Z" fill="#00C9EA"/>
<path fill-rule="evenodd" clip-rule="evenodd" d="M57.9593 30.8936H72.4013C72.5081 30.8956 72.6097 30.9397 72.6843 31.0161C72.7589 31.0926 72.8003 31.1954 72.7996 31.3022V35.3446C72.7989 35.4521 72.7559 35.555 72.6799 35.631C72.6039 35.707 72.501 35.75 72.3935 35.7507H56.0997C54.7154 35.7486 53.3884 35.1978 52.4096 34.219C51.4308 33.2402 50.88 31.9132 50.8779 30.5289V4.32951C50.8779 4.22182 50.9207 4.11854 50.9969 4.04239C51.073 3.96624 51.1763 3.92346 51.284 3.92346H55.7428C55.8505 3.92346 55.9538 3.96624 56.0299 4.04239C56.1061 4.11854 56.1488 4.22182 56.1488 4.32951V29.0832C56.1549 29.5614 56.3476 30.0184 56.6858 30.3567C57.024 30.6949 57.481 30.8876 57.9593 30.8936ZM129.422 6.14771H125.335C125.111 6.14771 124.929 6.3295 124.929 6.55376V10.6401C124.929 10.8644 125.111 11.0462 125.335 11.0462H129.422C129.646 11.0462 129.828 10.8644 129.828 10.6401V6.55376C129.828 6.3295 129.646 6.14771 129.422 6.14771ZM95.7612 13.9143H91.6748C91.5671 13.9143 91.4639 13.9571 91.3877 14.0332C91.3116 14.1094 91.2688 14.2127 91.2688 14.3204V27.477C91.2753 28.0835 91.0684 28.6731 90.6843 29.1426C90.1079 29.8367 89.4366 30.4462 88.6902 30.953C87.6752 31.639 86.4754 31.9999 85.2504 31.9875C83.5977 31.9875 82.3175 31.5556 81.4485 30.6943C80.5795 29.8331 80.1373 28.5244 80.1373 26.7812V14.3204C80.1376 14.2672 80.1274 14.2144 80.1073 14.1652C80.0872 14.1159 80.0575 14.0711 80.02 14.0334C79.9825 13.9957 79.9379 13.9657 79.8888 13.9453C79.8397 13.9248 79.787 13.9143 79.7338 13.9143H75.6448C75.5371 13.9143 75.4338 13.9571 75.3577 14.0332C75.2815 14.1094 75.2388 14.2127 75.2388 14.3204V27.4201C75.2388 30.0762 76.0431 32.2513 77.6285 33.8859C79.2139 35.5204 81.4433 36.3455 84.2495 36.3455C85.761 36.357 87.2528 36.002 88.5971 35.3109C89.8272 34.6937 90.9212 33.8363 91.8145 32.7893V35.3445C91.8152 35.452 91.8582 35.5549 91.9342 35.6309C92.0102 35.7069 92.1131 35.7499 92.2205 35.7506H95.7638C95.8715 35.7506 95.9748 35.7078 96.0509 35.6317C96.1271 35.5555 96.1698 35.4522 96.1698 35.3445V14.3204C96.1698 14.2668 96.1593 14.2138 96.1387 14.1644C96.1181 14.1149 96.088 14.0701 96.05 14.0323C96.012 13.9946 95.967 13.9647 95.9174 13.9445C95.8678 13.9242 95.8147 13.914 95.7612 13.9143ZM112.047 13.3221C113.689 13.2881 115.312 13.6802 116.757 14.4601C118.087 15.1946 119.18 16.2926 119.91 17.6257C120.668 19.0445 121.053 20.6335 121.027 22.2423V35.342C121.026 35.4495 120.983 35.5524 120.907 35.6284C120.831 35.7044 120.728 35.7474 120.621 35.7481H116.532C116.424 35.7474 116.321 35.7044 116.245 35.6284C116.169 35.5524 116.126 35.4495 116.126 35.342V22.876C116.126 21.1974 115.647 19.9069 114.716 19.0198C113.785 18.1327 112.554 17.6852 111.054 17.6852C109.829 17.6714 108.629 18.0324 107.614 18.7198C106.89 19.2088 106.232 19.7895 105.656 20.4474C105.228 20.9355 104.991 21.562 104.989 22.2113V35.3446C104.989 35.4523 104.946 35.5556 104.87 35.6317C104.794 35.7079 104.691 35.7507 104.583 35.7507H100.497C100.389 35.7507 100.286 35.7079 100.21 35.6317C100.133 35.5556 100.091 35.4523 100.091 35.3446V14.3178C100.091 14.2113 100.133 14.109 100.208 14.0335C100.283 13.9579 100.385 13.9151 100.491 13.9144H104.081C104.189 13.9144 104.291 13.9568 104.367 14.0324C104.444 14.108 104.487 14.2106 104.487 14.3178V16.8731C105.381 15.8286 106.474 14.973 107.702 14.3566C109.046 13.667 110.537 13.3121 112.047 13.3221ZM129.422 13.9144H125.335C125.111 13.9144 124.929 14.0962 124.929 14.3205V35.3447C124.929 35.5689 125.111 35.7507 125.335 35.7507H129.422C129.646 35.7507 129.828 35.5689 129.828 35.3447V14.3205C129.828 14.0962 129.646 13.9144 129.422 13.9144ZM149.445 13.9144H142.506C142.356 13.9137 142.212 13.8538 142.106 13.7477C142 13.6416 141.94 13.498 141.94 13.348V7.09942C141.94 7.04588 141.929 6.99286 141.908 6.94343C141.888 6.894 141.858 6.84912 141.82 6.81138C141.782 6.77364 141.737 6.74378 141.687 6.72353C141.638 6.70328 141.585 6.69303 141.531 6.69337C141.478 6.69363 141.425 6.70452 141.376 6.72539C141.328 6.74627 141.283 6.77671 141.247 6.81492L137.207 10.8754C137.169 10.9128 137.138 10.9575 137.118 11.0068C137.097 11.0562 137.087 11.1091 137.088 11.1625V13.3738C137.08 13.5186 137.018 13.6551 136.913 13.7552C136.808 13.8553 136.669 13.9113 136.524 13.9118H133.596C133.489 13.9131 133.387 13.9565 133.312 14.0325C133.237 14.1085 133.195 14.211 133.195 14.3178V17.8171C133.197 17.9233 133.239 18.0247 133.314 18.1C133.389 18.1753 133.49 18.2186 133.596 18.2206H136.656C136.775 18.2473 136.883 18.3123 136.962 18.4056C137.042 18.499 137.088 18.6156 137.095 18.7379V29.0831C137.095 31.5013 137.794 33.3247 139.165 34.5144C140.535 35.7041 142.369 36.2886 144.596 36.2886H149.432C149.486 36.2886 149.538 36.2781 149.588 36.2577C149.637 36.2373 149.682 36.2074 149.719 36.1697C149.757 36.132 149.787 36.0872 149.807 36.0379C149.828 35.9887 149.838 35.9359 149.838 35.8826V32.0936C149.838 32.0403 149.828 31.9875 149.807 31.9382C149.787 31.8889 149.757 31.8442 149.719 31.8065C149.682 31.7688 149.637 31.7389 149.588 31.7185C149.538 31.698 149.486 31.6875 149.432 31.6875H146.062C143.662 31.6875 142.871 30.966 142.863 30.9582C142.214 30.3866 141.95 29.5849 141.95 28.1908V18.7844C141.95 18.6362 142.008 18.494 142.112 18.3884C142.216 18.2829 142.358 18.2226 142.506 18.2206H149.45C149.558 18.2199 149.661 18.1769 149.737 18.1009C149.813 18.0249 149.856 17.922 149.856 17.8145V14.3178C149.856 14.2643 149.845 14.2113 149.824 14.162C149.803 14.1127 149.773 14.068 149.735 14.0305C149.696 13.993 149.651 13.9635 149.602 13.9435C149.552 13.9236 149.499 13.9137 149.445 13.9144ZM210.751 22.4207C211.648 22.7726 212.493 23.245 213.263 23.8251C213.993 24.3779 214.598 25.0796 215.037 25.8838C215.494 26.7611 215.722 27.7398 215.699 28.7288C215.727 30.1178 215.305 31.4787 214.496 32.6082C213.603 33.7792 212.399 34.6754 211.02 35.1946C209.528 35.8075 207.7 36.1179 205.589 36.1179C203.76 36.1559 201.94 35.8534 200.222 35.2256C198.803 34.706 197.56 33.7949 196.638 32.5979C195.828 31.4766 195.352 30.1483 195.267 28.7675C195.262 28.7004 195.271 28.6329 195.295 28.5699C195.319 28.5069 195.356 28.4498 195.404 28.4029C195.508 28.3009 195.649 28.2442 195.795 28.2451H199.832C199.953 28.2428 200.072 28.2832 200.166 28.3594C200.261 28.4355 200.326 28.5424 200.349 28.6615C200.43 29.2944 200.694 29.8902 201.107 30.3762C201.606 30.9289 202.241 31.3416 202.948 31.5737C203.782 31.8497 204.656 31.9851 205.535 31.9746C206.43 31.9913 207.321 31.8504 208.168 31.5582C208.837 31.3295 209.436 30.9333 209.908 30.4073C210.316 29.9362 210.54 29.3337 210.539 28.7106C210.549 28.1778 210.352 27.6617 209.991 27.2701C209.551 26.8317 209.022 26.4938 208.439 26.2795C207.651 25.9729 206.841 25.7248 206.016 25.5372L203.044 24.826C200.879 24.3062 199.157 23.5251 197.872 22.4414C196.586 21.3577 195.934 19.9042 195.934 18.1145C195.911 16.7118 196.367 15.3431 197.228 14.235C198.153 13.0866 199.363 12.2003 200.737 11.6642C202.326 11.0359 204.023 10.7257 205.731 10.7513C207.431 10.7184 209.12 11.029 210.697 11.6642C212.028 12.2012 213.194 13.0778 214.08 14.2066C214.819 15.1868 215.256 16.3617 215.337 17.5869C215.341 17.6404 215.334 17.6941 215.316 17.7447C215.278 17.8506 215.208 17.9419 215.115 18.0055C215.022 18.0691 214.911 18.1018 214.799 18.099H210.844C210.726 18.1023 210.61 18.0648 210.516 17.9928C210.422 17.9207 210.355 17.8185 210.327 17.7033C210.252 17.2912 210.091 16.8992 209.857 16.552C209.622 16.2048 209.318 15.91 208.964 15.686C208.126 15.1377 207.014 14.8583 205.664 14.8583C204.828 14.8403 203.996 14.9771 203.21 15.2618C202.614 15.4729 202.086 15.8389 201.679 16.3222C201.336 16.7512 201.148 17.2835 201.146 17.8326C201.135 18.2608 201.255 18.682 201.49 19.0404C201.74 19.402 202.068 19.7033 202.449 19.9223C202.891 20.1801 203.359 20.3899 203.846 20.5482C204.363 20.7166 204.887 20.859 205.418 20.975L207.87 21.544C208.853 21.7562 209.817 22.0494 210.751 22.4207ZM249.215 22.4854H239.697C239.646 22.4854 239.596 22.4955 239.549 22.5152C239.502 22.5349 239.459 22.5638 239.423 22.6001C239.387 22.6364 239.359 22.6795 239.34 22.7269C239.321 22.7742 239.311 22.8249 239.312 22.8759V26.4606C239.312 26.5628 239.353 26.6608 239.425 26.7331C239.497 26.8053 239.595 26.8459 239.697 26.8459H245.056C244.976 27.6407 244.737 28.4112 244.353 29.1115C243.857 29.9962 243.113 30.7157 242.211 31.1806C241.189 31.6888 240.058 31.9401 238.916 31.9125C237.618 31.9366 236.341 31.5825 235.241 30.8935C234.144 30.1615 233.285 29.1251 232.769 27.9115C232.179 26.6183 231.879 25.2812 231.879 23.4009C231.83 21.8594 232.134 20.3272 232.769 18.9214C233.286 17.7155 234.142 16.6858 235.233 15.9575C236.302 15.2794 237.545 14.928 238.81 14.9463C239.51 14.9415 240.207 15.0382 240.879 15.2334C241.486 15.4112 242.055 15.6968 242.561 16.0765C243.053 16.4524 243.48 16.9067 243.825 17.4214C244.156 17.9246 244.417 18.47 244.601 19.043C244.617 19.0989 244.651 19.148 244.698 19.1822C244.745 19.2165 244.802 19.234 244.86 19.2318H249.094C249.134 19.2328 249.174 19.2245 249.21 19.2074C249.246 19.1903 249.278 19.165 249.303 19.1335C249.329 19.1038 249.348 19.0686 249.358 19.0305C249.369 18.9924 249.37 18.9524 249.363 18.9137C249.171 17.8 248.779 16.7301 248.206 15.7558C247.6 14.7312 246.811 13.8265 245.879 13.0867C244.911 12.3254 243.818 11.739 242.648 11.3539C241.387 10.9382 240.066 10.7311 238.738 10.7409C237.165 10.7273 235.605 11.028 234.15 11.6254C232.753 12.2072 231.498 13.0821 230.469 14.1911C229.389 15.3765 228.561 16.7683 228.033 18.2826C227.429 19.939 227.134 21.6924 227.164 23.4553C227.164 26.1037 227.661 28.1339 228.638 30.0607C229.557 31.9175 230.991 33.4707 232.769 34.5351C234.517 35.5696 236.578 36.1075 238.896 36.1075C240.823 36.1429 242.73 35.7041 244.449 34.8299C246.037 33.9991 247.355 32.7334 248.25 31.1806C249.169 29.6081 249.634 27.7175 249.634 25.5657V22.9018C249.634 22.8469 249.623 22.7925 249.602 22.7418C249.581 22.6912 249.55 22.6451 249.511 22.6064C249.472 22.5677 249.426 22.5371 249.375 22.5163C249.324 22.4956 249.27 22.4851 249.215 22.4854ZM187.508 11.0461H191.553C191.661 11.0461 191.764 11.0889 191.84 11.1651C191.916 11.2412 191.959 11.3445 191.959 11.4522V35.3343C191.959 35.4415 191.917 35.5444 191.841 35.6205C191.766 35.6965 191.663 35.7396 191.556 35.7403H187.467C187.39 35.74 187.315 35.7198 187.248 35.6817C187.181 35.6436 187.126 35.589 187.086 35.5231L174.84 18.7379V25.0562H174.814V35.3446C174.814 35.4523 174.772 35.5556 174.695 35.6317C174.619 35.7079 174.516 35.7507 174.408 35.7507H170.389C170.282 35.7507 170.178 35.7079 170.102 35.6317C170.026 35.5556 169.983 35.4523 169.983 35.3446V11.4522C169.983 11.3445 170.026 11.2412 170.102 11.1651C170.178 11.0889 170.282 11.0461 170.389 11.0461H174.786C174.862 11.0462 174.937 11.0663 175.004 11.1044C175.07 11.1425 175.125 11.1973 175.164 11.2634L187.102 27.9477V23.3984V20.9414V11.4522C187.102 11.3445 187.145 11.2412 187.221 11.1651C187.297 11.0889 187.4 11.0461 187.508 11.0461ZM274.512 11.0461H270.48C270.372 11.0461 270.269 11.0889 270.193 11.165C270.116 11.2412 270.074 11.3445 270.074 11.4522V20.1215C270.074 20.1993 270.058 20.2763 270.029 20.3481C269.999 20.42 269.955 20.4853 269.9 20.5403C269.845 20.5953 269.78 20.6389 269.708 20.6687C269.636 20.6984 269.559 20.7138 269.481 20.7138H258.373C258.295 20.7138 258.218 20.6984 258.147 20.6687C258.075 20.6389 258.009 20.5953 257.954 20.5403C257.899 20.4853 257.856 20.42 257.826 20.3481C257.796 20.2763 257.781 20.1993 257.781 20.1215V11.4522C257.781 11.3445 257.738 11.2412 257.662 11.165C257.586 11.0889 257.483 11.0461 257.375 11.0461H253.343C253.29 11.0464 253.237 11.0572 253.189 11.0778C253.14 11.0984 253.095 11.1284 253.058 11.1661C253.021 11.2038 252.992 11.2485 252.972 11.2976C252.952 11.3466 252.942 11.3992 252.942 11.4522V35.342C252.942 35.3952 252.952 35.4479 252.972 35.4972C252.992 35.5464 253.022 35.5912 253.059 35.6289C253.097 35.6667 253.141 35.6966 253.19 35.7171C253.239 35.7375 253.292 35.748 253.345 35.748H257.377C257.431 35.748 257.484 35.7375 257.533 35.7171C257.582 35.6967 257.627 35.6668 257.665 35.6291C257.702 35.5914 257.732 35.5466 257.753 35.4974C257.773 35.4481 257.783 35.3953 257.783 35.342V25.5657C257.783 25.488 257.798 25.4111 257.828 25.3392C257.857 25.2674 257.9 25.2021 257.955 25.1471C258.01 25.092 258.075 25.0484 258.147 25.0186C258.219 24.9888 258.296 24.9734 258.373 24.9734H269.494C269.572 24.9731 269.649 24.9882 269.721 25.0178C269.793 25.0475 269.859 25.0911 269.914 25.1461C269.969 25.2012 270.013 25.2666 270.042 25.3386C270.072 25.4107 270.087 25.4878 270.087 25.5657V35.342C270.087 35.4497 270.129 35.5529 270.206 35.6291C270.282 35.7052 270.385 35.748 270.493 35.748H274.525C274.632 35.748 274.736 35.7052 274.812 35.6291C274.888 35.5529 274.931 35.4497 274.931 35.342V11.4522C274.931 11.3977 274.92 11.3438 274.899 11.2937C274.877 11.2436 274.846 11.1982 274.807 11.1604C274.768 11.1225 274.722 11.0928 274.671 11.0732C274.62 11.0536 274.566 11.0444 274.512 11.0461ZM278.223 11.0591H297.879C297.986 11.0611 298.087 11.1048 298.161 11.1807C298.236 11.2567 298.278 11.3588 298.277 11.4651V14.9437C298.278 14.9946 298.268 15.0449 298.249 15.092C298.23 15.1391 298.201 15.1818 298.166 15.2179C298.13 15.254 298.087 15.2826 298.04 15.3021C297.993 15.3216 297.943 15.3317 297.892 15.3317H291.129C290.972 15.3317 290.822 15.3937 290.711 15.5042C290.6 15.6147 290.537 15.7647 290.537 15.9214L290.467 35.3446C290.466 35.4553 290.422 35.5612 290.343 35.6392C290.265 35.7172 290.158 35.761 290.048 35.761H286.044C285.936 35.761 285.833 35.7183 285.756 35.6422C285.68 35.5662 285.636 35.4629 285.636 35.355V15.9239C285.636 15.7669 285.573 15.6162 285.462 15.5051C285.351 15.3941 285.2 15.3317 285.043 15.3317H278.202C278.1 15.331 278.002 15.2898 277.93 15.2171C277.858 15.1445 277.817 15.0462 277.817 14.9437V11.4651C277.817 11.3574 277.86 11.2542 277.936 11.178C278.012 11.1019 278.115 11.0591 278.223 11.0591ZM165.186 11.0591H161.133C160.909 11.0591 160.727 11.2409 160.727 11.4651V35.355C160.727 35.5792 160.909 35.761 161.133 35.761H165.186C165.41 35.761 165.592 35.5792 165.592 35.355V11.4651C165.592 11.2409 165.41 11.0591 165.186 11.0591ZM219.418 11.0591H223.471C223.695 11.0591 223.877 11.2409 223.877 11.4651V35.355C223.877 35.5792 223.695 35.761 223.471 35.761H219.418C219.194 35.761 219.012 35.5792 219.012 35.355V11.4651C219.012 11.2409 219.194 11.0591 219.418 11.0591Z" fill="black"/>
<path fill-rule="evenodd" clip-rule="evenodd" d="M324.324 27.2313H328.351V27.2261C328.424 27.2267 328.495 27.2429 328.56 27.2736C328.626 27.3043 328.684 27.3489 328.731 27.4041C328.777 27.4594 328.812 27.5241 328.831 27.5938C328.85 27.6635 328.854 27.7366 328.843 27.808C328.636 29.3876 328.02 30.8856 327.055 32.1529C326.09 33.4202 324.809 34.4127 323.342 35.0316C321.618 35.771 319.757 36.1394 317.882 36.1127C315.489 36.1127 313.371 35.5954 311.61 34.5609C309.836 33.5239 308.409 31.9863 307.506 30.1409C306.551 28.2322 306.065 25.9821 306.065 23.4165C306.065 20.8508 306.562 18.5904 307.542 16.692C308.471 14.8432 309.921 13.3067 311.713 12.272C313.501 11.2375 315.634 10.7202 318.055 10.7202C319.882 10.6895 321.695 11.042 323.378 11.7548C324.868 12.4005 326.158 13.4327 327.115 14.7445C327.971 15.9436 328.518 17.3359 328.706 18.7973C328.715 18.8695 328.71 18.9431 328.69 19.013C328.669 19.083 328.634 19.1479 328.587 19.2034C328.54 19.2567 328.482 19.2995 328.417 19.329C328.353 19.3584 328.283 19.3738 328.212 19.374H324.146C324.029 19.3711 323.916 19.3286 323.827 19.2535C323.737 19.1783 323.675 19.0749 323.652 18.9602C323.509 18.2035 323.206 17.4859 322.765 16.855C322.267 16.1587 321.59 15.6093 320.807 15.2644C319.938 14.8842 318.998 14.6946 318.05 14.7083C316.824 14.6774 315.62 15.045 314.62 15.7558C313.518 16.4937 312.659 17.5411 312.151 18.7663C311.542 20.2411 311.246 21.8264 311.282 23.4216C311.246 25.0153 311.537 26.5995 312.135 28.077C312.626 29.2923 313.46 30.3384 314.535 31.0875C315.503 31.7935 316.679 32.1575 317.877 32.122C318.888 32.1401 319.892 31.9444 320.822 31.5478C321.649 31.1899 322.363 30.6164 322.892 29.8874C323.366 29.2191 323.687 28.4544 323.833 27.6477C323.853 27.5316 323.913 27.4263 324.003 27.3502C324.093 27.2741 324.207 27.232 324.324 27.2313ZM368.362 25.0744L369.068 26.1994L374.755 34.9877C374.822 35.097 374.847 35.2274 374.823 35.3536C374.8 35.4798 374.73 35.5927 374.628 35.6705C374.552 35.7238 374.462 35.7543 374.37 35.7585H370.05C369.967 35.7588 369.886 35.7384 369.812 35.6991C369.739 35.6598 369.677 35.6029 369.631 35.5335L363.523 26.0132C363.483 25.9518 363.429 25.9014 363.364 25.8666C363.3 25.8318 363.228 25.8137 363.155 25.8141H359.86C359.704 25.8148 359.553 25.8774 359.442 25.9883C359.331 26.0992 359.269 26.2495 359.268 26.4063V35.3421C359.268 35.4525 359.224 35.5584 359.146 35.6365C359.068 35.7146 358.962 35.7585 358.852 35.7585H354.843C354.733 35.7578 354.627 35.7137 354.549 35.6358C354.471 35.5578 354.427 35.4523 354.427 35.3421V11.4729C354.427 11.3627 354.471 11.2572 354.549 11.1793C354.627 11.1013 354.733 11.0572 354.843 11.0565H364.614C366.153 11.0252 367.681 11.3251 369.094 11.9359C370.336 12.4641 371.389 13.3567 372.113 14.4958C372.838 15.635 373.2 16.9672 373.151 18.3163C373.152 19.657 372.737 20.9648 371.962 22.0587C371.116 23.2465 369.973 24.1903 368.646 24.7951C368.537 24.8468 368.416 24.9011 368.281 24.958L368.362 25.0744ZM359.432 15.2008C359.321 15.3117 359.258 15.4619 359.258 15.6188V21.2622C359.258 21.4192 359.32 21.5699 359.431 21.681C359.542 21.792 359.693 21.8544 359.85 21.8544H363.957C364.745 21.8713 365.529 21.7233 366.256 21.4199C366.871 21.172 367.395 20.7415 367.757 20.1865C368.119 19.6315 368.302 18.9787 368.281 18.3163C368.297 17.6991 368.145 17.0891 367.839 16.5525C367.537 16.0571 367.093 15.6641 366.564 15.4248C365.94 15.1482 365.263 15.0123 364.58 15.0265H359.85C359.693 15.0272 359.543 15.0898 359.432 15.2008ZM343.657 23.2381C343.621 23.1861 343.602 23.1243 343.602 23.0609C343.602 22.9976 343.621 22.9358 343.657 22.8838L351.258 11.8298C351.313 11.7554 351.343 11.6664 351.347 11.5744C351.351 11.4823 351.327 11.3912 351.279 11.3126C351.232 11.2317 351.165 11.165 351.083 11.1194C351.002 11.0739 350.909 11.0513 350.816 11.0539H346.541C346.454 11.0533 346.369 11.0736 346.292 11.1133C346.215 11.1529 346.148 11.2107 346.099 11.2815L342.648 16.5628L340.724 19.4284C340.693 19.4809 340.648 19.5241 340.594 19.5536C340.541 19.5832 340.48 19.598 340.419 19.5966C340.357 19.5974 340.296 19.5818 340.242 19.5513C340.188 19.5209 340.143 19.4767 340.111 19.4233L338.215 16.599L334.76 11.279C334.711 11.2069 334.645 11.1483 334.568 11.1085C334.491 11.0687 334.405 11.0491 334.318 11.0514H329.965C329.872 11.0487 329.779 11.0713 329.698 11.1168C329.616 11.1624 329.549 11.2291 329.502 11.31C329.455 11.389 329.432 11.4799 329.436 11.5717C329.44 11.6635 329.47 11.7522 329.523 11.8273L337.171 22.9769C337.206 23.0288 337.225 23.09 337.225 23.1527C337.225 23.2155 337.206 23.2767 337.171 23.3286L331.825 31.204L329.256 34.9852C329.202 35.0598 329.172 35.1487 329.168 35.2407C329.164 35.3327 329.188 35.4237 329.236 35.5024C329.284 35.5822 329.352 35.648 329.433 35.6934C329.514 35.7388 329.606 35.7621 329.699 35.761H333.945C334.032 35.7609 334.117 35.7401 334.194 35.7006C334.271 35.661 334.337 35.6037 334.388 35.5334L338.246 29.691L339.798 27.4202L340.127 26.8667C340.159 26.8143 340.205 26.7711 340.258 26.7411C340.312 26.7111 340.373 26.6954 340.435 26.6954C340.496 26.6954 340.557 26.7111 340.611 26.7411C340.664 26.7711 340.71 26.8143 340.742 26.8667L342.62 29.6961L346.476 35.549C346.527 35.6187 346.593 35.6754 346.67 35.7141C346.747 35.7528 346.832 35.7724 346.918 35.7714H351.207C351.299 35.7736 351.391 35.7508 351.472 35.7052C351.553 35.6597 351.62 35.5932 351.667 35.5128C351.715 35.4343 351.739 35.3434 351.736 35.2514C351.733 35.1594 351.702 35.0704 351.649 34.9955L343.657 23.2381ZM381.009 32.104C381.733 33.3874 382.829 34.4222 384.151 35.0731C385.615 35.766 387.218 36.1137 388.837 36.0895C390.478 36.1267 392.108 35.8091 393.614 35.1584C394.895 34.6034 395.992 33.6957 396.777 32.5411C397.534 31.3952 397.926 30.0473 397.902 28.6745C397.91 27.7223 397.686 26.7825 397.251 25.9356C396.825 25.1027 396.204 24.3855 395.44 23.8459C394.798 23.3907 394.077 23.0567 393.314 22.8605C393.281 22.8512 393.251 22.8318 393.229 22.8051C393.207 22.7783 393.194 22.7454 393.192 22.7109C393.189 22.6764 393.197 22.6419 393.215 22.6122C393.233 22.5825 393.259 22.559 393.291 22.5449C393.875 22.2987 394.417 21.9608 394.895 21.544C395.512 21.0105 396.009 20.352 396.353 19.6121C396.703 18.8518 396.88 18.0231 396.871 17.1861C396.892 15.9701 396.538 14.7772 395.857 13.7696C395.152 12.7561 394.17 11.9682 393.027 11.5014C391.678 10.9553 390.231 10.6913 388.775 10.7255C387.257 10.7071 385.755 11.0307 384.379 11.6721C383.078 12.2867 381.977 13.2546 381.2 14.4653C380.453 15.6491 380.024 17.006 379.956 18.4043C379.953 18.4605 379.961 18.5168 379.981 18.5698C380 18.6227 380.03 18.6711 380.069 18.712C380.107 18.753 380.154 18.7855 380.206 18.8078C380.258 18.83 380.313 18.8414 380.37 18.8413H384.068C384.18 18.8443 384.289 18.804 384.372 18.7288C384.454 18.6537 384.505 18.5495 384.513 18.4379C384.557 17.7934 384.733 17.1648 385.03 16.5912C385.356 15.9779 385.861 15.4789 386.479 15.161C387.15 14.8268 387.893 14.6608 388.643 14.6774C389.258 14.6612 389.868 14.7869 390.425 15.0446C390.925 15.2734 391.346 15.6456 391.634 16.114C391.921 16.5823 392.064 17.1256 392.042 17.6749C392.047 18.2809 391.879 18.8757 391.558 19.3896C391.224 19.9238 390.745 20.3517 390.177 20.6233C389.522 20.935 388.803 21.0891 388.077 21.0733H387.193C387.083 21.0733 386.978 21.1169 386.9 21.1945C386.822 21.2721 386.779 21.3774 386.779 21.4871V24.1821C386.779 24.2925 386.823 24.3984 386.901 24.4765C386.979 24.5546 387.085 24.5985 387.195 24.5985H388.062C388.969 24.5813 389.872 24.7339 390.723 25.0485C391.445 25.3076 392.086 25.7539 392.58 26.3417C393.039 26.9318 393.277 27.6635 393.255 28.4107C393.267 29.0866 393.074 29.7503 392.701 30.3142C392.315 30.8816 391.777 31.3295 391.15 31.6074C390.431 31.93 389.651 32.0899 388.863 32.0755C388.013 32.0929 387.172 31.8907 386.422 31.4884C385.799 31.1086 385.283 30.5774 384.921 29.9443C384.56 29.3111 384.364 28.5967 384.353 27.8676C384.351 27.7584 384.307 27.6541 384.231 27.5762C384.154 27.4982 384.051 27.4526 383.942 27.4486H380.295C380.185 27.4486 380.08 27.4922 380.002 27.5698C379.925 27.6474 379.881 27.7527 379.881 27.8624C379.859 29.3532 380.249 30.821 381.009 32.104Z" fill="#00C9EA"/>
</g>
<defs>
<clipPath id="clip0_9065_96254">
<rect width="398" height="40" fill="white"/>
</clipPath>
</defs>
</svg>
